<svg viewBox="-5,-5,1015,715" xmlns="http://www.w3.org/2000/svg" xmlns:xlink="http://www.w3.org/1999/xlink"><g stroke="#999" stroke-opacity="0.4"><line stroke="rgb(238, 67, 149)" stroke-width="2" x1="6" y1="130" x2="12" y2="140"><title>7 - Hallfred, source: 87, target: 0</title></line><line stroke="rgb(238, 67, 149)" stroke-width="2" x1="12" y1="140" x2="24" y2="140"><title>7 - Hallfred, source: 0, target: 1</title></line><line stroke="rgb(238, 67, 149)" stroke-width="2" x1="24" y1="140" x2="36" y2="140"><title>7 - Hallfred, source: 1, target: 2</title></line><line stroke="rgb(238, 67, 149)" stroke-width="2" x1="36" y1="140" x2="48" y2="140"><title>7 - Hallfred, source: 2, target: 3</title></line><line stroke="rgb(238, 67, 149)" stroke-width="2" x1="48" y1="140" x2="60" y2="140"><title>7 - Hallfred, source: 3, target: 4</title></line><line stroke="rgb(238, 67, 149)" stroke-width="2" x1="60" y1="140" x2="66" y2="150"><title>7 - Hallfred, source: 4, target: 110</title></line><line stroke="rgb(255, 80, 122)" stroke-width="2" x1="42" y1="130" x2="48" y2="140"><title>9 - Hrafnkel, source: 88, target: 3</title></line><line stroke="rgb(255, 80, 122)" stroke-width="2" x1="48" y1="140" x2="60" y2="140"><title>9 - Hrafnkel, source: 3, target: 4</title></line><line stroke="rgb(255, 80, 122)" stroke-width="2" x1="60" y1="140" x2="72" y2="140"><title>9 - Hrafnkel, source: 4, target: 5</title></line><line stroke="rgb(255, 80, 122)" stroke-width="2" x1="72" y1="140" x2="96" y2="150"><title>9 - Hrafnkel, source: 5, target: 7</title></line><line stroke="rgb(255, 80, 122)" stroke-width="2" x1="96" y1="150" x2="132" y2="185"><title>9 - Hrafnkel, source: 7, target: 10</title></line><line stroke="rgb(255, 80, 122)" stroke-width="2" x1="132" y1="185" x2="144" y2="185"><title>9 - Hrafnkel, source: 10, target: 11</title></line><line stroke="rgb(255, 80, 122)" stroke-width="2" x1="144" y1="185" x2="156" y2="185"><title>9 - Hrafnkel, source: 11, target: 12</title></line><line stroke="rgb(255, 80, 122)" stroke-width="2" x1="156" y1="185" x2="204" y2="185"><title>9 - Hrafnkel, source: 12, target: 16</title></line><line stroke="rgb(255, 80, 122)" stroke-width="2" x1="204" y1="185" x2="216" y2="185"><title>9 - Hrafnkel, source: 16, target: 17</title></line><line stroke="rgb(255, 80, 122)" stroke-width="2" x1="216" y1="185" x2="228" y2="185"><title>9 - Hrafnkel, source: 17, target: 18</title></line><line stroke="rgb(255, 80, 122)" stroke-width="2" x1="228" y1="185" x2="240" y2="120"><title>9 - Hrafnkel, source: 18, target: 19</title></line><line stroke="rgb(255, 80, 122)" stroke-width="2" x1="240" y1="120" x2="253" y2="165"><title>9 - Hrafnkel, source: 19, target: 20</title></line><line stroke="rgb(255, 80, 122)" stroke-width="2" x1="253" y1="165" x2="265" y2="185"><title>9 - Hrafnkel, source: 20, target: 21</title></line><line stroke="rgb(255, 80, 122)" stroke-width="2" x1="265" y1="185" x2="277" y2="185"><title>9 - Hrafnkel, source: 21, target: 22</title></line><line stroke="rgb(255, 80, 122)" stroke-width="2" x1="277" y1="185" x2="289" y2="185"><title>9 - Hrafnkel, source: 22, target: 23</title></line><line stroke="rgb(255, 80, 122)" stroke-width="2" x1="289" y1="185" x2="301" y2="205"><title>9 - Hrafnkel, source: 23, target: 24</title></line><line stroke="rgb(255, 80, 122)" stroke-width="2" x1="301" y1="205" x2="313" y2="185"><title>9 - Hrafnkel, source: 24, target: 25</title></line><line stroke="rgb(255, 80, 122)" stroke-width="2" x1="313" y1="185" x2="349" y2="185"><title>9 - Hrafnkel, source: 25, target: 28</title></line><line stroke="rgb(255, 80, 122)" stroke-width="2" x1="349" y1="185" x2="361" y2="185"><title>9 - Hrafnkel, source: 28, target: 29</title></line><line stroke="rgb(255, 80, 122)" stroke-width="2" x1="361" y1="185" x2="469" y2="185"><title>9 - Hrafnkel, source: 29, target: 40</title></line><line stroke="rgb(255, 80, 122)" stroke-width="2" x1="469" y1="185" x2="481" y2="185"><title>9 - Hrafnkel, source: 40, target: 41</title></line><line stroke="rgb(255, 80, 122)" stroke-width="2" x1="481" y1="185" x2="518" y2="185"><title>9 - Hrafnkel, source: 41, target: 44</title></line><line stroke="rgb(255, 80, 122)" stroke-width="2" x1="518" y1="185" x2="530" y2="185"><title>9 - Hrafnkel, source: 44, target: 45</title></line><line stroke="rgb(255, 80, 122)" stroke-width="2" x1="530" y1="185" x2="542" y2="185"><title>9 - Hrafnkel, source: 45, target: 46</title></line><line stroke="rgb(255, 80, 122)" stroke-width="2" x1="542" y1="185" x2="554" y2="185"><title>9 - Hrafnkel, source: 46, target: 47</title></line><line stroke="rgb(255, 80, 122)" stroke-width="2" x1="554" y1="185" x2="566" y2="160"><title>9 - Hrafnkel, source: 47, target: 48</title></line><line stroke="rgb(255, 80, 122)" stroke-width="2" x1="566" y1="160" x2="578" y2="185"><title>9 - Hrafnkel, source: 48, target: 49</title></line><line stroke="rgb(255, 80, 122)" stroke-width="2" x1="578" y1="185" x2="614" y2="185"><title>9 - Hrafnkel, source: 49, target: 52</title></line><line stroke="rgb(255, 80, 122)" stroke-width="2" x1="614" y1="185" x2="626" y2="185"><title>9 - Hrafnkel, source: 52, target: 53</title></line><line stroke="rgb(255, 80, 122)" stroke-width="2" x1="626" y1="185" x2="710" y2="185"><title>9 - Hrafnkel, source: 53, target: 61</title></line><line stroke="rgb(255, 80, 122)" stroke-width="2" x1="710" y1="185" x2="722" y2="185"><title>9 - Hrafnkel, source: 61, target: 62</title></line><line stroke="rgb(255, 80, 122)" stroke-width="2" x1="722" y1="185" x2="771" y2="185"><title>9 - Hrafnkel, source: 62, target: 66</title></line><line stroke="rgb(255, 80, 122)" stroke-width="2" x1="771" y1="185" x2="783" y2="185"><title>9 - Hrafnkel, source: 66, target: 67</title></line><line stroke="rgb(255, 80, 122)" stroke-width="2" x1="783" y1="185" x2="795" y2="185"><title>9 - Hrafnkel, source: 67, target: 68</title></line><line stroke="rgb(255, 80, 122)" stroke-width="2" x1="795" y1="185" x2="807" y2="185"><title>9 - Hrafnkel, source: 68, target: 69</title></line><line stroke="rgb(255, 80, 122)" stroke-width="2" x1="807" y1="185" x2="819" y2="185"><title>9 - Hrafnkel, source: 69, target: 70</title></line><line stroke="rgb(255, 80, 122)" stroke-width="2" x1="819" y1="185" x2="831" y2="185"><title>9 - Hrafnkel, source: 70, target: 71</title></line><line stroke="rgb(255, 80, 122)" stroke-width="2" x1="831" y1="185" x2="867" y2="185"><title>9 - Hrafnkel, source: 71, target: 74</title></line><line stroke="rgb(255, 80, 122)" stroke-width="2" x1="867" y1="185" x2="879" y2="185"><title>9 - Hrafnkel, source: 74, target: 75</title></line><line stroke="rgb(255, 80, 122)" stroke-width="2" x1="879" y1="185" x2="891" y2="185"><title>9 - Hrafnkel, source: 75, target: 76</title></line><line stroke="rgb(255, 80, 122)" stroke-width="2" x1="891" y1="185" x2="975" y2="185"><title>9 - Hrafnkel, source: 76, target: 83</title></line><line stroke="rgb(255, 80, 122)" stroke-width="2" x1="975" y1="185" x2="987" y2="185"><title>9 - Hrafnkel, source: 83, target: 84</title></line><line stroke="rgb(255, 80, 122)" stroke-width="2" x1="987" y1="185" x2="1000" y2="185"><title>9 - Hrafnkel, source: 84, target: 85</title></line><line stroke="rgb(255, 80, 122)" stroke-width="2" x1="1000" y1="185" x2="1000" y2="185"><title>9 - Hrafnkel, source: 85, target: 85</title></line><line stroke="rgb(255, 80, 122)" stroke-width="2" x1="1000" y1="185" x2="1006" y2="195"><title>9 - Hrafnkel, source: 85, target: 111</title></line><line stroke="rgb(255, 89, 107)" stroke-width="2" x1="6" y1="150" x2="12" y2="140"><title>10 - Arnthrud, source: 89, target: 0</title></line><line stroke="rgb(255, 89, 107)" stroke-width="2" x1="12" y1="140" x2="24" y2="140"><title>10 - Arnthrud, source: 0, target: 1</title></line><line stroke="rgb(255, 89, 107)" stroke-width="2" x1="24" y1="140" x2="30" y2="150"><title>10 - Arnthrud, source: 1, target: 112</title></line><line stroke="rgb(255, 99, 92)" stroke-width="2" x1="30" y1="130" x2="36" y2="140"><title>11 - man, source: 90, target: 2</title></line><line stroke="rgb(255, 99, 92)" stroke-width="2" x1="36" y1="140" x2="42" y2="150"><title>11 - man, source: 2, target: 113</title></line><line stroke="rgb(255, 125, 66)" stroke-width="2" x1="969" y1="175" x2="975" y2="185"><title>13 - Thorir, source: 91, target: 83</title></line><line stroke="rgb(255, 125, 66)" stroke-width="2" x1="975" y1="185" x2="981" y2="195"><title>13 - Thorir, source: 83, target: 114</title></line><line stroke="rgb(255, 140, 56)" stroke-width="2" x1="981" y1="175" x2="987" y2="185"><title>14 - Asbjorn, source: 92, target: 84</title></line><line stroke="rgb(255, 140, 56)" stroke-width="2" x1="987" y1="185" x2="993" y2="195"><title>14 - Asbjorn, source: 84, target: 115</title></line><line stroke="rgb(248, 155, 49)" stroke-width="2" x1="66" y1="130" x2="72" y2="140"><title>15 - Frey, source: 93, target: 5</title></line><line stroke="rgb(248, 155, 49)" stroke-width="2" x1="72" y1="140" x2="385" y2="140"><title>15 - Frey, source: 5, target: 31</title></line><line stroke="rgb(248, 155, 49)" stroke-width="2" x1="385" y1="140" x2="391" y2="130"><title>15 - Frey, source: 31, target: 116</title></line><line stroke="rgb(210, 201, 52)" stroke-width="2" x1="319" y1="215" x2="325" y2="205"><title>18 - Sam, source: 94, target: 26</title></line><line stroke="rgb(210, 201, 52)" stroke-width="2" x1="325" y1="205" x2="337" y2="205"><title>18 - Sam, source: 26, target: 27</title></line><line stroke="rgb(210, 201, 52)" stroke-width="2" x1="337" y1="205" x2="349" y2="185"><title>18 - Sam, source: 27, target: 28</title></line><line stroke="rgb(210, 201, 52)" stroke-width="2" x1="349" y1="185" x2="361" y2="185"><title>18 - Sam, source: 28, target: 29</title></line><line stroke="rgb(210, 201, 52)" stroke-width="2" x1="361" y1="185" x2="373" y2="160"><title>18 - Sam, source: 29, target: 30</title></line><line stroke="rgb(210, 201, 52)" stroke-width="2" x1="373" y1="160" x2="397" y2="160"><title>18 - Sam, source: 30, target: 32</title></line><line stroke="rgb(210, 201, 52)" stroke-width="2" x1="397" y1="160" x2="445" y2="150"><title>18 - Sam, source: 32, target: 36</title></line><line stroke="rgb(210, 201, 52)" stroke-width="2" x1="445" y1="150" x2="457" y2="160"><title>18 - Sam, source: 36, target: 38</title></line><line stroke="rgb(210, 201, 52)" stroke-width="2" x1="457" y1="160" x2="469" y2="185"><title>18 - Sam, source: 38, target: 40</title></line><line stroke="rgb(210, 201, 52)" stroke-width="2" x1="469" y1="185" x2="481" y2="185"><title>18 - Sam, source: 40, target: 41</title></line><line stroke="rgb(210, 201, 52)" stroke-width="2" x1="481" y1="185" x2="493" y2="160"><title>18 - Sam, source: 41, target: 42</title></line><line stroke="rgb(210, 201, 52)" stroke-width="2" x1="493" y1="160" x2="506" y2="160"><title>18 - Sam, source: 42, target: 43</title></line><line stroke="rgb(210, 201, 52)" stroke-width="2" x1="506" y1="160" x2="518" y2="185"><title>18 - Sam, source: 43, target: 44</title></line><line stroke="rgb(210, 201, 52)" stroke-width="2" x1="518" y1="185" x2="590" y2="160"><title>18 - Sam, source: 44, target: 50</title></line><line stroke="rgb(210, 201, 52)" stroke-width="2" x1="590" y1="160" x2="602" y2="170"><title>18 - Sam, source: 50, target: 51</title></line><line stroke="rgb(210, 201, 52)" stroke-width="2" x1="602" y1="170" x2="614" y2="185"><title>18 - Sam, source: 51, target: 52</title></line><line stroke="rgb(210, 201, 52)" stroke-width="2" x1="614" y1="185" x2="626" y2="185"><title>18 - Sam, source: 52, target: 53</title></line><line stroke="rgb(210, 201, 52)" stroke-width="2" x1="626" y1="185" x2="638" y2="170"><title>18 - Sam, source: 53, target: 54</title></line><line stroke="rgb(210, 201, 52)" stroke-width="2" x1="638" y1="170" x2="662" y2="155"><title>18 - Sam, source: 54, target: 56</title></line><line stroke="rgb(210, 201, 52)" stroke-width="2" x1="662" y1="155" x2="662" y2="145"><title>18 - Sam, source: 56, target: 57</title></line><line stroke="rgb(210, 201, 52)" stroke-width="2" x1="662" y1="145" x2="686" y2="140"><title>18 - Sam, source: 57, target: 59</title></line><line stroke="rgb(210, 201, 52)" stroke-width="2" x1="686" y1="140" x2="698" y2="205"><title>18 - Sam, source: 59, target: 60</title></line><line stroke="rgb(210, 201, 52)" stroke-width="2" x1="698" y1="205" x2="710" y2="185"><title>18 - Sam, source: 60, target: 61</title></line><line stroke="rgb(210, 201, 52)" stroke-width="2" x1="710" y1="185" x2="722" y2="185"><title>18 - Sam, source: 61, target: 62</title></line><line stroke="rgb(210, 201, 52)" stroke-width="2" x1="722" y1="185" x2="734" y2="230"><title>18 - Sam, source: 62, target: 63</title></line><line stroke="rgb(210, 201, 52)" stroke-width="2" x1="734" y1="230" x2="746" y2="230"><title>18 - Sam, source: 63, target: 64</title></line><line stroke="rgb(210, 201, 52)" stroke-width="2" x1="746" y1="230" x2="855" y2="230"><title>18 - Sam, source: 64, target: 73</title></line><line stroke="rgb(210, 201, 52)" stroke-width="2" x1="855" y1="230" x2="879" y2="185"><title>18 - Sam, source: 73, target: 75</title></line><line stroke="rgb(210, 201, 52)" stroke-width="2" x1="879" y1="185" x2="891" y2="185"><title>18 - Sam, source: 75, target: 76</title></line><line stroke="rgb(210, 201, 52)" stroke-width="2" x1="891" y1="185" x2="903" y2="155"><title>18 - Sam, source: 76, target: 77</title></line><line stroke="rgb(210, 201, 52)" stroke-width="2" x1="903" y1="155" x2="915" y2="140"><title>18 - Sam, source: 77, target: 78</title></line><line stroke="rgb(210, 201, 52)" stroke-width="2" x1="915" y1="140" x2="927" y2="170"><title>18 - Sam, source: 78, target: 79</title></line><line stroke="rgb(210, 201, 52)" stroke-width="2" x1="927" y1="170" x2="939" y2="170"><title>18 - Sam, source: 79, target: 80</title></line><line stroke="rgb(210, 201, 52)" stroke-width="2" x1="939" y1="170" x2="951" y2="140"><title>18 - Sam, source: 80, target: 81</title></line><line stroke="rgb(210, 201, 52)" stroke-width="2" x1="951" y1="140" x2="963" y2="170"><title>18 - Sam, source: 81, target: 82</title></line><line stroke="rgb(210, 201, 52)" stroke-width="2" x1="963" y1="170" x2="969" y2="160"><title>18 - Sam, source: 82, target: 117</title></line><line stroke="rgb(197, 216, 61)" stroke-width="2" x1="78" y1="240" x2="84" y2="230"><title>19 - Eyvind, source: 95, target: 6</title></line><line stroke="rgb(197, 216, 61)" stroke-width="2" x1="84" y1="230" x2="734" y2="230"><title>19 - Eyvind, source: 6, target: 63</title></line><line stroke="rgb(197, 216, 61)" stroke-width="2" x1="734" y1="230" x2="746" y2="230"><title>19 - Eyvind, source: 63, target: 64</title></line><line stroke="rgb(197, 216, 61)" stroke-width="2" x1="746" y1="230" x2="759" y2="165"><title>19 - Eyvind, source: 64, target: 65</title></line><line stroke="rgb(197, 216, 61)" stroke-width="2" x1="759" y1="165" x2="783" y2="185"><title>19 - Eyvind, source: 65, target: 67</title></line><line stroke="rgb(197, 216, 61)" stroke-width="2" x1="783" y1="185" x2="843" y2="165"><title>19 - Eyvind, source: 67, target: 72</title></line><line stroke="rgb(197, 216, 61)" stroke-width="2" x1="843" y1="165" x2="867" y2="185"><title>19 - Eyvind, source: 72, target: 74</title></line><line stroke="rgb(197, 216, 61)" stroke-width="2" x1="867" y1="185" x2="873" y2="175"><title>19 - Eyvind, source: 74, target: 118</title></line><line stroke="rgb(175, 240, 91)" stroke-width="2" x1="78" y1="220" x2="84" y2="230"><title>21 - king of Greeks, source: 96, target: 6</title></line><line stroke="rgb(175, 240, 91)" stroke-width="2" x1="84" y1="230" x2="995" y2="240"><title>21 - king of Greeks, source: 6, target: 86</title></line><line stroke="rgb(175, 240, 91)" stroke-width="2" x1="995" y1="240" x2="995" y2="225"><title>21 - king of Greeks, source: 86, target: 119</title></line><line stroke="rgb(152, 243, 87)" stroke-width="2" x1="90" y1="160" x2="96" y2="150"><title>22 - Freyfaxi, source: 97, target: 7</title></line><line stroke="rgb(152, 243, 87)" stroke-width="2" x1="96" y1="150" x2="180" y2="150"><title>22 - Freyfaxi, source: 7, target: 14</title></line><line stroke="rgb(152, 243, 87)" stroke-width="2" x1="180" y1="150" x2="240" y2="120"><title>22 - Freyfaxi, source: 14, target: 19</title></line><line stroke="rgb(152, 243, 87)" stroke-width="2" x1="240" y1="120" x2="650" y2="120"><title>22 - Freyfaxi, source: 19, target: 55</title></line><line stroke="rgb(152, 243, 87)" stroke-width="2" x1="650" y1="120" x2="674" y2="120"><title>22 - Freyfaxi, source: 55, target: 58</title></line><line stroke="rgb(152, 243, 87)" stroke-width="2" x1="674" y1="120" x2="680" y2="110"><title>22 - Freyfaxi, source: 58, target: 120</title></line><line stroke="rgb(129, 245, 88)" stroke-width="2" x1="102" y1="215" x2="108" y2="205"><title>23 - Thorbjorn, source: 98, target: 8</title></line><line stroke="rgb(129, 245, 88)" stroke-width="2" x1="108" y1="205" x2="120" y2="205"><title>23 - Thorbjorn, source: 8, target: 9</title></line><line stroke="rgb(129, 245, 88)" stroke-width="2" x1="120" y1="205" x2="301" y2="205"><title>23 - Thorbjorn, source: 9, target: 24</title></line><line stroke="rgb(129, 245, 88)" stroke-width="2" x1="301" y1="205" x2="313" y2="185"><title>23 - Thorbjorn, source: 24, target: 25</title></line><line stroke="rgb(129, 245, 88)" stroke-width="2" x1="313" y1="185" x2="325" y2="205"><title>23 - Thorbjorn, source: 25, target: 26</title></line><line stroke="rgb(129, 245, 88)" stroke-width="2" x1="325" y1="205" x2="337" y2="205"><title>23 - Thorbjorn, source: 26, target: 27</title></line><line stroke="rgb(129, 245, 88)" stroke-width="2" x1="337" y1="205" x2="409" y2="205"><title>23 - Thorbjorn, source: 27, target: 33</title></line><line stroke="rgb(129, 245, 88)" stroke-width="2" x1="409" y1="205" x2="698" y2="205"><title>23 - Thorbjorn, source: 33, target: 60</title></line><line stroke="rgb(129, 245, 88)" stroke-width="2" x1="698" y1="205" x2="704" y2="215"><title>23 - Thorbjorn, source: 60, target: 121</title></line><line stroke="rgb(107, 247, 92)" stroke-width="2" x1="102" y1="195" x2="108" y2="205"><title>24 - Einar, source: 99, target: 8</title></line><line stroke="rgb(107, 247, 92)" stroke-width="2" x1="108" y1="205" x2="120" y2="205"><title>24 - Einar, source: 8, target: 9</title></line><line stroke="rgb(107, 247, 92)" stroke-width="2" x1="120" y1="205" x2="132" y2="185"><title>24 - Einar, source: 9, target: 10</title></line><line stroke="rgb(107, 247, 92)" stroke-width="2" x1="132" y1="185" x2="144" y2="185"><title>24 - Einar, source: 10, target: 11</title></line><line stroke="rgb(107, 247, 92)" stroke-width="2" x1="144" y1="185" x2="156" y2="185"><title>24 - Einar, source: 11, target: 12</title></line><line stroke="rgb(107, 247, 92)" stroke-width="2" x1="156" y1="185" x2="168" y2="165"><title>24 - Einar, source: 12, target: 13</title></line><line stroke="rgb(107, 247, 92)" stroke-width="2" x1="168" y1="165" x2="180" y2="150"><title>24 - Einar, source: 13, target: 14</title></line><line stroke="rgb(107, 247, 92)" stroke-width="2" x1="180" y1="150" x2="192" y2="165"><title>24 - Einar, source: 14, target: 15</title></line><line stroke="rgb(107, 247, 92)" stroke-width="2" x1="192" y1="165" x2="253" y2="165"><title>24 - Einar, source: 15, target: 20</title></line><line stroke="rgb(107, 247, 92)" stroke-width="2" x1="253" y1="165" x2="265" y2="185"><title>24 - Einar, source: 20, target: 21</title></line><line stroke="rgb(107, 247, 92)" stroke-width="2" x1="265" y1="185" x2="277" y2="185"><title>24 - Einar, source: 21, target: 22</title></line><line stroke="rgb(107, 247, 92)" stroke-width="2" x1="277" y1="185" x2="289" y2="185"><title>24 - Einar, source: 22, target: 23</title></line><line stroke="rgb(107, 247, 92)" stroke-width="2" x1="289" y1="185" x2="295" y2="175"><title>24 - Einar, source: 23, target: 122</title></line><line stroke="rgb(86, 246, 101)" stroke-width="2" x1="162" y1="155" x2="168" y2="165"><title>25 - shepherds, source: 100, target: 13</title></line><line stroke="rgb(86, 246, 101)" stroke-width="2" x1="168" y1="165" x2="192" y2="165"><title>25 - shepherds, source: 13, target: 15</title></line><line stroke="rgb(86, 246, 101)" stroke-width="2" x1="192" y1="165" x2="198" y2="175"><title>25 - shepherds, source: 15, target: 123</title></line><line stroke="rgb(68, 244, 112)" stroke-width="2" x1="198" y1="195" x2="204" y2="185"><title>26 - mealtime servant, source: 101, target: 16</title></line><line stroke="rgb(68, 244, 112)" stroke-width="2" x1="204" y1="185" x2="216" y2="185"><title>26 - mealtime servant, source: 16, target: 17</title></line><line stroke="rgb(68, 244, 112)" stroke-width="2" x1="216" y1="185" x2="228" y2="185"><title>26 - mealtime servant, source: 17, target: 18</title></line><line stroke="rgb(68, 244, 112)" stroke-width="2" x1="228" y1="185" x2="234" y2="195"><title>26 - mealtime servant, source: 18, target: 124</title></line><line stroke="rgb(32, 226, 157)" stroke-width="2" x1="367" y1="150" x2="373" y2="160"><title>29 - Thorkel, source: 102, target: 30</title></line><line stroke="rgb(32, 226, 157)" stroke-width="2" x1="373" y1="160" x2="385" y2="140"><title>29 - Thorkel, source: 30, target: 31</title></line><line stroke="rgb(32, 226, 157)" stroke-width="2" x1="385" y1="140" x2="397" y2="160"><title>29 - Thorkel, source: 31, target: 32</title></line><line stroke="rgb(32, 226, 157)" stroke-width="2" x1="397" y1="160" x2="421" y2="160"><title>29 - Thorkel, source: 32, target: 34</title></line><line stroke="rgb(32, 226, 157)" stroke-width="2" x1="421" y1="160" x2="433" y2="160"><title>29 - Thorkel, source: 34, target: 35</title></line><line stroke="rgb(32, 226, 157)" stroke-width="2" x1="433" y1="160" x2="530" y2="185"><title>29 - Thorkel, source: 35, target: 45</title></line><line stroke="rgb(32, 226, 157)" stroke-width="2" x1="530" y1="185" x2="542" y2="185"><title>29 - Thorkel, source: 45, target: 46</title></line><line stroke="rgb(32, 226, 157)" stroke-width="2" x1="542" y1="185" x2="554" y2="185"><title>29 - Thorkel, source: 46, target: 47</title></line><line stroke="rgb(32, 226, 157)" stroke-width="2" x1="554" y1="185" x2="602" y2="170"><title>29 - Thorkel, source: 47, target: 51</title></line><line stroke="rgb(32, 226, 157)" stroke-width="2" x1="602" y1="170" x2="638" y2="170"><title>29 - Thorkel, source: 51, target: 54</title></line><line stroke="rgb(32, 226, 157)" stroke-width="2" x1="638" y1="170" x2="674" y2="120"><title>29 - Thorkel, source: 54, target: 58</title></line><line stroke="rgb(32, 226, 157)" stroke-width="2" x1="674" y1="120" x2="686" y2="140"><title>29 - Thorkel, source: 58, target: 59</title></line><line stroke="rgb(32, 226, 157)" stroke-width="2" x1="686" y1="140" x2="915" y2="140"><title>29 - Thorkel, source: 59, target: 78</title></line><line stroke="rgb(32, 226, 157)" stroke-width="2" x1="915" y1="140" x2="951" y2="140"><title>29 - Thorkel, source: 78, target: 81</title></line><line stroke="rgb(32, 226, 157)" stroke-width="2" x1="951" y1="140" x2="957" y2="130"><title>29 - Thorkel, source: 81, target: 125</title></line><line stroke="rgb(25, 205, 187)" stroke-width="2" x1="403" y1="195" x2="409" y2="205"><title>31 - Thorgeir, source: 103, target: 33</title></line><line stroke="rgb(25, 205, 187)" stroke-width="2" x1="409" y1="205" x2="421" y2="160"><title>31 - Thorgeir, source: 33, target: 34</title></line><line stroke="rgb(25, 205, 187)" stroke-width="2" x1="421" y1="160" x2="433" y2="160"><title>31 - Thorgeir, source: 34, target: 35</title></line><line stroke="rgb(25, 205, 187)" stroke-width="2" x1="433" y1="160" x2="445" y2="150"><title>31 - Thorgeir, source: 35, target: 36</title></line><line stroke="rgb(25, 205, 187)" stroke-width="2" x1="445" y1="150" x2="457" y2="160"><title>31 - Thorgeir, source: 36, target: 38</title></line><line stroke="rgb(25, 205, 187)" stroke-width="2" x1="457" y1="160" x2="493" y2="160"><title>31 - Thorgeir, source: 38, target: 42</title></line><line stroke="rgb(25, 205, 187)" stroke-width="2" x1="493" y1="160" x2="506" y2="160"><title>31 - Thorgeir, source: 42, target: 43</title></line><line stroke="rgb(25, 205, 187)" stroke-width="2" x1="506" y1="160" x2="566" y2="160"><title>31 - Thorgeir, source: 43, target: 48</title></line><line stroke="rgb(25, 205, 187)" stroke-width="2" x1="566" y1="160" x2="578" y2="185"><title>31 - Thorgeir, source: 48, target: 49</title></line><line stroke="rgb(25, 205, 187)" stroke-width="2" x1="578" y1="185" x2="590" y2="160"><title>31 - Thorgeir, source: 49, target: 50</title></line><line stroke="rgb(25, 205, 187)" stroke-width="2" x1="590" y1="160" x2="650" y2="120"><title>31 - Thorgeir, source: 50, target: 55</title></line><line stroke="rgb(25, 205, 187)" stroke-width="2" x1="650" y1="120" x2="662" y2="145"><title>31 - Thorgeir, source: 55, target: 57</title></line><line stroke="rgb(25, 205, 187)" stroke-width="2" x1="662" y1="145" x2="662" y2="155"><title>31 - Thorgeir, source: 57, target: 56</title></line><line stroke="rgb(25, 205, 187)" stroke-width="2" x1="662" y1="155" x2="903" y2="155"><title>31 - Thorgeir, source: 56, target: 77</title></line><line stroke="rgb(25, 205, 187)" stroke-width="2" x1="903" y1="155" x2="927" y2="170"><title>31 - Thorgeir, source: 77, target: 79</title></line><line stroke="rgb(25, 205, 187)" stroke-width="2" x1="927" y1="170" x2="939" y2="170"><title>31 - Thorgeir, source: 79, target: 80</title></line><line stroke="rgb(25, 205, 187)" stroke-width="2" x1="939" y1="170" x2="963" y2="170"><title>31 - Thorgeir, source: 80, target: 82</title></line><line stroke="rgb(25, 205, 187)" stroke-width="2" x1="963" y1="170" x2="995" y2="240"><title>31 - Thorgeir, source: 82, target: 86</title></line><line stroke="rgb(25, 205, 187)" stroke-width="2" x1="995" y1="240" x2="995" y2="255"><title>31 - Thorgeir, source: 86, target: 126</title></line><line stroke="rgb(47, 150, 224)" stroke-width="2" x1="753" y1="175" x2="759" y2="165"><title>35 - Eyvind's servant boy, source: 104, target: 65</title></line><line stroke="rgb(47, 150, 224)" stroke-width="2" x1="759" y1="165" x2="843" y2="165"><title>35 - Eyvind's servant boy, source: 65, target: 72</title></line><line stroke="rgb(47, 150, 224)" stroke-width="2" x1="843" y1="165" x2="855" y2="230"><title>35 - Eyvind's servant boy, source: 72, target: 73</title></line><line stroke="rgb(47, 150, 224)" stroke-width="2" x1="855" y1="230" x2="861" y2="230"><title>35 - Eyvind's servant boy, source: 73, target: 127</title></line><line stroke="rgb(57, 136, 225)" stroke-width="2" x1="765" y1="210" x2="771" y2="185"><title>36 - Servant woman, source: 105, target: 66</title></line><line stroke="rgb(57, 136, 225)" stroke-width="2" x1="771" y1="185" x2="777" y2="210"><title>36 - Servant woman, source: 66, target: 128</title></line><line stroke="rgb(68, 121, 223)" stroke-width="2" x1="789" y1="175" x2="795" y2="185"><title>37 - Sighvat, source: 106, target: 68</title></line><line stroke="rgb(68, 121, 223)" stroke-width="2" x1="795" y1="185" x2="801" y2="195"><title>37 - Sighvat, source: 68, target: 129</title></line><line stroke="rgb(78, 108, 218)" stroke-width="2" x1="801" y1="175" x2="807" y2="185"><title>38 - Snorri, source: 107, target: 69</title></line><line stroke="rgb(78, 108, 218)" stroke-width="2" x1="807" y1="185" x2="813" y2="195"><title>38 - Snorri, source: 69, target: 130</title></line><line stroke="rgb(104, 73, 185)" stroke-width="2" x1="813" y1="175" x2="819" y2="185"><title>41 - Thord, source: 108, target: 70</title></line><line stroke="rgb(104, 73, 185)" stroke-width="2" x1="819" y1="185" x2="825" y2="195"><title>41 - Thord, source: 70, target: 131</title></line><line stroke="rgb(110, 64, 170)" stroke-width="2" x1="825" y1="175" x2="831" y2="185"><title>42 - Halli, source: 109, target: 71</title></line><line stroke="rgb(110, 64, 170)" stroke-width="2" x1="831" y1="185" x2="837" y2="195"><title>42 - Halli, source: 71, target: 132</title></line></g><g stroke="#fff" stroke-width="1.5"><circle r="3" fill="rgb(254, 203, 123)" cx="12" cy="140"><title>0 - offer assistance, 10 -&gt; 7, chapter: 1</title></circle><circle r="3" fill="rgb(77, 102, 172)" cx="24" cy="140"><title>1 - death_neutral, 10 -&gt; 7, chapter: 1</title></circle><circle r="3" fill="rgb(254, 221, 141)" cx="36" cy="140"><title>2 - provide information, 11 -&gt; 7, chapter: 1</title></circle><circle r="3" fill="rgb(253, 183, 106)" cx="48" cy="140"><title>3 - request assistance, 9 -&gt; 7, chapter: 2</title></circle><circle r="3" fill="rgb(254, 203, 123)" cx="60" cy="140"><title>4 - offer assistance, 7 -&gt; 9, chapter: 2</title></circle><circle r="3" fill="rgb(254, 203, 123)" cx="72" cy="140"><title>5 - offer assistance, 9 -&gt; 15, chapter: 2</title></circle><circle r="3" fill="rgb(248, 249, 176)" cx="84" cy="230"><title>6 - giftgiving, 19 -&gt; 21, chapter: 3</title></circle><circle r="3" fill="rgb(217, 70, 75)" cx="96" cy="150"><title>7 - fostering, 9 -&gt; 22, chapter: 3</title></circle><circle r="3" fill="rgb(254, 203, 123)" cx="108" cy="205"><title>8 - offer assistance, 23 -&gt; 24, chapter: 4</title></circle><circle r="3" fill="rgb(254, 221, 141)" cx="120" cy="205"><title>9 - provide information, 23 -&gt; 24, chapter: 4</title></circle><circle r="3" fill="rgb(253, 183, 106)" cx="132" cy="185"><title>10 - request assistance, 24 -&gt; 9, chapter: 4</title></circle><circle r="3" fill="rgb(254, 203, 123)" cx="144" cy="185"><title>11 - offer assistance, 24 -&gt; 9, chapter: 4</title></circle><circle r="3" fill="rgb(254, 221, 141)" cx="156" cy="185"><title>12 - provide information, 24 -&gt; 9, chapter: 4</title></circle><circle r="3" fill="rgb(253, 183, 106)" cx="168" cy="165"><title>13 - request assistance, 24 -&gt; 25, chapter: 5</title></circle><circle r="3" fill="rgb(253, 183, 106)" cx="180" cy="150"><title>14 - request assistance, 24 -&gt; 22, chapter: 5</title></circle><circle r="3" fill="rgb(253, 183, 106)" cx="192" cy="165"><title>15 - request assistance, 24 -&gt; 25, chapter: 5</title></circle><circle r="3" fill="rgb(253, 183, 106)" cx="204" cy="185"><title>16 - request assistance, 9 -&gt; 26, chapter: 5</title></circle><circle r="3" fill="rgb(253, 183, 106)" cx="216" cy="185"><title>17 - request assistance, 9 -&gt; 26, chapter: 5</title></circle><circle r="3" fill="rgb(254, 235, 159)" cx="228" cy="185"><title>18 - discover information, 26 -&gt; 9, chapter: 5</title></circle><circle r="3" fill="rgb(254, 221, 141)" cx="240" cy="120"><title>19 - provide information, 9 -&gt; 22, chapter: 5</title></circle><circle r="3" fill="rgb(238, 248, 168)" cx="253" cy="165"><title>20 - accusation, 9 -&gt; 24, chapter: 5</title></circle><circle r="3" fill="rgb(69, 148, 180)" cx="265" cy="185"><title>21 - hostility_lethal, 9 -&gt; 24, chapter: 5</title></circle><circle r="3" fill="rgb(69, 148, 180)" cx="277" cy="185"><title>22 - hostility_lethal, 9 -&gt; 24, chapter: 5</title></circle><circle r="3" fill="rgb(77, 102, 172)" cx="289" cy="185"><title>23 - death_neutral, 9 -&gt; 24, chapter: 5</title></circle><circle r="3" fill="rgb(130, 204, 165)" cx="301" cy="205"><title>24 - intervention, 9 -&gt; 23, chapter: 6</title></circle><circle r="3" fill="rgb(105, 189, 169)" cx="313" cy="185"><title>25 - challenge, 23 -&gt; 9, chapter: 6</title></circle><circle r="3" fill="rgb(253, 183, 106)" cx="325" cy="205"><title>26 - request assistance, 23 -&gt; 18, chapter: 6</title></circle><circle r="3" fill="rgb(250, 160, 92)" cx="337" cy="205"><title>27 - placed in command, 18 -&gt; 23, chapter: 6</title></circle><circle r="3" fill="rgb(238, 248, 168)" cx="349" cy="185"><title>28 - accusation, 18 -&gt; 9, chapter: 7</title></circle><circle r="3" fill="rgb(224, 243, 161)" cx="361" cy="185"><title>29 - summons, 18 -&gt; 9, chapter: 7</title></circle><circle r="3" fill="rgb(253, 183, 106)" cx="373" cy="160"><title>30 - request assistance, 18 -&gt; 29, chapter: 8</title></circle><circle r="3" fill="rgb(254, 221, 141)" cx="385" cy="140"><title>31 - provide information, 29 -&gt; 15, chapter: 8</title></circle><circle r="3" fill="rgb(254, 221, 141)" cx="397" cy="160"><title>32 - provide information, 29 -&gt; 18, chapter: 9</title></circle><circle r="3" fill="rgb(83, 170, 175)" cx="409" cy="205"><title>33 - hostility_non-lethal, 23 -&gt; 31, chapter: 9</title></circle><circle r="3" fill="rgb(130, 204, 165)" cx="421" cy="160"><title>34 - intervention, 29 -&gt; 31, chapter: 9</title></circle><circle r="3" fill="rgb(254, 203, 123)" cx="433" cy="160"><title>35 - offer assistance, 31 -&gt; 29, chapter: 9</title></circle><circle r="3" fill="rgb(254, 221, 141)" cx="445" cy="150"><title>36 - provide information, 18 -&gt; 31, chapter: 10</title></circle><circle r="3" fill="rgb(254, 221, 141)" cx="457" cy="160"><title>38 - provide information, 18 -&gt; 31, chapter: 10</title></circle><circle r="3" fill="rgb(238, 248, 168)" cx="469" cy="185"><title>40 - accusation, 18 -&gt; 9, chapter: 10</title></circle><circle r="3" fill="rgb(83, 170, 175)" cx="481" cy="185"><title>41 - hostility_non-lethal, 18 -&gt; 9, chapter: 10</title></circle><circle r="3" fill="rgb(253, 183, 106)" cx="493" cy="160"><title>42 - request assistance, 31 -&gt; 18, chapter: 10</title></circle><circle r="3" fill="rgb(254, 221, 141)" cx="506" cy="160"><title>43 - provide information, 31 -&gt; 18, chapter: 10</title></circle><circle r="3" fill="rgb(250, 160, 92)" cx="518" cy="185"><title>44 - placed in command, 9 -&gt; 18, chapter: 11</title></circle><circle r="3" fill="rgb(253, 183, 106)" cx="530" cy="185"><title>45 - request assistance, 9 -&gt; 29, chapter: 11</title></circle><circle r="3" fill="rgb(156, 215, 163)" cx="542" cy="185"><title>46 - threat, 29 -&gt; 9, chapter: 11</title></circle><circle r="3" fill="rgb(83, 170, 175)" cx="554" cy="185"><title>47 - hostility_non-lethal, 29 -&gt; 9, chapter: 11</title></circle><circle r="3" fill="rgb(182, 226, 161)" cx="566" cy="160"><title>48 - insult, 31 -&gt; 9, chapter: 11</title></circle><circle r="3" fill="rgb(83, 170, 175)" cx="578" cy="185"><title>49 - hostility_non-lethal, 31 -&gt; 9, chapter: 11</title></circle><circle r="3" fill="rgb(254, 221, 141)" cx="590" cy="160"><title>50 - provide information, 31 -&gt; 18, chapter: 11</title></circle><circle r="3" fill="rgb(254, 221, 141)" cx="602" cy="170"><title>51 - provide information, 29 -&gt; 18, chapter: 11</title></circle><circle r="3" fill="rgb(182, 226, 161)" cx="614" cy="185"><title>52 - insult, 18 -&gt; 9, chapter: 11</title></circle><circle r="3" fill="rgb(83, 170, 175)" cx="626" cy="185"><title>53 - hostility_non-lethal, 18 -&gt; 9, chapter: 11</title></circle><circle r="3" fill="rgb(254, 221, 141)" cx="638" cy="170"><title>54 - provide information, 29 -&gt; 18, chapter: 12</title></circle><circle r="3" fill="rgb(224, 243, 161)" cx="650" cy="120"><title>55 - summons, 31 -&gt; 22, chapter: 12</title></circle><circle r="3" fill="rgb(248, 249, 176)" cx="662" cy="155"><title>56 - giftgiving, 18 -&gt; 31, chapter: 12</title></circle><circle r="3" fill="rgb(254, 221, 141)" cx="662" cy="145"><title>57 - provide information, 31 -&gt; 18, chapter: 12</title></circle><circle r="3" fill="rgb(224, 243, 161)" cx="674" cy="120"><title>58 - summons, 29 -&gt; 22, chapter: 12</title></circle><circle r="3" fill="rgb(248, 249, 176)" cx="686" cy="140"><title>59 - giftgiving, 18 -&gt; 29, chapter: 12</title></circle><circle r="3" fill="rgb(248, 249, 176)" cx="698" cy="205"><title>60 - giftgiving, 18 -&gt; 23, chapter: 12</title></circle><circle r="3" fill="rgb(67, 125, 179)" cx="710" cy="185"><title>61 - conversation_neutral, 9 -&gt; 18, chapter: 13</title></circle><circle r="3" fill="rgb(67, 125, 179)" cx="722" cy="185"><title>62 - conversation_neutral, 18 -&gt; 9, chapter: 13</title></circle><circle r="3" fill="rgb(253, 245, 173)" cx="734" cy="230"><title>63 - invitation, 18 -&gt; 19, chapter: 14</title></circle><circle r="3" fill="rgb(248, 249, 176)" cx="746" cy="230"><title>64 - giftgiving, 18 -&gt; 19, chapter: 14</title></circle><circle r="3" fill="rgb(254, 203, 123)" cx="759" cy="165"><title>65 - offer assistance, 19 -&gt; 35, chapter: 14</title></circle><circle r="3" fill="rgb(182, 226, 161)" cx="771" cy="185"><title>66 - insult, 36 -&gt; 9, chapter: 14</title></circle><circle r="3" fill="rgb(83, 170, 175)" cx="783" cy="185"><title>67 - hostility_non-lethal, 9 -&gt; 19, chapter: 14</title></circle><circle r="3" fill="rgb(224, 243, 161)" cx="795" cy="185"><title>68 - summons, 9 -&gt; 37, chapter: 14</title></circle><circle r="3" fill="rgb(224, 243, 161)" cx="807" cy="185"><title>69 - summons, 9 -&gt; 38, chapter: 14</title></circle><circle r="3" fill="rgb(224, 243, 161)" cx="819" cy="185"><title>70 - summons, 9 -&gt; 41, chapter: 14</title></circle><circle r="3" fill="rgb(224, 243, 161)" cx="831" cy="185"><title>71 - summons, 9 -&gt; 42, chapter: 14</title></circle><circle r="3" fill="rgb(254, 221, 141)" cx="843" cy="165"><title>72 - provide information, 35 -&gt; 19, chapter: 14</title></circle><circle r="3" fill="rgb(253, 183, 106)" cx="855" cy="230"><title>73 - request assistance, 35 -&gt; 18, chapter: 14</title></circle><circle r="3" fill="rgb(69, 148, 180)" cx="867" cy="185"><title>74 - hostility_lethal, 9 -&gt; 19, chapter: 14</title></circle><circle r="3" fill="rgb(83, 170, 175)" cx="879" cy="185"><title>75 - hostility_non-lethal, 18 -&gt; 9, chapter: 14</title></circle><circle r="3" fill="rgb(105, 189, 169)" cx="891" cy="185"><title>76 - challenge, 9 -&gt; 18, chapter: 15</title></circle><circle r="3" fill="rgb(253, 183, 106)" cx="903" cy="155"><title>77 - request assistance, 18 -&gt; 31, chapter: 16</title></circle><circle r="3" fill="rgb(248, 249, 176)" cx="915" cy="140"><title>78 - giftgiving, 18 -&gt; 29, chapter: 16</title></circle><circle r="3" fill="rgb(248, 249, 176)" cx="927" cy="170"><title>79 - giftgiving, 18 -&gt; 31, chapter: 16</title></circle><circle r="3" fill="rgb(254, 221, 141)" cx="939" cy="170"><title>80 - provide information, 31 -&gt; 18, chapter: 16</title></circle><circle r="3" fill="rgb(248, 249, 176)" cx="951" cy="140"><title>81 - giftgiving, 29 -&gt; 18, chapter: 16</title></circle><circle r="3" fill="rgb(248, 249, 176)" cx="963" cy="170"><title>82 - giftgiving, 31 -&gt; 18, chapter: 16</title></circle><circle r="3" fill="rgb(240, 112, 74)" cx="975" cy="185"><title>83 - inheritance, 9 -&gt; 13, chapter: 16</title></circle><circle r="3" fill="rgb(240, 112, 74)" cx="987" cy="185"><title>84 - inheritance, 9 -&gt; 14, chapter: 16</title></circle><circle r="3" fill="rgb(77, 102, 172)" cx="1000" cy="185"><title>85 - death_neutral, 9 -&gt; 9, chapter: 16</title></circle><circle r="3" fill="rgb(69, 148, 180)" cx="995" cy="240"><title>86 - hostility_lethal, 31 -&gt; 21, chapter: 12</title></circle><circle r="3" fill="rgb(158, 1, 66)" cx="6" cy="130"><title>87 - origin, -1 -&gt; 7, chapter: 0</title></circle><circle r="3" fill="rgb(158, 1, 66)" cx="42" cy="130"><title>88 - origin, -1 -&gt; 9, chapter: 0</title></circle><circle r="3" fill="rgb(158, 1, 66)" cx="6" cy="150"><title>89 - origin, -1 -&gt; 10, chapter: 0</title></circle><circle r="3" fill="rgb(158, 1, 66)" cx="30" cy="130"><title>90 - origin, -1 -&gt; 11, chapter: 0</title></circle><circle r="3" fill="rgb(158, 1, 66)" cx="969" cy="175"><title>91 - origin, -1 -&gt; 13, chapter: 0</title></circle><circle r="3" fill="rgb(158, 1, 66)" cx="981" cy="175"><title>92 - origin, -1 -&gt; 14, chapter: 0</title></circle><circle r="3" fill="rgb(158, 1, 66)" cx="66" cy="130"><title>93 - origin, -1 -&gt; 15, chapter: 0</title></circle><circle r="3" fill="rgb(158, 1, 66)" cx="319" cy="215"><title>94 - origin, -1 -&gt; 18, chapter: 0</title></circle><circle r="3" fill="rgb(158, 1, 66)" cx="78" cy="240"><title>95 - origin, -1 -&gt; 19, chapter: 0</title></circle><circle r="3" fill="rgb(158, 1, 66)" cx="78" cy="220"><title>96 - origin, -1 -&gt; 21, chapter: 0</title></circle><circle r="3" fill="rgb(158, 1, 66)" cx="90" cy="160"><title>97 - origin, -1 -&gt; 22, chapter: 0</title></circle><circle r="3" fill="rgb(158, 1, 66)" cx="102" cy="215"><title>98 - origin, -1 -&gt; 23, chapter: 0</title></circle><circle r="3" fill="rgb(158, 1, 66)" cx="102" cy="195"><title>99 - origin, -1 -&gt; 24, chapter: 0</title></circle><circle r="3" fill="rgb(158, 1, 66)" cx="162" cy="155"><title>100 - origin, -1 -&gt; 25, chapter: 0</title></circle><circle r="3" fill="rgb(158, 1, 66)" cx="198" cy="195"><title>101 - origin, -1 -&gt; 26, chapter: 0</title></circle><circle r="3" fill="rgb(158, 1, 66)" cx="367" cy="150"><title>102 - origin, -1 -&gt; 29, chapter: 0</title></circle><circle r="3" fill="rgb(158, 1, 66)" cx="403" cy="195"><title>103 - origin, -1 -&gt; 31, chapter: 0</title></circle><circle r="3" fill="rgb(158, 1, 66)" cx="753" cy="175"><title>104 - origin, -1 -&gt; 35, chapter: 0</title></circle><circle r="3" fill="rgb(158, 1, 66)" cx="765" cy="210"><title>105 - origin, -1 -&gt; 36, chapter: 0</title></circle><circle r="3" fill="rgb(158, 1, 66)" cx="789" cy="175"><title>106 - origin, -1 -&gt; 37, chapter: 0</title></circle><circle r="3" fill="rgb(158, 1, 66)" cx="801" cy="175"><title>107 - origin, -1 -&gt; 38, chapter: 0</title></circle><circle r="3" fill="rgb(158, 1, 66)" cx="813" cy="175"><title>108 - origin, -1 -&gt; 41, chapter: 0</title></circle><circle r="3" fill="rgb(158, 1, 66)" cx="825" cy="175"><title>109 - origin, -1 -&gt; 42, chapter: 0</title></circle><circle r="3" fill="rgb(94, 79, 162)" cx="66" cy="150"><title>110 - last_seen, 7 -&gt; -2, chapter: 17</title></circle><circle r="3" fill="rgb(94, 79, 162)" cx="1006" cy="195"><title>111 - last_seen, 9 -&gt; -2, chapter: 17</title></circle><circle r="3" fill="rgb(94, 79, 162)" cx="30" cy="150"><title>112 - last_seen, 10 -&gt; -2, chapter: 17</title></circle><circle r="3" fill="rgb(94, 79, 162)" cx="42" cy="150"><title>113 - last_seen, 11 -&gt; -2, chapter: 17</title></circle><circle r="3" fill="rgb(94, 79, 162)" cx="981" cy="195"><title>114 - last_seen, 13 -&gt; -2, chapter: 17</title></circle><circle r="3" fill="rgb(94, 79, 162)" cx="993" cy="195"><title>115 - last_seen, 14 -&gt; -2, chapter: 17</title></circle><circle r="3" fill="rgb(94, 79, 162)" cx="391" cy="130"><title>116 - last_seen, 15 -&gt; -2, chapter: 17</title></circle><circle r="3" fill="rgb(94, 79, 162)" cx="969" cy="160"><title>117 - last_seen, 18 -&gt; -2, chapter: 17</title></circle><circle r="3" fill="rgb(94, 79, 162)" cx="873" cy="175"><title>118 - last_seen, 19 -&gt; -2, chapter: 17</title></circle><circle r="3" fill="rgb(94, 79, 162)" cx="995" cy="225"><title>119 - last_seen, 21 -&gt; -2, chapter: 17</title></circle><circle r="3" fill="rgb(94, 79, 162)" cx="680" cy="110"><title>120 - last_seen, 22 -&gt; -2, chapter: 17</title></circle><circle r="3" fill="rgb(94, 79, 162)" cx="704" cy="215"><title>121 - last_seen, 23 -&gt; -2, chapter: 17</title></circle><circle r="3" fill="rgb(94, 79, 162)" cx="295" cy="175"><title>122 - last_seen, 24 -&gt; -2, chapter: 17</title></circle><circle r="3" fill="rgb(94, 79, 162)" cx="198" cy="175"><title>123 - last_seen, 25 -&gt; -2, chapter: 17</title></circle><circle r="3" fill="rgb(94, 79, 162)" cx="234" cy="195"><title>124 - last_seen, 26 -&gt; -2, chapter: 17</title></circle><circle r="3" fill="rgb(94, 79, 162)" cx="957" cy="130"><title>125 - last_seen, 29 -&gt; -2, chapter: 17</title></circle><circle r="3" fill="rgb(94, 79, 162)" cx="995" cy="255"><title>126 - last_seen, 31 -&gt; -2, chapter: 17</title></circle><circle r="3" fill="rgb(94, 79, 162)" cx="861" cy="230"><title>127 - last_seen, 35 -&gt; -2, chapter: 17</title></circle><circle r="3" fill="rgb(94, 79, 162)" cx="777" cy="210"><title>128 - last_seen, 36 -&gt; -2, chapter: 17</title></circle><circle r="3" fill="rgb(94, 79, 162)" cx="801" cy="195"><title>129 - last_seen, 37 -&gt; -2, chapter: 17</title></circle><circle r="3" fill="rgb(94, 79, 162)" cx="813" cy="195"><title>130 - last_seen, 38 -&gt; -2, chapter: 17</title></circle><circle r="3" fill="rgb(94, 79, 162)" cx="825" cy="195"><title>131 - last_seen, 41 -&gt; -2, chapter: 17</title></circle><circle r="3" fill="rgb(94, 79, 162)" cx="837" cy="195"><title>132 - last_seen, 42 -&gt; -2, chapter: 17</title></circle></g></svg>