<svg viewBox="-5,-5,1015,715" xmlns="http://www.w3.org/2000/svg" xmlns:xlink="http://www.w3.org/1999/xlink"><g stroke="#999" stroke-opacity="0.4"><line stroke="rgb(238, 67, 149)" stroke-width="2" x1="5" y1="115" x2="10" y2="140"><title>7 - Hallfred, source: 87, target: 0</title></line><line stroke="rgb(238, 67, 149)" stroke-width="2" x1="10" y1="140" x2="25" y2="140"><title>7 - Hallfred, source: 0, target: 1</title></line><line stroke="rgb(238, 67, 149)" stroke-width="2" x1="25" y1="140" x2="35" y2="165"><title>7 - Hallfred, source: 1, target: 2</title></line><line stroke="rgb(238, 67, 149)" stroke-width="2" x1="35" y1="165" x2="60" y2="165"><title>7 - Hallfred, source: 2, target: 4</title></line><line stroke="rgb(238, 67, 149)" stroke-width="2" x1="60" y1="165" x2="50" y2="140"><title>7 - Hallfred, source: 4, target: 3</title></line><line stroke="rgb(238, 67, 149)" stroke-width="2" x1="50" y1="140" x2="65" y2="115"><title>7 - Hallfred, source: 3, target: 110</title></line><line stroke="rgb(255, 80, 122)" stroke-width="2" x1="40" y1="115" x2="50" y2="140"><title>9 - Hrafnkel, source: 88, target: 3</title></line><line stroke="rgb(255, 80, 122)" stroke-width="2" x1="50" y1="140" x2="70" y2="150"><title>9 - Hrafnkel, source: 3, target: 5</title></line><line stroke="rgb(255, 80, 122)" stroke-width="2" x1="70" y1="150" x2="60" y2="165"><title>9 - Hrafnkel, source: 5, target: 4</title></line><line stroke="rgb(255, 80, 122)" stroke-width="2" x1="60" y1="165" x2="95" y2="165"><title>9 - Hrafnkel, source: 4, target: 7</title></line><line stroke="rgb(255, 80, 122)" stroke-width="2" x1="95" y1="165" x2="145" y2="120"><title>9 - Hrafnkel, source: 7, target: 11</title></line><line stroke="rgb(255, 80, 122)" stroke-width="2" x1="145" y1="120" x2="155" y2="230"><title>9 - Hrafnkel, source: 11, target: 12</title></line><line stroke="rgb(255, 80, 122)" stroke-width="2" x1="155" y1="230" x2="135" y2="230"><title>9 - Hrafnkel, source: 12, target: 10</title></line><line stroke="rgb(255, 80, 122)" stroke-width="2" x1="135" y1="230" x2="205" y2="250"><title>9 - Hrafnkel, source: 10, target: 16</title></line><line stroke="rgb(255, 80, 122)" stroke-width="2" x1="205" y1="250" x2="255" y2="250"><title>9 - Hrafnkel, source: 16, target: 20</title></line><line stroke="rgb(255, 80, 122)" stroke-width="2" x1="255" y1="250" x2="265" y2="250"><title>9 - Hrafnkel, source: 20, target: 21</title></line><line stroke="rgb(255, 80, 122)" stroke-width="2" x1="265" y1="250" x2="290" y2="310"><title>9 - Hrafnkel, source: 21, target: 23</title></line><line stroke="rgb(255, 80, 122)" stroke-width="2" x1="290" y1="310" x2="230" y2="275"><title>9 - Hrafnkel, source: 23, target: 18</title></line><line stroke="rgb(255, 80, 122)" stroke-width="2" x1="230" y1="275" x2="215" y2="275"><title>9 - Hrafnkel, source: 18, target: 17</title></line><line stroke="rgb(255, 80, 122)" stroke-width="2" x1="215" y1="275" x2="240" y2="185"><title>9 - Hrafnkel, source: 17, target: 19</title></line><line stroke="rgb(255, 80, 122)" stroke-width="2" x1="240" y1="185" x2="275" y2="165"><title>9 - Hrafnkel, source: 19, target: 22</title></line><line stroke="rgb(255, 80, 122)" stroke-width="2" x1="275" y1="165" x2="300" y2="185"><title>9 - Hrafnkel, source: 22, target: 24</title></line><line stroke="rgb(255, 80, 122)" stroke-width="2" x1="300" y1="185" x2="315" y2="230"><title>9 - Hrafnkel, source: 24, target: 25</title></line><line stroke="rgb(255, 80, 122)" stroke-width="2" x1="315" y1="230" x2="350" y2="215"><title>9 - Hrafnkel, source: 25, target: 28</title></line><line stroke="rgb(255, 80, 122)" stroke-width="2" x1="350" y1="215" x2="360" y2="190"><title>9 - Hrafnkel, source: 28, target: 29</title></line><line stroke="rgb(255, 80, 122)" stroke-width="2" x1="360" y1="190" x2="470" y2="165"><title>9 - Hrafnkel, source: 29, target: 40</title></line><line stroke="rgb(255, 80, 122)" stroke-width="2" x1="470" y1="165" x2="480" y2="165"><title>9 - Hrafnkel, source: 40, target: 41</title></line><line stroke="rgb(255, 80, 122)" stroke-width="2" x1="480" y1="165" x2="530" y2="165"><title>9 - Hrafnkel, source: 41, target: 45</title></line><line stroke="rgb(255, 80, 122)" stroke-width="2" x1="530" y1="165" x2="540" y2="140"><title>9 - Hrafnkel, source: 45, target: 46</title></line><line stroke="rgb(255, 80, 122)" stroke-width="2" x1="540" y1="140" x2="555" y2="150"><title>9 - Hrafnkel, source: 46, target: 47</title></line><line stroke="rgb(255, 80, 122)" stroke-width="2" x1="555" y1="150" x2="520" y2="250"><title>9 - Hrafnkel, source: 47, target: 44</title></line><line stroke="rgb(255, 80, 122)" stroke-width="2" x1="520" y1="250" x2="565" y2="225"><title>9 - Hrafnkel, source: 44, target: 48</title></line><line stroke="rgb(255, 80, 122)" stroke-width="2" x1="565" y1="225" x2="580" y2="225"><title>9 - Hrafnkel, source: 48, target: 49</title></line><line stroke="rgb(255, 80, 122)" stroke-width="2" x1="580" y1="225" x2="615" y2="195"><title>9 - Hrafnkel, source: 49, target: 52</title></line><line stroke="rgb(255, 80, 122)" stroke-width="2" x1="615" y1="195" x2="625" y2="55"><title>9 - Hrafnkel, source: 52, target: 53</title></line><line stroke="rgb(255, 80, 122)" stroke-width="2" x1="625" y1="55" x2="710" y2="55"><title>9 - Hrafnkel, source: 53, target: 61</title></line><line stroke="rgb(255, 80, 122)" stroke-width="2" x1="710" y1="55" x2="725" y2="55"><title>9 - Hrafnkel, source: 61, target: 62</title></line><line stroke="rgb(255, 80, 122)" stroke-width="2" x1="725" y1="55" x2="795" y2="55"><title>9 - Hrafnkel, source: 62, target: 68</title></line><line stroke="rgb(255, 80, 122)" stroke-width="2" x1="795" y1="55" x2="805" y2="55"><title>9 - Hrafnkel, source: 68, target: 69</title></line><line stroke="rgb(255, 80, 122)" stroke-width="2" x1="805" y1="55" x2="820" y2="65"><title>9 - Hrafnkel, source: 69, target: 70</title></line><line stroke="rgb(255, 80, 122)" stroke-width="2" x1="820" y1="65" x2="830" y2="70"><title>9 - Hrafnkel, source: 70, target: 71</title></line><line stroke="rgb(255, 80, 122)" stroke-width="2" x1="830" y1="70" x2="770" y2="95"><title>9 - Hrafnkel, source: 71, target: 66</title></line><line stroke="rgb(255, 80, 122)" stroke-width="2" x1="770" y1="95" x2="785" y2="95"><title>9 - Hrafnkel, source: 66, target: 67</title></line><line stroke="rgb(255, 80, 122)" stroke-width="2" x1="785" y1="95" x2="865" y2="145"><title>9 - Hrafnkel, source: 67, target: 74</title></line><line stroke="rgb(255, 80, 122)" stroke-width="2" x1="865" y1="145" x2="880" y2="145"><title>9 - Hrafnkel, source: 74, target: 75</title></line><line stroke="rgb(255, 80, 122)" stroke-width="2" x1="880" y1="145" x2="890" y2="130"><title>9 - Hrafnkel, source: 75, target: 76</title></line><line stroke="rgb(255, 80, 122)" stroke-width="2" x1="890" y1="130" x2="975" y2="130"><title>9 - Hrafnkel, source: 76, target: 83</title></line><line stroke="rgb(255, 80, 122)" stroke-width="2" x1="975" y1="130" x2="990" y2="130"><title>9 - Hrafnkel, source: 83, target: 84</title></line><line stroke="rgb(255, 80, 122)" stroke-width="2" x1="990" y1="130" x2="1000" y2="130"><title>9 - Hrafnkel, source: 84, target: 85</title></line><line stroke="rgb(255, 80, 122)" stroke-width="2" x1="1000" y1="130" x2="1000" y2="130"><title>9 - Hrafnkel, source: 85, target: 85</title></line><line stroke="rgb(255, 80, 122)" stroke-width="2" x1="1000" y1="130" x2="1005" y2="120"><title>9 - Hrafnkel, source: 85, target: 111</title></line><line stroke="rgb(255, 89, 107)" stroke-width="2" x1="5" y1="165" x2="10" y2="140"><title>10 - Arnthrud, source: 89, target: 0</title></line><line stroke="rgb(255, 89, 107)" stroke-width="2" x1="10" y1="140" x2="25" y2="140"><title>10 - Arnthrud, source: 0, target: 1</title></line><line stroke="rgb(255, 89, 107)" stroke-width="2" x1="25" y1="140" x2="30" y2="115"><title>10 - Arnthrud, source: 1, target: 112</title></line><line stroke="rgb(255, 99, 92)" stroke-width="2" x1="30" y1="195" x2="35" y2="165"><title>11 - man, source: 90, target: 2</title></line><line stroke="rgb(255, 99, 92)" stroke-width="2" x1="35" y1="165" x2="40" y2="195"><title>11 - man, source: 2, target: 113</title></line><line stroke="rgb(255, 125, 66)" stroke-width="2" x1="970" y1="145" x2="975" y2="130"><title>13 - Thorir, source: 91, target: 83</title></line><line stroke="rgb(255, 125, 66)" stroke-width="2" x1="975" y1="130" x2="980" y2="145"><title>13 - Thorir, source: 83, target: 114</title></line><line stroke="rgb(255, 140, 56)" stroke-width="2" x1="980" y1="120" x2="990" y2="130"><title>14 - Asbjorn, source: 92, target: 84</title></line><line stroke="rgb(255, 140, 56)" stroke-width="2" x1="990" y1="130" x2="995" y2="120"><title>14 - Asbjorn, source: 84, target: 115</title></line><line stroke="rgb(248, 155, 49)" stroke-width="2" x1="65" y1="130" x2="70" y2="150"><title>15 - Frey, source: 93, target: 5</title></line><line stroke="rgb(248, 155, 49)" stroke-width="2" x1="70" y1="150" x2="385" y2="150"><title>15 - Frey, source: 5, target: 31</title></line><line stroke="rgb(248, 155, 49)" stroke-width="2" x1="385" y1="150" x2="390" y2="120"><title>15 - Frey, source: 31, target: 116</title></line><line stroke="rgb(210, 201, 52)" stroke-width="2" x1="320" y1="245" x2="335" y2="245"><title>18 - Sam, source: 94, target: 27</title></line><line stroke="rgb(210, 201, 52)" stroke-width="2" x1="335" y1="245" x2="325" y2="185"><title>18 - Sam, source: 27, target: 26</title></line><line stroke="rgb(210, 201, 52)" stroke-width="2" x1="325" y1="185" x2="350" y2="215"><title>18 - Sam, source: 26, target: 28</title></line><line stroke="rgb(210, 201, 52)" stroke-width="2" x1="350" y1="215" x2="360" y2="190"><title>18 - Sam, source: 28, target: 29</title></line><line stroke="rgb(210, 201, 52)" stroke-width="2" x1="360" y1="190" x2="375" y2="165"><title>18 - Sam, source: 29, target: 30</title></line><line stroke="rgb(210, 201, 52)" stroke-width="2" x1="375" y1="165" x2="400" y2="165"><title>18 - Sam, source: 30, target: 32</title></line><line stroke="rgb(210, 201, 52)" stroke-width="2" x1="400" y1="165" x2="470" y2="165"><title>18 - Sam, source: 32, target: 40</title></line><line stroke="rgb(210, 201, 52)" stroke-width="2" x1="470" y1="165" x2="480" y2="165"><title>18 - Sam, source: 40, target: 41</title></line><line stroke="rgb(210, 201, 52)" stroke-width="2" x1="480" y1="165" x2="505" y2="200"><title>18 - Sam, source: 41, target: 43</title></line><line stroke="rgb(210, 201, 52)" stroke-width="2" x1="505" y1="200" x2="445" y2="220"><title>18 - Sam, source: 43, target: 36</title></line><line stroke="rgb(210, 201, 52)" stroke-width="2" x1="445" y1="220" x2="460" y2="250"><title>18 - Sam, source: 36, target: 38</title></line><line stroke="rgb(210, 201, 52)" stroke-width="2" x1="460" y1="250" x2="495" y2="220"><title>18 - Sam, source: 38, target: 42</title></line><line stroke="rgb(210, 201, 52)" stroke-width="2" x1="495" y1="220" x2="615" y2="195"><title>18 - Sam, source: 42, target: 52</title></line><line stroke="rgb(210, 201, 52)" stroke-width="2" x1="615" y1="195" x2="625" y2="55"><title>18 - Sam, source: 52, target: 53</title></line><line stroke="rgb(210, 201, 52)" stroke-width="2" x1="625" y1="55" x2="520" y2="250"><title>18 - Sam, source: 53, target: 44</title></line><line stroke="rgb(210, 201, 52)" stroke-width="2" x1="520" y1="250" x2="590" y2="260"><title>18 - Sam, source: 44, target: 50</title></line><line stroke="rgb(210, 201, 52)" stroke-width="2" x1="590" y1="260" x2="600" y2="165"><title>18 - Sam, source: 50, target: 51</title></line><line stroke="rgb(210, 201, 52)" stroke-width="2" x1="600" y1="165" x2="640" y2="515"><title>18 - Sam, source: 51, target: 54</title></line><line stroke="rgb(210, 201, 52)" stroke-width="2" x1="640" y1="515" x2="665" y2="530"><title>18 - Sam, source: 54, target: 57</title></line><line stroke="rgb(210, 201, 52)" stroke-width="2" x1="665" y1="530" x2="665" y2="510"><title>18 - Sam, source: 57, target: 56</title></line><line stroke="rgb(210, 201, 52)" stroke-width="2" x1="665" y1="510" x2="685" y2="480"><title>18 - Sam, source: 56, target: 59</title></line><line stroke="rgb(210, 201, 52)" stroke-width="2" x1="685" y1="480" x2="700" y2="440"><title>18 - Sam, source: 59, target: 60</title></line><line stroke="rgb(210, 201, 52)" stroke-width="2" x1="700" y1="440" x2="725" y2="55"><title>18 - Sam, source: 60, target: 62</title></line><line stroke="rgb(210, 201, 52)" stroke-width="2" x1="725" y1="55" x2="710" y2="55"><title>18 - Sam, source: 62, target: 61</title></line><line stroke="rgb(210, 201, 52)" stroke-width="2" x1="710" y1="55" x2="735" y2="30"><title>18 - Sam, source: 61, target: 63</title></line><line stroke="rgb(210, 201, 52)" stroke-width="2" x1="735" y1="30" x2="880" y2="145"><title>18 - Sam, source: 63, target: 75</title></line><line stroke="rgb(210, 201, 52)" stroke-width="2" x1="880" y1="145" x2="855" y2="160"><title>18 - Sam, source: 75, target: 73</title></line><line stroke="rgb(210, 201, 52)" stroke-width="2" x1="855" y1="160" x2="745" y2="170"><title>18 - Sam, source: 73, target: 64</title></line><line stroke="rgb(210, 201, 52)" stroke-width="2" x1="745" y1="170" x2="890" y2="130"><title>18 - Sam, source: 64, target: 76</title></line><line stroke="rgb(210, 201, 52)" stroke-width="2" x1="890" y1="130" x2="915" y2="380"><title>18 - Sam, source: 76, target: 78</title></line><line stroke="rgb(210, 201, 52)" stroke-width="2" x1="915" y1="380" x2="930" y2="445"><title>18 - Sam, source: 78, target: 79</title></line><line stroke="rgb(210, 201, 52)" stroke-width="2" x1="930" y1="445" x2="940" y2="425"><title>18 - Sam, source: 79, target: 80</title></line><line stroke="rgb(210, 201, 52)" stroke-width="2" x1="940" y1="425" x2="950" y2="395"><title>18 - Sam, source: 80, target: 81</title></line><line stroke="rgb(210, 201, 52)" stroke-width="2" x1="950" y1="395" x2="965" y2="430"><title>18 - Sam, source: 81, target: 82</title></line><line stroke="rgb(210, 201, 52)" stroke-width="2" x1="965" y1="430" x2="905" y2="490"><title>18 - Sam, source: 82, target: 77</title></line><line stroke="rgb(210, 201, 52)" stroke-width="2" x1="905" y1="490" x2="970" y2="520"><title>18 - Sam, source: 77, target: 117</title></line><line stroke="rgb(197, 216, 61)" stroke-width="2" x1="80" y1="670" x2="85" y2="660"><title>19 - Eyvind, source: 95, target: 6</title></line><line stroke="rgb(197, 216, 61)" stroke-width="2" x1="85" y1="660" x2="760" y2="205"><title>19 - Eyvind, source: 6, target: 65</title></line><line stroke="rgb(197, 216, 61)" stroke-width="2" x1="760" y1="205" x2="735" y2="30"><title>19 - Eyvind, source: 65, target: 63</title></line><line stroke="rgb(197, 216, 61)" stroke-width="2" x1="735" y1="30" x2="845" y2="205"><title>19 - Eyvind, source: 63, target: 72</title></line><line stroke="rgb(197, 216, 61)" stroke-width="2" x1="845" y1="205" x2="785" y2="95"><title>19 - Eyvind, source: 72, target: 67</title></line><line stroke="rgb(197, 216, 61)" stroke-width="2" x1="785" y1="95" x2="865" y2="145"><title>19 - Eyvind, source: 67, target: 74</title></line><line stroke="rgb(197, 216, 61)" stroke-width="2" x1="865" y1="145" x2="745" y2="170"><title>19 - Eyvind, source: 74, target: 64</title></line><line stroke="rgb(197, 216, 61)" stroke-width="2" x1="745" y1="170" x2="875" y2="115"><title>19 - Eyvind, source: 64, target: 118</title></line><line stroke="rgb(175, 240, 91)" stroke-width="2" x1="80" y1="645" x2="85" y2="660"><title>21 - king of Greeks, source: 96, target: 6</title></line><line stroke="rgb(175, 240, 91)" stroke-width="2" x1="85" y1="660" x2="995" y2="650"><title>21 - king of Greeks, source: 6, target: 86</title></line><line stroke="rgb(175, 240, 91)" stroke-width="2" x1="995" y1="650" x2="995" y2="635"><title>21 - king of Greeks, source: 86, target: 119</title></line><line stroke="rgb(152, 243, 87)" stroke-width="2" x1="90" y1="195" x2="95" y2="165"><title>22 - Freyfaxi, source: 97, target: 7</title></line><line stroke="rgb(152, 243, 87)" stroke-width="2" x1="95" y1="165" x2="180" y2="165"><title>22 - Freyfaxi, source: 7, target: 14</title></line><line stroke="rgb(152, 243, 87)" stroke-width="2" x1="180" y1="165" x2="240" y2="185"><title>22 - Freyfaxi, source: 14, target: 19</title></line><line stroke="rgb(152, 243, 87)" stroke-width="2" x1="240" y1="185" x2="650" y2="620"><title>22 - Freyfaxi, source: 19, target: 55</title></line><line stroke="rgb(152, 243, 87)" stroke-width="2" x1="650" y1="620" x2="675" y2="620"><title>22 - Freyfaxi, source: 55, target: 58</title></line><line stroke="rgb(152, 243, 87)" stroke-width="2" x1="675" y1="620" x2="680" y2="635"><title>22 - Freyfaxi, source: 58, target: 120</title></line><line stroke="rgb(129, 245, 88)" stroke-width="2" x1="100" y1="260" x2="120" y2="260"><title>23 - Thorbjorn, source: 98, target: 9</title></line><line stroke="rgb(129, 245, 88)" stroke-width="2" x1="120" y1="260" x2="110" y2="220"><title>23 - Thorbjorn, source: 9, target: 8</title></line><line stroke="rgb(129, 245, 88)" stroke-width="2" x1="110" y1="220" x2="315" y2="230"><title>23 - Thorbjorn, source: 8, target: 25</title></line><line stroke="rgb(129, 245, 88)" stroke-width="2" x1="315" y1="230" x2="300" y2="185"><title>23 - Thorbjorn, source: 25, target: 24</title></line><line stroke="rgb(129, 245, 88)" stroke-width="2" x1="300" y1="185" x2="325" y2="185"><title>23 - Thorbjorn, source: 24, target: 26</title></line><line stroke="rgb(129, 245, 88)" stroke-width="2" x1="325" y1="185" x2="335" y2="245"><title>23 - Thorbjorn, source: 26, target: 27</title></line><line stroke="rgb(129, 245, 88)" stroke-width="2" x1="335" y1="245" x2="410" y2="245"><title>23 - Thorbjorn, source: 27, target: 33</title></line><line stroke="rgb(129, 245, 88)" stroke-width="2" x1="410" y1="245" x2="700" y2="440"><title>23 - Thorbjorn, source: 33, target: 60</title></line><line stroke="rgb(129, 245, 88)" stroke-width="2" x1="700" y1="440" x2="705" y2="455"><title>23 - Thorbjorn, source: 60, target: 121</title></line><line stroke="rgb(107, 247, 92)" stroke-width="2" x1="100" y1="115" x2="145" y2="120"><title>24 - Einar, source: 99, target: 11</title></line><line stroke="rgb(107, 247, 92)" stroke-width="2" x1="145" y1="120" x2="155" y2="230"><title>24 - Einar, source: 11, target: 12</title></line><line stroke="rgb(107, 247, 92)" stroke-width="2" x1="155" y1="230" x2="120" y2="260"><title>24 - Einar, source: 12, target: 9</title></line><line stroke="rgb(107, 247, 92)" stroke-width="2" x1="120" y1="260" x2="135" y2="230"><title>24 - Einar, source: 9, target: 10</title></line><line stroke="rgb(107, 247, 92)" stroke-width="2" x1="135" y1="230" x2="110" y2="220"><title>24 - Einar, source: 10, target: 8</title></line><line stroke="rgb(107, 247, 92)" stroke-width="2" x1="110" y1="220" x2="180" y2="165"><title>24 - Einar, source: 8, target: 14</title></line><line stroke="rgb(107, 247, 92)" stroke-width="2" x1="180" y1="165" x2="195" y2="160"><title>24 - Einar, source: 14, target: 15</title></line><line stroke="rgb(107, 247, 92)" stroke-width="2" x1="195" y1="160" x2="255" y2="250"><title>24 - Einar, source: 15, target: 20</title></line><line stroke="rgb(107, 247, 92)" stroke-width="2" x1="255" y1="250" x2="265" y2="250"><title>24 - Einar, source: 20, target: 21</title></line><line stroke="rgb(107, 247, 92)" stroke-width="2" x1="265" y1="250" x2="290" y2="310"><title>24 - Einar, source: 21, target: 23</title></line><line stroke="rgb(107, 247, 92)" stroke-width="2" x1="290" y1="310" x2="170" y2="185"><title>24 - Einar, source: 23, target: 13</title></line><line stroke="rgb(107, 247, 92)" stroke-width="2" x1="170" y1="185" x2="275" y2="165"><title>24 - Einar, source: 13, target: 22</title></line><line stroke="rgb(107, 247, 92)" stroke-width="2" x1="275" y1="165" x2="295" y2="155"><title>24 - Einar, source: 22, target: 122</title></line><line stroke="rgb(86, 246, 101)" stroke-width="2" x1="165" y1="155" x2="195" y2="160"><title>25 - shepherds, source: 100, target: 15</title></line><line stroke="rgb(86, 246, 101)" stroke-width="2" x1="195" y1="160" x2="170" y2="185"><title>25 - shepherds, source: 15, target: 13</title></line><line stroke="rgb(86, 246, 101)" stroke-width="2" x1="170" y1="185" x2="200" y2="185"><title>25 - shepherds, source: 13, target: 123</title></line><line stroke="rgb(68, 244, 112)" stroke-width="2" x1="200" y1="300" x2="230" y2="275"><title>26 - mealtime servant, source: 101, target: 18</title></line><line stroke="rgb(68, 244, 112)" stroke-width="2" x1="230" y1="275" x2="205" y2="250"><title>26 - mealtime servant, source: 18, target: 16</title></line><line stroke="rgb(68, 244, 112)" stroke-width="2" x1="205" y1="250" x2="215" y2="275"><title>26 - mealtime servant, source: 16, target: 17</title></line><line stroke="rgb(68, 244, 112)" stroke-width="2" x1="215" y1="275" x2="235" y2="300"><title>26 - mealtime servant, source: 17, target: 124</title></line><line stroke="rgb(32, 226, 157)" stroke-width="2" x1="365" y1="120" x2="385" y2="150"><title>29 - Thorkel, source: 102, target: 31</title></line><line stroke="rgb(32, 226, 157)" stroke-width="2" x1="385" y1="150" x2="375" y2="165"><title>29 - Thorkel, source: 31, target: 30</title></line><line stroke="rgb(32, 226, 157)" stroke-width="2" x1="375" y1="165" x2="400" y2="165"><title>29 - Thorkel, source: 30, target: 32</title></line><line stroke="rgb(32, 226, 157)" stroke-width="2" x1="400" y1="165" x2="420" y2="200"><title>29 - Thorkel, source: 32, target: 34</title></line><line stroke="rgb(32, 226, 157)" stroke-width="2" x1="420" y1="200" x2="435" y2="220"><title>29 - Thorkel, source: 34, target: 35</title></line><line stroke="rgb(32, 226, 157)" stroke-width="2" x1="435" y1="220" x2="540" y2="140"><title>29 - Thorkel, source: 35, target: 46</title></line><line stroke="rgb(32, 226, 157)" stroke-width="2" x1="540" y1="140" x2="555" y2="150"><title>29 - Thorkel, source: 46, target: 47</title></line><line stroke="rgb(32, 226, 157)" stroke-width="2" x1="555" y1="150" x2="530" y2="165"><title>29 - Thorkel, source: 47, target: 45</title></line><line stroke="rgb(32, 226, 157)" stroke-width="2" x1="530" y1="165" x2="600" y2="165"><title>29 - Thorkel, source: 45, target: 51</title></line><line stroke="rgb(32, 226, 157)" stroke-width="2" x1="600" y1="165" x2="640" y2="515"><title>29 - Thorkel, source: 51, target: 54</title></line><line stroke="rgb(32, 226, 157)" stroke-width="2" x1="640" y1="515" x2="675" y2="620"><title>29 - Thorkel, source: 54, target: 58</title></line><line stroke="rgb(32, 226, 157)" stroke-width="2" x1="675" y1="620" x2="685" y2="480"><title>29 - Thorkel, source: 58, target: 59</title></line><line stroke="rgb(32, 226, 157)" stroke-width="2" x1="685" y1="480" x2="950" y2="395"><title>29 - Thorkel, source: 59, target: 81</title></line><line stroke="rgb(32, 226, 157)" stroke-width="2" x1="950" y1="395" x2="915" y2="380"><title>29 - Thorkel, source: 81, target: 78</title></line><line stroke="rgb(32, 226, 157)" stroke-width="2" x1="915" y1="380" x2="960" y2="380"><title>29 - Thorkel, source: 78, target: 125</title></line><line stroke="rgb(25, 205, 187)" stroke-width="2" x1="405" y1="215" x2="435" y2="220"><title>31 - Thorgeir, source: 103, target: 35</title></line><line stroke="rgb(25, 205, 187)" stroke-width="2" x1="435" y1="220" x2="410" y2="245"><title>31 - Thorgeir, source: 35, target: 33</title></line><line stroke="rgb(25, 205, 187)" stroke-width="2" x1="410" y1="245" x2="420" y2="200"><title>31 - Thorgeir, source: 33, target: 34</title></line><line stroke="rgb(25, 205, 187)" stroke-width="2" x1="420" y1="200" x2="505" y2="200"><title>31 - Thorgeir, source: 34, target: 43</title></line><line stroke="rgb(25, 205, 187)" stroke-width="2" x1="505" y1="200" x2="495" y2="220"><title>31 - Thorgeir, source: 43, target: 42</title></line><line stroke="rgb(25, 205, 187)" stroke-width="2" x1="495" y1="220" x2="445" y2="220"><title>31 - Thorgeir, source: 42, target: 36</title></line><line stroke="rgb(25, 205, 187)" stroke-width="2" x1="445" y1="220" x2="460" y2="250"><title>31 - Thorgeir, source: 36, target: 38</title></line><line stroke="rgb(25, 205, 187)" stroke-width="2" x1="460" y1="250" x2="565" y2="225"><title>31 - Thorgeir, source: 38, target: 48</title></line><line stroke="rgb(25, 205, 187)" stroke-width="2" x1="565" y1="225" x2="580" y2="225"><title>31 - Thorgeir, source: 48, target: 49</title></line><line stroke="rgb(25, 205, 187)" stroke-width="2" x1="580" y1="225" x2="590" y2="260"><title>31 - Thorgeir, source: 49, target: 50</title></line><line stroke="rgb(25, 205, 187)" stroke-width="2" x1="590" y1="260" x2="650" y2="620"><title>31 - Thorgeir, source: 50, target: 55</title></line><line stroke="rgb(25, 205, 187)" stroke-width="2" x1="650" y1="620" x2="665" y2="530"><title>31 - Thorgeir, source: 55, target: 57</title></line><line stroke="rgb(25, 205, 187)" stroke-width="2" x1="665" y1="530" x2="995" y2="650"><title>31 - Thorgeir, source: 57, target: 86</title></line><line stroke="rgb(25, 205, 187)" stroke-width="2" x1="995" y1="650" x2="665" y2="510"><title>31 - Thorgeir, source: 86, target: 56</title></line><line stroke="rgb(25, 205, 187)" stroke-width="2" x1="665" y1="510" x2="940" y2="425"><title>31 - Thorgeir, source: 56, target: 80</title></line><line stroke="rgb(25, 205, 187)" stroke-width="2" x1="940" y1="425" x2="965" y2="430"><title>31 - Thorgeir, source: 80, target: 82</title></line><line stroke="rgb(25, 205, 187)" stroke-width="2" x1="965" y1="430" x2="930" y2="445"><title>31 - Thorgeir, source: 82, target: 79</title></line><line stroke="rgb(25, 205, 187)" stroke-width="2" x1="930" y1="445" x2="905" y2="490"><title>31 - Thorgeir, source: 79, target: 77</title></line><line stroke="rgb(25, 205, 187)" stroke-width="2" x1="905" y1="490" x2="995" y2="490"><title>31 - Thorgeir, source: 77, target: 126</title></line><line stroke="rgb(47, 150, 224)" stroke-width="2" x1="755" y1="220" x2="760" y2="205"><title>35 - Eyvind's servant boy, source: 104, target: 65</title></line><line stroke="rgb(47, 150, 224)" stroke-width="2" x1="760" y1="205" x2="845" y2="205"><title>35 - Eyvind's servant boy, source: 65, target: 72</title></line><line stroke="rgb(47, 150, 224)" stroke-width="2" x1="845" y1="205" x2="855" y2="160"><title>35 - Eyvind's servant boy, source: 72, target: 73</title></line><line stroke="rgb(47, 150, 224)" stroke-width="2" x1="855" y1="160" x2="860" y2="175"><title>35 - Eyvind's servant boy, source: 73, target: 127</title></line><line stroke="rgb(57, 136, 225)" stroke-width="2" x1="765" y1="105" x2="770" y2="95"><title>36 - Servant woman, source: 105, target: 66</title></line><line stroke="rgb(57, 136, 225)" stroke-width="2" x1="770" y1="95" x2="775" y2="105"><title>36 - Servant woman, source: 66, target: 128</title></line><line stroke="rgb(68, 121, 223)" stroke-width="2" x1="790" y1="40" x2="795" y2="55"><title>37 - Sighvat, source: 106, target: 68</title></line><line stroke="rgb(68, 121, 223)" stroke-width="2" x1="795" y1="55" x2="800" y2="40"><title>37 - Sighvat, source: 68, target: 129</title></line><line stroke="rgb(78, 108, 218)" stroke-width="2" x1="800" y1="30" x2="805" y2="55"><title>38 - Snorri, source: 107, target: 69</title></line><line stroke="rgb(78, 108, 218)" stroke-width="2" x1="805" y1="55" x2="815" y2="30"><title>38 - Snorri, source: 69, target: 130</title></line><line stroke="rgb(104, 73, 185)" stroke-width="2" x1="815" y1="50" x2="820" y2="65"><title>41 - Thord, source: 108, target: 70</title></line><line stroke="rgb(104, 73, 185)" stroke-width="2" x1="820" y1="65" x2="825" y2="50"><title>41 - Thord, source: 70, target: 131</title></line><line stroke="rgb(110, 64, 170)" stroke-width="2" x1="825" y1="115" x2="830" y2="70"><title>42 - Halli, source: 109, target: 71</title></line><line stroke="rgb(110, 64, 170)" stroke-width="2" x1="830" y1="70" x2="835" y2="70"><title>42 - Halli, source: 71, target: 132</title></line></g><g stroke="#fff" stroke-width="1.5"><circle r="3" fill="rgb(254, 203, 123)" cx="10" cy="140"><title>0 - offer assistance, 10 -&gt; 7, chapter: 1</title></circle><circle r="3" fill="rgb(77, 102, 172)" cx="25" cy="140"><title>1 - death_neutral, 10 -&gt; 7, chapter: 1</title></circle><circle r="3" fill="rgb(254, 221, 141)" cx="35" cy="165"><title>2 - provide information, 11 -&gt; 7, chapter: 1</title></circle><circle r="3" fill="rgb(253, 183, 106)" cx="50" cy="140"><title>3 - request assistance, 9 -&gt; 7, chapter: 2</title></circle><circle r="3" fill="rgb(254, 203, 123)" cx="60" cy="165"><title>4 - offer assistance, 7 -&gt; 9, chapter: 2</title></circle><circle r="3" fill="rgb(254, 203, 123)" cx="70" cy="150"><title>5 - offer assistance, 9 -&gt; 15, chapter: 2</title></circle><circle r="3" fill="rgb(248, 249, 176)" cx="85" cy="660"><title>6 - giftgiving, 19 -&gt; 21, chapter: 3</title></circle><circle r="3" fill="rgb(217, 70, 75)" cx="95" cy="165"><title>7 - fostering, 9 -&gt; 22, chapter: 3</title></circle><circle r="3" fill="rgb(254, 203, 123)" cx="110" cy="220"><title>8 - offer assistance, 23 -&gt; 24, chapter: 4</title></circle><circle r="3" fill="rgb(254, 221, 141)" cx="120" cy="260"><title>9 - provide information, 23 -&gt; 24, chapter: 4</title></circle><circle r="3" fill="rgb(253, 183, 106)" cx="135" cy="230"><title>10 - request assistance, 24 -&gt; 9, chapter: 4</title></circle><circle r="3" fill="rgb(254, 203, 123)" cx="145" cy="120"><title>11 - offer assistance, 24 -&gt; 9, chapter: 4</title></circle><circle r="3" fill="rgb(254, 221, 141)" cx="155" cy="230"><title>12 - provide information, 24 -&gt; 9, chapter: 4</title></circle><circle r="3" fill="rgb(253, 183, 106)" cx="170" cy="185"><title>13 - request assistance, 24 -&gt; 25, chapter: 5</title></circle><circle r="3" fill="rgb(253, 183, 106)" cx="180" cy="165"><title>14 - request assistance, 24 -&gt; 22, chapter: 5</title></circle><circle r="3" fill="rgb(253, 183, 106)" cx="195" cy="160"><title>15 - request assistance, 24 -&gt; 25, chapter: 5</title></circle><circle r="3" fill="rgb(253, 183, 106)" cx="205" cy="250"><title>16 - request assistance, 9 -&gt; 26, chapter: 5</title></circle><circle r="3" fill="rgb(253, 183, 106)" cx="215" cy="275"><title>17 - request assistance, 9 -&gt; 26, chapter: 5</title></circle><circle r="3" fill="rgb(254, 235, 159)" cx="230" cy="275"><title>18 - discover information, 26 -&gt; 9, chapter: 5</title></circle><circle r="3" fill="rgb(254, 221, 141)" cx="240" cy="185"><title>19 - provide information, 9 -&gt; 22, chapter: 5</title></circle><circle r="3" fill="rgb(238, 248, 168)" cx="255" cy="250"><title>20 - accusation, 9 -&gt; 24, chapter: 5</title></circle><circle r="3" fill="rgb(69, 148, 180)" cx="265" cy="250"><title>21 - hostility_lethal, 9 -&gt; 24, chapter: 5</title></circle><circle r="3" fill="rgb(69, 148, 180)" cx="275" cy="165"><title>22 - hostility_lethal, 9 -&gt; 24, chapter: 5</title></circle><circle r="3" fill="rgb(77, 102, 172)" cx="290" cy="310"><title>23 - death_neutral, 9 -&gt; 24, chapter: 5</title></circle><circle r="3" fill="rgb(130, 204, 165)" cx="300" cy="185"><title>24 - intervention, 9 -&gt; 23, chapter: 6</title></circle><circle r="3" fill="rgb(105, 189, 169)" cx="315" cy="230"><title>25 - challenge, 23 -&gt; 9, chapter: 6</title></circle><circle r="3" fill="rgb(253, 183, 106)" cx="325" cy="185"><title>26 - request assistance, 23 -&gt; 18, chapter: 6</title></circle><circle r="3" fill="rgb(250, 160, 92)" cx="335" cy="245"><title>27 - placed in command, 18 -&gt; 23, chapter: 6</title></circle><circle r="3" fill="rgb(238, 248, 168)" cx="350" cy="215"><title>28 - accusation, 18 -&gt; 9, chapter: 7</title></circle><circle r="3" fill="rgb(224, 243, 161)" cx="360" cy="190"><title>29 - summons, 18 -&gt; 9, chapter: 7</title></circle><circle r="3" fill="rgb(253, 183, 106)" cx="375" cy="165"><title>30 - request assistance, 18 -&gt; 29, chapter: 8</title></circle><circle r="3" fill="rgb(254, 221, 141)" cx="385" cy="150"><title>31 - provide information, 29 -&gt; 15, chapter: 8</title></circle><circle r="3" fill="rgb(254, 221, 141)" cx="400" cy="165"><title>32 - provide information, 29 -&gt; 18, chapter: 9</title></circle><circle r="3" fill="rgb(83, 170, 175)" cx="410" cy="245"><title>33 - hostility_non-lethal, 23 -&gt; 31, chapter: 9</title></circle><circle r="3" fill="rgb(130, 204, 165)" cx="420" cy="200"><title>34 - intervention, 29 -&gt; 31, chapter: 9</title></circle><circle r="3" fill="rgb(254, 203, 123)" cx="435" cy="220"><title>35 - offer assistance, 31 -&gt; 29, chapter: 9</title></circle><circle r="3" fill="rgb(254, 221, 141)" cx="445" cy="220"><title>36 - provide information, 18 -&gt; 31, chapter: 10</title></circle><circle r="3" fill="rgb(254, 221, 141)" cx="460" cy="250"><title>38 - provide information, 18 -&gt; 31, chapter: 10</title></circle><circle r="3" fill="rgb(238, 248, 168)" cx="470" cy="165"><title>40 - accusation, 18 -&gt; 9, chapter: 10</title></circle><circle r="3" fill="rgb(83, 170, 175)" cx="480" cy="165"><title>41 - hostility_non-lethal, 18 -&gt; 9, chapter: 10</title></circle><circle r="3" fill="rgb(253, 183, 106)" cx="495" cy="220"><title>42 - request assistance, 31 -&gt; 18, chapter: 10</title></circle><circle r="3" fill="rgb(254, 221, 141)" cx="505" cy="200"><title>43 - provide information, 31 -&gt; 18, chapter: 10</title></circle><circle r="3" fill="rgb(250, 160, 92)" cx="520" cy="250"><title>44 - placed in command, 9 -&gt; 18, chapter: 11</title></circle><circle r="3" fill="rgb(253, 183, 106)" cx="530" cy="165"><title>45 - request assistance, 9 -&gt; 29, chapter: 11</title></circle><circle r="3" fill="rgb(156, 215, 163)" cx="540" cy="140"><title>46 - threat, 29 -&gt; 9, chapter: 11</title></circle><circle r="3" fill="rgb(83, 170, 175)" cx="555" cy="150"><title>47 - hostility_non-lethal, 29 -&gt; 9, chapter: 11</title></circle><circle r="3" fill="rgb(182, 226, 161)" cx="565" cy="225"><title>48 - insult, 31 -&gt; 9, chapter: 11</title></circle><circle r="3" fill="rgb(83, 170, 175)" cx="580" cy="225"><title>49 - hostility_non-lethal, 31 -&gt; 9, chapter: 11</title></circle><circle r="3" fill="rgb(254, 221, 141)" cx="590" cy="260"><title>50 - provide information, 31 -&gt; 18, chapter: 11</title></circle><circle r="3" fill="rgb(254, 221, 141)" cx="600" cy="165"><title>51 - provide information, 29 -&gt; 18, chapter: 11</title></circle><circle r="3" fill="rgb(182, 226, 161)" cx="615" cy="195"><title>52 - insult, 18 -&gt; 9, chapter: 11</title></circle><circle r="3" fill="rgb(83, 170, 175)" cx="625" cy="55"><title>53 - hostility_non-lethal, 18 -&gt; 9, chapter: 11</title></circle><circle r="3" fill="rgb(254, 221, 141)" cx="640" cy="515"><title>54 - provide information, 29 -&gt; 18, chapter: 12</title></circle><circle r="3" fill="rgb(224, 243, 161)" cx="650" cy="620"><title>55 - summons, 31 -&gt; 22, chapter: 12</title></circle><circle r="3" fill="rgb(248, 249, 176)" cx="665" cy="510"><title>56 - giftgiving, 18 -&gt; 31, chapter: 12</title></circle><circle r="3" fill="rgb(254, 221, 141)" cx="665" cy="530"><title>57 - provide information, 31 -&gt; 18, chapter: 12</title></circle><circle r="3" fill="rgb(224, 243, 161)" cx="675" cy="620"><title>58 - summons, 29 -&gt; 22, chapter: 12</title></circle><circle r="3" fill="rgb(248, 249, 176)" cx="685" cy="480"><title>59 - giftgiving, 18 -&gt; 29, chapter: 12</title></circle><circle r="3" fill="rgb(248, 249, 176)" cx="700" cy="440"><title>60 - giftgiving, 18 -&gt; 23, chapter: 12</title></circle><circle r="3" fill="rgb(67, 125, 179)" cx="710" cy="55"><title>61 - conversation_neutral, 9 -&gt; 18, chapter: 13</title></circle><circle r="3" fill="rgb(67, 125, 179)" cx="725" cy="55"><title>62 - conversation_neutral, 18 -&gt; 9, chapter: 13</title></circle><circle r="3" fill="rgb(253, 245, 173)" cx="735" cy="30"><title>63 - invitation, 18 -&gt; 19, chapter: 14</title></circle><circle r="3" fill="rgb(248, 249, 176)" cx="745" cy="170"><title>64 - giftgiving, 18 -&gt; 19, chapter: 14</title></circle><circle r="3" fill="rgb(254, 203, 123)" cx="760" cy="205"><title>65 - offer assistance, 19 -&gt; 35, chapter: 14</title></circle><circle r="3" fill="rgb(182, 226, 161)" cx="770" cy="95"><title>66 - insult, 36 -&gt; 9, chapter: 14</title></circle><circle r="3" fill="rgb(83, 170, 175)" cx="785" cy="95"><title>67 - hostility_non-lethal, 9 -&gt; 19, chapter: 14</title></circle><circle r="3" fill="rgb(224, 243, 161)" cx="795" cy="55"><title>68 - summons, 9 -&gt; 37, chapter: 14</title></circle><circle r="3" fill="rgb(224, 243, 161)" cx="805" cy="55"><title>69 - summons, 9 -&gt; 38, chapter: 14</title></circle><circle r="3" fill="rgb(224, 243, 161)" cx="820" cy="65"><title>70 - summons, 9 -&gt; 41, chapter: 14</title></circle><circle r="3" fill="rgb(224, 243, 161)" cx="830" cy="70"><title>71 - summons, 9 -&gt; 42, chapter: 14</title></circle><circle r="3" fill="rgb(254, 221, 141)" cx="845" cy="205"><title>72 - provide information, 35 -&gt; 19, chapter: 14</title></circle><circle r="3" fill="rgb(253, 183, 106)" cx="855" cy="160"><title>73 - request assistance, 35 -&gt; 18, chapter: 14</title></circle><circle r="3" fill="rgb(69, 148, 180)" cx="865" cy="145"><title>74 - hostility_lethal, 9 -&gt; 19, chapter: 14</title></circle><circle r="3" fill="rgb(83, 170, 175)" cx="880" cy="145"><title>75 - hostility_non-lethal, 18 -&gt; 9, chapter: 14</title></circle><circle r="3" fill="rgb(105, 189, 169)" cx="890" cy="130"><title>76 - challenge, 9 -&gt; 18, chapter: 15</title></circle><circle r="3" fill="rgb(253, 183, 106)" cx="905" cy="490"><title>77 - request assistance, 18 -&gt; 31, chapter: 16</title></circle><circle r="3" fill="rgb(248, 249, 176)" cx="915" cy="380"><title>78 - giftgiving, 18 -&gt; 29, chapter: 16</title></circle><circle r="3" fill="rgb(248, 249, 176)" cx="930" cy="445"><title>79 - giftgiving, 18 -&gt; 31, chapter: 16</title></circle><circle r="3" fill="rgb(254, 221, 141)" cx="940" cy="425"><title>80 - provide information, 31 -&gt; 18, chapter: 16</title></circle><circle r="3" fill="rgb(248, 249, 176)" cx="950" cy="395"><title>81 - giftgiving, 29 -&gt; 18, chapter: 16</title></circle><circle r="3" fill="rgb(248, 249, 176)" cx="965" cy="430"><title>82 - giftgiving, 31 -&gt; 18, chapter: 16</title></circle><circle r="3" fill="rgb(240, 112, 74)" cx="975" cy="130"><title>83 - inheritance, 9 -&gt; 13, chapter: 16</title></circle><circle r="3" fill="rgb(240, 112, 74)" cx="990" cy="130"><title>84 - inheritance, 9 -&gt; 14, chapter: 16</title></circle><circle r="3" fill="rgb(77, 102, 172)" cx="1000" cy="130"><title>85 - death_neutral, 9 -&gt; 9, chapter: 16</title></circle><circle r="3" fill="rgb(69, 148, 180)" cx="995" cy="650"><title>86 - hostility_lethal, 31 -&gt; 21, chapter: 12</title></circle><circle r="3" fill="rgb(158, 1, 66)" cx="5" cy="115"><title>87 - origin, -1 -&gt; 7, chapter: 0</title></circle><circle r="3" fill="rgb(158, 1, 66)" cx="40" cy="115"><title>88 - origin, -1 -&gt; 9, chapter: 0</title></circle><circle r="3" fill="rgb(158, 1, 66)" cx="5" cy="165"><title>89 - origin, -1 -&gt; 10, chapter: 0</title></circle><circle r="3" fill="rgb(158, 1, 66)" cx="30" cy="195"><title>90 - origin, -1 -&gt; 11, chapter: 0</title></circle><circle r="3" fill="rgb(158, 1, 66)" cx="970" cy="145"><title>91 - origin, -1 -&gt; 13, chapter: 0</title></circle><circle r="3" fill="rgb(158, 1, 66)" cx="980" cy="120"><title>92 - origin, -1 -&gt; 14, chapter: 0</title></circle><circle r="3" fill="rgb(158, 1, 66)" cx="65" cy="130"><title>93 - origin, -1 -&gt; 15, chapter: 0</title></circle><circle r="3" fill="rgb(158, 1, 66)" cx="320" cy="245"><title>94 - origin, -1 -&gt; 18, chapter: 0</title></circle><circle r="3" fill="rgb(158, 1, 66)" cx="80" cy="670"><title>95 - origin, -1 -&gt; 19, chapter: 0</title></circle><circle r="3" fill="rgb(158, 1, 66)" cx="80" cy="645"><title>96 - origin, -1 -&gt; 21, chapter: 0</title></circle><circle r="3" fill="rgb(158, 1, 66)" cx="90" cy="195"><title>97 - origin, -1 -&gt; 22, chapter: 0</title></circle><circle r="3" fill="rgb(158, 1, 66)" cx="100" cy="260"><title>98 - origin, -1 -&gt; 23, chapter: 0</title></circle><circle r="3" fill="rgb(158, 1, 66)" cx="100" cy="115"><title>99 - origin, -1 -&gt; 24, chapter: 0</title></circle><circle r="3" fill="rgb(158, 1, 66)" cx="165" cy="155"><title>100 - origin, -1 -&gt; 25, chapter: 0</title></circle><circle r="3" fill="rgb(158, 1, 66)" cx="200" cy="300"><title>101 - origin, -1 -&gt; 26, chapter: 0</title></circle><circle r="3" fill="rgb(158, 1, 66)" cx="365" cy="120"><title>102 - origin, -1 -&gt; 29, chapter: 0</title></circle><circle r="3" fill="rgb(158, 1, 66)" cx="405" cy="215"><title>103 - origin, -1 -&gt; 31, chapter: 0</title></circle><circle r="3" fill="rgb(158, 1, 66)" cx="755" cy="220"><title>104 - origin, -1 -&gt; 35, chapter: 0</title></circle><circle r="3" fill="rgb(158, 1, 66)" cx="765" cy="105"><title>105 - origin, -1 -&gt; 36, chapter: 0</title></circle><circle r="3" fill="rgb(158, 1, 66)" cx="790" cy="40"><title>106 - origin, -1 -&gt; 37, chapter: 0</title></circle><circle r="3" fill="rgb(158, 1, 66)" cx="800" cy="30"><title>107 - origin, -1 -&gt; 38, chapter: 0</title></circle><circle r="3" fill="rgb(158, 1, 66)" cx="815" cy="50"><title>108 - origin, -1 -&gt; 41, chapter: 0</title></circle><circle r="3" fill="rgb(158, 1, 66)" cx="825" cy="115"><title>109 - origin, -1 -&gt; 42, chapter: 0</title></circle><circle r="3" fill="rgb(94, 79, 162)" cx="65" cy="115"><title>110 - last_seen, 7 -&gt; -2, chapter: 17</title></circle><circle r="3" fill="rgb(94, 79, 162)" cx="1005" cy="120"><title>111 - last_seen, 9 -&gt; -2, chapter: 17</title></circle><circle r="3" fill="rgb(94, 79, 162)" cx="30" cy="115"><title>112 - last_seen, 10 -&gt; -2, chapter: 17</title></circle><circle r="3" fill="rgb(94, 79, 162)" cx="40" cy="195"><title>113 - last_seen, 11 -&gt; -2, chapter: 17</title></circle><circle r="3" fill="rgb(94, 79, 162)" cx="980" cy="145"><title>114 - last_seen, 13 -&gt; -2, chapter: 17</title></circle><circle r="3" fill="rgb(94, 79, 162)" cx="995" cy="120"><title>115 - last_seen, 14 -&gt; -2, chapter: 17</title></circle><circle r="3" fill="rgb(94, 79, 162)" cx="390" cy="120"><title>116 - last_seen, 15 -&gt; -2, chapter: 17</title></circle><circle r="3" fill="rgb(94, 79, 162)" cx="970" cy="520"><title>117 - last_seen, 18 -&gt; -2, chapter: 17</title></circle><circle r="3" fill="rgb(94, 79, 162)" cx="875" cy="115"><title>118 - last_seen, 19 -&gt; -2, chapter: 17</title></circle><circle r="3" fill="rgb(94, 79, 162)" cx="995" cy="635"><title>119 - last_seen, 21 -&gt; -2, chapter: 17</title></circle><circle r="3" fill="rgb(94, 79, 162)" cx="680" cy="635"><title>120 - last_seen, 22 -&gt; -2, chapter: 17</title></circle><circle r="3" fill="rgb(94, 79, 162)" cx="705" cy="455"><title>121 - last_seen, 23 -&gt; -2, chapter: 17</title></circle><circle r="3" fill="rgb(94, 79, 162)" cx="295" cy="155"><title>122 - last_seen, 24 -&gt; -2, chapter: 17</title></circle><circle r="3" fill="rgb(94, 79, 162)" cx="200" cy="185"><title>123 - last_seen, 25 -&gt; -2, chapter: 17</title></circle><circle r="3" fill="rgb(94, 79, 162)" cx="235" cy="300"><title>124 - last_seen, 26 -&gt; -2, chapter: 17</title></circle><circle r="3" fill="rgb(94, 79, 162)" cx="960" cy="380"><title>125 - last_seen, 29 -&gt; -2, chapter: 17</title></circle><circle r="3" fill="rgb(94, 79, 162)" cx="995" cy="490"><title>126 - last_seen, 31 -&gt; -2, chapter: 17</title></circle><circle r="3" fill="rgb(94, 79, 162)" cx="860" cy="175"><title>127 - last_seen, 35 -&gt; -2, chapter: 17</title></circle><circle r="3" fill="rgb(94, 79, 162)" cx="775" cy="105"><title>128 - last_seen, 36 -&gt; -2, chapter: 17</title></circle><circle r="3" fill="rgb(94, 79, 162)" cx="800" cy="40"><title>129 - last_seen, 37 -&gt; -2, chapter: 17</title></circle><circle r="3" fill="rgb(94, 79, 162)" cx="815" cy="30"><title>130 - last_seen, 38 -&gt; -2, chapter: 17</title></circle><circle r="3" fill="rgb(94, 79, 162)" cx="825" cy="50"><title>131 - last_seen, 41 -&gt; -2, chapter: 17</title></circle><circle r="3" fill="rgb(94, 79, 162)" cx="835" cy="70"><title>132 - last_seen, 42 -&gt; -2, chapter: 17</title></circle></g></svg>