<?xml version="1.0" encoding="iso-8859-1"?>
<!-- Generator: Adobe Illustrator 19.0.0, SVG Export Plug-In . SVG Version: 6.00 Build 0)  -->
<svg version="1.1" id="Capa_1" xmlns="http://www.w3.org/2000/svg" xmlns:xlink="http://www.w3.org/1999/xlink" x="0px" y="0px"
	 viewBox="0 0 511.999 511.999" style="enable-background:new 0 0 511.999 511.999;" xml:space="preserve">
<g>
	<g>
		<path d="M510.713,303.468c-5.536-21.506-27.58-34.518-49.14-29.014c-9.023,2.309-18.242-2.901-20.925-11.674
			c-0.022-0.112-0.047-0.225-0.072-0.337c-9.309-41.072-32.623-78.357-65.648-104.984c-29.693-23.939-66.236-38.338-104.217-41.311
			V99.752h24.051c5.332,0,10.263-2.83,12.951-7.435c2.689-4.604,2.732-10.289,0.113-14.933L268.777,8.141
			c-2.659-4.715-7.652-7.632-13.064-7.632c-5.413,0-10.406,2.917-13.064,7.632l-39.049,69.243
			c-2.619,4.645-2.576,10.33,0.113,14.933c2.689,4.604,7.62,7.435,12.951,7.435h24.05v16.44
			c-37.774,3.073-74.099,17.45-103.642,41.268c-33.026,26.627-56.341,63.911-65.648,104.984c-0.025,0.112-0.05,0.225-0.072,0.336
			c-2.683,8.771-11.899,13.979-20.925,11.675c-21.565-5.51-43.604,7.507-49.14,29.014c-2.681,10.416-1.14,21.25,4.34,30.511
			c5.496,9.286,14.288,15.873,24.759,18.549c11.015,2.814,22.079,3.633,32.813,2.697l124.554,66.031v75.234
			c0,8.284,6.716,14.999,14.999,14.999h105.926c8.284,0,14.999-6.716,14.999-14.999v-75.234l124.643-66.078
			c2.961,0.273,5.946,0.425,8.951,0.425c8.039-0.001,16.211-0.995,24.348-3.074c10.471-2.676,19.263-9.264,24.759-18.549
			C511.853,324.718,513.394,313.883,510.713,303.468z M187.75,387.301l-84.286-44.683c22.095-12.612,39.293-33.699,46.219-60.106
			c0.097-0.334,0.182-0.675,0.256-1.02c5.287-24.67,19.04-45.963,37.811-61.111V387.301z M240.712,482.49h-22.964v-45.331
			l22.964,12.174V482.49z M240.712,415.379l-22.964-12.174V203.193c7.345-2.783,15.035-4.792,22.964-5.929V415.379z
			 M240.713,167.009c-26.421,2.94-51.66,13.436-72.329,30.292c-24.17,19.711-41.091,47.207-47.682,77.463
			c-9.398,36.145-46.547,57.989-82.892,48.698c-2.698-0.689-4.96-2.381-6.369-4.761c-1.394-2.355-1.786-5.109-1.105-7.755
			c1.42-5.516,7.096-8.847,12.66-7.427c25.275,6.461,51.124-8.798,57.615-34.011c0.123-0.476,0.221-0.952,0.295-1.428
			c15.435-66.079,72.784-115.207,139.806-121.765V167.009z M242.341,69.753l13.37-23.709l13.37,23.709H242.341z M293.675,482.489
			h-22.964v-33.157l22.964-12.174V482.489z M293.675,403.205l-22.964,12.174V197.176c7.926,1.093,15.615,3.06,22.964,5.797V403.205z
			 M323.674,387.301V219.932c19.062,15.174,33.045,36.643,38.385,61.561c0.074,0.345,0.159,0.686,0.256,1.02
			c6.897,26.298,23.983,47.317,45.944,59.947L323.674,387.301z M480.556,318.701c-1.409,2.381-3.671,4.072-6.369,4.762
			c-36.349,9.288-73.492-12.553-82.892-48.698c-6.591-30.256-23.512-57.752-47.682-77.463
			c-20.819-16.977-46.274-27.506-72.903-30.357v-20.684c67.268,6.331,124.9,55.548,140.379,121.816
			c0.074,0.477,0.173,0.955,0.296,1.433c6.491,25.214,32.332,40.474,57.615,34.011c5.563-1.42,11.241,1.911,12.661,7.427
			C482.342,313.591,481.949,316.345,480.556,318.701z"/>
	</g>
</g>
<g>
</g>
<g>
</g>
<g>
</g>
<g>
</g>
<g>
</g>
<g>
</g>
<g>
</g>
<g>
</g>
<g>
</g>
<g>
</g>
<g>
</g>
<g>
</g>
<g>
</g>
<g>
</g>
<g>
</g>
</svg>
