<?xml version="1.0" encoding="iso-8859-1"?>
<!-- Generator: Adobe Illustrator 19.0.0, SVG Export Plug-In . SVG Version: 6.00 Build 0)  -->
<svg version="1.1" id="Capa_1" xmlns="http://www.w3.org/2000/svg" xmlns:xlink="http://www.w3.org/1999/xlink" x="0px" y="0px"
	 viewBox="0 0 512 512" style="enable-background:new 0 0 512 512;" xml:space="preserve">
<g>
	<g>
		<path d="M497,35.891H15.002c-8.284,0-15,6.716-15,15L0,413.513c0,8.284,6.716,15,15,15h340.379v32.595c0,8.284,6.716,15,15,15
			h72.471c8.284,0,15-6.716,15-15v-32.595H497c8.284,0,15-6.716,15-15V50.891C512,42.606,505.284,35.891,497,35.891z M241,398.512
			H30v-25.605h211V398.512z M241,342.905H30.002V65.891H241V342.905z M427.85,446.107h-42.471v-29.444h42.471V446.107z M482,398.513
			h-24.488c-1.448-6.771-7.46-11.85-14.663-11.85h-72.471c-7.203,0-13.214,5.079-14.663,11.85H271v-25.605h211V398.513z
			 M482,342.904H271.002V65.891H482V342.904z"/>
	</g>
</g>
<g>
	<g>
		<path d="M201.745,120.977H69.259c-8.284,0-15,6.716-15,15s6.716,15,15,15h132.486c8.284,0,15-6.716,15-15
			S210.029,120.977,201.745,120.977z"/>
	</g>
</g>
<g>
	<g>
		<path d="M201.745,189.835H69.259c-8.284,0-15,6.716-15,15s6.716,15,15,15h132.486c8.284,0,15-6.716,15-15
			S210.029,189.835,201.745,189.835z"/>
	</g>
</g>
<g>
	<g>
		<path d="M201.745,258.691H69.259c-8.284,0-15,6.716-15,15s6.716,15,15,15h132.486c8.284,0,15-6.716,15-15
			S210.029,258.691,201.745,258.691z"/>
	</g>
</g>
<g>
	<g>
		<path d="M442.38,120.977H310.62c-8.284,0-15,6.716-15,15s6.716,15,15,15h131.76c8.284,0,15-6.716,15-15
			S450.664,120.977,442.38,120.977z"/>
	</g>
</g>
<g>
	<g>
		<path d="M442.38,189.835H310.62c-8.284,0-15,6.716-15,15s6.716,15,15,15h131.76c8.284,0,15-6.716,15-15
			S450.664,189.835,442.38,189.835z"/>
	</g>
</g>
<g>
	<g>
		<path d="M442.38,258.69H310.62c-8.284,0-15,6.716-15,15s6.716,15,15,15h131.76c8.284,0,15-6.716,15-15
			S450.664,258.69,442.38,258.69z"/>
	</g>
</g>
<g>
</g>
<g>
</g>
<g>
</g>
<g>
</g>
<g>
</g>
<g>
</g>
<g>
</g>
<g>
</g>
<g>
</g>
<g>
</g>
<g>
</g>
<g>
</g>
<g>
</g>
<g>
</g>
<g>
</g>
</svg>
