<?xml version="1.0" encoding="iso-8859-1"?>
<!-- Generator: Adobe Illustrator 19.0.0, SVG Export Plug-In . SVG Version: 6.00 Build 0)  -->
<svg version="1.1" id="Capa_1" xmlns="http://www.w3.org/2000/svg" xmlns:xlink="http://www.w3.org/1999/xlink" x="0px" y="0px"
	 viewBox="0 0 512 512" style="enable-background:new 0 0 512 512;" xml:space="preserve">
<g>
	<g>
		<path d="M496.361,304.734H271V280.13h121.115c8.284,0,15-6.716,15-15v-71.749c0-24.813-20.187-45-45-45H271v-13.082h69.979
			c8.284,0,15-6.716,15-15V65.457c0-24.813-20.187-45-45-45H271V15c0-8.284-6.716-15-15-15c-8.284,0-15,6.716-15,15v5.457h-39.979
			c-24.813,0-45,20.187-45,45v54.842c0,8.284,6.716,15,15,15H241v13.082h-91.115c-24.813,0-45,20.187-45,45v71.749
			c0,8.284,6.716,15,15,15H241v24.604H15.639c-4.399,0-8.577,1.932-11.427,5.282c-2.85,3.352-4.085,7.785-3.379,12.127l23.16,142.33
			C28.475,492.012,51.978,512,79.879,512h265.97c68.036,0,118.352-33.809,145.506-97.771c19.779-46.59,20.007-92.56,20.007-94.494
			C511.361,311.45,504.646,304.734,496.361,304.734z M186.022,105.299V65.457c0-8.271,6.729-15,15-15h109.957
			c8.271,0,15,6.729,15,15v39.842H186.022z M134.885,250.13v-56.749c0-8.271,6.729-15,15-15h212.23c8.271,0,15,6.729,15,15v56.749
			H134.885z M463.74,402.506C441.346,455.254,401.682,482,345.849,482H79.879c-13.118,0-24.168-9.397-26.274-22.345l-11.3-69.439
			H468.47C467.054,394.288,465.484,398.398,463.74,402.506z M476.609,360.215H37.423l-4.146-25.481h447.157
			C479.763,341.572,478.603,350.351,476.609,360.215z"/>
	</g>
</g>
<g>
</g>
<g>
</g>
<g>
</g>
<g>
</g>
<g>
</g>
<g>
</g>
<g>
</g>
<g>
</g>
<g>
</g>
<g>
</g>
<g>
</g>
<g>
</g>
<g>
</g>
<g>
</g>
<g>
</g>
</svg>
