<?xml version="1.0" encoding="iso-8859-1"?>
<!-- Generator: Adobe Illustrator 19.0.0, SVG Export Plug-In . SVG Version: 6.00 Build 0)  -->
<svg version="1.1" id="Capa_1" xmlns="http://www.w3.org/2000/svg" xmlns:xlink="http://www.w3.org/1999/xlink" x="0px" y="0px"
	 viewBox="0 0 512.001 512.001" style="enable-background:new 0 0 512.001 512.001;" xml:space="preserve">
<g>
	<g>
		<path d="M454.246,240.393c-23.931-24.064-37.11-56.005-37.11-89.937c0-19.053,4.102-37.382,12.192-54.479
			c2.164-4.573,1.877-9.93-0.764-14.246c-21.709-35.474-53.02-63.193-90.547-80.164c-4.581-2.071-9.894-1.711-14.15,0.96
			c-36.074,22.623-80.805,25.822-119.654,8.557c-5.642-2.508-11.165-5.459-16.416-8.771c-4.236-2.672-9.527-3.054-14.103-1.018
			c-37.715,16.786-69.061,44.313-90.649,79.604c-2.658,4.345-2.929,9.741-0.721,14.331c8.321,17.293,12.54,35.874,12.54,55.227
			c0,33.932-13.179,65.872-37.11,89.937c-3.209,3.227-4.779,7.736-4.269,12.259c0.367,3.254,9.323,78.985,54.02,162.113
			l-25.462,77.556c-1.5,4.569-0.718,9.581,2.103,13.477s7.339,6.202,12.149,6.202h319.827c4.81,0,9.328-2.307,12.149-6.202
			c2.821-3.896,3.603-8.907,2.103-13.477l-25.62-78.035c44.472-82.938,53.396-158.386,53.762-161.634
			C459.025,248.13,457.455,243.62,454.246,240.393z M84.278,256.01c26.229-29.001,40.586-66.193,40.586-105.554
			c0-21.021-4.039-41.318-12.017-60.457c16.743-24.832,39.386-44.704,66.134-58.037c4.255,2.382,8.62,4.569,13.046,6.536
			C207.781,45.5,224.317,49.772,241,51.371v346.901H132.712C99.185,334.978,87.44,275.554,84.278,256.01z M117.007,482
			l17.639-53.728H377.77L395.409,482H117.007z M379.287,398.272H271V51.365c21.359-2.046,42.333-8.453,61.575-19.148
			c26.688,13.508,49.365,33.598,66.223,58.666c-7.742,18.895-11.662,38.896-11.662,59.574c0,39.36,14.357,76.553,40.586,105.554
			C424.557,275.57,412.81,334.988,379.287,398.272z"/>
	</g>
</g>
<g>
</g>
<g>
</g>
<g>
</g>
<g>
</g>
<g>
</g>
<g>
</g>
<g>
</g>
<g>
</g>
<g>
</g>
<g>
</g>
<g>
</g>
<g>
</g>
<g>
</g>
<g>
</g>
<g>
</g>
</svg>
