<?xml version="1.0" encoding="iso-8859-1"?>
<!-- Generator: Adobe Illustrator 19.0.0, SVG Export Plug-In . SVG Version: 6.00 Build 0)  -->
<svg version="1.1" id="Capa_1" xmlns="http://www.w3.org/2000/svg" xmlns:xlink="http://www.w3.org/1999/xlink" x="0px" y="0px"
	 viewBox="0 0 512 512" style="enable-background:new 0 0 512 512;" xml:space="preserve">
<g>
	<g>
		<path d="M430.008,316.027v-19.008c25.938-6.682,45.158-30.271,45.158-58.266c0-33.172-26.986-60.158-60.158-60.158
			c-0.489,0-0.972,0.025-1.458,0.037v-41.4c0-21.065-9.955-41.328-26.63-54.2l-89.076-68.768
			c-24.636-19.018-59.049-19.019-83.686,0.001l-89.075,68.766c-16.675,12.873-26.63,33.135-26.63,54.201v41.4
			c-0.486-0.012-0.969-0.037-1.458-0.037c-33.172,0-60.158,26.986-60.158,60.158c0,27.994,19.22,51.584,45.158,58.266v19.008
			c-23.159,1.002-41.694,20.149-41.694,43.552c0,23.401,18.534,42.549,41.694,43.551v71.291c0,20.722,16.858,37.58,37.58,37.58
			s37.58-16.857,37.58-37.58v-71.242h197.697v71.242c0,20.722,16.858,37.58,37.58,37.58s37.58-16.857,37.58-37.58v-71.291
			c23.159-1.002,41.694-20.149,41.694-43.551C471.701,336.176,453.167,317.029,430.008,316.027z M384.849,238.752
			c0-16.629,13.529-30.157,30.158-30.157s30.157,13.529,30.157,30.158c0,16.629-13.528,30.157-30.157,30.157
			c-8.284,0-15,6.716-15,15v32.068h-15.158V238.752z M128.451,137.231c0-11.836,5.593-23.22,14.963-30.453l89.075-68.766
			c13.842-10.687,33.179-10.687,47.021-0.001l89.076,68.768c9.369,7.232,14.962,18.616,14.962,30.452v50.27
			c-17.203,10.598-28.701,29.605-28.701,51.252v77.226H157.151v-77.226c0-21.646-11.496-40.654-28.7-51.252V137.231z
			 M66.835,238.752c0-16.629,13.528-30.157,30.157-30.157c16.629,0,30.159,13.528,30.159,30.157v77.226h-15.158v-32.068
			c0-8.284-6.716-15-15-15C80.363,268.91,66.835,255.382,66.835,238.752z M127.151,474.42c0,4.179-3.4,7.579-7.579,7.579
			c-4.179,0-7.579-3.4-7.579-7.579v-71.242h15.158V474.42z M400.007,474.42c0,4.179-3.4,7.579-7.579,7.579
			c-4.179,0-7.579-3.4-7.579-7.579v-71.242h15.158V474.42z M428.102,373.178H83.898c-7.499,0-13.599-6.101-13.599-13.599
			c0-7.499,6.101-13.6,13.599-13.6h344.202c7.499,0,13.599,6.101,13.599,13.6C441.701,367.076,435.6,373.178,428.102,373.178z"/>
	</g>
</g>
<g>
</g>
<g>
</g>
<g>
</g>
<g>
</g>
<g>
</g>
<g>
</g>
<g>
</g>
<g>
</g>
<g>
</g>
<g>
</g>
<g>
</g>
<g>
</g>
<g>
</g>
<g>
</g>
<g>
</g>
</svg>
