<?xml version="1.0" encoding="iso-8859-1"?>
<!-- Generator: Adobe Illustrator 19.0.0, SVG Export Plug-In . SVG Version: 6.00 Build 0)  -->
<svg version="1.1" id="Capa_1" xmlns="http://www.w3.org/2000/svg" xmlns:xlink="http://www.w3.org/1999/xlink" x="0px" y="0px"
	 viewBox="0 0 512 512" style="enable-background:new 0 0 512 512;" xml:space="preserve">
<g>
	<g>
		<path d="M302.32,364.295l6.923-189.072h23.363c8.284,0,15-6.716,15-15v-54.357c0-8.284-6.716-15-15-15h-33.763V42.844
			C298.844,19.22,279.623,0,255.999,0c-23.624,0-42.844,19.22-42.844,42.844v48.021h-33.761c-8.284,0-15,6.716-15,15v54.357
			c0,8.284,6.716,15,15,15h23.363l6.924,189.072C154.868,383.482,115.443,435.72,115.443,497c0,8.284,6.716,15,15,15h251.113
			c8.284,0,15-6.716,15-15C396.557,435.72,357.133,383.482,302.32,364.295z M243.155,42.844c0-7.082,5.762-12.844,12.844-12.844
			c7.082,0,12.844,5.762,12.844,12.844v48.021h-25.688V42.844z M194.395,145.222v-24.357h123.211v24.357H194.395z M279.222,175.223
			l-6.671,182.2c-5.43-0.64-10.951-0.979-16.55-0.979c-5.599,0-11.12,0.339-16.55,0.979l-6.672-182.2H279.222z M146.458,482
			c7.342-53.893,53.668-95.557,109.543-95.557S358.201,428.107,365.544,482H146.458z"/>
	</g>
</g>
<g>
</g>
<g>
</g>
<g>
</g>
<g>
</g>
<g>
</g>
<g>
</g>
<g>
</g>
<g>
</g>
<g>
</g>
<g>
</g>
<g>
</g>
<g>
</g>
<g>
</g>
<g>
</g>
<g>
</g>
</svg>
