<?xml version="1.0" encoding="iso-8859-1"?>
<!-- Generator: Adobe Illustrator 19.0.0, SVG Export Plug-In . SVG Version: 6.00 Build 0)  -->
<svg version="1.1" id="Capa_1" xmlns="http://www.w3.org/2000/svg" xmlns:xlink="http://www.w3.org/1999/xlink" x="0px" y="0px"
	 viewBox="0 0 511.999 511.999" style="enable-background:new 0 0 511.999 511.999;" xml:space="preserve">
<g>
	<g>
		<path d="M499.479,418.55l-65.229-65.23c15.157-28.33,23.767-60.667,23.767-94.981c0-50.413-18.565-96.572-49.213-132.003
			l32.817-32.998l36.534,0.456c0.064,0.001,0.127,0.001,0.191,0.001c8.197,0,14.894-6.595,14.996-14.814
			c0.104-8.285-6.529-15.084-14.813-15.188l-15.379-0.192l-12.872-0.161l-0.161-12.873l-0.192-15.38
			c-0.103-8.221-6.799-14.814-14.996-14.814c-0.063,0-0.127,0-0.191,0.001c-8.284,0.104-14.916,6.903-14.813,15.188l0.457,36.585
			l-32.827,33.009c-35.372-30.421-81.352-48.834-131.555-48.834c-111.392,0-202.017,90.624-202.017,202.017
			c0,34.314,8.61,66.65,23.767,94.981L12.521,418.55c-16.694,16.694-16.694,43.859,0,60.554
			c8.348,8.348,19.313,12.522,30.276,12.522c10.964,0,21.93-4.174,30.276-12.522l60.322-60.323
			c34.024,26.062,76.532,41.575,122.603,41.575c46.07,0,88.579-15.513,122.603-41.574l60.322,60.322
			c8.348,8.348,19.313,12.522,30.276,12.522c10.964,0,21.93-4.174,30.276-12.522C516.173,462.409,516.173,435.245,499.479,418.55z
			 M51.86,457.89c-4.996,4.996-13.128,4.996-18.124,0c-4.996-4.997-4.996-13.127,0-18.124l60.52-60.52
			c5.149,6.871,10.733,13.396,16.696,19.553L51.86,457.89z M256,430.354c-42.794-0.001-81.986-15.713-112.118-41.667
			c-0.246-0.286-0.491-0.572-0.762-0.843c-0.748-0.748-1.557-1.398-2.409-1.955c-34.816-31.5-56.725-77.012-56.725-127.548
			c0-94.849,77.165-172.014,172.014-172.014c41.959,0,80.452,15.109,110.34,40.163l-27.263,27.415
			c-22.817-18.188-51.697-29.075-83.077-29.075c-73.618,0-133.511,59.893-133.511,133.511S182.382,391.851,256,391.851
			s133.511-59.893,133.511-133.511c0-31.453-10.939-60.395-29.204-83.237l27.273-27.424c25.215,29.933,40.434,68.551,40.434,110.661
			C428.014,353.189,350.849,430.354,256,430.354z M244.229,270.551c2.927,2.91,6.753,4.364,10.578,4.364
			c3.853,0,7.706-1.476,10.637-4.423l23.587-23.718c1.272,3.623,1.972,7.514,1.972,11.565c0,19.301-15.702,35.003-35.003,35.003
			s-35.003-15.702-35.003-35.003s15.702-35.003,35.003-35.003c4.19,0,8.212,0.742,11.939,2.099l-23.769,23.901
			C238.327,255.211,238.354,264.709,244.229,270.551z M290.177,203.076c-9.938-6.167-21.645-9.742-34.176-9.742
			c-35.844,0-65.005,29.161-65.005,65.005s29.161,65.005,65.005,65.005c35.844,0,65.005-29.161,65.005-65.005
			c0-12.465-3.534-24.118-9.643-34.022l27.623-27.776c12.885,17.258,20.522,38.653,20.522,61.798
			c0,57.075-46.434,103.508-103.508,103.508s-103.508-46.434-103.508-103.508S198.925,154.831,256,154.831
			c23.132,0,44.515,7.629,61.768,20.5L290.177,203.076z M478.264,457.89c-2.421,2.42-5.639,3.753-9.063,3.753
			s-6.642-1.333-9.063-3.753l-59.092-59.092c5.964-6.156,11.547-12.682,16.696-19.554l60.52,60.52
			c2.42,2.421,3.753,5.639,3.753,9.063S480.684,455.468,478.264,457.89z"/>
	</g>
</g>
<g>
</g>
<g>
</g>
<g>
</g>
<g>
</g>
<g>
</g>
<g>
</g>
<g>
</g>
<g>
</g>
<g>
</g>
<g>
</g>
<g>
</g>
<g>
</g>
<g>
</g>
<g>
</g>
<g>
</g>
</svg>
