<?xml version="1.0" encoding="iso-8859-1"?>
<!-- Generator: Adobe Illustrator 19.0.0, SVG Export Plug-In . SVG Version: 6.00 Build 0)  -->
<svg version="1.1" id="Capa_1" xmlns="http://www.w3.org/2000/svg" xmlns:xlink="http://www.w3.org/1999/xlink" x="0px" y="0px"
	 viewBox="0 0 512.001 512.001" style="enable-background:new 0 0 512.001 512.001;" xml:space="preserve">
<g>
	<g>
		<path d="M447.334,4.234c-2.929-2.843-6.879-4.382-10.973-4.223c-99.6,3.525-175.235,34.987-224.807,93.514
			c-32.064,37.858-52.879,87.705-60.191,144.152c-3.117,24.064-3.193,44.501-2.645,57.922h-40.824
			c-23.763,0-43.096,19.333-43.096,43.096c0,12.941,5.654,24.633,14.807,32.568c-12.287,17.754-19.497,39.276-19.497,62.454
			c0,27.074,9.931,53.099,27.962,73.278c2.846,3.186,6.914,5.006,11.186,5.006h141.751c4.271,0,8.34-1.82,11.186-5.006
			c18.031-20.18,27.961-46.203,27.961-73.278c0-23.178-7.21-44.7-19.497-62.454c9.152-7.935,14.807-19.627,14.807-32.568
			c0-23.763-19.333-43.096-43.096-43.096h-5.674c55.734-35.232,102.252-83.46,133.06-115.404
			c5.269-5.463,10.245-10.623,14.63-15.055c3.231-3.267,4.788-7.834,4.223-12.394l-2.634-21.265l19.867,0.129
			c0.032,0,0.064,0,0.097,0c4.836,0,9.378-2.332,12.195-6.267c43.032-60.095,43.751-108.251,43.761-110.272
			C451.911,10.99,450.264,7.076,447.334,4.234z M234.447,112.915c31.154-36.782,74.622-61.499,129.701-73.9
			c-27.793,16.656-53.67,35.663-77.335,56.891c-32.158,28.847-60.34,61.789-83.763,97.913c-7.489,11.55-14.005,22.669-19.654,33.129
			C189.819,190.954,204.063,148.788,234.447,112.915z M233.943,482.001H106.319c-10.495-13.853-16.211-30.766-16.211-48.284
			c0-19.806,7.248-37.939,19.21-51.928h121.625c11.962,13.988,19.21,32.122,19.21,51.928
			C250.153,451.237,244.437,468.15,233.943,482.001z M232.367,325.599c7.221,0,13.096,5.875,13.096,13.096
			c0,6.449-4.607,11.882-10.955,12.918c-0.72,0.117-1.439,0.177-2.141,0.177H107.894c-0.7,0-1.421-0.06-2.142-0.177
			c-6.347-1.036-10.954-6.469-10.954-12.918c0-7.221,5.875-13.096,13.096-13.096H232.367z M388.129,101.56l-29.047-0.188
			c-0.032,0-0.064,0-0.097,0c-0.56,0-1.116,0.035-1.667,0.097c-3.66,0.409-7.066,2.152-9.54,4.934
			c-2.357,2.649-3.661,6.029-3.765,9.525c-0.023,0.76-0.008,1.524,0.087,2.289l3.845,31.039c-3.103,3.186-6.384,6.588-9.785,10.115
			c-33.247,34.474-85.586,88.736-146.44,122.045c-0.402,0.22-0.803,0.444-1.206,0.662c7.683-18.921,19.92-44.673,38.405-73.006
			c30.852-47.29,85.324-110.699,174.58-157.781c4.085-2.155,8.243-4.275,12.474-6.358C411.314,59.883,402.996,79.483,388.129,101.56
			z"/>
	</g>
</g>
<g>
</g>
<g>
</g>
<g>
</g>
<g>
</g>
<g>
</g>
<g>
</g>
<g>
</g>
<g>
</g>
<g>
</g>
<g>
</g>
<g>
</g>
<g>
</g>
<g>
</g>
<g>
</g>
<g>
</g>
</svg>
