<?xml version="1.0" encoding="iso-8859-1"?>
<!-- Generator: Adobe Illustrator 19.0.0, SVG Export Plug-In . SVG Version: 6.00 Build 0)  -->
<svg version="1.1" id="Capa_1" xmlns="http://www.w3.org/2000/svg" xmlns:xlink="http://www.w3.org/1999/xlink" x="0px" y="0px"
	 viewBox="0 0 512.002 512.002" style="enable-background:new 0 0 512.002 512.002;" xml:space="preserve">
<g>
	<g>
		<path d="M497.002,325.975H396.828c-10.346-7.083-18.125-17.641-21.665-29.977h2.117c8.284,0,15-6.716,15-15v-16.404
			C459.533,257.11,512,199.919,512,130.703c0-8.284-6.716-15-15-15H392.28v-0.142c0-8.284-6.716-15-15-15H134.72
			c-8.284,0-15,6.716-15,15v0.142H15c-8.284,0-15,6.716-15,15c0,69.216,52.467,126.407,119.72,133.891v16.404
			c0,7.374,5.326,13.492,12.338,14.75c-3.502,12.438-11.305,23.088-21.709,30.226H15.001c-8.284,0-15,6.716-15,15v55.466
			c0,8.284,6.716,15,15,15h482.001c8.284,0,15-6.716,15-15v-55.466C512.002,332.69,505.286,325.975,497.002,325.975z
			 M392.281,145.703h88.648c-6.593,45.762-42.886,82.052-88.648,88.644V145.703z M119.719,234.347
			c-45.761-6.592-82.055-42.882-88.648-88.644h88.648V234.347z M149.72,250.424v-119.72v-0.142h212.56v0.142v119.72v15.575H149.72
			V250.424z M356.067,325.975H151.089c5.679-8.996,9.702-19.128,11.654-29.977h181.664
			C346.36,306.847,350.385,316.98,356.067,325.975z M482.002,381.44H30.001v-25.466h452.001V381.44z"/>
	</g>
</g>
<g>
</g>
<g>
</g>
<g>
</g>
<g>
</g>
<g>
</g>
<g>
</g>
<g>
</g>
<g>
</g>
<g>
</g>
<g>
</g>
<g>
</g>
<g>
</g>
<g>
</g>
<g>
</g>
<g>
</g>
</svg>
