<?xml version="1.0" encoding="iso-8859-1"?>
<!-- Generator: Adobe Illustrator 19.0.0, SVG Export Plug-In . SVG Version: 6.00 Build 0)  -->
<svg version="1.1" id="Capa_1" xmlns="http://www.w3.org/2000/svg" xmlns:xlink="http://www.w3.org/1999/xlink" x="0px" y="0px"
	 viewBox="0 0 512 512" style="enable-background:new 0 0 512 512;" xml:space="preserve">
<g>
	<g>
		<path d="M512,42.937c0-8.284-6.716-15-15-15H15c-8.284,0-15,6.716-15,15v114.856c0,0.083,0.011,0.162,0.012,0.245
			C0.011,158.12,0,158.2,0,158.283v114.856c0,8.284,6.716,15,15,15h7.248v180.924c0,8.284,6.716,15,15,15h50.494
			c8.284,0,15-6.716,15-15V288.139h306.516v180.924c0,8.284,6.716,15,15,15h50.494c8.284,0,15-6.716,15-15V288.139H497
			c8.284,0,15-6.716,15-15V158.283c0-0.083-0.011-0.162-0.012-0.245c0.001-0.082,0.012-0.162,0.012-0.245V42.937z M72.742,454.063
			H52.248V288.139h20.494V454.063z M459.752,454.063h-20.494V288.139h20.494V454.063z M482,258.139H30v-84.856h29.419
			c6.278,18.605,23.882,32.045,44.578,32.045s38.301-13.44,44.578-32.045h40.05c6.895,30.85,34.476,53.983,67.375,53.983
			s60.479-23.134,67.375-53.983h40.05c6.278,18.605,23.882,32.045,44.578,32.045c20.696,0,38.301-13.44,44.578-32.045H482V258.139z
			 M86.952,158.283c0-9.399,7.646-17.045,17.045-17.045s17.045,7.646,17.045,17.045c0,9.398-7.646,17.045-17.045,17.045
			S86.952,167.682,86.952,158.283z M216.95,158.216c0-21.532,17.518-39.05,39.05-39.05s39.05,17.518,39.05,39.05
			s-17.518,39.05-39.05,39.05S216.95,179.749,216.95,158.216z M390.958,158.283c0-9.399,7.646-17.045,17.045-17.045
			c9.399,0,17.045,7.646,17.045,17.045c0,9.398-7.646,17.045-17.045,17.045C398.604,175.328,390.958,167.682,390.958,158.283z
			 M482,142.793h-29.584c-6.419-18.352-23.898-31.556-44.413-31.556c-20.515,0-37.993,13.204-44.413,31.556h-40.298
			c-7.028-30.671-34.521-53.627-67.292-53.627s-60.264,22.956-67.292,53.627H148.41c-6.419-18.352-23.898-31.556-44.413-31.556
			s-37.993,13.204-44.413,31.556H30V57.937h452V142.793z"/>
	</g>
</g>
<g>
</g>
<g>
</g>
<g>
</g>
<g>
</g>
<g>
</g>
<g>
</g>
<g>
</g>
<g>
</g>
<g>
</g>
<g>
</g>
<g>
</g>
<g>
</g>
<g>
</g>
<g>
</g>
<g>
</g>
</svg>
