<?xml version="1.0" encoding="iso-8859-1"?>
<!-- Generator: Adobe Illustrator 19.0.0, SVG Export Plug-In . SVG Version: 6.00 Build 0)  -->
<svg version="1.1" id="Capa_1" xmlns="http://www.w3.org/2000/svg" xmlns:xlink="http://www.w3.org/1999/xlink" x="0px" y="0px"
	 viewBox="0 0 511.998 511.998" style="enable-background:new 0 0 511.998 511.998;" xml:space="preserve">
<g>
	<g>
		<path d="M445.302,453.356l-44.927-180.251c9.069-4.953,16.705-12.235,22.168-21.326c8.109-13.492,10.478-29.334,6.67-44.607
			c-2.501-10.035-7.484-19.023-14.426-26.317c12.316-30.952,12.542-64.891,0.515-96.162c-12.67-32.94-37.409-58.976-69.661-73.309
			c-66.575-29.59-144.815,0.502-174.405,67.08c-14.993,33.736-14.654,70.463-2.018,102.34c-6.815,7.136-11.939,16.065-14.501,26.303
			c-6.63,26.495,5.898,53.365,28.78,65.949L156.472,381.05l-41.765-10.453c-8.037-2.015-16.182,2.873-18.193,10.91
			c-2.011,8.036,2.873,16.183,10.91,18.193l41.765,10.453l-7.15,28.571l-57.145-14.301c-8.035-2.016-16.182,2.872-18.194,10.91
			c-2.011,8.036,2.874,16.183,10.911,18.193l71.696,17.943c1.223,0.306,2.447,0.452,3.653,0.452c6.719,0,12.835-4.549,14.54-11.363
			l45.103-180.225c8.474-0.105,16.69-2.051,24.157-5.539c6.646,17.791,21.653,31.533,40.22,36.424v111.324h-43.052
			c-8.285,0-15.001,6.716-15.001,15.001c0,8.285,6.716,15.001,15.001,15.001h43.052v29.451h-58.904
			c-8.284,0-15.001,6.716-15.001,15.001c0,8.284,6.716,15.001,15.001,15.001h73.907c8.285,0,15.001-6.716,15.001-15.001V311.221
			c18.544-4.885,33.536-18.602,40.196-36.361c7.609,3.557,15.793,5.413,24.089,5.506l26.919,108.003L356.41,398.78
			c-8.039,2.003-12.932,10.145-10.928,18.184c1.7,6.82,7.818,11.377,14.544,11.377c1.201,0,2.422-0.146,3.64-0.449l41.774-10.412
			l7.122,28.577l-57.157,14.246c-8.039,2.004-12.932,10.145-10.928,18.184c1.7,6.82,7.818,11.377,14.544,11.377
			c1.201,0,2.422-0.146,3.64-0.449l71.713-17.874C442.413,469.535,447.306,461.396,445.302,453.356z M204.863,249.476
			c-15.473-3.872-24.912-19.612-21.039-35.086c0.379-1.514,0.875-2.969,1.47-4.36c10.623,14.599,24.346,27.171,40.737,36.595
			C219.814,250.114,212.31,251.339,204.863,249.476z M209.69,192.575c3.019-0.233,6.123,0.001,9.219,0.775
			c7.495,1.876,13.813,6.558,17.786,13.186c2.581,4.302,3.965,9.092,4.11,13.972C228.313,213.288,217.834,203.699,209.69,192.575z
			 M291.98,283.16c-13.521,0-24.901-9.326-28.056-21.881c9.236,2.026,18.616,3.049,28.009,3.048c9.405,0,18.819-1.026,28.107-3.064
			C316.892,273.826,305.507,283.16,291.98,283.16z M272.926,232.493c5.093-4.47,11.761-7.189,19.054-7.189
			c7.289,0,13.953,2.716,19.046,7.181C298.399,234.909,285.509,234.906,272.926,232.493z M321.523,191.067
			c-1.882,3.132-3.441,6.395-4.699,9.744c-7.555-3.527-15.97-5.51-24.844-5.51c-8.897,0-17.333,1.993-24.903,5.538
			c-6.572-17.553-21.366-31.709-40.885-36.593c-10.544-2.638-21.144-2.229-30.885,0.645c-7.964-23.466-7.487-49.864,3.346-74.242
			c16.899-38.023,54.322-60.648,93.475-60.648c13.836,0,27.893,2.827,41.33,8.799c24.929,11.079,44.05,31.202,53.842,56.664
			c8.666,22.529,9.103,46.85,1.413,69.424c-9.967-2.958-20.578-3.224-30.932-0.645C342.51,168.049,329.633,177.575,321.523,191.067z
			 M343.115,220.537c0.143-4.896,1.531-9.701,4.124-14.014c3.98-6.623,10.302-11.3,17.8-13.169c2.337-0.583,4.699-0.87,7.047-0.87
			c0.742,0,1.48,0.037,2.218,0.094C365.974,203.968,355.402,213.466,343.115,220.537z M396.829,236.324
			c-3.979,6.623-10.302,11.3-17.799,13.168c-7.206,1.797-14.672,0.782-21.123-2.834c16.078-9.21,29.908-21.616,40.763-36.525
			c0.582,1.38,1.064,2.813,1.434,4.294C401.972,221.925,400.809,229.702,396.829,236.324z"/>
	</g>
</g>
<g>
</g>
<g>
</g>
<g>
</g>
<g>
</g>
<g>
</g>
<g>
</g>
<g>
</g>
<g>
</g>
<g>
</g>
<g>
</g>
<g>
</g>
<g>
</g>
<g>
</g>
<g>
</g>
<g>
</g>
</svg>
