<?xml version="1.0" encoding="iso-8859-1"?>
<!-- Generator: Adobe Illustrator 19.0.0, SVG Export Plug-In . SVG Version: 6.00 Build 0)  -->
<svg version="1.1" id="Capa_1" xmlns="http://www.w3.org/2000/svg" xmlns:xlink="http://www.w3.org/1999/xlink" x="0px" y="0px"
	 viewBox="0 0 511.999 511.999" style="enable-background:new 0 0 511.999 511.999;" xml:space="preserve">
<g>
	<g>
		<path d="M469.186,298.394h-6.848l-94.515-94.515v-48.04c0-8.284-6.716-15-15-15h-45.908c-8.284,0-15,6.716-15,15v142.556h-6.68
			L40.513,74.099c-6.105-5.597-15.595-5.184-21.192,0.923c-0.259,0.282-0.491,0.579-0.724,0.875c-0.24,0.232-0.483,0.458-0.71,0.709
			C6.896,88.741,1.29,104.429,2.1,120.78c0.81,16.351,7.938,31.408,20.073,42.397c11.365,10.292,25.847,15.863,41.071,15.863
			c1.03,0,2.065-0.025,3.103-0.077c11.728-0.581,22.779-4.428,32.152-11.025l41.504,38.04l-92.417,92.417h-4.771
			C19.206,298.394,0,317.6,0,341.209c0,23.609,19.206,42.815,42.814,42.815h21.629c-0.799,3.434-1.235,7.005-1.235,10.678
			c0,25.992,21.146,47.139,47.139,47.139c25.993,0,47.14-21.146,47.14-47.139c0-3.673-0.436-7.244-1.235-10.678h199.495
			c-0.799,3.434-1.235,7.005-1.235,10.678c0,25.992,21.146,47.139,47.14,47.139c25.992,0,47.139-21.146,47.139-47.139
			c0-3.673-0.436-7.244-1.235-10.678h21.629c23.608,0,42.814-19.207,42.814-42.815C511.999,317.601,492.794,298.394,469.186,298.394
			z M64.863,149c-8.33,0.403-16.356-2.448-22.552-8.06c-6.194-5.61-9.834-13.297-10.248-21.645
			c-0.187-3.769,0.301-7.468,1.402-10.963l41.83,38.339C72.022,148.024,68.505,148.819,64.863,149z M367.823,246.305l52.089,52.089
			h-52.089V246.305z M321.915,170.839h15.908v127.556h-15.908V170.839z M162.139,226.267l78.697,72.127H90.012L162.139,226.267z
			 M110.347,411.841c-9.45,0-17.139-7.688-17.139-17.139c0-9.451,7.688-17.139,17.139-17.139c9.452,0,17.14,7.689,17.14,17.139
			S119.799,411.841,110.347,411.841z M401.652,411.841c-9.451,0-17.14-7.688-17.14-17.139c0-9.451,7.688-17.139,17.14-17.139
			c9.451,0,17.139,7.689,17.139,17.139S411.103,411.841,401.652,411.841z M469.186,354.024h-43.757
			c-6.986-4.099-15.108-6.461-23.776-6.461c-8.668,0-16.791,2.362-23.777,6.461H134.125c-6.986-4.099-15.108-6.461-23.777-6.461
			c-8.668,0-16.791,2.362-23.776,6.461H42.814c-7.066,0-12.814-5.749-12.814-12.815c0-7.065,5.748-12.814,12.814-12.814h10.963
			c0.007,0,0.014,0.001,0.021,0.001c0.007,0,0.014-0.001,0.021-0.001h402.287c0.007,0,0.014,0.001,0.021,0.001
			c0.007,0,0.014-0.001,0.021-0.001h13.039c7.066,0,12.814,5.749,12.814,12.814C482,348.275,476.252,354.024,469.186,354.024z"/>
	</g>
</g>
<g>
</g>
<g>
</g>
<g>
</g>
<g>
</g>
<g>
</g>
<g>
</g>
<g>
</g>
<g>
</g>
<g>
</g>
<g>
</g>
<g>
</g>
<g>
</g>
<g>
</g>
<g>
</g>
<g>
</g>
</svg>
