<?xml version="1.0" encoding="iso-8859-1"?>
<!-- Generator: Adobe Illustrator 19.0.0, SVG Export Plug-In . SVG Version: 6.00 Build 0)  -->
<svg version="1.1" id="Capa_1" xmlns="http://www.w3.org/2000/svg" xmlns:xlink="http://www.w3.org/1999/xlink" x="0px" y="0px"
	 viewBox="0 0 512 512" style="enable-background:new 0 0 512 512;" xml:space="preserve">
<g>
	<g>
		<path d="M469.186,286.556h-90.582L315.548,223.5l125.331-52.333c7.032-2.937,10.745-10.678,8.632-18l-17.405-60.324
			c-2.112-7.322-9.375-11.895-16.895-10.635l-293.479,49.246c-0.565,0.095-1.125,0.222-1.676,0.381
			c-42.614,12.296-67.28,56.968-54.984,99.583c5.956,20.644,19.595,37.731,38.403,48.116c5.466,3.018,11.179,5.358,17.04,7.022
			H42.814C19.207,286.556,0,305.762,0,329.37c0,23.608,19.207,42.814,42.814,42.814h21.63c-0.799,3.434-1.235,7.005-1.235,10.678
			c0,25.992,21.146,47.139,47.139,47.139c25.993,0,47.139-21.146,47.139-47.139c0-3.673-0.436-7.244-1.235-10.678h199.496
			c-0.799,3.434-1.235,7.005-1.235,10.678c0,25.992,21.146,47.139,47.139,47.139c25.993,0,47.139-21.146,47.139-47.139
			c0-3.673-0.436-7.244-1.235-10.678h21.63c23.608,0,42.814-19.206,42.814-42.814C512,305.762,492.793,286.556,469.186,286.556z
			 M335.444,285.822H176.556v0L256,206.378L335.444,285.822z M117.975,253.273c-11.793-6.513-20.345-17.228-24.08-30.171
			c-7.635-26.463,7.461-54.191,33.705-62.214l279.389-46.882l9.991,34.629l-124.366,51.931l-26.007-26.007
			c-5.857-5.858-15.355-5.858-21.213,0l-78.507,78.507l-11.327,4.73C142.849,261.251,129.533,259.654,117.975,253.273z
			 M110.348,400.001c-9.451,0-17.139-7.688-17.139-17.139c0-9.451,7.688-17.139,17.139-17.139s17.139,7.689,17.139,17.139
			S119.799,400.001,110.348,400.001z M401.652,400.001c-9.451,0-17.139-7.688-17.139-17.139c0-9.451,7.688-17.139,17.139-17.139
			c9.451,0,17.139,7.689,17.139,17.139S411.103,400.001,401.652,400.001z M469.186,342.184h-43.758
			c-6.986-4.099-15.108-6.461-23.776-6.461c-8.668,0-16.791,2.362-23.776,6.461H134.124c-6.986-4.099-15.108-6.461-23.776-6.461
			c-8.668,0-16.791,2.362-23.776,6.461H42.814c-7.066,0-12.814-5.749-12.814-12.814s5.749-12.814,12.814-12.814h426.371
			c7.066,0,12.814,5.749,12.814,12.814S476.251,342.184,469.186,342.184z"/>
	</g>
</g>
<g>
</g>
<g>
</g>
<g>
</g>
<g>
</g>
<g>
</g>
<g>
</g>
<g>
</g>
<g>
</g>
<g>
</g>
<g>
</g>
<g>
</g>
<g>
</g>
<g>
</g>
<g>
</g>
<g>
</g>
</svg>
