<?xml version="1.0" encoding="iso-8859-1"?>
<!-- Generator: Adobe Illustrator 19.0.0, SVG Export Plug-In . SVG Version: 6.00 Build 0)  -->
<svg version="1.1" id="Capa_1" xmlns="http://www.w3.org/2000/svg" xmlns:xlink="http://www.w3.org/1999/xlink" x="0px" y="0px"
	 viewBox="0 0 512 512" style="enable-background:new 0 0 512 512;" xml:space="preserve">
<g>
	<g>
		<path d="M417.31,428.255V15c0-8.284-6.716-15-15-15H147.45c-8.284,0-15,6.716-15,15v55.629c0,8.284,6.716,15,15,15h15.544v42.529
			c-22.008,14.719-32.139,59.381-32.139,74.76c0,26.636,21.587,49.139,47.139,49.139s47.139-22.503,47.139-49.139
			c0-15.379-10.131-60.041-32.139-74.76V85.629h43.169l95.517,95.517v245.225H107.253c-23.608,0-42.814,19.206-42.814,42.814
			c0,23.608,19.206,42.815,42.814,42.815h297.494c23.608,0,42.814-19.206,42.814-42.814
			C447.562,449.948,434.806,433.636,417.31,428.255z M361.681,30h25.629v396.371h-25.629V30z M195.134,202.918
			c-0.001,10.017-8.17,19.139-17.139,19.139c-8.97,0-17.139-9.122-17.139-19.139c0-5.618,2.311-17.478,6.727-29.278
			c4.141-11.064,8.138-16.789,10.412-19.2c2.274,2.411,6.271,8.136,10.412,19.2C192.823,185.44,195.134,197.3,195.134,202.918z
			 M162.45,55.629V30h166.759v25.629H162.45z M278.59,85.629h53.091v53.091L278.59,85.629z M404.747,482H107.253
			c-7.066,0-12.814-5.749-12.814-12.814s5.749-12.814,12.814-12.814H402.31h2.437c7.066,0,12.814,5.749,12.814,12.814
			S411.813,482,404.747,482z"/>
	</g>
</g>
<g>
</g>
<g>
</g>
<g>
</g>
<g>
</g>
<g>
</g>
<g>
</g>
<g>
</g>
<g>
</g>
<g>
</g>
<g>
</g>
<g>
</g>
<g>
</g>
<g>
</g>
<g>
</g>
<g>
</g>
</svg>
