<?xml version="1.0" encoding="iso-8859-1"?>
<!-- Generator: Adobe Illustrator 19.0.0, SVG Export Plug-In . SVG Version: 6.00 Build 0)  -->
<svg version="1.1" id="Capa_1" xmlns="http://www.w3.org/2000/svg" xmlns:xlink="http://www.w3.org/1999/xlink" x="0px" y="0px"
	 viewBox="0 0 512 512" style="enable-background:new 0 0 512 512;" xml:space="preserve">
<g>
	<g>
		<path d="M431.578,111.214h-0.045C421.919,91.626,409,73.512,393.039,57.58C355.833,20.44,306.857,0,255.093,0
			c-0.117,0-0.235,0-0.353,0C202.32,0.094,153.051,20.579,116.011,57.681c-15.844,15.871-28.633,33.98-38.094,53.606
			c-23.652,1.304-42.496,20.954-42.496,44.927v142.842c0,16.885,9.353,31.62,23.145,39.317V467.24
			c0,24.681,20.079,44.76,44.76,44.76h303.545c24.681,0,44.76-20.079,44.76-44.76V339.325c14.773-7.387,24.947-22.658,24.947-40.268
			V156.214C476.578,131.401,456.391,111.214,431.578,111.214z M254.794,30c0.099,0,0.198,0,0.297,0
			c43.76,0,85.213,17.328,116.754,48.812c9.911,9.894,18.443,20.773,25.51,32.402H112.158C141.236,62.705,194.288,30.109,254.794,30
			z M421.631,467.24c0,8.139-6.621,14.76-14.759,14.76H103.326c-8.139,0-14.76-6.621-14.76-14.76V344.057h333.065V467.24z
			 M446.578,299.057c0,8.271-6.729,15-15,15H80.422c-8.271,0-15-6.729-15-15V156.214c0-8.271,6.729-15,15-15h351.156
			c8.271,0,15,6.729,15,15V299.057z"/>
	</g>
</g>
<g>
	<g>
		<path d="M146.477,168.113c-8.284,0-15,6.716-15,15v89.045c0,8.284,6.716,15,15,15s15-6.716,15-15v-89.045
			C161.477,174.829,154.761,168.113,146.477,168.113z"/>
	</g>
</g>
<g>
	<g>
		<path d="M200.788,168.113c-8.284,0-15,6.716-15,15v89.045c0,8.284,6.716,15,15,15s15-6.716,15-15v-89.045
			C215.788,174.829,209.072,168.113,200.788,168.113z"/>
	</g>
</g>
<g>
	<g>
		<path d="M255.099,168.113c-8.284,0-15,6.716-15,15v89.045c0,8.284,6.716,15,15,15c8.284,0,15-6.716,15-15v-89.045
			C270.099,174.829,263.383,168.113,255.099,168.113z"/>
	</g>
</g>
<g>
	<g>
		<path d="M309.411,168.113c-8.284,0-15,6.716-15,15v89.045c0,8.284,6.716,15,15,15s15-6.716,15-15v-89.045
			C324.411,174.829,317.695,168.113,309.411,168.113z"/>
	</g>
</g>
<g>
	<g>
		<path d="M363.721,168.113c-8.284,0-15,6.716-15,15v89.045c0,8.284,6.716,15,15,15s15-6.716,15-15v-89.045
			C378.721,174.829,372.005,168.113,363.721,168.113z"/>
	</g>
</g>
<g>
</g>
<g>
</g>
<g>
</g>
<g>
</g>
<g>
</g>
<g>
</g>
<g>
</g>
<g>
</g>
<g>
</g>
<g>
</g>
<g>
</g>
<g>
</g>
<g>
</g>
<g>
</g>
<g>
</g>
</svg>
