<?xml version="1.0" encoding="iso-8859-1"?>
<!-- Generator: Adobe Illustrator 19.0.0, SVG Export Plug-In . SVG Version: 6.00 Build 0)  -->
<svg version="1.1" id="Capa_1" xmlns="http://www.w3.org/2000/svg" xmlns:xlink="http://www.w3.org/1999/xlink" x="0px" y="0px"
	 viewBox="0 0 512 512" style="enable-background:new 0 0 512 512;" xml:space="preserve">
<g>
	<g>
		<path d="M394.969,58.009C357.486,20.593,308.143,0,255.994,0c-0.118,0-0.237,0-0.355,0
			c-52.812,0.095-102.447,20.732-139.763,58.11c-37.32,37.383-57.874,87.063-57.874,139.887V467c0,24.813,20.187,45,45,45h305.996
			c24.813,0,45-20.187,45-45V199.565C453.999,146.279,433.035,96.007,394.969,58.009z M423.999,467c0,8.271-6.729,15-15,15H103.003
			c-8.271,0-15-6.729-15-15V197.998c0-92.468,75.226-167.832,167.69-167.997c0.1,0,0.2,0,0.3,0
			c44.146,0,85.964,17.48,117.782,49.241c32.388,32.33,50.224,75.062,50.224,120.324V467z"/>
	</g>
</g>
<g>
	<g>
		<path d="M340.849,170.961H171.153c-23.608,0-42.814,19.207-42.814,42.815c0,23.608,19.207,42.814,42.814,42.814H340.85
			c23.608,0,42.814-19.207,42.814-42.815C383.664,190.168,364.457,170.961,340.849,170.961z M340.849,226.591H171.153
			c-7.066,0-12.814-5.749-12.814-12.815c0-7.066,5.749-12.814,12.814-12.814H340.85c7.066,0,12.814,5.749,12.814,12.815
			C353.664,220.842,347.915,226.591,340.849,226.591z"/>
	</g>
</g>
<g>
	<g>
		<path d="M146.502,322.003c-8.284,0-15,6.716-15,15v89.764c0,8.284,6.716,15,15,15s15-6.716,15-15v-89.764
			C161.502,328.719,154.786,322.003,146.502,322.003z"/>
	</g>
</g>
<g>
	<g>
		<path d="M201.252,322.003c-8.284,0-15,6.716-15,15v89.764c0,8.284,6.716,15,15,15s15-6.716,15-15v-89.764
			C216.252,328.719,209.536,322.003,201.252,322.003z"/>
	</g>
</g>
<g>
	<g>
		<path d="M256.001,322.003c-8.284,0-15,6.716-15,15v89.764c0,8.284,6.716,15,15,15s15-6.716,15-15v-89.764
			C271.001,328.719,264.285,322.003,256.001,322.003z"/>
	</g>
</g>
<g>
	<g>
		<path d="M310.75,322.003c-8.284,0-15,6.716-15,15v89.764c0,8.284,6.716,15,15,15s15-6.716,15-15v-89.764
			C325.75,328.719,319.034,322.003,310.75,322.003z"/>
	</g>
</g>
<g>
	<g>
		<path d="M365.5,322.003c-8.284,0-15,6.716-15,15v89.764c0,8.284,6.716,15,15,15s15-6.716,15-15v-89.764
			C380.5,328.719,373.784,322.003,365.5,322.003z"/>
	</g>
</g>
<g>
</g>
<g>
</g>
<g>
</g>
<g>
</g>
<g>
</g>
<g>
</g>
<g>
</g>
<g>
</g>
<g>
</g>
<g>
</g>
<g>
</g>
<g>
</g>
<g>
</g>
<g>
</g>
<g>
</g>
</svg>
