<?xml version="1.0" encoding="iso-8859-1"?>
<!-- Generator: Adobe Illustrator 19.0.0, SVG Export Plug-In . SVG Version: 6.00 Build 0)  -->
<svg version="1.1" id="Capa_1" xmlns="http://www.w3.org/2000/svg" xmlns:xlink="http://www.w3.org/1999/xlink" x="0px" y="0px"
	 viewBox="0 0 512 512" style="enable-background:new 0 0 512 512;" xml:space="preserve">
<g>
	<g>
		<path d="M394.969,58.009C357.486,20.593,308.143,0,255.994,0c-0.118,0-0.237,0-0.355,0
			c-52.812,0.095-102.447,20.732-139.763,58.11c-37.32,37.383-57.874,87.063-57.874,139.887V467c0,24.813,20.187,45,45,45h305.996
			c24.813,0,45-20.187,45-45V199.565C453.999,146.279,433.035,96.007,394.969,58.009z M307.989,277.313V482H204.013V277.312
			c0-8.285-6.716-15-15-15c-16.914,0-30.675-13.761-30.675-30.675s13.761-30.675,30.675-30.675c8.671,0,16.685,3.514,22.565,9.896
			c0.215,0.233,0.437,0.459,0.664,0.677c11.399,11.858,27.298,18.644,43.759,18.644c16.455,0,32.348-6.779,43.745-18.63
			c0.231-0.221,0.457-0.45,0.675-0.687c5.881-6.383,13.896-9.899,22.568-9.899c16.914,0,30.675,13.761,30.675,30.675
			s-13.761,30.675-30.675,30.675C314.705,262.313,307.989,269.029,307.989,277.313z M423.999,467c0,8.271-6.729,15-15,15h-71.01
			V290.436c26.227-6.693,45.675-30.518,45.675-58.799c0-33.456-27.219-60.675-60.675-60.675c-16.619,0-32.623,6.895-44.047,18.946
			c-0.179,0.173-0.354,0.352-0.525,0.535c-5.867,6.278-13.828,9.735-22.416,9.735c-8.589,0-16.551-3.459-22.42-9.74
			c-0.169-0.181-0.343-0.357-0.52-0.529c-11.424-12.051-27.429-18.947-44.048-18.947c-33.456,0-60.675,27.219-60.675,60.675
			c0,28.282,19.448,52.105,45.675,58.799V482h-71.01c-8.271,0-15-6.729-15-15V197.998c0-92.468,75.226-167.832,167.69-167.997
			c0.1,0,0.2,0,0.3,0c44.146,0,85.964,17.48,117.782,49.241c32.388,32.33,50.224,75.062,50.224,120.324V467z"/>
	</g>
</g>
<g>
</g>
<g>
</g>
<g>
</g>
<g>
</g>
<g>
</g>
<g>
</g>
<g>
</g>
<g>
</g>
<g>
</g>
<g>
</g>
<g>
</g>
<g>
</g>
<g>
</g>
<g>
</g>
<g>
</g>
</svg>
