<?xml version="1.0" encoding="iso-8859-1"?>
<!-- Generator: Adobe Illustrator 19.0.0, SVG Export Plug-In . SVG Version: 6.00 Build 0)  -->
<svg version="1.1" id="Capa_1" xmlns="http://www.w3.org/2000/svg" xmlns:xlink="http://www.w3.org/1999/xlink" x="0px" y="0px"
	 viewBox="0 0 512 512" style="enable-background:new 0 0 512 512;" xml:space="preserve">
<g>
	<g>
		<path d="M468.373,117.731c-24.057,0-43.628,19.571-43.628,43.628c0,14.63,7.245,27.59,18.328,35.509l-29.542,30.742
			c-13.456,14.002-31.561,21.714-50.98,21.714c-19.42,0-37.524-7.712-50.979-21.714l-29.46-30.657
			c11.151-7.911,18.449-20.912,18.449-35.595c0-24.056-19.571-43.628-43.628-43.628c-24.057,0-43.628,19.571-43.628,43.628
			c0,14.121,6.748,26.689,17.183,34.669l-30.35,31.583c-13.455,14.002-31.561,21.714-50.98,21.714s-37.524-7.711-50.98-21.714
			l-29.423-30.619c11.18-7.908,18.5-20.927,18.5-35.633c0-24.056-19.571-43.628-43.628-43.628C19.571,117.731,0,137.303,0,161.36
			c0,18.374,11.423,34.12,27.537,40.54v177.444c0,8.242,6.682,14.924,14.924,14.924h426.788c8.242,0,14.924-6.682,14.924-14.924
			V202.013C500.439,195.669,512,179.844,512,161.36C512,137.303,492.429,117.731,468.373,117.731z M256.932,147.58
			c7.598,0,13.779,6.181,13.779,13.779s-6.182,13.779-13.779,13.779s-13.779-6.181-13.779-13.779S249.336,147.58,256.932,147.58z
			 M76.655,248.291c19.135,19.916,44.884,30.883,72.502,30.883s53.367-10.967,72.502-30.882l34.195-35.585l34.195,35.585
			c19.134,19.914,44.883,30.881,72.5,30.882c0.002,0-0.001,0,0.001,0c27.616,0,53.368-10.969,72.502-30.882l19.271-20.054v76.643
			H57.386v-76.643L76.655,248.291z M43.627,175.139c-7.598,0-13.778-6.182-13.778-13.779c0-7.598,6.181-13.779,13.778-13.779
			c7.598,0,13.779,6.181,13.779,13.779S51.225,175.139,43.627,175.139z M454.325,364.42H57.386v-29.687h396.939V364.42z
			 M468.373,175.138c-7.598,0-13.779-6.181-13.779-13.779c0-7.599,6.182-13.779,13.779-13.779c7.598,0,13.778,6.181,13.778,13.779
			C482.151,168.957,475.97,175.138,468.373,175.138z"/>
	</g>
</g>
<g>
</g>
<g>
</g>
<g>
</g>
<g>
</g>
<g>
</g>
<g>
</g>
<g>
</g>
<g>
</g>
<g>
</g>
<g>
</g>
<g>
</g>
<g>
</g>
<g>
</g>
<g>
</g>
<g>
</g>
</svg>
