<?xml version="1.0" encoding="iso-8859-1"?>
<!-- Generator: Adobe Illustrator 19.0.0, SVG Export Plug-In . SVG Version: 6.00 Build 0)  -->
<svg version="1.1" id="Capa_1" xmlns="http://www.w3.org/2000/svg" xmlns:xlink="http://www.w3.org/1999/xlink" x="0px" y="0px"
	 viewBox="0 0 511.998 511.998" style="enable-background:new 0 0 511.998 511.998;" xml:space="preserve">
<g>
	<g>
		<path d="M437.018,74.98C388.666,26.628,324.379,0,255.999,0S123.332,26.628,74.98,74.98C26.628,123.332,0,187.619,0,255.999
			s26.628,132.667,74.98,181.019c48.352,48.352,112.639,74.98,181.019,74.98s132.667-26.628,181.019-74.98
			s74.98-112.639,74.98-181.019S485.37,123.332,437.018,74.98z M255.999,481.998C131.383,481.998,30,380.615,30,255.999
			S131.383,30,255.999,30s225.999,101.383,225.999,225.999S380.615,481.998,255.999,481.998z"/>
	</g>
</g>
<g>
	<g>
		<path d="M255.999,54.096c-111.33,0-201.903,90.573-201.903,201.903s90.573,201.903,201.903,201.903
			s201.903-90.573,201.903-201.903S367.329,54.096,255.999,54.096z M255.999,427.902c-94.788,0-171.903-77.115-171.903-171.903
			S161.211,84.096,255.999,84.096s171.903,77.115,171.903,171.903S350.787,427.902,255.999,427.902z"/>
	</g>
</g>
<g>
	<g>
		<path d="M255.999,186.791c-38.162,0-69.208,31.047-69.208,69.208c0,38.161,31.047,69.208,69.208,69.208
			s69.208-31.047,69.208-69.208S294.161,186.791,255.999,186.791z M255.999,295.208c-21.62,0-39.208-17.589-39.208-39.208
			s17.589-39.208,39.208-39.208c21.619,0,39.208,17.589,39.208,39.208S277.619,295.208,255.999,295.208z"/>
	</g>
</g>
<g>
	<g>
		<path d="M354.083,157.916c-5.857-5.858-15.354-5.858-21.213-0.001l-8.932,8.931c-5.858,5.857-5.859,15.355-0.001,21.213
			c2.929,2.929,6.768,4.394,10.607,4.394c3.838,0,7.677-1.464,10.606-4.393l8.932-8.931
			C359.94,173.272,359.941,163.774,354.083,157.916z"/>
	</g>
</g>
<g>
	<g>
		<path d="M188.06,323.939c-5.857-5.856-15.354-5.858-21.213-0.001l-8.932,8.931c-5.858,5.857-5.859,15.355-0.001,21.213
			c2.929,2.929,6.768,4.394,10.607,4.394c3.838,0,7.677-1.464,10.606-4.393l8.932-8.931
			C193.917,339.295,193.918,329.797,188.06,323.939z"/>
	</g>
</g>
<g>
	<g>
		<path d="M354.083,332.871l-8.931-8.932c-5.857-5.857-15.354-5.859-21.213-0.001c-5.858,5.857-5.859,15.355-0.001,21.213
			l8.931,8.932c2.929,2.929,6.768,4.394,10.607,4.394c3.838,0,7.677-1.464,10.606-4.393
			C359.94,348.227,359.941,338.729,354.083,332.871z"/>
	</g>
</g>
<g>
	<g>
		<path d="M188.058,166.847l-8.931-8.932c-5.858-5.858-15.354-5.858-21.213-0.001c-5.858,5.857-5.859,15.355-0.001,21.213
			l8.931,8.932c2.929,2.929,6.768,4.394,10.607,4.394c3.838,0,7.677-1.464,10.606-4.393
			C193.915,182.203,193.916,172.705,188.058,166.847z"/>
	</g>
</g>
<g>
	<g>
		<path d="M256,117.287c-8.284,0-15,6.715-15,14.999l-0.001,12.631c-0.001,8.284,6.713,15,14.998,15.001
			c8.285,0,15-6.715,15.001-14.999l0.001-12.631C270.999,124.004,264.285,117.288,256,117.287z"/>
	</g>
</g>
<g>
	<g>
		<path d="M256,352.08c-8.285,0-15,6.715-15.001,14.999l-0.001,12.631c0,8.284,6.714,15,14.999,15.001c8.284,0,15-6.715,15-14.999
			l0.001-12.631C271,358.797,264.285,352.081,256,352.08z"/>
	</g>
</g>
<g>
	<g>
		<path d="M379.711,241l-12.631-0.001c-8.284,0-15,6.715-15,14.999s6.714,15,14.999,15.001l12.63,0.001c8.284,0,15-6.715,15-14.999
			S387.996,241,379.711,241z"/>
	</g>
</g>
<g>
	<g>
		<path d="M144.918,240.999l-12.631-0.001c-8.284,0-15,6.715-15,14.999s6.714,15,14.999,15.001L144.917,271c8.284,0,15-6.715,15-15
			C159.917,247.716,153.203,241,144.918,240.999z"/>
	</g>
</g>
<g>
</g>
<g>
</g>
<g>
</g>
<g>
</g>
<g>
</g>
<g>
</g>
<g>
</g>
<g>
</g>
<g>
</g>
<g>
</g>
<g>
</g>
<g>
</g>
<g>
</g>
<g>
</g>
<g>
</g>
</svg>
