<?xml version="1.0" encoding="iso-8859-1"?>
<!-- Generator: Adobe Illustrator 19.0.0, SVG Export Plug-In . SVG Version: 6.00 Build 0)  -->
<svg version="1.1" id="Capa_1" xmlns="http://www.w3.org/2000/svg" xmlns:xlink="http://www.w3.org/1999/xlink" x="0px" y="0px"
	 viewBox="0 0 512.001 512.001" style="enable-background:new 0 0 512.001 512.001;" xml:space="preserve">
<g>
	<g>
		<path d="M504.349,242.924l-69.677-39.152c-4.645-2.609-10.324-2.56-14.924,0.131c-4.598,2.69-7.424,7.619-7.424,12.946v24.152
			h-20.676C384.509,117.934,290.139,16.162,166.537,1.24c-11.715-1.414-23.484,2.252-32.29,10.059
			c-8.751,7.759-13.771,18.917-13.771,30.614v0.878c0,13.231,6.387,25.152,16.398,32.692L42.232,231.659L25.74,214.75
			c-5.786-5.932-15.282-6.049-21.211-0.265c-5.931,5.784-6.049,15.281-0.265,21.211l10.738,11.01l9.065,9.295l-9.066,9.295
			l-10.739,11.01c-5.784,5.93-5.666,15.427,0.265,21.211c2.917,2.845,6.696,4.262,10.472,4.262c3.901,0,7.8-1.513,10.739-4.527
			l16.493-16.91l94.642,156.176c-10.011,7.54-16.398,19.461-16.398,32.692v0.878c0,11.697,5.019,22.855,13.771,30.614
			c7.564,6.706,17.314,10.356,27.338,10.356c1.646,0,3.3-0.099,4.952-0.298c123.603-14.92,217.973-116.692,225.112-239.759h20.676
			v24.152c0,5.328,2.826,10.256,7.424,12.946c2.338,1.369,4.956,2.054,7.576,2.054c2.532,0,5.065-0.641,7.348-1.923l69.677-39.152
			c4.727-2.656,7.652-7.656,7.652-13.077C512.001,250.58,509.076,245.58,504.349,242.924z M166.224,84.935
			c77.278,13.765,135.681,78.163,142.384,156.066H71.649L166.224,84.935z M71.649,271.001h236.959
			c-6.703,77.903-65.106,142.301-142.383,156.066L71.649,271.001z M162.941,480.978c-4.384,0.53-7.39-1.479-8.793-2.723
			c-1.371-1.216-3.672-3.893-3.672-8.166v-0.878c0-5.544,4.263-10.245,9.915-10.935c101.972-12.44,178.87-99.4,178.87-202.275
			S262.363,66.166,160.391,53.726c-5.652-0.689-9.915-5.391-9.915-10.935v-0.878c0-4.272,2.301-6.95,3.672-8.166
			c1.246-1.104,3.755-2.81,7.367-2.81c0.458,0,0.933,0.027,1.426,0.087C276.479,44.731,362.099,141.45,362.099,256.001
			S276.479,467.271,162.941,480.978z M442.324,269.519v-27.035l24.056,13.517L442.324,269.519z"/>
	</g>
</g>
<g>
</g>
<g>
</g>
<g>
</g>
<g>
</g>
<g>
</g>
<g>
</g>
<g>
</g>
<g>
</g>
<g>
</g>
<g>
</g>
<g>
</g>
<g>
</g>
<g>
</g>
<g>
</g>
<g>
</g>
</svg>
