<?xml version="1.0" encoding="iso-8859-1"?>
<!-- Generator: Adobe Illustrator 19.0.0, SVG Export Plug-In . SVG Version: 6.00 Build 0)  -->
<svg version="1.1" id="Capa_1" xmlns="http://www.w3.org/2000/svg" xmlns:xlink="http://www.w3.org/1999/xlink" x="0px" y="0px"
	 viewBox="0 0 512.001 512.001" style="enable-background:new 0 0 512.001 512.001;" xml:space="preserve">
<g>
	<g>
		<path d="M332.547,218.132h-16.903c18.425-16.439,30.048-40.348,30.048-66.925c0-20.326-13.001-50.326-39.745-91.714
			c-18.833-29.145-37.372-52.775-38.153-53.766C264.95,2.112,260.603,0,256,0s-8.948,2.112-11.793,5.729
			c-0.779,0.991-19.318,24.621-38.153,53.766c-26.745,41.388-39.745,71.387-39.745,91.714c0,26.577,11.623,50.487,30.048,66.925
			h-16.903c-8.286,0-15.004,6.718-15.004,15.004v54.315c0,8.286,6.718,15.004,15.004,15.004h24.548l8.001,167.599h0.001
			c1.122,23.522,20.448,41.946,43.995,41.946s42.873-18.424,43.996-41.946l8.001-167.599h24.548c8.286,0,15.004-6.718,15.004-15.004
			v-54.315C347.551,224.85,340.833,218.132,332.547,218.132z M196.318,151.207c0-22.733,32.917-74.978,59.685-111.391
			c26.767,36.399,59.681,88.632,59.681,111.391c0,32.909-26.773,59.684-59.683,59.684S196.318,184.116,196.318,151.207z
			 M270.02,468.623c-0.355,7.496-6.515,13.369-14.02,13.369s-13.664-5.873-14.022-13.369l-7.933-166.167h43.908L270.02,468.623z
			 M317.543,272.447H194.459V248.14h123.083V272.447z"/>
	</g>
</g>
<g>
</g>
<g>
</g>
<g>
</g>
<g>
</g>
<g>
</g>
<g>
</g>
<g>
</g>
<g>
</g>
<g>
</g>
<g>
</g>
<g>
</g>
<g>
</g>
<g>
</g>
<g>
</g>
<g>
</g>
</svg>
