<?xml version="1.0" encoding="iso-8859-1"?>
<!-- Generator: Adobe Illustrator 19.0.0, SVG Export Plug-In . SVG Version: 6.00 Build 0)  -->
<svg version="1.1" id="Capa_1" xmlns="http://www.w3.org/2000/svg" xmlns:xlink="http://www.w3.org/1999/xlink" x="0px" y="0px"
	 viewBox="0 0 512 512" style="enable-background:new 0 0 512 512;" xml:space="preserve">
<g>
	<g>
		<path d="M380.79,57.919h-83.501c1.544-4.465,2.394-9.252,2.394-14.235C299.683,19.596,280.087,0,256,0
			c-24.087,0-43.683,19.596-43.683,43.683c0,4.984,0.85,9.77,2.394,14.235H131.21c-23.608,0-42.814,19.207-42.814,42.814
			c0,18.332,11.584,34.004,27.814,40.096v289.164c0,5.158,2.649,9.953,7.016,12.699c4.366,2.744,9.836,3.055,14.484,0.82
			l75.475-36.292v61.966C213.186,492.793,232.392,512,256,512c23.608,0,42.814-19.207,42.814-42.814V407.22l75.475,36.292
			c2.061,0.991,4.283,1.481,6.499,1.481c2.782,0,5.555-0.773,7.985-2.301c4.366-2.746,7.016-7.541,7.016-12.699V140.829
			c16.231-6.092,27.815-21.764,27.815-40.096C423.604,77.125,404.397,57.919,380.79,57.919z M256,30
			c7.545,0,13.683,6.138,13.683,13.683S263.545,57.366,256,57.366c-7.545,0-13.683-6.138-13.683-13.683
			C242.317,36.138,248.455,30,256,30z M268.814,469.186c0,7.065-5.748,12.814-12.814,12.814c-7.066,0-12.814-5.749-12.814-12.814
			v-76.391L256,386.633l12.814,6.162V469.186z M365.79,406.136L262.5,356.47c-2.054-0.988-4.277-1.481-6.5-1.481
			c-2.223,0-4.446,0.494-6.5,1.481l-103.29,49.666V143.547h219.58V406.136z M380.79,113.547H131.21
			c-7.066,0-12.814-5.749-12.814-12.814s5.749-12.814,12.814-12.814h249.58c7.066,0,12.814,5.749,12.814,12.814
			S387.855,113.547,380.79,113.547z"/>
	</g>
</g>
<g>
	<g>
		<path d="M307.361,228.178H271v-36.36c0-8.284-6.716-15-15-15c-8.284,0-15,6.716-15,15v36.36h-36.361c-8.284,0-15,6.716-15,15
			s6.716,15,15,15H241v36.361c0,8.284,6.716,15,15,15c8.284,0,15-6.716,15-15v-36.361h36.361c8.284,0,15-6.716,15-15
			S315.645,228.178,307.361,228.178z"/>
	</g>
</g>
<g>
</g>
<g>
</g>
<g>
</g>
<g>
</g>
<g>
</g>
<g>
</g>
<g>
</g>
<g>
</g>
<g>
</g>
<g>
</g>
<g>
</g>
<g>
</g>
<g>
</g>
<g>
</g>
<g>
</g>
</svg>
