<?xml version="1.0" encoding="iso-8859-1"?>
<!-- Generator: Adobe Illustrator 19.0.0, SVG Export Plug-In . SVG Version: 6.00 Build 0)  -->
<svg version="1.1" id="Capa_1" xmlns="http://www.w3.org/2000/svg" xmlns:xlink="http://www.w3.org/1999/xlink" x="0px" y="0px"
	 viewBox="0 0 512 512" style="enable-background:new 0 0 512 512;" xml:space="preserve">
<g>
	<g>
		<path d="M332.525,336.931h-21.399V61.08c0-3.621-1.31-7.12-3.688-9.851l-40.125-46.08C264.464,1.878,260.339,0,256.001,0
			c-4.338,0-8.463,1.878-11.313,5.149l-40.125,46.08c-2.377,2.731-3.687,6.229-3.687,9.851v275.851h-21.399c-8.284,0-15,6.716-15,15
			v54.3c0,8.284,6.716,15,15,15h33.71v47.955c0,23.608,19.207,42.814,42.814,42.814s42.814-19.207,42.814-42.814V421.23h33.708
			c8.284,0,15-6.716,15-15v-54.3C347.525,343.646,340.809,336.931,332.525,336.931z M230.876,66.695l25.125-28.853l25.125,28.854
			v270.235h-50.25V66.695z M268.817,469.185c-0.001,7.066-5.749,12.815-12.815,12.815c-7.066,0-12.814-5.749-12.814-12.814V421.23
			h25.629V469.185z M317.525,391.23H194.477v-24.3h123.048V391.23z"/>
	</g>
</g>
<g>
</g>
<g>
</g>
<g>
</g>
<g>
</g>
<g>
</g>
<g>
</g>
<g>
</g>
<g>
</g>
<g>
</g>
<g>
</g>
<g>
</g>
<g>
</g>
<g>
</g>
<g>
</g>
<g>
</g>
</svg>
