<svg id="_x31__x2C_5" enable-background="new 0 0 24 24" height="512" viewBox="0 0 24 24" width="512" xmlns="http://www.w3.org/2000/svg"><path d="m12 24c-3.86 0-7-3.14-7-7s3.14-7 7-7 7 3.14 7 7-3.14 7-7 7zm0-12.5c-3.033 0-5.5 2.467-5.5 5.5s2.467 5.5 5.5 5.5 5.5-2.467 5.5-5.5-2.467-5.5-5.5-5.5z"/><path d="m8.75 17.75c-.414 0-.75-.336-.75-.75 0-2.206 1.794-4 4-4 .414 0 .75.336.75.75s-.336.75-.75.75c-1.378 0-2.5 1.122-2.5 2.5 0 .414-.336.75-.75.75z"/><path d="m12.425 8c-.075 0-.151-.011-.227-.035-.395-.125-.613-.547-.488-.942.883-2.782 2.8-4.023 6.215-4.023.414 0 .75.336.75.75s-.336.75-.75.75c-2.764 0-4.105.834-4.785 2.977-.102.319-.397.523-.715.523z"/><path d="m14.25 11.75c-.414 0-.75-.336-.75-.75v-2.25c0-.136-.114-.25-.25-.25h-2.5c-.136 0-.25.114-.25.25v2.25c0 .414-.336.75-.75.75s-.75-.336-.75-.75v-2.25c0-.965.785-1.75 1.75-1.75h2.5c.965 0 1.75.785 1.75 1.75v2.25c0 .414-.336.75-.75.75z"/><path d="m18.75 8c-.414 0-.75-.336-.75-.75v-1c0-.414.336-.75.75-.75s.75.336.75.75v1c0 .414-.336.75-.75.75z"/><path d="m22.25 4.5h-1.5c-.414 0-.75-.336-.75-.75s.336-.75.75-.75h1.5c.414 0 .75.336.75.75s-.336.75-.75.75z"/><path d="m18.75 2c-.414 0-.75-.336-.75-.75v-.5c0-.414.336-.75.75-.75s.75.336.75.75v.5c0 .414-.336.75-.75.75z"/></svg>