<svg id="Capa_1" enable-background="new 0 0 512 512" height="512" viewBox="0 0 512 512" width="512" xmlns="http://www.w3.org/2000/svg"><g><path d="m183.417 148.133c2.359-12.055 3.925-25.721 3.925-40.813l.001-4.959c.005-14.45-5.618-28.036-15.833-38.255-10.216-10.219-23.8-15.848-38.25-15.848h-.15c-29.904 0-54.233 24.329-54.233 54.233 0 28.912-23.521 52.434-52.433 52.434h-26.444v223.819c0 46.869 38.131 85 85 85h427v-315.61h-328.583zm-56.171 285.61v-127.968c20.855-16.926 35.801-43.692 35.801-75.196l141.576 131.205 177.377-164.384v236.342h-354.754zm40.984-239.263c2.128-4.397 4.524-9.875 6.882-16.347h283.542l-154.031 142.749zm-138.23-9.632c43.813-1.867 78.876-38.094 78.876-82.358 0-13.362 10.871-24.233 24.233-24.233h.15c6.435 0 12.483 2.506 17.032 7.057s7.053 10.601 7.051 17.032l-.001 4.974c0 50.854-20.847 82.824-21.02 83.087l-2.479 3.661-.86 39.252c-1.554 35.942-30.92 64.077-66.915 64.078v30c10.908 0 21.393-1.791 31.179-5.09v111.436h-12.246c-30.327 0-55-24.673-55-55z"/></g></svg>