<svg id="Capa_1" enable-background="new 0 0 512 512" height="512" viewBox="0 0 512 512" width="512" xmlns="http://www.w3.org/2000/svg"><g><path d="m512 123.707c0-44.27-37.752-80.285-84.157-80.285h-58.556c-43.363 0-78.9 32.582-81.152 73.44h-.117v39.569c0 17.924 6.421 34.433 17.16 47.582-7.092.112-13.909 1.364-20.28 3.584-6.68-2.332-13.887-3.607-21.399-3.607-13.633 0-26.252 4.203-36.547 11.31-10.048-6.759-22.073-10.781-35.014-11.009 10.709-13.126 17.112-29.602 17.112-47.489v-65.79c0-26.241-22.215-47.59-49.522-47.59h-133.421v55.973c0 15.824 8.146 29.902 20.622 38.568v18.839c0 17.886 6.402 34.361 17.111 47.487-35.306.623-63.84 29.517-63.84 64.97v130.444h167.334v68.875h192.332v-68.875h137.696v-130.714c0-12.881-3.782-24.888-10.271-35h24.909zm-30 0v80.282h-48.585c10.727-13.145 17.141-29.645 17.141-47.559l-.117-39.569c-.892-16.189-7.022-31.068-16.783-43.146 27.139 2.703 48.344 24.088 48.344 49.992zm-112.734 80.282c-28.26-.01-51.248-21.341-51.248-47.559v-9.569h22.111c11.164 0 21.374-4.011 29.157-10.614 7.783 6.603 17.994 10.614 29.157 10.614h22.112v9.569c0 26.218-22.988 47.548-51.248 47.559zm.021-130.567c26.773 0 48.805 19.139 51.064 43.44h-21.907c-7.806 0-14.157-5.619-14.157-12.525h-30c0 6.906-6.351 12.525-14.157 12.525h-21.907c2.26-24.301 24.292-43.44 51.064-43.44zm-105.787 246.012c-14.75 0-27.24-9.032-31.273-21.388l63.919-19.778v11.187c0 16.531-14.645 29.979-32.646 29.979zm0-85.445c11.773 0 22.109 5.754 27.853 14.359l-60.499 18.72v-3.1c0-16.53 14.645-29.979 32.646-29.979zm-186.771-77.188v-9.813l82.565.284h.244c6.836 0 13.438-1.314 19.513-3.816v13.345c0 26.168-22.951 47.458-51.161 47.458s-51.161-21.29-51.161-47.458zm-20.622-83.379h103.423c10.765 0 19.522 7.891 19.522 17.59v8.671c0 4.361-1.794 8.548-5.051 11.791-3.706 3.688-8.975 5.799-14.488 5.799-.032 0-.065 0-.098 0l-83.938-.289c-10.681-.075-19.37-7.965-19.37-17.589zm112.976 296.281h-139.083v-100.444c0-19.299 15.701-35 35-35h125.782c5.823 0 11.314 1.435 16.15 3.961-3.892 7.807-6.077 16.537-6.077 25.748v25.488c0 12.431 3.972 23.99 10.762 33.577-21.093 7.114-37.366 24.765-42.534 46.67zm160.583 68.875h-132.332v-53.951c0-19.299 15.701-35 35-35h62.332c19.299 0 35 15.701 35 35zm137.696-169.589v100.714h-109.445c-5.169-21.906-21.441-39.557-42.534-46.671 6.79-9.587 10.762-21.146 10.762-33.577v-25.488c0-10.916-3.077-21.152-8.422-29.979h114.637c19.301.001 35.002 15.702 35.002 35.001z"/></g></svg>