<svg id="icons" enable-background="new 0 0 64 64" height="512" viewBox="0 0 64 64" width="512" xmlns="http://www.w3.org/2000/svg"><g><g><path d="m3.986 63.984c-.553 0-1-.447-1-1v-34c0-.553.447-1 1-1s1 .447 1 1v34c0 .553-.447 1-1 1z"/></g><g><path d="m59.99 63.984h-56.004c-.553 0-1-.447-1-1s.447-1 1-1h56.004c.553 0 1 .447 1 1s-.447 1-1 1z"/></g><g><path d="m59.99 63.984c-.553 0-1-.447-1-1v-34c0-.553.447-1 1-1s1 .447 1 1v34c0 .553-.447 1-1 1z"/></g><g><path d="m31.987 49.984c-.201 0-.404-.061-.58-.187l-28.002-20c-.449-.32-.554-.945-.232-1.395s.946-.554 1.395-.232l28.002 20c.449.32.554.945.232 1.395-.196.274-.502.419-.815.419z"/></g><g><path d="m31.989 49.984c-.313 0-.619-.146-.814-.419-.321-.449-.217-1.074.232-1.395l28.002-20c.449-.321 1.073-.217 1.395.232s.217 1.074-.232 1.395l-28.002 20c-.176.127-.38.187-.581.187z"/></g><g><path d="m59.987 29.986c-.201 0-.404-.061-.58-.187l-5.991-4.277c-.449-.32-.554-.945-.232-1.395.32-.449.946-.554 1.395-.232l5.991 4.277c.449.32.554.945.232 1.395-.195.274-.502.419-.815.419z"/></g><g><path d="m3.999 29.986c-.313 0-.619-.146-.814-.419-.321-.449-.217-1.074.232-1.395l6-4.285c.449-.321 1.073-.217 1.395.232s.217 1.074-.232 1.395l-6 4.285c-.177.127-.38.187-.581.187z"/></g><g><path d="m60.013 64.002c-.198 0-.399-.059-.574-.182l-24.016-16.881c-.452-.317-.561-.941-.243-1.394.318-.45.94-.562 1.394-.243l24.016 16.881c.452.317.561.941.243 1.394-.196.277-.506.425-.82.425z"/></g><g><path d="m3.987 63.984c-.315 0-.625-.148-.819-.426-.317-.452-.208-1.075.244-1.393l24.012-16.85c.453-.318 1.076-.208 1.393.244s.208 1.075-.244 1.393l-24.012 16.851c-.175.123-.375.181-.574.181z"/></g><g><path d="m9.999 34.279c-.553 0-1-.447-1-1v-32.265c0-.553.447-1 1-1s1 .447 1 1v32.266c0 .552-.447.999-1 .999z"/></g><g><path d="m47.99 1.998h-37.991c-.553 0-1-.447-1-1s.447-1 1-1h37.991c.553 0 1 .447 1 1s-.447 1-1 1z"/></g><g><path d="m53.996 34.266c-.553 0-1-.447-1-1v-26.246c0-.553.447-1 1-1s1 .447 1 1v26.246c0 .552-.447 1-1 1z"/></g><g><path d="m54.004 8.012c-.256 0-.512-.098-.707-.293l-6.014-6.014c-.391-.391-.391-1.023 0-1.414s1.023-.391 1.414 0l6.014 6.014c.391.391.391 1.023 0 1.414-.195.195-.451.293-.707.293z"/></g><g><path d="m54.004 8.012h-6.014c-.553 0-1-.447-1-1s.447-1 1-1h6.014c.553 0 1 .447 1 1s-.447 1-1 1z"/></g><g><path d="m47.99 8.012c-.553 0-1-.447-1-1v-6.014c0-.553.447-1 1-1s1 .447 1 1v6.014c0 .552-.447 1-1 1z"/></g><g><g><path d="m37.995 16.992c-.553 0-1-.447-1-1 0-2.757-2.243-5-5-5s-5 2.243-5 5c0 .553-.447 1-1 1s-1-.447-1-1c0-3.859 3.141-7 7-7s7 3.141 7 7c0 .553-.447 1-1 1z"/></g><g><path d="m25.996 23.992c-.553 0-1-.447-1-1v-7c0-.553.447-1 1-1s1 .447 1 1v7c0 .553-.447 1-1 1z"/></g><g><path d="m37.994 23.992c-.553 0-1-.447-1-1v-7c0-.553.447-1 1-1s1 .447 1 1v7c0 .553-.447 1-1 1z"/></g><g><path d="m38.995 26.992h-14c-.553 0-1-.447-1-1v-3c0-.553.447-1 1-1h14c.553 0 1 .447 1 1v3c0 .553-.447 1-1 1zm-13-2h12v-1h-12z"/></g><g><path d="m33.995 16.992h-4c-.553 0-1-.447-1-1s.447-1 1-1h4c.553 0 1 .447 1 1s-.447 1-1 1z"/></g><g><path d="m33.995 19.992h-4c-.553 0-1-.447-1-1s.447-1 1-1h4c.553 0 1 .447 1 1s-.447 1-1 1z"/></g></g><g><path d="m45 31.998h-26c-.553 0-1-.447-1-1s.447-1 1-1h26c.553 0 1 .447 1 1s-.447 1-1 1z"/></g><g><path d="m45 34.998h-26c-.553 0-1-.447-1-1s.447-1 1-1h26c.553 0 1 .447 1 1s-.447 1-1 1z"/></g><g><path d="m37 37.998h-10c-.553 0-1-.447-1-1s.447-1 1-1h10c.553 0 1 .447 1 1s-.447 1-1 1z"/></g></g></svg>