<svg id="Layer_1" enable-background="new 0 0 512.002 512.002" height="512" viewBox="0 0 512.002 512.002" width="512" xmlns="http://www.w3.org/2000/svg"><g><g><path d="m431.004 338.125v-84.374c0-24.172-12.716-43.773-34.017-52.434-11.119-4.521-22.646-5.071-31.815-1.96-4.489-6.518-10.675-11.902-18.251-15.656-8.786-4.355-18.333-5.746-26.995-4.302l-3.968-139.684c-.633-22.27-17.657-39.715-38.757-39.715-21.019 0-38.406 17.872-38.759 39.838l-2.3 142.92c-5.331-2.375-11.042-3.755-16.462-3.755-21.373 0-38.761 17.944-38.761 40v64.485c-4.03-4.003-7.021-8.23-10.1-12.583-7.646-10.807-16.311-23.057-40.015-28.169-20.075-4.329-37.368 5.621-44.936 16.699-5.986 8.762-6.483 18.645-1.328 26.437 1.521 2.299 3.3 4.587 5.185 7.009 6.171 7.935 14.624 18.801 22.902 41.524 11.53 31.649 31.442 45.932 47.442 57.408 15.422 11.061 27.094 19.436 29.824 40.222-5.213.342-9.338 4.667-9.338 9.967v60c0 5.523 4.477 10 10 10h221.227c5.522 0 10-4.477 10-10v-60c0-5.321-4.159-9.658-9.401-9.97 1.33-12.744 4.915-25.721 8.675-39.301 4.89-17.666 9.948-35.935 9.948-54.606zm-29.223 153.877h-201.226v-40h55.617c5.522 0 10-4.477 10-10s-4.478-10-10-10h-46.158c-3.124-31.204-20.971-44.02-38.288-56.441-15.188-10.893-30.893-22.158-40.307-48.001-9.354-25.676-19.315-38.483-25.907-46.958-1.713-2.203-3.193-4.105-4.291-5.764-.791-1.195.959-3.824 1.161-4.12 3.94-5.769 13.763-10.683 24.206-8.431 16.091 3.47 20.79 10.113 27.903 20.169 5.673 8.02 12.588 17.793 26.428 26.169v4.126c0 5.523 4.477 10 10 10s10-4.477 10-10v-93.748c0-11.028 8.417-20 18.761-20 5.34 0 12.091 3.158 16.084 7.262l-.321 19.976c-.089 5.522 4.315 10.071 9.837 10.16.055.001.109.001.165.001 5.447 0 9.907-4.372 9.995-9.839l3-186.404c.178-11.115 8.594-20.159 18.761-20.159 10.199 0 18.441 8.91 18.765 20.284l5.234 184.252c.157 5.52 4.757 9.887 10.28 9.712 5.521-.157 9.868-4.759 9.712-10.28l-.687-24.194c5.031-1.715 11.563-1.113 17.535 1.847 9.669 4.792 15.442 14.187 15.442 25.13 0 5.523 4.478 10 10 10s10-4.477 10-10c0-3.005-.256-5.944-.755-8.792 4.213-1.029 10.399-.687 16.728 1.886 6.479 2.634 21.549 11.211 21.549 33.906v84.374c0 15.954-4.48 32.137-9.224 49.27-4.014 14.499-8.132 29.406-9.482 44.607h-46.126c-5.522 0-10 4.477-10 10s4.478 10 10 10h55.609z"/><path d="m301.176 432.002h-.008c-5.522 0-9.996 4.477-9.996 10s4.481 10 10.004 10 10-4.477 10-10-4.478-10-10-10z"/></g></g></svg>