<?xml version="1.0"?>
<svg xmlns="http://www.w3.org/2000/svg" viewBox="0 0 64 64" width="512" height="512"><g id="Outline"><g><path d="M24,23h-.726A7.976,7.976,0,0,0,26,17V10a8,8,0,0,0-16,0,1,1,0,0,0,1,1H24v6a6,6,0,0,1-12,0V14a1,1,0,0,0-2,0v3a7.976,7.976,0,0,0,2.726,6H12a5.006,5.006,0,0,0-5,5v2a1,1,0,0,0,1,1h3v9a1,1,0,0,1-2,0V34a1,1,0,0,0-2,0v6a3,3,0,0,0,3,3,2.966,2.966,0,0,0,1-.184V48a1,1,0,0,0,1,1v7.1A5.009,5.009,0,0,0,8,61a1,1,0,0,0,1,1H27a1,1,0,0,0,1-1,5.009,5.009,0,0,0-4-4.9V49a1,1,0,0,0,1-1V45a1,1,0,0,0-2,0v2H19V44a1,1,0,0,0-2,0v3H13V39H23v1a3,3,0,0,0,6,0V28A5.006,5.006,0,0,0,24,23ZM12.083,9A6,6,0,0,1,23.917,9ZM20,24.737V25a2,2,0,0,1-4,0v-.263a7.736,7.736,0,0,0,4,0ZM17,56H14V49h3Zm-4,2h4v2H10.171A3.006,3.006,0,0,1,13,58Zm12.829,2H19V58h4A3.006,3.006,0,0,1,25.829,60ZM22,56H19V49h3ZM13,37V30a1,1,0,0,0-1-1H9V28a3,3,0,0,1,3-3h2a4,4,0,0,0,8,0h2a3,3,0,0,1,3,3v1H24a1,1,0,0,0-1,1v7Zm14,3a1,1,0,0,1-2,0V31h2Z"/><circle cx="21" cy="14" r="1"/><circle cx="15" cy="14" r="1"/><path d="M16.586,18.414a1,1,0,0,0-1.414,1.414,4,4,0,0,0,5.656,0,1,1,0,0,0-1.414-1.414A2.047,2.047,0,0,1,16.586,18.414Z"/><path d="M51,23h-.726a8.079,8.079,0,0,0,1.3-1.455A8.017,8.017,0,0,0,57,14,11.989,11.989,0,0,0,38.508,3.917,1,1,0,0,0,39.592,5.6,9.989,9.989,0,0,1,55,14a6,6,0,0,1-2.157,4.575A8.02,8.02,0,0,0,53,17a1,1,0,0,0-2,0,6,6,0,0,1-12,0V12.987a8.173,8.173,0,0,0,5.979-3.1,10.066,10.066,0,0,0,6.21,3.969l.615.123a1,1,0,1,0,.392-1.96l-.614-.124A8.088,8.088,0,0,1,45.9,7.553a1.042,1.042,0,0,0-1.79,0A6.2,6.2,0,0,1,38.528,11H38a1,1,0,0,0-1,1v5a8.02,8.02,0,0,0,.157,1.575A6,6,0,0,1,35,14a9.917,9.917,0,0,1,1.944-5.9A1,1,0,0,0,35.333,6.91,11.9,11.9,0,0,0,33,14a8.017,8.017,0,0,0,5.424,7.545A8.079,8.079,0,0,0,39.726,23H39a5.006,5.006,0,0,0-5,5v2a1,1,0,0,0,1,1h3v7.033c0,.8-.046,1.607-.113,2.406A.993.993,0,0,1,36,40V34a1,1,0,0,0-2,0v6a2.985,2.985,0,0,0,3.566,2.943,29.027,29.027,0,0,1-3.387,9.478l-.05.087A1,1,0,0,0,35,54h4v2.1A5.009,5.009,0,0,0,35,61a1,1,0,0,0,1,1H54a1,1,0,0,0,1-1,5.009,5.009,0,0,0-4-4.9V54h4a1,1,0,0,0,.882-1.471l-.47-.882a29.17,29.17,0,0,1-1.364-2.965,1,1,0,0,0-1.86.737c.358.9.745,1.767,1.155,2.581H51.414l-.586-.586A6.2,6.2,0,0,1,49,47a1,1,0,0,0-2,0,8.175,8.175,0,0,0,1.7,5H42a10.063,10.063,0,0,0,2-6,1,1,0,0,0-2,0,8.051,8.051,0,0,1-1.6,4.8L39.5,52H36.675a31.066,31.066,0,0,0,3.193-11.168A2.973,2.973,0,0,0,40,40V39H50v1a2.96,2.96,0,0,0,.136.846,31,31,0,0,0,.782,4.638A1,1,0,0,0,52.859,45c-.169-.68-.306-1.368-.425-2.058A2.985,2.985,0,0,0,56,40V28A5.006,5.006,0,0,0,51,23ZM40,58h4v2H37.171A3.006,3.006,0,0,1,40,58Zm12.829,2H46V58h4A3.006,3.006,0,0,1,52.829,60ZM49,56H46V54h3Zm-5-2v2H41V54Zm3-29.263V25a2,2,0,0,1-4,0v-.263a7.736,7.736,0,0,0,4,0ZM40,37V30a1,1,0,0,0-1-1H36V28a3,3,0,0,1,3-3h2a4,4,0,0,0,8,0h2a3,3,0,0,1,3,3v1H51a1,1,0,0,0-1,1v7Zm14,3a.993.993,0,0,1-1.884.445C52.047,39.631,52,38.816,52,38V31h2Z"/><circle cx="48" cy="14" r="1"/><circle cx="42" cy="14" r="1"/><path d="M45,21a3.971,3.971,0,0,0,2.828-1.172,1,1,0,0,0-1.414-1.414,2.047,2.047,0,0,1-2.828,0,1,1,0,0,0-1.414,1.414A3.971,3.971,0,0,0,45,21Z"/></g></g></svg>
