<svg id="Capa_1" enable-background="new 0 0 512 512" height="512" viewBox="0 0 512 512" width="512" xmlns="http://www.w3.org/2000/svg"><g><path d="m332.465 253.62c-5.332-6.421-10.666-12.388-15.74-17.793 8.971-8.262 14.605-20.11 14.605-33.274 0-11.571-4.382-22.136-11.568-30.131 7.186-8.006 11.568-18.591 11.568-30.2 0-19.639-12.616-36.379-30.165-42.565v-84.657c0-8.284-6.716-15-15-15h-60.33c-8.284 0-15 6.716-15 15v84.657c-17.549 6.189-30.165 22.943-30.165 42.646 0 11.571 4.382 22.136 11.568 30.131-7.186 8.006-11.568 18.591-11.568 30.199 0 13.12 5.632 24.946 14.601 33.199-5.072 5.404-10.405 11.37-15.736 17.789-34.639 41.716-52.203 81.525-52.203 118.322 0 41.384 12.758 76.676 36.894 102.06 23.299 24.503 55.892 37.997 91.774 37.997s68.475-13.494 91.774-37.997c24.136-25.384 36.894-60.676 36.894-102.06-.001-36.797-17.564-76.606-52.203-118.323zm-76.465 228.38c-27.583 0-52.454-10.182-70.033-28.669-18.733-19.702-28.635-47.845-28.635-81.388 0-29.61 15.235-62.972 45.283-99.157 7.987-9.619 15.943-18.113 22.842-25.037.113.001.224.009.337.009h41.965l-22.425 22.681c-.003.003-.006.007-.009.01-.002.002-.004.004-.007.006-7.261 7.365-14.054 14.87-20.189 22.308-17.206 20.858-37.716 51.527-37.716 79.182 0 24.125 5.871 43.477 17.451 57.518 12.118 14.692 29.8 22.459 51.137 22.459s39.019-7.767 51.137-22.459c11.58-14.041 17.451-33.393 17.451-57.518 0-27.654-20.51-58.323-37.717-79.183-3.167-3.839-6.513-7.697-10.005-11.544l21.181-21.422c3.698 4.042 7.514 8.385 11.338 12.99 30.047 36.187 45.283 69.548 45.283 99.158 0 33.543-9.902 61.686-28.634 81.388-17.581 18.486-42.452 28.668-70.035 28.668zm-30.206-354.903h60.411c8.34 0 15.125 6.785 15.125 15.206 0 8.34-6.785 15.125-15.125 15.125h-60.411c-8.34 0-15.125-6.785-15.125-15.206.001-8.34 6.786-15.125 15.125-15.125zm37.935 184.755c19.323 23.425 30.859 45.889 30.859 60.092 0 33.162-12.983 49.977-38.587 49.977s-38.587-16.814-38.587-49.977c0-14.203 11.536-36.667 30.858-60.091 2.46-2.982 5.042-5.982 7.729-8.981 2.686 2.998 5.268 5.997 7.728 8.98zm-37.935-94.094c-8.34 0-15.125-6.785-15.125-15.205 0-8.34 6.785-15.125 15.125-15.125h60.411c8.34 0 15.125 6.785 15.125 15.205 0 8.34-6.785 15.125-15.125 15.125zm45.371-187.758v67.097h-30.33v-67.097z"/></g></svg>