<?xml version="1.0" encoding="UTF-8" standalone="no"?>
<!-- Created with Inkscape (http://www.inkscape.org/) -->
<svg
   xmlns:svg="http://www.w3.org/2000/svg"
   xmlns="http://www.w3.org/2000/svg"
   version="1.0"
   width="221.97275"
   height="137.68883"
   id="svg6503">
  <defs
     id="defs6505" />
  <g
     transform="translate(-183.2317,-207.2174)"
     id="layer1">
    <path
       d="M 349.03125,207.71875 C 348.24023,207.68946 347.53125,208.15626 347.53125,208.15625 C 347.53125,208.15625 345.45833,210.44792 343.375,209.40625 C 341.29166,208.36458 341.48959,208.58333 341.28125,209.625 C 341.07292,210.66667 341.5,212.11459 342.125,213.78125 C 342.75,215.44791 343.17707,216.69792 343.59375,218.15625 C 344.01042,219.61458 343.57292,221.29167 342.53125,222.125 C 341.48959,222.95833 338.15625,224.625 336.90625,225.25 C 335.65625,225.875 335.03125,224.625 333.78125,224.625 C 332.53125,224.625 332.125,223.78126 330.875,222.53125 C 329.625,221.28125 329.19792,223.16667 328.15625,224 C 327.11459,224.83333 327.76041,227.13541 326.71875,228.59375 C 325.67708,230.05209 325.03125,231.91667 323.15625,232.125 C 321.28125,232.33333 321.07292,230.86459 319.40625,230.03125 C 317.73959,229.19791 316.90625,226.90626 315.65625,226.28125 C 314.40625,225.65625 310.65625,224.40626 307.53125,224.40625 C 304.40625,224.40625 306.91666,224.82292 306.5,226.28125 C 306.08333,227.73958 306.51041,228.375 307.96875,230.875 C 309.42708,233.375 308.57292,233.58333 310.65625,235.875 C 312.73959,238.16667 311.29166,238.38541 312.125,241.71875 C 312.95833,245.05209 311.70833,245.23959 310.875,243.78125 C 310.04166,242.32291 309.82292,241.71874 309.40625,239.21875 C 308.98959,236.71875 308.36459,237.53126 307.53125,235.03125 C 306.69792,232.53125 305.86459,233.17708 303.78125,233.59375 C 301.69792,234.01042 302.55207,232.32292 302.34375,229.40625 C 302.13542,226.48958 301.90625,228.15626 301.28125,226.90625 C 300.65625,225.65625 299.83333,225.67708 296.5,223.59375 C 293.16666,221.51042 296.51041,223.98959 294.84375,225.03125 C 293.17708,226.07291 294.82292,224.21874 293.15625,224.21875 C 291.48959,224.21875 292.75,226.07292 290.875,227.53125 C 289,228.98958 289.83333,228.79167 286.5,228.375 C 283.16666,227.95833 286.28125,229.20833 285.65625,230.875 C 285.03125,232.54167 285.03125,231.91667 283.78125,232.75 C 282.53125,233.58333 284.42707,234 284.84375,235.25 C 285.26042,236.5 286.07292,238.17708 286.28125,241.09375 C 286.48959,244.01042 285.25,242.75 285.25,242.75 L 285.3125,242.90625 C 284.38512,242.622 283.38646,242.53125 282.53125,242.53125 C 279.82291,242.53125 279.83333,239.625 279,237.125 C 278.16667,234.625 277.75,236.09374 276.5,235.46875 C 275.25,234.84375 274.20833,230.875 273.375,229 C 272.54167,227.125 271.71874,226.5 270.46875,225.875 C 269.21875,225.25 266.70833,226.92708 265.875,227.34375 C 265.04167,227.76042 265.25,231.90626 265.25,231.90625 L 267.75,241.09375 L 266.71875,246.90625 L 261.5,248.15625 L 259.84375,244.84375 C 259.84375,244.84375 259.84374,245.23959 256.71875,248.15625 C 256.69462,248.20452 256.77106,248.41722 256.90625,248.71875 C 256.77213,248.67083 256.59954,248.64352 256.5,248.59375 C 253.16667,246.92709 255.66667,249.63541 254.625,251.71875 C 253.58333,253.80209 254.42708,257.76041 254.21875,258.59375 C 254.01042,259.42709 251.71874,256.09374 251.09375,257.34375 C 250.46875,258.59375 251.28126,266.70833 250.65625,267.75 C 250.03125,268.79167 249.83333,266.29167 249.625,262.75 C 249.41667,259.20833 248.59374,260.86459 248.59375,258.15625 C 248.59375,255.44791 248.59374,255.67708 247.34375,254.21875 C 246.5968,253.34731 246.14697,253.43813 245.90625,253.65625 C 246.33594,253.02148 247.21876,251.56249 247.53125,249.84375 C 247.94791,247.55209 247.125,249.01041 245.875,249.21875 C 244.625,249.42709 245.26041,249.41667 245.46875,247.75 C 245.67709,246.08333 243.78126,247.125 243.78125,247.125 L 238.5625,246.3125 C 240.08811,246.16235 241.12411,245.98186 241.3125,245.75 C 242.46155,244.33578 240.24909,244.94361 239.71875,242.46875 C 239.18842,239.99387 238.74203,240.87592 240.15625,241.40625 C 241.57046,241.93658 241.12775,242.81435 242.71875,243.875 C 244.30974,244.93566 243.86794,244.0821 245.8125,243.375 C 247.75704,242.66789 246.34819,242.37852 245.90625,241.40625 C 245.46431,240.43398 245.20451,240.96782 246,240.4375 C 246.7955,239.90716 246.98039,238.84636 247.6875,237.34375 C 248.39461,235.84115 247.69287,236.36152 247.78125,234.59375 C 247.86964,232.82599 247.32675,233.80622 246.53125,233.1875 C 245.73576,232.56878 245.19286,233.03034 245.28125,232.5 C 245.36964,231.96967 245.74739,231.88481 247.25,231.53125 C 248.7526,231.1777 247.42494,230.46248 246.1875,229.84375 C 244.95006,229.22503 245.46156,229.56877 244.3125,230.1875 C 243.16345,230.80622 243.96875,229.65978 243.96875,228.6875 C 243.96875,227.71523 243.88387,228.06696 243,227.625 C 242.11611,227.18306 243.25261,227.80899 241.75,228.78125 C 240.2474,229.75352 241.47765,228.87316 240.59375,227.8125 C 239.70987,226.75184 239.18306,226.20082 239.625,224.875 C 240.06694,223.54917 239.72672,224.5392 238.3125,223.125 C 236.89828,221.71079 237.61688,222.77498 235.9375,222.15625 C 235.56977,222.02077 235.30403,221.95568 235.125,221.9375 C 234.79973,222.20387 234.58861,221.88304 235.125,221.9375 C 235.18698,221.88675 235.24621,221.81819 235.3125,221.71875 C 235.84283,220.92325 235.66071,221.34099 235.21875,219.75 C 234.77681,218.15901 235.12225,219.75979 233.53125,219.40625 C 231.94026,219.05269 232.75259,219.15533 231.25,218.625 C 229.7474,218.09467 230.89109,217.99633 231.15625,215.875 C 231.42141,213.75368 230.8053,215.34727 229.65625,214.375 C 228.5072,213.40273 229.29366,213.40349 227.4375,211.8125 C 225.58134,210.22151 226.64369,211.87853 225.40625,210.90625 C 224.16881,209.93398 224.96154,210.12592 223.8125,210.65625 C 222.66345,211.18658 223.27404,211.36519 222.125,211.71875 C 220.97595,212.07231 220.97228,211.29014 220,210.40625 C 219.02773,209.52236 218.96154,209.59819 217.8125,209.15625 C 216.66345,208.71431 217.72672,210.02771 216.3125,211 C 214.89828,211.97227 215.16605,211.0063 214.8125,211.625 C 214.45894,212.24372 215.76518,213.13129 215.5,213.75 C 215.23484,214.36872 213.55361,214.55453 214.4375,215.96875 C 215.32139,217.38297 216.37777,216.14997 217.96875,215.53125 C 219.55974,214.91253 219.49464,214.97596 219.40625,216.125 C 219.31786,217.27405 220.4519,215.67938 222.75,214 C 225.04809,212.32062 223.20619,214.55639 221.96875,217.03125 C 220.73131,219.50613 222.8439,217.10708 225.9375,215.78125 C 229.03109,214.45542 226.27848,216.13313 224.6875,217.8125 C 223.09651,219.49188 225.2241,217.53937 225.3125,219.21875 C 225.40089,220.89813 224.78555,219.42141 221.25,219.15625 C 217.71447,218.89109 219.91238,218.52144 217.4375,218.875 C 214.96262,219.22855 216.66698,219.32063 216.84375,221 C 217.02052,222.67938 217.98225,221.87776 219.75,223.46875 C 221.51777,225.05974 222.6653,225.60002 224.875,226.21875 C 227.08471,226.83747 227.86779,226.47503 226.71875,227.09375 C 225.5697,227.71247 225.93213,228.24111 225.84375,229.125 C 225.75536,230.00888 227.97135,233.9153 226.46875,236.125 C 224.96615,238.3347 225.59728,237.53126 224.625,237.53125 C 223.65273,237.53125 225.13037,235.68291 225.21875,233.03125 C 225.30714,230.3796 224.97671,232.74648 223.5625,233.71875 C 222.14829,234.69102 222.14016,236.71876 221.875,236.71875 C 221.60984,236.71875 222.05271,234.43733 222.40625,231.34375 C 222.75981,228.25015 222.0392,230.45436 220.625,228.15625 C 219.21078,225.85816 220.29456,228.43583 218.96875,230.46875 C 217.64292,232.50168 218.33747,233.00276 217.71875,234.59375 C 217.10003,236.18474 217.53126,233.64183 217.53125,231.34375 C 217.53125,229.04565 216.91329,231.34743 214.96875,233.46875 C 213.02421,235.59007 214.78492,232.85431 216.90625,229.9375 C 219.02757,227.02069 216.92845,229.11612 214.71875,230 C 212.50904,230.88388 213.57415,231.08562 214.28125,229.40625 C 214.98836,227.72687 214.44823,228.16865 214.625,226.3125 C 214.62835,226.27727 214.62183,226.28265 214.625,226.25 C 214.55485,226.26944 214.28994,226.37604 212.78125,227.28125 C 211.01349,228.34191 211.43842,227.63389 211.96875,226.75 C 212.49908,225.86612 212.50537,225.59098 212.59375,224 C 212.68213,222.40901 212.25,224.53124 212.25,224.53125 C 212.25,224.53125 212.33118,223.90886 211.09375,222.40625 C 209.85632,220.90365 210.81418,223.12225 208.78125,221.53125 C 206.74832,219.94026 207.99722,221.17679 206.40625,221 C 204.81526,220.82322 205.4375,221.78125 205.4375,221.78125 C 205.4375,221.78125 207.8142,221.18583 205.78125,223.21875 C 205.40008,223.59992 205.21484,223.84099 205.15625,224.03125 C 205.36028,224.19632 205.54799,224.37636 205.71875,224.53125 C 206.32642,224.65278 207.19286,224.69914 207.28125,225.40625 C 207.43462,226.63329 207.13198,225.81316 205.71875,224.53125 C 205.33896,224.45529 205.0586,224.34836 205.15625,224.03125 C 205.1027,223.98793 205.05594,223.95003 205,223.90625 C 202.96707,222.31526 204.11428,223.30455 203.9375,224.71875 C 203.76072,226.13296 205.16438,226.29028 206.84375,228.5 C 208.52313,230.70971 207.37225,229.31159 205.78125,228.78125 C 204.19026,228.25092 205.24541,228.25795 202.59375,226.84375 C 199.9421,225.42954 201.46598,226.56695 199.875,226.125 C 198.28401,225.68306 200.03309,227.26975 201.09375,229.65625 C 202.15441,232.04273 201.88495,230.71614 204.625,232.21875 C 207.36503,233.72135 207.19655,233.64384 209.40625,235.5 C 211.61595,237.35615 209.67938,236.36429 208,236.1875 C 206.32062,236.01073 205.88021,235.21692 202.875,234.15625 C 199.86979,233.09559 201.18382,233.02497 199.0625,232.40625 C 196.94118,231.78753 198.64018,232.49739 198.375,234 C 198.10984,235.5026 198.71432,235.48575 199.15625,236.28125 C 199.59819,237.07675 202.34114,238.4116 203.84375,238.5 C 205.34635,238.58839 207.63849,238.66697 209.40625,238.84375 C 211.17401,239.02053 210.30085,239.28755 209.59375,239.90625 C 208.88665,240.52497 206.91774,240.63129 204.53125,241.25 C 202.14476,241.86872 205.08487,241.8563 205.96875,243.09375 C 206.85263,244.33118 205.87316,243.63222 204.8125,244.78125 C 203.75184,245.9303 203.85262,245.58302 202.96875,245.40625 C 202.08486,245.22948 202.3321,243.62224 201.625,242.03125 C 200.91789,240.44026 200.29365,241.05531 198.4375,239.90625 C 196.58135,238.75721 197.31417,239.28386 195.28125,237.78125 C 193.24832,236.27865 193.58211,236.90182 192.875,237.34375 C 192.1679,237.78569 193.33487,238.83669 194.21875,240.78125 C 195.10263,242.72579 195.42954,242.39201 196.84375,243.1875 C 198.25796,243.983 197.29457,244.96247 195.96875,244.34375 C 194.64292,243.72503 195.09634,243.87944 193.59375,243.4375 C 192.09115,242.99556 193.60003,244.50185 194.21875,245.5625 C 194.83747,246.62316 197.02404,247.85985 195.875,248.125 C 194.72595,248.39017 194.65257,247.51959 192.53125,246.8125 C 190.40993,246.10539 190.92402,245.56511 189.15625,244.0625 C 187.38849,242.5599 188.8258,244.31695 187.5,243.875 C 186.17417,243.43306 186.95174,244.58579 186.15625,246 C 185.36076,247.41421 184.5821,247.70452 183.875,248.5 C 183.1679,249.2955 185.26702,249.36965 186.0625,249.28125 C 186.858,249.19286 189.4188,249.38036 190.65625,249.46875 C 191.739,249.54608 193.70227,250.76495 194.53125,251.78125 C 192.48721,253.36979 196.95338,253.36514 198.59375,252.75 C 200.26042,252.125 203.78126,249.40626 204.40625,250.65625 C 205.03125,251.90625 206.08333,250.875 209,250.875 C 211.91667,250.875 209.21874,249.41667 209.84375,248.375 C 210.46875,247.33333 211.5,249.21874 214.625,247.96875 C 217.75,246.71875 214.83333,246.91667 217.125,248.375 C 219.41667,249.83333 218.79167,249.40626 220.875,248.15625 C 222.95833,246.90625 221.90626,247.13541 223.78125,249.84375 C 225.65625,252.55209 224.42708,249.82292 226.09375,250.65625 C 227.76042,251.48958 226.51041,251.07292 226.09375,252.53125 C 225.67709,253.98958 226.91667,253.59374 228.375,255.46875 C 229.83333,257.34375 229.82292,255.45833 231.28125,252.75 C 231.52552,252.29635 231.66921,252.01388 231.75,251.78125 C 231.60162,251.28035 232.019,251.00663 231.75,251.78125 C 231.8231,252.028 232.01609,252.30229 232.53125,252.53125 C 234.40625,253.36458 233.58333,253.58333 234.625,254 C 235.66667,254.41667 235.65626,253.98959 234.40625,255.65625 C 233.15625,257.32291 232.95833,258.17708 229.625,259.21875 C 226.29167,260.26042 227.11459,260.44792 222.53125,263.15625 C 217.94791,265.86458 221.48959,264.19792 221.90625,266.90625 C 222.32291,269.61458 223.16667,264.63541 224.625,267.34375 C 226.08333,270.05209 227.125,267.94792 230.875,269.40625 C 234.625,270.86458 233.57292,269.40626 235.65625,267.53125 C 237.73958,265.65625 236.51041,264.61459 237.96875,266.28125 C 239.42709,267.94791 237.75,268.15626 236.5,270.65625 C 235.25,273.15625 236.48959,271.51041 234.40625,272.34375 C 232.32291,273.17709 228.57292,271.69792 223.78125,270.65625 C 218.98958,269.61458 223.58333,270.66667 220.25,272.75 C 216.91667,274.83333 219.82292,273.17708 217.53125,271.09375 C 215.23958,269.01042 216.69792,270.86459 215.03125,273.15625 C 213.36458,275.44791 214.19792,273.16667 211.90625,273.375 C 209.61458,273.58333 212.11459,274.19792 211.28125,275.03125 C 210.44791,275.86458 211.08333,274.625 208.375,273.375 C 205.66667,272.125 207.96874,273.79167 206.71875,275.875 C 205.46875,277.95833 205.86459,275.04167 203.15625,274 C 200.44791,272.95833 201.71874,273.80208 197.96875,276.71875 C 194.21875,279.63542 196.29167,275.45833 193.375,274.625 C 190.45833,273.79167 190.66667,274.40626 190.25,278.15625 C 189.83333,281.90625 191.29167,280.23959 194,282.53125 C 196.70833,284.82291 196.07292,282.94792 198.78125,281.28125 C 201.48958,279.61458 201.09374,280.05208 203.59375,279.84375 C 206.09375,279.63542 206.08333,279.61459 209,280.03125 C 211.91667,280.44791 212.76041,279.61459 218.59375,281.90625 C 224.42709,284.19791 219.84374,281.90626 223.59375,285.65625 C 227.34375,289.40625 223.80208,289.20833 225.46875,294.625 C 227.13542,300.04167 226.09374,295.03126 229.21875,295.03125 C 232.34375,295.03125 229.625,293.80208 234.625,291.09375 C 239.625,288.38542 234.625,291.70833 232.125,294.625 C 229.625,297.54167 230.875,296.48959 232.125,299.40625 C 233.375,302.32291 232.13541,300.44792 230.46875,303.15625 C 228.80209,305.86458 230.66667,303.79167 234,302.75 C 237.33333,301.70833 235.94631,298.88487 241.28125,299.75 C 242.82291,300 242.10098,299.89763 241.25,300.46875 C 239.55686,301.60506 238.55208,299.82292 233.96875,303.15625 C 229.38542,306.48958 233.80208,305.03126 235.46875,307.53125 C 237.13542,310.03125 236.28126,307.125 231.90625,310.875 C 227.53125,314.625 228.80208,312.75 224.84375,315.25 C 220.88542,317.75 223,315.875 219.875,316.5 C 216.75,317.125 217.77914,313.86681 215.25,313.59375 C 213.99112,313.45784 215.44854,313.64227 215.03125,317.53125 C 214.6949,320.66591 215.65626,318.98959 214.40625,321.90625 C 213.15625,324.82291 214.40626,323.59374 216.28125,325.46875 C 218.15625,327.34375 219.73959,323.15626 222.65625,322.53125 C 225.57291,321.90625 226.07292,323.58333 230.03125,324 C 233.98958,324.41667 232.94792,322.55208 234.40625,322.96875 C 235.29703,323.22326 235.95957,323.70521 236.90625,324.09375 L 245.34375,322.5 L 242.34375,323.59375 C 242.34375,323.59375 242.97441,323.41952 243.8125,323.3125 C 243.3609,323.53345 242.91285,323.77445 242.46875,323.96875 L 247.21875,323.875 C 247.26493,323.91352 247.30101,323.95726 247.34375,324 C 248.80209,325.45833 255.88541,327.95833 257.96875,329 C 260.05209,330.04167 267.125,337.94792 268.375,338.78125 C 269.625,339.61458 274.41667,338.17708 276.5,339.21875 C 278.58333,340.26042 283.80208,341.70833 285.46875,342.125 C 287.13542,342.54167 292.54167,344.40626 294.625,344.40625 C 296.70833,344.40625 299.625,344.01041 302.125,344.21875 C 304.625,344.42709 309.19792,341.69792 310.65625,341.28125 C 312.11458,340.86458 315.44792,338.59374 317.53125,336.71875 C 319.61458,334.84375 319.19792,334 320.65625,332.125 C 322.11458,330.25 324.84374,329.19792 326.71875,328.15625 C 328.59375,327.11458 334.63541,327.11459 336.09375,326.90625 C 337.55209,326.69791 343.375,325.03126 343.375,325.03125 C 343.375,325.03125 345.46874,323.58333 346.71875,322.125 C 347.96875,320.66667 350.45833,317.73959 352.125,316.28125 C 353.79167,314.82291 355.67708,311.51041 357.96875,310.46875 C 360.26042,309.42709 363.80208,307.73959 366.09375,306.90625 C 368.38542,306.07291 374.63541,304.84374 377.96875,303.59375 C 378.90625,303.24219 379.24821,303.08531 379.3125,303.03125 C 379.0887,303.00378 377.86979,303.16667 378.78125,302.125 C 380.23958,300.45833 379.21874,300.45833 381.71875,299 C 384.21875,297.54167 383.58333,297.73959 386.5,296.28125 C 389.41667,294.82291 386.29167,294.82292 386.5,292.53125 C 386.70833,290.23958 386.51041,291.5 387.96875,289.625 C 389.42709,287.75 388.16667,287.96874 389.625,286.71875 C 391.08333,285.46875 390.70833,285.69792 388,282.78125 C 385.29167,279.86458 387.33333,280.04167 390.25,283.375 C 393.16667,286.70833 391.48956,284.63541 393.15625,284.21875 C 394.82291,283.80209 395.66667,283.36459 395.875,281.90625 C 396.02788,280.83609 395.50653,281.15221 395.21875,281.375 C 395.46033,281.18267 397.29854,279.70192 400.03125,277.75 C 402.94791,275.66667 399.82289,276.90626 396.28125,275.03125 C 392.73958,273.15625 397.125,275.04167 400.875,274.625 C 404.625,274.20833 399.40623,273.375 397.53125,272.125 C 395.65625,270.875 395.66667,271.07292 392.75,271.28125 C 389.83333,271.48958 391.08333,270.67708 392.75,269.21875 C 394.41667,267.76042 393.80211,268.59374 396.71875,268.59375 C 399.63542,268.59375 398.59377,269.82292 401.09375,271.28125 C 403.59375,272.73958 402.32289,271.30208 403.78125,269.84375 C 405.23958,268.38542 404.63544,267.95833 404.21875,265.25 C 404.08854,264.40365 403.90217,264.12449 403.65625,264.125 C 403.11523,264.12612 402.28384,265.46095 401.28125,265.03125 L 401.8125,264.75 L 400.9375,264.375 C 401.98373,264.29964 400.87354,264.95385 401.09375,264.84375 C 403.17708,263.80209 401.84377,263.375 400.59375,262.75 C 399.34375,262.125 395.04166,262.96874 395.875,262.34375 C 396.70833,261.71875 399.20833,261.71874 401.5,261.09375 C 403.79166,260.46875 401.70833,260.05208 400.875,258.59375 C 400.04166,257.13542 401.09377,259.82292 399.84375,258.78125 C 398.59375,257.73958 397.76044,258.16667 394.21875,260.875 C 390.67708,263.58333 393.8021,260.23959 396.09375,258.78125 C 398.38542,257.32291 397.32289,258.79167 398.15625,256.5 C 398.36459,255.92708 398.42904,255.61523 398.40625,255.46875 C 398.57119,255.44631 398.8558,255.3315 399.40625,255.03125 C 401.69792,253.78125 399.4271,253.58333 400.46875,251.5 C 401.51042,249.41667 400.46877,248.16667 398.59375,247.75 C 396.71875,247.33333 398.16666,249.19792 396.5,247.53125 C 394.83333,245.86458 396.29166,246.28126 394.625,245.03125 C 392.95833,243.78125 393.78125,246.30208 391.90625,246.09375 C 390.03125,245.88542 389.40625,244.21874 386.28125,242.34375 C 383.15625,240.46875 385.05207,242.125 385.46875,239.625 C 385.88542,237.125 385.23959,238.16667 383.15625,239 C 381.07292,239.83333 382.125,240.25 378.375,240.875 C 377.01175,241.10221 376.37562,241.33906 376.09375,241.53125 C 376.18781,242.01657 375.61236,241.85948 376.09375,241.53125 C 376.09138,241.51904 376.097,241.51302 376.09375,241.5 C 375.88542,240.66667 376.08333,240.67708 375.875,238.59375 C 375.66666,236.51042 375.875,236.90626 375.875,236.90625 C 375.875,236.90625 377.11459,235.23959 378.78125,232.53125 C 380.44792,229.82291 379.21874,230.65626 378.59375,228.78125 C 377.96875,226.90625 377.55207,226.92708 376.71875,227.34375 C 375.88542,227.76042 375.66666,227.76041 374,229.21875 C 372.33333,230.67709 372.54166,228.16667 370.875,227.75 C 369.20833,227.33333 370.67707,227.11459 369.84375,225.65625 C 369.01042,224.19791 368.58333,225.25 369.625,224 C 370.66666,222.75 370.03125,222.95833 371.28125,222.125 C 372.53125,221.29167 372.55207,220.45833 372.34375,219 C 372.13542,217.54167 372.32292,217.53126 374.40625,215.65625 C 376.48959,213.78125 376.28125,214.42708 375.03125,213.59375 C 373.78125,212.76042 373.58333,213.78126 372.125,214.40625 C 370.66666,215.03125 370.65625,216.51041 370.03125,217.34375 C 369.40625,218.17709 366.28125,217.55208 365.03125,218.59375 C 363.78125,219.63542 365.04166,221.08333 364,222.75 C 362.95833,224.41667 362.94792,222.55208 361.28125,221.09375 C 359.61459,219.63542 360.05207,221.08333 357.96875,220.25 C 355.88542,219.41667 356.29166,219 357.125,217.125 C 357.95833,215.25 356.92707,214.61459 356.71875,213.15625 C 356.51042,211.69791 354.82292,212.32292 353.15625,212.53125 C 351.48959,212.73958 351.91666,210.88541 352.125,209.21875 C 352.33333,207.55209 350.88541,208.59374 349.84375,207.96875 C 349.58333,207.8125 349.29492,207.72851 349.03125,207.71875 z M 242.46875,323.96875 L 239.625,324 L 237.09375,324.15625 C 237.66047,324.37231 238.33928,324.55171 239.21875,324.625 C 240.39706,324.72319 241.43724,324.42003 242.46875,323.96875 z M 237.09375,324.15625 C 237.03352,324.13329 236.9642,324.11753 236.90625,324.09375 L 236.28125,324.21875 L 237.09375,324.15625 z M 214.625,226.25 C 214.63705,226.24666 214.71875,226.21875 214.71875,226.21875 C 214.71875,226.21874 214.71875,225.77242 214.71875,225.5625 C 214.70324,225.66206 214.66038,225.88517 214.625,226.25 z M 209.9375,247.53125 C 210.00652,247.53125 209.92257,247.65353 210.28125,246.90625 C 210.04853,247.69281 218.12937,246.25805 209.96875,248.28125 C 212.17969,249.31673 210.5177,247.78386 210.25,247.6875 C 205.72835,246.05987 206.40829,246.58667 207.81846,246.90817 C 208.84211,247.14155 210.64735,247.28003 209.9375,247.53125 z M 398.25,255.375 C 398.28581,255.33919 398.34535,255.35708 398.375,255.46875 C 398.21549,255.48503 398.21094,255.41406 398.25,255.375 z "
       style="fill:#fd5;fill-rule:evenodd;stroke:black;stroke-width:1px;stroke-linecap:butt;stroke-linejoin:miter;stroke-opacity:1"
       id="path7831" />
  </g>
  <g
     transform="translate(-183.2317,-207.2174)"
     id="layer4" />
</svg>
