<?xml version="1.0" encoding="UTF-8" standalone="no"?>
<!DOCTYPE svg PUBLIC "-//W3C//DTD SVG 1.1//EN" "http://www.w3.org/Graphics/SVG/1.1/DTD/svg11.dtd">
<svg width="100%" height="100%" viewBox="0 0 2957 125" version="1.1" xmlns="http://www.w3.org/2000/svg" xmlns:xlink="http://www.w3.org/1999/xlink" xml:space="preserve" xmlns:serif="http://www.serif.com/" style="fill-rule:evenodd;clip-rule:evenodd;stroke-linejoin:round;stroke-miterlimit:10;">
    <g transform="matrix(4.16667,0,0,-4.16667,2.08333,312.835)">
        <path d="M0,61.248L0.138,61.251L0.276,61.255L0.415,61.26L0.553,61.265L0.691,61.27L0.829,61.276L0.967,61.282L1.106,61.289L1.244,61.295L1.382,61.302L1.52,61.309L1.658,61.316L1.797,61.323L1.935,61.33L2.073,61.337L2.211,61.344L2.35,61.35L2.488,61.356L2.626,61.363L2.764,61.368L2.902,61.374L3.041,61.379L3.179,61.383L3.317,61.387L3.455,61.39L3.593,61.393L3.732,61.395L3.87,61.397L4.008,61.398L4.146,61.398L4.284,61.398L4.423,61.398L4.561,61.396L4.699,61.395L4.837,61.392L4.975,61.389L5.114,61.386L5.252,61.382L5.39,61.378L5.528,61.375L5.666,61.372L5.805,61.369L5.943,61.367L6.081,61.366L6.219,61.366L6.357,61.366L6.496,61.367L6.634,61.368L6.772,61.371L6.91,61.375L7.049,61.38L7.187,61.387L7.325,61.396L7.463,61.405L7.601,61.416L7.74,61.427L7.878,61.439L8.016,61.45L8.154,61.461L8.292,61.47L8.431,61.478L8.707,61.494L8.845,61.502L8.983,61.51L9.122,61.517L9.26,61.523L9.398,61.529L9.536,61.535L9.674,61.542L9.813,61.549L9.951,61.558L10.089,61.571L10.227,61.588L10.365,61.612L10.504,61.644L10.642,61.682L10.78,61.727L10.918,61.779L11.056,61.837L11.195,61.901L11.333,61.971L11.471,62.048L11.609,62.129L11.748,62.214L11.886,62.302L12.024,62.393L12.162,62.483L12.3,62.57L12.439,62.651L12.577,62.722L12.715,62.782L12.853,62.829L12.991,62.863L13.13,62.882L13.268,62.886L13.406,62.874L13.544,62.847L13.682,62.804L13.821,62.746L13.959,62.672L14.097,62.584L14.235,62.482L14.373,62.37L14.512,62.248L14.65,62.122L14.788,61.993L14.926,61.866L15.064,61.741L15.203,61.621L15.341,61.506L15.479,61.4L15.617,61.302L15.755,61.212L15.894,61.131L16.032,61.059L16.17,60.997L16.308,60.943L16.447,60.899L16.585,60.861L16.723,60.829L16.861,60.801L16.999,60.773L17.138,60.746L17.276,60.716L17.414,60.684L17.552,60.649L17.69,60.61L17.829,60.57L17.967,60.532L18.105,60.497L18.243,60.47L18.381,60.45L18.52,60.441L18.658,60.447L18.796,60.471L18.934,60.515L19.072,60.583L19.211,60.676L19.349,60.799L19.487,60.959L19.625,61.162L19.763,61.408L19.902,61.696L20.04,62.024L20.178,62.385L20.316,62.769L20.455,63.159L20.593,63.533L20.731,63.895L20.869,64.275L21.007,64.69L21.146,65.142L21.284,65.564L21.422,65.854L21.56,65.978L21.698,65.977L21.837,66.024L21.975,66.319L22.113,66.963L22.251,67.966L22.389,69.143L22.528,70.192L22.666,70.833L22.804,70.765L22.942,69.835L23.08,68.091L23.219,65.649L23.357,62.717L23.495,59.564L23.633,56.402L23.771,53.496L23.91,51.181L24.048,49.678L24.186,49.09L24.324,49.386L24.462,50.345L24.601,51.73L24.739,53.362L24.877,55.063L25.015,56.667L25.154,58.038L25.292,59.075L25.43,59.772L25.568,60.246L25.706,60.621L25.845,60.964L25.983,61.268L26.121,61.451L26.259,61.461L26.397,61.323L26.536,61.105L26.674,60.908L26.812,60.786L26.95,60.749L27.088,60.789L27.227,60.887L27.365,61.026L27.503,61.196L27.641,61.372L27.779,61.522L27.918,61.631L28.056,61.696L28.194,61.717L28.332,61.706L28.47,61.671L28.609,61.619L28.747,61.563L28.885,61.516L29.023,61.488L29.161,61.481L29.3,61.496L29.438,61.529L29.576,61.579L29.714,61.645L29.853,61.723L29.991,61.812L30.129,61.908L30.267,62.009L30.405,62.114L30.544,62.221L30.682,62.329L30.82,62.437L30.958,62.541L31.096,62.641L31.235,62.735L31.373,62.823L31.511,62.904L31.649,62.978L31.787,63.045L31.926,63.107L32.064,63.164L32.202,63.216L32.34,63.263L32.478,63.308L32.617,63.348L32.755,63.386L32.893,63.421L33.031,63.452L33.169,63.481L33.308,63.508L33.446,63.533L33.584,63.557L33.722,63.58L33.86,63.603L33.999,63.625L34.137,63.648L34.275,63.672L34.413,63.697L34.552,63.723L34.69,63.752L34.828,63.784L34.966,63.821L35.104,63.864L35.243,63.915L35.381,63.975L35.519,64.046L35.657,64.128L35.795,64.221L35.934,64.325L36.072,64.44L36.21,64.566L36.348,64.704L36.486,64.852L36.625,65.011L36.763,65.18L36.901,65.358L37.039,65.545L37.177,65.74L37.316,65.942L37.454,66.148L37.592,66.357L37.73,66.567L37.868,66.778L38.007,66.989L38.145,67.199L38.283,67.406L38.421,67.61L38.56,67.809L38.698,68.002L38.836,68.189L38.974,68.368L39.112,68.536L39.251,68.693L39.389,68.837L39.527,68.967L39.665,69.082L39.803,69.181L39.942,69.263L40.08,69.326L40.218,69.37L40.356,69.392L40.494,69.394L40.633,69.374L40.771,69.332L40.909,69.267L41.047,69.18L41.185,69.07L41.324,68.939L41.462,68.788L41.6,68.618L41.738,68.429L41.876,68.223L42.015,68.001L42.153,67.765L42.291,67.517L42.429,67.26L42.567,66.995L42.706,66.725L42.844,66.45L42.982,66.173L43.12,65.897L43.259,65.622L43.397,65.352L43.535,65.087L43.673,64.829L43.811,64.579L43.95,64.34L44.088,64.111L44.226,63.895L44.364,63.69L44.502,63.497L44.641,63.315L44.779,63.145L44.917,62.986L45.055,62.837L45.193,62.699L45.332,62.57L45.47,62.448L45.608,62.334L45.746,62.226L45.884,62.123L46.023,62.025L46.161,61.93L46.299,61.838L46.437,61.748L46.575,61.661L46.714,61.576L46.852,61.494L46.99,61.414L47.128,61.337L47.266,61.264L47.405,61.195L47.543,61.129L47.681,61.07L47.819,61.015L47.958,60.967L48.096,60.925L48.234,60.89L48.372,60.861L48.51,60.84L48.649,60.825L48.787,60.817L48.925,60.814L49.063,60.817L49.201,60.825L49.34,60.838L49.478,60.855L49.616,60.875L49.754,60.897L49.892,60.921L50.031,60.947L50.169,60.972L50.307,60.998L50.445,61.024L50.583,61.048L50.722,61.072L50.86,61.094L50.998,61.114L51.136,61.133L51.274,61.15L51.413,61.164L51.551,61.177L51.689,61.187L51.827,61.195L51.965,61.2L52.104,61.203L52.242,61.203L52.38,61.201L52.518,61.196L52.657,61.189L52.795,61.18L52.933,61.168L53.071,61.154L53.209,61.138L53.348,61.12L53.486,61.099L53.624,61.077L53.762,61.053L53.9,61.027L54.039,61L54.177,60.972L54.315,60.943L54.453,60.912L54.591,60.881L54.73,60.85L54.868,60.818L55.006,60.786L55.144,60.754L55.282,60.722L55.421,60.69L55.559,60.658L55.697,60.627L55.835,60.597L55.973,60.567L56.112,60.538L56.25,60.51L56.388,60.483L56.526,60.457L56.665,60.432L56.803,60.408L56.941,60.386L57.079,60.365L57.217,60.345L57.356,60.326L57.494,60.309L57.632,60.294L57.77,60.279L57.908,60.266L58.047,60.255L58.185,60.245L58.323,60.236L58.461,60.228L58.599,60.221L58.738,60.215L58.876,60.211L59.014,60.207L59.152,60.204L59.29,60.203L59.429,60.201L59.567,60.201L59.705,60.201L59.843,60.202L59.981,60.203L60.12,60.205L60.258,60.207L60.396,60.21L60.534,60.213L60.672,60.216L60.811,60.219L60.949,60.223L61.087,60.226L61.225,60.23L61.502,60.238L61.64,60.241L61.778,60.245L61.916,60.249L62.055,60.252L62.193,60.255L62.331,60.259L62.469,60.261L62.607,60.264L62.746,60.267L62.884,60.269L63.022,60.272L63.16,60.274L63.298,60.276L63.437,60.278L63.575,60.279L63.713,60.281L63.851,60.283L63.989,60.284L64.266,60.288L64.404,60.289L64.542,60.291L64.68,60.293L64.819,60.294L64.957,60.296L65.095,60.298L65.233,60.301L65.371,60.303L65.51,60.306L65.648,60.308L65.786,60.312L65.924,60.315L66.063,60.319L66.201,60.323L66.339,60.328L66.477,60.332L66.615,60.338L66.754,60.343L66.892,60.349L67.03,60.356L67.168,60.362L67.306,60.369L67.445,60.377L67.583,60.384L67.721,60.392L67.859,60.401L67.997,60.409L68.136,60.418L68.274,60.427L68.412,60.436L68.55,60.445L68.688,60.454L69.103,60.482L69.241,60.491L69.379,60.5L69.518,60.509L69.656,60.518L69.794,60.526L69.932,60.535L70.07,60.542L70.209,60.55L70.347,60.557L70.485,60.563L70.623,60.569L70.762,60.575L70.9,60.58L71.038,60.584L71.176,60.588L71.314,60.591L71.453,60.594L71.591,60.597L71.729,60.599L71.867,60.601L72.005,60.602L72.144,60.604L72.282,60.605L72.42,60.606L72.696,60.608L72.835,60.609L72.973,60.61L73.111,60.612L73.249,60.614L73.387,60.616L73.526,60.619L73.664,60.623L73.802,60.628L73.94,60.633L74.078,60.64L74.217,60.649L74.355,60.658L74.493,60.67L74.631,60.683L74.769,60.699L74.908,60.716L75.046,60.736L75.184,60.758L75.322,60.782L75.461,60.807L75.599,60.834L75.737,60.862L75.875,60.891L76.013,60.921L76.152,60.951L76.29,60.982L76.566,61.044L76.704,61.075L76.843,61.105L76.981,61.136L77.119,61.166L77.257,61.197L77.395,61.228L77.534,61.261L77.672,61.296L77.81,61.333L77.948,61.375L78.086,61.42L78.225,61.47L78.363,61.524L78.501,61.583L78.639,61.645L78.777,61.712L78.916,61.782L79.054,61.855L79.192,61.929L79.33,62.004L79.469,62.079L79.607,62.152L79.745,62.22L79.883,62.283L80.021,62.337L80.16,62.382L80.298,62.416L80.436,62.438L80.574,62.449L80.712,62.449L80.851,62.436L80.989,62.413L81.127,62.378L81.265,62.335L81.403,62.283L81.542,62.225L81.68,62.162L81.818,62.097L81.956,62.031L82.094,61.968L82.233,61.909L82.371,61.857L82.509,61.811L82.647,61.773L82.785,61.743L82.924,61.719L83.062,61.702L83.2,61.69L83.338,61.682L83.476,61.676L83.615,61.669L83.753,61.661L83.891,61.648L84.029,61.629L84.168,61.6L84.306,61.561L84.444,61.509L84.582,61.442L84.72,61.362L84.859,61.27L84.997,61.169L85.135,61.062L85.273,60.954L85.411,60.848L85.55,60.749L85.688,60.662L85.826,60.591L85.964,60.542L86.102,60.519L86.241,60.525L86.379,60.566L86.517,60.649L86.655,60.784L86.793,60.976L86.932,61.226L87.07,61.539L87.208,61.91L87.346,62.327L87.484,62.779L87.623,63.241L87.761,63.71L87.899,64.204L88.037,64.732L88.175,65.282L88.314,65.792L88.452,66.166L88.59,66.373L88.728,66.476L88.867,66.628L89.005,67.013L89.143,67.71L89.281,68.688L89.419,69.841L89.558,70.989L89.696,71.948L89.834,72.506L89.972,72.399L90.11,71.439L90.249,69.623L90.387,67.082L90.525,64.098L90.663,60.979L90.801,57.889L90.94,54.999L91.078,52.513L91.216,50.621L91.354,49.582L91.492,49.52L91.631,50.365L91.769,51.936L91.907,53.898L92.045,55.929L92.183,57.753L92.322,59.163L92.46,60.139L92.598,60.732L92.736,61.086L92.874,61.362L93.013,61.596L93.151,61.774L93.289,61.843L93.427,61.768L93.566,61.598L93.704,61.422L93.842,61.322L93.98,61.336L94.118,61.464L94.257,61.682L94.395,61.957L94.533,62.262L94.671,62.57L94.809,62.843L94.948,63.061L95.086,63.214L95.224,63.304L95.362,63.34L95.5,63.333L95.639,63.293L95.777,63.233L95.915,63.167L96.053,63.106L96.191,63.055L96.33,63.016L96.468,62.988L96.606,62.97L96.744,62.964L96.882,62.971L97.021,62.988L97.159,63.016L97.297,63.054L97.435,63.1L97.574,63.156L97.712,63.219L97.85,63.287L97.988,63.361L98.126,63.437L98.265,63.514L98.403,63.592L98.541,63.669L98.679,63.745L98.817,63.818L98.956,63.889L99.094,63.955L99.232,64.017L99.37,64.074L99.508,64.127L99.647,64.176L99.785,64.222L99.923,64.266L100.061,64.308L100.199,64.349L100.338,64.391L100.476,64.434L100.614,64.478L100.752,64.524L100.89,64.574L101.029,64.626L101.167,64.682L101.305,64.743L101.443,64.809L101.582,64.88L101.72,64.957L101.858,65.039L101.996,65.128L102.134,65.223L102.272,65.323L102.411,65.429L102.549,65.541L102.687,65.657L102.825,65.778L102.964,65.903L103.102,66.032L103.24,66.164L103.378,66.299L103.516,66.436L103.655,66.575L103.793,66.716L103.931,66.857L104.069,66.999L104.207,67.14L104.346,67.281L104.484,67.421L104.622,67.56L104.76,67.697L104.898,67.833L105.037,67.968L105.175,68.103L105.313,68.239L105.451,68.374L105.589,68.51L105.866,68.781L106.004,68.916L106.142,69.051L106.281,69.184L106.419,69.315L106.557,69.443L106.695,69.569L106.833,69.69L106.972,69.807L107.11,69.917L107.248,70.018L107.386,70.109L107.524,70.185L107.662,70.247L107.801,70.291L107.939,70.317L108.077,70.322L108.215,70.306L108.354,70.268L108.492,70.209L108.63,70.126L108.768,70.02L108.906,69.891L109.045,69.738L109.183,69.561L109.321,69.361L109.459,69.139L109.597,68.898L109.736,68.639L109.874,68.365L110.012,68.079L110.15,67.783L110.289,67.479L110.427,67.171L110.565,66.858L110.703,66.544L110.841,66.231L110.98,65.92L111.118,65.615L111.256,65.317L111.394,65.03L111.532,64.755L111.67,64.495L111.809,64.251L111.947,64.023L112.085,63.812L112.223,63.618L112.362,63.439L112.5,63.276L112.638,63.128L112.776,62.996L112.914,62.878L113.053,62.775L113.191,62.684L113.329,62.606L113.467,62.538L113.605,62.479L113.744,62.427L113.882,62.379L114.02,62.334L114.158,62.292L114.296,62.251L114.435,62.211L114.573,62.172L114.711,62.135L114.849,62.098L114.988,62.061L115.126,62.025L115.264,61.99L115.402,61.955L115.54,61.922L115.678,61.889L115.817,61.858L115.955,61.829L116.093,61.804L116.231,61.782L116.37,61.765L116.508,61.752L116.646,61.744L116.784,61.738L116.922,61.737L117.061,61.738L117.199,61.743L117.337,61.749L117.475,61.757L117.613,61.767L117.752,61.778L117.89,61.789L118.028,61.801L118.166,61.813L118.304,61.825L118.443,61.835L118.581,61.844L118.719,61.851L118.857,61.856L118.995,61.86L119.134,61.862L119.272,61.862L119.41,61.861L119.548,61.857L119.687,61.853L119.825,61.847L119.963,61.84L120.101,61.832L120.239,61.823L120.378,61.812L120.516,61.801L120.654,61.789L120.792,61.776L120.93,61.763L121.069,61.749L121.207,61.735L121.345,61.721L121.483,61.706L121.621,61.692L121.76,61.677L121.898,61.662L122.036,61.647L122.174,61.632L122.312,61.617L122.451,61.602L122.589,61.587L122.727,61.572L122.865,61.558L123.003,61.543L123.142,61.528L123.28,61.514L123.418,61.499L123.556,61.485L123.694,61.47L123.833,61.455L123.971,61.44L124.109,61.425L124.247,61.41L124.385,61.395L124.524,61.379L124.662,61.364L124.8,61.347L124.938,61.331L125.077,61.314L125.215,61.297L125.353,61.28L125.491,61.263L125.629,61.245L125.768,61.226L125.906,61.208L126.044,61.189L126.182,61.17L126.32,61.151L126.459,61.132L126.597,61.113L126.735,61.093L126.873,61.074L127.011,61.055L127.15,61.036L127.288,61.017L127.426,60.999L127.564,60.981L127.702,60.964L127.841,60.947L127.979,60.93L128.117,60.915L128.255,60.9L128.393,60.886L128.532,60.873L128.67,60.86L128.808,60.849L128.946,60.839L129.084,60.829L129.223,60.821L129.361,60.813L129.499,60.806L129.637,60.801L129.775,60.796L129.914,60.792L130.052,60.789L130.19,60.787L130.328,60.785L130.467,60.784L130.605,60.784L130.743,60.785L130.881,60.785L131.019,60.787L131.158,60.789L131.296,60.791L131.434,60.793L131.572,60.796L131.71,60.798L131.987,60.804L132.125,60.806L132.263,60.809L132.401,60.811L132.54,60.813L132.678,60.815L132.816,60.817L132.954,60.818L133.093,60.82L133.231,60.821L133.369,60.821L133.507,60.822L133.645,60.822L133.783,60.822L133.922,60.822L134.198,60.822L134.336,60.822L134.474,60.823L134.613,60.823L134.751,60.824L134.889,60.824L135.027,60.826L135.166,60.827L135.304,60.83L135.442,60.832L135.58,60.836L135.718,60.84L135.857,60.844L135.995,60.849L136.133,60.855L136.271,60.862L136.409,60.869L136.548,60.877L136.686,60.885L136.824,60.894L136.962,60.904L137.1,60.914L137.239,60.925L137.377,60.936L137.515,60.948L137.653,60.96L137.791,60.972L137.93,60.984L138.068,60.997L138.206,61.009L138.344,61.021L138.483,61.032L138.621,61.044L138.759,61.055L138.897,61.065L139.035,61.074L139.173,61.083L139.312,61.091L139.45,61.097L139.588,61.102L139.726,61.107L139.865,61.11L140.003,61.111L140.141,61.112L140.279,61.11L140.417,61.108L140.556,61.104L140.694,61.099L140.832,61.093L140.97,61.086L141.108,61.077L141.247,61.067L141.385,61.056L141.523,61.044L141.661,61.032L141.799,61.018L141.938,61.004L142.076,60.989L142.214,60.973L142.352,60.958L142.491,60.942L142.629,60.927L142.767,60.912L142.905,60.897L143.043,60.883L143.182,60.87L143.32,60.858L143.458,60.846L143.596,60.837L143.734,60.829L143.873,60.822L144.011,60.817L144.149,60.814L144.287,60.813L144.425,60.814L144.564,60.816L144.702,60.82L144.84,60.824L144.978,60.83L145.116,60.835L145.255,60.842L145.393,60.848L145.531,60.855L145.669,60.863L145.807,60.871L145.946,60.879L146.084,60.888L146.222,60.898L146.36,60.909L146.499,60.92L146.637,60.933L146.775,60.948L146.913,60.965L147.051,60.986L147.189,61.01L147.328,61.037L147.466,61.067L147.604,61.101L147.742,61.136L147.881,61.174L148.019,61.213L148.157,61.251L148.295,61.289L148.433,61.325L148.571,61.357L148.71,61.385L148.848,61.408L148.986,61.426L149.124,61.435L149.263,61.437L149.401,61.429L149.539,61.412L149.677,61.386L149.815,61.352L149.954,61.31L150.092,61.261L150.23,61.207L150.368,61.149L150.506,61.089L150.645,61.03L150.783,60.972L150.921,60.917L151.059,60.865L151.198,60.82L151.336,60.781L151.474,60.75L151.612,60.727L151.75,60.711L151.889,60.703L152.027,60.699L152.165,60.701L152.303,60.704L152.441,60.709L152.579,60.712L152.718,60.71L152.856,60.701L152.994,60.683L153.132,60.655L153.27,60.614L153.409,60.561L153.547,60.494L153.685,60.413L153.823,60.318L153.962,60.214L154.1,60.103L154.238,59.991L154.376,59.881L154.514,59.776L154.653,59.682L154.791,59.605L154.929,59.55L155.067,59.521L155.205,59.521L155.344,59.556L155.482,59.629L155.62,59.75L155.758,59.924L155.897,60.155L156.035,60.439L156.173,60.776L156.311,61.158L156.449,61.575L156.588,62.01L156.726,62.44L156.864,62.864L157.002,63.305L157.14,63.788L157.278,64.318L157.417,64.833L157.555,65.24L157.693,65.471L157.831,65.539L157.97,65.613L158.108,65.892L158.246,66.547L158.384,67.666L158.522,69.034L158.661,70.322L158.799,71.13L158.937,71.021L159.075,69.903L159.213,67.903L159.352,65.277L159.49,62.411L159.628,59.505L159.766,56.659L159.904,54.01L160.043,51.722L160.181,50.042L160.319,49.171L160.457,49.156L160.595,49.861L160.734,51.05L160.872,52.472L161.01,53.897L161.148,55.212L161.287,56.333L161.425,57.245L161.563,58.022L161.701,58.683L161.839,59.261L161.978,59.762L162.116,60.109L162.254,60.279L162.392,60.287L162.53,60.165L162.669,60.001L162.807,59.875L162.945,59.819L163.083,59.847L163.221,59.953L163.36,60.118L163.498,60.324L163.636,60.559L163.774,60.795L163.912,61.002L164.051,61.163L164.189,61.271L164.327,61.326L164.465,61.338L164.603,61.317L164.742,61.27L164.88,61.209L165.018,61.146L165.156,61.09L165.294,61.045L165.433,61.014L165.571,60.994L165.709,60.985L165.847,60.988L165.986,61.003L166.124,61.027L166.262,61.061L166.4,61.103L166.538,61.151L166.676,61.206L166.815,61.267L166.953,61.331L167.091,61.399L167.229,61.468L167.368,61.537L167.506,61.606L167.644,61.674L167.782,61.742L167.92,61.808L168.059,61.872L168.197,61.933L168.335,61.991L168.473,62.046L168.611,62.098L168.75,62.149L168.888,62.198L169.026,62.246L169.164,62.295L169.303,62.344L169.441,62.394L169.579,62.446L169.717,62.501L169.855,62.558L169.993,62.617L170.132,62.679L170.27,62.744L170.408,62.814L170.546,62.889L170.684,62.97L170.823,63.057L170.961,63.149L171.099,63.248L171.237,63.353L171.375,63.465L171.514,63.583L171.652,63.707L171.79,63.838L171.928,63.975L172.067,64.118L172.205,64.267L172.343,64.423L172.481,64.583L172.619,64.746L172.758,64.912L172.896,65.08L173.034,65.249L173.172,65.419L173.31,65.589L173.449,65.757L173.587,65.923L173.725,66.087L173.863,66.247L174.002,66.405L174.14,66.558L174.278,66.707L174.416,66.851L174.554,66.992L174.693,67.129L174.831,67.264L174.969,67.396L175.107,67.525L175.245,67.651L175.384,67.774L175.522,67.895L175.66,68.012L175.798,68.126L175.936,68.235L176.075,68.341L176.213,68.44L176.351,68.534L176.489,68.621L176.627,68.699L176.766,68.765L176.904,68.817L177.042,68.854L177.18,68.873L177.318,68.875L177.457,68.857L177.595,68.82L177.733,68.762L177.871,68.682L178.009,68.581L178.148,68.458L178.286,68.312L178.424,68.143L178.562,67.952L178.7,67.74L178.839,67.509L178.977,67.261L179.115,67L179.253,66.727L179.392,66.446L179.53,66.158L179.668,65.865L179.806,65.57L179.944,65.275L180.083,64.982L180.221,64.693L180.359,64.412L180.497,64.141L180.635,63.883L180.774,63.641L180.912,63.415L181.05,63.207L181.188,63.015L181.326,62.84L181.465,62.683L181.603,62.541L181.741,62.416L181.879,62.305L182.017,62.209L182.156,62.127L182.294,62.058L182.432,62.001L182.57,61.953L182.708,61.913L182.847,61.877L182.985,61.844L183.123,61.814L183.261,61.785L183.399,61.757L183.538,61.729L183.676,61.702L183.814,61.675L183.952,61.648L184.091,61.622L184.229,61.597L184.367,61.572L184.505,61.548L184.643,61.526L184.782,61.506L184.92,61.489L185.058,61.476L185.196,61.468L185.334,61.465L185.473,61.467L185.611,61.474L185.749,61.486L185.887,61.503L186.025,61.524L186.164,61.549L186.302,61.577L186.44,61.607L186.578,61.64L186.716,61.675L186.855,61.711L186.993,61.748L187.131,61.786L187.269,61.822L187.408,61.858L187.546,61.892L187.684,61.925L187.822,61.955L187.96,61.984L188.099,62.011L188.237,62.035L188.375,62.058L188.513,62.078L188.651,62.097L188.789,62.113L188.928,62.128L189.066,62.14L189.204,62.15L189.342,62.159L189.481,62.166L189.619,62.17L189.757,62.173L189.895,62.175L190.033,62.174L190.172,62.173L190.31,62.169L190.448,62.165L190.586,62.159L190.724,62.151L190.863,62.143L191.001,62.133L191.139,62.122L191.277,62.111L191.415,62.098L191.554,62.086L191.692,62.072L191.83,62.058L191.968,62.044L192.106,62.03L192.245,62.015L192.383,62.001L192.521,61.986L192.659,61.972L192.797,61.957L192.936,61.943L193.074,61.929L193.212,61.916L193.35,61.903L193.489,61.89L193.627,61.878L193.765,61.866L193.903,61.855L194.041,61.845L194.18,61.835L194.318,61.826L194.456,61.817L194.594,61.809L194.732,61.802L194.871,61.796L195.009,61.79L195.147,61.785L195.285,61.78L195.423,61.776L195.562,61.772L195.7,61.77L195.838,61.767L195.976,61.765L196.114,61.764L196.253,61.763L196.391,61.762L196.529,61.762L196.667,61.762L196.806,61.762L196.944,61.762L197.082,61.763L197.22,61.763L197.358,61.764L197.635,61.765L197.773,61.766L197.911,61.766L198.049,61.767L198.188,61.767L198.326,61.767L198.464,61.766L198.602,61.766L198.74,61.765L198.879,61.763L199.017,61.762L199.155,61.759L199.293,61.757L199.431,61.753L199.57,61.75L199.708,61.745L199.846,61.741L199.984,61.736L200.122,61.73L200.261,61.724L200.399,61.717L200.537,61.71L200.675,61.702L200.813,61.694L200.952,61.685L201.09,61.677L201.228,61.667L201.366,61.658L201.504,61.648L201.643,61.638L201.781,61.627L201.919,61.617L202.057,61.606L202.195,61.595L202.334,61.584L202.472,61.573L202.61,61.561L202.748,61.55L202.887,61.539L203.025,61.528L203.163,61.518L203.301,61.507L203.439,61.497L203.578,61.487L203.716,61.477L203.854,61.468L203.992,61.459L204.13,61.451L204.269,61.443L204.407,61.435L204.545,61.428L204.683,61.421L204.821,61.414L204.96,61.408L205.098,61.403L205.236,61.398L205.374,61.393L205.512,61.388L205.651,61.384L205.789,61.38L205.927,61.377L206.065,61.373L206.203,61.37L206.342,61.368L206.48,61.365L206.618,61.363L206.756,61.36L206.895,61.358L207.033,61.356L207.171,61.354L207.309,61.352L207.447,61.35L207.586,61.347L207.724,61.345L207.862,61.342L208,61.339L208.138,61.335L208.277,61.332L208.415,61.328L208.553,61.324L208.691,61.32L208.829,61.316L208.968,61.311L209.106,61.306L209.244,61.301L209.382,61.297L209.52,61.292L209.659,61.287L209.797,61.282L209.935,61.277L210.073,61.272L210.211,61.267L210.35,61.263L210.488,61.259L210.626,61.255L210.764,61.252L210.903,61.249L211.041,61.247L211.179,61.246L211.317,61.246L211.455,61.247L211.593,61.248L211.732,61.251L211.87,61.256L212.008,61.262L212.146,61.269L212.284,61.278L212.423,61.289L212.561,61.301L212.699,61.313L212.837,61.327L212.976,61.341L213.114,61.356L213.252,61.37L213.39,61.385L213.528,61.399L213.667,61.413L213.805,61.426L213.943,61.439L214.081,61.451L214.219,61.462L214.358,61.473L214.496,61.483L214.634,61.494L214.772,61.505L214.91,61.518L215.049,61.532L215.187,61.549L215.325,61.569L215.463,61.591L215.601,61.617L215.74,61.646L215.878,61.678L216.016,61.713L216.154,61.75L216.292,61.788L216.431,61.828L216.569,61.867L216.707,61.906L216.845,61.942L216.984,61.974L217.122,62.002L217.26,62.024L217.398,62.038L217.536,62.045L217.675,62.043L217.813,62.032L217.951,62.012L218.089,61.984L218.227,61.948L218.366,61.905L218.504,61.855L218.642,61.799L218.78,61.739L218.918,61.676L219.057,61.611L219.195,61.546L219.333,61.48L219.471,61.417L219.609,61.356L219.748,61.298L219.886,61.243L220.024,61.191L220.162,61.141L220.301,61.092L220.439,61.044L220.577,60.995L220.715,60.946L220.853,60.893L220.992,60.837L221.13,60.776L221.268,60.709L221.406,60.636L221.544,60.557L221.683,60.473L221.821,60.383L221.959,60.291L222.097,60.198L222.235,60.11L222.374,60.029L222.512,59.958L222.65,59.9L222.788,59.861L222.926,59.843L223.065,59.85L223.203,59.884L223.341,59.947L223.479,60.046L223.617,60.185L223.756,60.371L223.894,60.605L224.032,60.886L224.17,61.212L224.309,61.575L224.447,61.965L224.585,62.365L224.723,62.752L224.861,63.127L224.999,63.509L225.138,63.917L225.276,64.359L225.414,64.785L225.552,65.117L225.69,65.32L225.829,65.415L225.967,65.546L226.105,65.883L226.243,66.538L226.382,67.563L226.52,68.8L226.658,69.968L226.796,70.758L226.934,70.803L227.073,69.92L227.211,68.161L227.349,65.685L227.487,62.783L227.625,59.737L227.764,56.68L227.902,53.789L228.04,51.286L228.178,49.387L228.317,48.353L228.455,48.293L228.593,49.12L228.731,50.639L228.869,52.525L229.008,54.476L229.146,56.23L229.284,57.586L229.422,58.52L229.56,59.086L229.699,59.432L229.837,59.724L229.975,60.001L230.113,60.242L230.251,60.383L230.39,60.38L230.528,60.274L230.666,60.148L230.804,60.085L230.942,60.123L231.081,60.262L231.219,60.481L231.357,60.75L231.495,61.044L231.633,61.338L231.772,61.598L231.91,61.803L232.048,61.946L232.186,62.026L232.324,62.053L232.463,62.038L232.601,61.988L232.739,61.918L232.877,61.842L233.015,61.771L233.154,61.711L233.292,61.665L233.43,61.632L233.568,61.613L233.706,61.609L233.845,61.621L233.983,61.645L234.121,61.682L234.259,61.731L234.398,61.789L234.536,61.857L234.674,61.934L234.812,62.016L234.95,62.103L235.089,62.192L235.227,62.281L235.365,62.37L235.503,62.457L235.641,62.541L235.78,62.62L235.918,62.694L236.056,62.763L236.194,62.827L236.332,62.885L236.471,62.939L236.609,62.989L236.747,63.036L236.885,63.08L237.023,63.123L237.162,63.166L237.3,63.21L237.438,63.255L237.576,63.302L237.714,63.351L237.853,63.404L237.991,63.461L238.129,63.521L238.267,63.587L238.405,63.656L238.544,63.73L238.682,63.809L238.82,63.893L238.958,63.983L239.097,64.079L239.235,64.181L239.373,64.288L239.511,64.402L239.649,64.52L239.788,64.644L239.926,64.774L240.064,64.908L240.202,65.047L240.34,65.19L240.479,65.336L240.617,65.487L240.755,65.641L240.893,65.798L241.031,65.957L241.17,66.115L241.308,66.274L241.446,66.431L241.584,66.586L241.722,66.738L241.861,66.888L241.999,67.034L242.137,67.177L242.275,67.317L242.413,67.454L242.552,67.589L242.69,67.722L242.828,67.852L242.966,67.978L243.104,68.102L243.243,68.222L243.381,68.34L243.519,68.454L243.657,68.565L243.795,68.673L243.934,68.777L244.072,68.877L244.21,68.97L244.348,69.056L244.487,69.132L244.625,69.196L244.763,69.245L244.901,69.277L245.039,69.292L245.178,69.288L245.316,69.263L245.454,69.218L245.592,69.151L245.73,69.061L245.869,68.948L246.007,68.812L246.145,68.652L246.283,68.468L246.422,68.261L246.56,68.033L246.698,67.785L246.836,67.522L246.974,67.245L247.112,66.958L247.251,66.664L247.389,66.363L247.527,66.059L247.665,65.754L247.803,65.449L247.942,65.147L248.08,64.851L248.218,64.562L248.356,64.283L248.494,64.016L248.633,63.762L248.771,63.523L248.909,63.3L249.047,63.093L249.186,62.901L249.324,62.724L249.462,62.561L249.6,62.414L249.738,62.28L249.877,62.162L250.015,62.056L250.153,61.964L250.291,61.884L250.429,61.815L250.568,61.757L250.706,61.707L250.844,61.666L250.982,61.63L251.121,61.601L251.259,61.577L251.397,61.558L251.535,61.542L251.673,61.53L251.812,61.521L251.95,61.513L252.088,61.506L252.226,61.501L252.364,61.496L252.503,61.492L252.641,61.489L252.779,61.485L252.917,61.482L253.055,61.479L253.193,61.476L253.332,61.472L253.47,61.469L253.608,61.465L253.746,61.462L253.885,61.46L254.023,61.459L254.161,61.46L254.299,61.462L254.437,61.466L254.576,61.472L254.714,61.479L254.852,61.488L254.99,61.499L255.128,61.51L255.267,61.524L255.405,61.539L255.543,61.555L255.681,61.574L255.819,61.594L255.958,61.615L256.096,61.636L256.234,61.657L256.372,61.677L256.51,61.696L256.649,61.713L256.787,61.729L256.925,61.743L257.063,61.755L257.201,61.766L257.34,61.775L257.478,61.781L257.616,61.786L257.754,61.788L257.893,61.788L258.031,61.785L258.169,61.78L258.307,61.773L258.445,61.765L258.584,61.755L258.722,61.744L258.86,61.732L258.998,61.719L259.136,61.706L259.275,61.692L259.413,61.677L259.551,61.662L259.689,61.646L259.827,61.629L259.966,61.612L260.104,61.595L260.242,61.579L260.38,61.561L260.518,61.545L260.657,61.528L260.795,61.511L260.933,61.494L261.071,61.478L261.21,61.462L261.348,61.446L261.486,61.43L261.624,61.415L261.762,61.401L261.9,61.387L262.039,61.374L262.177,61.361L262.315,61.35L262.453,61.339L262.592,61.329L262.73,61.32L262.868,61.312L263.006,61.305L263.144,61.298L263.283,61.293L263.421,61.288L263.559,61.284L263.697,61.282L263.835,61.28L263.974,61.279L264.112,61.279L264.25,61.279L264.388,61.28L264.526,61.283L264.665,61.285L264.803,61.289L264.941,61.293L265.079,61.297L265.217,61.302L265.356,61.308L265.494,61.314L265.632,61.32L265.77,61.326L265.908,61.332L266.185,61.345L266.323,61.352L266.461,61.358L266.6,61.365L266.738,61.371L266.876,61.376L267.014,61.382L267.152,61.387L267.291,61.391L267.429,61.395L267.567,61.399L267.705,61.402L267.843,61.404L267.982,61.406L268.12,61.407L268.258,61.408L268.396,61.408L268.534,61.407L268.673,61.405L268.811,61.403L268.949,61.401L269.087,61.397L269.225,61.393L269.364,61.388L269.502,61.383L269.64,61.377L269.778,61.371L269.916,61.364L270.055,61.357L270.193,61.349L270.331,61.341L270.469,61.333L270.608,61.324L270.746,61.316L270.884,61.307L271.022,61.298L271.16,61.289L271.298,61.28L271.437,61.271L271.575,61.262L271.713,61.253L271.851,61.245L271.99,61.236L272.128,61.228L272.266,61.22L272.404,61.213L272.542,61.205L272.681,61.199L272.819,61.192L272.957,61.186L273.095,61.18L273.233,61.175L273.372,61.17L273.51,61.165L273.648,61.161L273.786,61.157L273.924,61.153L274.063,61.15L274.201,61.147L274.339,61.144L274.477,61.142L274.616,61.14L274.754,61.138L274.892,61.136L275.03,61.134L275.168,61.132L275.306,61.13L275.445,61.129L275.583,61.127L275.721,61.125L275.859,61.123L275.998,61.121L276.136,61.119L276.274,61.117L276.412,61.115L276.55,61.112L276.689,61.11L276.827,61.107L276.965,61.104L277.103,61.102L277.241,61.1L277.38,61.099L277.518,61.099L277.656,61.101L277.794,61.105L277.932,61.11L278.071,61.116L278.209,61.123L278.347,61.132L278.485,61.142L278.624,61.154L278.762,61.167L278.9,61.182L279.038,61.197L279.176,61.214L279.315,61.231L279.453,61.247L279.591,61.261L279.729,61.273L279.867,61.28L280.006,61.284L280.144,61.285L280.282,61.282L280.42,61.277L280.558,61.269L280.697,61.26L280.835,61.249L280.973,61.237L281.111,61.226L281.249,61.214L281.388,61.205L281.526,61.198L281.664,61.196L281.802,61.202L281.94,61.217L282.079,61.243L282.217,61.28L282.355,61.328L282.493,61.386L282.631,61.455L282.77,61.534L282.908,61.619L283.046,61.71L283.184,61.806L283.323,61.905L283.461,62.004L283.599,62.103L283.737,62.199L283.875,62.289L284.013,62.369L284.152,62.436L284.29,62.49L284.428,62.528L284.566,62.551L284.705,62.556L284.843,62.546L284.981,62.521L285.119,62.483L285.257,62.434L285.396,62.375L285.534,62.308L285.672,62.234L285.81,62.155L285.948,62.074L286.087,61.993L286.225,61.914L286.363,61.839L286.501,61.768L286.639,61.702L286.778,61.642L286.916,61.586L287.054,61.535L287.192,61.485L287.33,61.436L287.469,61.385L287.607,61.33L287.745,61.271L287.883,61.206L288.021,61.133L288.16,61.051L288.298,60.959L288.436,60.859L288.574,60.75L288.713,60.634L288.851,60.515L288.989,60.396L289.127,60.282L289.265,60.177L289.403,60.087L289.542,60.015L289.68,59.968L289.818,59.95L289.956,59.964L290.095,60.014L290.233,60.102L290.371,60.233L290.509,60.414L290.647,60.651L290.786,60.942L290.924,61.288L291.062,61.685L291.2,62.128L291.338,62.603L291.477,63.093L291.615,63.571L291.753,64.038L291.891,64.527L292.03,65.052L292.168,65.61L292.306,66.122L292.444,66.467L292.582,66.594L292.72,66.547L292.859,66.532L292.997,66.788L293.135,67.473L293.273,68.628L293.411,69.997L293.55,71.228L293.688,71.929L293.826,71.696L293.964,70.482L294.103,68.447L294.241,65.878L294.379,63.207L294.517,60.57L294.655,57.947L294.794,55.345L294.932,52.765L295.07,50.492L295.208,48.958L295.346,48.413L295.485,48.943L295.623,50.355L295.761,52.18L295.899,54.021L296.037,55.627L296.176,56.848L296.314,57.793L296.452,58.616L296.59,59.352L296.728,60.052L296.867,60.664L297.005,61.076L297.143,61.276L297.281,61.283L297.419,61.141L297.558,60.955L297.696,60.805L297.834,60.729L297.972,60.745L298.111,60.849L298.249,61.023L298.387,61.246L298.525,61.501L298.663,61.761L298.802,61.989L298.94,62.167L299.078,62.287L299.216,62.347L299.354,62.357L299.493,62.33L299.631,62.272L299.769,62.198L299.907,62.123L300.045,62.057L300.184,62.004L300.322,61.967L300.46,61.945L300.598,61.938L300.736,61.945L300.875,61.967L301.013,62.002L301.151,62.047L301.289,62.103L301.427,62.166L301.566,62.237L301.704,62.315L301.842,62.397L301.98,62.482L302.119,62.568L302.257,62.653L302.395,62.738L302.533,62.82L302.671,62.899L302.81,62.975L302.948,63.046L303.086,63.113L303.224,63.175L303.362,63.233L303.501,63.286L303.639,63.337L303.777,63.385L303.915,63.431L304.053,63.476L304.192,63.522L304.33,63.569L304.468,63.618L304.606,63.669L304.744,63.724L304.883,63.782L305.021,63.843L305.159,63.91L305.297,63.982L305.435,64.059L305.574,64.142L305.712,64.231L305.85,64.327L305.988,64.428L306.126,64.536L306.265,64.65L306.403,64.77L306.541,64.896L306.679,65.026L306.818,65.161L306.956,65.301L307.094,65.443L307.232,65.589L307.37,65.738L307.508,65.888L307.647,66.041L307.785,66.195L307.923,66.349L308.061,66.503L308.2,66.657L308.338,66.81L308.476,66.961L308.614,67.112L308.752,67.262L308.891,67.411L309.029,67.559L309.167,67.709L309.305,67.859L309.443,68.011L309.582,68.164L309.72,68.318L309.858,68.473L309.996,68.628L310.135,68.782L310.273,68.935L310.411,69.087L310.549,69.235L310.687,69.38L310.825,69.519L310.964,69.652L311.102,69.776L311.24,69.888L311.378,69.988L311.516,70.071L311.655,70.135L311.793,70.18L311.931,70.205L312.069,70.208L312.208,70.189L312.346,70.148L312.484,70.085L312.622,70L312.76,69.894L312.899,69.767L313.037,69.62L313.175,69.454L313.313,69.27L313.451,69.069L313.59,68.853L313.728,68.626L313.866,68.389L314.004,68.144L314.142,67.893L314.281,67.638L314.419,67.379L314.557,67.119L314.695,66.857L314.833,66.596L314.972,66.336L315.11,66.079L315.248,65.827L315.386,65.581L315.525,65.343L315.663,65.115L315.801,64.899L315.939,64.695L316.077,64.503L316.215,64.325L316.354,64.16L316.492,64.01L316.63,63.874L316.768,63.753L316.907,63.647L317.045,63.556L317.183,63.48L317.321,63.418L317.459,63.37L317.598,63.334L317.736,63.308L317.874,63.29L318.012,63.279L318.15,63.273L318.289,63.27L318.427,63.271L318.565,63.273L318.703,63.277L318.841,63.281L318.98,63.285L319.118,63.29L319.256,63.294L319.394,63.297L319.532,63.299L319.671,63.3L319.809,63.3L319.947,63.3L320.085,63.3L320.223,63.303L320.362,63.308L320.5,63.315L320.638,63.325L320.776,63.338L320.914,63.354L321.053,63.372L321.191,63.392L321.329,63.414L321.467,63.437L321.606,63.462L321.744,63.487L321.882,63.514L322.02,63.54L322.158,63.566L322.297,63.592L322.435,63.616L322.573,63.639L322.711,63.66L322.849,63.678L322.988,63.694L323.126,63.708L323.264,63.72L323.402,63.729L323.54,63.736L323.679,63.741L323.817,63.744L323.955,63.745L324.093,63.745L324.231,63.743L324.37,63.739L324.508,63.733L324.646,63.727L324.784,63.719L324.922,63.71L325.061,63.699L325.199,63.688L325.337,63.676L325.475,63.663L325.614,63.649L325.752,63.635L325.89,63.62L326.028,63.603L326.166,63.587L326.305,63.569L326.443,63.552L326.581,63.533L326.719,63.514L326.857,63.495L326.996,63.475L327.134,63.455L327.272,63.434L327.41,63.413L327.548,63.392L327.687,63.37L327.825,63.348L327.963,63.326L328.101,63.303L328.239,63.28L328.378,63.257L328.516,63.233L328.654,63.209L328.792,63.185L328.93,63.161L329.069,63.136L329.207,63.112L329.345,63.087L329.483,63.062L329.621,63.037L329.76,63.012L329.898,62.988L330.036,62.963L330.174,62.939L330.313,62.916L330.451,62.892L330.589,62.869L330.727,62.847L330.865,62.825L331.004,62.803L331.142,62.783L331.28,62.763L331.418,62.744L331.556,62.726L331.695,62.709L331.833,62.692L331.971,62.677L332.109,62.662L332.247,62.649L332.386,62.637L332.524,62.625L332.662,62.615L332.8,62.606L332.938,62.597L333.077,62.59L333.215,62.584L333.353,62.578L333.491,62.574L333.63,62.57L333.768,62.567L333.906,62.564L334.044,62.562L334.182,62.561L334.321,62.559L334.459,62.558L334.597,62.558L334.735,62.557L334.873,62.556L335.012,62.555L335.15,62.554L335.288,62.552L335.426,62.55L335.564,62.547L335.703,62.544L335.841,62.54L335.979,62.535L336.117,62.529L336.255,62.523L336.394,62.516L336.532,62.507L336.67,62.498L336.808,62.488L336.946,62.476L337.085,62.464L337.223,62.451L337.361,62.436L337.499,62.421L337.638,62.405L337.776,62.388L337.914,62.37L338.052,62.351L338.19,62.331L338.328,62.311L338.467,62.291L338.605,62.27L338.743,62.248L338.881,62.226L339.02,62.204L339.158,62.182L339.296,62.16L339.434,62.137L339.572,62.115L339.711,62.093L339.849,62.071L339.987,62.049L340.125,62.028L340.263,62.007L340.402,61.986L340.54,61.965L340.678,61.945L340.816,61.925L340.954,61.905L341.093,61.886L341.231,61.867L341.369,61.848L341.507,61.829L341.645,61.811L341.784,61.793L341.922,61.774L342.06,61.756L342.198,61.738L342.336,61.719L342.475,61.7L342.613,61.681L342.751,61.661L342.889,61.641L343.027,61.62L343.166,61.599L343.304,61.576L343.442,61.554L343.58,61.53L343.718,61.505L343.857,61.48L343.995,61.454L344.133,61.427L344.271,61.399L344.41,61.37L344.548,61.341L344.686,61.31L344.824,61.279L344.962,61.248L345.101,61.215L345.239,61.182L345.377,61.149L345.515,61.115L345.653,61.081L345.792,61.047L345.93,61.013L346.068,60.979L346.206,60.946L346.345,60.913L346.483,60.88L346.621,60.849L346.759,60.818L346.897,60.789L347.035,60.762L347.174,60.736L347.312,60.711L347.45,60.689L347.588,60.668L347.726,60.649L347.865,60.632L348.003,60.615L348.141,60.6L348.279,60.585L348.417,60.571L348.556,60.557L348.694,60.544L348.832,60.53L348.97,60.517L349.109,60.503L349.247,60.489L349.385,60.474L349.523,60.46L349.661,60.445L349.8,60.43L349.938,60.417L350.076,60.405L350.214,60.396L350.352,60.389L350.491,60.386L350.629,60.387L350.767,60.391L350.905,60.4L351.044,60.411L351.182,60.427L351.32,60.445L351.458,60.465L351.596,60.487L351.734,60.51L351.873,60.532L352.011,60.553L352.149,60.57L352.287,60.581L352.425,60.586L352.564,60.583L352.702,60.57L352.84,60.547L352.978,60.514L353.116,60.47L353.255,60.415L353.393,60.349L353.531,60.275L353.669,60.191L353.808,60.101L353.946,60.004L354.084,59.903L354.222,59.799L354.36,59.694L354.499,59.589L354.637,59.487L354.775,59.388L354.913,59.294L355.051,59.206L355.19,59.123L355.328,59.045L355.466,58.972L355.604,58.902L355.743,58.835L355.881,58.767L356.019,58.699L356.157,58.629L356.295,58.554L356.433,58.473L356.572,58.385L356.71,58.289L356.848,58.186L356.986,58.073L357.125,57.954L357.263,57.83L357.401,57.705L357.539,57.582L357.677,57.466L357.816,57.361L357.954,57.269L358.092,57.198L358.23,57.15L358.368,57.131L358.507,57.144L358.645,57.191L358.783,57.278L358.921,57.411L359.059,57.599L359.198,57.841L359.336,58.138L359.474,58.485L359.612,58.875L359.75,59.297L359.889,59.736L360.027,60.164L360.165,60.58L360.303,61.015L360.441,61.491L360.58,62.012L360.718,62.513L360.856,62.859L360.994,62.967L361.133,62.885L361.271,62.813L361.409,63.024L361.547,63.741L361.685,64.962L361.823,66.418L361.962,67.713L362.1,68.41L362.238,68.186L362.376,66.965L362.515,64.845L362.653,62.015L362.791,58.757L362.929,55.354L363.067,52.063L363.206,49.21L363.344,47.103L363.482,45.94L363.62,45.815L363.758,46.626L363.897,48.06L364.035,49.73L364.173,51.28L364.311,52.463L364.449,53.245L364.588,53.759L364.726,54.181L364.864,54.628L365.002,55.115L365.141,55.565L365.279,55.866L365.417,55.979L365.555,55.94L365.693,55.813L365.831,55.694L365.97,55.645L366.108,55.679L366.246,55.796L366.384,55.987L366.523,56.228L366.661,56.502L366.799,56.788L366.937,57.055L367.075,57.283L367.214,57.464L367.352,57.594L367.49,57.677L367.628,57.722L367.766,57.736L367.905,57.729L368.043,57.714L368.181,57.699L368.319,57.689L368.457,57.687L368.596,57.693L368.734,57.705L368.872,57.724L369.01,57.749L369.149,57.778L369.287,57.81L369.425,57.845L369.563,57.881L369.701,57.919L369.978,57.995L370.116,58.032L370.254,58.068L370.392,58.101L370.53,58.13L370.669,58.156L370.807,58.178L370.945,58.196L371.083,58.211L371.221,58.222L371.36,58.232L371.498,58.24L371.636,58.249L371.774,58.26L371.913,58.273L372.051,58.291L372.189,58.314L372.327,58.344L372.465,58.38L372.604,58.426L372.742,58.48L372.88,58.545L373.018,58.62L373.156,58.705L373.295,58.801L373.433,58.908L373.571,59.025L373.709,59.151L373.848,59.286L373.986,59.427L374.124,59.576L374.262,59.729L374.4,59.889L374.538,60.052L374.677,60.219L374.815,60.39L374.953,60.562L375.091,60.737L375.229,60.913L375.368,61.09L375.506,61.267L375.644,61.444L375.782,61.621L375.921,61.798L376.059,61.974L376.335,62.327L376.473,62.503L376.612,62.679L376.75,62.854L376.888,63.028L377.026,63.2L377.164,63.371L377.303,63.539L377.441,63.705L377.579,63.868L377.717,64.029L377.855,64.189L377.994,64.347L378.132,64.504L378.27,64.659L378.408,64.812L378.547,64.962L378.685,65.109L378.823,65.253L378.961,65.394L379.099,65.531L379.237,65.663L379.376,65.792L379.514,65.915L379.652,66.033L379.79,66.144L379.928,66.245L380.067,66.335L380.205,66.411L380.343,66.472L380.481,66.516L380.62,66.542L380.758,66.548L380.896,66.534L381.034,66.499L381.172,66.443L381.311,66.364L381.449,66.262L381.587,66.136L381.725,65.986L381.863,65.812L382.002,65.615L382.14,65.397L382.278,65.161L382.416,64.91L382.554,64.645L382.693,64.371L382.831,64.089L382.969,63.802L383.107,63.513L383.246,63.222L383.384,62.934L383.522,62.651L383.66,62.374L383.798,62.109L383.936,61.856L384.075,61.619L384.213,61.398L384.351,61.196L384.489,61.011L384.628,60.845L384.766,60.697L384.904,60.566L385.042,60.451L385.18,60.352L385.319,60.267L385.457,60.197L385.595,60.141L385.733,60.096L385.871,60.062L386.01,60.036L386.148,60.016L386.286,60.002L386.424,59.991L386.562,59.983L386.701,59.975L386.839,59.968L386.977,59.96L387.115,59.951L387.253,59.941L387.392,59.93L387.53,59.919L387.668,59.906L387.806,59.891L387.945,59.876L388.083,59.859L388.221,59.842L388.359,59.825L388.497,59.807L388.636,59.79L388.774,59.773L388.912,59.758L389.05,59.746L389.188,59.736L389.326,59.729L389.465,59.726L389.603,59.725L389.741,59.728L389.879,59.734L390.018,59.743L390.156,59.754L390.294,59.769L390.432,59.786L390.57,59.806L390.709,59.83L390.847,59.857L390.985,59.886L391.123,59.918L391.261,59.951L391.4,59.985L391.538,60.019L391.676,60.054L391.814,60.089L391.953,60.123L392.091,60.157L392.229,60.19L392.367,60.223L392.505,60.256L392.644,60.288L392.782,60.319L392.92,60.349L393.058,60.377L393.196,60.404L393.335,60.43L393.473,60.456L393.611,60.48L393.749,60.504L393.887,60.528L394.026,60.552L394.302,60.599L394.44,60.623L394.578,60.646L394.717,60.669L394.855,60.692L395.131,60.739L395.269,60.762L395.408,60.785L395.546,60.808L395.822,60.854L395.96,60.878L396.099,60.901L396.237,60.924L396.375,60.947L396.513,60.969L396.79,61.015L396.928,61.038L397.066,61.06L397.204,61.083L397.343,61.106L397.481,61.129L397.619,61.153L397.757,61.176L397.895,61.199L398.033,61.223L398.172,61.247L398.31,61.27L398.448,61.294L398.586,61.318L398.725,61.342L398.863,61.366L399.001,61.39L399.139,61.414L399.277,61.439L399.416,61.463L399.554,61.487L399.692,61.512L399.83,61.536L399.968,61.561L400.107,61.586L400.245,61.61L400.383,61.635L400.521,61.66L400.659,61.685L400.798,61.71L400.936,61.735L401.074,61.761L401.212,61.786L401.351,61.811L401.489,61.837L401.627,61.862L401.765,61.888L401.903,61.914L402.042,61.939L402.18,61.965L402.318,61.991L402.456,62.017L402.732,62.069L403.009,62.12L403.147,62.146L403.285,62.172L403.424,62.198L403.562,62.224L403.7,62.249L403.838,62.275L403.976,62.3L404.115,62.326L404.253,62.351L404.391,62.376L404.529,62.4L404.667,62.425L404.806,62.449L404.944,62.473L405.082,62.496L405.22,62.519L405.358,62.541L405.497,62.563L405.635,62.584L405.773,62.604L405.911,62.624L406.05,62.643L406.188,62.662L406.326,62.679L406.464,62.696L406.602,62.712L406.741,62.727L406.879,62.741L407.017,62.755L407.155,62.767L407.293,62.779L407.431,62.79L407.57,62.8L407.708,62.809L407.846,62.817L407.984,62.824L408.123,62.831L408.261,62.837L408.399,62.842L408.537,62.846L408.675,62.849L408.814,62.852L408.952,62.854L409.09,62.856L409.228,62.857L409.366,62.857L409.505,62.857L409.643,62.856L409.781,62.855L409.919,62.854L410.058,62.853L410.196,62.852L410.334,62.85L410.472,62.849L410.61,62.848L410.748,62.847L410.887,62.847L411.025,62.846L411.163,62.846L411.301,62.846L411.439,62.846L411.578,62.847L411.716,62.848L411.854,62.849L411.992,62.851L412.131,62.853L412.269,62.856L412.407,62.86L412.545,62.864L412.683,62.869L412.822,62.876L412.96,62.884L413.098,62.894L413.236,62.907L413.374,62.922L413.513,62.94L413.651,62.961L413.789,62.985L413.927,63.012L414.065,63.042L414.204,63.076L414.342,63.113L414.48,63.153L414.618,63.195L414.756,63.24L414.895,63.286L415.033,63.334L415.171,63.382L415.309,63.429L415.448,63.475L415.586,63.52L415.724,63.563L415.862,63.603L416,63.641L416.138,63.675L416.277,63.706L416.415,63.735L416.553,63.761L416.691,63.785L416.83,63.808L416.968,63.832L417.106,63.857L417.244,63.884L417.382,63.916L417.521,63.953L417.659,63.997L417.797,64.049L417.935,64.11L418.073,64.182L418.212,64.265L418.35,64.361L418.488,64.47L418.626,64.593L418.764,64.729L418.903,64.879L419.041,65.04L419.179,65.211L419.317,65.391L419.455,65.577L419.594,65.769L419.732,65.963L419.87,66.158L420.008,66.352L420.147,66.542L420.285,66.725L420.423,66.898L420.561,67.057L420.699,67.201L420.837,67.327L420.976,67.432L421.114,67.516L421.252,67.577L421.39,67.617L421.529,67.634L421.667,67.629L421.805,67.603L421.943,67.555L422.081,67.487L422.22,67.4L422.358,67.296L422.496,67.178L422.634,67.048L422.772,66.91L422.911,66.767L423.049,66.621L423.187,66.477L423.325,66.336L423.463,66.199L423.602,66.068L423.74,65.944L423.878,65.828L424.016,65.72L424.155,65.622L424.293,65.533L424.431,65.453L424.569,65.382L424.707,65.318L424.846,65.26L424.984,65.208L425.122,65.158L425.26,65.11L425.398,65.061L425.536,65.012L425.675,64.964L425.813,64.919L425.951,64.878L426.089,64.844L426.228,64.817L426.366,64.801L426.504,64.797L426.642,64.808L426.78,64.836L426.919,64.882L427.057,64.947L427.195,65.037L427.333,65.157L427.471,65.315L427.61,65.511L427.748,65.748L427.886,66.025L428.024,66.339L428.163,66.679L428.301,67.029L428.439,67.368L428.577,67.695L428.715,68.043L428.854,68.43L428.992,68.853L429.13,69.236L429.268,69.473L429.406,69.51L429.545,69.382L429.683,69.287L429.821,69.454L429.959,70.045L430.097,71.132L430.235,72.487L430.374,73.766L430.512,74.58L430.65,74.511L430.788,73.462L430.927,71.557L431.065,69.04L431.203,66.28L431.341,63.478L431.479,60.739L431.618,58.191L431.756,55.986L431.894,54.365L432.032,53.503L432.17,53.442L432.309,54.089L432.447,55.22L432.585,56.642L432.723,58.179L432.861,59.638L433,60.89L433.138,61.844L433.276,62.481L433.414,62.909L433.553,63.236L433.691,63.522L433.829,63.771L433.967,63.913L434.105,63.914L434.244,63.798L434.382,63.63L434.52,63.498L434.658,63.448L434.796,63.485L434.935,63.599L435.073,63.766L435.211,63.964L435.349,64.176L435.487,64.372L435.626,64.529L435.764,64.639L435.902,64.697L436.04,64.71L436.178,64.688L436.317,64.639L436.455,64.573L436.593,64.505L436.731,64.445L436.869,64.398L437.008,64.368L437.146,64.355L437.284,64.356L437.422,64.372L437.561,64.402L437.699,64.442L437.837,64.492L437.975,64.549L438.113,64.611L438.251,64.679L438.39,64.75L438.528,64.823L438.666,64.896L438.804,64.968L438.943,65.038L439.081,65.104L439.219,65.166L439.357,65.222L439.495,65.272L439.634,65.315L439.772,65.352L439.91,65.383L440.048,65.408L440.186,65.428L440.325,65.443L440.463,65.454L440.601,65.461L440.739,65.467L440.877,65.47L441.016,65.471L441.154,65.47L441.292,65.468L441.43,65.464L441.568,65.461L441.707,65.457L441.845,65.454L441.983,65.453L442.121,65.455L442.26,65.46L442.398,65.47L442.536,65.486L442.674,65.507L442.812,65.535L442.95,65.571L443.089,65.614L443.227,65.665L443.365,65.727L443.503,65.798L443.642,65.88L443.78,65.972L443.918,66.074L444.056,66.185L444.194,66.305L444.333,66.433L444.471,66.566L444.609,66.704L444.747,66.845L444.885,66.988L445.024,67.133L445.162,67.278L445.3,67.423L445.438,67.567L445.576,67.709L445.715,67.848L445.853,67.984L445.991,68.118L446.129,68.248L446.268,68.375L446.406,68.5L446.544,68.621L446.682,68.74L446.82,68.857L446.958,68.973L447.097,69.085L447.235,69.195L447.373,69.301L447.511,69.403L447.65,69.5L447.788,69.591L447.926,69.675L448.064,69.749L448.202,69.813L448.341,69.864L448.479,69.902L448.617,69.924L448.755,69.929L448.893,69.915L449.032,69.881L449.17,69.826L449.308,69.751L449.446,69.654L449.584,69.535L449.723,69.394L449.861,69.232L449.999,69.047L450.137,68.841L450.275,68.615L450.414,68.369L450.552,68.106L450.69,67.826L450.828,67.534L450.966,67.23L451.105,66.918L451.243,66.599L451.381,66.276L451.519,65.949L451.658,65.622L451.796,65.297L451.934,64.975L452.072,64.66L452.21,64.354L452.349,64.061L452.487,63.782L452.625,63.52L452.763,63.275L452.901,63.05L453.039,62.843L453.178,62.655L453.316,62.486L453.454,62.335L453.592,62.203L453.731,62.088L453.869,61.99L454.007,61.908L454.145,61.841L454.283,61.788L454.422,61.745L454.56,61.711L454.698,61.684L454.836,61.66L454.974,61.639L455.113,61.619L455.251,61.6L455.389,61.581L455.527,61.563L455.666,61.544L455.804,61.524L455.942,61.504L456.08,61.484L456.218,61.463L456.357,61.442L456.495,61.421L456.633,61.4L456.771,61.381L456.909,61.365L457.048,61.352L457.186,61.343L457.324,61.338L457.462,61.337L457.6,61.339L457.739,61.345L457.877,61.354L458.015,61.366L458.153,61.379L458.291,61.394L458.43,61.409L458.568,61.426L458.706,61.442L458.844,61.459L458.982,61.475L459.121,61.489L459.259,61.501L459.397,61.511L459.535,61.518L459.673,61.523L459.812,61.525L459.95,61.524L460.088,61.52L460.226,61.514L460.365,61.505L460.503,61.495L460.641,61.482L460.779,61.467L460.917,61.45L461.056,61.431L461.194,61.411L461.332,61.389L461.47,61.366L461.608,61.342L461.746,61.317L461.885,61.291L462.023,61.264L462.161,61.238L462.299,61.21L462.438,61.183L462.576,61.155L462.714,61.128L462.852,61.1L462.99,61.073L463.129,61.045L463.267,61.019L463.405,60.992L463.543,60.967L463.681,60.942L463.82,60.917L463.958,60.893L464.096,60.87L464.234,60.848L464.372,60.826L464.511,60.805L464.649,60.784L464.787,60.764L464.925,60.745L465.063,60.727L465.202,60.708L465.34,60.691L465.478,60.673L465.616,60.656L465.755,60.639L465.893,60.623L466.031,60.607L466.169,60.591L466.307,60.574L466.446,60.558L466.584,60.542L466.722,60.526L466.86,60.51L466.998,60.494L467.137,60.478L467.275,60.461L467.413,60.445L467.551,60.428L467.689,60.411L467.828,60.394L467.966,60.377L468.104,60.36L468.242,60.343L468.38,60.326L468.519,60.309L468.657,60.292L468.795,60.275L468.933,60.258L469.071,60.242L469.21,60.226L469.348,60.21L469.486,60.195L469.624,60.18L469.763,60.166L469.901,60.152L470.039,60.139L470.177,60.127L470.315,60.115L470.453,60.105L470.592,60.094L470.73,60.085L470.868,60.076L471.006,60.069L471.145,60.062L471.283,60.055L471.421,60.05L471.559,60.045L471.697,60.041L471.836,60.038L471.974,60.035L472.112,60.033L472.25,60.032L472.388,60.031L472.527,60.03L472.665,60.03L472.803,60.03L472.941,60.03L473.079,60.03L473.356,60.031L473.494,60.032L473.632,60.032L473.77,60.032L473.909,60.032L474.047,60.031L474.185,60.031L474.323,60.03L474.461,60.028L474.6,60.026L474.738,60.024L474.876,60.021L475.014,60.017L475.153,60.013L475.291,60.008L475.429,60.003L475.567,59.997L475.705,59.99L475.844,59.983L475.982,59.975L476.12,59.967L476.258,59.958L476.396,59.948L476.535,59.938L476.673,59.927L476.811,59.916L476.949,59.904L477.087,59.892L477.226,59.88L477.364,59.867L477.502,59.854L477.64,59.841L477.778,59.827L477.917,59.814L478.055,59.8L478.193,59.785L478.331,59.771L478.47,59.756L478.608,59.741L478.746,59.726L478.884,59.711L479.022,59.696L479.161,59.681L479.299,59.665L479.437,59.65L479.575,59.635L479.713,59.62L479.852,59.605L479.99,59.59L480.128,59.576L480.266,59.561L480.404,59.547L480.543,59.534L480.681,59.52L480.819,59.507L480.957,59.495L481.095,59.482L481.234,59.471L481.372,59.46L481.51,59.45L481.648,59.44L481.786,59.432L481.925,59.424L482.063,59.417L482.201,59.412L482.339,59.408L482.477,59.405L482.616,59.404L482.754,59.405L482.892,59.407L483.03,59.41L483.169,59.415L483.307,59.421L483.445,59.428L483.583,59.436L483.721,59.443L483.86,59.45L483.998,59.457L484.136,59.464L484.274,59.47L484.412,59.476L484.551,59.481L484.689,59.484L484.827,59.487L484.965,59.49L485.103,59.492L485.242,59.494L485.38,59.497L485.518,59.501L485.656,59.509L485.794,59.519L485.933,59.534L486.071,59.554L486.209,59.578L486.347,59.606L486.485,59.639L486.624,59.676L486.762,59.717L486.9,59.761L487.038,59.808L487.176,59.856L487.315,59.905L487.453,59.953L487.591,59.999L487.729,60.041L487.868,60.076L488.006,60.103L488.144,60.122L488.282,60.13L488.42,60.129L488.558,60.118L488.697,60.096L488.835,60.065L488.973,60.025L489.111,59.977L489.25,59.922L489.388,59.861L489.526,59.795L489.664,59.726L489.802,59.654L489.941,59.583L490.079,59.513L490.217,59.446L490.355,59.382L490.493,59.323L490.632,59.267L490.77,59.214L490.908,59.164L491.046,59.115L491.184,59.065L491.323,59.015L491.461,58.962L491.599,58.904L491.737,58.842L491.876,58.774L492.014,58.701L492.152,58.621L492.29,58.535L492.428,58.444L492.566,58.352L492.705,58.262L492.843,58.181L492.981,58.113L493.119,58.061L493.258,58.028L493.396,58.019L493.534,58.037L493.672,58.085L493.81,58.158L493.948,58.259L494.087,58.391L494.225,58.564L494.363,58.787L494.501,59.054L494.64,59.333L494.778,59.625L494.916,59.956L495.054,60.365L495.192,60.929L495.331,61.637L495.469,62.407L495.607,63.146L495.745,63.715L495.883,64.044L496.022,64.127L496.16,63.991L496.298,63.721L496.436,63.486L496.575,63.516L496.713,63.991L496.851,65.06L496.989,66.64L497.127,68.344L497.265,69.749L497.404,70.347L497.542,69.782L497.68,68.126L497.818,65.597L497.956,62.552L498.095,59.404L498.233,56.325L498.371,53.446L498.509,50.934L498.648,48.917L498.786,47.613L498.924,47.16L499.062,47.55L499.2,48.673L499.339,50.249L499.477,51.994L499.615,53.641L499.753,54.969L499.891,55.952L500.03,56.637L500.168,57.138L500.306,57.584L500.444,57.999L500.582,58.35L500.721,58.583L500.859,58.671L500.997,58.649L501.135,58.59L501.273,58.577L501.412,58.651L501.55,58.818L501.688,59.067L501.826,59.372L501.965,59.703L502.103,60.04L502.241,60.349L502.379,60.608L502.517,60.808L502.656,60.945L502.794,61.025L502.932,61.058L503.07,61.052L503.208,61.02L503.347,60.978L503.485,60.937L503.623,60.902L503.761,60.878L503.899,60.866L504.038,60.865L504.176,60.878L504.314,60.905L504.452,60.944L504.59,60.995L504.729,61.058L504.867,61.13L505.005,61.212L505.143,61.303L505.281,61.4L505.42,61.502L505.558,61.605L505.696,61.71L505.834,61.814L505.972,61.915L506.111,62.014L506.249,62.109L506.387,62.198L506.525,62.282L506.664,62.361L506.802,62.433L506.94,62.5L507.078,62.563L507.216,62.622L507.355,62.677L507.493,62.73L507.631,62.783L507.769,62.835L507.907,62.888L508.046,62.943L508.184,62.998L508.322,63.055L508.46,63.114L508.598,63.174L508.737,63.236L508.875,63.299L509.013,63.364L509.151,63.431L509.289,63.499L509.428,63.569L509.566,63.64L509.704,63.712L509.842,63.786L509.98,63.861L510.119,63.938L510.257,64.017L510.395,64.099L510.533,64.187L510.671,64.279L510.81,64.377L510.948,64.482L511.086,64.595L511.224,64.716L511.363,64.846L511.501,64.986L511.639,65.135L511.777,65.293L511.915,65.46L512.054,65.638L512.192,65.827L512.33,66.025L512.468,66.231L512.606,66.445L512.745,66.666L512.883,66.891L513.021,67.119L513.159,67.349L513.297,67.578L513.436,67.804L513.574,68.026L513.712,68.242L513.85,68.451L513.988,68.649L514.127,68.836L514.265,69.007L514.403,69.162L514.541,69.298L514.68,69.414L514.818,69.509L514.956,69.582L515.094,69.631L515.232,69.658L515.371,69.661L515.509,69.641L515.647,69.599L515.785,69.535L515.923,69.451L516.061,69.346L516.2,69.222L516.338,69.08L516.476,68.923L516.614,68.752L516.753,68.568L516.891,68.372L517.029,68.167L517.167,67.953L517.305,67.731L517.444,67.504L517.582,67.271L517.72,67.032L517.858,66.79L517.996,66.545L518.135,66.297L518.273,66.047L518.411,65.797L518.549,65.547L518.687,65.298L518.826,65.051L518.964,64.808L519.102,64.572L519.24,64.342L519.379,64.121L519.517,63.91L519.655,63.709L519.793,63.519L519.931,63.342L520.069,63.178L520.208,63.028L520.346,62.893L520.484,62.771L520.622,62.664L520.76,62.57L520.899,62.49L521.037,62.421L521.175,62.363L521.313,62.313L521.452,62.27L521.59,62.232L521.728,62.198L521.866,62.167L522.004,62.139L522.143,62.112L522.281,62.086L522.419,62.061L522.557,62.036L522.695,62.011L522.834,61.986L522.972,61.961L523.11,61.935L523.248,61.911L523.386,61.887L523.525,61.867L523.663,61.849L523.801,61.836L523.939,61.826L524.078,61.82L524.216,61.819L524.354,61.822L524.492,61.828L524.63,61.838L524.769,61.851L524.907,61.867L525.045,61.885L525.183,61.905L525.321,61.927L525.459,61.95L525.598,61.974L525.736,61.997L525.874,62.019L526.012,62.041L526.151,62.061L526.289,62.079L526.427,62.095L526.565,62.109L526.703,62.122L526.842,62.132L526.98,62.14L527.118,62.147L527.256,62.152L527.394,62.155L527.533,62.156L527.671,62.155L527.809,62.152L527.947,62.148L528.086,62.142L528.224,62.135L528.362,62.126L528.5,62.115L528.638,62.104L528.777,62.091L528.915,62.077L529.053,62.061L529.191,62.045L529.329,62.028L529.467,62.01L529.606,61.991L529.744,61.971L529.882,61.951L530.02,61.93L530.159,61.909L530.297,61.888L530.435,61.866L530.573,61.845L530.711,61.823L530.85,61.802L530.988,61.781L531.126,61.76L531.264,61.739L531.402,61.719L531.541,61.699L531.679,61.68L531.817,61.661L531.955,61.642L532.093,61.624L532.232,61.607L532.37,61.591L532.508,61.575L532.646,61.559L532.785,61.545L532.923,61.531L533.061,61.517L533.199,61.505L533.337,61.493L533.476,61.482L533.614,61.471L533.752,61.462L533.89,61.453L534.028,61.444L534.166,61.436L534.305,61.429L534.443,61.422L534.581,61.416L534.719,61.41L534.858,61.405L534.996,61.4L535.134,61.395L535.272,61.39L535.41,61.386L535.549,61.382L535.687,61.379L535.825,61.375L535.963,61.372L536.101,61.369L536.24,61.365L536.378,61.362L536.516,61.359L536.654,61.356L536.792,61.353L536.931,61.349L537.069,61.346L537.207,61.342L537.345,61.339L537.484,61.335L537.622,61.331L537.76,61.327L537.898,61.322L538.036,61.317L538.175,61.312L538.313,61.307L538.451,61.301L538.589,61.295L538.727,61.289L538.865,61.282L539.004,61.275L539.142,61.267L539.28,61.259L539.418,61.251L539.557,61.243L539.695,61.234L539.833,61.225L539.971,61.215L540.109,61.205L540.248,61.195L540.386,61.185L540.524,61.174L540.662,61.163L540.8,61.152L540.939,61.141L541.077,61.13L541.215,61.118L541.353,61.107L541.491,61.095L541.63,61.084L541.768,61.072L541.906,61.061L542.044,61.049L542.183,61.038L542.321,61.027L542.459,61.016L542.597,61.005L542.735,60.995L542.874,60.986L543.012,60.976L543.15,60.968L543.288,60.959L543.426,60.952L543.564,60.945L543.703,60.938L543.841,60.932L543.979,60.927L544.117,60.922L544.256,60.918L544.394,60.915L544.532,60.913L544.67,60.911L544.808,60.91L544.947,60.909L545.085,60.91L545.223,60.911L545.361,60.912L545.499,60.914L545.638,60.917L545.776,60.92L545.914,60.924L546.052,60.928L546.191,60.932L546.329,60.937L546.467,60.942L546.605,60.947L546.743,60.952L546.882,60.956L547.02,60.961L547.158,60.966L547.296,60.97L547.573,60.979L547.711,60.983L547.849,60.989L547.987,60.994L548.125,61.001L548.264,61.01L548.402,61.019L548.54,61.03L548.678,61.043L548.816,61.057L548.955,61.073L549.093,61.09L549.231,61.109L549.369,61.128L549.507,61.149L549.646,61.17L549.784,61.192L549.922,61.212L550.06,61.231L550.198,61.247L550.337,61.259L550.475,61.267L550.613,61.27L550.751,61.268L550.89,61.26L551.028,61.246L551.166,61.227L551.304,61.203L551.442,61.175L551.581,61.144L551.719,61.111L551.857,61.077L551.995,61.043L552.133,61.012L552.272,60.984L552.41,60.962L552.548,60.948L552.686,60.945L552.824,60.955L552.962,60.978L553.101,61.015L553.239,61.068L553.377,61.136L553.515,61.218L553.654,61.313L553.792,61.421L553.93,61.539L554.068,61.665L554.206,61.798L554.345,61.935L554.483,62.074L554.621,62.212L554.759,62.345L554.897,62.47L555.036,62.583L555.174,62.681L555.312,62.762L555.45,62.824L555.589,62.866L555.727,62.888L555.865,62.89L556.003,62.872L556.141,62.835L556.28,62.781L556.418,62.71L556.556,62.623L556.694,62.522L556.832,62.41L556.971,62.289L557.109,62.161L557.247,62.031L557.385,61.902L557.523,61.775L557.662,61.653L557.8,61.536L557.938,61.426L558.076,61.323L558.214,61.225L558.353,61.134L558.491,61.047L558.629,60.966L558.767,60.89L558.905,60.818L559.044,60.75L559.182,60.684L559.32,60.619L559.458,60.553L559.596,60.487L559.735,60.42L559.873,60.353L560.011,60.288L560.149,60.229L560.288,60.182L560.426,60.149L560.564,60.134L560.702,60.14L560.84,60.17L560.979,60.224L561.117,60.307L561.255,60.416L561.393,60.549L561.531,60.714L561.67,60.916L561.808,61.161L561.946,61.461L562.084,61.798L562.222,62.149L562.361,62.531L562.499,62.94L562.637,63.401L562.775,63.971L562.913,64.609L563.052,65.278L563.19,65.918L563.328,66.365L563.466,66.545L563.604,66.447L563.743,66.101L563.881,65.759L564.019,65.721L564.157,66.172L564.295,67.256L564.434,68.83L564.572,70.465L564.71,71.758L564.848,72.25L564.987,71.635L565.125,69.989L565.263,67.492L565.401,64.449L565.539,61.233L565.678,58.011L565.816,54.956L565.954,52.283L566.092,50.162L566.23,48.863L566.368,48.517L566.507,49.082L566.645,50.447L566.783,52.291L566.921,54.333L567.06,56.319L567.198,57.928L567.336,59.078L567.474,59.748L567.612,60.014L567.751,60.143L567.889,60.259L568.027,60.396L568.165,60.559L568.303,60.639L568.442,60.614L568.58,60.551L568.718,60.506L568.856,60.545L568.995,60.693L569.133,60.928L569.271,61.217L569.409,61.531L569.547,61.839L569.686,62.109L569.824,62.323L569.962,62.473L570.1,62.558L570.238,62.588L570.377,62.572L570.515,62.52L570.653,62.447L570.791,62.367L570.929,62.29L571.067,62.223L571.206,62.17L571.344,62.131L571.482,62.106L571.62,62.098L571.759,62.106L571.897,62.128L572.035,62.164L572.173,62.213L572.311,62.273L572.45,62.344L572.588,62.425L572.726,62.513L572.864,62.606L573.002,62.703L573.141,62.802L573.279,62.9L573.417,62.997L573.555,63.09L573.694,63.179L573.832,63.262L573.97,63.339L574.108,63.41L574.246,63.475L574.385,63.534L574.523,63.588L574.661,63.638L574.799,63.685L574.937,63.73L575.076,63.775L575.214,63.819L575.352,63.864L575.49,63.91L575.628,63.96L575.767,64.012L575.905,64.069L576.043,64.13L576.181,64.196L576.319,64.269L576.458,64.347L576.596,64.432L576.734,64.523L576.872,64.62L577.01,64.723L577.149,64.833L577.287,64.948L577.425,65.068L577.563,65.194L577.701,65.323L577.84,65.457L577.978,65.595L578.116,65.735L578.254,65.879L578.392,66.026L578.531,66.174L578.669,66.324L578.807,66.475L578.945,66.627L579.084,66.78L579.222,66.932L579.36,67.085L579.498,67.239L579.636,67.393L579.775,67.549L579.913,67.707L580.051,67.866L580.189,68.028L580.327,68.191L580.466,68.357L580.604,68.523L580.742,68.691L580.88,68.859L581.018,69.026L581.157,69.192L581.295,69.355L581.433,69.515L581.571,69.67L581.709,69.818L581.848,69.958L581.986,70.087L582.124,70.203L582.262,70.304L582.4,70.387L582.539,70.452L582.677,70.496L582.815,70.519L582.953,70.52L583.092,70.499L583.23,70.455L583.368,70.389L583.506,70.3L583.644,70.188L583.783,70.055L583.921,69.899L584.059,69.722L584.197,69.526L584.335,69.311L584.474,69.079L584.612,68.833L584.75,68.575L584.888,68.308L585.026,68.032L585.165,67.749L585.303,67.46L585.441,67.168L585.579,66.873L585.717,66.577L585.856,66.283L585.994,65.992L586.132,65.707L586.27,65.431L586.408,65.167L586.547,64.916L586.685,64.679L586.823,64.457L586.961,64.249L587.1,64.057L587.238,63.882L587.376,63.722L587.514,63.579L587.652,63.453L587.791,63.342L587.929,63.248L588.067,63.169L588.205,63.104L588.343,63.05L588.482,63.004L588.62,62.965L588.758,62.929L588.896,62.895L589.034,62.862L589.173,62.83L589.311,62.798L589.449,62.765L589.587,62.73L589.725,62.693L589.864,62.654L590.002,62.613L590.14,62.569L590.278,62.522L590.416,62.472L590.555,62.421L590.693,62.371L590.831,62.323L590.969,62.278L591.107,62.237L591.246,62.2L591.384,62.169L591.522,62.142L591.66,62.12L591.799,62.103L591.937,62.091L592.075,62.082L592.213,62.078L592.351,62.078L592.49,62.082L592.628,62.091L592.766,62.102L592.904,62.115L593.042,62.13L593.181,62.144L593.319,62.159L593.457,62.172L593.595,62.185L593.733,62.196L593.872,62.206L594.01,62.214L594.148,62.221L594.286,62.226L594.424,62.23L594.563,62.232L594.701,62.232L594.839,62.23L594.977,62.226L595.115,62.22L595.254,62.213L595.392,62.204L595.53,62.193L595.668,62.181L595.806,62.168L595.945,62.153L596.083,62.137L596.221,62.12L596.359,62.102L596.497,62.082L596.636,62.061L596.774,62.039L596.912,62.016L597.05,61.991L597.189,61.966L597.327,61.94L597.465,61.914L597.603,61.887L597.741,61.859L597.88,61.831L598.018,61.803L598.156,61.774L598.294,61.745L598.432,61.717L598.571,61.688L598.709,61.66L598.847,61.633L598.985,61.605L599.123,61.579L599.262,61.553L599.4,61.527L599.538,61.503L599.676,61.479L599.814,61.457L599.953,61.435L600.091,61.415L600.229,61.396L600.367,61.378L600.505,61.361L600.644,61.346L600.782,61.332L600.92,61.319L601.058,61.308L601.197,61.298L601.335,61.29L601.473,61.283L601.611,61.278L601.749,61.274L601.887,61.271L602.026,61.27L602.164,61.27L602.302,61.271L602.44,61.274L602.579,61.277L602.717,61.281L602.855,61.287L602.993,61.293L603.131,61.3L603.27,61.308L603.408,61.316L603.546,61.325L603.684,61.334L603.822,61.344L603.961,61.354L604.099,61.364L604.237,61.374L604.375,61.385L604.513,61.395L604.652,61.405L604.79,61.415L604.928,61.425L605.066,61.435L605.204,61.444L605.343,61.453L605.481,61.461L605.619,61.469L605.757,61.476L605.896,61.483L606.034,61.488L606.172,61.493L606.31,61.498L606.448,61.501L606.587,61.504L606.725,61.506L606.863,61.507L607.001,61.508L607.139,61.507L607.278,61.506L607.416,61.505L607.554,61.502L607.692,61.499L607.83,61.496L607.969,61.491L608.107,61.487L608.245,61.481L608.383,61.476L608.521,61.47L608.66,61.463L608.798,61.457L608.936,61.45L609.074,61.443L609.212,61.435L609.351,61.428L609.489,61.42L609.627,61.412L609.765,61.405L609.904,61.397L610.042,61.389L610.18,61.382L610.318,61.375L610.456,61.368L610.595,61.361L610.733,61.354L610.871,61.348L611.009,61.342L611.147,61.336L611.286,61.33L611.424,61.325L611.562,61.32L611.7,61.315L611.838,61.311L611.977,61.307L612.115,61.303L612.253,61.299L612.391,61.296L612.529,61.292L612.668,61.289L612.806,61.286L612.944,61.282L613.082,61.279L613.22,61.275L613.359,61.271L613.497,61.267L613.635,61.263L613.773,61.259L613.911,61.255L614.05,61.25L614.188,61.245L614.326,61.24L614.464,61.235L614.603,61.229L614.741,61.223L614.879,61.216L615.017,61.21L615.155,61.204L615.294,61.198L615.432,61.192L615.57,61.188L615.708,61.184L615.846,61.181L615.985,61.179L616.123,61.178L616.261,61.177L616.399,61.176L616.537,61.176L616.676,61.178L616.814,61.18L616.952,61.183L617.09,61.187L617.228,61.192L617.367,61.197L617.505,61.201L617.643,61.204L617.781,61.205L617.919,61.203L618.058,61.199L618.196,61.192L618.334,61.184L618.472,61.176L618.61,61.166L618.749,61.155L618.887,61.144L619.025,61.131L619.163,61.119L619.301,61.107L619.44,61.096L619.578,61.088L619.716,61.082L619.854,61.081L619.992,61.088L620.131,61.103L620.269,61.126L620.407,61.158L620.545,61.198L620.684,61.244L620.822,61.297L620.96,61.356L621.098,61.42L621.236,61.489L621.375,61.561L621.513,61.634L621.651,61.709L621.789,61.782L621.927,61.852L622.066,61.915L622.204,61.969L622.342,62.011L622.48,62.041L622.618,62.057L622.757,62.06L622.895,62.05L623.033,62.027L623.171,61.991L623.309,61.942L623.448,61.883L623.586,61.815L623.724,61.739L623.862,61.655L624.001,61.566L624.139,61.474L624.277,61.382L624.415,61.293L624.553,61.208L624.692,61.128L624.83,61.055L624.968,60.988L625.106,60.928L625.244,60.876L625.382,60.829L625.521,60.787L625.659,60.749L625.797,60.714L625.935,60.68L626.074,60.646L626.212,60.61L626.35,60.571L626.488,60.526L626.626,60.474L626.765,60.414L626.903,60.347L627.041,60.272L627.179,60.19L627.317,60.103L627.456,60.015L627.594,59.929L627.732,59.85L627.87,59.779L628.009,59.721L628.147,59.679L628.285,59.657L628.423,59.66L628.561,59.689L628.7,59.748L628.838,59.841L628.976,59.975L629.114,60.157L629.252,60.389L629.391,60.669L629.529,60.995L629.667,61.36L629.805,61.754L629.943,62.16L630.082,62.554L630.22,62.933L630.358,63.33L630.496,63.772L630.634,64.263L630.773,64.74L630.911,65.075L631.049,65.172L631.187,65.076L631.325,64.991L631.464,65.198L631.602,65.954L631.74,67.283L631.878,68.884L632.016,70.312L632.155,71.039L632.293,70.688L632.431,69.271L632.569,67.016L632.708,64.291L632.846,61.459L632.984,58.657L633.122,55.919L633.26,53.302L633.399,50.945L633.537,49.137L633.675,48.17L633.813,48.21L633.951,49.251L634.09,51.019L634.228,53.136L634.366,55.227L634.504,56.912L634.642,58.066L634.781,58.741L634.919,59.048L635.057,59.246L635.195,59.475L635.333,59.731L635.472,59.982L635.61,60.12L635.748,60.098L635.886,59.969L636.024,59.814L636.163,59.717L636.301,59.715L636.439,59.807L636.577,59.969L636.715,60.174L636.854,60.406L636.992,60.644L637.13,60.856L637.268,61.025L637.406,61.141L637.545,61.203L637.683,61.221L637.821,61.202L637.959,61.155L638.098,61.089L638.236,61.021L638.374,60.959L638.512,60.909L638.65,60.874L638.789,60.854L638.927,60.847L639.065,60.855L639.203,60.877L639.341,60.911L639.48,60.955L639.618,61.007L639.756,61.067L639.894,61.134L640.032,61.207L640.171,61.284L640.309,61.364L640.447,61.445L640.585,61.526L640.723,61.606L640.862,61.683L641,61.756L641.138,61.825L641.276,61.889L641.414,61.948L641.553,62.001L641.691,62.05L641.829,62.095L641.967,62.135L642.106,62.173L642.244,62.209L642.382,62.244L642.52,62.279L642.658,62.314L642.797,62.35L642.935,62.389L643.073,62.429L643.211,62.473L643.349,62.521L643.487,62.573L643.626,62.63L643.764,62.692L643.902,62.759L644.04,62.832L644.179,62.912L644.317,62.997L644.455,63.088L644.593,63.184L644.731,63.286L644.87,63.394L645.008,63.506L645.146,63.622L645.284,63.743L645.422,63.867L645.561,63.994L645.699,64.123L645.837,64.256L645.975,64.39L646.114,64.526L646.252,64.663L646.39,64.8L646.528,64.938L646.666,65.076L646.805,65.213L646.943,65.351L647.081,65.488L647.219,65.627L647.357,65.767L647.496,65.91L647.634,66.054L647.772,66.201L647.91,66.35L648.048,66.502L648.187,66.654L648.325,66.808L648.463,66.962L648.601,67.116L648.739,67.268L648.878,67.418L649.016,67.565L649.154,67.707L649.292,67.842L649.43,67.968L649.569,68.083L649.707,68.183L649.845,68.266L649.983,68.33L650.121,68.374L650.26,68.396L650.398,68.395L650.536,68.37L650.674,68.322L650.812,68.25L650.951,68.154L651.089,68.034L651.227,67.89L651.365,67.721L651.504,67.53L651.642,67.317L651.78,67.084L651.918,66.835L652.056,66.571L652.195,66.296L652.333,66.012L652.471,65.721L652.609,65.425L652.747,65.126L652.886,64.825L653.024,64.525L653.162,64.228L653.3,63.934L653.438,63.648L653.577,63.371L653.715,63.106L653.853,62.855L653.991,62.619L654.129,62.398L654.268,62.193L654.406,62.002L654.544,61.827L654.682,61.666L654.82,61.521L654.959,61.39L655.097,61.273L655.235,61.17L655.373,61.081L655.511,61.004L655.65,60.939L655.788,60.882L655.926,60.833L656.064,60.788L656.203,60.748L656.341,60.71L656.479,60.675L656.617,60.642L656.755,60.612L656.894,60.583L657.032,60.556L657.17,60.531L657.308,60.507L657.446,60.485L657.585,60.464L657.723,60.445L657.861,60.428L657.999,60.414L658.137,60.403L658.276,60.397L658.414,60.396L658.552,60.4L658.69,60.409L658.828,60.422L658.967,60.441L659.105,60.463L659.243,60.489L659.381,60.518L659.519,60.55L659.658,60.584L659.796,60.62L659.934,60.658L660.072,60.696L660.211,60.735L660.349,60.773L660.487,60.811L660.625,60.848L660.763,60.882L660.901,60.915L661.04,60.946L661.178,60.975L661.316,61.002L661.454,61.027L661.593,61.05L661.731,61.071L661.869,61.09L662.007,61.107L662.145,61.123L662.284,61.137L662.422,61.149L662.56,61.16L662.698,61.17L662.836,61.178L662.975,61.185L663.113,61.191L663.251,61.196L663.389,61.2L663.527,61.204L663.666,61.206L663.804,61.208L663.942,61.21L664.08,61.21L664.218,61.211L664.357,61.211L664.495,61.211L664.633,61.21L664.771,61.21L664.91,61.21L665.048,61.209L665.186,61.209L665.324,61.209L665.462,61.209L665.601,61.209L665.739,61.21L665.877,61.211L666.015,61.211L666.153,61.213L666.292,61.214L666.43,61.215L666.568,61.217L666.706,61.218L666.844,61.22L666.983,61.221L667.259,61.225L667.397,61.226L667.535,61.228L667.674,61.23L667.812,61.231L667.95,61.232L668.088,61.233L668.226,61.235L668.365,61.236L668.503,61.236L668.641,61.237L668.779,61.237L668.917,61.237L669.056,61.237L669.194,61.237L669.332,61.237L669.47,61.236L669.609,61.235L669.747,61.233L669.885,61.232L670.023,61.23L670.161,61.228L670.3,61.226L670.438,61.224L670.576,61.221L670.714,61.219L670.852,61.216L670.991,61.214L671.129,61.211L671.267,61.209L671.405,61.206L671.543,61.204L671.682,61.202L671.82,61.2L671.958,61.198L672.096,61.196L672.234,61.195L672.373,61.194L672.511,61.193L672.649,61.193L672.787,61.192L672.925,61.192L673.064,61.193L673.202,61.193L673.34,61.194L673.478,61.196L673.617,61.197L673.755,61.2L673.893,61.202L674.031,61.205L674.169,61.209L674.307,61.213L674.446,61.218L674.584,61.223L674.722,61.228L674.86,61.234L674.999,61.241L675.137,61.248L675.275,61.255L675.413,61.263L675.551,61.271L675.69,61.28L675.828,61.288L675.966,61.297L676.104,61.307L676.242,61.316L676.381,61.326L676.519,61.336L676.657,61.346L676.795,61.356L676.933,61.367L677.072,61.377L677.21,61.388L677.486,61.409L677.624,61.42L677.763,61.43L677.901,61.441L678.039,61.451L678.177,61.46L678.315,61.47L678.454,61.479L678.592,61.487L678.73,61.495L678.868,61.503L679.007,61.51L679.145,61.516L679.283,61.522L679.421,61.527L679.559,61.532L679.698,61.536L679.836,61.539L679.974,61.543L680.112,61.545L680.25,61.548L680.389,61.549L680.527,61.551L680.665,61.552L680.803,61.552L680.941,61.552L681.08,61.552L681.218,61.552L681.356,61.551L681.494,61.551L681.632,61.55L681.771,61.55L681.909,61.549L682.047,61.549L682.185,61.55L682.323,61.551L682.462,61.553L682.6,61.556L682.738,61.559L682.876,61.565L683.015,61.571L683.153,61.578L683.291,61.586L683.429,61.595L683.567,61.604L683.706,61.613L683.844,61.623L683.982,61.631L684.12,61.64L684.258,61.647L684.396,61.654L684.535,61.66L684.673,61.665L684.811,61.669L684.949,61.672L685.088,61.675L685.226,61.677L685.364,61.68L685.502,61.683L685.64,61.689L685.779,61.696L685.917,61.708L686.055,61.723L686.193,61.743L686.331,61.767L686.47,61.796L686.608,61.829L686.746,61.866L686.884,61.906L687.022,61.95L687.161,61.995L687.299,62.041L687.437,62.088L687.575,62.132L687.714,62.173L687.852,62.209L687.99,62.239L688.128,62.261L688.266,62.274L688.405,62.277L688.543,62.27L688.681,62.252L688.819,62.223L688.957,62.185L689.096,62.138L689.234,62.083L689.372,62.022L689.51,61.955L689.648,61.884L689.787,61.812L689.925,61.738L690.063,61.666L690.201,61.597L690.339,61.531L690.478,61.471L690.616,61.418L690.754,61.371L690.892,61.331L691.03,61.298L691.169,61.27L691.307,61.247L691.445,61.227L691.583,61.208L691.722,61.19L691.86,61.169L691.998,61.146L692.136,61.119L692.274,61.087L692.412,61.05L692.551,61.006L692.689,60.956L692.827,60.901L692.965,60.843L693.104,60.786L693.242,60.732L693.38,60.685L693.518,60.647L693.656,60.622L693.795,60.615L693.933,60.629L694.071,60.665L694.209,60.726L694.347,60.815L694.486,60.938L694.624,61.104L694.762,61.314L694.9,61.57L695.038,61.873L695.177,62.218L695.315,62.599L695.453,63.003L695.591,63.404L695.729,63.803L695.868,64.236L696.006,64.725L696.144,65.287L696.282,65.85L696.42,66.255L696.559,66.415L696.697,66.313L696.835,66.119L696.973,66.17L697.112,66.701L697.25,67.85L697.388,69.471L697.526,71.099L697.664,72.264L697.802,72.499L697.941,71.55L698.079,69.561L698.217,66.79L698.355,63.575L698.494,60.256L698.632,57.019L698.77,54.032L698.908,51.559L699.046,49.84L699.185,49.043L699.323,49.25L699.461,50.308L699.599,51.882L699.737,53.653L699.876,55.285L700.014,56.565L700.152,57.502L700.29,58.176L700.428,58.747L700.567,59.339L700.705,59.941L700.843,60.496L700.981,60.897L701.12,61.08L701.258,61.072L701.396,60.934L701.534,60.756L701.672,60.625L701.81,60.571L701.949,60.601L702.087,60.707L702.225,60.872L702.363,61.08L702.502,61.314L702.64,61.551L702.778,61.759L702.916,61.92L703.054,62.029L703.193,62.084L703.331,62.096L703.469,62.075L703.607,62.029L703.745,61.968L703.884,61.908L704.022,61.855L704.16,61.814L704.298,61.789L704.436,61.777L704.575,61.779L704.713,61.794L704.851,61.822L704.989,61.861L705.127,61.91L705.266,61.968L705.404,62.033L705.542,62.104L705.68,62.18L705.819,62.259L705.957,62.34L706.095,62.421L706.233,62.501L706.371,62.579L706.51,62.654L706.648,62.725L706.786,62.791L706.924,62.851L707.062,62.905L707.201,62.953L707.339,62.994L707.477,63.03L707.615,63.062L707.753,63.091L707.892,63.119L708.03,63.146L708.168,63.174L708.306,63.203L708.444,63.235L708.583,63.27" style="fill:none;fill-rule:nonzero;stroke:rgb(205,10,32);stroke-width:1px;"/>
    </g>
</svg>
