<?xml version="1.0" encoding="ISO-8859-1" standalone="no"?><svg xmlns="http://www.w3.org/2000/svg" xmlns:xlink="http://www.w3.org/1999/xlink" version="1.1" height="100%" width="100%" viewBox="-750 -750 1500 1500" xml:space="preserve" style="fill-rule:evenodd;clip-rule:evenodd;stroke-linejoin:round;stroke-miterlimit:10;"  >
<g transform=""  >
<path d="M 457.979,0 L 452.367,2.08039 L 445.335,2.72327 L 438.295,3.22239 L 431.252,3.64169 L 424.207,3.98954 L 417.16,4.30028 L 410.113,4.5892 L 403.066,4.84914 L 396.018,5.09724 L 388.97,5.33273 L 381.922,5.55624 L 374.874,5.77595 L 367.827,6.00281 L 360.779,6.21682 L 353.735,6.4997 L 346.691,6.79155 L 339.659,7.25096 L 338.283,8.86065 L 345.25,9.88321 L 352.247,10.7327 L 359.251,11.5285 L 366.256,12.3244 L 373.258,13.1611 L 380.251,14.0676 L 387.227,15.1214 L 394.138,16.5589 L 400.769,19.0657 L 403.73,23.5389 L 401.931,29.1375 L 405.369,35.3937 L 403.791,42.8078 L 406.835,49.7576 L 409.974,56.7172 L 411.355,64.4449 L 411.384,72.4245 L 411.477,80.4092 L 413.924,87.7483 L 418.049,94.0538 L 422.693,99.895 L 427.314,105.789 L 431.503,112.144 L 433.819,119.775 L 429.697,126.672 L 422.833,129.946 L 415.72,131.956 L 408.577,133.583 L 401.451,135.23 L 394.409,137.336 L 387.638,140.429 L 381.415,144.737 L 375.62,149.671 L 370.741,155.553 L 367.917,162.712 L 365.875,170.161 L 363.047,177.376 L 359.108,184.05 L 354.378,190.147 L 349.384,195.986 L 344.512,201.904 L 339.976,208.076 L 335.754,214.465 L 331.659,220.936 L 327.505,227.373 L 323.185,233.704 L 318.702,239.923 L 314.128,246.077 L 309.541,252.226 L 304.956,258.383 L 300.292,264.49 L 295.429,270.451 L 290.284,276.178 L 284.971,281.754 L 279.754,287.421 L 275.016,293.49 L 270.477,299.727 L 266.077,306.074 L 262.717,312.977 L 258.618,319.516 L 251.668,322.927 L 244.381,325.494 L 237.729,329.571 L 230.281,330.715 L 223.142,332.38 L 222.243,339.414 L 223.757,346.388 L 225.504,353.302 L 227.412,360.166 L 228.764,367.183 L 228.79,374.285 L 231.277,380.923 L 234.01,387.45 L 236.711,393.993 L 238.986,400.723 L 235.017,398.43 L 230.82,392.749 L 226.76,386.975 L 222.803,381.133 L 218.881,375.269 L 215.005,369.376 L 211.139,363.476 L 207.297,357.561 L 203.465,351.64 L 199.643,345.714 L 195.829,339.782 L 192.025,333.845 L 188.21,327.914 L 184.407,321.976 L 180.584,316.052 L 176.761,310.127 L 172.881,304.242 L 168.926,298.411 L 166.063,296.452 L 168.779,302.946 L 171.709,309.357 L 174.697,315.742 L 177.679,322.132 L 180.644,328.529 L 183.546,334.956 L 186.333,341.436 L 188.893,348.012 L 190.587,354.867 L 188.53,360.89 L 183.776,363.273 L 183.583,370.481 L 178.552,374.998 L 171.07,377.195 L 165.477,382.652 L 160.148,388.404 L 153.84,393.317 L 147.776,398.503 L 142.877,404.606 L 138.746,411.143 L 134.742,417.763 L 130.473,424.302 L 126.012,430.785 L 121.025,437.041 L 113.684,440.861 L 106.332,438.005 L 100.776,433.034 L 95.8651,427.599 L 91.1797,422.026 L 86.4638,416.487 L 81.3382,411.265 L 75.2573,406.975 L 67.8448,404.958 L 60.0625,404.248 L 52.2683,403.873 L 44.5079,404.802 L 36.786,406.083 L 28.9695,406.581 L 21.1486,406.436 L 13.3533,406.011 L 5.58076,405.448 L -2.15903,404.688 L -9.84826,403.657 L -17.4916,402.442 L -25.1317,401.286 L -32.801,400.385 L -40.4905,399.688 L -48.1786,398.96 L -55.8445,398.011 L -63.4873,396.887 L -71.136,395.796 L -78.8068,394.838 L -86.4826,393.846 L -94.1002,392.417 L -101.553,390.29 L -108.806,387.596 L -116.022,384.836 L -123.398,382.55 L -130.843,380.48 L -138.386,378.829 L -146.044,377.822 L -153.052,374.662 L -158.686,369.474 L -165.301,365.615 L -171.622,361.43 L -175.336,354.99 L -181.409,352.025 L -187.39,355.94 L -192.701,360.694 L -198.009,365.464 L -203.131,370.416 L -209.097,374.1 L -214.64,378.262 L -218.967,383.855 L -223.2,389.516 L -227.526,395.111 L -230.237,395.532 L -227.483,389.023 L -224.438,382.654 L -221.288,376.34 L -218.095,370.05 L -214.868,363.777 L -211.616,357.518 L -208.352,351.266 L -205.074,345.021 L -201.785,338.783 L -198.49,332.548 L -195.185,326.319 L -191.885,320.088 L -188.578,313.86 L -185.292,307.622 L -182.012,301.381 L -178.816,295.099 L -175.822,288.728 L -178.495,289.74 L -182.819,295.302 L -187.072,300.922 L -191.346,306.529 L -195.676,312.092 L -200.117,317.571 L -204.749,322.892 L -209.646,327.983 L -214.911,332.715 L -219.282,330.589 L -225.782,330.773 L -232.735,331.168 L -237.62,325.284 L -244.675,322.334 L -252.119,320.496 L -259.423,317.876 L -266.765,315.286 L -274.33,313.93 L -281.904,313.815 L -289.417,314.284 L -296.979,314.64 L -304.672,314.365 L -312.459,313.36 L -320.234,311.204 L -325.663,305.129 L -325.612,297.455 L -323.718,290.321 L -321.334,283.424 L -318.868,276.582 L -316.797,269.58 L -316.068,262.199 L -318.296,254.879 L -321.935,247.986 L -325.935,241.313 L -331.296,235.689 L -337.057,230.453 L -342.242,224.578 L -346.634,218.053 L -350.35,211.125 L -353.692,204.025 L -356.978,196.912 L -360.366,189.853 L -363.857,182.847 L -367.325,175.83 L -370.614,168.728 L -373.586,161.491 L -376.215,154.13 L -378.582,146.693 L -380.844,139.234 L -383.123,131.786 L -385.41,124.345 L -387.619,116.882 L -389.604,109.361 L -391.393,101.795 L -393.177,94.231 L -395.306,86.7584 L -397.585,79.3213 L -399.659,71.811 L -402.486,64.5678 L -404.787,57.129 L -403.823,49.4592 L -401.81,42.0538 L -400.004,34.6168 L -396.866,27.7948 L -396.716,20.6757 L -402.716,16.7625 L -409.422,14.2938 L -416.139,11.8194 L -422.896,9.4652 L -428.79,5.34447 L -435.633,3.46229 L -442.634,2.45101 L -449.644,1.51005 L -456.624,0.290417 L -453.476,-1.90116 L -446.445,-2.56283 L -439.406,-3.07682 L -432.363,-3.49 L -425.318,-3.85 L -418.272,-4.16813 L -411.225,-4.46904 L -404.178,-4.7441 L -397.131,-5.0069 L -390.083,-5.25844 L -383.036,-5.49791 L -375.988,-5.73087 L -368.941,-5.96166 L -361.893,-6.18143 L -354.847,-6.43667 L -347.802,-6.68052 L -340.761,-7.02019 L -333.739,-7.53783 L -334.881,-9.14106 L -341.874,-9.98611 L -348.884,-10.7209 L -355.897,-11.4342 L -362.91,-12.1558 L -369.919,-12.9267 L -376.92,-13.7683 L -383.898,-14.797 L -390.775,-16.3812 L -397.097,-19.641 L -397.31,-25.5741 L -403.131,-29.763 L -407.275,-35.3159 L -404.163,-42.336 L -405.385,-49.8779 L -408.194,-57.0065 L -409.729,-64.6658 L -410.836,-72.4751 L -413.119,-79.9212 L -416.498,-86.8056 L -420.404,-93.3364 L -424.308,-99.9041 L -427.774,-106.849 L -430.66,-114.22 L -432.383,-122.186 L -428.777,-129.439 L -421.909,-132.679 L -414.76,-134.405 L -407.588,-135.695 L -400.426,-136.918 L -393.305,-138.468 L -386.383,-140.999 L -380.361,-145.533 L -376.286,-152.128 L -373.065,-159.229 L -369.841,-166.325 L -367.039,-173.596 L -364.544,-180.985 L -361.319,-188.107 L -357.203,-194.755 L -352.705,-201.129 L -348.101,-207.409 L -343.591,-213.746 L -339.286,-220.22 L -335.149,-226.803 L -330.996,-233.382 L -326.616,-239.818 L -321.894,-246.01 L -316.849,-251.935 L -311.611,-257.678 L -306.319,-263.362 L -301.037,-269.05 L -295.736,-274.715 L -290.325,-280.273 L -284.886,-285.801 L -279.769,-291.627 L -274.367,-297.194 L -268.317,-302.061 L -264.233,-308.487 L -261.867,-315.706 L -256.8,-321.382 L -249.334,-323.253 L -241.928,-325.308 L -234.484,-326.756 L -227.045,-326.63 L -222.467,-331.578 L -223.278,-338.684 L -225.039,-345.586 L -226.86,-352.477 L -228.708,-359.365 L -230.473,-366.279 L -228.937,-372.462 L -231.537,-379.046 L -234.414,-385.504 L -237.244,-391.986 L -238.887,-397.954 L -234.076,-392.821 L -229.931,-387.106 L -225.865,-381.338 L -221.889,-375.509 L -217.929,-369.67 L -213.993,-363.817 L -210.068,-357.956 L -206.15,-352.09 L -202.245,-346.217 L -198.35,-340.338 L -194.467,-334.451 L -190.592,-328.56 L -186.728,-322.661 L -182.876,-316.755 L -179.037,-310.841 L -175.182,-304.938 L -171.328,-299.035 L -167.356,-293.215 L -164.03,-289.808 L -166.666,-296.317 L -169.62,-302.715 L -172.61,-309.099 L -175.585,-315.491 L -178.496,-321.912 L -181.297,-328.383 L -183.874,-334.949 L -186.193,-341.617 L -188.261,-348.376 L -189.866,-355.272 L -184.614,-356.474 L -182.595,-363.124 L -179.333,-369.182 L -171.74,-370.342 L -166.118,-375.591 L -161.281,-381.592 L -155.415,-386.819 L -149.412,-391.957 L -144.489,-397.971 L -140.552,-404.541 L -136.946,-411.27 L -133.194,-417.975 L -129.268,-424.641 L -125.251,-431.298 L -120.343,-437.575 L -112.441,-439.657 L -105.565,-436.025 L -99.9098,-431.139 L -94.6425,-425.962 L -89.4762,-420.727 L -84.083,-415.692 L -77.912,-411.448 L -70.3414,-409.888 L -62.4515,-411.116 L -54.5534,-412.342 L -46.7739,-414.133 L -39.042,-416.161 L -31.0885,-417.254 L -23.0563,-417.412 L -15.0523,-416.988 L -7.10369,-416.169 L 0.781805,-415.053 L 8.60981,-413.729 L 16.4217,-412.407 L 24.2608,-411.304 L 32.1326,-410.485 L 40.0102,-409.735 L 47.8464,-408.664 L 55.5714,-407.038 L 63.1466,-404.906 L 70.6295,-402.544 L 78.081,-400.138 L 85.4916,-397.661 L 92.7626,-394.871 L 99.8064,-391.636 L 106.662,-388.099 L 113.56,-384.687 L 120.645,-381.689 L 127.694,-378.639 L 134.977,-376.252 L 142.421,-374.396 L 148.325,-369.744 L 152.456,-363.574 L 157.026,-357.743 L 161.451,-351.869 L 164.606,-345.342 L 170.432,-342.366 L 176.311,-346.324 L 181.485,-351.185 L 186.678,-356.044 L 191.723,-361.051 L 197.2,-363.359 L 202.193,-367.328 L 206.36,-373.034 L 210.445,-378.795 L 214.637,-384.485 L 217.465,-385.272 L 214.779,-378.736 L 211.777,-372.35 L 208.702,-366.001 L 205.551,-359.691 L 202.378,-353.391 L 199.16,-347.116 L 195.932,-340.847 L 192.686,-334.586 L 189.426,-328.334 L 186.156,-322.087 L 182.884,-315.841 L 179.604,-309.6 L 176.322,-303.36 L 173.061,-297.109 L 169.789,-290.865 L 166.593,-284.583 L 163.462,-278.272 L 162.376,-273.78 L 166.648,-279.365 L 170.747,-285.095 L 174.818,-290.847 L 178.942,-296.562 L 183.198,-302.178 L 187.842,-307.466 L 193.11,-312.142 L 198.543,-316.627 L 203.46,-313.52 L 209.746,-316.785 L 216.537,-317.7 L 222.61,-313.551 L 229.443,-310.751 L 235.928,-307.161 L 242.418,-303.583 L 249.683,-302.678 L 256.952,-303.347 L 264.185,-304.394 L 271.46,-305.397 L 278.801,-306.248 L 286.235,-306.794 L 293.77,-306.942 L 301.405,-306.508 L 309.02,-304.546 L 313.158,-297.933 L 312.373,-290.51 L 310.306,-283.516 L 307.918,-276.68 L 305.625,-269.819 L 304.17,-262.686 L 305.194,-255.362 L 309.319,-248.969 L 313.522,-242.614 L 317.542,-236.159 L 322.412,-230.329 L 327.975,-225.149 L 333.458,-219.842 L 338.604,-214.155 L 343.602,-208.305 L 348.49,-202.334 L 353.279,-196.256 L 357.995,-190.095 L 362.628,-183.844 L 367.181,-177.507 L 371.645,-171.08 L 375.993,-164.543 L 380.15,-157.853 L 383.979,-150.938 L 387.355,-143.763 L 390.252,-136.369 L 392.768,-128.833 L 395.157,-121.255 L 397.576,-113.688 L 400.583,-106.349 L 404.498,-99.482 L 408.089,-92.3868 L 411.208,-85.0164 L 416.288,-79.186 L 422.593,-75.0855 L 429.052,-71.2665 L 434.77,-66.0769 L 434.832,-58.1639 L 430.715,-51.5906 L 426.764,-44.9155 L 424.5,-37.2525 L 423.347,-29.2666 L 426.975,-22.5718 L 433.401,-19.0935 L 440.054,-16.1935 L 446.772,-13.5075 L 449.692,-8.62354 L 456.413,-6.50142 L 463.43,-5.58413 L 470.452,-4.7289 L 477.451,-3.61387 L 475.181,-1.4415 L 468.162,-0.622994 M 461.129,-1.12944E-13 L 457.979,0" style="fill:none;fill-rule:nonzero;stroke:rgb(205,10,32);stroke-width:3px;"  />
</g>
</svg>
