<svg id="Layer_1" enable-background="new 0 0 512.003 512.003" height="512" viewBox="0 0 512.003 512.003" width="512" xmlns="http://www.w3.org/2000/svg"><path d="m408.106 400h-28.27c21.379-26.957 34.165-61.022 34.165-98.021l-.052-143.984c0-14.135-1.876-27.837-5.375-40.883l42.293-80.109c2.643-5.006 2.242-11.073-1.035-15.688-3.277-4.614-8.87-6.992-14.472-6.146 0 0-87.739 13.357-88.561 13.634-25.713-18.136-57.055-28.803-90.844-28.803s-65.131 10.667-90.846 28.803c-.822-.277-88.561-13.634-88.561-13.634-5.643-.85-11.283 1.572-14.547 6.254-3.265 4.683-3.588 10.813-.834 15.813l42.767 77.669c-3.89 13.703-5.973 28.158-5.973 43.091v143.984c0 36.998 12.786 71.063 34.165 98.021h-28.227c-46.871 0-85.003 38.132-85.003 85.003v12c0 8.284 6.716 15 15 15s15-6.716 15-15v-12c0-30.329 24.674-55.003 55.003-55.003h59.561c26.026 18.862 57.995 30 92.522 30s66.497-11.139 92.522-30h59.603c30.328 0 55.002 24.674 55.002 55.003v12c0 8.284 6.716 15 15 15s15-6.716 15-15v-12c-.001-46.872-38.133-85.004-85.003-85.004zm-109.096-98.901c-11.146-10.399-26.657-16.49-43.208-16.49-16.474 0-31.876 6.014-42.999 16.297l-84.843-54.447.041-61.459h97.953 60 98.047v62.113zm-88.056-262.925v56.826h-66.389c14.71-25.909 38.197-46.204 66.389-56.826zm-82.96 116.826c.239-10.361 1.724-20.419 4.295-30.037.238.011 78.665.036 78.665.036v30.001zm239.351-60h-66.39v-56.826c28.192 10.622 51.68 30.917 66.39 56.826zm-66.39 30h78.676c2.565 9.607 4.047 19.653 4.285 30.001h-82.961zm92.839-44.145c-5.274-9.386-11.47-18.188-18.479-26.268l35.153-5.314zm-137.839-50.855c5.074 0 10.078.305 15 .883v124.117h-30v-44.063c.019-.312.047-.621.047-.938s-.028-.626-.047-.938v-78.178c4.921-.578 9.925-.883 15-.883zm-153.86 19.372 34.5 5.215c-6.715 7.74-12.689 16.139-17.816 25.083zm25.865 252.607v-19.874l77.724 49.879c.73.658 1.535 1.254 2.414 1.774 2.396 1.417 5.025 2.091 7.621 2.091 5.129 0 10.126-2.633 12.926-7.368 4.983-8.427 15.643-13.872 27.158-13.872 11.433 0 22.061 5.39 27.074 13.732 2.847 4.736 7.895 7.32 13.049 7.258.12.003.24.011.36.011 2.75 0 5.534-.756 8.028-2.34l79.688-50.618v19.326c0 70.591-57.43 128.021-128.021 128.021-70.591.001-128.021-57.429-128.021-128.02z"/></svg>