<svg id="Layer_5" enable-background="new 0 0 64 64" height="512" viewBox="0 0 64 64" width="512" xmlns="http://www.w3.org/2000/svg"><g><path d="m26.828 29.828-1.414-1.414c-.756.756-2.072.756-2.828 0l-1.414 1.414c.755.756 1.76 1.172 2.828 1.172s2.073-.416 2.828-1.172z"/><path d="m54.356 30.001c-2.987 0-5.86-.841-8.37-2.425l.762-1.372c.321-.733.337-1.548.046-2.294-.292-.747-.855-1.335-1.587-1.655-.385-.17-.791-.255-1.207-.255-1.192 0-2.271.707-2.706 1.714l-2.653 4.776c-.265-.511-.629-.884-.934-1.188-.49-.49-.707-.731-.707-1.292 0-.563.217-.805.708-1.296.545-.546 1.292-1.294 1.292-2.709s-.747-2.163-1.292-2.709c-.491-.491-.708-.733-.708-1.296v-1c4.411 0 8-3.589 8-8s-3.589-8-8-8h-1v2.545l.458.295c1.052.679 1.542 1.524 1.542 2.66 0 1.575-1.075 2.945-2.544 3.366-2.194-4.083-6.505-6.866-11.456-6.866-4.95 0-9.26 2.782-11.455 6.864-1.485-.416-2.545-1.768-2.545-3.364 0-1.136.49-1.981 1.542-2.66l.458-.295v-2.545h-1c-4.411 0-8 3.589-8 8s3.589 8 8 8v1c0 .563-.217.805-.708 1.296-.545.546-1.292 1.294-1.292 2.709s.747 2.163 1.292 2.709c.491.491.708.732.708 1.296 0 .562-.217.802-.707 1.292-.546.545-1.293 1.292-1.293 2.706s.747 2.161 1.293 2.707c.49.49.707.73.707 1.291 0 .248-.049.421-.116.562-3.376 1.252-5.8 4.465-5.875 8.253-.661 1.929-1.009 5.026-1.009 7.157v.902c0 1.635.637 3.172 1.793 4.329 1.157 1.155 2.693 1.791 4.327 1.791h.88v6.001h26v-6.001h.88c1.634 0 3.17-.636 4.327-1.792 1.156-1.157 1.793-2.694 1.793-4.329v-.902c0-2.131-.348-5.229-1.009-7.158-.044-2.137-.848-4.195-2.256-5.787l.629-1.132c1.705 2.568 2.636 5.605 2.636 8.704v2.397l.033 1.066 1.066-.071c8.917-.594 15.901-8.059 15.901-16.995v-1zm-11.271-5.401c.213-.491.813-.736 1.318-.514.243.106.43.302.527.551.098.25.092.521.027.68l-13.353 24.036c-.366-.161-.753-.283-1.165-.328l-.591-.59zm-18.17 35.802c-.215.495-.825.734-1.318.514-.243-.106-.43-.302-.527-.551-.087-.222-.092-.461-.018-.683l1.929-2.682h2.198l-2.177 3.244zm4.143-5.402h-8.058v-4.09l1 .091h1.414l1.232-1.232c.975-.976 2.732-.976 3.707 0l1.232 1.232h.415c1.103 0 2 .897 2 2 0 1.101-.895 1.997-1.995 1.999zm-21.375-15h4.317c2.414 0 4.434-1.721 4.899-4h2.101v1c0 2.757-2.243 5-5 5h-6.929c.102-.707.315-1.377.612-2zm1.431-2c1.263-1.234 2.985-2 4.886-2h.816c-.414 1.161-1.514 2-2.816 2zm3.886-22c0-.338.021-.67.051-1h7.949v2h-8zm4 3h14v7c0 1.24-.327 2.403-.895 3.414l-.433-1.515c-.489-1.707-2.07-2.899-3.845-2.899h-3.654c-1.774 0-3.355 1.192-3.845 2.899l-.433 1.514c-.568-1.01-.895-2.173-.895-3.413zm10-4h7.949c.03.33.051.662.051 1v1h-8zm-6.75 13.45c.245-.854 1.036-1.45 1.923-1.45h3.654c.887 0 1.678.596 1.923 1.449l.814 2.846c-1.227 1.06-2.82 1.705-4.564 1.705s-3.337-.645-4.564-1.705zm13.61 8.646c-.306-.312-.537-.684-.682-1.096h.822c.152 0 .301.019.452.029zm-2.748-1.096c.231 1.14.848 2.154 1.755 2.884l-1.359 2.446c-1.526-.883-2.508-2.53-2.508-4.33v-1zm-2.937 11.327c-.376-.147-.772-.231-1.175-.276v-2.279c1.192-.383 2.245-1.071 3.088-1.991.148.101.291.208.448.297zm-5.979-4.307c-1.089-.218-2.048-.778-2.79-1.579.459-.558.829-1.191 1.099-1.874.903.884 2.135 1.433 3.495 1.433 1.366 0 2.604-.553 3.508-1.445.269.679.639 1.307 1.099 1.869-.743.81-1.707 1.376-2.803 1.595l-.804.161v4.093c-.659.228-1.271.584-1.768 1.081l-.232.233v-5.407zm1.804-8.02c.997 0 1.954-.17 2.852-.471l.148.594v.877c0 1.654-1.346 3-3 3s-3-1.346-3-3v-.878l.148-.593c.898.301 1.855.471 2.852.471zm-10 9c1.453 0 2.803-.445 3.923-1.206.841.914 1.891 1.597 3.077 1.978v4.134l-8.61-.779 1.528-4.127zm5 6.729v4.271h-2v-4.452zm17.292-27.428c-.545.546-1.292 1.294-1.292 2.709 0 1.414.747 2.161 1.293 2.706.49.49.707.73.707 1.292v1.435l-1.499 2.698c-.495-.084-.995-.141-1.501-.141h-5.22l-.084-.337c2.577-1.585 4.304-4.422 4.304-7.663v-7h2.145c.243.798.748 1.309 1.147 1.709.491.491.708.732.708 1.296s-.217.805-.708 1.296zm3.708-16.801c0-1.242-.382-2.314-1.138-3.204 2.4.785 4.138 3.045 4.138 5.704 0 3.309-2.691 6-6 6h-.051c-.088-1.149-.327-2.253-.696-3.3 2.201-.732 3.747-2.775 3.747-5.2zm-5.426 6.5h-7.574v-7.574c3.655 1.039 6.535 3.919 7.574 7.574zm-9.574-7.949v11.949h-2v-11.949c.33-.03.662-.051 1-.051s.67.021 1 .051zm-4 .375v7.574h-7.574c1.039-3.655 3.919-6.535 7.574-7.574zm-16 3.574c0-2.659 1.738-4.919 4.138-5.704-.756.89-1.138 1.962-1.138 3.204 0 2.414 1.548 4.466 3.746 5.201-.368 1.046-.607 2.15-.695 3.299h-.051c-3.309 0-6-2.691-6-6zm6.707 22.299c-.49-.489-.707-.73-.707-1.291s.217-.802.707-1.292c.546-.546 1.293-1.292 1.293-2.706 0-1.415-.747-2.163-1.292-2.709-.491-.491-.708-.733-.708-1.296s.217-.805.708-1.296c.399-.4.903-.911 1.147-1.709h2.145v7c0 3.241 1.727 6.078 4.304 7.663l-.084.337h-5.22c-.34 0-.674.023-1.004.06 0-.019.004-.036.004-.054 0-1.414-.747-2.161-1.293-2.707zm-4.5 22.495c-.778-.779-1.207-1.814-1.207-2.915v-.902c0-1.728.255-4.252.733-5.977h5.053l-1.482 4.001h-2.304v2l2.909-.004 4.091.37v4.633h-4.88c-1.099 0-2.135-.429-2.913-1.206zm5.793 3.206h9.518l-1.161 1.615-.104.183c-.308.704-.327 1.481-.072 2.203h-8.181zm22 4.001h-8.097l2.684-4h.413c.002 0 .004-.001.005-.001h4.995zm7-10.122c0 1.101-.429 2.136-1.207 2.914s-1.814 1.207-2.913 1.207h-4.436c.344-.59.556-1.268.556-1.999 0-.897-.31-1.717-.81-2.385l.155-.279 3.655-.336h3v-2l-3.091.004-2.39.217 2.345-4.222h4.403c.478 1.725.733 4.249.733 5.978zm-1.072-8.879h-2.953l1.703-3.066c.649.909 1.088 1.957 1.25 3.066zm1.506-8.029 2.579-4.643c2.808 1.747 6.013 2.673 9.343 2.673h.29c-1.067 4.506-4.491 8.138-8.935 9.46-.489-2.708-1.616-5.277-3.277-7.49zm3.566 11.923v-1.291c0-.381-.025-.76-.049-1.139 5.438-1.483 9.615-5.941 10.74-11.464h2.276c-.472 7.083-5.91 12.917-12.967 13.894z"/></g></svg>