<?xml version="1.0" encoding="UTF-8" standalone="no"?>
<svg
   xmlns:dc="http://purl.org/dc/elements/1.1/"
   xmlns:cc="http://creativecommons.org/ns#"
   xmlns:rdf="http://www.w3.org/1999/02/22-rdf-syntax-ns#"
   xmlns:svg="http://www.w3.org/2000/svg"
   xmlns="http://www.w3.org/2000/svg"
   xmlns:sodipodi="http://sodipodi.sourceforge.net/DTD/sodipodi-0.dtd"
   xmlns:inkscape="http://www.inkscape.org/namespaces/inkscape"
   id="Capa_1"
   enable-background="new 0 0 511.956 511.956"
   height="512"
   viewBox="0 0 511.956 511.956"
   width="512"
   version="1.1"
   sodipodi:docname="horse.svg"
   inkscape:version="0.92.5 (0.92.4+202005162354+6c0c36e)">
  <metadata
     id="metadata94">
    <rdf:RDF>
      <cc:Work
         rdf:about="">
        <dc:format>image/svg+xml</dc:format>
        <dc:type
           rdf:resource="http://purl.org/dc/dcmitype/StillImage" />
        <dc:title></dc:title>
      </cc:Work>
    </rdf:RDF>
  </metadata>
  <defs
     id="defs92" />
  <sodipodi:namedview
     pagecolor="#ffffff"
     bordercolor="#666666"
     borderopacity="1"
     objecttolerance="10"
     gridtolerance="10"
     guidetolerance="10"
     inkscape:pageopacity="0"
     inkscape:pageshadow="2"
     inkscape:window-width="2560"
     inkscape:window-height="1341"
     id="namedview90"
     showgrid="false"
     inkscape:zoom="3.1239757"
     inkscape:cx="204.25852"
     inkscape:cy="337.4138"
     inkscape:window-x="0"
     inkscape:window-y="0"
     inkscape:window-maximized="1"
     inkscape:current-layer="Capa_1" />
  <g
     id="XMLID_407_">
    <g
       id="XMLID_373_">
      <path
         id="XMLID_374_"
         d="m 438.57,139.298 c 1.86,-1.86 2.93,-4.44 2.93,-7.07 0,-2.63 -1.07,-5.21 -2.93,-7.07 -1.86,-1.86 -4.44,-2.93 -7.07,-2.93 -2.63,0 -5.21,1.07 -7.07,2.93 -1.86,1.86 -2.93,4.44 -2.93,7.07 0,2.63 1.07,5.21 2.93,7.07 1.86,1.86 4.44,2.93 7.07,2.93 2.63,0 5.21,-1.07 7.07,-2.93 z"
         inkscape:connector-curvature="0" />
      <path
         d="m 438.41406,32.695312 c -7.73438,-0.05849 -11.532,7.960501 -15.01367,13.496094 -25.32366,-0.55811 -51.18134,-0.243843 -75.47831,7.826317 -48.8423,14.959927 -89.67752,52.799987 -109.02551,100.006747 -3.45683,4.29406 -3.23025,14.31792 -9.49813,14.2392 -41.83119,0.22022 -83.68846,-0.43297 -125.50417,0.31378 -21.333332,1.6939 -41.680987,12.43628 -55.286848,28.92646 -26.996419,2.41027 -49.7806974,26.58984 -50.5429689,53.6914 0.039121,38.78875 -0.3890875,77.60136 0.1875,116.38086 1.99769279,26.98708 16.3963809,53.26465 39.0039059,68.34766 6.723167,3.37578 13.994509,-1.31622 17.728516,-6.94141 4.174994,-6.17361 1.376554,6.47693 2.185547,9.4336 1.212834,10.89503 -3.120489,23.5662 3.855469,33.15039 5.864762,8.55646 17.227069,8.25087 26.384765,7.69726 21.525634,-0.3079 43.129524,0.57127 64.615234,-0.35547 12.43462,-1.94969 19.62301,-17.45765 13.1349,-28.23427 -5.95657,-8.83126 -2.39566,-19.8651 -3.3517,-29.85362 0.28442,-14.49499 -0.56686,-29.24134 0.42198,-43.58043 7.67574,-16.49142 15.35149,-32.98284 23.02724,-49.47426 10.23503,0 20.47005,0 30.70508,0 -9.66878,42.84074 -19.93637,85.57391 -29.25,128.47852 -1.46141,12.74403 10.53045,24.44073 23.21484,23.02148 11.35174,-0.72395 23.00641,1.37646 34.20899,-0.87109 12.66487,-3.2975 19.27741,-19.39099 12.61957,-30.65824 -2.36331,-5.61586 2.38385,-11.91501 3.00162,-17.81734 5.95049,-22.10905 11.90098,-44.2181 17.85147,-66.32715 0.16577,33.13012 -0.32374,66.29418 0.23046,99.40429 1.38193,10.76759 12.57583,17.89663 23.00977,16.26953 10.97806,-0.69774 22.24494,1.30529 33.08594,-0.78906 11.48504,-2.99634 17.43995,-17.61209 11.35951,-27.80263 -5.95658,-8.83126 -2.39567,-19.8651 -3.3517,-29.85362 0.52788,-19.50974 -1.02506,-39.33938 0.69726,-58.68554 2.81118,-20.77546 16.53622,-39.12086 34.53907,-49.5918 23.32314,-16.05151 36.72338,-44.61354 35.0957,-72.77735 0.41617,-8.00651 -1.91034,-16.73383 3.93333,-23.31392 4.97991,-8.81984 9.95981,-17.63967 14.93972,-26.45951 15.24366,5.43706 30.03659,16.51905 47.05273,13.83203 20.77418,-2.28134 37.54724,-22.29293 35.66959,-43.21333 -0.30076,-14.07117 -9.86022,-25.23946 -18.85391,-35.05399 -11.62729,-12.9034 -21.60519,-27.379265 -34.16529,-39.40065 -3.09335,-2.618226 -6.48729,-4.880436 -10.09179,-6.732422 -0.52023,-12.674071 0.92446,-25.547859 -0.49219,-38.134766 -1.4313,-5.119126 -6.54161,-8.826451 -11.85352,-8.59375 z m -38.76172,37.498047 c 7.62824,-1.579787 9.00777,1.571497 3.24219,6.40625 -18.69648,4.524702 -34.51855,16.221107 -48.23625,29.259651 -18.77473,15.5935 -36.31835,32.75404 -55.90302,47.32249 -11.70571,7.76697 -25.72319,12.85752 -39.68299,14.44325 12.68734,-31.99822 35.54054,-60.12298 65.48449,-77.223824 22.64816,-13.308981 49.08367,-20.287559 75.09558,-20.207817 z m 26.78711,27.330079 c 11.55543,-0.392072 21.34293,7.423612 27.8263,16.913992 11.06761,13.70457 23.28042,26.58318 33.7655,40.70905 6.53922,11.20578 -3.615,26.6595 -16.53906,25.02149 -12.78693,-3.13257 -24.41285,-10.13792 -36.75283,-14.74561 -6.02663,-4.18343 -15.56086,-3.55448 -19.2042,3.40772 -8.76758,16.23607 -18.76515,31.91654 -26.87891,48.44922 -1.51179,18.08242 2.63296,37.61782 -6.78516,54.29297 -5.76019,12.42005 -16.80094,20.52187 -27.83189,27.81392 -24.07752,18.02088 -37.92297,48.30884 -36.09584,78.30326 0.24922,23.87666 -0.47642,47.83038 0.32226,71.66407 0.2785,2.74162 4.8992,7.13178 -0.4414,5.9121 -4.77774,-1.29387 -14.7671,2.62387 -16.21484,-2 -0.21761,-39.3164 0.42096,-78.66957 -0.29297,-117.96484 -1.9715,-18.68426 -20.23706,-33.26619 -38.86914,-31.53516 -37.75261,10e-6 -75.50521,0 -113.25782,0 2.42423,-7.0693 8.39806,-16.15469 2.48633,-23.21874 -5.50821,-7.65956 -18.7942,-4.95297 -20.98755,4.19229 -10.90443,29.74847 -22.66047,59.24875 -33.076902,89.13974 -0.02034,25.12176 -0.485401,50.33532 0.199219,75.42578 0.261774,2.75343 4.928853,7.18106 -0.427735,5.96093 -4.775753,-1.29455 -14.765474,2.62485 -16.210937,-2 C 80.875297,415.22093 81.74733,377.1453 80.772352,339.11807 79.172075,314.81617 70.703613,291.50153 58.9375,270.35352 48.110517,246.96608 56.688858,217.10591 77.982422,202.73633 c 13.230319,-9.9264 30.058608,-11.39394 46.046878,-10.47099 44.40161,-0.2476 88.82922,0.47968 133.21566,-0.3438 28.33194,-1.8407 54.88958,-15.36604 75.07568,-35.00153 18.60776,-15.6581 36.39877,-32.33858 55.46842,-47.42001 11.2934,-7.76675 24.94442,-11.994389 38.65039,-11.976562 z M 32.351562,230.0625 c -5.234008,21.20227 -0.383017,43.86963 10.908204,62.29688 12.933472,25.37011 16.835095,55.36412 12.270192,83.49376 -2.344639,11.62312 -7.321345,22.70223 -14.434255,32.18788 C 26.564306,393.36029 20.387761,372.10809 22,351.77539 c 0.195736,-34.02344 -0.382047,-68.07992 0.271484,-102.08398 0.941078,-7.45422 4.599466,-14.5318 10.080078,-19.62891 z m 126.437498,97.70312 c -6.7044,15.32167 -14.815,30.13947 -20.81054,45.7168 -0.27271,25.04464 -0.31358,50.16487 0.0156,75.20703 -0.0441,2.92796 5.25801,7.76525 -0.30469,6.57422 -3.32832,-1.27824 -10.35601,2.48636 -11.54687,-1.67773 -2.6678,-5.71983 -5.97484,-11.16175 -4.63867,-17.76563 0.23792,-19.67499 -0.47323,-39.52193 0.35083,-59.09073 6.11483,-16.32132 12.22965,-32.64264 18.34448,-48.96396 6.19661,0 12.39323,0 18.58984,0 z m 103.60938,0 c -10.43123,39.31011 -21.42322,78.50595 -31.51758,117.88477 -0.38348,3.45484 1.26892,6.67127 2.8418,9.61523 -7.46094,0 -14.92188,10e-6 -22.38282,0 9.7487,-42.49999 19.4974,-85 29.2461,-127.5 7.27083,10e-6 14.54166,0 21.8125,0 z"
         id="XMLID_377_"
         inkscape:connector-curvature="0" />
    </g>
  </g>
</svg>
