<?xml version="1.0" encoding="iso-8859-1"?>
<!-- Generator: Adobe Illustrator 19.0.0, SVG Export Plug-In . SVG Version: 6.00 Build 0)  -->
<svg version="1.1" id="Capa_1" xmlns="http://www.w3.org/2000/svg" xmlns:xlink="http://www.w3.org/1999/xlink" x="0px" y="0px"
	 viewBox="0 0 512 512" style="enable-background:new 0 0 512 512;" xml:space="preserve">
<g>
	<g>
		<path d="M505.713,404.911c-2.041-21.456-19.83-37.809-41.38-38.038c-0.535-0.006-1.092,0.017-1.637,0.071l-198.606,19.431h0.001
			c-4.758,0.453-9.226-2.508-10.636-7.069c-1.135-3.666,0.077-6.607,0.899-8.034s2.761-3.948,6.502-4.803l59.114-13.51
			c18.162-4.15,30.469-21.26,28.629-39.801c-1.787-17.984-16.165-31.991-34.191-33.307c-1.181-0.085-2.374-0.033-3.546,0.158
			L90.636,315.965l-68.901,1.074c-8.241,0.128-14.869,6.817-14.922,15.058L6.1,443.046c-0.052,8.008,6.135,14.674,14.125,15.221
			l70.621,4.825l124.614,47.899c1.746,0.671,3.589,1.009,5.439,1.009c1.224,0,2.451-0.148,3.651-0.446l250.728-62.235
			c0.24-0.061,0.481-0.125,0.717-0.197C495.102,443.37,507.6,424.777,505.713,404.911z M467.54,420.004l-245.66,60.977
			L99.593,433.975c-1.411-0.543-2.896-0.871-4.405-0.974l-58.679-4.01l0.526-81.872l55.184-0.861
			c0.739-0.012,1.477-0.077,2.207-0.196L313.471,310.3c2.671,0.715,4.679,3.011,4.961,5.853c0.336,3.378-1.907,6.496-5.215,7.252
			l-59.114,13.51c-10.929,2.498-20.41,9.501-26.01,19.214c-5.6,9.713-6.912,21.426-3.598,32.138
			c5.646,18.246,23.55,30.141,42.548,28.28c0,0,0,0,0.001,0l197.623-19.334c5.703,0.375,10.321,4.813,10.868,10.568
			C476.05,413.214,472.701,418.306,467.54,420.004z"/>
	</g>
</g>
<g>
	<g>
		<path d="M364.171,68.214c-17.243-32.534-34.2-59.901-34.913-61.051C326.493,2.709,321.622,0,316.38,0s-10.113,2.709-12.878,7.163
			c-0.713,1.15-17.669,28.517-34.913,61.051c-36.162,68.233-36.162,88.944-36.162,95.749c0,45.437,36.29,82.535,81.405,83.889
			c0.844,0.042,1.693,0.065,2.548,0.065c0.854,0,1.704-0.021,2.548-0.065c45.115-1.355,81.406-38.452,81.406-83.889
			C400.334,157.157,400.334,136.446,364.171,68.214z M316.38,217.6c-10.609,0-19.239-8.631-19.239-19.239
			c0-0.329,0.175-8.409,15.359-37.086c1.301-2.457,2.605-4.863,3.88-7.175c1.276,2.312,2.58,4.718,3.881,7.175
			c15.184,28.678,15.359,36.757,15.359,37.086C335.621,208.969,326.99,217.6,316.38,217.6z M364.381,187.857
			c-5.986-23.711-27.731-59.99-35.123-71.895c-2.766-4.453-7.637-7.163-12.878-7.163s-10.113,2.709-12.878,7.163
			c-7.391,11.906-29.136,48.185-35.122,71.895c-3.599-7.201-5.637-15.313-5.637-23.895c0-20.7,29.1-77.318,53.639-119.378
			c24.538,42.052,53.636,98.661,53.636,119.378C370.018,172.545,367.981,180.657,364.381,187.857z"/>
	</g>
</g>
<g>
</g>
<g>
</g>
<g>
</g>
<g>
</g>
<g>
</g>
<g>
</g>
<g>
</g>
<g>
</g>
<g>
</g>
<g>
</g>
<g>
</g>
<g>
</g>
<g>
</g>
<g>
</g>
<g>
</g>
</svg>
