<svg id="Capa_1" enable-background="new 0 0 512 512" height="512" viewBox="0 0 512 512" width="512" xmlns="http://www.w3.org/2000/svg"><g><path d="m377.758 153.393c-5.676-.155-11.207.727-16.383 2.562v-79.853c0-24.555-19.679-45.071-43.867-45.734-6.289-.179-12.396.928-18.042 3.188-5.222-18.811-22.166-32.989-42.208-33.538-12.312-.337-23.918 4.195-32.724 12.763-5.951 5.791-10.096 12.912-12.158 20.713-5.603-2.218-11.66-3.298-17.884-3.125-19.896.546-36.742 14.524-42.093 33.134-5.679-2.291-11.831-3.405-18.157-3.234-24.188.663-43.867 21.18-43.867 45.734v159.236c0 47.917 21.878 95.689 60.25 132.053v99.708c0 8.284 6.716 15 15 15h180.75c8.284 0 15-6.716 15-15v-101.32c38.374-36.188 60.25-83.095 60.25-129.666v-66.887c0-24.555-19.679-45.071-43.867-45.734zm13.867 112.621c0 39.408-20.634 81.214-55.196 111.828-3.214 2.847-5.054 6.935-5.054 11.229v92.929h-150.75v-91.3c0-4.284-1.832-8.364-5.034-11.211-35.09-31.193-55.216-72.837-55.216-114.251v-159.236c0-8.46 6.59-15.523 14.689-15.746 4.122-.115 8.03 1.406 10.981 4.277 2.953 2.873 4.579 6.724 4.579 10.842v120.486c0 8.284 6.716 15 15 15s15-6.716 15-15v-120.486-29.273c0-8.46 6.59-15.523 14.689-15.746 4.125-.118 8.03 1.405 10.981 4.276 2.953 2.874 4.579 6.725 4.579 10.843v120.288c0 8.284 6.716 15 15 15s15-6.716 15-15v-120.287-.198-30.153c0-4.118 1.626-7.969 4.579-10.842 2.951-2.871 6.849-4.389 10.981-4.277 8.1.223 14.69 7.286 14.69 15.746v29.525.198 120.288c0 8.284 6.716 15 15 15s15-6.716 15-15v-120.287c0-4.118 1.626-7.969 4.579-10.843 2.952-2.871 6.872-4.389 10.981-4.276 8.1.223 14.689 7.286 14.689 15.746v179.884c0 8.284 6.716 15 15 15s15-6.716 15-15v-57.487c0-4.118 1.626-7.969 4.579-10.842 2.952-2.872 6.866-4.38 10.981-4.277 8.1.223 14.689 7.286 14.689 15.746v66.887z"/></g></svg>