<svg id="Capa_1" enable-background="new 0 0 511.634 511.634" height="512" viewBox="0 0 511.634 511.634" width="512" xmlns="http://www.w3.org/2000/svg"><path d="m250.514 175.477-9.437 9.436c-2.93 2.929-2.93 7.677-.001 10.606s7.678 2.93 10.606 0l4.134-4.133 4.134 4.133c2.927 2.929 7.677 2.929 10.606 0s2.929-7.678-.001-10.606l-9.437-9.436c-2.926-2.929-7.676-2.929-10.604 0z"/><path d="m222.536 79.815c5.529 0 9.268-5.908 6.652-10.954l-12.937-24.951c-1.907-3.678-6.434-5.112-10.11-3.206-3.678 1.907-5.112 6.433-3.206 10.11l12.938 24.952c1.334 2.574 3.951 4.049 6.663 4.049z"/><path d="m183.48 146.884c0 16.709 13.594 30.304 30.303 30.304 16.71 0 30.304-13.594 30.304-30.304s-13.594-30.303-30.304-30.303c-16.709 0-30.303 13.594-30.303 30.303zm30.303-15.303c8.438 0 15.304 6.865 15.304 15.303s-6.865 15.304-15.304 15.304c-8.438 0-15.303-6.865-15.303-15.304 0-8.438 6.866-15.303 15.303-15.303z"/><path d="m328.154 144.679v-10c0-4.142-3.357-7.5-7.5-7.5h-50.017c-4.143 0-7.5 3.358-7.5 7.5v10c0 17.925 14.583 32.509 32.509 32.509 17.925 0 32.508-14.583 32.508-32.509zm-50.017 0v-2.5h35.017v2.5c0 9.654-7.854 17.509-17.508 17.509s-17.509-7.854-17.509-17.509z"/><path d="m295.646 233.752c4.143 0 7.5-3.358 7.5-7.5v-24.549c9.023-1.178 17.615-4.481 25.183-9.724 3.404-2.359 4.252-7.032 1.894-10.437s-7.032-4.251-10.437-1.894c-7.119 4.933-15.466 7.54-24.14 7.54-4.143 0-7.5 3.358-7.5 7.5v31.563c0 4.143 3.358 7.501 7.5 7.501z"/><path d="m215.988 233.752c4.143 0 7.5-3.358 7.5-7.5v-31.563c0-4.142-3.357-7.5-7.5-7.5-8.674 0-17.021-2.607-24.14-7.54-3.403-2.358-8.077-1.511-10.437 1.894-2.358 3.405-1.511 8.077 1.894 10.437 7.567 5.243 16.159 8.546 25.183 9.724v24.549c0 4.141 3.358 7.499 7.5 7.499z"/><path d="m51.637 511.634h403.361c4.143 0 7.5-3.358 7.5-7.5v-51.279c2.972-1.05 5-3.867 5-7.071v-29.013c0-4.142-3.357-7.5-7.5-7.5s-7.5 3.358-7.5 7.5v10.907l-.351-.351c-2.93-2.929-7.678-2.929-10.607 0l-13.093 13.093-14.616-14.615c-2.928-2.929-7.677-2.929-10.606 0l-7.115 7.115v-21.62c0-4.142-3.357-7.5-7.5-7.5s-7.5 3.358-7.5 7.5v85.334h-250.585v-85.334c0-4.142-3.357-7.5-7.5-7.5s-7.5 3.358-7.5 7.5v85.334h-56.388v-127.444c0-28.59 23.26-51.85 51.85-51.85h43.739c.445 6.042 1.427 12.024 2.936 17.863 1.038 4.01 5.131 6.418 9.139 5.384 4.011-1.037 6.421-5.128 5.384-9.139-1.192-4.615-1.999-9.336-2.412-14.108h10.042c3.778 38.605 36.423 68.869 76.003 68.869s72.225-30.264 76.004-68.869h10.042c-3.813 44.126-40.948 78.869-86.046 78.869-27.202 0-52.281-12.476-68.809-34.228-2.506-3.298-7.21-3.942-10.509-1.435-3.298 2.506-3.94 7.211-1.435 10.509 19.388 25.519 48.82 40.154 80.752 40.154 53.372 0 97.242-41.462 101.094-93.869h43.737c28.59 0 51.85 23.26 51.85 51.85v12.581c0 4.142 3.357 7.5 7.5 7.5s7.5-3.358 7.5-7.5v-12.581c0-36.861-29.988-66.85-66.85-66.85-69.965.001-68.555 0-85.968 0-.547 0-.992-.445-.992-.993v-30.286c5.313-3.88 10.47-8.248 15.289-13.095 2.921-2.938 2.907-7.686-.03-10.607s-7.686-2.906-10.606.03c-19.447 19.558-47.062 31.244-62.523 31.244-15.866 0-37.545-10.976-50.974-21.173-11.682-8.871-31.563-27.604-33.462-53.386 0-.005 0-.009-.001-.014.001.014-6.725-91.304-6.725-91.304-.842-11.434.487-22.559 3.636-32.964l14.715 7.279c3.736 1.847 8.223.292 10.048-3.397 1.836-3.713.315-8.211-3.397-10.048l-15.831-7.831c12.523-25.35 36.494-44.402 65.548-49.683.059 24.305 9.673 46.856 26.04 63.588 0 0 0 0 .001.001 21.469 21.948 52.33 31.523 81.81 25.945.016 4.442.455-2.421-6.972 98.427-.417 5.659-1.745 11.34-3.946 16.884-1.528 3.85.354 8.209 4.203 9.738 3.85 1.527 8.21-.353 9.738-4.203 2.765-6.963 4.435-14.135 4.964-21.317l.318-4.319c24.007-1.997 42.932-22.173 42.932-46.686v-2.315c0-15.805-12.858-28.663-28.663-28.663h-8.55c.76-10.318 1.507-17.021.468-27.656-.414-4.233-4.265-7.278-8.481-6.701 1.014-8.461 2.682-17.359-1.091-25.783-3.27-7.302-9.626-11.835-16.08-16.292-7.886-5.447-8.984-6.339-16.619-16.886-3.161-4.368-9.528-13.123-14.249-16.218-16.475-12.78-35.253-4.634-50.473-5.035.012-.125.024-.25.036-.375.465-4.656-3.409-8.616-8.099-8.219-23.626 2.01-45.492 11.686-62.751 27.565l-8.406-8.406c-2.93-2.929-7.678-2.929-10.607 0s-2.929 7.678 0 10.606l8.702 8.702c-5.274 6.409-9.729 13.318-13.322 20.598l-2.109-1.043c-3.71-1.835-8.212-.316-10.048 3.397s-.315 8.211 3.397 10.048l3.085 1.526c-4.236 12.988-5.939 26.806-4.906 40.837l.688 9.335h-8.55c-15.805 0-28.663 12.858-28.663 28.663v2.315c0 24.514 18.925 44.69 42.932 46.687.259 3.518.256 3.652.356 4.315l-.037.003c1.979 26.873 19.514 49.825 41.523 65.847v30.325c0 .548-.445.993-.992.993-75.177 0-9.385 0-85.968 0-36.861 0-66.85 29.989-66.85 66.85v134.944c.001 4.142 3.358 7.5 7.501 7.5zm356.891-69.92 14.615 14.615c2.93 2.929 7.678 2.929 10.607 0l13.093-13.093.654.654v52.744h-51.389v-42.501zm-38.728-303.522c7.534 0 13.663 6.129 13.663 13.663v2.315c0 15.847-11.634 29.028-26.81 31.451l3.493-47.429zm-81.362-116.212-8.925 8.925c-2.929 2.929-2.929 7.678 0 10.606 2.93 2.929 7.678 2.929 10.607 0l10.972-10.972c4.99 5.853 9.238 13.107 15.098 19.413 2.878 3.097 6.214 5.573 9.541 7.896l-12.649 12.652c-2.929 2.929-2.929 7.678 0 10.606 2.93 2.929 7.678 2.929 10.607 0l13.717-13.717c.421.585.775 1.182 1.05 1.795 1.693 3.781.988 9.253.242 15.046-1.03 7.993-.707 7.583-.861 7.598-16.891 1.613-34.447-2.39-49.556-12.515l11.416-11.416c2.929-2.929 2.929-7.678-.001-10.606-2.928-2.93-7.677-2.929-10.606 0l-12.444 12.444c-12.053-12.09-20.083-28.194-21.886-46.106 12.128.221 24.408-3.576 33.678-1.649zm-160.266 132.191v-2.315c0-7.534 6.129-13.663 13.663-13.663h9.654l3.493 47.429c-15.176-2.423-26.81-15.604-26.81-31.451zm84.774 147.176v-20.819c14.997 8.207 30.601 13.105 42.871 13.105 11.269 0 27.031-4.434 42.871-13.066v20.78c0 8.819 7.174 15.993 15.992 15.993h2.05c-3.711 30.314-29.613 53.869-60.913 53.869s-57.202-23.555-60.912-53.869h2.049c8.818 0 15.992-7.174 15.992-15.993z"/><path d="m241.793 212.752c-4.143 0-7.5 3.358-7.5 7.5s3.357 7.5 7.5 7.5h28.05c4.143 0 7.5-3.358 7.5-7.5s-3.357-7.5-7.5-7.5z"/><path d="m235.111 257.284c2.984-2.923 6.929-4.533 11.105-4.533h19.201c4.173 0 8.115 1.608 11.104 4.53 3.652 3.588 9.704 2.534 11.967-1.994 1.524-3.049.777-6.64-1.6-8.848-5.793-5.605-13.41-8.689-21.471-8.689h-19.201c-8.093 0-15.735 3.106-21.532 8.749-2.919 2.774-3.127 7.38-.432 10.413 2.847 3.202 7.793 3.37 10.859.372z"/></svg>