<svg id="Capa_1" enable-background="new 0 0 512 512" height="512" viewBox="0 0 512 512" width="512" xmlns="http://www.w3.org/2000/svg"><path d="m201.725 154.667h60.369v32.879c0 3.36-2.734 6.094-6.094 6.094-4.142 0-7.5 3.358-7.5 7.5s3.358 7.5 7.5 7.5c11.631 0 21.094-9.463 21.094-21.094v-32.879h33.181c4.142 0 7.5-3.358 7.5-7.5s-3.358-7.5-7.5-7.5h-108.55c-4.142 0-7.5 3.358-7.5 7.5s3.358 7.5 7.5 7.5z"/><path d="m293.196 234.176-2.151-1.588c-20.803-15.358-49.284-15.361-70.091 0l-2.151 1.588c-3.333 2.46-4.04 7.156-1.579 10.488 2.46 3.333 7.156 4.04 10.488 1.579l2.151-1.588c15.515-11.454 36.755-11.456 52.272 0l2.151 1.588c3.317 2.449 8.017 1.768 10.488-1.579 2.462-3.332 1.755-8.028-1.578-10.488z"/><path d="m261.268 248.64h-10.535c-4.142 0-7.5 3.358-7.5 7.5s3.358 7.5 7.5 7.5h10.535c4.142 0 7.5-3.358 7.5-7.5s-3.358-7.5-7.5-7.5z"/><path d="m187.714 306.802c-13.292 2.237-93.909 15.804-103.25 17.376-23.261 3.915-40.144 23.876-40.144 47.464v132.858c0 4.142 3.358 7.5 7.5 7.5h408.36c4.142 0 7.5-3.358 7.5-7.5v-79.763c0-4.142-3.358-7.5-7.5-7.5s-7.5 3.358-7.5 7.5v72.263h-54.59v-72.263c0-4.142-3.358-7.5-7.5-7.5s-7.5 3.358-7.5 7.5v72.263h-60.884l49.187-60.065c1.863-2.275 2.225-5.429.925-8.066l-12.941-26.267 33.973-25.996c3.336-2.552 3.928-7.356 1.298-10.643l-29.697-37.107 60.096 10.113c16.012 2.695 27.633 16.435 27.633 32.672v18.095c0 4.142 3.358 7.5 7.5 7.5s7.5-3.358 7.5-7.5v-18.095c0-23.587-16.883-43.549-40.144-47.464-25.027-4.212-54.415-9.158-103.327-17.388-.36-.062-.579-.29-.649-.576l-1.33-5.437h13.198c4.142 0 7.5-3.358 7.5-7.5v-25.774c0-4.142-3.358-7.5-7.5-7.5h-7.956c16.703-16.128 26.495-35.073 27.922-54.461l.318-4.318c24.007-1.997 42.932-22.173 42.932-46.686v-2.315c0-15.805-12.858-28.663-28.663-28.663h-8.549l.36-4.883c.305-4.131-2.798-7.726-6.929-8.031-4.127-.297-7.726 2.798-8.031 6.929-1.522 20.669 1.062-14.429-1.787 24.269-7.13-8.7-11.008-19.502-11.008-30.9v-56.416c0-4.142-3.358-7.5-7.5-7.5h-17.792c-1.3 0-2.578.338-3.708.98l-13.877 7.892-13.877-7.892c-2.299-1.308-5.117-1.307-7.416 0l-13.875 7.891-13.874-7.891c-2.299-1.308-5.117-1.308-7.417.001l-13.867 7.89-13.871-7.89c-1.13-.643-2.408-.981-3.708-.981h-17.792c-4.142 0-7.5 3.358-7.5 7.5v56.415c0 11.398-3.878 22.2-11.008 30.9-.342-4.646-7.927-107.631-8.27-112.299-.577-7.814 5.582-14.543 13.51-14.543h167.609c7.853 0 14.094 6.652 13.511 14.543l-3.93 53.366c-.305 4.131 2.798 7.726 6.929 8.03 4.134.315 7.727-2.798 8.03-6.929l3.931-53.365c1.219-16.531-11.895-30.645-28.47-30.645h-167.61c-16.576 0-29.688 14.114-28.471 30.645l6.843 92.913h-8.549c-15.805 0-28.663 12.858-28.663 28.663v2.315c0 24.514 18.926 44.69 42.932 46.686l.318 4.318c1.428 19.389 11.22 38.333 27.923 54.461h-7.956c-4.142 0-7.5 3.358-7.5 7.5v25.774c0 4.142 3.358 7.5 7.5 7.5h13.198l-1.303 5.325c-.135.239-.507.586-.753.702zm22.73-27.417c15.802 9.111 32.552 14.614 45.556 14.614s29.754-5.503 45.556-14.614c.892 3.647 6.922 28.299 7.434 30.392.44 1.798 1.181 3.468 2.165 4.956-8.4 6.876-17.794 11.945-27.659 15.208 2.506-5.226 3.481-9.601 3.606-10.19.857-4.052-1.732-8.033-5.785-8.89-4.055-.858-8.033 1.732-8.89 5.785-.01.047-1.074 4.828-3.933 9.548-3.769 6.221-7.891 7.761-10.49 8.142-1.245.028-2.491.03-3.737.006-11.013-1.545-14.662-17.553-14.694-17.696-.857-4.053-4.838-6.645-8.89-5.785-4.053.857-6.643 4.837-5.785 8.89.124.589 1.1 4.964 3.606 10.19-9.891-3.271-19.307-8.358-27.724-15.261 1.031-1.502 1.804-3.163 2.229-4.902 1.446-5.906 7.36-30.084 7.435-30.393zm-151.124 92.257c0-16.237 11.621-29.977 27.633-32.672l60.097-10.114-29.697 37.107c-2.624 3.279-2.045 8.085 1.298 10.643l33.973 25.996-12.941 26.267c-1.299 2.638-.938 5.791.925 8.066l49.186 60.065h-60.884v-72.263c0-4.142-3.358-7.5-7.5-7.5s-7.5 3.358-7.5 7.5v72.263h-54.59zm149.862 125.358-53.911-65.833 13.53-27.462c1.583-3.212.673-7.095-2.17-9.271l-32.778-25.082 29.202-36.489 17.51 43.026c1.562 3.836 5.936 5.681 9.774 4.12 3.836-1.562 5.681-5.937 4.12-9.774l-18.798-46.193 10.934-1.84c39.023 36.171 99.719 36.236 138.814 0l10.933 1.84-70.387 172.958h-19.91l-38.407-94.378c-1.562-3.837-5.939-5.684-9.774-4.12-3.836 1.562-5.681 5.937-4.12 9.774l36.107 88.724zm136.187-102.566c-2.844 2.176-3.753 6.059-2.17 9.271l13.53 27.462-53.911 65.833h-20.669l66.796-164.137 29.202 36.489zm-17.44-108.657h-9.367c-1.438-5.877-.916-3.743-2.635-10.774h12.002zm42.053-147.219c7.534 0 13.663 6.129 13.663 13.663v2.315c0 15.847-11.635 29.028-26.81 31.451.732-9.936 2.774-37.663 3.493-47.429zm-168.711-76.531 15.855 9.019c2.3 1.309 5.118 1.308 7.417 0l13.867-7.89 13.874 7.891c2.299 1.307 5.117 1.307 7.416 0l13.875-7.892 13.877 7.892c2.299 1.308 5.116 1.308 7.415 0l15.861-9.02h8.309v30.568h-20.365v-3.125c0-4.142-3.358-7.5-7.5-7.5s-7.5 3.358-7.5 7.5v3.125h-20.172v-3.125c0-4.142-3.358-7.5-7.5-7.5s-7.5 3.358-7.5 7.5v3.125h-20.173v-3.125c0-4.142-3.358-7.5-7.5-7.5s-7.5 3.358-7.5 7.5v3.125h-20.365v-30.568zm-72.917 92.509v-2.315c0-7.534 6.129-13.663 13.663-13.663h9.654c1.094 14.858 2.469 33.52 3.493 47.429-15.175-2.423-26.81-15.604-26.81-31.451zm43.21 49.903c-2.314-31.414-1.233-16.74-3.131-42.52l5.828-5.828c12.06-12.06 18.702-28.094 18.702-45.149v-3.347h20.365v3.125c0 4.142 3.358 7.5 7.5 7.5s7.5-3.358 7.5-7.5v-3.125h20.172v3.125c0 4.142 3.358 7.5 7.5 7.5s7.5-3.358 7.5-7.5v-3.125h20.173v3.125c0 4.142 3.358 7.5 7.5 7.5s7.5-3.358 7.5-7.5v-3.125h20.365v3.347c0 17.055 6.642 33.09 18.702 45.149l5.828 5.828c-2.215 30.077-1.289 17.507-3.131 42.52-1.899 25.783-21.78 44.515-33.462 53.386-13.429 10.198-35.108 21.173-50.974 21.173s-37.545-10.976-50.974-21.173c-11.682-8.87-31.564-27.603-33.463-53.386zm12.507 81.338v-10.774h12.002c-2.054 8.397-1.631 6.669-2.635 10.774z"/></svg>