<svg id="Capa_1" enable-background="new 0 0 511.928 511.928" height="512" viewBox="0 0 511.928 511.928" width="512" xmlns="http://www.w3.org/2000/svg"><path d="m255.964 290.067c11.499 0 20.855-9.355 20.855-20.855 0-4.142-3.357-7.5-7.5-7.5s-7.5 3.358-7.5 7.5c0 3.229-2.626 5.855-5.855 5.855s-5.854-2.626-5.854-5.855c0-4.142-3.357-7.5-7.5-7.5s-7.5 3.358-7.5 7.5c-.001 11.5 9.355 20.855 20.854 20.855z"/><path d="m303.866 178.889c4.143 0 7.5-3.358 7.5-7.5s-3.357-7.5-7.5-7.5h-95.805c-4.143 0-7.5 3.358-7.5 7.5s3.357 7.5 7.5 7.5z"/><path d="m89.05 449.303c-4.11-.489-7.845 2.446-8.336 6.559l-5.689 47.678c-.532 4.459 2.954 8.389 7.447 8.389h346.984c4.49 0 7.979-3.927 7.447-8.389l-6.449-54.048c-4.854-40.682-31.729-75.212-69.394-90.115 10.113-24.389 10.211-52.444-1.904-78.499 9.431-7.463 15.065-18.871 15.065-31.164v-8.286c0-11.896-10.268-21.221-22.112-20.074l-8.221.796c.34-4.608.55-6.937.617-10.009h13.652c5.927 0 9.515-6.574 6.307-11.558l-3.636-5.651c-18.866-29.314-32.328-61.419-40.013-95.422l-10.982-48.601 37.707-5.834c11.633-1.799 19.871-12.024 19.163-23.783-.717-11.94-10.84-21.292-23.044-21.292h-78.731c-27.311 0-51.858 17.27-61.085 42.973-.232.644.656-3.196-12.566 55.858-.905 4.042 1.638 8.052 5.68 8.958 4.041.904 8.052-1.638 8.957-5.68l12.201-54.491c7.21-19.53 25.964-32.618 46.813-32.618h78.731c4.212 0 7.833 3.226 8.071 7.191.24 3.986-2.547 7.451-6.483 8.06l-39.545 6.118-.686-1.909c-1.398-3.9-5.697-5.922-9.593-4.525-3.898 1.4-5.924 5.695-4.524 9.593l2.654 7.393 12.631 55.895c7.559 33.446 20.44 65.146 38.319 94.325-64.149 0-139.929 0-177.108 0 11.48-18.733 20.987-38.693 28.29-59.41 1.377-3.907-.673-8.19-4.58-9.567-3.904-1.379-8.19.673-9.566 4.58-7.561 21.447-17.601 42.04-29.841 61.207l-4.249 6.654c-3.183 4.985.406 11.537 6.321 11.537h13.652c.067 3.05.238 4.871.617 10.009l-8.22-.796c-11.812-1.157-22.113 8.157-22.113 20.074v8.287c0 12.293 5.635 23.701 15.065 31.164-12.127 26.092-12.006 54.133-1.905 78.496-27.182 10.746-49.113 31.818-60.912 58.85-2.169 4.971 1.505 10.502 6.87 10.502 2.892 0 5.647-1.682 6.878-4.502 10.397-23.821 29.888-42.29 54.011-51.416 2.571 4.195 5.484 8.221 8.731 12.037l82.109 96.465c3.888 4.565 10.934 4.56 14.819-.001l43.672-51.307c2.686-3.154 2.305-7.888-.85-10.572-3.153-2.685-7.887-2.304-10.572.85l-39.66 46.593-78.097-91.75c-20.574-24.172-25.223-58.39-11.842-87.174 1.074-2.311 4.18-8.992 5.922-12.738l1.209 16.404c2.292 31.136 18.752 55.164 45.379 66.562-5.709 8.145-8.785 17.826-8.785 27.979 0 4.142 3.357 7.5 7.5 7.5s7.5-3.358 7.5-7.5c0-7.886 2.677-15.36 7.599-21.387 6.219 4.008 8.63 7.332 16.115 9.332v23.79c0 4.142 3.357 7.5 7.5 7.5s7.5-3.358 7.5-7.5v-23.791c7.483-2 10.148-5.486 16.114-9.332 4.923 6.027 7.6 13.501 7.6 21.387 0 4.142 3.357 7.5 7.5 7.5s7.5-3.358 7.5-7.5c0-10.153-3.075-19.834-8.785-27.979 26.628-11.4 43.086-35.427 45.38-66.562l1.208-16.403c1.125 2.42 4.393 9.448 5.922 12.737 13.381 28.785 8.733 63.002-11.842 87.174l-15.243 17.908c-2.686 3.154-2.305 7.888.85 10.573s7.888 2.305 10.572-.85c16.413-19.283 19.067-21.941 23.973-29.943 33.271 12.596 57.091 42.794 61.347 78.458l5.448 45.659h-54.822v-64.312c0-4.142-3.357-7.5-7.5-7.5s-7.5 3.358-7.5 7.5v64.312h-190.442v-64.312c0-4.142-3.357-7.5-7.5-7.5s-7.5 3.358-7.5 7.5v64.312h-54.822l4.688-39.289c.491-4.114-2.445-7.847-6.558-8.337zm264.507-213.02c3.016-.291 5.665 2.072 5.665 5.145v8.286c0 6.396-2.451 12.408-6.685 16.924l-10.294-22.143.528-7.167zm-24.056-24.142c-.068 2.57 0 1.144-2.008 28.405-5.12-10.715-7.587-18.358-11.093-28.405zm-53.254 0h24.267l3.488 10h-27.755zm-64.834 0h24.267v10h-27.756zm-15.886 0-3.36 9.632s0 0-.001 0c-2.187 6.272-4.775 12.585-7.731 18.773-2.009-27.273-1.945-26.018-2.008-28.405zm-42.821 37.573v-8.287c0-3.05 2.625-5.434 5.666-5.144l10.785 1.045.528 7.166-10.294 22.144c-4.234-4.516-6.685-10.528-6.685-16.924zm131.54 95.962c-5.769 2.124-12.236 5.565-19.729 11.449-5.004 3.929-12.075 3.952-17.107 0-5.998-4.71-12.515-8.792-19.729-11.449-23.191-8.529-37.613-28.635-39.566-55.164l-1.505-20.431c9.576-19.418 12.351-24.71 15.75-32.941h33.605c8.114 0 14.716-6.602 14.716-14.716v-10.284h10.566v10.284c0 8.114 6.602 14.716 14.716 14.716h33.604c3.322 8.044 5.193 11.534 15.751 32.942l-1.505 20.43c-1.954 26.528-16.375 46.634-39.567 55.164z"/><path d="m255.964 325.462c-8.214 0-14.452-1.223-18.97-2.68-5.057-1.631-6.859-7.85-3.425-11.904 1.952-2.305 5.1-3.266 7.977-2.346 3.016.965 7.709 1.93 14.417 1.93s11.401-.965 14.417-1.93c2.876-.92 6.025.041 7.977 2.346 3.434 4.055 1.632 10.273-3.425 11.904-4.516 1.457-10.754 2.68-18.968 2.68z"/></svg>