<svg id="Capa_1" enable-background="new 0 0 512 512" height="512" viewBox="0 0 512 512" width="512" xmlns="http://www.w3.org/2000/svg"><path d="m279.347 353.329c-4.013-1.014-8.095 1.413-9.112 5.429-.04.158-4.293 15.846-14.234 15.846-9.818 0-14.199-15.714-14.234-15.846-1.017-4.015-5.099-6.447-9.112-5.429-4.015 1.018-6.446 5.097-5.429 9.112.169.667 1.764 6.697 5.646 12.893 5.85 9.335 13.848 14.27 23.129 14.27s17.278-4.934 23.129-14.27c3.883-6.196 5.478-12.226 5.646-12.893 1.016-4.015-1.414-8.095-5.429-9.112z"/><path d="m179.587 438.12c0 4.142 3.358 7.5 7.5 7.5h53.395c4.142 0 7.5-3.358 7.5-7.5s-3.358-7.5-7.5-7.5h-53.395c-4.142 0-7.5 3.358-7.5 7.5z"/><path d="m324.913 430.62h-53.395c-4.143 0-7.5 3.358-7.5 7.5s3.357 7.5 7.5 7.5h53.395c4.143 0 7.5-3.358 7.5-7.5s-3.357-7.5-7.5-7.5z"/><path d="m187.087 479.241h53.395c4.142 0 7.5-3.358 7.5-7.5s-3.358-7.5-7.5-7.5h-53.395c-4.142 0-7.5 3.358-7.5 7.5s3.358 7.5 7.5 7.5z"/><path d="m324.913 464.241h-53.395c-4.143 0-7.5 3.358-7.5 7.5s3.357 7.5 7.5 7.5h53.395c4.143 0 7.5-3.358 7.5-7.5s-3.357-7.5-7.5-7.5z"/><path d="m205.916 158.916c-4.142.079-7.435 3.5-7.355 7.642.078 4.093 3.42 7.357 7.496 7.357 21.155 0 41.27-17.709 41.27-42.612 0-11.354-9.237-20.59-20.59-20.59h-42.696c-11.354 0-20.59 9.237-20.59 20.59 0 7.898 2.195 15.646 6.347 22.403 2.168 3.529 6.789 4.633 10.316 2.464 3.529-2.168 4.632-6.787 2.464-10.316-2.7-4.395-4.127-9.426-4.127-14.551 0-3.083 2.508-5.59 5.59-5.59h42.696c3.083 0 5.59 2.508 5.59 5.59v.68c-.002 14.572-11.849 26.654-26.411 26.933z"/><path d="m307.471 173.912c22.665-.455 41.081-19.929 41.081-42.61 0-11.354-9.237-20.59-20.591-20.59h-42.695c-11.354 0-20.591 9.237-20.591 20.59 0 25.202 20.045 43.071 42.796 42.61zm-27.796-41.93v-.68c0-3.083 2.508-5.59 5.591-5.59h42.695c3.083 0 5.591 2.508 5.591 5.59 0 14.681-12.081 27.326-26.382 27.613-15.085.335-27.495-11.828-27.495-26.933z"/><path d="m237.211 181.066-3.814 3.814c-2.929 2.929-2.929 7.678 0 10.606 2.929 2.929 7.678 2.929 10.606 0l3.814-3.814c2.929-2.929 2.929-7.678 0-10.606-2.928-2.928-7.677-2.928-10.606 0z"/><path d="m267.997 195.487c2.927 2.928 7.677 2.929 10.606-.001 2.929-2.929 2.929-7.678-.001-10.606l-3.814-3.814c-2.928-2.929-7.677-2.929-10.606.001-2.929 2.929-2.929 7.678.001 10.606z"/><path d="m233.307 252.141h45.385c4.143 0 7.5-3.358 7.5-7.5s-3.357-7.5-7.5-7.5h-45.385c-4.142 0-7.5 3.358-7.5 7.5s3.358 7.5 7.5 7.5z"/><path d="m292.476 55.37c4.143 0 7.5-3.358 7.5-7.5s-3.357-7.5-7.5-7.5h-72.951c-4.142 0-7.5 3.358-7.5 7.5s3.358 7.5 7.5 7.5z"/><path d="m197.887 78.541c0 4.142 3.358 7.5 7.5 7.5h101.227c4.143 0 7.5-3.358 7.5-7.5s-3.357-7.5-7.5-7.5h-101.227c-4.142 0-7.5 3.358-7.5 7.5z"/><path d="m108.415 455.805c-4.142 0-7.5 3.358-7.5 7.5v41.195c0 4.142 3.358 7.5 7.5 7.5h295.17c4.143 0 7.5-3.358 7.5-7.5v-111.664c0-20.285-14.46-37.775-34.383-41.588l-57.745-11.052c-8.179-1.565-14.114-8.745-14.114-17.072v-40.951c10.363-8.858 20.632-20.046 30.166-33.11 2.441-3.346 1.708-8.038-1.638-10.479s-8.037-1.709-10.479 1.638c-21.7 29.737-48.581 49.717-66.892 49.717-17.962 0-44.463-19.461-65.942-48.428-24.677-33.277-38.83-72.292-38.83-107.041 0-75.525 46.556-119.47 104.772-119.47 58.169 0 104.772 43.893 104.772 119.469 0 24.243-6.841 50.584-19.783 76.178-1.87 3.697-.389 8.208 3.308 10.078 3.694 1.869 8.208.388 10.077-3.308 13.999-27.682 21.398-56.364 21.398-82.947 0-84.812-54.181-134.47-119.772-134.47-65.585 0-119.772 49.65-119.772 134.469 0 37.898 15.229 80.169 41.781 115.976 9.233 12.451 19.147 23.155 29.148 31.698v40.982c0 8.327-5.936 15.506-14.114 17.072l-57.745 11.052c-19.923 3.813-34.383 21.304-34.383 41.588v35.468c0 4.142 3.358 7.5 7.5 7.5s7.5-3.358 7.5-7.5v-35.468c0-13.099 9.337-24.394 22.203-26.856l57.745-11.052c15.236-2.916 26.294-16.292 26.294-31.804v-29.836c11.922 7.528 23.544 11.65 33.843 11.65 10.329 0 21.94-4.107 33.843-11.617v29.803c0 15.513 11.059 28.888 26.294 31.804l57.745 11.052c12.865 2.462 22.203 13.757 22.203 26.856v104.163h-33.593v-68.695c0-4.142-3.357-7.5-7.5-7.5s-7.5 3.358-7.5 7.5v68.695h-182.984v-68.695c0-4.142-3.358-7.5-7.5-7.5s-7.5 3.358-7.5 7.5v68.695h-33.593v-33.695c0-4.142-3.358-7.5-7.5-7.5z"/></svg>