<svg id="Capa_1" enable-background="new 0 0 512.748 512.748" height="512" viewBox="0 0 512.748 512.748" width="512" xmlns="http://www.w3.org/2000/svg"><path d="m344.132 228.083c20.509 0 37.194-16.686 37.194-37.194 0-20.509-16.686-37.195-37.194-37.195s-37.194 16.686-37.194 37.195c-.001 20.509 16.685 37.194 37.194 37.194zm0-59.389c12.238 0 22.194 9.957 22.194 22.195s-9.956 22.194-22.194 22.194-22.194-9.957-22.194-22.194c-.001-12.238 9.955-22.195 22.194-22.195z"/><path d="m339.437 198.389h9.389c4.143 0 7.5-3.358 7.5-7.5s-3.357-7.5-7.5-7.5h-9.389c-4.143 0-7.5 3.358-7.5 7.5s3.358 7.5 7.5 7.5z"/><path d="m229.577 284.572c0 4.142 3.357 7.5 7.5 7.5s7.5-3.358 7.5-7.5v-17.615c0-4.142-3.357-7.5-7.5-7.5s-7.5 3.358-7.5 7.5z"/><path d="m275.671 292.072c4.143 0 7.5-3.358 7.5-7.5v-17.615c0-4.142-3.357-7.5-7.5-7.5s-7.5 3.358-7.5 7.5v17.615c0 4.142 3.357 7.5 7.5 7.5z"/><path d="m51.5 280.945c0 13.277 12.792 24.033 38.906 32.56 13.6 25.639 40.167 45.478 66.451 58.274-21.16 10.284-40.257 24.723-55.912 42.378-4.329 4.883-.765 12.476 5.608 12.476 2.071 0 4.133-.853 5.614-2.524 17.338-19.554 39.281-34.802 63.599-44.224 51.249 19.141 109.85 19.163 161.207-.004 49.702 19.223 88.378 61.529 101.053 117.866h-52.92l-14.25-34.666c-1.575-3.832-5.96-5.659-9.788-4.085-3.831 1.575-5.66 5.957-4.085 9.788l11.906 28.962h-33.274l-3.007-14.043c-3.755-17.533-13.501-33.397-27.444-44.67-28.713-23.215-69.945-23.374-98.854 0-13.943 11.273-23.689 27.137-27.444 44.67l-3.007 14.043h-31.998l11.906-28.962c1.575-3.831-.254-8.213-4.085-9.788-3.832-1.574-8.213.253-9.788 4.085l-14.25 34.666h-52.92c3.555-15.811 8.972-30.523 17.119-45.06 2.024-3.613.737-8.184-2.876-10.209-3.616-2.028-8.185-.738-10.21 2.876-8.453 15.084-14.672 31.327-18.482 48.278l-2.241 9.97c-1.054 4.683 2.513 9.145 7.317 9.145h382.052c4.801 0 8.372-4.458 7.317-9.146l-2.242-9.97c-12.085-53.754-47.629-98.205-96.56-121.866 25.349-12.335 50.961-31.257 64.991-55.663 27.065-8.572 40.341-20.203 40.341-35.159 0-27.399-20.637-57.751-55.456-81.878.979-7.467.617-15.089-1.119-22.452h4.053c8.037 0 14.576-6.539 14.576-14.576v-18.77c0-8.037-6.539-14.576-14.576-14.576h-1.171l9.725-120.579c.503-6.244-6.451-10.328-11.659-6.828l-72.891 48.995c-3.613 2.428-4.41 7.425-1.716 10.855 1.891 2.409 2.89 5.307 2.89 8.379 0 7.492-6.096 13.588-13.589 13.588-7.492 0-13.588-6.096-13.588-13.588 0-3.551 1.361-6.91 3.833-9.458 2.881-2.972 2.812-7.723-.163-10.606l-48.804-47.321c-2.908-2.821-7.533-2.821-10.441 0l-48.804 47.324c-2.972 2.881-3.047 7.632-.163 10.606 2.472 2.548 3.833 5.907 3.833 9.458 0 7.492-6.096 13.588-13.588 13.588s-13.588-6.096-13.588-13.588c0-3.073.999-5.971 2.889-8.379 2.689-3.424 1.904-8.422-1.716-10.855l-72.891-48.994c-5.198-3.494-12.164.572-11.659 6.828l3.979 49.329c.333 4.129 3.951 7.211 8.079 6.873 4.128-.333 7.205-3.95 6.872-8.079l-2.729-33.824 54.218 36.443c-7.492 18.619 6.247 39.246 26.545 39.246 15.764 0 28.588-12.825 28.588-28.588 0-4.906-1.235-9.638-3.556-13.827l38.91-37.729 38.91 37.729c-2.32 4.189-3.556 8.921-3.556 13.827 0 15.763 12.824 28.588 28.588 28.588 20.309 0 34.037-20.64 26.545-39.246l54.218-36.443-8.572 106.279c-4.711 0-267.551 0-272.266 0l-3.004-37.247c-.333-4.129-3.964-7.208-8.078-6.873-4.129.333-7.206 3.95-6.873 8.079l2.907 36.041h-1.172c-8.037 0-14.576 6.539-14.576 14.576v18.77c0 8.037 6.539 14.576 14.576 14.576h4.053c-1.726 7.322-2.103 14.951-1.118 22.452-34.818 24.126-55.455 54.478-55.455 81.877zm139.697 216.803 2.335-10.903c6.24-29.142 32.4-50.292 62.203-50.292s55.964 21.151 62.204 50.293l2.335 10.902zm217.106-354.054v17.921h-9.307c-3.661-6.834-8.562-12.908-14.4-17.921zm-104.692 0c-5.779 4.959-10.679 11.005-14.368 17.921h-65.737c-3.689-6.916-8.589-12.962-14.369-17.921zm-199.166 17.921v-17.921h23.706c-5.838 5.013-10.739 11.087-14.4 17.921zm14.851 47.218c2.59-1.705 3.863-4.828 3.205-7.858-6.423-29.535 16.167-57.28 46.115-57.28 18.812 0 35.813 11.151 43.311 28.41 1.19 2.739 3.893 4.511 6.879 4.511h75.138c2.986 0 5.688-1.772 6.879-4.512 7.497-17.258 24.497-28.409 43.31-28.409 29.837 0 52.524 27.603 46.128 57.228-.699 3.088.625 6.327 3.369 8.027 32.954 21.741 52.619 48.644 52.619 71.996 0 3.393-2.914 12.825-31.931 21.537-1.252.254-14.197 4.776-43.373 8.929-4.101.584-6.952 4.381-6.368 8.482.583 4.101 4.38 6.948 8.481 6.369 9.189-1.308 17.647-2.769 25.38-4.386-11.079 12.966-26.893 25.082-45.495 34.612-60.063 30.768-135.609 30.226-194.837-.883-19.084-10.024-35.022-22.696-45.812-36.162 49.905 11.338 131.746 18.343 222.553 10.991 4.128-.334 7.204-3.952 6.87-8.081-.334-4.128-3.942-7.212-8.081-6.871-80.558 6.522-154.654 1.564-204.84-7.936-12.406-2.348-22.342-4.788-30.302-7.195-.412-.167-.839-.298-1.274-.39-29.645-9.198-30.72-17.829-30.72-19.017 0-23.393 19.736-50.351 52.796-72.112z"/><path d="m344.132 253.083c4.143 0 7.5-3.358 7.5-7.5s-3.357-7.5-7.5-7.5c-26.023 0-47.195-21.171-47.195-47.194 0-4.142-3.357-7.5-7.5-7.5s-7.5 3.358-7.5 7.5c-.001 34.294 27.9 62.194 62.195 62.194z"/><path d="m168.616 228.083c20.51 0 37.195-16.686 37.195-37.194 0-20.509-16.686-37.195-37.195-37.195s-37.194 16.686-37.194 37.195 16.685 37.194 37.194 37.194zm0-59.389c12.238 0 22.195 9.957 22.195 22.195s-9.957 22.194-22.195 22.194-22.194-9.957-22.194-22.194c0-12.238 9.956-22.195 22.194-22.195z"/><path d="m163.922 198.389h9.39c4.143 0 7.5-3.358 7.5-7.5s-3.357-7.5-7.5-7.5h-9.39c-4.143 0-7.5 3.358-7.5 7.5s3.357 7.5 7.5 7.5z"/><path d="m168.616 238.083c-4.143 0-7.5 3.358-7.5 7.5s3.357 7.5 7.5 7.5c34.295 0 62.195-27.9 62.195-62.194 0-4.142-3.357-7.5-7.5-7.5s-7.5 3.358-7.5 7.5c0 26.023-21.171 47.194-47.195 47.194z"/></svg>