<svg id="Capa_1" enable-background="new 0 0 512 512" height="512" viewBox="0 0 512 512" width="512" xmlns="http://www.w3.org/2000/svg"><path d="m274.253 293.602c-2.93-2.929-7.678-2.929-10.607 0s-2.929 7.678 0 10.606c16.67 16.669 43.651 16.672 60.321 0 2.929-2.929 2.929-7.678-.001-10.606s-7.677-2.929-10.606.001c-10.805 10.805-28.3 10.807-39.107-.001z"/><path d="m36.715 99.468 25.908 154.995c2.686 16.065 14.207 28.62 29.121 33.053-.209.55.455-1.395-9.981 29.561-1.637 4.856 1.981 9.896 7.107 9.896h6.642v24.396c0 4.142 3.357 7.5 7.5 7.5s7.5-3.358 7.5-7.5v-24.396h12.351v170.027h-12.351v-110.631c0-4.142-3.357-7.5-7.5-7.5s-7.5 3.358-7.5 7.5v118.131c0 4.142 3.357 7.5 7.5 7.5h364.876c4.698 0 8.246-4.279 7.368-8.898l-18.192-95.899c-4.962-26.163-25.566-46.173-51.658-50.487l-.738-10.516c-.291-4.133-3.912-7.259-8.006-6.957-4.133.29-7.247 3.875-6.957 8.006l.526 7.502-14.241-1.798-7.548-80.047c-1.028-10.904-3.058-21.708-6.052-32.24h19.519c1.514 15.425 1.896 22.456 5.295 70.919.277 3.953 3.57 6.976 7.474 6.976 4.362 0 7.794-3.691 7.489-8.025-3.391-48.333-3.776-55.21-5.188-69.869h38.609c3.294 0 6.203-2.149 7.17-5.298s-.234-6.561-2.961-8.409l-61.641-41.794c-5.924-16.781-41.605-117.864-45.876-129.963h3.823c22.35 0 40.533-18.183 40.533-40.533v-7.17c0-4.142-3.357-7.5-7.5-7.5h-75.33c-11.356 0-21.526 7.195-25.308 17.904l-25.615 72.567c-1.379 3.906.67 8.19 4.576 9.569 3.904 1.379 8.19-.67 9.568-4.576l25.615-72.567c1.668-4.724 6.154-7.898 11.163-7.898h67.828c-.177 13.928-11.563 25.203-25.531 25.203h-9.118l-3.049-8.638c-1.378-3.906-5.662-5.954-9.568-4.576-3.906 1.379-5.955 5.663-4.576 9.569 7.938 22.488 30.378 86.058 39.689 112.436h-111.35l6.92-19.602c1.379-3.906-.67-8.19-4.576-9.569-3.904-1.378-8.189.67-9.568 4.576-2.474 7.009-18.776 53.192-21.45 60.767l-30.589 20.74 17.792-106.439c.762-4.563-2.757-8.736-7.397-8.736-53.059 0-92.191 0-145.149 0-4.628.001-8.163 4.161-7.398 8.738zm62.598 212.505 6.383-18.936c.765-2.267 2.886-3.79 5.278-3.79h11.425c2.393 0 4.514 1.523 5.277 3.79l6.384 18.936c-11.351 0-25.515 0-34.747 0zm343.014 98.026 16.504 87.001h-53.346l-7.788-49.125c-.648-4.09-4.473-6.883-8.582-6.233-4.091.649-6.881 4.491-6.232 8.582l7.415 46.776h-192.983l7.416-46.776c.648-4.091-2.142-7.933-6.232-8.582-4.098-.647-7.934 2.143-8.582 6.233l-7.789 49.125h-44.266v-50.132l7.246-37.096c3.987-20.421 20.537-35.893 41.181-38.5 76.594-9.672 53.433-6.747 57.929-7.315l43.114 73.74c2.892 4.947 10.058 4.945 12.949 0l43.114-73.74c4.56.576-18.774-2.371 57.701 7.286 20.761 2.622 37.331 18.197 41.231 38.756zm-236.623-169.331h19.519c-2.994 10.532-5.024 21.336-6.052 32.24l-7.548 80.047-14.241 1.798c6.782-96.696 6.819-98.771 8.322-114.085zm120.232 93.991v14.458c0 2.473.635 4.817 1.758 6.866-20.963 6.614-46.308 6.716-67.77-.012 1.119-2.046 1.752-4.386 1.752-6.855v-14.458c11.723 6.033 23.398 9.336 32.13 9.336s20.408-3.302 32.13-9.335zm-5.367 38.62-26.763 45.773-26.763-45.773c17.606 3.618 35.913 3.62 53.526 0zm-73.892-24.751-19.805 2.501 3.809-40.396c4.749 5.512 10.213 10.443 15.997 14.714v23.181zm94.259 0v-23.181c5.784-4.271 11.248-9.202 15.997-14.714l3.809 40.396zm13.756-61.663c-11.214 24.538-43.734 42.129-60.885 42.129s-49.671-17.591-60.886-42.129c1.554-16.481 2.255-27.967 7.954-46.197h55.995v22.97c0 1.689-1.374 3.063-3.063 3.063-4.143 0-7.5 3.358-7.5 7.5s3.357 7.5 7.5 7.5c9.96 0 18.063-8.103 18.063-18.063v-22.97h34.868c5.858 18.739 6.582 31.646 7.954 46.197zm-178.242-61.197 41.561-28.179h151.592l41.561 28.179c-485.254 0-32.273 0-234.714 0zm178.326-61.673 6.529 18.495h-134.996l6.529-18.495zm-164.142 76.673c-1.455 15.104-1.297 14.404-8.426 116.04-18.919 3.06-35.006 14.401-44.346 30.363v-60.099h6.642c5.124 0 8.745-5.037 7.107-9.896-10.531-31.235-9.776-29.018-9.982-29.561 14.915-4.433 26.437-16.988 29.122-33.053l2.306-13.794zm-116.199-134.937 6.207 76.255c.319 3.922 3.601 6.892 7.468 6.892 4.398 0 7.838-3.748 7.483-8.109l-6.108-75.039h19.702v75.685c0 4.142 3.357 7.5 7.5 7.5s7.5-3.358 7.5-7.5v-75.685h19.701l-6.108 75.038c-.355 4.366 3.09 8.109 7.483 8.109 3.866 0 7.148-2.971 7.468-6.892l6.207-76.255h21.465c-4.981 29.799-19.443 116.313-24.448 146.258-2.155 12.896-13.21 22.257-26.286 22.257-9.804 0-17.326 0-25.966 0-13.076 0-24.131-9.36-26.286-22.257l-24.447-146.257z"/></svg>