<svg id="Capa_1" enable-background="new 0 0 512 512" height="512" viewBox="0 0 512 512" width="512" xmlns="http://www.w3.org/2000/svg"><path d="m187.335 377.682c0 4.143 3.358 7.5 7.5 7.5h37.432c8.948 0 16.229 7.28 16.229 16.229v78.09c0 4.143 3.358 7.5 7.5 7.5s7.5-3.357 7.5-7.5c0-15.973 0-62.284 0-78.09 0-8.948 7.28-16.229 16.229-16.229h37.432c4.142 0 7.5-3.357 7.5-7.5s-3.358-7.5-7.5-7.5h-37.432c-9.485 0-17.996 4.251-23.729 10.948-5.732-6.697-14.243-10.948-23.729-10.948h-37.432c-4.142 0-7.5 3.357-7.5 7.5z"/><path d="m276.062 343.969 12.149-23.271c1.917-3.672.495-8.202-3.177-10.119-3.672-1.918-8.204-.494-10.12 3.178l-12.149 23.271c-3.338 6.394-10.189 6.417-13.539 0l-12.149-23.271c-1.917-3.672-6.447-5.096-10.12-3.178-3.672 1.917-5.094 6.447-3.177 10.119l12.149 23.271c8.946 17.137 31.175 17.159 40.133 0z"/><path d="m47.239 428.741c.525-1.518.595-3.155.138-4.694l-3.481-11.713c-2.896-9.744-3.764-19.887-3.852-30.053-.038-4.345-3.769-7.808-8.207-7.401-3.913.358-6.801 3.833-6.792 7.763.028 12.647 1.869 25.205 5.473 37.33l1.808 6.084c-3.079 9.639-4.638 19.646-4.638 29.785v48.658c0 4.142 3.358 7.5 7.5 7.5h441.615c4.142 0 7.5-3.358 7.5-7.5v-48.658c0-10.139-1.559-20.146-4.638-29.785l1.809-6.084c5.946-20.007 5.473-34.13 5.473-47.486 0-22.701-10.9-43.978-28.922-57.339.601-4.245-1.323-8.425-5.068-10.735l-20.95-12.929c-17.121-10.565-36.511-16.205-58.168-16.205l-2.428-2.429c-4.198-4.198-8.952-7.737-14.111-10.532l5.25-3.078c2.296-1.346 3.707-3.808 3.707-6.47v-11.404c0-4.107-3.164-7.688-7.269-7.811-4.247-.128-7.731 3.277-7.731 7.497v7.421l-52.272 30.646v-69.363l38.015-14.815c2.88-1.123 4.777-3.897 4.777-6.988v-25c0-4.142-3.358-7.5-7.5-7.5h-66.391c-4.142 0-7.5 3.358-7.5 7.5v39.706h-8.779v-39.706c0-4.142-3.358-7.5-7.5-7.5h-66.391c-4.142 0-7.5 3.358-7.5 7.5v25c0 3.066 1.873 5.856 4.776 6.988l38.015 14.815v69.363l-52.272-30.646v-128.927l87.761-30.791v35.27c0 4.107 3.164 7.688 7.269 7.811 4.247.128 7.731-3.277 7.731-7.497v-35.584l87.761 30.791v86.506c0 4.142 3.358 7.5 7.5 7.5s7.5-3.358 7.5-7.5v-1.793h7.22c12.452 0 22.546-10.094 22.546-22.546v-29.041c0-12.452-10.094-22.546-22.546-22.546h-7.221v-15.896c0-2.761-1.513-5.261-3.874-6.565-9.427-34.568-35.586-62.834-69.396-74.883l-17.451-28.085c-1.828-2.941-4.986-4.697-8.449-4.697h-22.182c-3.439 0-6.634 1.776-8.449 4.697l-17.451 28.084c-7.938 2.828-15.545 6.571-22.65 11.149-3.203 2.063-4.566 6.216-2.919 9.651 1.985 4.14 7.088 5.521 10.855 3.08 6.065-3.928 12.555-7.149 19.326-9.597l29.348 12.971c1.928.854 4.132.854 6.063 0l29.349-12.971c25.56 9.246 46.009 29.235 56.052 54.19-91.534-32.115-86.683-30.677-88.812-30.569-1.603.081 1.802-.957-88.079 30.578 3.026-7.565 7.026-14.71 11.965-21.353 2.443-3.286 2.083-8.022-1.107-10.589-3.326-2.676-8.176-2.042-10.712 1.345-8.374 11.191-14.444 23.62-18.076 36.999-2.36 1.304-3.871 3.803-3.871 6.563v15.896h-7.22c-12.452 0-22.546 10.094-22.546 22.546v29.04c0 12.452 10.095 22.547 22.547 22.547h7.219v48.511c0 2.661 1.411 5.124 3.707 6.47l5.25 3.078c-5.158 2.796-9.912 6.334-14.11 10.532l-2.428 2.429c-21.657 0-41.047 5.64-58.169 16.205l-20.948 12.929c-3.743 2.308-5.666 6.481-5.071 10.722-9.348 6.896-16.839 15.916-21.914 26.463-1.79 3.721-.368 8.351 3.334 10.181 3.779 1.868 8.307.256 10.096-3.495 4.689-9.834 12.036-18.004 21.322-23.735h49.988c14.255 0 28.582 1.141 42.683 3.394 1.224 14.532 14.052 25.811 29.16 24.514 12.886-1.107 23.311-11.524 24.426-24.41.858-9.918-3.706-18.856-11.052-24.175 4.165-1.46 7.516-4.452 9.449-8.274l5.258 3.083c5 2.931 11.293-.674 11.293-6.47v-2.316c10.116 4.355 19.923 6.757 27.989 6.757s17.873-2.403 27.989-6.757v2.316c0 5.825 6.342 9.373 11.293 6.47l5.259-3.083c1.934 3.823 5.284 6.814 9.449 8.274-7.347 5.319-11.91 14.257-11.052 24.175 1.115 12.885 11.54 23.303 24.426 24.41 15.108 1.297 27.936-9.982 29.16-24.514 14.101-2.254 28.429-3.394 42.683-3.394h49.984c16.557 10.241 26.76 28.425 26.76 47.938v9.861c0 18.487-3.966 30.374-7.333 41.701-.457 1.537-.388 3.171.136 4.687 3.021 8.738 4.553 17.858 4.553 27.106v41.16h-43.676v-31.684c0-13.141 6.579-25.078 16.853-33.271 3.178-2.535 3.762-7.158 1.285-10.408-2.512-3.295-7.218-3.93-10.512-1.417-14.167 10.802-22.626 27.887-22.626 45.703v31.077h-27.345c6.605-7.616 10.606-17.548 10.606-28.396v-64.086l29.064-29.064c2.929-2.93 2.929-7.678 0-10.607-2.929-2.928-7.678-2.928-10.606 0l-22.044 22.044c-5.171-9.804-15.407-16.541-27.203-16.705-3.928-.055-7.43 2.689-7.887 6.591-.533 4.548 3.006 8.406 7.447 8.406 8.874 0 16.229 7.203 16.229 16.239v67.183c0 15.683-12.714 28.396-28.396 28.396h-188.998c-15.658 0-28.396-12.738-28.396-28.396 0-.154 0-67.319 0-67.2.004-8.932 7.261-16.201 16.19-16.222 2.9-.007 5.658-1.512 6.819-4.169 2.406-5.51-1.565-10.831-6.78-10.831-11.981 0-22.407 6.782-27.642 16.708l-22.044-22.044c-2.929-2.928-7.678-2.928-10.606 0-2.929 2.93-2.929 7.678 0 10.607l29.064 29.064v64.086c0 10.849 4.002 20.78 10.606 28.396h-27.345v-31.076c0-17.816-8.458-34.901-22.626-45.703-3.378-2.577-8.244-1.843-10.702 1.678-2.316 3.318-1.402 7.926 1.801 10.398 10.354 7.991 16.527 20.542 16.527 33.627v31.076h-43.675v-41.158c0-9.246 1.531-18.363 4.551-27.101zm208.756-383.765-21.111-9.33 12.829-20.646h16.565l12.829 20.646zm117.482 100.15c4.161 0 7.546 3.385 7.546 7.546v29.04c0 4.161-3.385 7.547-7.546 7.547h-7.22v-44.133zm-234.963 44.133c-4.161 0-7.546-3.386-7.546-7.547v-29.04c0-4.161 3.385-7.546 7.546-7.546h7.22v44.133zm47.754 148.299c-6.557 0-11.892-5.335-11.892-11.893 0-6.557 5.335-11.892 11.892-11.892 6.558 0 11.893 5.335 11.893 11.892 0 6.558-5.335 11.893-11.893 11.893zm12.008-49.654c0 .961-.69 1.766-1.64 1.911-6.168.949-11.447 4.329-14.823 9.327-8.43 1.412-15.544 6.759-19.381 14.083-15.074-2.441-30.397-3.678-45.642-3.678h-37.516l8.586-5.299c15.032-9.277 31.737-13.967 50.294-13.971l7.653 7.654c2.928 2.929 7.677 2.93 10.606.001s2.929-7.678 0-10.606l-4.541-4.541c5.365-5.148 11.864-8.908 18.977-10.993 28.698 16.823 27.427 16.012 27.427 16.112zm57.719-6.253c-7.349 0-17.791-3.141-27.989-8.333v-68.689c0-3.066-1.873-5.856-4.776-6.988l-38.015-14.815v-12.373h51.391v39.706c0 4.143 3.358 7.5 7.5 7.5h23.779c4.142 0 7.5-3.357 7.5-7.5v-39.706h51.391v12.373l-38.015 14.815c-2.88 1.123-4.777 3.897-4.777 6.988v68.689c-10.198 5.193-20.639 8.333-27.989 8.333zm69.727 55.907c-6.558 0-11.893-5.335-11.893-11.893 0-6.557 5.335-11.892 11.893-11.892 6.557 0 11.892 5.335 11.892 11.892.001 6.558-5.334 11.893-11.892 11.893zm69.48-28.01c-15.245 0-30.568 1.236-45.642 3.678-3.837-7.323-10.951-12.671-19.381-14.083-3.377-4.998-8.656-8.378-14.824-9.327-.95-.146-1.64-.95-1.64-1.911l27.425-16.112c7.113 2.085 13.613 5.845 18.977 10.993l-4.541 4.541c-2.929 2.93-2.929 7.678 0 10.607 2.93 2.929 7.678 2.928 10.606 0l7.655-7.655c18.528.004 35.238 4.68 50.292 13.971l8.587 5.299h-37.514z"/><path d="m266.484 237.791h-20.978c-4.142 0-7.5 3.357-7.5 7.5s3.358 7.5 7.5 7.5h20.978c4.142 0 7.5-3.357 7.5-7.5s-3.358-7.5-7.5-7.5z"/></svg>