<svg id="Capa_1" enable-background="new 0 0 512 512" height="512" viewBox="0 0 512 512" width="512" xmlns="http://www.w3.org/2000/svg"><path d="m212.658 309.767c-1.984 3.636-.645 8.192 2.991 10.177 22.976 12.537 38.641 12.899 40.352 12.899s17.376-.362 40.352-12.899c3.636-1.984 4.975-6.541 2.991-10.177-1.984-3.635-6.54-4.974-10.176-2.991-5.641 3.079-22.595 11.067-33.166 11.067-10.53 0-27.514-7.99-33.166-11.067-3.641-1.983-8.195-.644-10.178 2.991z"/><path d="m180.609 307.508c-16.096 0-61.007 0-65.861 0-36.052 0-65.383 29.331-65.383 65.383v131.609c0 4.143 3.358 7.5 7.5 7.5h398.27c4.142 0 7.5-3.357 7.5-7.5v-131.609c0-36.052-29.331-65.383-65.383-65.383-6.305 0-55.549 0-67.25 0l-2.432-11.188c-.102-.47-.114-.169 1.77-7.29 2.027-7.659-2.706-15.196-9.979-17.058 2.546-2.123 4.992-4.332 7.306-6.614 2.95-2.908 2.984-7.657.076-10.606-2.908-2.951-7.656-2.984-10.606-.077-7.131 7.03-15.118 12.88-23.093 17.478-.491.213-.956.478-1.386.786-13.448 7.512-26.721 11.447-35.659 11.447-15.431 0-36.529-10.685-49.602-20.612-11.369-8.633-30.716-26.859-32.563-51.933-6.269-85.114.443 6.019-4.619-62.714l84.57 8.488c2.795.281 4.502-.008 8.754-.434v33.397c0 3.606-2.934 6.541-6.541 6.541-4.142 0-7.5 3.357-7.5 7.5s3.358 7.5 7.5 7.5c11.878 0 21.541-9.663 21.541-21.541v-34.903l65.242-6.548-4.619 62.714c-.404 5.484-1.688 10.991-3.817 16.367-1.525 3.851.36 8.209 4.211 9.734 3.849 1.527 8.209-.359 9.735-4.211 2.689-6.791 4.315-13.785 4.831-20.789l.299-4.054c23.434-2.031 41.883-21.753 41.883-45.704v-2.258c0-6.365-2.125-12.243-5.701-16.963 12.473-3.537 21.348-14.924 21.348-28.329v-20.126c0-11.044-8.985-20.029-20.029-20.029s-20.029 8.985-20.029 20.029v9.027h-11.326l-12.599-64.376c-4.552-23.269-25.068-40.159-48.779-40.159h-15.142c-6.664 0-12.937 2.747-17.21 7.536-5.651 6.332-14.031 6.321-19.673.001-4.276-4.79-10.549-7.537-17.211-7.537h-15.142c-23.711 0-44.227 16.89-48.781 40.159l-12.599 64.376h-11.326v-9.027c0-11.044-8.985-20.029-20.029-20.029s-20.029 8.985-20.029 20.029v20.127c0 13.405 8.875 24.792 21.348 28.329-3.577 4.72-5.701 10.598-5.701 16.963v2.258c0 23.951 18.449 43.674 41.883 45.704l.299 4.054c1.565 21.247 13.398 41.942 33.5 58.824-7.727 1.417-13.048 9.212-10.917 17.264l1.739 6.575c.126.478.238-.313-2.589 11.902zm199.697-144.323c0 15.282-11.161 28.008-25.76 30.453l3.377-45.85h9.243c7.246 0 13.14 5.895 13.14 13.14zm-264.258-47.55v-20.127c0-2.773 2.256-5.029 5.029-5.029s5.029 2.256 5.029 5.029v11.271c0 7.033 5.723 12.756 12.756 12.756h148.78c4.142 0 7.5-3.357 7.5-7.5s-3.358-7.5-7.5-7.5h-119.926l12.035-61.495c3.18-16.247 17.504-28.04 34.06-28.04h15.142c2.394 0 4.588.921 6.021 2.525 11.618 13.017 30.43 13.021 42.055-.001 1.432-1.604 3.625-2.524 6.019-2.524h15.142c16.556 0 30.88 11.793 34.06 28.04l12.035 61.495h-21.642c-4.142 0-7.5 3.357-7.5 7.5s3.358 7.5 7.5 7.5h50.496c7.034 0 12.756-5.723 12.756-12.756v-11.271c0-2.773 2.256-5.029 5.029-5.029s5.029 2.256 5.029 5.029v20.127c0 7.456-5.595 13.641-13.015 14.386-191.23 19.194-97.719 9.808-126.221 12.669-1.098.113 6.838.83-127.654-12.669-7.42-.746-13.015-6.93-13.015-14.386zm15.646 47.55v-2.258c0-7.245 5.895-13.14 13.14-13.14h9.243l3.377 45.85c-14.599-2.445-25.76-15.17-25.76-30.452zm-5.205 233.053c-4.142 0-7.5 3.357-7.5 7.5v93.262h-54.624v-124.109c0-27.781 22.602-50.383 50.383-50.383h4.241v46.23c0 4.143 3.358 7.5 7.5 7.5s7.5-3.357 7.5-7.5v-46.23h48.684l21.138 30.113v144.379h-69.822v-93.262c0-4.142-3.358-7.5-7.5-7.5zm123.392 22.011c3.005 4.282 9.324 4.23 12.288-.015l31.059-44.486v123.252h-74.416v-123.011zm197.754-45.358v124.109h-54.585v-174.492h4.202c27.781 0 50.383 22.601 50.383 50.383zm-69.585 124.109h-69.822v-144.736l20.775-29.756h49.047zm-80.094-210.465h16.527l-1.401 5.296c-.66 2.496-.719 5.149-.171 7.674l3.29 15.137c-77.261 110.661-2.484 3.558-60.198 86.222-38.316-54.583 22.495 32.046-61.37-87.425l3.188-13.779c.6-2.59.557-5.317-.123-7.89l-1.384-5.234h17.701c14.68 8.046 29.967 12.851 41.985 12.851 12.222-.001 27.432-4.875 41.956-12.852z"/><path d="m289.485 221.978c-9.059 7.901-20.665 12.548-34.088 12.548-4.106 0-7.456 3.308-7.498 7.423-.042 4.143 3.281 7.534 7.422 7.577 16.669.143 32.136-5.876 44.023-16.243 3.122-2.723 3.445-7.46.723-10.582s-7.461-3.445-10.582-.723z"/><path d="m335.639 400.283-10.679-3.47c-3.94-1.279-8.171.875-9.451 4.815-1.28 3.939.875 8.17 4.815 9.45l10.679 3.47-6.6 9.084c-2.435 3.351-1.691 8.041 1.66 10.476 3.337 2.426 8.03 1.706 10.476-1.659l6.6-9.084 6.6 9.084c2.441 3.361 7.133 4.089 10.476 1.659 3.351-2.435 4.094-7.125 1.659-10.476l-6.6-9.084 10.68-3.47c3.939-1.28 6.095-5.511 4.815-9.45-1.28-3.94-5.513-6.095-9.451-4.815l-10.679 3.47v-11.229c0-4.143-3.358-7.5-7.5-7.5s-7.5 3.357-7.5 7.5z"/></svg>