<svg id="Capa_1" enable-background="new 0 0 512 512" height="512" viewBox="0 0 512 512" width="512" xmlns="http://www.w3.org/2000/svg"><path d="m274.788 374.849c-.43 1.52-4.59 14.845-18.456 14.845-13.836 0-18.008-13.269-18.452-14.835-1.085-3.979-5.185-6.336-9.169-5.272-4.002 1.067-6.381 5.178-5.313 9.18 2.393 8.968 12.355 25.928 32.934 25.928 20.577 0 30.541-16.96 32.935-25.927 1.068-4.003-1.303-8.138-5.306-9.206-3.997-1.067-8.105 1.284-9.173 5.287z"/><path d="m256.005 288.12c7.766 0 13.664-1.618 17.946-3.559 5.049-2.289 5.995-9.053 1.759-12.629-.055-.047-.11-.093-.165-.139-2.128-1.798-5.091-2.127-7.62-.958-2.499 1.155-6.365 2.286-11.921 2.286s-9.421-1.131-11.921-2.286c-2.529-1.169-5.491-.839-7.62.958-.055.046-.11.093-.165.139-4.236 3.576-3.29 10.34 1.759 12.629 4.284 1.941 10.182 3.559 17.948 3.559z"/><path d="m55.639 472.757v31.743c0 4.143 3.357 7.5 7.5 7.5h385.733c4.143 0 7.5-3.357 7.5-7.5v-32.181c0-12.027-4.794-23.432-13.122-31.811 8.237-9.391 13.122-21.475 13.122-35.382 0-30.999-23.629-56.929-54.555-59.744l-7.347-.668c-4.119-.379-7.773 2.664-8.147 6.79-.376 4.125 2.664 7.772 6.79 8.147l7.346.668c22.521 2.051 40.913 20.381 40.913 45.317 0 9.499-3.533 18.589-9.949 25.594l-4.519 4.934c-3.085 3.368-2.46 8.675 1.284 11.247 8.44 5.777 13.184 15.132 13.184 24.907v24.682h-52.432v-57.189c0-4.143-3.357-7.5-7.5-7.5s-7.5 3.357-7.5 7.5v57.189h-110.435v-51.77c0-9.494 7.725-17.219 17.219-17.219h57.242c4.143 0 7.5-3.357 7.5-7.5s-3.357-7.5-7.5-7.5h-57.242c-9.918 0-18.804 4.505-24.719 11.576-5.915-7.071-14.8-11.576-24.719-11.576h-57.242c-4.143 0-7.5 3.357-7.5 7.5s3.357 7.5 7.5 7.5h57.242c9.494 0 17.219 7.725 17.219 17.219v51.77h-110.435v-57.189c0-4.143-3.357-7.5-7.5-7.5s-7.5 3.357-7.5 7.5v57.189h-52.431v-24.243c0-9.655 4.542-19.147 13.75-25.286 3.878-2.585 4.479-8.042 1.271-11.412l-4.569-4.799c-22.961-24.112-6.166-67.604 30.46-70.939l91.721-8.348c7.214-.658 12.654-6.616 12.654-13.859v-12.045c1 .538 2.012 1.066 3.033 1.582 23.862 36.078 22.08 33.644 24.031 35.656 8.22 8.195 21.947 6.859 28.397-2.887l21.677-32.776c1.017-.515 2.025-1.04 3.021-1.576v12.046c0 7.245 5.44 13.203 12.655 13.859l48.301 4.396c4.123.382 7.773-2.665 8.148-6.789.376-4.125-2.664-7.773-6.789-8.148l-47.315-4.307v-20.491c26.923-19.677 39.535-47.765 39.535-63.184v-2.483c22.354-2.32 39.842-21.27 39.842-44.228v-50.055c0-6.238-7.219-9.775-12.146-5.889l-1.047.826c.034-9.08-5.297-16.212-10.74-23.225-7.514-9.683-7.931-10.671-7.71-23.567.139-8.023.295-17.116-4.978-24.304-2.345-3.196-5.386-5.474-8.522-7.171 2.055-4.601 3.69-8.379 5.425-14.284 1.168-3.974-1.106-8.142-5.08-9.31-3.977-1.171-8.144 1.106-9.311 5.08-2.07 7.045-1.682 5.57-25.739 59.437-2.908 6.515-10.782 9.046-16.934 5.492-6.118-3.531-7.92-11.605-3.712-17.412 0 0 25.355-34.976 25.428-35.083 9.114-12.578 14.434-26.571 16.121-41.083l.985-8.482c.179-1.544 1.486-2.708 3.041-2.708s2.862 1.164 3.041 2.709l.539 4.636c.479 4.114 4.212 7.065 8.316 6.584 4.114-.479 7.063-4.202 6.584-8.316l-.539-4.635c-1.054-9.11-8.767-15.979-17.938-15.979s-16.884 6.869-17.941 15.978l-.985 8.481c-1.02 8.78-3.676 17.301-7.783 25.088-3.947-5.37-8.649-10.555-15.496-12.768-13.495-4.365-27.545 6.14-37.336 6.14-9.858 0-23.809-10.512-37.335-6.141-6.848 2.214-11.549 7.398-15.496 12.769-4.106-7.787-6.762-16.308-7.782-25.087l-.985-8.483c-1.06-9.109-8.773-15.977-17.943-15.977-9.169 0-16.882 6.868-17.941 15.977l-.539 4.637c-2.005 17.261.681 34.771 7.767 50.637l.939 2.103c-3.136 1.697-6.177 3.975-8.523 7.171-5.271 7.188-5.115 16.28-4.977 24.304.22 12.873-.178 13.861-7.71 23.567-5.413 6.976-10.774 14.116-10.74 23.225l-1.047-.826c-4.907-3.869-12.146-.373-12.146 5.889v50.055c0 22.958 17.488 41.907 39.842 44.228v2.483c0 11.718 8.96 40.839 39.536 63.186v20.489l-90.734 8.259c-48.275 4.395-71.133 61.626-40.987 95.115-8.608 8.402-13.565 19.966-13.565 32.258zm197.505-120.613-18.165-27.464 21.03-10.876 21.03 10.876-18.163 27.464c-1.357 2.05-4.373 2.057-5.732 0zm122.318-145.406c0 13.663-9.347 25.184-21.982 28.504l4.088-13.67c6.804-12.662.519-28.39 2.867-36.376.161-.548.361-1.1.594-1.658l14.433-11.386zm-51.149-86.344 14.861-33.275c1.137.716 1.979 1.465 2.575 2.278 4.385 5.978-.101 21.42 3.79 33.197 3.84 11.625 16.684 20.991 16.732 28.923.045 7.131-12.581 17.033-16.229 29.452-3.436 11.7 2.492 26.458-1.876 33.836-.669 1.128-.099-.443-8.186 26.599-.515 1.6-.36 1.866-.36 12.045 0 8.748-7.117 15.865-15.865 15.865h-4.224c-3.831 0-6.948-3.117-6.948-6.949 0-2.569 1.407-4.918 3.674-6.129l4.322-2.31c6.61-3.532 10.717-10.383 10.717-17.878v-71.092c0-12.506-5.034-24.096-13.679-32.468 4.674-2.823 8.434-7.03 10.696-12.094zm-101.029-69.342c6.884-2.231 20.129 6.867 32.721 6.867 12.585 0 25.833-9.1 32.722-6.867 4.326 1.398 8.419 7.874 11.241 11.954l-22.141 30.548c-5.281 7.285-6.587 16.765-3.454 25.21h-36.734c3.13-8.437 1.83-17.92-3.454-25.21l-22.141-30.548c2.841-4.107 6.951-10.568 11.24-11.954zm-50.4-28.707.539-4.636c.179-1.544 1.486-2.709 3.041-2.709s2.863 1.165 3.042 2.708l.985 8.482c1.685 14.509 6.994 28.492 16.15 41.125 2.052 2.951-8.273-11.414 25.398 35.041 4.154 5.733 2.487 13.832-3.712 17.412-6.141 3.547-14.02 1.033-16.935-5.492l-21.947-49.144c-5.987-13.405-8.255-28.202-6.561-42.787zm-36.336 184.393v-34.586l14.434 11.387c.233.557.433 1.109.594 1.656 2.359 8.025-3.945 23.699 2.867 36.377l4.088 13.67c-12.636-3.32-21.983-14.841-21.983-28.504zm52.613 77.422c1.858.186 2.556.154 7.318.154 12.103 0 21.949-9.847 21.949-21.949 0-8.116-4.447-15.534-11.604-19.357l-4.324-2.312c-1.718-.918-2.785-2.698-2.785-4.647v-3.67c0-4.143-3.357-7.5-7.5-7.5s-7.5 3.357-7.5 7.5c.242 1.064-2.1 14.7 10.716 21.547l4.324 2.312c2.266 1.211 3.674 3.559 3.674 6.128 0 3.832-3.117 6.949-6.949 6.949h-4.224c-8.748 0-15.865-7.117-15.865-15.865 0-10.12.007-9.922-.02-10.297-.086-1.166.423.801-7.794-26.675-.175-.585-.42-1.146-.731-1.672-2.267-3.829-1.759-9.8-1.223-16.122.788-9.278 1.119-15.215-2.776-23.044-.087-.192-.183-.38-.286-.565-4.746-9.18-13.855-17.726-13.82-23.557.049-8.011 12.857-17.189 16.732-28.923 3.929-11.892-.623-27.181 3.789-33.196.597-.813 1.438-1.563 2.576-2.279l14.86 33.275c2.31 5.172 6.183 9.45 10.995 12.274-8.824 8.802-13.978 20.867-13.978 33.698v31.014c0 4.143 3.357 7.5 7.5 7.5s7.5-3.357 7.5-7.5v-3.726h43.697c4.143 0 7.5-3.357 7.5-7.5s-3.357-7.5-7.5-7.5h-43.697v-12.288c0-18.078 14.684-32.602 32.602-32.602h47.379c15.606 0 32.602 11.952 32.602 31.193v13.696h-36.979c-7.84 0-14.218 6.379-14.218 14.219v34.66c0 1.155-.939 2.095-2.095 2.095h-3c-4.143 0-7.5 3.357-7.5 7.5s3.357 7.5 7.5 7.5h3c9.426 0 17.095-7.669 17.095-17.095v-33.879h36.196v42.396c0 1.949-1.067 3.729-2.786 4.648l-4.323 2.31c-7.157 3.825-11.604 11.243-11.604 19.358 0 12.103 9.846 21.949 21.948 21.949 4.054 0 5.338.044 7.317-.154-9.28 12.635-22.539 22.688-34.936 29.256l-28.459-14.718c-2.16-1.117-4.73-1.117-6.891 0l-28.462 14.719c-12.398-6.568-25.659-16.621-34.94-29.258z"/></svg>