<svg id="Capa_1" enable-background="new 0 0 511.999 511.999" height="512" viewBox="0 0 511.999 511.999" width="512" xmlns="http://www.w3.org/2000/svg"><path d="m241.392 361.444c0-4.143-3.358-7.5-7.5-7.5s-7.5 3.357-7.5 7.5v10.755c0 8.773 3.417 17.021 9.62 23.225 2.93 2.929 7.678 2.928 10.606 0 2.929-2.93 2.929-7.678 0-10.607-3.37-3.37-5.226-7.851-5.226-12.617z"/><path d="m275.98 395.423c6.203-6.204 9.62-14.451 9.62-23.225v-10.755c0-4.143-3.358-7.5-7.5-7.5s-7.5 3.357-7.5 7.5v10.755c0 4.767-1.856 9.247-5.226 12.617-2.929 2.93-2.929 7.678 0 10.607 2.93 2.93 7.678 2.929 10.606.001z"/><path d="m217.521 207.87c6.372 6.371 9.881 14.844 9.881 23.855v22.54c0 4.143 3.358 7.5 7.5 7.5s7.5-3.357 7.5-7.5v-22.54c0-13.019-5.069-25.258-14.274-34.463l-25.694-25.694c-2.929-2.928-7.678-2.928-10.606 0-2.929 2.93-2.929 7.678 0 10.607z"/><path d="m277.089 261.765c4.142 0 7.5-3.357 7.5-7.5v-22.54c0-9.012 3.509-17.483 9.881-23.855l25.694-25.694c2.929-2.93 2.929-7.678 0-10.607-2.929-2.928-7.678-2.928-10.606 0l-25.694 25.694c-9.206 9.206-14.275 21.444-14.275 34.463v22.54c0 4.142 3.358 7.499 7.5 7.499z"/><path d="m486.296 259.241c-16.614-16.612-43.649-16.612-60.263 0l-38.193 38.193-8.984-14.787c-2.15-3.539-6.764-4.667-10.304-2.516s-4.667 6.765-2.516 10.305c9.141 15.047 11.959 19.685 20.699 34.07 3.994 6.574 4.641 14.738 1.737 21.858-6.641 15.489.472 34.23 16.493 41.297l-39.129 40.092c-1.654-3.456-2.835-7.187-3.47-11.11l-23.25-143.469v-27.047l7.781 12.808c1.412 2.323 3.883 3.606 6.417 3.606 5.791 0 9.452-6.377 6.402-11.395l-20.601-33.907v-7.046l5.81-6.778c8.565-9.993 11.509-23.511 7.875-36.16l-10.252-35.679c16.979-8.254 27.944-25.427 27.944-44.8v-15.17c0-20.139-5.921-39.629-17.123-56.364l-7.975-11.916c-3.529-5.271-11.627-4.038-13.425 2.046l-22.895 77.467c-15.377-10.961-33.932-16.768-53.074-16.455-4.613-.078-9.253.206-13.792.831-4.104.565-6.972 4.35-6.406 8.453s4.35 6.973 8.453 6.406c6.408-.883 11.134-.674 11.875-.69 17.71-.318 34.849 5.672 48.394 16.858l-4.021 13.593c-3.459 11.691-11.132 21.567-21.605 27.809-12.874 7.672-21.78 20.552-24.654 35.008-1.523-1.923-31.758-27.91-46.452-75.368-.438-1.398-.278-.895-.323-1.042 2.492-2.058 5.126-3.962 7.846-5.666 3.509-2.199 4.571-6.828 2.372-10.338s-6.828-4.573-10.338-2.371c-1.502.941-2.981 1.933-4.432 2.969l-22.896-77.464c-1.796-6.078-9.893-7.324-13.425-2.046l-7.976 11.916c-11.201 16.736-17.122 36.227-17.122 56.364v15.169c0 19.373 10.965 36.546 27.945 44.8l-10.252 35.679c-1.33 4.628-1.779 9.372-1.395 14.017l-37.278 112.524-34.552-34.553c-12.496-12.495-31.696-15.978-47.781-8.664-3.771 1.715-5.438 6.161-3.723 9.932 1.714 3.77 6.161 5.438 9.932 3.723 10.423-4.738 22.866-2.482 30.965 5.617l40.049 40.05c-2.078 7.757-3.407 15.661-3.981 23.612l-41.978-41.978c-6.279-6.279-16.497-6.278-22.776 0l-18.7 18.7c-2.929 2.93-2.929 7.678 0 10.607 2.929 2.928 7.678 2.928 10.606 0l18.7-18.7c.431-.432 1.133-.432 1.563 0l11.132 11.132-35.711 35.71c-2.929 2.93-2.929 7.678 0 10.607 2.93 2.929 7.678 2.928 10.606 0l35.711-35.711 11.291 11.291-61.286 61.286c-2.929 2.93-2.929 7.678 0 10.607 2.93 2.929 7.678 2.928 10.606 0l61.287-61.287 9.231 9.231c.209 2.116.471 4.229.788 6.337l-37.22 37.22c-2.929 2.93-2.929 7.678 0 10.607 2.93 2.929 7.678 2.928 10.606 0l30.478-30.478c5.624 18.905 15.558 36.193 29.044 50.54-4.875 9.194-13.187 16.256-23.49 19.508-8.817 2.782-17.143 6.606-24.838 11.354l-9.526-9.525c-17.25-17.251-45.174-17.254-62.428-.001l-10.123 10.126v-169.537l4.865-4.865c2.929-2.929 2.928-7.678 0-10.606-2.93-2.928-7.678-2.929-10.606.001l-7.062 7.062c-1.407 1.405-2.197 3.312-2.197 5.301v190.75c0 6.658 8.101 10.006 12.803 5.304l22.928-22.929c11.389-11.388 29.825-11.391 41.215.001l7.781 7.781c-10.595 8.779-19.534 19.561-26.316 31.935-2.735 4.987.88 11.104 6.577 11.104h382.014c5.689 0 9.315-6.11 6.577-11.104-6.781-12.372-15.719-23.153-26.312-31.932l7.785-7.785c11.389-11.388 29.824-11.391 41.216.001l22.928 22.928c4.697 4.697 12.803 1.366 12.803-5.304v-190.75c0-1.989-.79-3.896-2.197-5.303zm-329.798-172.466v-15.169c0-16.602 4.723-32.687 13.676-46.63 24.328 82.317 23.217 78.648 23.436 79.218 9.229 29.536 25.664 56.701 47.547 78.585l14.283 14.282c4.722 4.723 12.803 1.353 12.803-5.304v-6.961c0-13.164 7.025-25.528 18.333-32.268 13.724-8.178 23.778-21.118 28.311-36.438 1.107-3.74 26.901-91.01 26.932-91.114 8.952 13.941 13.675 30.026 13.675 46.629v15.169c0 15.356-9.853 28.735-24.518 33.292-4.182 1.298-6.369 5.898-4.732 9.963 1.2 2.982.394.485 12.141 41.366 2.237 7.785.426 16.105-4.846 22.256l-7.615 8.885c-1.165 1.359-1.806 3.091-1.806 4.881v111.978c0 8.134-4.309 15.602-11.298 19.681v-55.241c0-4.143-3.358-7.5-7.5-7.5s-7.5 3.357-7.5 7.5v85.234c0 1.844.679 3.623 1.908 4.998 4.651 5.203 7.212 11.916 7.212 18.901 0 15.646-12.729 28.376-28.375 28.376h-45.136c-15.646 0-28.375-12.729-28.375-28.376 0-6.986 2.561-13.699 7.211-18.9 1.229-1.375 1.909-3.155 1.909-4.999 0-10.904 0-74.767 0-85.234 0-4.143-3.358-7.5-7.5-7.5s-7.5 3.357-7.5 7.5v55.241c-6.989-4.079-11.298-11.547-11.298-19.68 0-179.016 0-9.22 0-111.978 0-1.79-.641-3.521-1.806-4.881l-7.615-8.885c-3.024-3.528-4.909-7.77-5.545-12.216-.018-.217-.046-.433-.083-.646-.358-3.102-.11-6.29.782-9.394 11.757-40.914 10.942-38.385 12.141-41.366 1.636-4.063-.547-8.664-4.732-9.963-14.666-4.557-24.52-17.936-24.52-33.292zm-28.545 276.052c-.026-.175-.057-.349-.095-.521-3.13-17.408-2.073-35.298 3.115-52.274 1.487-4.61-6.28 18.859 35.517-107.305.448.547.302.368 6.385 7.465v62.98l-22.508 138.891c-11.132-13.98-19.01-30.809-22.414-49.236zm180.552 134.171 22.463-41.902c1.957-3.651.584-8.197-3.066-10.154-3.649-1.956-8.196-.584-10.153 3.066l-26.263 48.99c-8.587 0-62.336 0-70.979 0l-26.263-48.99c-1.958-3.649-6.504-5.024-10.153-3.066-3.651 1.957-5.023 6.503-3.066 10.154l22.463 41.902h-124.808c11.85-15.963 28.41-27.847 47.751-33.951 20.067-6.334 34.627-23.195 37.999-44.004l13.178-81.317c3.447 6.217 8.644 11.447 15.147 14.947l6.417 3.453v10.232c-5.901 7.589-9.12 16.928-9.12 26.61 0 23.918 19.458 43.376 43.375 43.376h45.136c23.917 0 43.375-19.458 43.375-43.376 0-9.682-3.219-19.021-9.12-26.609v-10.233l6.417-3.453c6.503-3.5 11.699-8.73 15.146-14.947l13.178 81.317c3.372 20.809 17.933 37.67 37.999 44.004 19.303 6.092 35.878 17.956 47.752 33.951zm188.494-36.303-10.125-10.125c-17.252-17.25-45.175-17.253-62.429 0l-9.529 9.529c-7.696-4.75-16.024-8.574-24.842-11.357-5.779-1.824-10.931-4.847-15.202-8.772l40.522-41.519 10.72 10.721c2.93 2.929 7.678 2.928 10.606 0 2.929-2.93 2.929-7.678 0-10.606l-11.02-11.022c2.49-4.367.055-9.891-4.823-11.021l-6.855-1.588c-9.594-2.222-15.179-12.166-12.193-21.468l7.69-7.69 61.287 61.287c2.93 2.929 7.678 2.928 10.606 0 2.929-2.93 2.929-7.678 0-10.607l-61.286-61.286 11.291-11.291 35.711 35.711c2.93 2.929 7.678 2.928 10.606 0 2.929-2.93 2.929-7.678 0-10.607l-35.711-35.71 11.132-11.132c.431-.432 1.132-.432 1.563 0l18.7 18.699c2.929 2.93 7.678 2.929 10.606.001 2.929-2.93 2.929-7.678 0-10.606l-18.7-18.701c-6.279-6.278-16.496-6.28-22.776 0l-38.027 38.027c-.88-4.493-2.542-8.849-4.968-12.842l-3.698-6.086 40.782-40.783c10.766-10.766 28.284-10.767 39.05-.001l21.309 21.311v169.534z"/><path d="m225.66 98.23c-3.855 1.516-5.752 5.869-4.236 9.725 4.843 12.319 11.16 24.075 18.776 34.94 2.37 3.381 7.043 4.222 10.447 1.837 3.392-2.378 4.214-7.055 1.836-10.446-6.937-9.896-12.689-20.602-17.099-31.819-1.515-3.855-5.87-5.75-9.724-4.237z"/></svg>