<svg id="Capa_1" enable-background="new 0 0 512 512" height="512" viewBox="0 0 512 512" width="512" xmlns="http://www.w3.org/2000/svg"><path d="m346.473 151.359v-93.481c0-4.143-3.357-7.5-7.5-7.5s-7.5 3.357-7.5 7.5v93.481c0 4.143 3.357 7.5 7.5 7.5s7.5-3.357 7.5-7.5z"/><path d="m346.473 267.864v-38.478c0-4.143-3.357-7.5-7.5-7.5s-7.5 3.357-7.5 7.5v38.478c0 4.143 3.357 7.5 7.5 7.5s7.5-3.357 7.5-7.5z"/><path d="m165.916 343.467v126.033c0 4.143 3.357 7.5 7.5 7.5s7.5-3.357 7.5-7.5v-126.033c0-4.143-3.357-7.5-7.5-7.5s-7.5 3.357-7.5 7.5z"/><path d="m173.416 205.984c-4.143 0-7.5 3.357-7.5 7.5v54.982c0 4.143 3.357 7.5 7.5 7.5s7.5-3.357 7.5-7.5v-54.982c0-4.142-3.357-7.5-7.5-7.5z"/><path d="m293.018 165.149v-89.945c0-4.143-3.357-7.5-7.5-7.5s-7.5 3.357-7.5 7.5v89.945c0 4.143 3.357 7.5 7.5 7.5s7.5-3.357 7.5-7.5z"/><path d="m285.518 465.754c4.143 0 7.5-3.357 7.5-7.5v-84.113c9.994-7.204 18.54-16.819 24.822-27.952l27.665-49.037c1.54-2.729 1.221-6.128-.801-8.522-2.022-2.396-5.319-3.281-8.267-2.222l-24.36 8.75-14.185-12.39c-2.912-2.544-7.279-2.457-10.089.201l-11.6 10.977-15.672-11.564c-2.648-1.953-6.258-1.953-8.906 0l-15.672 11.564-11.6-10.977c-2.81-2.659-7.178-2.746-10.091-.2l-14.176 12.388-24.353-8.749c-2.952-1.059-6.247-.173-8.268 2.221-2.021 2.396-2.341 5.794-.801 8.523l27.668 49.04c6.742 11.95 16.094 22.15 27.045 29.499 2.525 1.696 5.83 1.697 8.357 0l11.084-7.437 11.083 7.437c2.526 1.696 5.829 1.698 8.357 0l11.084-7.437 6.672 4.476v85.523c.004 4.143 3.361 7.501 7.504 7.501zm-18.351-112.759-11.084 7.437-11.083-7.437c-2.525-1.696-5.829-1.697-8.357-.001l-10.917 7.325c-7.299-5.729-13.578-13.081-18.326-21.498l-17.761-31.479 9.527 3.423c2.563.92 5.421.38 7.472-1.411l12.36-10.802 11.204 10.602c2.639 2.497 6.687 2.744 9.608.588l16.269-12.005 16.269 12.005c2.922 2.156 6.969 1.909 9.608-.588l11.205-10.603 12.369 10.804c2.049 1.79 4.906 2.33 7.469 1.41l9.535-3.425-17.759 31.478c-4.75 8.418-11.03 15.771-18.332 21.502l-10.919-7.326c-2.527-1.695-5.83-1.696-8.357.001z"/><path d="m453.233 321.78v-59.667l35.811-35.81c2.959-2.96 2.908-7.748-.045-10.651-.952-.951-20.356-20.356-20.356-20.356-2.929-2.927-7.677-2.928-10.607 0l-46.456 46.457c-1.406 1.407-2.196 3.314-2.196 5.304v17.611c0 4.143 3.357 7.5 7.5 7.5s7.5-3.357 7.5-7.5v-14.505l38.956-38.957 9.795 9.794-32.704 32.703c-1.406 1.407-2.196 3.314-2.196 5.304v59.667l-10.14 10.139c-2.926 2.928-2.929 7.677.001 10.607l26.045 26.044c1.406 1.406 3.313 2.196 5.303 2.196h16.798v13.851h-25.642l-32.3-32.298c-2.93-2.928-7.678-2.928-10.607 0l-23.458 23.459v-39.015l35.868-17.053c2.613-1.243 4.279-3.879 4.279-6.773v-10.163c0-4.143-3.357-7.5-7.5-7.5s-7.5 3.357-7.5 7.5v5.425l-25.147 11.956v-134.179c0-4.143-3.357-7.5-7.5-7.5s-7.5 3.357-7.5 7.5v314.13h-22.762v-160.863c0-4.143-3.357-7.5-7.5-7.5s-7.5 3.357-7.5 7.5v160.863h-97.101v-97.536c0-4.143-3.357-7.5-7.5-7.5s-7.5 3.357-7.5 7.5v97.536h-76.218c0-445.118.191-419.702-.299-421.384l-17.643-60.616h41.117l18.206 19.021c3.247 3.396 8.862 3.014 11.584-.916l12.536-18.105h6.257l4.459 62.978v77.042c0 4.143 3.357 7.5 7.5 7.5s7.5-3.357 7.5-7.5v-77.308c0-.437.334 4.45-4.422-62.712h37.249l12.42 31.844c1.165 2.988 4.092 4.851 7.1 4.773 3.131-.047 5.903-2.034 6.953-4.983l11.262-31.634h34.326l-1.435 17.133c-.261 3.115 1.438 6.065 4.263 7.403 2.823 1.339 6.184.784 8.429-1.39l23.898-23.146h12.659c-19.131 63.38-17.839 58.621-17.839 60.204v72.666c0 4.143 3.357 7.5 7.5 7.5s7.5-3.357 7.5-7.5v-71.558l20.117-66.645c1.454-4.808-2.152-9.667-7.179-9.667h-25.794c-1.947 0-3.818.758-5.218 2.112l-11.72 11.352.447-5.338c.365-4.372-3.086-8.126-7.474-8.126h-47.771c-3.173 0-6.002 1.996-7.065 4.984l-6.291 17.671-6.974-17.881c-1.123-2.878-3.897-4.774-6.988-4.774h-67.598c-2.461 0-4.765 1.207-6.166 3.23l-9.543 13.781-14.067-14.697c-1.415-1.478-3.372-2.314-5.418-2.314h-54.314c-5 0-8.595 4.805-7.201 9.596l20.138 69.186v244.135l-22.799-10.857v-34.404c0-1.989-.79-3.896-2.196-5.304l-49.205-49.206c-2.929-2.927-7.677-2.928-10.607 0l-20.39 20.39c-2.929 2.93-2.929 7.678 0 10.607l7.161 7.161c2.93 2.928 7.678 2.928 10.607 0 2.929-2.93 2.929-7.678 0-10.607l-1.858-1.857 9.783-9.783 41.705 41.706v36.033c0 2.893 1.664 5.527 4.275 6.771l33.523 15.964v24.812l-34.355-24.794c-2.981-2.151-7.089-1.825-9.692.778l-34.547 34.546-9.782-9.782 34.548-34.547c1.406-1.407 2.196-3.314 2.196-5.304v-35.642c0-1.989-.79-3.897-2.197-5.304l-8.614-8.613c-2.928-2.928-7.677-2.929-10.606.001-2.929 2.929-2.929 7.678.001 10.606l6.417 6.416v29.429l-37.654 37.653c-2.929 2.93-2.929 7.678 0 10.607l20.389 20.389c2.931 2.929 7.678 2.928 10.607 0l35.335-35.335 37.956 27.391v121.662c0 4.143 3.357 7.5 7.5 7.5h241.08c4.143 0 7.5-3.357 7.5-7.5v-110.614l28.762-28.763 29.192 29.191c1.406 1.406 3.313 2.196 5.303 2.196h36.248c4.143 0 7.5-3.357 7.5-7.5v-28.85c0-4.143-3.357-7.5-7.5-7.5h-21.191l-18.545-18.544 7.033-7.032c1.405-1.407 2.195-3.314 2.195-5.304z"/><path d="m348.799 174.594c-1.505-3.857-5.854-5.764-9.714-4.261l-47.869 18.678c-8.018 3.129-13.198 10.712-13.198 19.318v31.373c0 2.703-2.199 4.902-4.903 4.902h-16.92c-4.143 0-7.5 3.357-7.5 7.5s3.357 7.5 7.5 7.5h16.92c10.975 0 19.903-8.928 19.903-19.902v-31.373c0-2.381 1.434-4.479 3.651-5.344l47.869-18.678c3.859-1.505 5.766-5.854 4.261-9.713z"/><path d="m180.771 76.242-6.563-32.835c-.813-4.063-4.762-6.703-8.824-5.885-4.063.812-6.696 4.763-5.885 8.824l6.418 32.107v90.03c0 9.152 5.51 17.217 14.036 20.545l35.769 13.956c2.218.865 3.651 2.963 3.651 5.344v17.325c0 4.143 3.357 7.5 7.5 7.5s7.5-3.357 7.5-7.5v-17.325c0-8.606-5.181-16.189-13.198-19.318l-35.769-13.955c-2.728-1.064-4.489-3.644-4.489-6.571-.001-96.995.08-91.11-.146-92.242z"/></svg>