<svg id="Capa_1" enable-background="new 0 0 512 512" height="512" viewBox="0 0 512 512" width="512" xmlns="http://www.w3.org/2000/svg"><path d="m200.986 335.026c-3.632-1.996-8.191-.669-10.185 2.961-1.995 3.631-.669 8.19 2.961 10.186 8.57 4.709 17.683 8.444 27.084 11.102 3.986 1.13 8.131-1.195 9.257-5.177 1.126-3.986-1.191-8.131-5.177-9.257-8.309-2.35-16.364-5.652-23.94-9.815z"/><path d="m311.015 335.026c-16.81 9.236-35.833 14.118-55.015 14.118-4.142 0-7.5 3.357-7.5 7.5s3.358 7.5 7.5 7.5c21.699 0 43.221-5.523 62.237-15.972 3.631-1.995 4.956-6.555 2.962-10.185s-6.553-4.955-10.184-2.961z"/><path d="m366.646 257.94-10.523-116.13c-4.695-51.812-48.13-91.46-100.123-91.46-52.055 0-95.433 39.714-100.122 91.46-.374 4.125 2.667 7.772 6.792 8.146 4.122.359 7.772-2.668 8.146-6.793 3.997-44.11 40.98-77.813 85.184-77.813 44.224 0 81.188 33.722 85.184 77.813l10.522 116.131c.378 4.173-1.529 8.131-4.858 10.081l-66.3 38.843c-15.164 8.885-33.661 9.042-49.095.001l-66.3-38.843c-3.33-1.951-5.237-5.908-4.859-10.082l7.234-79.846c.374-4.125-2.667-7.772-6.792-8.146-4.129-.374-7.772 2.668-8.146 6.793l-7.234 79.846c-.9 9.934 3.894 19.502 12.215 24.378l66.3 38.843c19.928 11.672 44.221 11.737 64.26 0l66.301-38.844c8.318-4.875 13.113-14.443 12.214-24.378z"/><path d="m139.119 305.569h-25.815c-36.379 0-65.975 29.596-65.975 65.975v132.956c0 4.143 3.358 7.5 7.5 7.5h402.344c4.143 0 7.5-3.357 7.5-7.5v-60.643c0-4.143-3.357-7.5-7.5-7.5s-7.5 3.357-7.5 7.5v53.143h-55.336v-83.966c0-4.143-3.357-7.5-7.5-7.5s-7.5 3.357-7.5 7.5v83.966h-246.673v-83.966c0-4.143-3.358-7.5-7.5-7.5s-7.5 3.357-7.5 7.5v83.966h-55.336v-125.456c0-28.107 22.867-50.975 50.975-50.975h25.815c7.267 0 13.362-4.729 15.168-11.768s-1.259-14.119-7.628-17.618c-12.346-6.783-19.449-20.227-18.094-34.249l13.368-138.356c5.672-58.7 54.995-103.578 114.068-103.578h150.885v12.659c0 20.388-16.587 36.975-36.975 36.975h-1.749c-5.618-9.69-12.473-18.613-20.419-26.573-2.926-2.932-7.675-2.937-10.606-.009-2.932 2.926-2.936 7.675-.009 10.606 18.063 18.094 30.281 42.407 32.941 69.92l13.367 138.356c1.354 14.021-5.748 27.466-18.095 34.249-6.369 3.499-9.435 10.579-7.628 17.618s7.902 11.768 15.169 11.768h25.815c28.107 0 50.975 22.867 50.975 50.975v37.313c0 4.143 3.357 7.5 7.5 7.5s7.5-3.357 7.5-7.5v-37.313c0-36.379-29.596-65.975-65.975-65.975h-25.815c-.298 0-.513 0-.64-.496-.128-.496.061-.6.321-.743 17.606-9.673 27.734-28.844 25.802-48.839l-13.367-138.356c-1.269-13.131-4.462-25.798-9.517-37.798 26.048-2.788 46.403-24.901 46.403-51.678v-20.159c0-4.143-3.357-7.5-7.5-7.5h-158.383c-66.692 0-122.574 50.641-128.998 117.135l-13.368 138.357c-1.932 19.995 8.196 39.165 25.802 48.838.261.144.449.247.321.743-.126.496-.341.496-.638.496z"/><path d="m218.004 146.874c-13.998 0-25.386 11.389-25.386 25.387s11.388 25.386 25.386 25.386 25.386-11.388 25.386-25.386-11.388-25.387-25.386-25.387zm0 35.772c-5.727 0-10.386-4.659-10.386-10.386 0-5.728 4.659-10.387 10.386-10.387s10.386 4.659 10.386 10.387c0 5.727-4.659 10.386-10.386 10.386z"/><path d="m319.382 172.261c0-13.998-11.388-25.387-25.386-25.387s-25.387 11.389-25.387 25.387 11.389 25.386 25.387 25.386 25.386-11.388 25.386-25.386zm-35.773 0c0-5.728 4.659-10.387 10.387-10.387 5.727 0 10.386 4.659 10.386 10.387 0 5.727-4.659 10.386-10.386 10.386-5.727-.001-10.387-4.66-10.387-10.386z"/><path d="m203.231 232.014c9.193 20.95 29.907 34.486 52.769 34.486s43.575-13.536 52.77-34.486c2.171-4.949-1.459-10.514-6.868-10.514h-91.803c-5.404 0-9.042 5.56-6.868 10.514zm85.222 4.486c-17.016 19.984-47.881 19.996-64.906 0z"/></svg>