<svg id="Capa_1" enable-background="new 0 0 512.02 512.02" height="512" viewBox="0 0 512.02 512.02" width="512" xmlns="http://www.w3.org/2000/svg"><path d="m249.915 147.187c0-4.143-3.357-7.5-7.5-7.5h-35.681c-4.143 0-7.5 3.357-7.5 7.5s3.357 7.5 7.5 7.5h35.681c4.143 0 7.5-3.357 7.5-7.5z"/><path d="m312.785 147.187c0-4.143-3.357-7.5-7.5-7.5h-22.087c-11.631 0-21.094 9.463-21.094 21.095v26.784c0 3.36-2.734 6.095-6.095 6.095-4.143 0-7.5 3.357-7.5 7.5s3.357 7.5 7.5 7.5c11.632 0 21.095-9.463 21.095-21.095v-26.784c0-3.36 2.733-6.095 6.094-6.095h22.087c4.143 0 7.5-3.357 7.5-7.5z"/><path d="m256.01 52.894c-11.132 0-20.188 9.056-20.188 20.187s9.056 20.188 20.188 20.188 20.188-9.056 20.188-20.188-9.056-20.187-20.188-20.187zm0 25.375c-2.86 0-5.188-2.327-5.188-5.188s2.327-5.188 5.188-5.188 5.188 2.327 5.188 5.188-2.328 5.188-5.188 5.188z"/><path d="m172.592 93.269c11.131 0 20.187-9.056 20.187-20.188s-9.056-20.187-20.187-20.187c-11.132 0-20.188 9.056-20.188 20.187s9.056 20.188 20.188 20.188zm0-25.375c2.86 0 5.187 2.327 5.187 5.188s-2.326 5.188-5.187 5.188-5.188-2.327-5.188-5.188 2.328-5.188 5.188-5.188z"/><path d="m319.241 73.082c0 11.132 9.056 20.188 20.187 20.188 11.132 0 20.188-9.056 20.188-20.188s-9.056-20.187-20.188-20.187c-11.131-.001-20.187 9.055-20.187 20.187zm20.187-5.188c2.86 0 5.188 2.327 5.188 5.188s-2.327 5.188-5.188 5.188-5.187-2.327-5.187-5.188 2.327-5.188 5.187-5.188z"/><path d="m61.829 452.427c-4.143 0-7.5 3.357-7.5 7.5v44.593c0 4.143 3.357 7.5 7.5 7.5h388.361c4.143 0 7.5-3.357 7.5-7.5v-115.122c0-38.647-28.919-71.411-67.267-76.211l-31.853-3.987v-22.681c0-4.143-3.357-7.5-7.5-7.5s-7.5 3.357-7.5 7.5v20.803l-28.654-3.587c-.591-.073-1.037-.579-1.037-1.175v-31.17c11.509-8.385 22.05-18.821 29.691-31.108v11.236c0 4.143 3.357 7.5 7.5 7.5s7.5-3.357 7.5-7.5v-50.161c23.507-.837 45.229-12.789 58.512-32.334l20.882-30.729c3.618-5.327-.742-12.461-7.141-11.657l-70.309 8.856 1.546-20.986c10.922-2.469 18.995-11.556 19.463-23.989 9.36-10.089 9.615-24.509 0-34.873-.517-13.754-10.531-24.13-24.66-24.659-8.88-8.238-20.515-9.064-29.718-3.806-39.2-35.438-101.023-37.048-142.203.041-9.387-5.403-21.028-4.363-29.789 3.765-13.724.516-24.128 10.505-24.66 24.659-9.36 10.089-9.615 24.509 0 34.873.468 12.457 8.564 21.525 19.464 23.99l1.546 20.985-6.652-.838c-4.104-.522-7.861 2.394-8.379 6.504-.518 4.109 2.395 7.861 6.504 8.379l9.651 1.216c1.263 17.143 1.163 15.785 2.625 35.646-19.224-.272-37.085-9.875-47.911-25.807l-11.551-16.998 12.537 1.579c4.109.512 7.861-2.396 8.379-6.504.518-4.11-2.395-7.861-6.504-8.379l-29.009-3.653c-6.424-.806-10.748 6.346-7.141 11.657l20.882 30.729c13.282 19.545 35.005 31.497 58.512 32.334v107.842l-31.853 3.987c-38.348 4.8-67.267 37.563-67.267 76.211v35.529c0 4.143 3.357 7.5 7.5 7.5s7.5-3.357 7.5-7.5v-35.529c0-31.1 23.271-57.465 54.13-61.326l75.506-9.451c8.081-1.012 14.175-7.916 14.175-16.06v-21.656c14.994 8.211 30.599 13.114 42.87 13.114s27.876-4.902 42.87-13.114v21.656c0 8.144 6.094 15.048 14.174 16.06l75.507 9.451c30.859 3.861 54.13 30.227 54.13 61.326v107.622h-45.348c1.016-6.496 1.53-13.332 1.53-20.426 0-17.777-3.166-33.608-9.41-47.092v-16.166c0-5.812 2.264-11.275 6.373-15.386 2.929-2.929 2.929-7.678-.001-10.606-2.93-2.93-7.679-2.929-10.606.001-6.614 6.615-10.397 15.306-10.74 24.602-11.909-7.974-28.067-10.813-43.185-6.45l-31.118 8.979c-19.842 5.727-35.504 18.064-44.176 33.634-8.672-15.57-24.334-27.907-44.177-33.634l-31.116-8.979c-15.12-4.362-31.277-1.524-43.186 6.45-.343-9.297-4.126-17.988-10.74-24.603-2.93-2.928-7.678-2.928-10.607 0-2.929 2.93-2.929 7.678 0 10.607 4.11 4.109 6.373 9.573 6.373 15.385v16.166c-6.245 13.483-9.41 29.315-9.41 47.092 0 7.094.514 13.93 1.53 20.426h-45.345v-37.093c0-4.142-3.357-7.5-7.5-7.5zm283.065-309.045c-.004.043-.022.262-.022.305-4.165-6.663-7.185-13.973-8.938-21.649 3.458.502 7.071.266 10.592-.808zm71.334.212-11.551 16.998c-10.827 15.932-28.687 25.535-47.911 25.807 2.055-27.903 1.389-18.862 2.625-35.646zm-68.217-100.198c1.565 1.848 3.928 2.822 6.339 2.626 7.799-.647 12.794 4.197 12.139 12.138-.199 2.413.778 4.773 2.626 6.339 6.022 5.104 6.022 12.062 0 17.166-1.848 1.565-2.825 3.926-2.626 6.339.649 7.867-4.269 12.786-12.139 12.139-2.422-.197-4.773.779-6.339 2.626-5.104 6.022-12.062 6.022-17.166 0-1.505-1.776-3.821-2.828-6.339-2.626-7.956.646-12.781-4.346-12.138-12.139.199-2.413-.778-4.773-2.626-6.339-6.022-5.103-6.024-12.062 0-17.166 1.848-1.565 2.825-3.926 2.626-6.339-.649-7.869 4.268-12.787 12.138-12.138 2.396.19 4.773-.777 6.339-2.626 5.103-6.022 12.062-6.024 17.166 0zm-36.661-9.858c-6.98 3.338-12.181 9.846-13.63 18.342-2.001-11.727-11.372-20.409-24.273-20.894-10.042-9.316-24.469-9.652-34.873 0-12.901.485-22.272 9.168-24.273 20.894-1.438-8.429-6.583-14.939-13.544-18.301 32.834-25.051 78.623-24.46 110.593-.041zm-28.279 54.465c.643 7.796-4.19 12.787-12.139 12.139-2.418-.197-4.773.779-6.339 2.626-5.104 6.022-12.062 6.022-17.166 0-1.505-1.776-3.821-2.828-6.339-2.626-7.955.646-12.782-4.347-12.139-12.139.199-2.413-.778-4.773-2.626-6.339-6.022-5.104-6.022-12.062 0-17.166 1.848-1.565 2.825-3.926 2.626-6.339-.649-7.867 4.269-12.787 12.139-12.138 2.397.19 4.773-.777 6.339-2.626 5.103-6.022 12.062-6.024 17.166 0 1.565 1.848 3.932 2.822 6.339 2.626 7.864-.653 12.788 4.268 12.139 12.138-.199 2.413.778 4.773 2.626 6.339 6.022 5.104 6.022 12.062 0 17.166-1.848 1.566-2.826 3.926-2.626 6.339zm-137.539 0c.199-2.413-.778-4.773-2.626-6.339-6.022-5.104-6.022-12.062 0-17.166 1.848-1.565 2.825-3.926 2.626-6.339-.649-7.867 4.269-12.787 12.139-12.138 2.399.19 4.773-.777 6.339-2.626 5.103-6.022 12.062-6.024 17.166 0 1.565 1.848 3.93 2.822 6.339 2.626 7.866-.654 12.787 4.268 12.138 12.138-.199 2.413.778 4.773 2.626 6.339 6.022 5.103 6.024 12.062 0 17.166-1.848 1.565-2.825 3.926-2.626 6.339.649 7.867-4.266 12.786-12.138 12.139-2.42-.197-4.773.779-6.339 2.626-5.104 6.022-12.062 6.022-17.166 0-1.505-1.776-3.821-2.828-6.339-2.626-7.842.648-12.791-4.241-12.139-12.139zm21.617 55.684c-.139-1.942.541 7.349-1.654-22.457 3.505 1.07 7.119 1.312 10.592.808-1.753 7.677-4.773 14.986-8.938 21.649zm30.991 158.874c0 .596-.446 1.102-1.038 1.175l-28.653 3.586v-67.039c7.641 12.286 18.181 22.722 29.691 31.108zm6.924-44.714c-11.674-8.87-31.54-27.602-33.439-53.388l-2.846-38.645c13.42-13.879 21.691-31.712 23.642-50.825 11.501-1.384 19.978-9.555 21.88-20.707 2.005 11.752 11.398 20.411 24.273 20.895 10.089 9.36 24.509 9.615 34.873 0 12.876-.484 22.268-9.144 24.273-20.895 1.906 11.17 10.4 19.327 21.88 20.707 1.951 19.113 10.222 36.948 23.642 50.825l-2.846 38.645c-1.899 25.786-21.766 44.518-33.439 53.388-13.419 10.197-35.085 21.172-50.946 21.172s-37.528-10.975-50.947-21.172zm136.051 239.173 12.926-12.926h29.613c-.266 4.474-.774 8.793-1.52 12.926zm-36.77-68.131 31.118-8.979c16.012-4.623 33.437 1.743 39.72 14.494 4.695 9.907 7.649 20.708 8.473 34.69h-9.486l-20.063-20.063c-2.93-2.928-7.678-2.928-10.607 0-2.929 2.93-2.929 7.678 0 10.607l9.456 9.456h-17.424l-20.063-20.063c-2.93-2.928-7.678-2.928-10.607 0-2.929 2.93-2.929 7.678 0 10.607l9.456 9.456h-20.329c-4.143 0-7.5 3.357-7.5 7.5s3.357 7.5 7.5 7.5h38.838l-9.457 9.457c-.994.994-1.65 2.198-1.969 3.469h-52.681c-14.732-27.66 2.904-58.688 35.625-68.131zm-127.787-8.979 31.116 8.979c32.91 9.497 50.271 40.636 35.626 68.131h-52.679c-.319-1.271-.975-2.475-1.969-3.469l-9.457-9.457h38.838c4.143 0 7.5-3.357 7.5-7.5s-3.357-7.5-7.5-7.5h-20.329l9.456-9.456c2.929-2.93 2.929-7.678 0-10.607-2.93-2.928-7.678-2.928-10.607 0l-20.063 20.063h-17.424l9.456-9.456c2.929-2.93 2.929-7.678 0-10.607-2.93-2.928-7.678-2.928-10.607 0l-20.063 20.063h-9.486c.825-14.01 3.813-24.904 8.474-34.691 6.28-12.751 23.706-19.117 39.718-14.493zm-48.192 64.184h29.613l12.926 12.926h-41.02c-.745-4.132-1.252-8.451-1.519-12.926z"/><path d="m279.362 359.486 15.629-21.748c2.417-3.364 1.649-8.05-1.714-10.468-3.363-2.417-8.049-1.651-10.468 1.714l-15.629 21.748c-4.912 6.835-17.424 6.842-22.34 0l-15.629-21.748c-2.419-3.363-7.104-4.129-10.468-1.714-3.363 2.418-4.131 7.104-1.714 10.468l15.629 21.748c10.908 15.176 35.817 15.147 46.704 0z"/><path d="m285.143 225.122c-14.673 10.804-28.984 8.146-32.268 8.539-9.422 0-18.412-2.953-25.998-8.539-3.335-2.457-8.031-1.744-10.486 1.592-2.456 3.335-1.743 8.03 1.592 10.486 10.182 7.498 22.247 11.461 34.893 11.461h6.27c12.646 0 24.711-3.963 34.893-11.461 3.335-2.456 4.048-7.151 1.592-10.486-2.457-3.336-7.153-4.048-10.488-1.592z"/></svg>