<svg id="Capa_1" enable-background="new 0 0 512.002 512.002" height="512" viewBox="0 0 512.002 512.002" width="512" xmlns="http://www.w3.org/2000/svg"><path d="m213.892 231.737-2.203 2.202c-2.93 2.929-2.931 7.677-.003 10.606 2.929 2.931 7.678 2.932 10.606.003l2.205-2.204c1.684-1.684 3.922-2.611 6.304-2.611h50.396c2.385 0 4.627.929 6.313 2.615l2.199 2.199c2.931 2.929 7.678 2.928 10.607 0 2.929-2.93 2.929-7.678 0-10.607l-2.199-2.199c-4.52-4.519-10.528-7.008-16.92-7.008h-50.396c-6.389 0-12.396 2.488-16.909 7.004z"/><path d="m250.278 147.478c0-4.143-3.357-7.5-7.5-7.5h-23.21c-4.096 0-8.059-1.207-11.46-3.492-3.438-2.308-8.098-1.393-10.408 2.045-2.309 3.438-1.394 8.099 2.045 10.408 5.883 3.95 12.737 6.039 19.823 6.039h23.21c4.143 0 7.5-3.358 7.5-7.5z"/><path d="m210.884 116.354c26.98 18.709 63.246 18.715 90.234 0 3.404-2.36 4.25-7.033 1.89-10.437-2.359-3.403-7.032-4.252-10.437-1.89-21.875 15.167-51.268 15.165-73.141 0-3.403-2.361-8.076-1.514-10.437 1.89s-1.513 8.076 1.891 10.437z"/><path d="m30.127 455.636v48.866c0 4.143 3.357 7.5 7.5 7.5h436.748c4.143 0 7.5-3.357 7.5-7.5v-13.866c0-4.143-3.357-7.5-7.5-7.5s-7.5 3.357-7.5 7.5v6.366h-71.07v-84.992c0-4.143-3.357-7.5-7.5-7.5s-7.5 3.357-7.5 7.5v84.992h-117.304v-79.188c0-13.542 11.017-24.559 24.559-24.559 5.228.029 54.856.208 66.143 0 4.143 0 7.5-3.357 7.5-7.5s-3.357-7.5-7.5-7.5h-4.739v-84.147l17.058-13.448c1.27 1.378-4.581-4.949 12.441 13.438 1.001 1.081 2.297 1.843 3.728 2.191l39.655 9.668c26.219 6.393 44.53 29.704 44.53 56.694 0 17.229-7.49 33.556-20.55 44.792-3.793 3.264-3.385 9.271.825 11.987 12.351 7.971 19.725 21.505 19.725 36.204 0 4.143 3.357 7.5 7.5 7.5s7.5-3.357 7.5-7.5c0-16.691-7.052-32.268-19.227-43.187 12.311-13.555 19.227-31.259 19.227-49.801 0-33.923-23.019-63.228-55.978-71.263l-37.462-9.134-10.098-10.908 1.372-1.082c9.353-7.374 12.291-20.465 6.987-31.127l-1.241-2.494c-9.915-19.933-14.292-42.206-12.657-64.411l3.084-41.878c.516-6.994.45-14.044-.194-20.954-.386-4.124-4.04-7.139-8.165-6.771-4.124.385-7.155 4.041-6.771 8.165.568 6.082.625 12.292.171 18.457l-3.084 41.879c-1.832 24.888 3.073 49.852 14.186 72.192l1.241 2.495c2.158 4.339.963 9.666-2.844 12.667-4.892 3.857 4.187-3.301-20.96 16.524v-36.522c0-18.832-7.971-35.837-20.716-47.82l13.827-17.363c5.074-6.371 6.766-14.851 4.524-22.682l-14.896-52.042c-6.53-22.813-33.486-32.434-52.979-18.912l-9.29 6.441c-8.334 5.777-19.531 5.778-27.863-.001l-9.291-6.44c-19.5-13.523-46.45-3.897-52.979 18.912l-14.896 52.042c-2.241 7.831-.55 16.311 4.524 22.682l13.921 17.482c-12.672 11.976-20.591 28.931-20.591 47.701v36.696c-15.096-11.901-1.806-1.424-21.18-16.698-3.806-3.001-5.002-8.328-2.843-12.668l1.239-2.494c11.114-22.342 16.02-47.306 14.187-72.192l-3.174-43.097c-4.407-59.849 42.637-113.03 104.988-113.03 42.281 0 79.278 24.08 96.229 62.689 1.665 3.794 6.091 5.517 9.882 3.853 3.793-1.665 5.518-6.09 3.853-9.882-18.473-42.078-59.661-71.054-108.428-71.65-70.243-.983-126.667 58.742-121.482 129.122l3.174 43.097c1.636 22.204-2.741 44.477-12.658 64.411l-1.239 2.493c-5.305 10.663-2.366 23.754 6.986 31.128l1.372 1.082-10.098 10.908-37.458 9.133c-32.961 8.035-55.981 37.34-55.981 71.268 0 18.538 6.916 36.242 19.227 49.797-12.175 10.921-19.227 26.498-19.227 43.189zm225.874-60.972c-7.193-9.934-18.884-16.408-32.059-16.408h-22.062c.858-2.402 1.326-4.988 1.326-7.682v-44.404l29.376 23.16c13.786 10.869 33.046 10.873 46.838 0l29.597-23.333v44.578c0 2.693.468 5.28 1.326 7.682h-22.283c-13.175-.001-24.865 6.473-32.059 16.407zm.11-191.273c5.847 6.932 14.594 11.342 24.351 11.342h1.695c14.811 0 26.859 12.049 26.859 26.859v11.863c-7.84 12.621-25.138 12.485-36.193 2.665-9.676-8.59-24.44-8.574-34.085.4-10.284 9.571-27.361 10.135-35.532-1.93v-12.999c0-14.811 12.049-26.859 26.858-26.859h1.696c9.758.001 18.504-4.409 24.351-11.341zm-52.905 70.964c5.208 2.837 10.984 4.307 17.395 4.307 11.182-.07 20.795-4.124 28.355-11.16 3.931-3.657 9.959-3.672 13.907-.166 7.969 7.079 17.664 10.956 28.767 10.874 6.225-.04 12.181-1.679 17.387-4.624v33.31l-38.884 30.655c-8.321 6.559-19.942 6.559-28.264 0l-38.663-30.482zm131.257-35.869v139.77h-4.35c-3.489-.813-6.097-3.948-6.097-7.682 0-16.19 0-116.879 0-128.982 0-23.081-18.778-41.859-41.859-41.859h-1.695c-7.566 0-13.984-5.013-16.106-11.893h19.462c27.925 0 50.645 22.72 50.645 50.646zm-153.3-74.527c-2.061-2.588-2.747-6.03-1.837-9.211l14.896-52.042c3.696-12.92 18.961-18.374 30.01-10.712l9.291 6.44c13.445 9.322 31.512 9.322 44.957 0l9.29-6.441c11.045-7.66 26.315-2.207 30.011 10.713l14.896 52.042c.91 3.181.224 6.623-1.837 9.211l-14.123 17.735c-9.678-5.628-20.919-8.854-32.899-8.854h-6.29v-17.862h17.745c7.086 0 13.94-2.089 19.823-6.04 3.438-2.309 4.354-6.969 2.044-10.407-2.309-3.438-6.968-4.354-10.407-2.044-3.401 2.284-7.364 3.491-11.46 3.491h-19.356c-7.383 0-13.389 6.006-13.389 13.389v19.474c-11.727 0-13.316 0-34.122 0-12.042 0-23.337 3.259-33.049 8.942zm-115.486 243.486c-13.06-11.237-20.55-27.563-20.55-44.796 0-26.986 18.313-50.298 44.534-56.691l39.651-9.667c1.431-.349 2.728-1.11 3.728-2.191 17.009-18.372 11.202-12.083 12.441-13.438l17.278 13.622v37.136c0 4.143 3.357 7.5 7.5 7.5s7.5-3.357 7.5-7.5c0-28.405 0-60.568 0-92.933 0-27.926 22.72-50.646 50.646-50.646h19.462c-2.122 6.88-8.539 11.893-16.106 11.893h-1.696c-23.081 0-41.858 18.778-41.858 41.859v128.982c0 3.733-2.607 6.869-6.097 7.682h-4.35v-11.838c0-4.143-3.357-7.5-7.5-7.5s-7.5 3.357-7.5 7.5v11.838h-4.96c-4.143 0-7.5 3.357-7.5 7.5s3.357 7.5 7.5 7.5c11.028.125.712.292 66.143 0 13.542 0 24.559 11.017 24.559 24.559v79.188h-117.305v-84.994c0-4.143-3.357-7.5-7.5-7.5s-7.5 3.357-7.5 7.5v84.992h-71.07v-41.366c0-14.699 7.374-28.233 19.725-36.204 4.205-2.713 4.622-8.719.825-11.987z"/><path d="m467.178 126.514c-2.071-3.588-6.66-4.815-10.245-2.745l-14.52 8.383v-19.099c0-4.143-3.357-7.5-7.5-7.5s-7.5 3.357-7.5 7.5v19.098l-16.539-9.549c-3.59-2.071-8.175-.843-10.245 2.745-2.071 3.587-.842 8.174 2.745 10.245l16.54 9.549-16.54 9.549c-3.587 2.071-4.816 6.658-2.745 10.245 2.08 3.605 6.675 4.806 10.245 2.745l16.539-9.549v16.765c0 4.143 3.357 7.5 7.5 7.5s7.5-3.357 7.5-7.5v-16.766l14.52 8.383c3.583 2.067 8.172.847 10.245-2.745 2.071-3.587.842-8.174-2.745-10.245l-14.519-8.382 14.519-8.382c3.587-2.071 4.816-6.658 2.745-10.245z"/><path d="m34.356 256.833c2.08 3.605 6.675 4.806 10.245 2.745l14.059-8.117v14.108c0 4.143 3.357 7.5 7.5 7.5s7.5-3.357 7.5-7.5v-14.107l12.217 7.053c3.583 2.067 8.172.847 10.245-2.745 2.071-3.587.842-8.174-2.745-10.245l-12.218-7.054 12.218-7.054c3.587-2.071 4.816-6.658 2.745-10.245-2.07-3.587-6.66-4.815-10.245-2.745l-12.217 7.053v-16.232c0-4.143-3.357-7.5-7.5-7.5s-7.5 3.357-7.5 7.5v16.233l-14.059-8.117c-3.589-2.07-8.175-.843-10.245 2.745-2.071 3.587-.842 8.174 2.745 10.245l14.058 8.116-14.058 8.116c-3.587 2.073-4.817 6.66-2.745 10.247z"/></svg>