<svg id="Capa_1" enable-background="new 0 0 512 512" height="512" viewBox="0 0 512 512" width="512" xmlns="http://www.w3.org/2000/svg"><path d="m291.479 313.813c-4-1.066-8.115 1.301-9.188 5.301-.055.205-5.734 20.503-25.809 20.503-19.795 0-25.559-19.616-25.818-20.536-1.087-3.98-5.191-6.33-9.179-5.268-4 1.074-6.374 5.188-5.3 9.188 2.934 10.936 15.132 31.616 40.296 31.616s37.362-20.681 40.296-31.616c1.075-4-1.298-8.113-5.298-9.188z"/><path d="m477.763 405.389c13.41-14.548 20.953-33.66 20.953-53.684 0-36.272-24.614-67.606-59.856-76.198l-40.516-9.877c-13.727-14.829-22.688-25.352-40.809-38.37 2.481-12.183 2.703-19.414 4.857-48.657.266-3.605-1.249-7.297-4.302-9.658l2.763-37.519c3.176-1.907 5.402-5.277 5.69-9.193.802-10.88 1.977-22.518-1.503-39.052-.849-4.035-3.756-7.244-7.468-8.611-13.819-44.156-54.879-74.57-101.572-74.57s-87.753 30.414-101.572 74.569c-3.713 1.368-6.619 4.576-7.469 8.611-2.153 10.229-2.848 20.797-2.066 31.41l.563 7.643c.289 3.915 2.515 7.284 5.69 9.191l2.764 37.52c-3.053 2.362-4.567 6.054-4.302 9.658 2.014 27.339 2.346 36.327 4.857 48.658-18.222 13.091-27.678 24.185-40.808 38.368l-27.922 6.808c-4.024.98-6.491 5.039-5.51 9.063.982 4.024 5.038 6.496 9.063 5.51l25.964-6.329c9.866 10.802 13.757 25.573 10.418 39.929-1.652 7.103-14.064 60.468-18.135 77.972h-58.938c-30.265-28.344-26.411-78.291 9.573-100.717 3.516-2.191 4.589-6.816 2.398-10.332s-6.817-4.588-10.332-2.398c-42.608 26.556-48.95 84.511-16 120.256-13.259 11.67-20.954 28.465-20.954 46.476v52.634c0 4.143 3.358 7.5 7.5 7.5h470.435c4.142 0 7.5-3.357 7.5-7.5v-52.635c0-18.011-7.694-34.806-20.954-46.476zm5.954-53.679c0 17.818-7.37 34.748-20.314 46.87h-58.938c-23.245-99.945-14.412-61.967-18.135-77.972-3.339-14.354.552-29.127 10.418-39.929l38.56 9.399c28.502 6.95 48.409 32.292 48.409 61.632zm-247.734-160.597h40.033c4.142 0 7.5-3.357 7.5-7.5v-50.521h62.174l-2.468 33.506h-23.118c-3.576 0-6.654 2.524-7.355 6.031l-9.437 47.255h-94.626l-9.437-47.255c-.701-3.507-3.779-6.031-7.355-6.031h-23.118l-2.468-33.506h62.174v50.521c.001 4.143 3.359 7.5 7.501 7.5zm-69.405 13.694-1.709-23.209h20.876l9.437 47.255c.701 3.507 3.779 6.031 7.355 6.031h106.927c3.576 0 6.654-2.524 7.355-6.031l9.437-47.255h20.876l-1.709 23.209c-3.884 52.734-27.94 79.192-89.422 79.192-61.409 0-85.534-26.384-89.423-79.192zm89.422-189.807c38.253 0 72.104 23.757 85.456 58.853h-16.606c-4.142 0-7.5 3.357-7.5 7.5s3.358 7.5 7.5 7.5h26.019c2.743 15.103 1.009 26.44.94 29.239h-75.792c-4.142 0-7.5 3.357-7.5 7.5v50.521h-25.033v-50.521c0-4.143-3.358-7.5-7.5-7.5h-75.792c-.068-2.771-1.842-13.92.94-29.239h128.718c4.142 0 7.5-3.357 7.5-7.5s-3.358-7.5-7.5-7.5h-119.306c13.352-35.096 47.203-58.853 85.456-58.853zm-227.717 436.865c0-15.317 7.341-29.473 19.743-38.285h57.966v83.42h-77.709zm92.709-44.923 6.921-29.759h77.074c9.811 0 19.167 4.215 25.667 11.563l17.845 20.175v88.079h-127.507zm142.508 90.058v-88.079l17.845-20.174c6.501-7.35 15.856-11.564 25.667-11.564h22.91c4.142 0 7.5-3.357 7.5-7.5s-3.358-7.5-7.5-7.5h-22.91c-14.106 0-27.556 6.06-36.903 16.626l-14.109 15.951-14.11-15.953c-9.347-10.565-22.797-16.625-36.903-16.625h-73.586l8.879-38.176c4.288-18.44-.338-37.395-12.394-51.669 10.299-11.125 17.211-19.101 30.822-29.548 15.072 42.619 52.609 56.209 97.291 56.209 44.665 0 82.215-13.579 97.291-56.209 13.551 10.4 20.592 18.496 30.822 29.547-12.056 14.276-16.683 33.23-12.394 51.67l8.879 38.176h-15.675c-4.142 0-7.5 3.357-7.5 7.5s3.358 7.5 7.5 7.5h19.164l6.921 29.759v90.059zm220.217 0h-77.709v-83.42h57.966c12.402 8.813 19.743 22.969 19.743 38.285z"/></svg>