<svg id="Layer_1" enable-background="new 0 0 511.995 511.995" height="512" viewBox="0 0 511.995 511.995" width="512" xmlns="http://www.w3.org/2000/svg"><path d="m496.995 104.48h-95.341l-137.406-90.493c-5.006-3.297-11.494-3.297-16.5 0l-137.407 90.493h-95.341c-8.284 0-15 6.716-15 15v366c0 8.284 6.716 15 15 15h481.995c8.284 0 15-6.716 15-15v-366c0-8.284-6.716-15-15-15zm-240.997-60.005 91.113 60.005h-182.226zm89.437 166.005c0-8.822 7.178-16 16-16s16 7.178 16 16c0 1.238-.153 2.463-.435 3.656-5.008-1.15-10.213-1.778-15.565-1.778-5.355 0-10.563.629-15.574 1.78-.281-1.189-.426-2.414-.426-3.658zm16 111c-20.613 0-37.585-15.849-39.392-36h78.785c-1.808 20.151-18.78 36-39.393 36zm0-79.121c11.658 0 22.152 5.072 29.398 13.122h-58.797c7.247-8.05 17.74-13.122 29.399-13.122zm0 109.121c5.681 0 11.198-.7 16.487-1.991 7.57 2.161 14.467 5.736 20.449 10.375l-12.553 19.236-16.227-10.404c-5.343-3.425-12.26-3.119-17.278.766l-12.672 9.81-15.787-18.895c6.236-4.967 13.404-8.685 21.119-10.884 5.28 1.289 10.79 1.987 16.462 1.987zm-50.397 40.35 14.846 17.768c2.96 3.543 7.221 5.383 11.519 5.383 3.212 0 6.446-1.027 9.174-3.139l15.731-12.178 19.844 12.723c6.934 4.446 16.156 2.469 20.657-4.43l14.797-22.674c2.834 7.014 4.389 14.613 4.389 22.469v62.729h-92.725c-3.116-22.4-16.282-41.626-34.798-52.942 7.629-6.85 13.431-15.694 16.566-25.709zm-55.04 44.895c20.734 0 38.152 14.421 42.781 33.756h-85.563c4.629-19.336 22.048-33.756 42.782-33.756zm0-34.428c-15.251 0-27.659-12.407-27.659-27.658s12.408-27.659 27.659-27.659 27.658 12.408 27.658 27.659-12.407 27.658-27.658 27.658zm-105.563-75.817c-23.431 0-42.709-18.068-44.666-41h89.331c-1.957 22.933-21.235 41-44.665 41zm-24.416 25.89c7.658 2.651 15.867 4.111 24.415 4.111 8.545 0 16.75-1.459 24.406-4.108 3.601 1.603 7.038 3.559 10.262 5.828-8.462 10.355-21.059 16.4-34.669 16.4-13.715 0-26.288-6.113-34.679-16.41 3.19-2.239 6.618-4.198 10.265-5.821zm-11.971-96.89c8.149-11.304 21.418-18.683 36.386-18.683s28.237 7.379 36.386 18.683zm-24.174 152.271c0-9.37 2.193-18.405 6.174-26.521 13.885 14.752 33.334 23.371 54.386 23.371 18.393 0 35.679-6.616 49.09-18.308 2.533 12.29 8.992 23.158 17.999 31.244-18.516 11.317-31.682 30.543-34.798 52.943h-92.851zm392.121 62.729h-30v-62.729c0-31.267-16.356-59.858-41.84-76.245 12.851-12.629 20.841-30.189 20.841-49.587 0-22.209-10.475-42.006-26.73-54.75 2.07-5.299 3.169-10.952 3.169-16.689 0-25.364-20.636-46-46-46s-46 20.636-46 46c0 5.779 1.075 11.422 3.145 16.708-16.241 12.745-26.706 32.533-26.706 54.731 0 19.394 7.986 36.95 20.832 49.578-3.823 2.454-7.45 5.209-10.874 8.213-10.544-13.803-27.163-22.731-45.834-22.731-18.699 0-35.34 8.953-45.881 22.791-2.145-1.886-4.375-3.67-6.683-5.344 13.49-13.543 21.842-32.208 21.842-52.787 0-41.268-33.574-74.842-74.841-74.842-41.268 0-74.841 33.574-74.841 74.842 0 20.575 8.349 39.236 21.834 52.779-23.263 16.85-37.553 43.997-37.553 73.333v62.729h-29.875v-336h451.995z"/></svg>