<svg id="Layer_1" enable-background="new 0 0 512 512" height="512" viewBox="0 0 512 512" width="512" xmlns="http://www.w3.org/2000/svg"><g><path d="m55 197.5h117.911c8.284 0 15-6.716 15-15v-14.249c0-26.448-13.965-49.685-34.899-62.76 12.808-11.012 20.944-27.314 20.944-45.491 0-33.084-26.916-60-60-60s-60 26.916-60 60c0 18.177 8.136 34.479 20.944 45.491-20.935 13.075-34.9 36.312-34.9 62.76v14.249c0 8.284 6.716 15 15 15zm58.956-167.5c16.542 0 30 13.458 30 30s-13.458 30-30 30-30-13.458-30-30 13.458-30 30-30zm0 94.296c23.985 0 43.545 19.313 43.949 43.204h-87.899c.404-23.891 19.964-43.204 43.95-43.204z"/><path d="m224 142h17v120h-167c-8.284 0-15 6.716-15 15v25c0 8.284 6.716 15 15 15s15-6.716 15-15v-10h152v10c0 8.284 6.716 15 15 15s15-6.716 15-15v-10h152v10.001c0 8.284 6.716 15 15 15s15-6.716 15-15v-25.001c0-8.284-6.716-15-15-15h-167v-120h17c8.284 0 15-6.716 15-15s-6.716-15-15-15h-64c-8.284 0-15 6.716-15 15s6.716 15 15 15z"/><path d="m105.831 416.028c8.106-8.143 13.125-19.362 13.125-31.732 0-24.813-20.187-45-45-45s-45 20.187-45 45c0 12.37 5.019 23.589 13.125 31.732-24.867 11.927-42.081 37.352-42.081 66.723v14.249c0 8.284 6.716 15 15 15h117.911c8.284 0 15-6.716 15-15v-14.249c0-29.371-17.213-54.795-42.08-66.723zm-31.875-46.732c8.271 0 15 6.729 15 15s-6.729 15-15 15-15-6.729-15-15 6.729-15 15-15zm-43.95 112.704c.403-23.891 19.963-43.204 43.949-43.204s43.546 19.313 43.949 43.204z"/><path d="m287.875 416.028c8.106-8.143 13.125-19.361 13.125-31.732 0-24.813-20.187-45-45-45s-45 20.187-45 45c0 12.37 5.019 23.589 13.125 31.732-24.867 11.927-42.081 37.352-42.081 66.723v14.249c0 8.284 6.716 15 15 15h117.911c8.284 0 15-6.716 15-15v-14.249c0-29.371-17.213-54.795-42.08-66.723zm-31.875-46.732c8.271 0 15 6.729 15 15s-6.729 15-15 15-15-6.729-15-15 6.729-15 15-15zm-43.949 112.704c.403-23.891 19.963-43.204 43.949-43.204 23.985 0 43.545 19.313 43.949 43.204z"/><path d="m469.919 416.028c8.106-8.143 13.125-19.362 13.125-31.732 0-24.813-20.187-45-45-45s-45 20.187-45 45c0 12.37 5.019 23.589 13.125 31.732-24.867 11.927-42.081 37.352-42.081 66.724v14.248c0 8.284 6.716 15 15 15h117.912c8.284 0 15-6.716 15-15v-14.249c0-29.371-17.214-54.795-42.081-66.723zm-31.874-46.732c8.271 0 15 6.729 15 15s-6.729 15-15 15-15-6.729-15-15 6.729-15 15-15zm-43.949 112.704c.403-23.891 19.963-43.204 43.949-43.204s43.546 19.313 43.949 43.204z"/><path d="m323.037 100.007 6.995-.012c7.57-.012 14.656-2.138 20.696-5.816 2.916 4.191 6.353 7.99 10.216 11.311-20.935 13.075-34.899 36.312-34.899 62.76v14.25c0 8.284 6.716 15 15 15h117.911c8.284 0 15-6.716 15-15v-14.249c0-26.448-13.965-49.685-34.899-62.76 3.864-3.322 7.302-7.123 10.219-11.316 6.042 3.681 13.13 5.808 20.703 5.821 0 0 6.996.012 7.021.012 8.272 0 14.985-6.699 15-14.975.014-8.284-6.69-15.011-14.975-15.025l-6.997-.012c-5.523-.009-10.016-4.496-10.016-10.002 0-2.331.114-4.76-.439-7.04-3.501-29.774-28.874-52.954-59.573-52.954-9.746 0-19.433 2.395-28.042 6.968-8.37 4.446-15.644 10.884-21.087 18.641-5.589 7.964-9 17.083-10.365 26.691-.368 2.593-.507 5.077-.507 7.693 0 5.506-4.493 9.994-10.017 10.002l-6.996.012c-8.284.014-14.988 6.741-14.975 15.025.015 8.277 6.728 14.975 15.026 14.975zm33.014 67.493c.403-23.891 19.963-43.204 43.949-43.204 23.985 0 43.545 19.313 43.949 43.204zm43.949-137.5c16.542 0 30 13.458 30 30s-13.458 30-30 30-30-13.458-30-30 13.458-30 30-30z"/></g></svg>