<svg id="Layer_1" enable-background="new 0 0 512 512" height="512" viewBox="0 0 512 512" width="512" xmlns="http://www.w3.org/2000/svg"><g><path d="m410.207 352.504c12.859-12.629 20.854-30.195 20.854-49.599 0-22.205-10.471-41.997-26.719-54.742 2.063-5.291 3.159-10.933 3.159-16.663 0-25.365-20.636-46-46-46s-46 20.636-46 46c0 5.73 1.096 11.372 3.159 16.663-16.249 12.745-26.72 32.538-26.72 54.742 0 19.409 7.999 36.977 20.862 49.607-3.085 1.982-6.051 4.149-8.881 6.489-10.364-15.391-27.947-25.536-47.857-25.536-17.235 0-32.717 7.611-43.292 19.638-2.917-2.77-6.013-5.342-9.264-7.7 13.485-13.542 21.834-32.203 21.834-52.778 0-41.268-33.574-74.841-74.841-74.841s-74.841 33.574-74.841 74.841c0 20.573 8.347 39.231 21.829 52.773-8.226 5.963-15.444 13.298-21.354 21.789-10.595 15.222-16.195 33.047-16.195 51.55v78.263c0 8.284 6.716 15 15 15s15-6.716 15-15v-78.263c0-9.318 2.218-18.35 6.219-26.474 13.882 14.723 33.312 23.324 54.342 23.324 18.044 0 35.021-6.369 48.322-17.649 1.687 14.258 8.587 26.938 18.748 36.069-21.274 12.975-35.503 36.358-35.503 62.995 0 8.284 6.716 15 15 15s15-6.716 15-15c0-24.146 19.737-43.791 43.998-43.791 24.26 0 43.997 19.645 43.997 43.791 0 8.284 6.716 15 15 15s15-6.716 15-15c0-26.637-14.229-50.019-35.503-62.995 6.802-6.112 12.141-13.815 15.438-22.516l15.955 19.094c2.96 3.543 7.221 5.383 11.52 5.383 3.212 0 6.445-1.027 9.173-3.139l15.731-12.178 19.844 12.723c6.934 4.447 16.155 2.468 20.657-4.43l14.767-22.628c2.853 7.011 4.419 14.6 4.419 22.423v68.261c0 8.284 6.716 15 15 15s15-6.716 15-15v-68.263c0-20.418-7.059-40.475-19.876-56.474-6.228-7.77-13.687-14.436-21.981-19.759zm-88.099-46.039h78.785c-1.807 20.151-18.78 36-39.392 36s-37.586-15.849-39.393-36zm39.392-43.121c11.658 0 22.151 5.072 29.398 13.122h-58.796c7.247-8.05 17.74-13.122 29.398-13.122zm-16-31.844c0-8.823 7.178-16 16-16s16 7.178 16 16c0 1.227-.15 2.441-.427 3.623-5.011-1.151-10.219-1.78-15.573-1.78s-10.563.629-15.573 1.78c-.277-1.182-.427-2.396-.427-3.623zm-89.437 131.965c15.251 0 27.658 12.408 27.658 27.659s-12.407 27.658-27.658 27.658-27.658-12.407-27.658-27.658 12.407-27.659 27.658-27.659zm-150.228-67h89.331c-1.316 15.433-10.474 28.662-23.471 35.663-2.535.397-4.926 1.429-6.936 2.999-4.483 1.508-9.274 2.338-14.258 2.338-23.431 0-42.71-18.067-44.666-41zm44.665-48.682c14.968 0 28.237 7.379 36.386 18.682h-72.772c8.15-11.303 21.419-18.682 36.386-18.682zm0 137.803c-13.707 0-26.271-6.105-34.663-16.391 3.193-2.256 6.62-4.22 10.254-5.838 7.656 2.65 15.863 4.109 24.409 4.109 8.544 0 16.749-1.458 24.403-4.107 3.613 1.606 7.048 3.561 10.267 5.825-8.461 10.356-21.059 16.402-34.67 16.402zm235.384 14.501-16.228-10.404c-5.342-3.426-12.261-3.118-17.277.766l-12.673 9.81-15.782-18.887c5.831-4.64 12.479-8.214 19.573-10.444.458-.144.902-.312 1.336-.495 5.343 1.319 10.922 2.033 16.667 2.033 5.68 0 11.198-.7 16.486-1.991 7.528 2.152 14.426 5.745 20.421 10.422z"/><path d="m511.489 150.259c-1.03-3.843-3.544-7.119-6.989-9.108l-241-139.141c-4.641-2.68-10.359-2.68-15 0l-241 139.141c-3.445 1.989-5.959 5.265-6.989 9.108s-.491 7.937 1.499 11.382l30 51.961c4.142 7.174 13.315 9.633 20.49 5.49l203.5-117.489 203.5 117.491c2.362 1.364 4.941 2.012 7.486 2.012 5.184 0 10.226-2.69 13.004-7.502l30-51.961c1.989-3.447 2.529-7.541 1.499-11.384zm-49.979 35.354-198.01-114.321c-2.32-1.34-4.91-2.01-7.5-2.01s-5.18.67-7.5 2.01l-198.01 114.321-15-25.981 220.51-127.312 220.51 127.312z"/></g></svg>