<svg id="Layer_1" enable-background="new 0 0 512.002 512.002" height="512" viewBox="0 0 512.002 512.002" width="512" xmlns="http://www.w3.org/2000/svg"><path d="m497.002 125.001h-75v-55c0-8.284-6.716-15-15-15h-106c-8.284 0-15 6.716-15 15v55h-95.048v-106c0-8.284-6.716-15-15-15h-90.952c-8.284 0-15 6.716-15 15v106h-55.002c-8.284 0-15 6.716-15 15v60c0 8.284 6.716 15 15 15h15.002v278c0 8.284 6.716 15 15 15h421.998c8.284 0 15-6.716 15-15v-278h15.002c8.284 0 15-6.716 15-15v-60c0-8.284-6.716-15-15-15zm-181.001-40h76v40h-76zm-215.999-51h60.952v91h-60.952zm257 444h-57.328c15.13-13.075 24.26-32.474 27.207-51.785 5.242-34.352-8.148-77.272-49.933-90.329-6.85-2.141-14.215-1.071-20.208 2.934-6.346 4.241-10.392 11.181-11.099 19.041-.44 4.886-3.543 12.856-6.487 17.578-3.809-4.63-9.188-7.705-15.065-8.547-6.592-.944-13.356.979-18.557 5.279-20.102 16.611-26.93 46.335-16.991 73.965 4.673 12.989 12.27 23.812 21.934 31.865h-55.475v-88.674c0-60.282 45.309-109.326 101.001-109.326s101.001 49.043 101.001 109.326zm-82.593-110.895c19.919 10.035 25.98 33.84 22.815 54.584-2.98 19.529-15.638 42.335-41.503 42.335-26.782 0-36.584-21.465-38.951-28.044-4.065-11.3-4.178-25.979 3.536-36.162 9.761 10.018 20.108 8.864 24.53 7.725 17.332-4.477 26.5-26.992 29.573-40.438zm177.591 110.895h-64.998v-88.674c0-76.824-58.767-139.326-131.001-139.326s-131.001 62.502-131.001 139.326v88.674h-64.998v-263h391.998zm30.002-293h-452.002v-30h452.002z"/></svg>