<svg id="Layer_1" enable-background="new 0 0 512 512" height="512" viewBox="0 0 512 512" width="512" xmlns="http://www.w3.org/2000/svg"><path d="m482 172.5h-37v-45c0-24.813-20.187-45-45-45h-114c-11.517 0-22.032 4.354-30 11.495-7.968-7.141-18.483-11.495-30-11.495h-114c-24.813 0-45 20.187-45 45v45h-37c-16.542 0-30 13.458-30 30v137c0 16.542 13.458 30 30 30v45c0 8.284 6.716 15 15 15h50c6.624 0 12.464-4.345 14.367-10.69l14.793-49.31h263.68l14.793 49.31c1.903 6.345 7.743 10.69 14.367 10.69h50c8.284 0 15-6.716 15-15v-45c16.542 0 30-13.458 30-30v-137c0-16.542-13.458-30-30-30zm-196-60h114c8.271 0 15 6.729 15 15v136h-144v-136c0-8.271 6.729-15 15-15zm-189 15c0-8.271 6.729-15 15-15h114c8.271 0 15 6.729 15 15v136h-144zm-13.16 272h-23.84v-30h32.84zm368.16 0h-23.84l-9-30h32.84zm30-60h-452v-137h37v76c0 8.284 6.716 15 15 15h348c8.284 0 15-6.716 15-15v-76h37z"/></svg>