<svg id="Layer_1" enable-background="new 0 0 512.047 512.047" height="512" viewBox="0 0 512.047 512.047" width="512" xmlns="http://www.w3.org/2000/svg"><g clip-rule="evenodd" fill-rule="evenodd"><path d="m439.799 343.139c-14.705-17.996-33.314-32.355-54.103-42.035 5.397-4.115 10.505-8.683 15.266-13.687 22.609-23.762 35.062-54.808 35.062-87.417v-73c0-70.028-56.972-127-127-127h-106c-70.028 0-127 56.972-127 127v73c0 32.609 12.452 63.654 35.062 87.417 4.761 5.004 9.868 9.573 15.266 13.687-21.442 9.993-40.572 24.973-55.444 43.698-21.277 26.79-32.995 60.308-32.995 94.378v57.822c0 8.284 6.716 15 15 15s15-6.716 15-15v-57.822c0-30.95 11.589-59.625 31.112-81.435v139.252c0 8.284 6.716 15 15 15s15-6.716 15-15v-163.604c9.24-5.327 19.294-9.508 30-12.339v175.943c0 8.284 6.716 15 15 15s15-6.716 15-15v-170.775c.853.094 1.706.183 2.563.26 18.961 13.44 41.14 20.518 64.435 20.518s45.475-7.078 64.438-20.518c.856-.077 1.71-.166 2.563-.26v170.825c0 8.284 6.716 15 15 15s15-6.716 15-15v-174.914c0-.378-.029-.748-.057-1.119 10.694 2.826 20.773 7.067 30.057 12.482v163.511c0 8.284 6.716 15 15 15s15-6.716 15-15v-138.93c19.44 21.853 31.112 50.495 31.112 81.103v57.822c0 8.284 6.716 15 15 15s15-6.716 15-15v-57.822c0-34.836-12.195-68.944-34.337-96.041zm-33.776-216.139v23.773c-29.122-2.515-52.057-27.008-52.057-56.772v-52.939c30.918 16.234 52.057 48.661 52.057 85.938zm-247.943-85.938v52.938c0 29.763-22.935 54.256-52.057 56.772v-23.772c0-37.277 21.14-69.704 52.057-85.938zm156.161 255.795c-3.034.163-5.948 1.244-8.355 3.099-14.462 11.15-31.704 17.044-49.863 17.044s-35.4-5.894-49.862-17.044c-2.407-1.855-5.321-2.936-8.355-3.099-51.467-2.761-91.782-45.305-91.782-96.856v-19.144c45.68-2.572 82.057-40.544 82.057-86.857v-62.529c0-.107-.014-.211-.016-.317 4.877-.758 9.873-1.154 14.959-1.154h106c5.087 0 10.082.396 14.959 1.154-.002.107-.016.21-.016.317v62.529c0 46.313 36.376 84.285 82.057 86.857v19.143c-.001 51.552-40.316 94.097-91.783 96.857z"/><path d="m271.023 181h-30c-30.327 0-55 24.673-55 55v20c0 8.284 6.716 15 15 15h110c8.284 0 15-6.716 15-15v-20c0-30.327-24.672-55-55-55zm25 60h-80v-5c0-13.785 11.215-25 25-25h30c13.785 0 25 11.215 25 25z"/><path d="m256.023 387c-8.262 0-15 6.738-15 15 0 8.261 6.738 15 15 15s15-6.739 15-15c0-8.262-6.738-15-15-15z"/><path d="m256.023 447c-8.262 0-15 6.738-15 15s6.738 15 15 15 15-6.739 15-15c0-8.262-6.738-15-15-15z"/></g></svg>