<svg id="Layer_1" enable-background="new 0 0 512 512" height="512" viewBox="0 0 512 512" width="512" xmlns="http://www.w3.org/2000/svg"><g clip-rule="evenodd" fill-rule="evenodd"><path d="m395.275 316.125c16.65-20.705 25.725-46.252 25.725-72.943v-66.365c0-50.81-32.611-94.14-78-110.178v-3.346c0-34.9-28.394-63.293-63.293-63.293h-47.414c-34.899 0-63.293 28.393-63.293 63.293v3.346c-45.389 16.038-78 59.368-78 110.178v66.365c0 26.691 9.075 52.237 25.725 72.942-43.415 26.475-70.725 74.124-70.725 125.364v55.512c0 8.284 6.716 15 15 15s15-6.716 15-15v-55.512c0-34.607 15.696-67.154 41.6-89.094l64.179 87.856c6.066 8.303 14.811 12.875 24.623 12.875 9.978 0 18.885-4.646 24.564-12.779l25.034-31.093 25.403 31.553c8.196 10.181 17.681 12.318 24.194 12.318 9.772 0 18.507-4.559 24.595-12.837l64.47-87.668c25.748 21.939 41.338 54.38 41.338 88.869v55.512c0 8.284 6.716 15 15 15s15-6.716 15-15v-55.512c0-51.239-27.31-98.888-70.725-125.363zm-139.275 32.057c-16.204 0-31.591-5.26-44.496-15.21-2.407-1.856-5.32-2.937-8.355-3.1-46.065-2.471-82.149-40.55-82.149-86.69v-22.797c7.225 1.095 14.547 1.661 21.9 1.661 44.252 0 85.815-20.342 113.1-54.272 27.284 33.93 68.848 54.272 113.1 54.272 7.355 0 14.675-.571 21.9-1.667v22.802c0 46.14-36.084 84.219-82.148 86.689-3.034.163-5.948 1.244-8.355 3.1-12.907 9.952-28.293 15.212-44.497 15.212zm-23.707-318.182h47.414c17.356 0 31.645 13.352 33.153 30.322-2.866-.211-5.76-.322-8.679-.322h-96.363c-2.919 0-5.813.111-8.679.322 1.509-16.97 15.798-30.322 33.154-30.322zm-24.475 60h96.363c47.873 0 86.819 38.946 86.819 86.817v13.136c-7.184 1.383-14.517 2.093-21.9 2.093-41.29 0-79.631-22.332-100.059-58.28-2.665-4.691-7.646-7.589-13.041-7.589s-10.376 2.898-13.042 7.589c-20.427 35.949-58.768 58.28-100.058 58.28-7.38 0-14.718-.7-21.9-2.082v-13.147c0-47.871 38.946-86.817 86.818-86.817zm-.589 331.993c-.278.346-.541.704-.788 1.073-.104-.101-.253-.263-.437-.514l-57.625-78.883c14.737 8.772 31.262 14.208 48.554 15.821 13.871 9.759 29.599 15.821 46.217 17.886zm98.795.521c-.142.192-.265.335-.363.44-.212-.189-.513-.492-.891-.961l-35.92-44.617c16.617-2.065 32.346-8.127 46.217-17.886 17.558-1.638 34.328-7.213 49.236-16.225z"/><path d="m256 465c-8.262 0-15 6.738-15 15s6.738 15 15 15 15-6.739 15-15c0-8.262-6.738-15-15-15z"/></g></svg>