<svg id="Layer_1" enable-background="new 0 0 512 512" height="512" viewBox="0 0 512 512" width="512" xmlns="http://www.w3.org/2000/svg"><path d="m427.621 153.68c17.593-16.193 28.635-39.399 28.635-65.137 0-48.823-39.721-88.543-88.544-88.543-48.822 0-88.543 39.72-88.543 88.543 0 25.785 11.082 49.029 28.73 65.226-23.201 4.161-40.899 25.027-40.899 50.08v6.563c-3.651-.46-7.37-.699-11.144-.699-3.675 0-7.297.229-10.856.666v-6.53c0-25.227-17.943-46.212-41.38-50.169 17.592-16.193 28.635-39.399 28.635-65.138.001-48.822-39.719-88.542-88.543-88.542s-88.543 39.72-88.543 88.543c0 25.785 11.082 49.029 28.73 65.226-23.2 4.162-40.899 25.027-40.899 50.08v118.302c0 19.777 11.033 36.94 27.089 45.345v129.504c0 8.284 6.716 15 15 15h341.822c8.284 0 15-6.716 15-15v-129.503c16.057-8.405 27.089-25.569 27.089-45.346v-118.302c0-25.227-17.942-46.212-41.379-50.169zm-118.182-70.68h116.547c.172 1.826.27 3.673.27 5.543 0 32.281-26.263 58.544-58.544 58.544-32.28 0-58.543-26.263-58.543-58.544 0-1.87.097-3.718.27-5.543zm58.273-53c18.921 0 35.766 9.031 46.475 23h-92.949c10.709-13.969 27.553-23 46.474-23zm-70.712 173.849c0-11.496 8.702-20.849 19.399-20.849h36.6v28.675c0 8.284 6.716 15 15 15s15-6.716 15-15v-28.675h36.602c10.697 0 19.399 9.353 19.399 20.849v118.302c0 11.496-8.702 20.849-19.399 20.849h-87.367c7.726-13.138 12.166-28.431 12.166-44.744 0-33.979-19.242-63.544-47.399-78.384v-16.023zm17.399 94.407c0 32.281-26.262 58.543-58.543 58.543s-58.543-26.263-58.543-58.543c0-.421.023-.837.032-1.256h117.023c.008.419.031.835.031 1.256zm-9.079-31.256h-98.928c10.389-16.382 28.671-27.287 49.464-27.287s39.076 10.905 49.464 27.287zm-219.881-184h116.547c.172 1.826.27 3.673.27 5.543 0 32.281-26.263 58.544-58.543 58.544s-58.543-26.263-58.543-58.544c-.001-1.87.096-3.718.269-5.543zm58.273-53c18.921 0 35.765 9.031 46.474 23h-92.948c10.709-13.969 27.553-23 46.474-23zm-70.712 173.849c0-11.496 8.703-20.849 19.4-20.849h36.6v28.675c0 8.284 6.716 15 15 15s15-6.716 15-15v-28.675h36.601c10.697 0 19.4 9.353 19.4 20.849v15.872c-28.314 14.789-47.688 44.44-47.688 78.536 0 16.313 4.439 31.606 12.166 44.744h-87.079c-10.697 0-19.4-9.353-19.4-20.849zm27.089 169.151h75.933c-14.145 12.47-23.094 30.705-23.094 51v58h-52.839zm82.839 109v-58c0-20.953 17.047-38 38-38h70.144c20.953 0 38 17.047 38 38v58h-146.072zm176.144 0v-58c0-20.295-8.948-38.529-23.094-51h75.933v109z"/></svg>