<svg id="Layer_1" enable-background="new 0 0 512 512" height="512" viewBox="0 0 512 512" width="512" xmlns="http://www.w3.org/2000/svg"><path d="m465.332 404.89c-2.916-19.358-14.705-117.634-17.684-137.414-3.144-20.877-13.578-39.739-29.381-53.109-4.05-3.427-8.412-6.446-13.01-9.053 24.398-14.865 40.724-41.723 40.724-72.323 0-23.44-9.584-44.68-25.033-60.02.846-4.055 1.298-8.203 1.298-12.363 0-33.419-27.188-60.608-60.608-60.608s-60.608 27.189-60.608 60.608c0 4.008.421 8.003 1.205 11.914-15.721 15.374-25.504 36.796-25.504 60.469 0 30.604 16.33 57.465 40.734 72.329-7.158 4.063-13.71 9.134-19.441 15.094-12.544-6.822-26.911-10.7-42.167-10.7-15.172 0-29.463 3.838-41.958 10.59-5.715-5.956-12.213-10.992-19.298-15.025 24.367-14.872 40.669-41.711 40.669-72.288 0-23.435-9.58-44.671-25.023-60.011.846-4.049 1.288-8.183 1.288-12.372-.001-33.419-27.189-60.608-60.609-60.608s-60.608 27.189-60.608 60.608c0 4.022.406 8.012 1.192 11.927-15.713 15.373-25.491 36.789-25.491 60.456 0 30.597 16.323 57.451 40.716 72.318-4.609 2.613-8.981 5.642-13.041 9.08-15.793 13.377-26.219 32.235-29.357 53.098-2.973 19.758-14.751 118.028-17.67 137.403-.65 4.319.614 8.708 3.464 12.019s7.001 5.215 11.369 5.215h28v74.876c0 8.284 6.716 15 15 15h302.712c8.284 0 15-6.716 15-15v-74.875h28.288c4.368 0 8.52-1.904 11.369-5.215s4.115-7.701 3.463-12.02zm-120.091-178.839c5.145-1.437 10.547-2.214 16.086-2.214 5.633 0 11.045.75 16.147 2.151-.004.139-.021.274-.021.414v8.35c0 8.875-7.221 16.096-16.097 16.096s-16.098-7.221-16.098-16.096v-8.35c.001-.119-.014-.234-.017-.351zm-30.84 72.205c0 29.012-21.217 53.15-48.948 57.744h-19.192c-27.73-4.594-48.947-28.731-48.947-57.744 0-.421.023-.837.032-1.256h117.023c.009.419.032.835.032 1.256zm-179.875-72.281c5.085-1.394 10.478-2.139 16.09-2.139 5.583 0 11.001.752 16.146 2.173-.003.131-.02.259-.02.392v8.35c0 8.875-7.221 16.096-16.097 16.096s-16.098-7.221-16.098-16.096v-8.35c0-.144-.017-.283-.021-.426zm213.442-145.944c-.684 1.372-1.179 2.862-1.418 4.448-2.27 15.069-15.501 26.433-30.776 26.433-1.42 0-2.833-.105-4.231-.296 6.779-15.031 20.154-26.469 36.425-30.585zm63.202 30.588c-1.38.188-2.776.294-4.179.294-15.274 0-28.506-11.363-30.776-26.433-.238-1.581-.73-3.066-1.411-4.434 16.245 4.127 29.596 15.558 36.366 30.573zm-95.396 30.293c14.722 0 28.946-5.31 40.054-14.951 1.976-1.715 3.83-3.546 5.556-5.48 1.725 1.934 3.58 3.765 5.555 5.479 11.107 9.642 25.332 14.951 40.054 14.951 2.849 0 5.683-.223 8.488-.616-3.583 26.678-26.48 47.321-54.122 47.321-27.646 0-50.545-20.647-54.124-47.329 2.821.4 5.673.625 8.539.625zm45.864-110.912c14.586 0 26.813 10.258 29.867 23.936-9.372-3.587-19.531-5.571-30.148-5.571-10.383 0-20.33 1.889-29.529 5.326 3.144-13.555 15.311-23.691 29.81-23.691zm-56.317 237h-98.928c10.389-16.382 28.671-27.287 49.463-27.287 20.793 0 39.076 10.905 49.465 27.287zm-168.064-186.969c-.684 1.372-1.179 2.862-1.418 4.448-2.271 15.069-15.502 26.433-30.777 26.433-1.42 0-2.833-.105-4.231-.296 6.779-15.031 20.154-26.47 36.426-30.585zm63.205 30.596c-1.382.186-2.779.285-4.183.285-15.275 0-28.506-11.363-30.775-26.432-.238-1.581-.73-3.066-1.411-4.435 16.248 4.129 29.6 15.564 36.369 30.582zm-95.4 30.285c14.722 0 28.946-5.31 40.054-14.951 1.976-1.714 3.83-3.546 5.556-5.479 1.725 1.933 3.579 3.765 5.555 5.479 11.107 9.641 25.332 14.951 40.054 14.951 2.848 0 5.682-.206 8.485-.599-3.591 26.669-26.484 47.304-54.12 47.304-27.64 0-50.535-20.639-54.122-47.312 2.821.398 5.674.607 8.538.607zm45.864-110.912c14.586 0 26.813 10.258 29.867 23.936-9.372-3.587-19.531-5.571-30.148-5.571-10.383 0-20.33 1.889-29.529 5.326 3.144-13.555 15.311-23.691 29.81-23.691zm-56.923 241.95c1.559-10.362 5.671-19.574 11.672-27.1 4.619 20.574 23.021 35.997 44.969 35.997 6.912 0 13.469-1.539 19.36-4.277-1.755 6.942-2.691 14.207-2.691 21.687 0 24.785 10.24 47.219 26.707 63.307-14.198 6.142-25.898 16.987-33.134 30.562h-82.112c2.177-16.206 12.324-100.863 15.229-120.176zm25.497 150.175h33.476c-.017.625-.048 59.875-.048 59.875h-33.428zm63.429 59.875v-58c0-20.953 17.047-38 38-38h70.145c20.953 0 37.999 17.047 37.999 38v58zm209.283 0h-33.14s-.031-59.251-.048-59.875h33.187v59.875zm-41.097-89.875c-7.27-13.638-19.043-24.524-33.33-30.651 16.413-16.081 26.616-38.479 26.616-63.217 0-7.532-.948-14.846-2.727-21.833 5.973 2.832 12.645 4.424 19.683 4.424 21.941 0 40.337-15.413 44.964-35.976 5.995 7.52 10.104 16.722 11.662 27.072 2.912 19.334 13.068 103.998 15.244 120.182h-82.112z"/></svg>