<svg id="Layer_1" enable-background="new 0 0 512 512" height="512" viewBox="0 0 512 512" width="512" xmlns="http://www.w3.org/2000/svg"><path d="m497 0c-8.284 0-15 6.716-15 15v57.58c-4.695-1.665-9.742-2.58-15-2.58h-350.509c-6.969-34.192-37.272-60-73.491-60h-13.873c-2.063-5.819-7.6-9.995-14.127-9.995-8.284 0-15 6.716-15 15v481.93c0 8.284 6.716 15 15 15s15-6.716 15-15v-36.935h323v37c0 8.284 6.716 15 15 15s15-6.716 15-15v-37h99v36.935c0 8.284 6.716 15 15 15s15-6.716 15-15v-481.935c0-8.284-6.716-15-15-15zm-144 100v30h-323v-15c0-8.271 6.729-15 15-15zm30 240h99v30h-99zm0-30v-30h99v30zm0-60v-30h99v30zm0 150h84c8.271 0 15 6.729 15 15v15h-99zm99-210h-99v-30h99zm-129 180h-236.509c-6.968-34.192-37.272-60-73.491-60h-13v-150h323zm-323 0v-30h13c19.556 0 36.239 12.539 42.43 30h-40.43zm0 45c0-8.271 6.729-15 15-15h308v30h-323zm452-300v15h-99v-30h84c8.271 0 15 6.729 15 15zm-396.57-45h-55.43v-30h13c19.556 0 36.239 12.539 42.43 30z"/></svg>