<svg id="Layer_1" enable-background="new 0 0 512 512" height="512" viewBox="0 0 512 512" width="512" xmlns="http://www.w3.org/2000/svg"><g><path d="m419.149 163.178c-3.739-13.656-12.572-25.038-24.873-32.05-4.639-2.644-9.564-4.55-14.653-5.693-1.379-20.55-12.873-39.47-31.464-50.068-5.213-2.972-10.747-5.154-16.51-6.523-3.621-38.563-36.162-68.844-75.653-68.844-37.106 0-68.066 26.736-74.677 61.952-12.348-1.009-24.808 1.68-35.95 8.032-11.656 6.644-20.631 16.581-26.012 28.556-3.209-.423-6.528.187-9.435 1.857-4.798 2.756-7.689 7.93-7.522 13.46l1.672 55.269c-2.033.257-4.023.924-5.836 2.012-4.518 2.711-7.282 7.593-7.282 12.862v283c0 24.813 20.187 45 45 45h240.083c24.813 0 44.999-20.187 44.999-45 0 0-.066-284.534-.182-285.284.526-6.149-.027-12.407-1.705-18.538zm-70.086-26.825c-.982 4.713.358 9.611 3.603 13.168s7.993 5.34 12.782 4.794c4.863-.556 9.697.438 13.971 2.875 5.339 3.043 9.173 7.984 10.795 13.911.359 1.311.58 2.635.706 3.961l-22.392 11.94-30.453-16.237c-1.909-1.018-3.983-1.568-6.078-1.705v-68.336c.439.225.874.459 1.305.705 12.316 7.021 18.651 21.056 15.761 34.924zm-93.067-106.353c25.365 0 45.999 20.635 45.999 46v106.475l-8.489 4.527-30.453-16.237c-4.412-2.353-9.704-2.353-14.115 0l-30.453 16.237-8.49-4.527v-106.475c.001-25.365 20.636-46 46.001-46zm-121.514 152.212-1.248-41.228 45.236 28.254c-1.569.266-3.11.758-4.552 1.527l-30.453 16.237zm25.744-86.166c6.116-3.487 12.997-4.866 19.77-4.087v42.86l-34.306-21.427c2.603-7.345 7.681-13.438 14.536-17.346zm230.811 370.954c0 8.271-6.729 15-14.999 15h-240.084c-8.271 0-15-6.729-15-15v-258.003l15.454 8.239c4.41 2.353 9.704 2.353 14.115 0l30.453-16.237 30.453 16.237c4.41 2.353 9.704 2.353 14.115 0l30.453-16.237 30.453 16.237c4.412 2.353 9.703 2.353 14.115 0l30.452-16.237 30.453 16.237c4.412 2.353 9.703 2.353 14.115 0l15.452-8.239z"/><path d="m241.718 96h28.556c8.284 0 15-6.716 15-15s-6.716-15-15-15h-28.556c-8.284 0-15 6.716-15 15s6.716 15 15 15z"/><path d="m241.718 153h28.556c8.284 0 15-6.716 15-15s-6.716-15-15-15h-28.556c-8.284 0-15 6.716-15 15s6.716 15 15 15z"/></g></svg>