<svg id="Layer_1" enable-background="new 0 0 512 512" height="512" viewBox="0 0 512 512" width="512" xmlns="http://www.w3.org/2000/svg"><g><path d="m475.442 226.058c-18.584-20.633-44.222-32.289-74.495-33.98l.006-47.931c0-3.979-1.58-7.795-4.394-10.608s-6.629-4.394-10.608-4.394l-361.924.036c-8.282.001-14.997 6.715-14.998 14.998l-.029 254.039c-.003 30.32 11.853 58.875 33.383 80.405 21.525 21.525 50.067 33.377 80.376 33.377h.024l164.364-.036c59.147-.013 107.895-45.394 113.275-103.157 30.501-1.585 56.328-13.256 75.02-34.009 17.771-19.732 27.558-46.143 27.558-74.37 0-28.228-9.787-54.64-27.558-74.37zm-104.518 172.124c-.005 46.188-37.59 83.772-83.782 83.782l-164.365.036c-.007 0-.012 0-.019 0-22.293 0-43.305-8.733-59.163-24.59-15.863-15.863-24.598-36.883-24.595-59.188l.027-239.042 331.924-.033zm82.227-43.462c-12.784 14.194-30.701 22.408-52.151 23.996v-156.575c49.403 3.68 72 42.29 72 78.287 0 20.799-7.049 40.081-19.849 54.292z"/><path d="m79.974 375.784c8.284 0 15-6.716 15-15v-61.095l.898 1.581c2.665 4.689 7.643 7.587 13.036 7.589h.005c5.392 0 10.369-2.895 13.037-7.581l1.029-1.81v61.532c0 8.284 6.716 15 15 15s15-6.716 15-15v-118.216c0-6.806-4.583-12.76-11.163-14.501-6.583-1.739-13.508 1.167-16.874 7.082l-16.02 28.15-15.908-27.994c-3.363-5.918-10.289-8.833-16.874-7.091-6.582 1.74-11.167 7.694-11.167 14.502v117.852c.001 8.284 6.716 15 15.001 15z"/><path d="m192.979 375.784h24.001c18.196 0 33-14.803 33-32.999v-82.001c0-18.196-14.804-33-33-33h-24.001c-18.196 0-33 14.804-33 33v82.001c0 18.195 14.804 32.999 33 32.999zm-3-115c0-1.626 1.374-3 3-3h24.001c1.626 0 3 1.374 3 3v82.001c0 1.625-1.374 2.999-3 2.999h-24.001c-1.626 0-3-1.374-3-2.999z"/><path d="m271.974 375.784c8.284 0 15-6.716 15-15v-61.095l.898 1.581c2.665 4.689 7.643 7.587 13.036 7.589h.005c5.392 0 10.369-2.894 13.036-7.581l1.031-1.812v61.534c0 8.284 6.716 15 15 15s15-6.716 15-15v-118.216c0-6.806-4.583-12.76-11.163-14.501-6.576-1.739-13.508 1.167-16.873 7.082l-16.021 28.151-15.908-27.994c-3.363-5.918-10.29-8.833-16.874-7.091-6.582 1.74-11.167 7.694-11.167 14.502v117.852c0 8.283 6.715 14.999 15 14.999z"/><path d="m128.977 104.998c8.282 0 14.997-6.713 15-14.995h107c24.813 0 45-20.187 45-45 0-24.814-20.187-45.002-45-45.002h-38c-8.284 0-15 6.716-15 15s6.716 15 15 15h38c8.271 0 15 6.73 15 15.002 0 8.271-6.729 15-15 15h-107.998c-15.992 0-29.003 13.01-29.003 29.002v.993c.001 8.284 6.716 15 15.001 15z"/></g></svg>