<svg id="Layer_1" enable-background="new 0 0 511.898 511.898" height="512" viewBox="0 0 511.898 511.898" width="512" xmlns="http://www.w3.org/2000/svg"><g clip-rule="evenodd" fill-rule="evenodd"><path d="m458.244 373.797-209.924-209.807 102.253-102.253c3.436-3.436 4.994-8.321 4.183-13.111-.812-4.79-3.892-8.89-8.267-11.003-28.752-13.884-59.631-20.924-91.779-20.924-42.542 0-83.029 12.385-117.906 35.938-7.143-6.427-15.75-10.242-25.216-11.195-.077-.009-.154-.02-.232-.028-1.489-.143-96.356-.215-96.356-.215-8.284 0-15 6.716-15 15s6.716 15 15 15h79.897v291.865c-29.701 6.831-51.925 33.464-51.925 65.209 0 36.903 30.022 66.926 66.925 66.926s66.925-30.022 66.925-66.926c0-31.745-22.224-58.379-51.926-65.209v-62.795c30.048 42.855 79.804 70.93 136 70.93 0 0 151.779-.028 152.239-.07l9.328 9.322c-19.265 10.246-32.417 30.523-32.417 53.822 0 33.595 27.331 60.926 60.926 60.926 33.594 0 60.925-27.331 60.925-60.926.001-31.132-23.476-56.869-53.653-60.476zm-311.421 54.476c0 20.361-16.564 36.926-36.925 36.926s-36.925-16.564-36.925-36.926c0-20.36 16.564-36.925 36.925-36.925s36.925 16.565 36.925 36.925zm166.648-371.86-86.369 86.37-68.55-68.512c28.76-18.086 61.672-27.572 96.159-27.572 20.28 0 39.963 3.26 58.76 9.714zm-52.574 284.786c-74.991 0-136-61.01-136-136v-121.754l91.542 91.248c.412.411.846.785 1.291 1.138l165.461 165.368zm190.076 124c-17.053 0-30.926-13.873-30.926-30.926s13.873-30.926 30.926-30.926c17.052 0 30.925 13.873 30.925 30.926s-13.873 30.926-30.925 30.926z"/><ellipse cx="109.898" cy="428.274" rx="15" ry="15" transform="matrix(.383 -.924 .924 .383 -327.832 365.913)"/></g></svg>