<svg id="Layer_1" enable-background="new 0 0 512.112 512.112" height="512" viewBox="0 0 512.112 512.112" width="512" xmlns="http://www.w3.org/2000/svg"><g clip-rule="evenodd" fill-rule="evenodd"><path d="m501.189 196.505c-14.191-34.282-40.723-61.369-74.688-76.262l-52.738-23.212c-23.464-20.31-54.04-32.612-87.435-32.612h-60.476c-33.459 0-64.087 12.349-87.568 32.728l-52.654 23.088c-33.985 14.901-60.517 41.988-74.708 76.271-14.191 34.283-14.565 72.197-1.055 106.759l29.421 75.263c4.31 11.025 14.329 18.315 26.148 19.023.625.038 1.247.057 1.865.057 11.082 0 21.066-5.942 26.365-15.823l31.313-58.382c.68 6.929 1.028 14.028 1.028 21.396v33.654c0 28.006 14.591 51.951 36.307 59.585 15.186 5.337 31.053 1.476 43.821-10.285 12.948 12.587 30.487 19.941 49.006 19.941 19.15 0 36.979-7.602 50.012-20.872 12.421 12.099 24.367 15.279 33.486 15.279 5.676-.001 10.258-1.231 13.173-2.307 20.55-7.579 34.357-32.23 34.357-61.342v-33.654c0-7.337.346-14.408 1.02-21.31l31.253 58.296c5.3 9.881 15.284 15.823 26.367 15.823.619 0 1.241-.019 1.866-.057 11.817-.708 21.836-7.998 26.146-19.023l29.421-75.263c13.513-34.562 13.138-72.476-1.053-106.759zm-144.24 82.362c-34.47-30.68-51.949-69.724-51.949-116.046v-66.715c48.334 8.82 85.089 51.234 85.089 102.075 0 15.825-3.517 31.04-10.452 45.223-6.928 14.168-12.204 27.988-15.992 42.048-2.092-2.277-4.324-4.473-6.696-6.585zm-201.753 0c-2.362 2.103-4.586 4.29-6.67 6.557-3.787-14.05-9.06-27.862-15.984-42.021-6.937-14.184-10.453-29.398-10.453-45.223 0-50.83 36.739-93.236 85.056-102.069v66.709c.001 46.324-17.478 85.367-51.949 116.047zm-40.359-.027-47.607 88.765-29.421-75.263c-22.153-56.669 4.145-120.199 59.869-144.633l5.278-2.314c-6.986 16.203-10.865 34.049-10.865 52.786 0 20.432 4.543 40.08 13.503 58.402 3.632 7.427 6.738 14.745 9.361 22.064-.039.067-.082.126-.118.193zm140.305 138.853c-10.244 0-19.956-3.938-27.292-10.699 8.197-5.231 17.276-8.09 26.676-8.234 9.844-.158 19.49 2.588 28.348 7.886-7.376 7.037-17.205 11.047-27.732 11.047zm.947-78.117c-4.313-2.838-11.032-10.095-13.917-14.958 2.421-1.359 7.138-3.039 13.917-3.039s11.495 1.68 13.917 3.039c-2.885 4.864-9.604 12.12-13.917 14.958zm85.344 72.071c-6.769 2.491-14.549-5.06-18.583-9.785-16.098-18.855-37.447-30.452-59.665-32.698 8.741-2.74 16.841-9.883 22.582-16.101 5.723-6.199 15.322-18.288 15.322-29.607 0-18.172-19.346-31.875-45-31.875s-45 13.703-45 31.875c0 11.319 9.6 23.408 15.322 29.607 5.658 6.128 13.606 13.151 22.2 15.977-22.836 1.906-43.824 13.54-59.575 33.177-5.569 6.942-11.213 9.473-16.773 7.518-7.88-2.771-16.256-14.675-16.256-31.282l.051-34.646c0-16.949 6.42-31.258 19.083-42.527 40.563-36.104 62.004-83.98 62.004-138.456v-68.405h37.855v68.402c0 54.475 21.44 102.352 62.004 138.456 12.663 11.27 19.083 25.578 19.083 42.527l.084 34.646c0 17.377-7.493 30.525-14.738 33.197zm132.87-119.305-29.421 75.263s0 0 .001.002l-47.671-88.92c2.626-7.332 5.735-14.663 9.374-22.103 8.96-18.321 13.503-37.971 13.503-58.402 0-18.727-3.875-36.564-10.854-52.76l5.2 2.289c55.723 24.432 82.02 87.961 59.868 144.631z"/><circle cx="171.589" cy="205.329" r="15"/><path d="m340.589 190.329c-8.261 0-15 6.738-15 15s6.738 15 15 15 15-6.738 15-15-6.738-15-15-15z"/></g></svg>