<svg id="Layer_1" enable-background="new 0 0 512 512" height="512" viewBox="0 0 512 512" width="512" xmlns="http://www.w3.org/2000/svg"><path d="m455 194.905v-69.406c0-40.803-33.196-73.999-74-73.999h-250.001c-40.803 0-73.999 33.196-73.999 73.999v69.406c-32.742 8.459-57 38.247-57 73.595v82c0 19.555 12.541 36.228 30 42.42v28.462c0 21.569 17.549 39.118 39.118 39.118h44.764c21.569 0 39.118-17.549 39.118-39.118v-25.882h206v25.882c0 21.569 17.549 39.118 39.118 39.118h44.764c21.569 0 39.118-17.549 39.118-39.118v-28.462c17.459-6.192 30-22.865 30-42.42v-82c0-35.348-24.258-65.136-57-73.595zm27 114.095h-51.982c5.238-16.425 20.123-28.72 38.127-29.906 3.895-.253 6.895.818 9.739 3.481 2.847 2.665 4.116 5.592 4.116 9.49zm-351.001-227.5h250.001c24.262 0 44 19.738 44 43.999v67.001h-338v-67.001c0-24.261 19.738-43.999 43.999-43.999zm-96.884 201.076c2.846-2.665 5.846-3.738 9.739-3.482 18.005 1.187 32.89 13.481 38.128 29.906h-51.982v-16.935c0-3.898 1.27-6.825 4.115-9.489zm88.885 138.806c0 4.942-4.176 9.118-9.118 9.118h-44.764c-4.942 0-9.118-4.176-9.118-9.118v-25.882h63zm59-55.882v-42c0-13.785 11.215-25 25-25h98c13.785 0 25 11.215 25 25v42zm260.882 65h-44.764c-4.942 0-9.118-4.176-9.118-9.118v-25.882h63v25.882c0 4.942-4.176 9.118-9.118 9.118zm24.118-65h-107v-42c0-30.327-24.673-55-55-55h-98c-30.327 0-55 24.673-55 55v42h-107c-8.271 0-15-6.729-15-15v-11.5h69c8.284 0 15-6.716 15-15v-2c0-38.326-29.945-70.322-68.173-72.842-4.106-.272-8.092.016-11.919.819 7.141-16.163 23.316-27.477 42.092-27.477h360c18.777 0 34.953 11.315 42.093 27.48-3.828-.803-7.814-1.091-11.921-.821-38.228 2.519-68.172 34.515-68.172 72.841v2c0 8.284 6.716 15 15 15h69v11.5c0 8.271-6.729 15-15 15z"/></svg>