<svg id="Layer_1" enable-background="new 0 0 512 512" height="512" viewBox="0 0 512 512" width="512" xmlns="http://www.w3.org/2000/svg"><g><path d="m453.833 404.89c-2.917-19.358-5.902-44.242-8.789-68.307-2.909-24.251-5.917-49.328-8.896-69.107-3.144-20.877-13.578-39.738-29.381-53.108-4.05-3.427-8.412-6.446-13.01-9.053 24.398-14.865 40.724-41.723 40.724-72.323 0-23.43-9.575-44.662-25.013-60 .848-4.061 1.278-8.21 1.278-12.382 0-33.422-27.189-60.61-60.608-60.61s-60.608 27.188-60.608 60.608c0 4.021.406 8.012 1.192 11.927-15.713 15.373-25.491 36.789-25.491 60.456 0 30.597 16.323 57.452 40.717 72.318-4.609 2.613-8.982 5.642-13.041 9.08-15.793 13.377-26.219 32.234-29.357 53.098-2.973 19.758-5.975 44.806-8.878 69.029-2.888 24.089-5.873 48.998-8.792 68.373-.65 4.319.614 8.708 3.464 12.019 2.85 3.312 7.001 5.216 11.369 5.216h28v74.876c0 8.284 6.716 15 15 15h92c8.284 0 15-6.716 15-15v-74.876h28.287c4.368 0 8.52-1.904 11.369-5.216 2.85-3.31 4.114-7.699 3.464-12.018zm-120.103-178.912c5.087-1.395 10.483-2.141 16.097-2.141 5.636 0 11.05.75 16.154 2.153-.007.189-.028.373-.028.564v8.35c0 8.876-7.221 16.097-16.097 16.097s-16.098-7.221-16.098-16.097v-8.35c.001-.195-.021-.384-.028-.576zm2.737-145.946c-.684 1.372-1.178 2.861-1.417 4.448-2.27 15.069-15.501 26.433-30.776 26.433-1.419 0-2.831-.108-4.229-.3 6.779-15.03 20.153-26.466 36.422-30.581zm63.207 30.595c-1.382.186-2.779.285-4.183.285-15.274 0-28.506-11.363-30.776-26.433-.238-1.581-.73-3.065-1.41-4.434 16.247 4.13 29.6 15.564 36.369 30.582zm-95.401 30.285c14.722 0 28.946-5.31 40.054-14.951 1.976-1.715 3.83-3.546 5.556-5.479 1.725 1.934 3.58 3.765 5.555 5.479 11.107 9.642 25.332 14.951 40.054 14.951 2.849 0 5.683-.224 8.488-.618-3.582 26.678-26.48 47.323-54.123 47.323-27.646 0-50.546-20.649-54.125-47.332 2.824.4 5.676.627 8.541.627zm45.865-110.912c14.586 0 26.813 10.258 29.867 23.937-9.372-3.587-19.531-5.571-30.149-5.571-10.383 0-20.33 1.889-29.53 5.326 3.145-13.556 15.313-23.692 29.812-23.692zm30.574 452h-62v-59.876h62zm-102.727-89.876c2.178-16.205 4.352-34.34 6.473-52.037 2.876-24.004 5.852-48.824 8.757-68.137 1.557-10.346 5.659-19.545 11.645-27.065 4.574 20.633 23.006 36.115 44.996 36.115 21.983 0 40.409-15.472 44.991-36.095 5.98 7.514 10.079 16.703 11.635 27.037 2.911 19.334 5.893 44.184 8.775 68.214 2.12 17.673 4.293 35.783 6.469 51.968z"/><path d="m191.007 300.732c-.017-.018-.037-.033-.054-.051-4.217-4.351-9.801-7.369-16.056-8.341 12.579-12.158 20.424-29.185 20.424-48.02 0-36.845-29.976-66.82-66.82-66.82-36.846 0-66.821 29.976-66.821 66.82 0 18.835 7.845 35.862 20.424 48.02-13.636 2.121-24.104 13.94-24.104 28.16v81c0 11.294 6.603 21.074 16.151 25.683v69.817c0 8.284 6.716 15 15 15h78.696c8.284 0 15-6.716 15-15v-69.816c9.549-4.609 16.153-14.39 16.153-25.684v-81c0-7.636-3.025-14.576-7.932-19.698-.022-.022-.04-.047-.061-.07zm-22.007 99.268h-81v-58.083l29.93 29.726c2.923 2.903 6.745 4.357 10.571 4.357 3.75 0 7.503-1.398 10.41-4.202l30.089-29.011zm-58.482-78h36.82l-18.683 18.014zm17.982-114.5c20.303 0 36.82 16.518 36.82 36.82 0 20.304-16.518 36.821-36.82 36.821-20.304 0-36.821-16.518-36.821-36.821 0-20.302 16.517-36.82 36.821-36.82zm-24.349 274.5v-52h48.696v52z"/></g></svg>