<?xml version="1.0" encoding="iso-8859-1"?>
<!-- Generator: Adobe Illustrator 19.0.0, SVG Export Plug-In . SVG Version: 6.00 Build 0)  -->
<svg version="1.1" id="Capa_1" xmlns="http://www.w3.org/2000/svg" xmlns:xlink="http://www.w3.org/1999/xlink" x="0px" y="0px"
	 viewBox="0 0 512.001 512.001" style="enable-background:new 0 0 512.001 512.001;" xml:space="preserve">
<g>
	<g>
		<path d="M436.626,116.096L264.255,2.476c-5.008-3.301-11.502-3.301-16.51,0L75.374,116.096
			c-21.277,2.461-37.853,20.579-37.853,42.505c0,18.324,11.578,33.989,27.8,40.08v268.307c0,24.82,20.193,45.013,45.014,45.013
			h291.332c24.82,0,45.014-20.192,45.014-45.013V198.681c16.22-6.091,27.798-21.757,27.798-40.08
			C474.479,136.675,457.903,118.558,436.626,116.096z M256,32.966l125.668,82.835H130.332L256,32.966z M110.333,482
			c-8.277,0-15.013-6.734-15.013-15.013V201.4h143.958c-5.448,46.38-24.066,181.584-65.383,280.6H110.333z M206.257,482
			c23.812-60.805,39.681-131.195,49.743-187.906c10.062,56.712,25.931,127.102,49.744,187.906H206.257z M416.68,466.987
			c0,8.279-6.736,15.013-15.014,15.013h-63.562c-41.286-98.95-59.924-234.206-65.38-280.6H416.68V466.987z M431.68,171.4H80.32
			c-7.058,0-12.8-5.742-12.8-12.8s5.742-12.8,12.8-12.8h351.36c7.058,0,12.8,5.742,12.8,12.8S438.737,171.4,431.68,171.4z"/>
	</g>
</g>
<g>
</g>
<g>
</g>
<g>
</g>
<g>
</g>
<g>
</g>
<g>
</g>
<g>
</g>
<g>
</g>
<g>
</g>
<g>
</g>
<g>
</g>
<g>
</g>
<g>
</g>
<g>
</g>
<g>
</g>
</svg>
