<?xml version="1.0" encoding="iso-8859-1"?>
<!-- Generator: Adobe Illustrator 19.0.0, SVG Export Plug-In . SVG Version: 6.00 Build 0)  -->
<svg version="1.1" id="Capa_1" xmlns="http://www.w3.org/2000/svg" xmlns:xlink="http://www.w3.org/1999/xlink" x="0px" y="0px"
	 viewBox="0 0 512 512" style="enable-background:new 0 0 512 512;" xml:space="preserve">
<g>
	<g>
		<path d="M455.904,251.006c0-4.515-2.034-8.79-5.537-11.638l-31.314-25.463l31.314-25.461c3.503-2.849,5.537-7.124,5.537-11.639
			s-2.034-8.79-5.537-11.638l-31.314-25.463l31.314-25.461c4.925-4.006,6.796-10.678,4.671-16.66s-7.786-9.979-14.135-9.979H166.132
			c4.808-8.519,7.566-18.342,7.566-28.803C173.698,26.379,147.32,0,114.896,0C82.472,0,56.093,26.379,56.093,58.803
			c0,15.598,6.116,29.786,16.062,40.322V469.26c0,23.567,19.174,42.74,42.741,42.74c23.567,0,42.741-19.173,42.741-42.74V340.205
			h283.268c6.349,0,12.009-3.996,14.135-9.979c2.125-5.982,0.254-12.654-4.671-16.66l-31.313-25.461l31.313-25.462
			C453.87,259.796,455.904,255.521,455.904,251.006z M127.637,469.26c0,7.025-5.715,12.74-12.741,12.74
			c-7.026,0-12.741-5.715-12.741-12.74V116.199c4.105,0.911,8.365,1.406,12.741,1.406c4.375,0,8.635-0.495,12.741-1.406V469.26z
			 M114.896,87.606c-15.882,0-28.803-12.921-28.803-28.803C86.093,42.921,99.014,30,114.896,30
			c15.882,0,28.802,12.921,28.802,28.803C143.698,74.685,130.778,87.606,114.896,87.606z M385.814,225.543l31.314,25.463
			l-31.314,25.461c-3.503,2.849-5.537,7.124-5.537,11.639s2.034,8.79,5.537,11.639l12.866,10.461H160.113v-192.6H398.68
			l-12.866,10.461c-3.503,2.849-5.537,7.124-5.537,11.639s2.034,8.79,5.537,11.638l31.314,25.463l-31.314,25.461
			c-3.503,2.849-5.537,7.124-5.537,11.639C380.277,218.422,382.311,222.695,385.814,225.543z"/>
	</g>
</g>
<g>
	<g>
		<path d="M336.254,198.905h-36.225V162.68c0-8.284-6.716-15-15-15s-15,6.716-15,15v36.225h-36.224c-8.284,0-15,6.716-15,15
			s6.716,15,15,15h36.224v36.225c0,8.284,6.716,15,15,15s15-6.716,15-15v-36.225h36.225c8.284,0,15-6.716,15-15
			S344.538,198.905,336.254,198.905z"/>
	</g>
</g>
<g>
</g>
<g>
</g>
<g>
</g>
<g>
</g>
<g>
</g>
<g>
</g>
<g>
</g>
<g>
</g>
<g>
</g>
<g>
</g>
<g>
</g>
<g>
</g>
<g>
</g>
<g>
</g>
<g>
</g>
</svg>
