<?xml version="1.0" encoding="iso-8859-1"?>
<!-- Generator: Adobe Illustrator 19.0.0, SVG Export Plug-In . SVG Version: 6.00 Build 0)  -->
<svg version="1.1" id="Capa_1" xmlns="http://www.w3.org/2000/svg" xmlns:xlink="http://www.w3.org/1999/xlink" x="0px" y="0px"
	 viewBox="0 0 512.001 512.001" style="enable-background:new 0 0 512.001 512.001;" xml:space="preserve">
<g>
	<g>
		<path d="M313.882,220.042H271v-50.464c0-8.284-6.716-15-15-15s-15,6.716-15,15v50.464h-42.881c-8.284,0-15,6.716-15,15
			s6.716,15,15,15H241v113.439c0,8.284,6.716,15,15,15s15-6.716,15-15V250.042h42.882c8.284,0,15-6.716,15-15
			S322.166,220.042,313.882,220.042z"/>
	</g>
</g>
<g>
	<g>
		<path d="M499.459,85.626L418.232,4.399c-2.813-2.813-6.627-4.394-10.605-4.394L314.75,0c-3.979,0-7.794,1.58-10.607,4.394
			c-2.813,2.813-4.394,6.628-4.394,10.606v27.789c-13.312,7.478-28.289,11.398-43.75,11.398c-15.459,0-30.436-3.921-43.748-11.398
			V15c0-3.979-1.581-7.794-4.394-10.606C205.044,1.58,201.229,0,197.251,0l-92.877,0.006c-3.978,0-7.793,1.58-10.605,4.394
			L12.541,85.626c-16.693,16.693-16.692,43.855,0.001,60.549c6.376,6.377,16.855,11.417,74.285,3.136
			c5.099-0.734,10.136-1.513,14.964-2.294l-40.609,51.517c-2.18,2.766-3.317,6.21-3.213,9.729
			c0.182,6.137,4.914,151.92,45.513,292.889c1.85,6.424,7.729,10.849,14.414,10.849h276.211c6.686,0,12.564-4.425,14.414-10.849
			c40.599-140.969,45.331-286.752,45.513-292.889c0.104-3.52-1.034-6.964-3.213-9.729l-40.609-51.517
			c4.829,0.781,9.866,1.56,14.965,2.294c57.429,8.28,67.908,3.241,74.285-3.136C516.152,129.481,516.152,102.319,499.459,85.626z
			 M382.74,482H129.261c-2.393-8.733-4.646-17.487-6.773-26.225h267.025C387.386,464.512,385.133,473.267,382.74,482z
			 M479.66,123.283c-4.041,0.601-17.313,1.309-55.109-4.389c-24.752-3.731-47.405-8.332-47.631-8.379
			c-6.173-1.251-12.466,1.472-15.767,6.831c-3.302,5.359-2.906,12.21,0.99,17.153l61.684,78.252
			c-1.036,22.668-6.321,113.689-27.475,213.023H115.648C94.494,326.441,89.21,235.42,88.173,212.752l61.684-78.252
			c3.896-4.943,4.292-11.794,0.99-17.153c-3.302-5.359-9.597-8.082-15.767-6.831c-0.226,0.047-22.879,4.647-47.631,8.379
			c-37.797,5.698-51.067,4.989-55.109,4.389c-3.526-4.998-3.055-11.975,1.414-16.444l76.833-76.833l71.664-0.005v21.122
			c0,4.963,2.455,9.604,6.557,12.398c19.854,13.52,43.088,20.666,67.192,20.666c24.103,0,47.337-7.146,67.19-20.666
			c4.102-2.794,6.557-7.436,6.557-12.398V30.001l71.664,0.005l76.833,76.833C482.715,111.309,483.187,118.285,479.66,123.283z"/>
	</g>
</g>
<g>
</g>
<g>
</g>
<g>
</g>
<g>
</g>
<g>
</g>
<g>
</g>
<g>
</g>
<g>
</g>
<g>
</g>
<g>
</g>
<g>
</g>
<g>
</g>
<g>
</g>
<g>
</g>
<g>
</g>
</svg>
