<?xml version="1.0" encoding="iso-8859-1"?>
<!-- Generator: Adobe Illustrator 19.0.0, SVG Export Plug-In . SVG Version: 6.00 Build 0)  -->
<svg version="1.1" id="Capa_1" xmlns="http://www.w3.org/2000/svg" xmlns:xlink="http://www.w3.org/1999/xlink" x="0px" y="0px"
	 viewBox="0 0 512 512" style="enable-background:new 0 0 512 512;" xml:space="preserve">
<g>
	<g>
		<path d="M388.002,280.844c-20.827-26.115-49.183-45.59-80.769-55.68v-56.902c16.482-7.344,28.006-23.871,28.006-43.048
			c0-19.178-11.525-35.705-28.007-43.05V15c0-8.284-6.716-15-15-15h-72.464c-8.284,0-15,6.716-15,15v67.269
			c-16.358,7.396-27.775,23.856-27.775,42.945c0,19.087,11.417,35.548,27.775,42.944v57.007
			c-31.586,10.09-59.942,29.564-80.769,55.68c-23.695,29.712-36.745,67.046-36.745,105.125c0,46.442,18.473,89.719,52.017,121.858
			c2.792,2.675,6.51,4.169,10.377,4.169l212.7,0.003c3.867,0,7.585-1.493,10.377-4.169c33.546-32.14,52.021-75.418,52.021-121.862
			C424.747,347.891,411.697,310.556,388.002,280.844z M234.769,30h42.464v48.101h-42.464V30z M224.107,108.101h64.02
			c9.436,0,17.113,7.677,17.113,17.113s-7.677,17.112-17.113,17.112h-64.02c-9.436,0-17.113-7.677-17.113-17.112
			C206.994,115.777,214.671,108.101,224.107,108.101z M356.148,482l-200.297-0.004c-24.934-25.941-38.596-59.815-38.596-96.027
			c0-64.319,43.604-119.776,106.036-134.86c6.734-1.626,11.478-7.652,11.478-14.58v-60.083h42.464v60.083
			c0,6.928,4.744,12.954,11.478,14.58c62.433,15.084,106.036,70.541,106.036,134.86C394.747,422.183,381.083,456.058,356.148,482z"
			/>
	</g>
</g>
<g>
</g>
<g>
</g>
<g>
</g>
<g>
</g>
<g>
</g>
<g>
</g>
<g>
</g>
<g>
</g>
<g>
</g>
<g>
</g>
<g>
</g>
<g>
</g>
<g>
</g>
<g>
</g>
<g>
</g>
</svg>
