<?xml version="1.0" encoding="iso-8859-1"?>
<!-- Generator: Adobe Illustrator 19.0.0, SVG Export Plug-In . SVG Version: 6.00 Build 0)  -->
<svg version="1.1" id="Capa_1" xmlns="http://www.w3.org/2000/svg" xmlns:xlink="http://www.w3.org/1999/xlink" x="0px" y="0px"
	 viewBox="0 0 512 512" style="enable-background:new 0 0 512 512;" xml:space="preserve">
<g>
	<g>
		<path d="M497,232.818H169.273v-85.07c0-3.993-1.592-7.821-4.424-10.637L99.637,72.266V50.09h0.747c8.284,0,15-6.716,15-15
			c0-8.284-6.716-15-15-15h-0.747v-2.648c0-8.284-6.716-15-15-15s-15,6.716-15,15v2.648H68.89c-8.284,0-15,6.716-15,15
			c0,8.284,6.716,15,15,15h0.747v22.177L4.424,137.112C1.592,139.928,0,143.756,0,147.748v346.81c0,8.284,6.716,15,15,15h482
			c8.284,0,15-6.716,15-15v-246.74C512,239.535,505.284,232.818,497,232.818z M84.637,99.658l37.933,37.72H46.704L84.637,99.658z
			 M139.273,479.559H30V167.378h109.273V479.559z M338.345,479.558h-42.438v-28.412c0-11.7,9.519-21.219,21.219-21.219
			c11.7,0,21.219,9.519,21.219,21.219V479.558z M482,479.558H368.345v-28.411c0-28.242-22.977-51.219-51.219-51.219
			s-51.219,22.977-51.219,51.219v28.412h-96.634V333.322h36.667v28.102c0,8.284,6.716,15,15,15s15-6.716,15-15v-28.102h32.34v28.102
			c0,8.284,6.716,15,15,15s15-6.716,15-15v-28.102h32.34v28.102c0,8.284,6.716,15,15,15s15-6.716,15-15v-28.102h32.339v28.102
			c0,8.284,6.716,15,15,15s15-6.716,15-15v-28.102H482V479.558z M482,303.322H169.273v-40.503H482V303.322z"/>
	</g>
</g>
<g>
	<g>
		<path d="M84.637,222.623c-8.284,0-15,6.716-15,15v18.896c0,8.284,6.716,15,15,15s15-6.716,15-15v-18.896
			C99.637,229.339,92.921,222.623,84.637,222.623z"/>
	</g>
</g>
<g>
</g>
<g>
</g>
<g>
</g>
<g>
</g>
<g>
</g>
<g>
</g>
<g>
</g>
<g>
</g>
<g>
</g>
<g>
</g>
<g>
</g>
<g>
</g>
<g>
</g>
<g>
</g>
<g>
</g>
</svg>
