<?xml version="1.0" encoding="iso-8859-1"?>
<!-- Generator: Adobe Illustrator 19.0.0, SVG Export Plug-In . SVG Version: 6.00 Build 0)  -->
<svg version="1.1" id="Capa_1" xmlns="http://www.w3.org/2000/svg" xmlns:xlink="http://www.w3.org/1999/xlink" x="0px" y="0px"
	 viewBox="0 0 512 512" style="enable-background:new 0 0 512 512;" xml:space="preserve">
<g>
	<g>
		<path d="M469.186,117.636c-20.274,0-37.29,14.17-41.695,33.123C304.378,212.468,71.865,208.92,69.487,208.884
			c-0.057-0.001-0.114-0.001-0.171-0.002C56.631,192.823,37.006,182.486,15,182.486c-8.284,0-15,6.716-15,15v108.417
			c0,8.284,6.716,15,15,15c21.979,0,41.583-10.311,54.27-26.337c0.073-0.001,0.144,0.008,0.217,0.006
			c0.75-0.014,24.338-0.375,60.143,1.066v53.726c0,24.813,20.187,45,45,45h73.719c24.813,0,45-20.187,45-45v-36.98
			c48.482,8.635,96.451,21.418,134.159,40.322c4.432,18.916,21.43,33.048,41.678,33.048c23.608,0,42.814-19.206,42.814-42.814
			V160.451C512,136.843,492.793,117.636,469.186,117.636z M30,287.921v-72.452c14.199,5.901,24.208,19.917,24.208,36.227
			S44.199,282.021,30,287.921z M263.349,349.364c0,8.271-6.729,15-15,15H174.63c-8.271,0-15-6.729-15-15v-52.213
			c30.787,1.869,66.812,5.041,103.719,10.398V349.364z M426.37,319.039c-52.997-23.331-125.8-39.518-216.946-48.191
			c-56.3-5.358-103.813-6.262-126.425-6.339c0.781-4.155,1.208-8.434,1.208-12.812c0.001-4.358-0.422-8.615-1.196-12.75
			c22.614-0.078,70.115-0.98,126.414-6.337c91.145-8.673,163.949-24.86,216.945-48.191V319.039z M482,342.939
			c0,7.066-5.749,12.814-12.814,12.814c-7.05,0-12.787-5.723-12.813-12.769c0-0.022-0.002-0.043-0.002-0.065V160.536
			c0-0.033,0.001-0.066,0.001-0.1c0.008-7.06,5.753-12.801,12.814-12.801c7.066,0,12.814,5.749,12.814,12.815V342.939z"/>
	</g>
</g>
<g>
</g>
<g>
</g>
<g>
</g>
<g>
</g>
<g>
</g>
<g>
</g>
<g>
</g>
<g>
</g>
<g>
</g>
<g>
</g>
<g>
</g>
<g>
</g>
<g>
</g>
<g>
</g>
<g>
</g>
</svg>
