<?xml version="1.0" encoding="iso-8859-1"?>
<!-- Generator: Adobe Illustrator 19.0.0, SVG Export Plug-In . SVG Version: 6.00 Build 0)  -->
<svg version="1.1" id="Capa_1" xmlns="http://www.w3.org/2000/svg" xmlns:xlink="http://www.w3.org/1999/xlink" x="0px" y="0px"
	 viewBox="0 0 512 512" style="enable-background:new 0 0 512 512;" xml:space="preserve">
<g>
	<g>
		<path d="M498.207,129.413c-18.391-18.392-48.316-18.394-66.708,0c-17.034,17.034-18.279,43.958-3.757,62.453
			c-20.812,14.249-56.865,43.069-86.313,87.981c-6.863-47.282-21.847-84.949-34.962-110.599
			c-8.563-16.747-17.15-30.12-24.131-39.904c2.468-1.664,4.817-3.578,7-5.76c8.904-8.904,13.808-20.742,13.808-33.335
			c0-12.593-4.904-24.431-13.808-33.335c-18.381-18.381-48.289-18.382-66.67,0c-18.381,18.381-18.381,48.289,0,66.67
			c2.182,2.182,4.53,4.096,6.999,5.76c-6.983,9.783-15.568,23.155-24.131,39.902c-13.125,25.669-28.12,63.364-34.977,110.697
			c-29.499-44.955-65.524-73.802-86.311-88.062c14.534-18.495,13.295-45.428-3.744-62.467c-8.909-8.909-20.754-13.815-33.354-13.815
			s-24.445,4.906-33.354,13.815c-18.392,18.392-18.392,48.316,0,66.707c8.909,8.909,20.754,13.815,33.354,13.815
			c0.96,0,1.914-0.038,2.865-0.095c10.086,27.31,37.497,107.07,40.8,175.283c-17.494,5.384-30.246,21.695-30.246,40.932
			c0,23.61,19.209,42.818,42.819,42.818H408.62c23.61,0,42.819-19.208,42.819-42.818c0-19.239-12.755-35.551-30.253-40.934
			c3.304-68.233,30.731-148.019,40.809-175.304c0.951,0.057,1.904,0.096,2.857,0.096c12.079,0,24.158-4.598,33.354-13.794
			C516.598,177.729,516.598,147.804,498.207,129.413z M59.287,174.905c-3.242,3.242-7.553,5.027-12.138,5.027
			c-4.585,0-8.897-1.785-12.139-5.027c-6.694-6.693-6.694-17.585-0.001-24.277c3.242-3.242,7.554-5.027,12.139-5.027
			s8.897,1.785,12.139,5.027C65.979,157.32,65.979,168.212,59.287,174.905z M243.881,78.129c3.341-3.341,7.731-5.012,12.12-5.012
			c4.389,0,8.779,1.671,12.12,5.012c3.237,3.237,5.02,7.542,5.02,12.12c0,4.578-1.783,8.883-5.02,12.12
			c-6.683,6.683-17.557,6.683-24.24,0C237.198,95.686,237.198,84.812,243.881,78.129z M421.438,426.057
			c0,7.066-5.748,12.815-12.816,12.815H103.387c-7.067,0-12.816-5.75-12.816-12.815s5.75-12.815,12.816-12.815h2.76h299.707h2.767
			C415.688,413.242,421.438,418.991,421.438,426.057z M391.235,383.238H120.766c-2.605-52.68-18.05-110.061-30.471-148.742
			c25.153,21.441,57.365,55.907,77.666,103.948c2.777,6.574,9.802,10.281,16.797,8.863c6.995-1.417,12.022-7.566,12.022-14.702
			c0-65.861,18.994-117.182,34.926-148.639c8.799-17.37,17.668-30.788,24.296-39.818c19.689,26.856,59.216,92.71,59.216,188.458
			c0,7.143,5.035,13.294,12.037,14.705c6.998,1.408,14.026-2.308,16.793-8.894c20.212-48.096,52.49-82.582,77.682-104.01
			C409.307,273.09,393.843,330.512,391.235,383.238z M476.992,174.905c-6.693,6.694-17.583,6.695-24.278,0
			c-6.693-6.693-6.693-17.585,0-24.277c3.347-3.347,7.743-5.02,12.139-5.02s8.793,1.673,12.139,5.02
			C483.685,157.32,483.685,168.212,476.992,174.905z"/>
	</g>
</g>
<g>
</g>
<g>
</g>
<g>
</g>
<g>
</g>
<g>
</g>
<g>
</g>
<g>
</g>
<g>
</g>
<g>
</g>
<g>
</g>
<g>
</g>
<g>
</g>
<g>
</g>
<g>
</g>
<g>
</g>
</svg>
