<?xml version="1.0" encoding="iso-8859-1"?>
<!-- Generator: Adobe Illustrator 19.0.0, SVG Export Plug-In . SVG Version: 6.00 Build 0)  -->
<svg version="1.1" id="Capa_1" xmlns="http://www.w3.org/2000/svg" xmlns:xlink="http://www.w3.org/1999/xlink" x="0px" y="0px"
	 viewBox="0 0 512 512" style="enable-background:new 0 0 512 512;" xml:space="preserve">
<g>
	<g>
		<path d="M331.452,181.681h-15.64l2.265-36.063h13.375v0.001c8.284,0,15-6.716,15-15s-6.716-15-15-15h-11.49l2.265-36.063h9.224
			c8.284,0,15-6.716,15-15s-6.716-15-15-15H320.66C312.952,21.044,286.872,0,255.957,0c-30.915,0-56.995,21.044-64.703,49.556
			h-10.705c-8.284,0-15,6.716-15,15s6.716,15,15,15h9.138l2.265,36.063h-11.403c-8.284,0-15,6.716-15,15s6.716,15,15,15h13.287
			l2.265,36.063h-15.553c-8.284,0-15,6.716-15,15s6.716,15,15,15h17.437l16.279,259.146c0.28,22.75,18.876,41.172,41.693,41.172
			c22.817,0,41.413-18.422,41.692-41.173l16.279-259.146h17.524c8.284,0,15-6.716,15-15S339.736,181.681,331.452,181.681z
			 M267.682,469.365c-0.02,0.313-0.03,0.626-0.03,0.94c0,6.449-5.247,11.695-11.696,11.695c-6.449,0-11.696-5.246-11.696-11.695
			c0-0.313-0.01-0.627-0.029-0.94l-25.3-402.768C219.164,46.378,235.684,30,255.957,30c20.273,0,36.792,16.378,37.025,36.597
			L267.682,469.365z"/>
	</g>
</g>
<g>
	<g>
		<path d="M262.02,49.556h-12.04c-8.284,0-15,6.716-15,15s6.716,15,15,15h12.039c8.284,0,15-6.716,15-15
			S270.304,49.556,262.02,49.556z"/>
	</g>
</g>
<g>
	<g>
		<path d="M262.02,112.68h-12.04c-8.284,0-15,6.716-15,15s6.716,15,15,15h12.039c8.284,0,15-6.716,15-15
			S270.304,112.68,262.02,112.68z"/>
	</g>
</g>
<g>
	<g>
		<path d="M262.02,175.803h-12.04c-8.284,0-15,6.716-15,15s6.716,15,15,15h12.039c8.284,0,15-6.716,15-15
			S270.304,175.803,262.02,175.803z"/>
	</g>
</g>
<g>
</g>
<g>
</g>
<g>
</g>
<g>
</g>
<g>
</g>
<g>
</g>
<g>
</g>
<g>
</g>
<g>
</g>
<g>
</g>
<g>
</g>
<g>
</g>
<g>
</g>
<g>
</g>
<g>
</g>
</svg>
