<?xml version="1.0" encoding="iso-8859-1"?>
<!-- Generator: Adobe Illustrator 19.0.0, SVG Export Plug-In . SVG Version: 6.00 Build 0)  -->
<svg version="1.1" id="Capa_1" xmlns="http://www.w3.org/2000/svg" xmlns:xlink="http://www.w3.org/1999/xlink" x="0px" y="0px"
	 viewBox="0 0 512 512" style="enable-background:new 0 0 512 512;" xml:space="preserve">
<g>
	<g>
		<path d="M390.053,419.878L288.528,171.401c-2.305-5.641-7.793-9.327-13.886-9.327h-26.324V51.3l26.207-25.561
			c5.931-5.785,6.049-15.281,0.265-21.211c-5.784-5.931-15.281-6.05-21.212-0.265l-11.009,10.738l-9.25,9.023l-9.251-9.023
			l-11.01-10.739c-5.932-5.784-15.428-5.666-21.212,0.265c-5.784,5.931-5.666,15.427,0.265,21.211L218.318,51.3v110.774h-40.615
			v-42.367l26.207-25.561c5.931-5.784,6.049-15.281,0.265-21.211c-5.783-5.931-15.28-6.05-21.212-0.265l-11.009,10.738l-9.251,9.023
			l-9.251-9.023l-11.01-10.739c-5.931-5.784-15.428-5.667-21.212,0.265c-5.784,5.931-5.666,15.427,0.265,21.211l26.209,25.562
			v42.367h-15.735c-8.284,0-15,6.716-15,15V462.7c0,27.184,22.116,49.3,49.3,49.3h74.075c16.297,0,30.771-7.948,39.753-20.172
			c12.53,12.46,29.791,20.172,48.818,20.172c0.79,0,1.578-0.014,2.372-0.04c21.727-0.734,41.019-11.705,52.928-30.101
			C396.178,463.381,398.361,440.21,390.053,419.878z M146.968,192.074h112.674v21.171H146.968V192.074z M259.643,462.7
			c-0.001,10.642-8.659,19.3-19.3,19.3h-74.075c-10.642,0-19.3-8.658-19.3-19.3V243.245h112.675V462.7z M359.033,465.556
			c-6.5,10.038-16.982,16.023-28.75,16.421c-0.454,0.016-0.91,0.023-1.368,0.023c-21.655,0-39.272-17.617-39.272-39.271V253.444
			l72.64,177.782C366.949,442.646,365.764,455.159,359.033,465.556z"/>
	</g>
</g>
<g>
</g>
<g>
</g>
<g>
</g>
<g>
</g>
<g>
</g>
<g>
</g>
<g>
</g>
<g>
</g>
<g>
</g>
<g>
</g>
<g>
</g>
<g>
</g>
<g>
</g>
<g>
</g>
<g>
</g>
</svg>
