<?xml version="1.0" encoding="iso-8859-1"?>
<!-- Generator: Adobe Illustrator 19.0.0, SVG Export Plug-In . SVG Version: 6.00 Build 0)  -->
<svg version="1.1" id="Capa_1" xmlns="http://www.w3.org/2000/svg" xmlns:xlink="http://www.w3.org/1999/xlink" x="0px" y="0px"
	 viewBox="0 0 512.001 512.001" style="enable-background:new 0 0 512.001 512.001;" xml:space="preserve">
<g>
	<g>
		<path d="M449.203,127.803c0.712-6.194,0.719-12.464-0.04-18.759c-1.343-11.144-4.913-21.67-10.612-31.284
			c-13.558-22.874-37.534-37.454-63.732-39.178C346.828,10.148,307.143-3.869,267.341,0.926
			C201.301,8.88,152.823,65.66,153.702,130.735c-3.647,2.736-6.017,7.082-6.017,11.992v64.589l-49.536,0.431
			c-26.939,0.222-48.856,22.32-48.856,49.259v136.85c0,13.234,5.175,25.657,14.572,34.977c9.298,9.221,21.596,14.283,34.675,14.283
			c0.139,0,0.28,0,0.419-0.002c0.002,0,0.004,0,0.007,0l48.719-0.424v20.049c0,27.163,22.099,49.261,49.261,49.261h216.502
			c27.162,0,49.26-22.098,49.26-49.261V142.727C462.708,134.948,456.785,128.554,449.203,127.803z M147.684,412.689l-48.973,0.426
			c-0.055,0-0.108,0-0.164,0c-5.112,0-9.921-1.979-13.556-5.584c-3.674-3.644-5.697-8.5-5.697-13.675V257.006
			c0-10.533,8.568-19.172,19.108-19.259l49.282-0.429V412.689z M270.929,30.712c32.257-3.889,64.413,8.328,86.022,32.671
			c2.922,3.293,7.149,5.144,11.545,5.039c0.363-0.008,0.724-0.012,1.087-0.012c17.643,0,34.107,9.372,43.161,24.647
			c3.562,6.007,5.793,12.593,6.634,19.573c0.613,5.085,0.448,10.141-0.466,15.097H183.702
			C184.338,78.882,221.128,36.71,270.929,30.712z M432.708,462.739c0,10.62-8.64,19.26-19.259,19.26H196.946
			c-10.62,0-19.26-8.64-19.26-19.26v-35.181v-269.83h255.022V462.739z"/>
	</g>
</g>
<g>
	<g>
		<path d="M251.244,309.872c-8.284,0-15,6.716-15,15v98.56c0,8.284,6.716,15,15,15s15-6.716,15-15v-98.56
			C266.245,316.588,259.529,309.872,251.244,309.872z"/>
	</g>
</g>
<g>
	<g>
		<path d="M305.197,309.872c-8.284,0-15,6.716-15,15v98.56c0,8.284,6.716,15,15,15s15-6.716,15-15v-98.56
			C320.197,316.588,313.481,309.872,305.197,309.872z"/>
	</g>
</g>
<g>
	<g>
		<path d="M359.149,309.872c-8.284,0-15,6.716-15,15v98.56c0,8.284,6.716,15,15,15c8.284,0,15-6.716,15-15v-98.56
			C374.149,316.588,367.433,309.872,359.149,309.872z"/>
	</g>
</g>
<g>
</g>
<g>
</g>
<g>
</g>
<g>
</g>
<g>
</g>
<g>
</g>
<g>
</g>
<g>
</g>
<g>
</g>
<g>
</g>
<g>
</g>
<g>
</g>
<g>
</g>
<g>
</g>
<g>
</g>
</svg>
