<?xml version="1.0" encoding="iso-8859-1"?>
<!-- Generator: Adobe Illustrator 19.0.0, SVG Export Plug-In . SVG Version: 6.00 Build 0)  -->
<svg version="1.1" id="Capa_1" xmlns="http://www.w3.org/2000/svg" xmlns:xlink="http://www.w3.org/1999/xlink" x="0px" y="0px"
	 viewBox="0 0 512 512" style="enable-background:new 0 0 512 512;" xml:space="preserve">
<g>
	<g>
		<path d="M479.841,338.987c-3.044-55.133-25.954-106.541-65.306-145.893c-30.82-30.82-69.036-51.549-110.643-60.557
			c0.053-0.921,0.087-1.848,0.087-2.782c0-26.456-21.523-47.979-47.979-47.979s-47.979,21.523-47.979,47.979
			c0,0.934,0.034,1.861,0.087,2.782c-41.606,9.008-79.822,29.737-110.643,60.557c-39.352,39.352-62.261,90.759-65.306,145.893
			C13.504,345.148,0,362.734,0,383.427c0,25.804,20.993,46.798,46.798,46.798h418.404c25.805,0,46.798-20.994,46.798-46.798
			C512,362.734,498.496,345.148,479.841,338.987z M256,111.775c9.368,0,17.076,7.204,17.897,16.362
			c-5.923-0.465-11.891-0.711-17.897-0.711c-6.006,0-11.974,0.246-17.897,0.711C238.924,118.979,246.632,111.775,256,111.775z
			 M256,157.427c102.038,0,185.947,79.1,193.629,179.203H62.371C70.053,236.526,153.962,157.427,256,157.427z M465.202,400.224
			H46.798c-9.263,0-16.798-7.536-16.798-16.798c0-9.262,7.535-16.797,16.798-16.797h418.404c9.263,0,16.798,7.535,16.798,16.797
			C482,392.688,474.465,400.224,465.202,400.224z"/>
	</g>
</g>
<g>
	<g>
		<path d="M376.021,264.86c-8.284,0-15,6.716-15,15v24.607c0,8.284,6.716,15,15,15s15-6.716,15-15V279.86
			C391.021,271.576,384.305,264.86,376.021,264.86z"/>
	</g>
</g>
<g>
	<g>
		<path d="M316.011,264.86c-8.284,0-15,6.716-15,15v24.607c0,8.284,6.716,15,15,15s15-6.716,15-15V279.86
			C331.011,271.576,324.295,264.86,316.011,264.86z"/>
	</g>
</g>
<g>
	<g>
		<path d="M256,264.86c-8.284,0-15,6.716-15,15v24.607c0,8.284,6.716,15,15,15s15-6.716,15-15V279.86
			C271,271.576,264.284,264.86,256,264.86z"/>
	</g>
</g>
<g>
	<g>
		<path d="M195.989,264.86c-8.284,0-15,6.716-15,15v24.607c0,8.284,6.716,15,15,15s15-6.716,15-15V279.86
			C210.989,271.576,204.273,264.86,195.989,264.86z"/>
	</g>
</g>
<g>
	<g>
		<path d="M135.979,264.86c-8.284,0-15,6.716-15,15v24.607c0,8.284,6.716,15,15,15s15-6.716,15-15V279.86
			C150.979,271.576,144.263,264.86,135.979,264.86z"/>
	</g>
</g>
<g>
</g>
<g>
</g>
<g>
</g>
<g>
</g>
<g>
</g>
<g>
</g>
<g>
</g>
<g>
</g>
<g>
</g>
<g>
</g>
<g>
</g>
<g>
</g>
<g>
</g>
<g>
</g>
<g>
</g>
</svg>
