<?xml version="1.0" encoding="iso-8859-1"?>
<!-- Generator: Adobe Illustrator 19.0.0, SVG Export Plug-In . SVG Version: 6.00 Build 0)  -->
<svg version="1.1" id="Capa_1" xmlns="http://www.w3.org/2000/svg" xmlns:xlink="http://www.w3.org/1999/xlink" x="0px" y="0px"
	 viewBox="0 0 512 512" style="enable-background:new 0 0 512 512;" xml:space="preserve">
<g>
	<g>
		<path d="M468.306,100.756c-24.092,0-43.694,19.601-43.694,43.694c0,16.307,8.986,30.546,22.26,38.053l-31.021,52.433
			l-31.336-52.967c12.765-7.637,21.332-21.594,21.332-37.519c0-24.093-19.601-43.694-43.693-43.694s-43.694,19.601-43.694,43.694
			c0,16.15,8.814,30.271,21.878,37.833l-31.151,52.653l-31.206-52.748c12.973-7.586,21.714-21.656,21.714-37.739
			c0-24.093-19.602-43.694-43.694-43.694c-24.092,0-43.694,19.601-43.694,43.694c0,15.993,8.643,29.999,21.498,37.614l-31.28,52.872
			l-31.077-52.529c13.183-7.531,22.094-21.719,22.094-37.958c0-24.093-19.602-43.694-43.694-43.694s-43.693,19.601-43.693,43.694
			c0,15.836,8.469,29.731,21.116,37.395l-31.41,53.091l-30.947-52.309c13.394-7.474,22.476-21.782,22.476-38.178
			c0-24.093-19.602-43.694-43.694-43.694C19.604,100.753,0,120.357,0,144.45c0,18.383,11.417,34.139,27.527,40.58v211.217
			c0,8.284,6.716,15,15,15h426.655c8.284,0,15-6.716,15-15V185.145C500.446,178.778,512,162.943,512,144.45
			C512,120.357,492.398,100.756,468.306,100.756z M362.153,130.756c7.551,0,13.693,6.143,13.693,13.694
			c0,7.551-6.143,13.694-13.693,13.694s-13.694-6.143-13.694-13.694C348.459,136.899,354.603,130.756,362.153,130.756z M256,130.756
			c7.551,0,13.694,6.143,13.694,13.694c0,7.551-6.144,13.694-13.694,13.694s-13.694-6.143-13.694-13.694
			C242.306,136.899,248.449,130.756,256,130.756z M149.847,130.756c7.551,0,13.694,6.143,13.694,13.694
			c0,7.551-6.144,13.694-13.694,13.694c-7.55,0-13.693-6.143-13.693-13.694C136.153,136.899,142.296,130.756,149.847,130.756z
			 M43.694,158.144c-7.55,0-13.694-6.143-13.694-13.694c0-7.551,6.144-13.694,13.694-13.694c7.551,0,13.694,6.143,13.694,13.694
			C57.388,152.001,51.244,158.144,43.694,158.144z M57.527,381.248V229.063l25.422,42.97c2.7,4.563,7.608,7.362,12.91,7.362
			s10.21-2.799,12.91-7.362l40.422-68.324l40.422,68.324c2.7,4.563,7.608,7.362,12.91,7.362s10.21-2.799,12.91-7.362l40.422-68.324
			l40.421,68.324c2.7,4.563,7.608,7.362,12.91,7.362s10.21-2.799,12.91-7.362l40.422-68.324l40.422,68.324
			c2.7,4.563,7.608,7.362,12.91,7.362s10.21-2.799,12.91-7.362l25.422-42.97v152.185H57.527z M468.306,158.144
			c-7.551,0-13.694-6.143-13.694-13.694c0-7.551,6.144-13.694,13.694-13.694S482,136.899,482,144.45
			C482,152.001,475.856,158.144,468.306,158.144z"/>
	</g>
</g>
<g>
</g>
<g>
</g>
<g>
</g>
<g>
</g>
<g>
</g>
<g>
</g>
<g>
</g>
<g>
</g>
<g>
</g>
<g>
</g>
<g>
</g>
<g>
</g>
<g>
</g>
<g>
</g>
<g>
</g>
</svg>
