<?xml version="1.0" encoding="iso-8859-1"?>
<!-- Generator: Adobe Illustrator 19.0.0, SVG Export Plug-In . SVG Version: 6.00 Build 0)  -->
<svg version="1.1" id="Capa_1" xmlns="http://www.w3.org/2000/svg" xmlns:xlink="http://www.w3.org/1999/xlink" x="0px" y="0px"
	 viewBox="0 0 512.001 512.001" style="enable-background:new 0 0 512.001 512.001;" xml:space="preserve">
<g>
	<g>
		<path d="M455.538,130.126c-6.989,0-13.594,1.66-19.456,4.593c-6.923-14.978-22.081-25.401-39.636-25.401h-47.488
			c-13.146,0-24.944,5.849-32.953,15.074c-1.71-8.885-4.214-17.684-7.53-26.308c-14.661-38.115-43.286-68.24-80.603-84.825
			c-37.317-16.584-78.86-17.646-116.974-2.986c-38.115,14.66-68.24,43.285-84.825,80.602s-17.645,78.861-2.986,116.976
			c14.66,38.115,43.285,68.24,80.602,84.825c19.868,8.83,40.929,13.26,62.038,13.259c18.538,0,37.115-3.418,54.937-10.273
			c38.115-14.661,68.24-43.286,84.825-80.603c4.832-10.871,8.335-22.103,10.527-33.502c8.009,9.216,19.802,15.06,32.941,15.06
			h47.487c5.437,0,10.639-1.007,15.444-2.831v27.474c0,10.958,4.068,20.978,10.761,28.651c-6.693,7.673-10.761,17.693-10.761,28.651
			v45.319c-4.805-1.824-10.008-2.831-15.444-2.831h-47.486c-18.801,0-34.864,11.949-40.994,28.651h-16.25
			c-7.847-15.828-24.171-26.74-43.002-26.74h-70.805c-26.452,0-47.971,21.52-47.971,47.973v93.094
			c0,26.452,21.519,47.972,47.971,47.972h70.805c26.452,0,47.973-21.52,47.973-47.972v-84.329h11.28
			c6.13,16.702,22.193,28.651,40.994,28.651h47.487c23.349,0,42.472-18.428,43.595-41.504c4.82,1.837,10.041,2.853,15.499,2.853
			c24.069,0,43.65-19.581,43.65-43.649v-47.487c0-10.958-4.068-20.978-10.761-28.651c6.693-7.673,10.761-17.693,10.761-28.651
			v-47.487h0C499.188,149.707,479.607,130.126,455.538,130.126z M278.078,202.875c-13.331,29.997-37.546,53.006-68.182,64.789
			c-30.636,11.784-64.029,10.931-94.024-2.4c-29.995-13.332-53.004-37.545-64.788-68.182c-11.783-30.636-10.931-64.028,2.4-94.024
			c13.331-29.995,37.545-53.004,68.183-64.788c14.327-5.51,29.255-8.257,44.158-8.257c16.965,0,33.897,3.561,49.865,10.657
			c29.995,13.332,53.005,37.546,64.788,68.182c3.655,9.501,6.091,19.268,7.32,29.116h-21.924
			c-1.095-7.209-2.978-14.353-5.657-21.323c-9.702-25.225-28.645-45.161-53.343-56.137c-24.695-10.977-52.188-11.678-77.414-1.976
			s-45.162,28.646-56.138,53.343c-10.977,24.697-11.678,52.189-1.976,77.413c9.701,25.225,28.645,45.161,53.343,56.137
			c13.148,5.844,27.086,8.775,41.056,8.775c12.27,0,24.563-2.263,36.358-6.799c25.225-9.702,45.161-28.645,56.137-53.343
			c3.751-8.438,6.299-17.203,7.645-26.094h21.924C286.331,179.863,283.085,191.608,278.078,202.875z M235.388,167.906
			c-1.029,4.749-2.541,9.427-4.561,13.971c-7.722,17.374-21.748,30.702-39.493,37.527c-17.745,6.824-37.089,6.331-54.463-1.39
			c-17.374-7.722-30.702-21.748-37.528-39.494c-6.825-17.746-6.332-37.088,1.39-54.462c7.722-17.374,21.748-30.702,39.494-37.527
			c8.299-3.192,16.946-4.784,25.579-4.784c9.827,0,19.635,2.063,28.884,6.172c17.374,7.722,30.702,21.748,37.527,39.494
			c1.34,3.485,2.388,7.033,3.165,10.614c-7.729,0.604-13.817,7.054-13.817,14.939C221.566,160.854,227.656,167.304,235.388,167.906z
			 M396.444,166.621h-47.487c-7.527,0-13.652-6.124-13.652-13.653s6.124-13.653,13.652-13.653h47.487
			c7.527,0,13.652,6.124,13.652,13.653S403.973,166.621,396.444,166.621z M198.311,482.004h-20.404
			c-9.911-0.001-17.974-8.064-17.974-17.975v-48.375c5.555,2.253,11.621,3.494,17.974,3.494h20.404V482.004z M266.687,464.029
			c0,9.911-8.063,17.974-17.975,17.974h-20.403v-62.857h20.403c6.353,0,12.421-1.241,17.975-3.494V464.029z M266.687,371.054
			c0,0.04,0,0.08,0,0.12c0,9.911-8.063,17.974-17.975,17.974h-70.805c-9.911,0-17.974-8.063-17.974-17.974v-0.24
			c0-9.911,8.062-17.975,17.974-17.975h70.805c9.911,0,17.975,8.063,17.975,17.975C266.687,370.974,266.687,371.014,266.687,371.054
			z M396.444,378.353h-47.487c-7.527,0-13.652-6.124-13.652-13.653c0-7.528,6.124-13.653,13.652-13.653h47.487
			c7.527,0,13.652,6.124,13.652,13.653C410.096,372.228,403.973,378.353,396.444,378.353z M469.191,326.05
			c0,7.527-6.124,13.652-13.653,13.652c-7.527,0-13.652-6.124-13.652-13.652v-47.487c0-7.528,6.124-13.653,13.652-13.653
			c7.528,0,13.653,6.124,13.653,13.653V326.05z M469.191,221.261c0,7.528-6.124,13.653-13.653,13.653
			c-7.527,0-13.652-6.124-13.652-13.653v-47.486c0-7.528,6.124-13.653,13.652-13.653c7.528,0,13.653,6.124,13.653,13.653V221.261z"
			/>
	</g>
</g>
<g>
</g>
<g>
</g>
<g>
</g>
<g>
</g>
<g>
</g>
<g>
</g>
<g>
</g>
<g>
</g>
<g>
</g>
<g>
</g>
<g>
</g>
<g>
</g>
<g>
</g>
<g>
</g>
<g>
</g>
</svg>
