<?xml version="1.0" encoding="iso-8859-1"?>
<!-- Generator: Adobe Illustrator 19.0.0, SVG Export Plug-In . SVG Version: 6.00 Build 0)  -->
<svg version="1.1" id="Capa_1" xmlns="http://www.w3.org/2000/svg" xmlns:xlink="http://www.w3.org/1999/xlink" x="0px" y="0px"
	 viewBox="0 0 511.998 511.998" style="enable-background:new 0 0 511.998 511.998;" xml:space="preserve">
<g>
	<g>
		<path d="M420.896,23.096c-2.75-2.815-6.579-4.522-10.735-4.522c-2.338,0-4.587,0.543-6.602,1.53l-27.812,13.15
			c-4.697,2.221-9.437,4.302-14.213,6.248c-0.108,0.04-0.214,0.089-0.322,0.132c-20.262,8.229-41.197,13.969-62.398,17.269V42.814
			C298.814,19.207,279.608,0,256,0c-23.608,0-42.815,19.207-42.815,42.814v14.089c-21.211-3.301-42.156-9.046-62.427-17.28
			c-0.094-0.037-0.185-0.08-0.279-0.115c-4.781-1.948-9.524-4.031-14.225-6.253L108.25,20.014c-4.173-1.973-9.023-1.914-13.15,0.16
			c-1.487,0.748-2.82,1.728-3.959,2.887C54.979,59.27,35.063,107.391,35.063,158.57c0,51.223,19.947,99.38,56.168,135.6
			c4.479,4.479,11.291,5.66,17.018,2.954l28.004-13.241c4.729-2.236,9.5-4.331,14.31-6.289c0.121-0.046,0.241-0.095,0.361-0.144
			c20.22-8.199,41.107-13.923,62.26-17.216v208.949c0,23.608,19.207,42.815,42.815,42.815c23.608,0,42.814-19.207,42.814-42.815
			v-208.95c21.167,3.294,42.069,9.023,62.301,17.231c0.099,0.04,0.198,0.081,0.299,0.119c4.817,1.961,9.597,4.06,14.333,6.299
			l28.004,13.241c2.05,0.969,4.237,1.44,6.408,1.44c3.895,0,7.734-1.517,10.61-4.394c36.22-36.22,56.167-84.377,56.167-135.6
			C476.937,107.405,457.038,59.302,420.896,23.096z M243.185,42.814C243.185,35.749,248.933,30,256,30
			c7.066,0,12.814,5.749,12.814,12.814v17.109c-8.539,0.394-17.09,0.394-25.629,0V42.814z M105.292,265.338
			C79.274,235.805,65.063,198.28,65.063,158.57c0-39.71,14.213-77.237,40.229-106.77l15.705,7.426
			c-21.14,28.653-32.601,63.242-32.601,99.343c0,36.1,11.46,70.69,32.602,99.343L105.292,265.338z M268.814,469.183
			c0,7.067-5.748,12.816-12.814,12.816c-7.066,0-12.815-5.749-12.815-12.815v-211.97c8.539-0.394,17.09-0.394,25.629,0V469.183z
			 M362.39,245.849C328.388,233.472,292.103,227,256,227c-36.103,0-72.387,6.472-106.39,18.849
			c-20.196-24.566-31.214-55.197-31.214-87.28c0-32.083,11.018-62.714,31.213-87.28C183.612,83.666,219.897,90.138,256,90.138
			c36.103,0,72.388-6.472,106.39-18.849c20.196,24.566,31.214,55.197,31.214,87.28C393.604,190.651,382.586,221.283,362.39,245.849z
			 M406.708,265.338l-15.706-7.426c21.142-28.654,32.602-63.243,32.602-99.343c0-36.1-11.46-70.689-32.602-99.343l15.705-7.426
			c26.018,29.534,40.229,67.059,40.229,106.77C446.936,198.28,432.725,235.805,406.708,265.338z"/>
	</g>
</g>
<g>
</g>
<g>
</g>
<g>
</g>
<g>
</g>
<g>
</g>
<g>
</g>
<g>
</g>
<g>
</g>
<g>
</g>
<g>
</g>
<g>
</g>
<g>
</g>
<g>
</g>
<g>
</g>
<g>
</g>
</svg>
