<?xml version="1.0" encoding="iso-8859-1"?>
<!-- Generator: Adobe Illustrator 19.0.0, SVG Export Plug-In . SVG Version: 6.00 Build 0)  -->
<svg version="1.1" id="Capa_1" xmlns="http://www.w3.org/2000/svg" xmlns:xlink="http://www.w3.org/1999/xlink" x="0px" y="0px"
	 viewBox="0 0 512 512" style="enable-background:new 0 0 512 512;" xml:space="preserve">
<g>
	<g>
		<path d="M392.832,2.672c-4.042-2.803-9.207-3.443-13.813-1.718c-1.144,0.429-115.978,42.639-249.191,23.623
			c-4.305-0.612-8.664,0.669-11.948,3.519c-3.285,2.849-5.171,6.983-5.171,11.331v173.09c0,4.281,1.829,8.358,5.027,11.205
			c3.198,2.846,7.458,4.193,11.712,3.694c10.426-1.217,20.584-2.141,30.471-2.825v244.594c0,23.608,19.207,42.814,42.814,42.814
			c23.608,0,42.815-19.207,42.815-42.814V224.427c25.711,1.721,47.629,4.834,64.953,8.042c42.941,7.954,67.739,18.205,67.965,18.299
			c1.871,0.789,3.851,1.177,5.824,1.177c2.909,0,5.801-0.846,8.296-2.502c4.188-2.78,6.705-7.472,6.705-12.498V14.997
			C399.291,10.079,396.874,5.475,392.832,2.672z M215.549,469.184c0,7.066-5.748,12.815-12.815,12.815
			c-7.066,0-12.814-5.749-12.814-12.814v-245.97c8.825-0.197,17.376-0.207,25.629-0.056V469.184z M309.469,201.711
			c-28.437-4.919-63.664-8.737-104.563-8.737c-19.485,0-40.267,0.867-62.198,2.894V56.418c66.319,7.157,126.395,0.538,166.76-6.777
			V201.711z M369.291,215.815c-7.869-2.436-17.874-5.241-29.821-8.031V43.435c11.866-2.768,21.917-5.496,29.821-7.821V215.815z"/>
	</g>
</g>
<g>
</g>
<g>
</g>
<g>
</g>
<g>
</g>
<g>
</g>
<g>
</g>
<g>
</g>
<g>
</g>
<g>
</g>
<g>
</g>
<g>
</g>
<g>
</g>
<g>
</g>
<g>
</g>
<g>
</g>
</svg>
