<?xml version="1.0" encoding="iso-8859-1"?>
<!-- Generator: Adobe Illustrator 19.0.0, SVG Export Plug-In . SVG Version: 6.00 Build 0)  -->
<svg version="1.1" id="Capa_1" xmlns="http://www.w3.org/2000/svg" xmlns:xlink="http://www.w3.org/1999/xlink" x="0px" y="0px"
	 viewBox="0 0 512 512" style="enable-background:new 0 0 512 512;" xml:space="preserve">
<g>
	<g>
		<path d="M373.13,0H138.87c-23.608,0-42.814,19.207-42.814,42.814c0,18.332,11.584,34.005,27.814,40.097v150.811
			c0,57.878,37.409,107.179,89.315,125.006V482h-56.939c-8.284,0-15,6.716-15,15s6.716,15,15,15h199.508c8.284,0,15-6.716,15-15
			s-6.716-15-15-15h-56.939V358.728c51.907-17.827,89.315-67.128,89.315-125.006V82.911c16.23-6.092,27.814-21.764,27.814-40.097
			C415.944,19.207,396.738,0,373.13,0z M268.814,482h-25.628V365.229c4.218,0.408,8.491,0.623,12.814,0.623
			s8.597-0.215,12.814-0.623V482z M358.13,233.722c0,56.315-45.816,102.13-102.13,102.13c-56.314,0-102.13-45.815-102.13-102.13
			V85.629h204.26V233.722z M373.13,55.629H138.87c-7.065,0-12.814-5.749-12.814-12.815c0-7.066,5.749-12.814,12.814-12.814h234.26
			c7.065,0,12.814,5.749,12.814,12.814C385.944,49.881,380.195,55.629,373.13,55.629z"/>
	</g>
</g>
<g>
</g>
<g>
</g>
<g>
</g>
<g>
</g>
<g>
</g>
<g>
</g>
<g>
</g>
<g>
</g>
<g>
</g>
<g>
</g>
<g>
</g>
<g>
</g>
<g>
</g>
<g>
</g>
<g>
</g>
</svg>
