<?xml version="1.0" encoding="iso-8859-1"?>
<!-- Generator: Adobe Illustrator 19.0.0, SVG Export Plug-In . SVG Version: 6.00 Build 0)  -->
<svg version="1.1" id="Capa_1" xmlns="http://www.w3.org/2000/svg" xmlns:xlink="http://www.w3.org/1999/xlink" x="0px" y="0px"
	 viewBox="0 0 512 512" style="enable-background:new 0 0 512 512;" xml:space="preserve">
<g>
	<g>
		<path d="M351.511,227.503c-4.906-28.503-22.421-53.373-47.506-67.692v-55.703c8.442-2.471,16.179-7.034,22.571-13.428
			c20.716-20.717,20.716-54.426,0-75.144c-19.257-19.255-49.737-20.612-70.575-4.074c-20.839-16.538-51.32-15.18-70.576,4.075
			c-20.715,20.717-20.715,54.426,0,75.143c6.394,6.394,14.13,10.958,22.572,13.428v55.703c-25.084,14.32-42.6,39.188-47.506,67.692
			c-39.43,29.876-62.772,76.563-62.772,126.215C97.719,440.995,168.724,512,256,512s158.281-71.005,158.281-158.281
			C414.283,304.066,390.941,257.379,351.511,227.503z M206.642,69.466c-9.021-9.019-9.021-23.696-0.002-32.715
			c9.019-9.019,23.696-9.021,32.716,0c1.424,1.425,2.658,3.03,3.668,4.771c2.683,4.628,7.627,7.477,12.978,7.477
			c5.35,0,10.295-2.849,12.978-7.477c1.01-1.741,2.244-3.346,3.668-4.77c9.019-9.019,23.695-9.02,32.715,0
			c9.02,9.019,9.02,23.695,0,32.715c-4.368,4.369-10.179,6.775-16.357,6.775c-8.284,0-15.001,6.716-15.001,15.001v57.511
			c-5.894-1.11-11.905-1.673-18.002-1.673c-6.097,0-12.108,0.563-18.002,1.673V91.242c0-8.284-6.716-15.001-15.001-15.001
			C216.821,76.242,211.012,73.836,206.642,69.466z M256.001,481.998c-70.734,0-128.279-57.546-128.279-128.28
			c0-42.062,20.677-81.504,55.311-105.507c3.618-2.508,5.952-6.479,6.383-10.861c2.356-23.946,17.544-44.871,39.635-54.61
			c8.517-3.755,17.585-5.659,26.951-5.659c9.367,0,18.435,1.904,26.951,5.659c22.091,9.739,37.278,30.664,39.635,54.61
			c0.431,4.381,2.765,8.352,6.383,10.861c34.634,24.003,55.311,63.445,55.311,105.507
			C384.281,424.452,326.736,481.998,256.001,481.998z"/>
	</g>
</g>
<g>
</g>
<g>
</g>
<g>
</g>
<g>
</g>
<g>
</g>
<g>
</g>
<g>
</g>
<g>
</g>
<g>
</g>
<g>
</g>
<g>
</g>
<g>
</g>
<g>
</g>
<g>
</g>
<g>
</g>
</svg>
