<?xml version="1.0" encoding="iso-8859-1"?>
<!-- Generator: Adobe Illustrator 19.0.0, SVG Export Plug-In . SVG Version: 6.00 Build 0)  -->
<svg version="1.1" id="Capa_1" xmlns="http://www.w3.org/2000/svg" xmlns:xlink="http://www.w3.org/1999/xlink" x="0px" y="0px"
	 viewBox="0 0 512 512" style="enable-background:new 0 0 512 512;" xml:space="preserve">
<g>
	<g>
		<path d="M345.602,143.837L269.077,7.652C266.421,2.925,261.422,0,256,0c-5.422,0-10.421,2.925-13.077,7.652l-76.524,136.186
			c-2.609,4.645-2.56,10.325,0.131,14.924c2.69,4.598,7.618,7.424,12.946,7.424h17.768v39.3c0,8.284,6.716,15,15,15h0.942v248.7
			C213.186,492.793,232.392,512,256,512c23.608,0,42.814-19.207,42.814-42.814v-248.7h0.942c8.284,0,15-6.716,15-15v-39.3h17.768
			c5.328,0,10.256-2.826,12.946-7.424C348.161,154.163,348.211,148.482,345.602,143.837z M268.815,469.186
			C268.814,476.251,263.065,482,256,482c-7.065,0-12.814-5.749-12.814-12.814v-248.7h25.629V469.186z M284.757,190.485h-57.514
			v-24.3h57.514V190.485z M205.11,136.185L256,45.62l50.89,90.565H205.11z"/>
	</g>
</g>
<g>
</g>
<g>
</g>
<g>
</g>
<g>
</g>
<g>
</g>
<g>
</g>
<g>
</g>
<g>
</g>
<g>
</g>
<g>
</g>
<g>
</g>
<g>
</g>
<g>
</g>
<g>
</g>
<g>
</g>
</svg>
