<?xml version="1.0" encoding="iso-8859-1"?>
<!-- Generator: Adobe Illustrator 19.0.0, SVG Export Plug-In . SVG Version: 6.00 Build 0)  -->
<svg version="1.1" id="Capa_1" xmlns="http://www.w3.org/2000/svg" xmlns:xlink="http://www.w3.org/1999/xlink" x="0px" y="0px"
	 viewBox="0 0 512 512" style="enable-background:new 0 0 512 512;" xml:space="preserve">
<g>
	<g>
		<path d="M394.935,428.783V15c0-8.284-6.716-15-15-15h-247.87c-8.284,0-15,6.716-15,15v413.783
			c-16.676,5.856-28.669,21.751-28.669,40.403c0,23.608,19.207,42.814,42.814,42.814h249.579c23.608,0,42.815-19.207,42.815-42.814
			C423.604,450.534,411.612,434.639,394.935,428.783z M147.065,30h217.87v102.982l-217.87-46.089V30z M147.065,117.557
			l217.871,46.089v125.108h-0.001h-64.258c-6.281-18.658-23.929-32.139-44.677-32.139s-38.396,13.481-44.677,32.139h-64.258V117.557
			z M273.139,303.754c0,9.451-7.689,17.139-17.139,17.139s-17.139-7.688-17.139-17.139c0-9.45,7.688-17.139,17.139-17.139
			S273.139,294.303,273.139,303.754z M147.065,318.754h64.258c6.281,18.658,23.929,32.139,44.677,32.139
			s38.396-13.481,44.677-32.139h64.258v35.901h-217.87V318.754z M147.065,384.655h217.871v37.007H147.065V384.655z M380.789,482
			H131.21c-7.066,0-12.814-5.749-12.814-12.814s5.749-12.815,12.814-12.815h249.579c7.066,0,12.815,5.749,12.815,12.815
			C393.604,476.252,387.856,482,380.789,482z"/>
	</g>
</g>
<g>
</g>
<g>
</g>
<g>
</g>
<g>
</g>
<g>
</g>
<g>
</g>
<g>
</g>
<g>
</g>
<g>
</g>
<g>
</g>
<g>
</g>
<g>
</g>
<g>
</g>
<g>
</g>
<g>
</g>
</svg>
