<?xml version="1.0" encoding="iso-8859-1"?>
<!-- Generator: Adobe Illustrator 19.0.0, SVG Export Plug-In . SVG Version: 6.00 Build 0)  -->
<svg version="1.1" id="Capa_1" xmlns="http://www.w3.org/2000/svg" xmlns:xlink="http://www.w3.org/1999/xlink" x="0px" y="0px"
	 viewBox="0 0 512 512" style="enable-background:new 0 0 512 512;" xml:space="preserve">
<g>
	<g>
		<path d="M442.702,0.03c-0.2-0.008-0.397-0.03-0.599-0.03H134.768c-25.992,0-47.139,21.146-47.139,47.139v374.524H38.352
			c-8.284,0-15,6.716-15,15v28.199c0,25.592,20.505,46.472,45.946,47.108c0.2,0.008,0.397,0.03,0.599,0.03h307.335
			c25.992,0,47.139-21.146,47.139-47.139V90.337h49.277c8.284,0,15-6.716,15-15V47.139C488.648,21.546,468.144,0.667,442.702,0.03z
			 M70.49,482.001c-9.45,0-17.139-7.688-17.139-17.139v-13.199h0.001h276.507v13.199c0,6.045,1.156,11.823,3.239,17.139H70.49z
			 M394.371,464.861c0,9.45-7.688,17.139-17.139,17.139h-0.235c-9.45,0-17.139-7.688-17.139-17.139v-28.199c0-8.284-6.716-15-15-15
			h-227.23V47.139c0-9.45,7.688-17.139,17.139-17.139H397.61c-2.083,5.316-3.239,11.093-3.239,17.139L394.371,464.861
			L394.371,464.861z M458.649,60.337h-0.001h-34.277V47.139c0-9.45,7.688-17.139,17.139-17.139c9.451,0,17.139,7.688,17.139,17.139
			V60.337z"/>
	</g>
</g>
<g>
	<g>
		<path d="M344.859,97.908H159.724c-8.284,0-15,6.716-15,15s6.716,15,15,15h185.135c8.284,0,15-6.716,15-15
			S353.143,97.908,344.859,97.908z"/>
	</g>
</g>
<g>
	<g>
		<path d="M344.859,173.301H159.724c-8.284,0-15,6.716-15,15s6.716,15,15,15h185.135c8.284,0,15-6.716,15-15
			S353.143,173.301,344.859,173.301z"/>
	</g>
</g>
<g>
	<g>
		<path d="M344.859,248.695H159.724c-8.284,0-15,6.716-15,15s6.716,15,15,15h185.135c8.284,0,15-6.716,15-15
			S353.143,248.695,344.859,248.695z"/>
	</g>
</g>
<g>
	<g>
		<path d="M344.859,324.088H159.724c-8.284,0-15,6.716-15,15s6.716,15,15,15h185.135c8.284,0,15-6.716,15-15
			S353.143,324.088,344.859,324.088z"/>
	</g>
</g>
<g>
</g>
<g>
</g>
<g>
</g>
<g>
</g>
<g>
</g>
<g>
</g>
<g>
</g>
<g>
</g>
<g>
</g>
<g>
</g>
<g>
</g>
<g>
</g>
<g>
</g>
<g>
</g>
<g>
</g>
</svg>
