<?xml version="1.0" encoding="iso-8859-1"?>
<!-- Generator: Adobe Illustrator 19.0.0, SVG Export Plug-In . SVG Version: 6.00 Build 0)  -->
<svg version="1.1" id="Capa_1" xmlns="http://www.w3.org/2000/svg" xmlns:xlink="http://www.w3.org/1999/xlink" x="0px" y="0px"
	 viewBox="0 0 512 512" style="enable-background:new 0 0 512 512;" xml:space="preserve">
<g>
	<g>
		<path d="M497,168.07h-0.306V149.6c0-8.284-6.716-15-15-15s-15,6.716-15,15v18.47h-8.72V149.6c0-8.284-6.716-15-15-15
			s-15,6.716-15,15v18.47h-8.72V149.6c0-8.284-6.716-15-15-15s-15,6.716-15,15v18.47h-0.306c-8.284,0-15,6.716-15,15v54.727h-45.503
			v-135.23c0-8.284-6.716-15-15-15h-3.725v-27.7c0-8.284-6.716-15-15-15s-15,6.716-15,15v27.699H271V59.867c0-8.284-6.716-15-15-15
			s-15,6.716-15,15v27.699h-8.72V59.867c0-8.284-6.716-15-15-15s-15,6.716-15,15v27.699h-3.725c-8.284,0-15,6.716-15,15v135.23
			h-45.503V183.07c0-8.284-6.716-15-15-15h-0.306V149.6c0-8.284-6.716-15-15-15s-15,6.716-15,15v18.47h-8.72V149.6
			c0-8.284-6.716-15-15-15s-15,6.716-15,15v18.47h-8.72V149.6c0-8.284-6.716-15-15-15c-8.284,0-15,6.716-15,15v18.47H15
			c-8.284,0-15,6.716-15,15v269.063c0,8.284,6.716,15,15,15h482c8.284,0,15-6.716,15-15V183.07
			C512,174.786,505.284,168.07,497,168.07z M108.052,252.797v184.337H30V198.07h78.052V252.797z M213.556,117.566h84.889v120.23
			h-84.889V117.566z M277.219,437.133h-42.438v-54.921c0-11.7,9.519-21.219,21.219-21.219s21.219,9.519,21.219,21.219V437.133z
			 M373.948,437.133h-66.729v-54.921c0-28.242-22.977-51.219-51.219-51.219s-51.219,22.977-51.219,51.219v54.921h-66.729V267.796
			h235.896V437.133z M482,437.133h-78.052V252.796V198.07H482V437.133z"/>
	</g>
</g>
<g>
	<g>
		<path d="M442.974,237.797c-8.284,0-15,6.716-15,15v14.66c0,8.284,6.716,15,15,15s15-6.716,15-15v-14.66
			C457.974,244.513,451.258,237.797,442.974,237.797z"/>
	</g>
</g>
<g>
	<g>
		<path d="M69.026,237.797c-8.284,0-15,6.716-15,15v14.66c0,8.284,6.716,15,15,15s15-6.716,15-15v-14.66
			C84.026,244.513,77.31,237.797,69.026,237.797z"/>
	</g>
</g>
<g>
	<g>
		<path d="M256,138.523c-8.284,0-15,6.716-15,15v14.66c0,8.284,6.716,15,15,15s15-6.716,15-15v-14.66
			C271,145.239,264.284,138.523,256,138.523z"/>
	</g>
</g>
<g>
</g>
<g>
</g>
<g>
</g>
<g>
</g>
<g>
</g>
<g>
</g>
<g>
</g>
<g>
</g>
<g>
</g>
<g>
</g>
<g>
</g>
<g>
</g>
<g>
</g>
<g>
</g>
<g>
</g>
</svg>
