<svg id="Capa_1" enable-background="new 0 0 512 512" height="512" viewBox="0 0 512 512" width="512" xmlns="http://www.w3.org/2000/svg"><path d="m311.014 335.026c-34.448 18.927-75.58 18.927-110.028 0-3.629-1.994-8.189-.668-10.185 2.962-1.995 3.63-.668 8.19 2.962 10.185 38.967 21.41 85.502 21.413 124.474 0 3.63-1.995 4.957-6.555 2.962-10.185-1.996-3.63-6.555-4.956-10.185-2.962z"/><path d="m366.644 257.94-3.507-38.709c6.887-11.498 3.73-26.65-7.715-34.328-1.209-.811-1.889-2.27-1.776-3.806l2.434-33.046c2.106-28.607-7.232-55.801-26.295-76.574-28.129-30.65-70.229-38.916-105.663-27.072-3.928 1.313-6.048 5.563-4.735 9.491 1.313 3.929 5.563 6.049 9.491 4.735 29.884-9.991 65.762-3.264 89.855 22.988 16.236 17.691 24.186 40.893 22.387 65.33l-2.435 33.047c-.508 6.902 2.702 13.555 8.378 17.363 5.011 3.362 6.186 10.192 2.644 15.015-.136.161-.266.327-.388.498-1.938 2.335-4.862 3.825-8.127 3.825h-24.388c-8.391 0-15.413 6.018-16.699 14.31l-5.561 35.873c-.477 3.074-3.08 5.305-6.191 5.305h-9.421v-22.355c0-4.142-3.358-7.5-7.5-7.5s-7.5 3.358-7.5 7.5v22.354h-15.867v-22.354c0-4.142-3.358-7.5-7.5-7.5s-7.5 3.358-7.5 7.5v22.354h-9.421c-3.111 0-5.714-2.231-6.191-5.305l-5.561-35.873c-1.286-8.292-8.308-14.31-16.699-14.31h-24.388c-3.267 0-6.191-1.491-8.13-3.828-.121-.169-.248-.332-.382-.49-3.555-4.836-2.358-11.666 2.64-15.02 5.676-3.808 8.887-10.462 8.378-17.364l-2.508-34.05c-2.022-27.463 8.859-53.472 29.854-71.357 3.153-2.686 3.532-7.42.846-10.573-2.686-3.154-7.42-3.533-10.573-.846-24.313 20.711-37.43 52.067-35.087 83.877l2.507 34.05c.113 1.537-.567 2.995-1.775 3.805-11.442 7.678-14.604 22.828-7.715 34.329l-3.507 38.709c-.9 9.934 3.895 19.503 12.215 24.377l66.299 38.842c19.961 11.695 44.264 11.716 64.26 0l66.3-38.842c8.322-4.872 13.117-14.44 12.217-24.375zm-19.797 11.435-66.3 38.842c-15.136 8.868-33.629 9.061-49.095 0l-66.3-38.842c-3.33-1.951-5.236-5.908-4.858-10.082l2.614-28.846c2.489.81 5.144 1.249 7.899 1.249h24.388c.942 0 1.731.676 1.875 1.607l5.561 35.874c1.618 10.434 10.456 18.006 21.014 18.006h64.71c10.559 0 19.396-7.573 21.014-18.007l5.561-35.873c.144-.932.933-1.607 1.875-1.607h24.388c2.755 0 5.411-.438 7.899-1.249l2.614 28.846c.377 4.175-1.529 8.132-4.859 10.082z"/><path d="m30.041 192.794v311.706c0 4.142 3.358 7.5 7.5 7.5h419.63c4.142 0 7.5-3.358 7.5-7.5v-28.233c0-4.142-3.358-7.5-7.5-7.5s-7.5 3.358-7.5 7.5v20.733h-55.336v-83.966c0-4.142-3.358-7.5-7.5-7.5s-7.5 3.358-7.5 7.5v83.966h-246.672v-83.966c0-4.142-3.358-7.5-7.5-7.5s-7.5 3.358-7.5 7.5v83.966h-38.616v-92.869c0-4.142-3.358-7.5-7.5-7.5s-7.5 3.358-7.5 7.5v92.869h-19.006v-304.11h19.006v176.241c0 4.142 3.358 7.5 7.5 7.5s7.5-3.358 7.5-7.5v-35.324c9.399-8.558 21.451-13.239 34.255-13.239h25.815c7.267 0 13.362-4.729 15.168-11.768s-1.259-14.118-7.628-17.617c-12.346-6.784-19.449-20.228-18.094-34.25 18.707-193.616 11.106-114.949 13.368-138.356 5.654-58.517 54.819-103.577 114.068-103.577h150.885v12.659c0 20.435-16.538 36.975-36.976 36.975h-1.748c-5.618-9.689-12.472-18.612-20.418-26.573-2.926-2.932-7.675-2.936-10.606-.01s-2.936 7.675-.01 10.606c13.57 13.595 23.161 30.01 28.468 47.374.056.221.122.439.197.653 2.122 7.094 3.552 14.408 4.275 21.893 1.938 20.055 9.982 103.312 13.368 138.356 1.354 14.022-5.748 27.466-18.094 34.25-6.369 3.499-9.434 10.579-7.628 17.617s7.902 11.768 15.168 11.768h25.815c28.108 0 50.975 22.867 50.975 50.975v69.723c0 4.142 3.358 7.5 7.5 7.5s7.5-3.358 7.5-7.5v-69.723c0-36.379-29.596-65.975-65.975-65.975h-25.815c-.297 0-.512 0-.64-.496-.127-.496.062-.599.322-.742 17.606-9.673 27.734-28.843 25.802-48.839l-6.147-63.62c32.548 10.163 61.767 30.678 82.439 59.621 2.127 2.977 6.103 3.994 9.404 2.375 3.294-1.615 4.937-5.375 3.883-8.889l-14.271-47.588c-14.486-48.306-48.889-87.733-94.665-108.671-1.052-3.168-2.228-6.296-3.526-9.38 25.953-2.749 46.403-24.708 46.403-51.682v-20.157c0-4.142-3.358-7.5-7.5-7.5h-158.385c-49.869 0-94.994 28.561-116.56 72.902h-54.09v-.756c0-4.142-3.358-7.5-7.5-7.5h-46.61c-4.142 0-7.5 3.358-7.5 7.5v113.244c0 3.735 2.729 6.831 6.302 7.404zm359.067-33.117c13.377 8.081 25.376 17.98 35.728 29.437-10.881-5.614-22.35-10.095-34.171-13.323zm70.198 42.023 4.419 14.735c-1.239-1.154-2.496-2.289-3.768-3.406-16.614-30.705-41.637-55.349-72.607-71.546-2.427-25.118-2.543-27.463-3.572-33.567 36.335 20.12 63.474 53.59 75.528 93.784zm-337.377-32.066h-36.58v-33.077h39.776zm17.507 134.697c.26.143.449.247.322.742-.127.496-.342.496-.64.496h-25.815c-12.289 0-24.042 3.328-34.255 9.563v-122.338c3.573-.574 6.302-3.67 6.302-7.404v-.756h35.131l-6.846 70.858c-1.933 19.995 8.195 39.165 25.801 48.839zm-6.159-216.429c-3.185 9.39-5.305 19.19-6.275 29.233l-.427 4.421h-41.226v-33.654zm-94.538-8.256h31.61v98.244h-31.61z"/><path d="m246.338 200.502c-3.995-1.069-8.113 1.302-9.186 5.304l-2.613 9.75c-1.276 4.764 2.32 9.443 7.25 9.443 3.311 0 6.342-2.21 7.24-5.561l2.613-9.75c1.071-4.001-1.303-8.113-5.304-9.186z"/><path d="m260.357 209.688 2.613 9.75c.898 3.351 3.928 5.561 7.24 5.561 4.932 0 8.525-4.681 7.25-9.443l-2.613-9.75c-1.072-4.001-5.187-6.373-9.186-5.304-4.001 1.073-6.375 5.185-5.304 9.186z"/><path d="m242.801 144.625h-50.018c-4.142 0-7.5 3.358-7.5 7.5v10c0 17.925 14.583 32.509 32.509 32.509s32.509-14.583 32.509-32.509v-10c0-4.142-3.358-7.5-7.5-7.5zm-7.5 17.5c0 9.654-7.854 17.509-17.509 17.509s-17.509-7.854-17.509-17.509v-2.5h35.018z"/><path d="m294.206 194.634c17.925 0 32.509-14.583 32.509-32.509v-10c0-4.142-3.358-7.5-7.5-7.5h-50.018c-4.142 0-7.5 3.358-7.5 7.5v10c.001 17.925 14.584 32.509 32.509 32.509zm-17.508-35.009h35.018v2.5c0 9.654-7.854 17.509-17.509 17.509s-17.509-7.854-17.509-17.509z"/></svg>