<svg id="Capa_1" enable-background="new 0 0 511.995 511.995" height="512" viewBox="0 0 511.995 511.995" width="512" xmlns="http://www.w3.org/2000/svg"><path d="m438.571 313.161-26.391-3.303c-1.322-16.899-7.789-18.248-7.789-34.898 0-17.874 8-18.95 8-40.543 0-18.358-5.958-22.486-7.53-33.293 23.535-2.461 41.941-22.418 41.941-46.594v-2.315c0-14.936-11.484-27.24-26.085-28.548 1.631-32.741-10.109-64.671-32.454-88-8.135-8.494-20.817-9.682-30.35-3.544-7.219-17.238-23.468-29.921-43.152-31.662-37.06-3.279-71.98 11.117-95.665 36.295-21.971 23.355-33.408 54.947-31.523 86.913-12.418 1.123-22.576 10.199-25.325 22.08-8.572 6.991-15.338 15.579-20.01 25.193-12.153-24.875-37.716-42.051-67.216-42.051h-61.365c-4.142 0-7.5 3.358-7.5 7.5 0 51.908 35.857 96.707 85.786 108.475 8.435 1.988 13.505 10.72 11.096 19.16-3.881 13.596-7.699 27.408-11.349 41.052-1.274 4.761 2.321 9.44 7.25 9.44 3.313 0 6.344-2.212 7.24-5.564 3.627-13.562 7.423-27.292 11.282-40.812 4.662-16.33-4.996-33.851-22.079-37.876-39.507-9.312-70.704-43.507-73.946-86.375h14.34c2.308 25.302 16.237 47.854 38.245 61.336 3.509 2.15 8.135 1.076 10.313-2.478 2.164-3.532 1.054-8.149-2.478-10.313-17.516-10.73-28.748-28.513-31.002-48.545h13.591c2.412 17.908 13.386 33.545 29.839 41.891 3.686 1.869 8.204.407 10.082-3.296 1.874-3.694.398-8.208-3.296-10.081-11.316-5.741-19.079-16.208-21.4-28.334 30.785 2.381 55.106 28.192 55.106 59.578 0 4.142 3.358 7.5 7.5 7.5s7.5-3.358 7.5-7.5c0-13.918 4.692-27.006 13.193-37.498 4.789 18.694 20.852 32.92 40.483 34.973-1.424 9.787-6.118 13.576-7.284 27.208-2.312.734-4.653 1.382-6.999 1.935-17.07 4.023-26.743 21.532-22.079 37.877 4.071 14.262 8.124 28.972 12.078 43.837l-9.427 1.18c-38.348 4.8-67.267 37.563-67.267 76.211v107.622h-39c9.391-50.084 20.412-100.424 32.791-149.776 1.008-4.018-1.432-8.091-5.45-9.099-4.013-1.008-8.091 1.431-9.099 5.45-13.187 52.57-24.841 106.257-34.639 159.57-.846 4.602 2.691 8.855 7.376 8.855h443.883c4.143 0 7.5-3.358 7.5-7.5v-53.726c0-4.142-3.357-7.5-7.5-7.5s-7.5 3.358-7.5 7.5v46.226h-45.347c1.722-11.006 1.53-20.724 1.53-20.427 0-16.119-2.608-32.405-9.41-47.089v-16.167c0-5.812 2.263-11.276 6.372-15.385 2.93-2.929 2.93-7.678.001-10.607-2.929-2.928-7.678-2.929-10.606 0-6.615 6.614-10.398 15.305-10.741 24.603-11.909-7.974-28.068-10.813-43.185-6.451l-31.118 8.98c-19.843 5.727-35.505 18.065-44.177 33.635-3.192-5.727-7.362-11.067-12.43-15.844-3.014-2.839-7.761-2.701-10.603.314-2.841 3.014-2.7 7.761.313 10.602 1.583 1.492 3.051 3.052 4.4 4.671-7.591-3.214-16.633-5.689-26.825-7.218l-31.117-4.667c-18.567-2.784-35.136.189-45.904 5.438.868-2.354 1.835-4.627 2.899-6.817 7.14-13.994 24.9-18.987 39.813-14.683l27.078 7.814c3.98 1.145 8.137-1.146 9.286-5.126 1.148-3.979-1.146-8.137-5.126-9.286l-27.078-7.814c-15.119-4.362-31.277-1.524-43.185 6.45-.343-9.297-4.126-17.988-10.74-24.602-2.929-2.929-7.678-2.929-10.606 0-2.929 2.929-2.929 7.678 0 10.606 4.109 4.109 6.373 9.573 6.373 15.385v16.166c-6.245 13.482-9.41 29.313-9.411 47.086 0 6.867.481 13.727 1.53 20.43h-45.347v-107.619c0-31.1 23.271-57.465 54.13-61.327 58.641-7.34 25.164-3.15 75.506-9.451 8.081-1.012 14.174-7.915 14.174-16.059v-21.648c14.997 8.207 30.601 13.105 42.871 13.105s27.873-4.899 42.87-13.105v21.647c0 8.143 6.094 15.047 14.174 16.059 69.568 8.707-37.986-4.755 75.506 9.451 30.859 3.862 54.13 30.228 54.13 61.327v26.396c0 4.142 3.357 7.5 7.5 7.5s7.5-3.358 7.5-7.5v-26.396c0-38.646-28.918-71.41-67.266-76.21zm-252.347 183.834c-1.153-.721-2.095-1.468-2.769-2.199-3.006-3.265-5.049-6.813-6.16-10.729h115.082c-5.485 5.048-16.152 10.101-31.476 12.928zm165.302-41.549 31.117-4.667c8.565-1.284 17.818-1.099 26.053.521 7.341 1.445 13.302 3.99 15.948 6.806 3.124 3.326 5.238 6.951 6.375 10.96h-115.093c8.404-7.767 24.257-11.919 35.6-13.62zm-4.112 41.549c-15.325-2.827-25.991-7.88-31.476-12.928h115.081c-1.959 6.903-6.161 10.515-6.161 10.729-.673.731-1.615 1.478-2.768 2.199zm5.079-68.131 31.117-8.98c16.02-4.623 33.448 1.749 39.727 14.506.989 2.076 1.865 3.955 2.986 6.994-10.767-5.25-27.335-8.224-45.904-5.438l-31.117 4.667c-10.196 1.529-19.241 4.006-26.833 7.222 7.173-8.614 17.554-15.373 30.024-18.971zm-152.874 22.437c8.233-1.622 17.486-1.807 26.053-.521l31.117 4.667c11.364 1.704 27.202 5.859 35.6 13.621h-115.093c1.138-4.009 3.251-7.634 6.376-10.96 2.644-2.818 8.606-5.362 15.947-6.807zm232.183-299.085v2.315c0 15.847-11.634 29.028-26.81 31.451l2.355-31.979c6.707-2.092 11.68-7.915 12.301-15.367 6.827.754 12.154 6.556 12.154 13.58zm-118.362-136.813c18.792 1.662 33.513 17.859 33.513 36.875 0 4.142 3.357 7.5 7.5 7.5s7.5-3.358 7.5-7.5c0-5.642 4.323-7.817 5.648-8.349 1.323-.531 5.938-1.947 9.83 2.115 20.063 20.947 30.323 49.885 28.15 79.394-.45 6.108.169-2.294-.884 12-.149 2.022-2.552 3.11-4.083 1.755-17.155-15.175-30.459-35.523-39.543-60.48-1.03-2.829-3.651-4.768-6.657-4.924-3.012-.16-5.814 1.499-7.133 4.205-21.166 43.451-60.366 81.696-108.493 80.639-19.165-.429-34.736-15.184-36.146-34.395-4.485-61.069 46.353-114.525 110.798-108.835zm-136.928 139.128c0-2.217-.029-2.753.092-3.836.729-6.593 6.249-12.142 13.766-12.142 2.343 6.853 6.052 13.031 10.801 18.225l2.151 29.204c-15.176-2.424-26.81-15.604-26.81-31.451zm5.005 109.496c-2.407-8.432 2.655-17.171 11.096-19.159 1.317-.31 2.632-.647 3.943-1.008 2.049 14.108 7.369 15.52 7.369 31.1 0 16.678-6.463 17.969-7.789 34.898l-1.943.243c-4.144-15.622-8.4-31.092-12.676-46.074zm64.77 38.509c0 .596-.446 1.101-1.037 1.175l-33.808 4.232c1.643-10.647 7.483-14.727 7.483-32.982 0-21.599-8-22.579-8-40.543 0-1.672.06-3.139.158-4.408 7.479 16.688 20.477 30.651 35.205 41.374v31.152zm6.897-44.716c-11.682-8.871-31.563-27.603-33.462-53.386-.523-7.108-2.518-34.192-2.641-35.867 10.697 5.106 20.225 5.554 31.987 4.848 23.381-1.405 44.469-11.611 62.327-25.968-1.369 2.714-2.141 5.778-2.141 9.02v24.817c0 2.81-2.286 5.096-5.096 5.096-4.143 0-7.5 3.358-7.5 7.5s3.357 7.5 7.5 7.5c11.081 0 20.096-9.015 20.096-20.096v-24.817c0-2.81 2.286-5.096 5.096-5.096h25.097c4.143 0 7.5-3.358 7.5-7.5s-3.357-7.5-7.5-7.5h-25.097c-2.378 0-4.661.416-6.781 1.178 12.195-11.845 22.495-25.423 30.516-38.827 9.519 20.676 22.122 38.021 37.591 51.706.573.507 1.173.971 1.793 1.391-1.284 17.432.916-12.432-3.875 52.615-1.899 25.783-21.78 44.515-33.462 53.386-13.429 10.197-35.108 21.173-50.974 21.173-15.867.001-37.545-10.975-50.974-21.173zm108.844 44.716v-31.153c14.695-10.701 27.71-24.651 35.205-41.375.103 1.332.158 2.791.158 4.409 0 17.874-8 18.95-8 40.543 0 18.284 5.839 22.33 7.483 32.982l-33.809-4.232c-.591-.073-1.037-.578-1.037-1.174z"/><path d="m330.956 328.958-15.629 21.748c-4.911 6.836-17.422 6.843-22.341 0l-15.63-21.748c-2.418-3.365-7.106-4.13-10.467-1.713-3.363 2.417-4.131 7.104-1.713 10.467l15.629 21.748c10.907 15.176 35.817 15.148 46.703 0l15.629-21.748c2.417-3.364 1.649-8.05-1.714-10.467-3.362-2.417-8.048-1.651-10.467 1.713z"/><path d="m325.404 225.05c-13.702 5.553-28.793 5.552-42.493 0-3.84-1.557-8.213.295-9.769 4.134s.295 8.212 4.134 9.768c17.335 7.025 36.426 7.026 53.763 0 3.839-1.556 5.689-5.929 4.134-9.768-1.557-3.839-5.927-5.69-9.769-4.134z"/><path d="m239.021 148.635c2.859.062 5.738-.005 8.547-.175 38.615-2.319 73.39-39.263 90.723-74.846 1.814-3.724.266-8.213-3.458-10.027-3.725-1.813-8.212-.265-10.026 3.458-14.693 30.161-44.956 64.449-78.138 66.442-2.521.151-4.982.202-7.32.151-4.118-.126-7.572 3.193-7.662 7.334-.091 4.142 3.193 7.572 7.334 7.663z"/></svg>