<svg id="Capa_1" enable-background="new 0 0 512.014 512.014" height="512" viewBox="0 0 512.014 512.014" width="512" xmlns="http://www.w3.org/2000/svg"><path d="m270.939 165.271v-10.038c0-4.142-3.358-7.5-7.5-7.5h-50.205c-4.142 0-7.5 3.358-7.5 7.5v10.038c0 17.977 14.625 32.602 32.603 32.602s32.602-14.625 32.602-32.602zm-50.204 0v-2.538h35.205v2.538c0 9.706-7.896 17.602-17.602 17.602s-17.603-7.897-17.603-17.602z"/><path d="m347.64 165.271v-10.038c0-4.142-3.358-7.5-7.5-7.5h-50.205c-4.142 0-7.5 3.358-7.5 7.5v47.417c0 3.36-2.734 6.094-6.094 6.094-4.142 0-7.5 3.358-7.5 7.5s3.358 7.5 7.5 7.5c11.631 0 21.094-9.463 21.094-21.094v-9.948c5.08 3.271 11.123 5.171 17.602 5.171 17.977 0 32.603-14.625 32.603-32.602zm-15 0c0 9.706-7.896 17.602-17.603 17.602-9.706 0-17.602-7.896-17.602-17.602v-2.538h35.205z"/><path d="m347.45 121.557c-.925-4.038-4.951-6.558-8.986-5.635-.297.068-30.077 6.811-61.777 6.811-31.625 0-61.48-6.743-61.778-6.811-4.037-.924-8.059 1.598-8.984 5.635-.925 4.038 1.597 8.061 5.635 8.986 1.281.293 31.748 7.189 65.128 7.189s63.848-6.896 65.128-7.189c4.037-.925 6.56-4.948 5.634-8.986z"/><path d="m237.148 266.746c26.424 20.608 52.639 20.621 79.079 0 9.485-7.397 16.994-16.081 20.542-21.269 3.4-4.97-.169-11.734-6.19-11.734h-107.784c-6.022 0-9.59 6.764-6.19 11.734 3.548 5.189 11.057 13.871 20.543 21.269zm76.962-18.002c-9.229 8.84-22.938 18.477-37.423 18.477s-28.194-9.637-37.422-18.477z"/><path d="m276.687 362.477c10.425 0 19.182-5.358 25.323-15.496 4.139-6.833 5.623-13.48 5.778-14.216.857-4.052-1.732-8.033-5.785-8.89-4.056-.858-8.032 1.733-8.89 5.785-.01.047-1.074 4.828-3.933 9.548-5.009 8.268-10.643 8.268-12.494 8.268-12.367 0-16.394-17.666-16.427-17.816-.857-4.053-4.839-6.645-8.89-5.785-4.053.857-6.643 4.837-5.785 8.89.155.735 1.64 7.383 5.778 14.216 6.143 10.138 14.9 15.496 25.325 15.496z"/><path d="m276.341 490.446c4.142 0 7.5-3.358 7.5-7.5v-70.761c0-10.294 8.375-18.669 18.669-18.669h60.599c4.142 0 7.5-3.358 7.5-7.5s-3.358-7.5-7.5-7.5h-60.599c-10.555 0-19.991 4.883-26.169 12.508-6.178-7.625-15.614-12.508-26.169-12.508h-60.6c-4.142 0-7.5 3.358-7.5 7.5s3.358 7.5 7.5 7.5h60.6c10.294 0 18.669 8.375 18.669 18.669v70.761c0 4.142 3.358 7.5 7.5 7.5z"/><path d="m39.11 256.821c3.214 3.207 8.099 3.992 12.156 1.95l11.69-5.879c.847 9.147 2.62 18.152 5.299 26.889 1.215 3.96 5.412 6.188 9.369 4.972 3.96-1.214 6.186-5.409 4.972-9.369-3.399-11.083-5.154-22.659-5.217-34.408-.03-5.569-5.913-9.155-10.87-6.66l-9.927 4.992 28.629-57.259 28.629 57.259-10.593-5.327c-4.988-2.508-10.891 1.134-10.87 6.728.102 27.636 10.922 53.621 30.468 73.167l2.486 2.486c-5.364 1.337-10.46 3.361-15.188 5.973-4.709-4.948-8.993-10.283-12.758-15.895-2.309-3.44-6.969-4.357-10.407-2.048-3.439 2.308-4.356 6.967-2.049 10.407 3.859 5.75 8.198 11.24 12.94 16.375-12.591 11.57-20.494 28.165-20.494 46.572v126.769c0 4.142 3.358 7.5 7.5 7.5h383.62c4.142 0 7.5-3.358 7.5-7.5v-70.033c0-4.142-3.358-7.5-7.5-7.5s-7.5 3.358-7.5 7.5v62.533h-52.063v-79.709c0-4.142-3.358-7.5-7.5-7.5s-7.5 3.358-7.5 7.5v79.709h-234.492v-79.709c0-4.142-3.358-7.5-7.5-7.5s-7.5 3.358-7.5 7.5v79.709h-52.063v-119.269c0-26.607 21.646-48.254 48.253-48.254h80.759c8.535 0 15.479-6.944 15.479-15.479v-18.796c13.95 7.525 28.406 12.003 39.819 12.003s25.869-4.478 39.818-12.003v18.795c0 8.535 6.944 15.479 15.479 15.479h80.759c26.607 0 48.254 21.646 48.254 48.254v21.735c0 4.142 3.358 7.5 7.5 7.5s7.5-3.358 7.5-7.5v-21.735c0-34.878-28.375-63.254-63.254-63.254h-80.759c-.264 0-.479-.215-.479-.479v-28.257c20.543-15.012 37.135-36.624 39.008-62.055l.27-3.671c22.601-2.079 40.361-21.143 40.361-44.277v-50.055c0-6.242-7.224-9.77-12.145-5.889l-22.122 17.451c.433-6.442.252-12.923-.54-19.275-.513-4.11-4.26-7.023-8.37-6.515-4.11.512-7.027 4.26-6.515 8.37.696 5.589.837 11.3.419 16.975l-6.318 85.785c-1.77 24.043-20.343 41.536-31.256 49.823-12.557 9.535-32.811 19.798-47.61 19.798s-35.054-10.263-47.611-19.798c-10.913-8.288-29.486-25.78-31.256-49.823l-6.318-85.785c-1.418-19.257 3.542-37.919 14.088-53.652l2.789 6.244c6.501 14.557 24.229 20.392 38.131 12.366 13.83-7.985 17.759-26.232 8.357-39.205l-8.611-11.88c19.141-7.321 41.182-7.527 60.863 0l-8.611 11.88c-9.372 12.93-5.519 31.195 8.356 39.205 13.831 7.985 31.598 2.264 38.131-12.366l2.782-6.229c1.2 1.796 2.332 3.637 3.39 5.515 1.378 2.444 3.921 3.819 6.541 3.819 5.687 0 9.355-6.165 6.527-11.184-2.746-4.872-5.908-9.525-9.431-13.884l17.53-39.253c4.194-9.392.639-20.353-8.268-25.494-8.908-5.143-20.176-2.741-26.212 5.587l-21.669 29.896c-24.438-10.494-53.366-11.005-78.994 0l-21.67-29.895c-6.036-8.328-17.304-10.729-26.213-5.587-8.908 5.143-12.462 16.103-8.268 25.494l17.529 39.25c-15.985 19.728-23.788 44.312-22.073 69.818l-22.122-17.45c-4.905-3.867-12.145-.374-12.145 5.889v50.055c0 23.135 17.759 42.199 40.361 44.277l.27 3.671c1.873 25.438 18.453 47.034 39.007 62.055v28.257c0 .264-.215.479-.479.479h-76.714l-11.223-11.222c-13.704-13.704-22.396-31.104-25.138-49.95l10.841 5.452c4.057 2.041 8.942 1.257 12.156-1.95 3.215-3.207 4.01-8.09 1.979-12.152l-36.698-73.396c-4.681-9.362-18.07-9.388-22.765 0l-36.695 73.396c-2.03 4.061-1.235 8.944 1.979 12.151zm357.035-81.068c0 14.462-10.475 26.525-24.235 29.001l3.477-47.212 20.758-16.375zm-46.146-158.666c1.52-2.097 4.346-2.682 6.567-1.4 2.231 1.289 3.122 4.035 2.071 6.388-3.068 6.87-22.303 49.939-27.339 61.216-2.874 6.435-10.714 9.083-16.935 5.492-6.214-3.588-7.854-11.696-3.711-17.412 47.697-65.804 8.468-11.682 39.347-54.284zm-153.191-1.4c2.217-1.28 5.045-.7 6.567 1.4.593.818 35.537 49.029 39.346 54.284 2.018 2.784 2.734 6.169 2.018 9.532-1.475 6.92-8.609 11.111-15.418 8.901-3.271-1.061-5.844-3.374-7.246-6.513-38.747-86.764-23.179-51.904-27.338-61.217-1.051-2.353-.161-5.098 2.071-6.387zm-39.578 160.066v-34.586l20.758 16.375 3.477 47.213c-13.761-2.476-24.235-14.539-24.235-29.002z"/></svg>