<svg id="Capa_1" enable-background="new 0 0 512 512" height="512" viewBox="0 0 512 512" width="512" xmlns="http://www.w3.org/2000/svg"><path d="m256.451 356.148c12.693 0 23.386-6.575 30.921-19.014 5.263-8.688 7.139-17.368 7.216-17.733.857-4.052-1.733-8.033-5.785-8.89-4.053-.859-8.033 1.732-8.891 5.785-.053.249-5.465 24.852-23.461 24.852-17.842 0-23.412-24.625-23.462-24.852-.857-4.052-4.841-6.646-8.89-5.785-4.052.857-6.643 4.837-5.785 8.89.077.365 1.953 9.045 7.216 17.733 7.535 12.439 18.227 19.014 30.921 19.014z"/><path d="m426.519 290.623c-40.691-9.92-36.76-8.903-37.752-9.324-13.059-14.108-22.432-25.029-41.069-37.81 4.092-10.632 6.608-23.148 7.698-37.948l.306-4.155h6.37c20.767 0 39.094-12.488 46.691-31.816l22.705-57.768c2.294-5.837-3.196-11.765-9.196-9.909l-60.623 18.751c.725-9.85 1.56-18.789-.758-32.323-.7-4.083-4.579-6.83-8.659-6.125-4.083.7-6.825 4.576-6.126 8.659 1.252 7.303 1.607 14.794 1.057 22.267-7.336 99.604-5.412 73.484-5.905 80.182-.97 11.473-1.251 31.654-9.486 49.298-.708 1.256-3.708 8.607-10.876 15.964-13.396 13.75-34.623 20.434-64.894 20.434-30.27 0-51.497-6.684-64.894-20.434-4.154-4.263-7.617-9.236-10.434-15.037-.124-.314-.271-.623-.44-.925-8.886-19.036-8.595-41.714-9.487-49.296-.515-6.989 1.423 19.319-5.905-80.186-1.888-25.625 6.705-50.105 24.193-68.93 41.937-45.14 115.029-36.47 145.856 16.013 2.098 3.573 6.694 4.765 10.266 2.668 3.571-2.098 4.766-6.694 2.668-10.265-19.061-32.45-54.245-52.608-91.824-52.608-29.479 0-57.892 12.386-77.957 33.982-20.063 21.596-30.329 50.843-28.164 80.241l.473 6.421-60.623-18.751c-5.992-1.853-11.494 4.062-9.196 9.909 24.467 62.251 23.317 59.835 25.688 64.044 1.377 2.446 3.921 3.821 6.542 3.821 5.672 0 9.36-6.154 6.528-11.182-1.658-2.944-.724-.921-19.09-47.652l51.336 15.879 3.658 49.674c-5.309 0-8.406.172-12.974-.853-4.04-.906-8.053 1.634-8.96 5.675-.907 4.042 1.634 8.053 5.675 8.96 6.4 1.436 10.541 1.217 17.364 1.217l.306 4.155c1.09 14.8 3.606 27.316 7.699 37.948-18.739 12.851-28.205 23.913-41.213 37.965l-37.608 9.169c-15.943 3.887-30.306 13.134-40.443 26.04-3.892 4.956-.279 12.133 5.893 12.133 2.223 0 4.423-.984 5.903-2.868 8.071-10.275 19.507-17.638 32.2-20.732l35.704-8.705 17.4 17.4c2.929 2.929 7.678 2.929 10.606 0 2.929-2.929 2.929-7.678 0-10.606l-15.28-15.28 7.549-8.155c7.847-8.477 16.569-16.109 26.003-22.762 18.034 28.976 50.705 36.91 84.981 36.91 34.267 0 66.944-7.929 84.982-36.91 16.083 11.341 24.646 21.295 33.984 31.382l-14.814 14.813c-2.929 2.929-2.929 7.678 0 10.606 2.929 2.929 7.677 2.929 10.607 0l17.224-17.224 34.982 8.528c26.328 6.418 44.716 29.827 44.716 56.931 0 17.3-7.521 33.694-20.636 44.979-3.793 3.263-3.385 9.271.825 11.987 12.404 8.005 19.811 21.598 19.811 36.361v41.55h-71.389v-85.334c0-4.142-3.357-7.5-7.5-7.5s-7.5 3.358-7.5 7.5v85.334h-117.792v-84.209c0-14.566 11.851-26.416 26.416-26.416h69.975c4.143 0 7.5-3.358 7.5-7.5s-3.357-7.5-7.5-7.5h-69.975c-14.01 0-26.418 6.993-33.916 17.672-7.498-10.679-19.906-17.672-33.916-17.672h-69.975c-4.142 0-7.5 3.358-7.5 7.5s3.358 7.5 7.5 7.5h69.975c14.566 0 26.416 11.85 26.416 26.416v84.209h-117.792v-85.334c0-4.142-3.358-7.5-7.5-7.5s-7.5 3.358-7.5 7.5v85.334h-71.388v-41.546c0-14.763 7.406-28.356 19.81-36.361 4.204-2.713 4.622-8.72.825-11.987-15.457-13.3-22.56-33.102-20.189-52.225.51-4.111-2.409-7.856-6.52-8.366-4.113-.51-7.855 2.41-8.366 6.52-2.657 21.421 4.16 43.024 18.749 59.074-12.226 10.955-19.309 26.59-19.309 43.345v49.046c0 4.142 3.358 7.5 7.5 7.5h438.361c4.143 0 7.5-3.358 7.5-7.5v-49.046c0-16.754-7.083-32.389-19.31-43.345 12.363-13.602 19.31-31.374 19.31-49.986 0-34.037-23.095-63.438-56.163-71.5zm-14.718-169.79-16.999 43.25c-5.325 13.549-18.173 22.303-32.73 22.303h-5.265l3.658-49.674z"/><path d="m302.699 243.241 3.106 3.106c2.93 2.929 7.678 2.929 10.607 0s2.929-7.678 0-10.606l-3.107-3.107c-3.265-3.265-7.135-5.704-11.358-7.212l7.077-17.742c1.962-4.916-1.664-10.279-6.966-10.279h-9.359c-12.59 0-23.737 7.556-28.401 19.249-.001 0-.001 0-.001 0l-2.788 6.99h-11.022l-2.788-6.99c-4.664-11.693-15.813-19.249-28.401-19.249h-9.359c-5.294 0-8.93 5.354-6.966 10.279l7.077 17.743c-7.207 2.576-10.727 6.588-14.457 10.318-2.929 2.929-2.929 7.678 0 10.606 2.929 2.929 7.678 2.929 10.606 0l3.112-3.112c2.963-2.963 6.903-4.595 11.094-4.595h71.189c4.194 0 8.138 1.634 11.105 4.601zm-77.213-19.601-4.444-11.144c5.683.628 10.565 4.3 12.724 9.711l.571 1.433zm52.172 0 .572-1.433c2.158-5.411 7.041-9.082 12.724-9.71l-4.444 11.144h-8.852z"/><path d="m326.819 134.541c2.929-2.929 2.929-7.678 0-10.606-2.93-2.929-7.678-2.929-10.607 0l-2.591 2.591c-4.505 4.505-10.495 6.986-16.866 6.986h-27.304c-4.143 0-7.5 3.358-7.5 7.5s3.357 7.5 7.5 7.5h27.304c10.378 0 20.135-4.042 27.474-11.38z"/><path d="m195.791 123.935c-2.929-2.929-7.678-2.929-10.606 0-2.929 2.929-2.929 7.678 0 10.606l2.584 2.584c7.342 7.343 17.104 11.386 27.488 11.386h28.193c4.142 0 7.5-3.358 7.5-7.5s-3.358-7.5-7.5-7.5h-28.193c-6.377 0-12.373-2.483-16.882-6.993z"/><path d="m229.528 108.067h52.946c9.657 0 18.737-3.761 25.575-10.598 2.929-2.929 2.925-7.674-.004-10.603s-7.681-2.926-10.609.003c-3.997 3.997-9.311 6.198-14.962 6.198h-52.946c-5.569 0-11.024-2.26-14.965-6.202-2.904-2.921-7.669-2.943-10.609-.002-2.929 2.929-2.929 7.678 0 10.606 6.083 6.243 15.542 10.598 25.574 10.598z"/><path d="m237.432 248.64c-4.142 0-7.5 3.358-7.5 7.5s3.358 7.5 7.5 7.5h37.139c4.143 0 7.5-3.358 7.5-7.5s-3.357-7.5-7.5-7.5z"/><path d="m237.212 171.066-3.814 3.814c-2.929 2.929-2.929 7.678 0 10.606 2.929 2.929 7.678 2.929 10.606 0l3.814-3.814c2.929-2.929 2.929-7.678 0-10.606-2.928-2.928-7.677-2.928-10.606 0z"/><path d="m278.605 185.486c2.929-2.929 2.929-7.678-.001-10.606l-3.814-3.814c-2.928-2.929-7.677-2.929-10.606.001-2.929 2.929-2.929 7.678.001 10.606l3.814 3.814c2.927 2.929 7.676 2.929 10.606-.001z"/></svg>