<svg id="Capa_1" enable-background="new 0 0 511.856 511.856" height="512" viewBox="0 0 511.856 511.856" width="512" xmlns="http://www.w3.org/2000/svg"><path d="m255.928 380.845c-4.143 0-7.5 3.358-7.5 7.5v86.011c0 4.142 3.357 7.5 7.5 7.5s7.5-3.358 7.5-7.5v-86.011c0-4.142-3.357-7.5-7.5-7.5z"/><path d="m467.609 370.527c0-37.494-29.988-67.997-66.85-67.997h-59.948l21.551-25.943c2.646-3.187 2.209-7.915-.978-10.562-3.185-2.646-7.913-2.21-10.562.977l-21.315 25.66c-3.528-4.651-9.809-6.854-15.708-4.837v-16.582c20.65-15.033 37.697-36.407 41.102-61.782h43.721l-25.649 30.876c-2.646 3.186-2.209 7.915.978 10.562 3.178 2.641 7.909 2.216 10.562-.977l35.86-43.169c4.044-4.87.586-12.292-5.77-12.292h-38.624c13.535-8.223 22.596-23.109 22.596-40.07v-33.478c0-4.911-4.654-8.507-9.419-7.25l-27.614 7.308 2.322-31.527c3.554-48.248-34.719-89.444-83.101-89.444h-49.671c-32.748 0-62.595 19.314-76.04 49.204-1.699 3.777-.015 8.217 3.763 9.917 3.776 1.699 8.218.016 9.917-3.763 11.027-24.517 35.506-40.358 62.36-40.358h49.671c39.52 0 71.076 33.466 68.141 73.343-.632 8.586 1.924-26.112-4.347 59.021l-3.27-3.27c-6.864-6.863-10.993-16.2-10.993-26.541 0-18.287-14.916-32.602-32.573-32.595l6.31-24.925c1.017-4.016-1.414-8.095-5.43-9.111-4.019-1.018-8.095 1.415-9.111 5.43l-8.338 32.936c-17.745 8.018-16.768 7.598-17.723 7.955v-44.123c0-4.142-3.357-7.5-7.5-7.5s-7.5 3.358-7.5 7.5v44.123c-.935-.349.096.096-17.723-7.956l-8.338-32.936c-1.018-4.016-5.093-6.445-9.111-5.43-4.016 1.017-6.446 5.096-5.43 9.111l6.31 24.925c-17.631-.007-32.573 14.279-32.573 32.595 0 10.026-3.904 19.452-10.994 26.541l-3.269 3.269c-1.061-14.403-3.285-44.602-4.347-59.02-.305-4.131-3.896-7.237-8.03-6.929-4.131.305-7.233 3.9-6.929 8.031l2.322 31.527-27.614-7.308c-4.756-1.256-9.419 2.331-9.419 7.25v33.478c0 16.962 9.06 31.847 22.596 40.07h-38.626c-6.329 0-9.83 7.403-5.77 12.292l79.561 95.776h-59.949c-36.861 0-66.85 30.503-66.85 67.997v103.251c0 5.754 4.462 10.33 10 10.721v19.857c0 4.142 3.357 7.5 7.5 7.5h388.361c4.143 0 7.5-3.358 7.5-7.5v-19.855c5.538-.391 10-4.967 10-10.721v-103.252zm-15 0v92.973l-83.56-83.56 10.205-10.402c2.779-2.833 2.871-7.34.209-10.283l-37.737-41.724h59.033c28.59 0 51.85 23.774 51.85 52.996zm-120.007 35.65 20.669 21.069-48.046 69.61h-13.218l23.542-108.697c8.397 1.703 16.781-4.666 16.781-13.779v-44.878l31.27 34.573c-24.855 25.336-12.444 12.685-30.997 31.596-2.863 2.918-2.863 7.589-.001 10.506zm-105.8 51.915c-.876-4.048-4.862-6.618-8.918-5.743-4.048.877-6.619 4.869-5.742 8.917l7.708 35.59h-13.219l-48.046-69.61 20.669-21.069c2.862-2.917 2.862-7.588 0-10.505l-30.996-31.596 31.269-34.572v44.877c0 9.005 8.277 15.502 16.781 13.779l8.319 38.411c.876 4.047 4.866 6.619 8.918 5.743 4.048-.877 6.619-4.869 5.742-8.917l-9.103-42.032 22.526-12.151c1.634 1.033 3.568 1.632 5.639 1.632h35.158c2.072 0 4.006-.599 5.639-1.632l22.526 12.151-25.013 115.492h-41.461zm.968-137.416v9.579h-13.793c-4.143 0-7.5 3.358-7.5 7.5s3.357 7.5 7.5 7.5h13.793v9.58c-9.098 4.908-22.974 12.393-33.243 17.933 0-9.564 0-64.452 0-70.025 42.643 23.004 30.512 16.46 33.243 17.933zm41.316 35.169h-26.316v-36.18h26.316zm48.244 16.923c-11.867-6.402-22.897-12.352-33.243-17.933v-9.58h13.793c4.143 0 7.5-3.358 7.5-7.5s-3.357-7.5-7.5-7.5h-13.793v-9.579c7.103-3.831-12.348 6.661 33.243-17.933zm-18.531-77.071-19.652 10.602c-1.634-1.033-3.568-1.633-5.64-1.633h-35.158c-2.072 0-4.006.599-5.64 1.633l-19.651-10.601v-14.948c14.997 8.206 30.601 13.105 42.87 13.105 12.27 0 27.874-4.899 42.871-13.105zm84.775-165.039v23.734c0 15.847-11.634 29.028-26.81 31.451 2.287-31.063 1.278-17.359 3.612-49.046zm-202.399 24.043c9.923-9.922 15.388-23.115 15.388-37.148 0-12.627 12.715-20.866 24.045-16.347.47.269.969.488 1.488.652l18.832 8.51c9.431 4.261 20.363 4.355 29.999 0l18.836-8.51c.518-.163 1.015-.381 1.484-.65 11.323-4.521 24.047 3.714 24.047 16.347 0 14.034 5.465 27.226 15.387 37.147l12.421 12.421c-.421 5.722-2.316 31.467-2.736 37.174-1.899 25.783-21.78 44.515-33.463 53.386-13.429 10.197-35.107 21.173-50.974 21.173s-37.545-10.976-50.974-21.173c-11.682-8.871-31.563-27.604-33.462-53.386-.618-8.388-2.434-33.051-2.737-37.174zm-52.892-24.043 23.198 6.14c.738 10.022 2.878 39.072 3.612 49.046-15.176-2.422-26.811-15.604-26.811-31.451v-23.735zm28.674 78.804c3.41 25.413 20.474 46.763 41.102 61.782v16.582c-5.917-2.024-12.191.199-15.709 4.836l-69.115-83.2zm-97.709 161.065c0-29.223 23.26-52.997 51.85-52.997h59.034l-37.737 41.724c-2.662 2.943-2.57 7.45.209 10.283l10.204 10.402-83.56 83.56zm10 104.186 84.065-84.065 10.081 10.277-19.851 20.235c-2.517 2.565-2.86 6.555-.819 9.513l45.681 66.184h-57.769v-40.641c0-4.142-3.357-7.5-7.5-7.5s-7.5 3.358-7.5 7.5v40.641h-46.388zm326.972 22.143v-40.641c0-4.142-3.357-7.5-7.5-7.5s-7.5 3.358-7.5 7.5v40.641h-57.769l45.681-66.184c2.041-2.958 1.697-6.947-.819-9.513l-19.851-20.235 10.082-10.276 84.065 84.065v22.143z"/><path d="m201.653 154.523h40.682c4.143 0 7.5-3.358 7.5-7.5s-3.357-7.5-7.5-7.5h-40.682c-4.143 0-7.5 3.358-7.5 7.5s3.357 7.5 7.5 7.5z"/><path d="m255.928 208.497c11.632 0 21.095-9.463 21.095-21.094v-26.785c0-3.36 2.733-6.094 6.094-6.094h27.087c4.143 0 7.5-3.358 7.5-7.5s-3.357-7.5-7.5-7.5h-27.087c-11.631 0-21.094 9.463-21.094 21.094v26.785c0 3.36-2.734 6.094-6.095 6.094-4.143 0-7.5 3.358-7.5 7.5s3.358 7.5 7.5 7.5z"/><path d="m296.778 225.935c-2.458-3.267-7.096-3.928-10.369-1.477l-3.735 2.797s-7.695 5.763-26.747 5.763-26.747-5.763-26.747-5.763l-3.735-2.797c-3.272-2.451-7.911-1.79-10.368 1.477-2.4 3.191-1.843 7.709 1.261 10.22l3.147 2.546s1.867 1.511 4.635 2.933v5.333c0 4.107 3.165 7.688 7.27 7.811 4.248.127 7.73-3.278 7.73-7.497v-.74c10.333 1.962 23.166 1.984 33.615 0v.74c0 4.218 3.482 7.623 7.73 7.497 4.105-.123 7.27-3.704 7.27-7.811v-5.333c2.767-1.422 4.635-2.933 4.635-2.933l3.147-2.546c3.104-2.511 3.662-7.029 1.261-10.22z"/></svg>