<svg id="Capa_1" enable-background="new 0 0 512 512" height="512" viewBox="0 0 512 512" width="512" xmlns="http://www.w3.org/2000/svg"><path d="m286.754 250.88c3.688 0 6.902-2.722 7.42-6.478.565-4.104-2.303-7.888-6.406-8.453-20.261-2.791-41.939-2.976-63.534 0-4.104.565-6.972 4.35-6.406 8.453.564 4.104 4.356 6.972 8.453 6.406 33.661-4.636 57.801.072 60.473.072z"/><path d="m248.109 259.131c-4.143 0-7.5 3.357-7.5 7.5s3.357 7.5 7.5 7.5h15.781c4.143 0 7.5-3.357 7.5-7.5s-3.357-7.5-7.5-7.5z"/><path d="m473.71 504.489-.176-122.545c-.039-25.564-15.402-48.216-39.14-57.707-.046.119.266.104-2.396-.952l-68.609-27.238c-1.095-4.242-3.749-7.958-7.415-10.37l2.726-2.46c7.4-6.677 10.069-17.076 6.801-26.489l-.453-1.307c-1.357-3.913-5.627-5.986-9.543-4.629-3.914 1.357-5.986 5.63-4.629 9.543l.454 1.31c1.288 3.709.236 7.806-2.679 10.436l-73.89 66.668 18.957-47.905c1.524-3.852-.362-8.21-4.214-9.733-3.851-1.523-8.21.362-9.733 4.214l-23.771 60.069-23.77-60.07c-1.524-3.853-5.883-5.738-9.733-4.214-3.852 1.523-5.738 5.882-4.214 9.733l18.957 47.905-73.891-66.669c-2.914-2.629-3.966-6.725-2.678-10.435l15.953-45.939c.304-.816.463-1.68.469-2.559.019-2.088-5.54-73.978-5.705-78.697h11.715c.071 1.768-.337-4.012 5.03 68.854.994 13.523 13.227 23.431 26.674 21.581 26.238-3.614 54.315-3.866 82.391 0 13.395 1.857 25.674-8.022 26.673-21.58 5.367-72.876 4.959-67.094 5.029-68.854h11.715c-.129 3.685-5.733 77.806-5.703 78.849.024.836.182 1.641.467 2.406l4.036 11.622c1.358 3.912 5.628 5.984 9.545 4.625 3.913-1.358 5.983-5.633 4.625-9.545l-.852-2.453c20.808-3.56 36.695-21.725 36.695-43.532v-2.157c0-15.009-12.211-27.219-27.22-27.219h-7.415c.496-6.737.737-9.458.829-12.599 10.278-.15 18.593-8.557 18.593-18.87v-4.789c0-7.743-4.687-14.411-11.372-17.317v-85.971c0-2.985-1.77-5.686-4.507-6.877-2.738-1.191-5.92-.646-8.104 1.388l-37.269 34.703c-3.029 2.822-3.2 7.569-.377 10.602 1.465 1.572 2.271 3.622 2.271 5.772 0 4.673-3.801 8.474-8.473 8.474s-8.474-3.801-8.474-8.474c0-2.105.777-4.124 2.189-5.684 2.778-3.069 2.542-7.815-.528-10.595l-38.539-34.87c-2.857-2.584-7.207-2.584-10.064 0l-38.538 34.871c-3.069 2.778-3.308 7.524-.528 10.595 1.412 1.56 2.189 3.578 2.189 5.684 0 4.673-3.802 8.474-8.474 8.474s-8.473-3.801-8.473-8.474c0-2.15.807-4.2 2.271-5.772 2.821-3.031 2.655-7.777-.377-10.602l-37.267-34.704c-2.184-2.033-5.366-2.579-8.104-1.388-2.737 1.191-4.507 3.892-4.507 6.877v85.972c-6.685 2.906-11.372 9.575-11.372 17.317v4.789c0 10.313 8.315 18.72 18.593 18.87.093 3.148.276 5.086.829 12.599h-7.416c-15.009 0-27.219 12.21-27.219 27.219v2.157c0 21.807 15.887 39.972 36.694 43.532l-12.769 36.77c-3.27 9.417-.601 19.816 6.8 26.492l2.726 2.459c-3.667 2.412-6.32 6.129-7.415 10.371l-68.609 27.238c-2.664 1.057-2.349 1.071-2.396.952-23.737 9.491-39.101 32.143-39.141 57.708l-.175 122.544c-.006 4.143 3.354 7.511 7.5 7.511h420.42c4.143 0 7.506-3.365 7.5-7.511zm-171.537-7.489h-23.771v-141.333l23.771-21.447zm-51.197-125.654c2.7 2.454 6.868 2.606 9.764.244.212-.173-.103.106 2.663-2.39v127.8h-14.804v-127.799zm48.265-161.32c-7.726-1.064-15.531-1.841-23.349-2.329.682-2.063 1.051-4.268 1.051-6.557v-26.487c0-3.277 2.666-5.944 5.943-5.944 29.089 0 27.3.084 28.505-.198l-2.481 33.693c-.36 4.886-4.759 8.495-9.669 7.822zm13.202-55.79c-.857-.341-1.791-.528-2.77-.528h-26.786c-11.548 0-20.943 9.396-20.943 20.944v26.487c0 3.277-2.666 5.943-5.943 5.943-14.658 0-28.996.981-43.24 2.942-4.882.673-9.307-2.907-9.669-7.822l-2.482-33.693c1.196.28-2.062.198 41.948.198 4.143 0 7.5-3.357 7.5-7.5s-3.357-7.5-7.5-7.5h-40.23c-.978 0-1.912.187-2.769.528-1.327-18.012-1.386-18.691-1.441-19.785h115.766c-.053 1.038.083-.908-1.441 19.786zm49.763 7.811c6.738 0 12.22 5.481 12.22 12.219v2.157c0 14.288-10.328 26.209-23.911 28.69l3.172-43.066zm-209.419-46.469v-4.789c0-2.135 1.737-3.872 3.872-3.872h139.801c4.143 0 7.5-3.357 7.5-7.5s-3.357-7.5-7.5-7.5h-132.301v-67.185l20.064 18.684c-7.019 15.513 4.394 33.146 21.394 33.146 16.867 0 28.262-17.374 21.528-32.838l28.855-26.11 28.854 26.109c-6.727 15.448 4.645 32.838 21.528 32.838 17.026 0 28.398-17.664 21.394-33.146l20.064-18.684v67.186h-16.38c-4.143 0-7.5 3.357-7.5 7.5s3.357 7.5 7.5 7.5h23.881c2.135 0 3.872 1.737 3.872 3.872v4.789c0 2.135-1.737 3.872-3.872 3.872-71.026 0-141.618 0-198.682 0-2.134 0-3.872-1.737-3.872-3.872zm-15.213 60.845v-2.157c0-6.737 5.481-12.219 12.219-12.219h8.52l3.172 43.066c-13.583-2.481-23.911-14.401-23.911-28.69zm-84.109 205.545c.03-19.404 11.691-36.597 29.707-43.802.521-.208 40.612-16.125 64.883-25.76v184.594h-25v-69.328c0-4.143-3.357-7.5-7.5-7.5s-7.5 3.357-7.5 7.5v69.328h-54.754zm109.59-81.548c0-1.098.691-2.09 1.722-2.468l3.45-1.268 26.6 24v25.093c0 4.143 3.357 7.5 7.5 7.5s7.5-3.357 7.5-7.5v-11.559l23.772 21.449v141.333h-23.772v-116.222c0-4.143-3.357-7.5-7.5-7.5s-7.5 3.357-7.5 7.5v116.222h-31.771c-.001-8.521-.001-188.063-.001-196.58zm154.118 20.265 26.601-24.001 3.449 1.267c1.03.379 1.723 1.371 1.723 2.469v196.58h-31.772v-176.315zm86.772 176.315v-69.328c0-4.143-3.357-7.5-7.5-7.5s-7.5 3.357-7.5 7.5v69.328h-25v-184.594c62.869 24.959 64.773 25.723 64.881 25.759 18.018 7.204 29.679 24.398 29.708 43.802l.165 115.033z"/></svg>