<svg id="Capa_1" enable-background="new 0 0 511.963 511.963" height="512" viewBox="0 0 511.963 511.963" width="512" xmlns="http://www.w3.org/2000/svg"><path d="m255.981 267.72c-4.573 0-8.294-3.721-8.294-8.294 0-4.143-3.357-7.5-7.5-7.5s-7.5 3.357-7.5 7.5c0 12.845 10.449 23.294 23.294 23.294s23.294-10.449 23.294-23.294c0-4.143-3.357-7.5-7.5-7.5s-7.5 3.357-7.5 7.5c0 4.573-3.72 8.294-8.294 8.294z"/><path d="m421.035 442.73c4.143 0 7.5-3.357 7.5-7.5v-14.823c0-35.707-26.876-65.255-61.463-69.477.851-.678 1.682-1.34 2.49-1.983 12.664-10.089 16.741-27.39 9.915-42.071l-16.416-35.312c9.863-7.71 15.763-19.572 15.763-32.362v-8.629c0-12.204-10.542-21.784-22.687-20.597l-8.928.865c.376-5.101.611-7.678.675-11.079h20.887c11.666 0 22.119-6.952 26.629-17.712l7.689-18.343c5.693-13.581-4.277-28.633-19.045-28.633-8.343 0-15.818 4.972-19.045 12.667l-1.668 3.979c-.654 1.562-2.172 2.571-3.866 2.571h-6.184l2.752-28.56c.305-3.173-.797-6.422-3.166-8.781l9.591-108.794c.388-4.391-3.079-8.156-7.47-8.156h-198.013c-4.392 0-7.858 3.767-7.471 8.158l5.04 57.171c.363 4.127 4.011 7.193 8.129 6.813 4.127-.363 7.177-4.003 6.813-8.129l-4.321-49.013h181.633l-8.707 98.772h-28.454v-8.121c0-4.143-3.357-7.5-7.5-7.5h-92.59c-4.143 0-7.5 3.357-7.5 7.5v8.121h-28.175l-1.147-13.005c-.363-4.125-3.989-7.181-8.13-6.812-4.126.363-7.176 4.003-6.812 8.13l1.289 14.617c-2.502 2.331-3.744 5.69-3.423 9.029l2.751 28.561h-5.904c-1.694 0-3.212-1.01-3.866-2.571l-1.668-3.98c-6.382-15.219-27.138-17.134-36.239-3.452-3.837 5.769-4.529 13.028-1.851 19.419l7.689 18.343c4.51 10.76 14.963 17.712 26.629 17.712h20.887c.063 3.402.261 5.459.675 11.079l-8.928-.865c-12.118-1.177-22.687 8.36-22.687 20.597v8.629c0 12.79 5.9 24.652 15.763 32.362l-16.416 35.312c-6.826 14.682-2.749 31.982 9.915 42.071.808.644 1.639 1.305 2.49 1.983-34.586 4.222-61.463 33.77-61.463 69.477v84.056c0 4.143 3.357 7.5 7.5 7.5h330.107c4.143 0 7.5-3.357 7.5-7.5v-34.234c0-4.143-3.357-7.5-7.5-7.5s-7.5 3.357-7.5 7.5v26.732h-43.079v-67.285c0-4.143-3.357-7.5-7.5-7.5s-7.5 3.357-7.5 7.5v67.285h-30.93l18.476-46.885c1.036-2.629.506-5.618-1.371-7.731l-12.376-13.927 17.871-21.933c2.283-2.803 2.243-6.836-.098-9.592l-15.228-17.932c5.863-4.648 11.62-9.219 17.07-13.55h9.672c30.324 0 54.995 24.67 54.995 54.994v14.823c0 4.144 3.358 7.501 7.5 7.501zm-63.45-217.824c3.315-.329 6.239 2.276 6.239 5.667v8.629c0 6.899-2.706 13.374-7.361 18.169l-10.946-23.546.575-7.805zm-26.889 5.93c-5.65-11.644-8.176-19.497-12.213-31.073h14.398c-.064 2.883-.072 2.385-2.185 31.073zm9.975-102.064-2.46 25.521h-28.574v-25.521zm-123.624-15.621h77.59v41.142h-11.034v-22.606c0-4.143-3.357-7.5-7.5-7.5h-40.521c-4.143 0-7.5 3.357-7.5 7.5v22.606h-11.034v-41.142zm51.556 41.142h-25.521v-15.106h25.521zm-97.59-25.521h31.034v25.521h-28.575zm-40.616 47.48-7.689-18.343c-1.057-2.52.002-4.555.507-5.313 2.525-3.797 8.193-3.16 9.915.945l1.668 3.979c2.998 7.151 9.945 11.772 17.7 11.772h206.967c7.755 0 14.702-4.621 17.7-11.772l1.668-3.979c.883-2.105 2.928-3.466 5.211-3.466 4.038 0 6.772 4.113 5.211 7.834l-7.689 18.343c-2.167 5.17-7.189 8.511-12.795 8.511-27.124 0-49.64 0-76.6 0-4.143 0-7.5 3.357-7.5 7.5s3.357 7.5 7.5 7.5h10.426l3.849 11.035h-29.638c-4.143 0-7.5 3.357-7.5 7.5s3.357 7.5 7.5 7.5h35.204c3.478 8.445 5.322 11.867 16.511 34.555l-1.573 21.36c-2.044 27.749-17.133 48.784-41.399 57.713-6.769 2.491-13.465 6.377-20.47 11.879-5.262 4.132-12.788 4.249-18.198.002-7.006-5.504-13.702-9.391-20.472-11.882-24.266-8.928-39.354-29.963-41.397-57.712l-1.573-21.36c10.173-20.628 12.951-25.912 16.51-34.555h35.204c4.143 0 7.5-3.357 7.5-7.5s-3.357-7.5-7.5-7.5h-29.638l3.85-11.035h47.805c4.143 0 7.5-3.357 7.5-7.5s-3.357-7.5-7.5-7.5c-13.89 0-99.865 0-113.979 0-5.606 0-10.629-3.341-12.796-8.511zm63.082 23.511c-4.013 11.506-6.543 19.388-12.213 31.073-2.125-28.858-2.12-28.196-2.186-31.073zm-45.34 39.439v-8.629c0-3.365 2.898-5.998 6.239-5.667l11.494 1.114.575 7.805-10.947 23.546c-4.656-4.795-7.361-11.27-7.361-18.169zm-2.052 73.998c.292-.628 3.048-6.557 22.622-48.659l1.346 18.274c2.493 33.874 21.146 59.639 51.177 70.688 5.272 1.939 10.633 5.08 16.387 9.6 10.634 8.35 25.803 8.578 36.728-.001 5.753-4.519 11.112-7.658 16.386-9.599 30.029-11.05 48.684-36.814 51.178-70.688l1.345-18.273c45.969 98.883 3.333 7.169 22.621 48.659 3.896 8.381 1.569 18.256-5.659 24.015-24.265 19.33-68.531 54.513-93.07 73.528-3.234 2.507-7.089 3.94-11.165 4.156-4.075-.216-7.93-1.649-11.165-4.156-24.487-18.974-68.7-54.114-93.07-73.528-7.23-5.76-9.558-15.635-5.661-24.016zm140.567 183.763h-23.173v-21.719l27.433-48.843zm-83.08.037-18.967-48.135 13.556-15.253c2.443-2.751 2.532-6.868.208-9.72l-17.963-22.045 11.522-13.567c4.165 3.295 8.316 6.574 12.38 9.78l5.975 98.94zm52.407-39.033-19.508-34.732c12.464 9.081 27.294 8.539 39.015.001zm-34.932-31.565 27.433 48.842v21.719h-23.172zm-122.621-5.995c0-30.324 24.671-54.994 54.995-54.994h9.672c5.45 4.331 11.207 8.902 17.07 13.55l-15.228 17.932c-2.341 2.756-2.381 6.789-.098 9.592l17.871 21.933-12.376 13.927c-1.877 2.113-2.407 5.103-1.371 7.731l18.474 46.886h-30.93v-67.285c0-4.143-3.357-7.5-7.5-7.5s-7.5 3.357-7.5 7.5v67.285h-43.079zm233.127-18.559-17.963 22.045c-2.324 2.852-2.235 6.969.208 9.72l13.556 15.253-18.967 48.134h-6.71l5.974-98.939c4.064-3.206 8.215-6.485 12.38-9.78z"/><path d="m255.981 325.499c-8.214 0-14.452-1.223-18.97-2.68-5.057-1.631-6.859-7.85-3.425-11.904 1.952-2.305 5.1-3.266 7.977-2.346 3.016.965 7.709 1.93 14.417 1.93s11.401-.965 14.417-1.93c2.877-.92 6.025.041 7.977 2.346 3.434 4.055 1.632 10.273-3.425 11.904-4.516 1.457-10.754 2.68-18.968 2.68z"/></svg>