<svg id="Capa_1" enable-background="new 0 0 511.992 511.992" height="512" viewBox="0 0 511.992 511.992" width="512" xmlns="http://www.w3.org/2000/svg"><path d="m278.196 326.51c-.049.232-5.094 23.165-21.775 23.165-6.713 0-12.132-3.48-16.565-10.642-3.782-6.108-5.201-12.482-5.21-12.523-.857-4.052-4.839-6.636-8.89-5.785-4.052.857-6.643 4.838-5.785 8.891.073.348 1.86 8.618 6.871 16.89 7.201 11.887 17.429 18.17 29.579 18.17s22.378-6.283 29.579-18.17c5.011-8.271 6.798-16.542 6.871-16.89.857-4.053-1.733-8.033-5.785-8.891-4.056-.853-8.033 1.734-8.89 5.785z"/><path d="m417.273 301.929c-38.3-9.338-34.833-8.448-35.538-8.756l-10.126-10.938c-8.543-9.228-18.088-17.487-28.438-24.614 3.814-10.022 6.164-21.794 7.187-35.684l.261-3.548c7.262 0 12.676.264 20.862-2.485 3.927-1.318 6.041-5.57 4.722-9.497s-5.572-6.045-9.498-4.722c-5.741 1.928-9.621 1.704-14.982 1.704l3.405-46.234 47.44-14.674-15.755 40.087c-1.516 3.854.381 8.208 4.236 9.724 3.873 1.52 8.215-.397 9.724-4.237l21.462-54.604c2.301-5.853-3.212-11.764-9.196-9.908l-56.727 17.546.403-5.469c3.794-51.524-32.177-97.624-82.502-106.773l-11.397-24.517c-2.683-5.771-10.916-5.776-13.602 0l-11.393 24.508c-27.767 5.037-52.142 21.491-67.339 45.614-2.208 3.505-1.157 8.136 2.348 10.344 3.489 2.198 8.125 1.173 10.343-2.348 10.933-17.355 27.434-30.049 46.535-36.16l-1.719 3.699c-3.435 7.389-1.314 16.008 5.158 20.959 13.462 10.299 32.271 10.3 45.736 0 6.473-4.952 8.594-13.571 5.158-20.96l-1.712-3.682c37.069 11.895 62.378 48.125 59.426 88.212-10.112 137.288 4.872-66.141-6.358 86.317-1.36 18.465-5.458 37.666-18.356 50.905-12.581 12.913-32.549 19.19-61.045 19.19s-48.464-6.277-61.045-19.19c-12.906-13.246-16.997-32.446-18.356-50.905-2.196-29.814-4.065-55.194-6.358-86.317-.511-6.949-.191-13.916.953-20.706.688-4.084-2.066-7.953-6.15-8.641-4.084-.692-7.954 2.065-8.642 6.15-2.114 12.554-1.347 21.22-.717 29.767l-56.727-17.546c-5.991-1.851-11.496 4.06-9.196 9.908l21.462 54.604c7.242 18.428 24.716 30.334 44.516 30.334h5.639l.261 3.548c1.023 13.89 3.373 25.663 7.186 35.684-17.469 12.029-26.201 22.198-38.673 35.671l-35.428 8.638c-31.442 7.665-53.401 35.621-53.401 67.987 0 17.553 6.501 34.323 18.082 47.215-11.454 10.418-18.082 25.187-18.082 41.001v46.36c0 4.143 3.358 7.5 7.5 7.5h414.355c4.142 0 7.5-3.357 7.5-7.5v-11.388c0-4.143-3.358-7.5-7.5-7.5s-7.5 3.357-7.5 7.5v3.888h-66.657v-80.25c0-4.143-3.358-7.5-7.5-7.5s-7.5 3.357-7.5 7.5v80.25h-110.522v-79.188c0-13.542 11.017-24.559 24.559-24.559h66.143c4.142 0 7.5-3.357 7.5-7.5s-3.358-7.5-7.5-7.5h-66.143c-13.174 0-24.865 6.474-32.059 16.408-7.193-9.934-18.884-16.408-32.059-16.408h-66.143c-4.142 0-7.5 3.357-7.5 7.5s3.358 7.5 7.5 7.5h66.143c13.542 0 24.559 11.017 24.559 24.559v79.188h-110.52v-80.25c0-4.143-3.358-7.5-7.5-7.5s-7.5 3.357-7.5 7.5v80.25h-66.658v-38.86c0-13.815 6.93-26.535 18.538-34.025 4.204-2.712 4.623-8.719.825-11.987-12.305-10.588-19.362-25.971-19.362-42.207 0-25.425 17.252-47.389 41.954-53.411l33.523-8.173 16.285 16.285c2.93 2.929 7.678 2.928 10.606 0 2.929-2.93 2.929-7.678 0-10.607l-14.163-14.164c8.938-9.655 16.423-18.266 31.027-28.626 17.244 27.32 48.237 34.713 80.446 34.713 32.199 0 63.199-7.389 80.446-34.713 14.857 10.54 22.769 19.705 31.435 29.067l-13.723 13.723c-2.929 2.929-2.929 7.678 0 10.606s7.678 2.929 10.606-.001l16.117-16.118 32.842 8.007c24.702 6.022 41.954 27.985 41.954 53.415 0 16.232-7.058 31.615-19.363 42.204-3.793 3.263-3.383 9.27.825 11.986 11.608 7.49 18.538 20.21 18.538 34.025 0 4.143 3.358 7.5 7.5 7.5s7.5-3.357 7.5-7.5c0-15.814-6.628-30.583-18.082-41.001 11.582-12.893 18.082-29.662 18.082-47.219 0-32.359-21.959-60.315-53.401-67.98zm-147.504-242.897c-8.098 6.195-19.41 6.195-27.508 0-.841-.643-1.116-1.763-.67-2.722 34.03-73.2-22.132 47.607 14.424-31.027 1.646 3.54 13.466 28.965 14.424 31.027.447.96.171 2.08-.67 2.722zm-114.035 144.356c-13.591 0-25.584-8.173-30.556-20.82l-15.755-40.087 47.44 14.674 3.405 46.234h-4.534z"/><path d="m198.603 250.161c-2.929 2.929-2.928 7.678.001 10.606 2.929 2.93 7.678 2.929 10.606-.001l2.94-2.94c2.694-2.694 6.266-4.19 10.07-4.223.03.001 67.284.001 67.414.001 3.953 0 7.546 1.561 10.21 4.227l2.937 2.937c2.93 2.929 7.678 2.928 10.606 0 2.929-2.93 2.929-7.678 0-10.607l-2.936-2.936c-3.026-3.027-6.596-5.313-10.489-6.768l3.785-9.49c1.535-3.848-.34-8.21-4.188-9.745-3.846-1.533-8.21.341-9.745 4.188l-5.262 13.192h-57.122l-5.262-13.192c-1.534-3.847-5.896-5.723-9.745-4.188-3.848 1.535-5.723 5.897-4.188 9.745l3.785 9.491c-6.608 2.472-9.83 6.115-13.417 9.703z"/><path d="m210.309 131.463c3.115 3.115 6.754 5.515 10.719 7.117-2.306 4.999-3.524 10.478-3.524 16.115 0 21.225 17.267 38.491 38.492 38.491s38.492-17.267 38.492-38.491c0-5.636-1.218-11.115-3.524-16.114 3.963-1.602 7.601-4 10.715-7.114 3.104-3.116 2.869-8.122-.363-10.95-3.004-2.628-7.515-2.429-10.28.379-3.257 3.238-7.578 5.021-12.173 5.021-8.208 0-24.399 0-45.4 0-5.064 0-9.29-1.804-12.546-5.061-2.93-2.93-7.678-2.929-10.607-.001-2.929 2.93-2.93 7.679-.001 10.608zm64.718 9.455c2.894 3.987 4.461 8.78 4.461 13.777 0 12.953-10.539 23.491-23.492 23.491s-23.492-10.538-23.492-23.491c0-4.997 1.567-9.79 4.461-13.777z"/><path d="m238.443 263.233c-4.142 0-7.5 3.357-7.5 7.5s3.358 7.5 7.5 7.5h35.105c4.142 0 7.5-3.357 7.5-7.5s-3.358-7.5-7.5-7.5z"/><path d="m237.946 204.28-3.605 3.604c-2.929 2.929-2.93 7.677-.001 10.606s7.677 2.93 10.607.001l3.605-3.604c2.929-2.929 2.93-7.677.001-10.606s-7.678-2.93-10.607-.001z"/><path d="m263.439 204.281c-2.929 2.929-2.928 7.678.001 10.606l3.605 3.604c2.929 2.928 7.678 2.929 10.606-.001 2.929-2.929 2.928-7.678-.001-10.606l-3.605-3.604c-2.928-2.928-7.677-2.929-10.606.001z"/><path d="m217.958 91.803c22.351 17.097 53.683 17.16 76.115 0 3.29-2.517 3.917-7.224 1.4-10.514s-7.224-3.915-10.514-1.4c-17.018 13.018-40.874 13.017-57.888 0-3.289-2.516-7.997-1.891-10.514 1.4-2.516 3.289-1.889 7.997 1.401 10.514z"/></svg>