<svg id="Capa_1" enable-background="new 0 0 512 512" height="512" viewBox="0 0 512 512" width="512" xmlns="http://www.w3.org/2000/svg"><path d="m222.292 244.545 2.204-2.203c1.684-1.684 3.923-2.611 6.304-2.611h50.396c2.385 0 4.627.929 6.313 2.615l2.199 2.199c2.93 2.928 7.678 2.928 10.607 0 2.929-2.93 2.929-7.678 0-10.607l-2.199-2.199c-4.52-4.519-10.528-7.008-16.92-7.008h-50.396c-6.389 0-12.395 2.488-16.911 7.005l-2.203 2.202c-2.929 2.929-2.93 7.677-.001 10.606s7.677 2.93 10.607.001z"/><path d="m319.885 147.251c2.929-2.93 2.929-7.678 0-10.607-2.93-2.928-7.678-2.928-10.607 0l-2.316 2.316c-3.879 3.879-9.035 6.016-14.521 6.016h-15.387c-8.011 0-14.527 6.517-14.527 14.527v8.589c0 4.143 3.357 7.5 7.5 7.5s7.5-3.357 7.5-7.5v-8.116h14.914c9.491 0 18.415-3.696 25.128-10.408z"/><path d="m202.723 136.645c-2.928-2.929-7.677-2.93-10.606-.001s-2.93 7.677-.001 10.606l2.312 2.313c6.716 6.715 15.644 10.413 25.141 10.413h23.21c4.142 0 7.5-3.357 7.5-7.5s-3.358-7.5-7.5-7.5h-23.21c-5.49 0-10.652-2.138-14.534-6.02z"/><path d="m274.72 131.239c7.416 0 14.389-2.889 19.639-8.138 2.929-2.93 2.926-7.676-.003-10.604s-7.679-2.927-10.609.002c-2.411 2.412-5.617 3.74-9.026 3.74h-37.44c-3.36 0-6.651-1.364-9.03-3.743-2.924-2.924-7.673-2.933-10.607-.001-2.929 2.93-2.928 7.679.001 10.608 5.17 5.17 12.328 8.136 19.636 8.136z"/><path d="m238.639 187.788-3.411 3.41c-2.929 2.929-2.93 7.678-.001 10.606 2.928 2.929 7.677 2.93 10.606.001l3.411-3.41c2.929-2.929 2.93-7.678.001-10.606-2.928-2.93-7.677-2.929-10.606-.001z"/><path d="m276.772 201.806c2.929-2.93 2.929-7.678 0-10.607l-3.41-3.41c-2.93-2.928-7.678-2.928-10.607 0-2.929 2.93-2.929 7.678 0 10.607l3.41 3.41c2.931 2.928 7.678 2.928 10.607 0z"/><path d="m342.572 173.301c5.074-6.371 6.766-14.851 4.524-22.681l-14.896-52.043c-6.529-22.811-33.481-32.434-52.979-18.912l-9.29 6.441c-8.334 5.776-19.532 5.777-27.864 0l-9.29-6.441c-19.5-13.522-46.45-3.897-52.979 18.912l-14.896 52.042c-2.241 7.83-.55 16.31 4.524 22.682l16.751 21.035c6.894 8.657 8.15 20.646 3.201 30.543l-1.004 2.008c-11.905 23.809 5.432 51.774 31.988 51.774 11.268 0 20.993-4.089 28.593-11.162 3.894-3.625 9.921-3.702 13.906-.163 5.842 5.188 12.787 8.69 20.083 10.13 4.065.803 8.009-1.843 8.811-5.907.802-4.063-1.843-8.008-5.907-8.81-4.677-.923-9.182-3.215-13.026-6.629-9.756-8.663-24.519-8.504-34.085.398-4.902 4.562-11.158 7.097-17.613 7.138l-.62.004c-15.436.129-25.666-16.16-18.713-30.064l1.004-2.008c7.551-15.099 5.634-33.389-4.883-46.596l-16.751-21.035c-2.061-2.588-2.748-6.031-1.837-9.211l14.896-52.042c3.692-12.899 18.945-18.383 30.011-10.713l9.29 6.441c13.445 9.322 31.512 9.322 44.958 0l9.29-6.441c11.045-7.659 26.314-2.208 30.011 10.713l14.896 52.043c.909 3.18.223 6.622-1.838 9.21l-16.751 21.035c-10.517 13.207-12.434 31.497-4.883 46.596l.778 1.557c3.231 6.462 2.904 13.997-.875 20.155-2.166 3.53-1.061 8.148 2.47 10.315s8.148 1.061 10.315-2.47c6.508-10.605 7.071-23.581 1.506-34.71l-.778-1.557c-4.949-9.896-3.692-21.886 3.201-30.543z"/><path d="m425.896 291.384-37.462-9.134-10.097-10.908 1.372-1.081c9.353-7.374 12.291-20.465 6.987-31.127l-1.241-2.494c-9.916-19.936-14.292-42.208-12.657-64.411l3.084-41.879c5.177-70.306-48.633-130.35-119.87-130.35-63.116 0-115.701 48.863-120.032 111.869-.284 4.133 2.836 7.713 6.968 7.997 4.129.271 7.712-2.836 7.997-6.968 3.819-55.575 50.528-98.572 106.382-97.891 61.212.751 108.152 52.359 103.596 114.24l-3.084 41.879c-1.833 24.886 3.072 49.85 14.186 72.192l1.241 2.495c2.158 4.339.963 9.666-2.844 12.667-3.12 2.46-88.81 70.016-91.383 72.045l16.476-31.349c1.928-3.667.518-8.201-3.149-10.128-3.668-1.931-8.202-.517-10.128 3.149l-26.238 49.922-26.017-49.501c-1.927-3.667-6.463-5.077-10.128-3.149-3.667 1.927-5.077 6.461-3.149 10.128l16.256 30.93c-17.514-13.808-73.005-57.556-91.384-72.045-3.806-3.001-5.002-8.328-2.844-12.667l1.241-2.495c11.113-22.342 16.019-47.306 14.186-72.192l-1.801-24.467c-.304-4.13-3.902-7.217-8.031-6.929-4.131.304-7.233 3.899-6.929 8.03l1.802 24.467c1.635 22.204-2.742 44.477-12.657 64.41l-1.241 2.495c-5.304 10.662-2.365 23.753 6.987 31.127l1.372 1.082-10.098 10.907-37.461 9.133c-32.959 8.035-55.978 37.34-55.978 71.268 0 18.538 6.916 36.242 19.227 49.797-12.174 10.919-19.227 26.495-19.227 43.187v48.865c0 4.143 3.358 7.5 7.5 7.5h436.748c4.143 0 7.5-3.357 7.5-7.5v-11.696c0-4.143-3.357-7.5-7.5-7.5s-7.5 3.357-7.5 7.5v4.196h-71.07v-84.992c0-4.143-3.357-7.5-7.5-7.5s-7.5 3.357-7.5 7.5v84.992h-117.304v-79.188c0-13.542 11.017-24.559 24.559-24.559h66.143c4.143 0 7.5-3.357 7.5-7.5s-3.357-7.5-7.5-7.5h-66.143c-13.174 0-24.865 6.474-32.059 16.408-7.193-9.934-18.884-16.408-32.059-16.408h-66.143c-4.142 0-7.5 3.357-7.5 7.5s3.358 7.5 7.5 7.5h66.143c13.542 0 24.559 11.017 24.559 24.559v79.188h-117.304v-84.992c0-4.143-3.358-7.5-7.5-7.5s-7.5 3.357-7.5 7.5v84.992h-71.07v-41.366c0-14.699 7.374-28.233 19.725-36.204 4.204-2.712 4.623-8.719.825-11.987-13.06-11.237-20.55-27.563-20.55-44.796 0-26.986 18.312-50.299 44.531-56.69l39.655-9.668c1.43-.349 2.727-1.11 3.727-2.191 16.351-17.662 11.486-12.41 12.441-13.438 86.142 67.912 105.972 83.559 106.31 83.787 2.615 1.761 5.899 1.664 8.308.076.485-.316-4.048 3.23 106.424-83.864 1.269 1.377-4.605-4.975 12.44 13.439 1 1.081 2.297 1.843 3.728 2.191l39.655 9.669c26.219 6.391 44.53 29.702 44.53 56.693 0 17.229-7.49 33.555-20.55 44.792-3.793 3.264-3.385 9.271.825 11.987 12.351 7.971 19.725 21.505 19.725 36.204v2.17c0 4.143 3.357 7.5 7.5 7.5s7.5-3.357 7.5-7.5v-2.17c0-16.691-7.052-32.268-19.227-43.187 12.311-13.555 19.227-31.259 19.227-49.801-.001-33.924-23.02-63.228-55.979-71.262z"/></svg>