<svg id="Capa_1" enable-background="new 0 0 512 512" height="512" viewBox="0 0 512 512" width="512" xmlns="http://www.w3.org/2000/svg"><path d="m106.068 266.5c4.142 0 7.5-3.357 7.5-7.5v-207.984c0-6.174-7.076-9.71-12.014-5.989-35.136 26.482-56.112 68.561-56.112 112.559v312.102h-11.466c-4.142 0-7.5 3.357-7.5 7.5v27.312c0 4.143 3.358 7.5 7.5 7.5h444.048c4.142 0 7.5-3.357 7.5-7.5v-75.177c0-4.143-3.358-7.5-7.5-7.5s-7.5 3.357-7.5 7.5v67.677h-54.345v-82.677c0-4.143-3.358-7.5-7.5-7.5s-7.5 3.357-7.5 7.5v82.677h-128.642l107.414-173.733h40.422c27.654 0 50.151 22.498 50.151 50.151v20.905c0 4.143 3.358 7.5 7.5 7.5s7.5-3.357 7.5-7.5v-20.905c0-35.925-29.227-65.151-65.151-65.151-19.196 0-53.123 0-83.507 0-.414 0-.75-.337-.75-.75v-29.348c21.275-15.52 38.405-37.833 40.336-64.057l.295-4.011c23.343-2.036 41.717-21.687 41.717-45.549v-2.249c0-15.471-12.586-28.057-28.057-28.057h-3.204l.541-7.349c2.449-33.257-9.929-67.487-37.121-91.135-3.137-2.727-7.339-3.559-11.133-2.548-8.565-6.079-17.889-10.759-27.834-13.972l.132-1.143c1.108-9.603-6.398-18.099-16.133-18.099h-31.937c-9.669 0-17.249 8.43-16.133 18.101l.132 1.142c-9.945 3.213-19.269 7.893-27.834 13.972-3.794-1.011-7.995-.18-11.131 2.548-3.049 2.65-5.998 5.516-8.765 8.515-2.809 3.044-2.619 7.789.426 10.598 3.044 2.81 7.789 2.619 10.598-.426 1.793-1.942 3.672-3.818 5.609-5.601l10.643 10.644c6.131 6.131 7.856 15.562 4.292 23.466l-17.551 38.927c-3.385 7.51-10.895 12.361-19.132 12.361h-7.661l-.622-8.447c-1.063-14.435 1.131-29.095 6.344-42.396 1.511-3.856-.39-8.208-4.246-9.719-3.858-1.514-8.208.389-9.72 4.246-6.027 15.377-8.564 32.312-7.337 48.971l.541 7.347h-3.204c-15.471 0-28.057 12.586-28.057 28.057v2.249c0 23.862 18.374 43.513 41.717 45.549l.295 4.011c1.93 26.196 19.012 48.505 40.336 64.056v29.348c0 .413-.336.75-.75.75-7.412 0-74.84 0-83.507 0-8.84 0-17.45 1.758-25.433 5.148v-19.417c0-4.143-3.358-7.5-7.5-7.5s-7.5 3.357-7.5 7.5v175.687h-11.563v-307.215c0-4.143-3.358-7.5-7.5-7.5s-7.5 3.357-7.5 7.5v307.215h-11.563v-312.102c0-34.005 14.023-66.728 38.126-90.259v191.674c0 4.143 3.358 7.5 7.5 7.5zm-64.592 218.187h76.058v12.313h-76.058zm213.425 12.313h-11.506c16.555-26.777 91.729-148.365 107.414-173.733h11.506zm-46.336-173.733 62.304 100.772-5.753 9.305-68.056-110.077zm194.899-160.964v2.249c0 15.194-11.086 27.846-25.594 30.295l3.358-45.601h9.178c7.201 0 13.058 5.858 13.058 13.057zm-30.679-36.507-.622 8.449h-7.661c-8.237 0-15.747-4.852-19.132-12.361l-17.551-38.927c-3.564-7.904-1.839-17.335 4.292-23.466l10.643-10.644c21.725 19.984 32.128 48.475 30.031 76.949zm-109.067-110.796h31.937c.751 0 1.316.652 1.232 1.382-3.187 27.639-.927 8.038-2.725 23.636-.529 4.586-4.408 8.044-9.024 8.044h-10.902c-4.616 0-8.495-3.458-9.024-8.044-.888-7.702-2.219-19.249-2.725-23.636-.086-.739.488-1.382 1.231-1.382zm-107.809 149.552v-2.249c0-7.199 5.857-13.057 13.057-13.057h9.179l3.358 45.601c-14.508-2.449-25.594-15.101-25.594-30.295zm41.973 48.459c-.897-12.175-3.072-41.703-4.697-63.766h1.686c14.125 0 27.002-8.319 32.807-21.195l17.551-38.928c6.111-13.554 3.153-29.725-7.36-40.238l-5.8-5.8c5.484-3.512 11.301-6.384 17.407-8.591l.835 7.244c1.402 12.157 11.687 21.325 23.925 21.325h10.902c12.238 0 22.524-9.168 23.926-21.325l.835-7.244c6.105 2.208 11.922 5.079 17.406 8.591l-5.8 5.8c-10.514 10.514-13.471 26.684-7.36 40.238 0 .1-.947-2.1 17.551 38.928 5.805 12.876 18.683 21.195 32.807 21.195h1.686c-4.904 66.592 1.377-18.698-4.696 63.766-1.838 24.961-21.101 43.108-32.42 51.704-13.017 9.885-34.023 20.523-49.385 20.523s-36.368-10.639-49.385-20.523c-11.32-8.596-30.583-26.743-32.421-51.704zm81.805 87.227c11.865 0 26.926-4.7 41.429-12.584v19.862c0 7.498 5.266 13.788 12.294 15.368l-53.722 86.892-53.723-86.892c7.028-1.58 12.294-7.87 12.294-15.368v-19.863c14.501 7.885 29.563 12.585 41.428 12.585zm-166.119 29.944c7.685-4.535 16.402-6.916 25.433-6.916h40.422l76.875 124.339-30.539 49.395h-67.565v-82.677c0-4.143-3.358-7.5-7.5-7.5s-7.5 3.357-7.5 7.5v82.677h-10.661v-19.813c0-4.143-3.358-7.5-7.5-7.5h-11.465z"/><path d="m274.8 155.474c0-4.143-3.358-7.5-7.5-7.5h-37.066c-4.142 0-7.5 3.357-7.5 7.5s3.358 7.5 7.5 7.5h37.066c4.142 0 7.5-3.358 7.5-7.5z"/><path d="m272.187 204.651c0 4.143 3.358 7.5 7.5 7.5 10.965 0 19.886-8.921 19.886-19.887v-24.405c0-2.694 2.192-4.886 4.887-4.886h24.68c4.142 0 7.5-3.357 7.5-7.5s-3.358-7.5-7.5-7.5h-24.68c-10.965 0-19.887 8.921-19.887 19.886v24.405c0 2.694-2.192 4.887-4.886 4.887-4.142 0-7.5 3.358-7.5 7.5z"/><path d="m303.625 232.343h-47.877c-4.142 0-7.5 3.357-7.5 7.5s3.358 7.5 7.5 7.5h47.877c4.142 0 7.5-3.357 7.5-7.5s-3.357-7.5-7.5-7.5z"/></svg>