<svg id="Capa_1" enable-background="new 0 0 512.045 512.045" height="512" viewBox="0 0 512.045 512.045" width="512" xmlns="http://www.w3.org/2000/svg"><path d="m319.443 83.543c-2.524-3.285-7.234-3.899-10.517-1.374l-32.466 24.961v-18.06c0-4.143-3.358-7.5-7.5-7.5s-7.5 3.357-7.5 7.5v20.824c0 11.338 13.025 17.676 21.951 10.812l34.658-26.646c3.283-2.525 3.899-7.234 1.374-10.517z"/><path d="m193.976 94.06 34.658 26.646c8.947 6.877 21.951.503 21.951-10.813v-20.823c0-4.143-3.358-7.5-7.5-7.5s-7.5 3.357-7.5 7.5v18.06l-32.466-24.962c-3.283-2.522-7.992-1.908-10.517 1.375-2.525 3.284-1.909 7.992 1.374 10.517z"/><path d="m300.69 186.97c-4.166.519-8.255 1.569-12.153 3.124-3.848 1.534-5.723 5.897-4.189 9.745 1.535 3.848 5.899 5.724 9.745 4.188 2.711-1.081 5.554-1.812 8.452-2.173 10.06-1.253 17.646-9.843 17.646-19.979v-1.985c0-15.178-12.348-27.526-27.526-27.526h-5.888c-1.291 0-2.433-.775-2.909-1.977-4.554-11.49-15.483-18.915-27.844-18.915s-23.29 7.425-27.843 18.915c-.476 1.201-1.618 1.977-2.909 1.977h-5.888c-15.178 0-27.526 12.349-27.526 27.526v1.985c0 10.137 7.586 18.727 17.647 19.979 8.554 1.065 16.332 5.275 21.9 11.854l18.896 22.325c2.984 3.526 8.445 3.55 11.449 0l9.267-10.949c2.676-3.162 2.282-7.895-.879-10.57-3.162-2.676-7.894-2.281-10.57.879l-3.542 4.186-13.171-15.562c-8.008-9.462-19.194-15.516-31.497-17.048-2.565-.319-4.5-2.51-4.5-5.095v-1.985c0-6.907 5.619-12.526 12.526-12.526h5.888c7.481 0 14.096-4.494 16.854-11.45 2.273-5.735 7.729-9.441 13.898-9.441 6.17 0 11.626 3.706 13.899 9.442 2.757 6.955 9.372 11.449 16.853 11.449h5.888c6.907 0 12.526 5.619 12.526 12.526v1.985c-.001 2.587-1.935 4.777-4.5 5.096z"/><path d="m240.762 334.302c-2.301-3.439-6.972-4.379-10.429-2.048l-19.859 13.399-5.449-16.035c-1.333-3.922-5.589-6.021-9.514-4.688-3.922 1.333-6.021 5.593-4.688 9.515l8.607 25.329c1.585 4.664 7.186 6.577 11.296 3.805l21.754-14.678 17.308 25.88c2.968 4.436 9.502 4.436 12.469 0l17.308-25.88 21.754 14.678c4.126 2.781 9.716.845 11.296-3.805l8.608-25.329c1.333-3.922-.766-8.182-4.688-9.515-3.92-1.33-8.181.767-9.514 4.688l-5.449 16.035-19.859-13.399c-3.435-2.317-8.115-1.41-10.429 2.048l-15.26 22.817z"/><path d="m486.32 243.242c-16.614-16.613-43.649-16.613-60.263 0l-72.87 72.87-7.041-26.749 10.803 2.973c2.946.806 6.09-.249 7.947-2.676 1.856-2.428 2.054-5.738.5-8.37-13.591-24.223-21.606-33.141-27.1-52.439-2.933-10.302-.483-21.274 6.552-29.353 5.681-6.524 9.603-14.628 11.342-23.434.802-4.064-1.841-8.009-5.905-8.812-4.061-.798-8.008 1.843-8.811 5.905-1.231 6.237-3.977 11.939-7.938 16.488-10.379 11.92-13.993 28.111-9.666 43.312 5.703 20.035 14.356 31.084 19.18 39.995-7.588-2.088-2.834-.925-19.916-4.747-2.787-.624-5.687.391-7.479 2.614l-20.281 25.178-12.445-15.455c-2.597-3.225-7.317-3.735-10.545-1.138-3.226 2.599-3.735 7.319-1.137 10.546l18.286 22.708c3.002 3.728 8.685 3.722 11.682.001l23.197-28.797 5.075 1.135c32.318 122.771 5.59 21.233 25.262 95.968l-33.482-1.514c-1.722-.078-3.415.438-4.799 1.463l-60.444 44.713-60.443-44.712c-1.384-1.024-3.081-1.542-4.799-1.463l-33.483 1.513c20.029-76.088-6.93 26.327 25.262-95.968l5.076-1.135 23.197 28.797c2.998 3.722 8.68 3.727 11.682-.001l18.286-22.708c2.598-3.227 2.089-7.947-1.137-10.546-3.226-2.598-7.948-2.088-10.545 1.138l-12.445 15.455-20.281-25.178c-1.792-2.223-4.692-3.229-7.479-2.614-17.144 3.836-12.361 2.668-19.917 4.747 4.776-8.821 13.472-19.942 19.18-39.996 4.327-15.2.713-31.391-9.666-43.311-5.596-6.426-8.678-14.986-8.678-24.104v-36.896c0-2.026-.82-3.966-2.272-5.378l-10.008-9.729c-16.102-15.651-25.336-37.508-25.336-59.963v-16.846c9.43 13.029 19.822 25.371 31.072 36.892-2.916 6.086-5.105 12.488-6.525 19.099-1.002 4.664 2.554 9.077 7.34 9.077 3.459 0 6.569-2.408 7.325-5.927 5.459-25.411 24.393-45.538 48.761-53.583 12.576-4.152 23.809-10.649 35.834-23.531 12.017 12.875 23.247 19.376 35.833 23.531 24.007 7.925 43.227 27.818 48.762 53.583.861 4.009 4.809 6.633 8.908 5.758 4.05-.87 6.627-4.858 5.757-8.908-1.42-6.611-3.608-13.013-6.525-19.099 11.247-11.521 21.64-23.863 31.07-36.892v16.848c0 22.456-9.235 44.313-25.337 59.964l-10.008 9.728c-1.453 1.412-2.272 3.352-2.272 5.378v10.326c0 4.143 3.358 7.5 7.5 7.5s7.5-3.357 7.5-7.5v-7.157l7.735-7.519c18.99-18.459 29.882-44.235 29.882-70.72v-41.6c0-3.358-2.232-6.307-5.464-7.219-3.232-.91-6.676.438-8.431 3.3-11.487 18.741-24.965 36.269-40.141 52.212-11.153-15.378-26.888-26.497-44.236-32.227-15.9-5.25-24.035-13.231-34.923-25.519-2.983-3.366-8.244-3.367-11.227 0-10.912 12.316-19.054 20.281-34.923 25.519-17.119 5.652-32.956 16.673-44.235 32.227-15.176-15.944-28.654-33.473-40.14-52.212-1.754-2.863-5.197-4.21-8.431-3.3-3.232.912-5.464 3.86-5.464 7.219v41.6c0 26.483 10.891 52.26 29.881 70.719l7.735 7.52v33.727c0 12.739 4.392 24.799 12.366 33.956 7.034 8.078 9.483 19.051 6.551 29.353-5.493 19.298-13.496 28.195-27.099 52.439-1.554 2.632-1.356 5.943.5 8.371s5.002 3.483 7.947 2.675l10.803-2.973-7.041 26.749-28.84-28.84c-2.929-2.928-7.678-2.928-10.606 0-2.929 2.93-2.929 7.678 0 10.607l35.026 35.026-5.75 21.844c-5.138-5.138 23.204 23.204-79.216-79.216-6.282-6.281-16.469-6.306-22.776 0l-18.7 18.699c-2.929 2.93-2.929 7.678 0 10.607 2.929 2.928 7.678 2.928 10.606 0l18.7-18.699c.431-.432 1.133-.432 1.563 0l11.131 11.131-35.71 35.711c-2.929 2.93-2.929 7.678 0 10.607 2.93 2.929 7.678 2.928 10.606 0l35.711-35.711 11.291 11.291-61.286 61.286c-2.929 2.93-2.929 7.678 0 10.607 2.93 2.929 7.678 2.928 10.606 0l61.287-61.287 12.793 12.793-39.995 39.994c-2.929 2.93-2.929 7.678 0 10.607 2.93 2.929 7.678 2.928 10.606 0l39.995-39.995 18.365 18.365-4.072 15.468c-.624 2.371-.056 4.927 1.589 6.824-4.997 6.506-11.9 11.401-19.844 13.908-14.716 4.645-28.166 12.251-39.619 22.328-17-12.412-41.373-11.299-57.173 4.5l-9.346 9.352v-169.539l20.532-20.532c10.766-10.766 28.284-10.767 39.05-.001l18.974 18.976c2.928 2.928 7.677 2.928 10.606 0 2.929-2.93 2.929-7.678 0-10.607l-18.974-18.975c-16.614-16.612-43.649-16.612-60.263 0l-22.728 22.729c-1.407 1.407-2.197 3.314-2.197 5.304v190.751c0 3.033 1.827 5.769 4.63 6.929 2.783 1.154 6.016.532 8.173-1.625l22.151-22.152c9.956-9.955 24.909-10.971 35.831-4.255-15.111 17.552-24.26 39.355-26.577 62.888-.434 4.403 3.026 8.235 7.464 8.235h407.098c4.431 0 7.896-3.826 7.464-8.231-2.314-23.596-11.49-45.394-26.568-62.897 10.969-6.739 25.907-5.656 35.825 4.261l22.151 22.151c1.435 1.435 3.353 2.196 5.305 2.196 4.112 0 7.499-3.335 7.499-7.5v-190.751c0-1.989-.79-3.896-2.197-5.304zm-35.355 253.804h-164.237c.718-.921-1.362 1.963 27.85-38.887 2.41-3.369 1.631-8.054-1.738-10.463-3.37-2.41-8.054-1.633-10.463 1.738l-26.889 37.6c-9.536 13.332-29.404 13.333-38.94 0l-26.889-37.6c-2.409-3.369-7.094-4.146-10.463-1.738-3.369 2.409-4.147 7.094-1.738 10.463 29.369 41.068 27.136 37.971 27.85 38.887h-164.227c3.656-20.294 13.09-37.808 26.411-51.247.263-.23.479-.448.697-.696 10.712-10.587 23.779-18.482 38.266-23.055 13.606-4.294 24.985-13.688 31.825-26.11l30.519-1.379 62.763 46.429c2.65 1.961 6.27 1.961 8.921 0l62.764-46.43 30.51 1.38c6.84 12.423 18.219 21.816 31.825 26.111 14.501 4.577 27.576 12.475 38.29 23.061.214.243.426.455.68.678 13.748 13.859 22.87 31.546 26.413 51.258zm45.28-53.126-9.348-9.349c-15.769-15.767-40.132-16.937-57.169-4.503-11.454-10.071-24.908-17.678-39.631-22.325-7.943-2.507-14.845-7.4-19.841-13.904 1.628-1.872 2.225-4.43 1.593-6.829l-4.072-15.468 18.365-18.365 39.995 39.995c2.93 2.929 7.678 2.928 10.606 0 2.929-2.93 2.929-7.678 0-10.607l-39.995-39.994 12.793-12.793 61.287 61.287c2.93 2.929 7.678 2.928 10.606 0 2.929-2.93 2.929-7.678 0-10.607l-61.286-61.286 11.291-11.291 35.711 35.711c2.93 2.929 7.678 2.928 10.606 0 2.929-2.93 2.929-7.678 0-10.607l-35.71-35.711 11.131-11.131c.431-.432 1.132-.432 1.563 0l18.7 18.699c2.929 2.928 7.678 2.928 10.606 0 2.929-2.93 2.929-7.678 0-10.607l-18.7-18.699c-6.283-6.282-16.47-6.305-22.776 0-9.543 9.543-71.802 71.801-79.216 79.216l-5.75-21.844 79.056-79.056c10.766-10.766 28.284-10.768 39.05 0l20.532 20.532v169.536z"/></svg>