<svg id="Capa_1" enable-background="new 0 0 512 512" height="512" viewBox="0 0 512 512" width="512" xmlns="http://www.w3.org/2000/svg"><path d="m208.632 162.338c-4.143 0-7.5 3.357-7.5 7.5s3.357 7.5 7.5 7.5h35.528c4.143 0 7.5-3.357 7.5-7.5s-3.357-7.5-7.5-7.5z"/><path d="m248.533 205.976c0 4.143 3.357 7.5 7.5 7.5 10.682 0 19.372-8.69 19.372-19.373v-12.392c0-2.411 1.962-4.373 4.373-4.373h23.655c4.143 0 7.5-3.357 7.5-7.5s-3.357-7.5-7.5-7.5h-23.655c-10.683 0-19.373 8.69-19.373 19.373v12.392c0 2.411-1.961 4.373-4.372 4.373-4.142 0-7.5 3.357-7.5 7.5z"/><path d="m256.033 223.476c-12.862 0-23.327 11.338-23.327 25.273 0 13.937 10.465 25.274 23.327 25.274s23.326-11.338 23.326-25.274-10.463-25.273-23.326-25.273zm0 35.547c-4.592 0-8.327-4.609-8.327-10.274s3.735-10.273 8.327-10.273c4.591 0 8.326 4.608 8.326 10.273s-3.735 10.274-8.326 10.274z"/><path d="m311.015 335.026c-34.449 18.928-75.58 18.928-110.029 0-3.632-1.996-8.189-.668-10.185 2.962-1.994 3.63-.669 8.19 2.962 10.185 38.967 21.41 85.503 21.413 124.475 0 3.631-1.994 4.956-6.555 2.962-10.185-1.995-3.631-6.554-4.955-10.185-2.962z"/><path d="m457.172 469.22c-4.143 0-7.5 3.357-7.5 7.5v20.28h-55.336v-83.966c0-4.143-3.357-7.5-7.5-7.5s-7.5 3.357-7.5 7.5v83.966h-246.672v-83.966c0-4.143-3.357-7.5-7.5-7.5s-7.5 3.357-7.5 7.5v83.966h-55.336v-125.456c0-28.107 22.867-50.975 50.975-50.975h25.815c7.267 0 13.362-4.729 15.169-11.768s-1.259-14.119-7.628-17.618c-12.853-7.062-19.896-21.021-17.942-35.564.551-4.105-2.33-7.88-6.436-8.432-4.103-.54-7.88 2.33-8.432 6.436-2.741 20.414 7.541 40.792 25.587 50.707.261.144.449.247.321.743-.127.496-.342.496-.64.496h-25.815c-36.379 0-65.975 29.596-65.975 65.975v132.956c0 4.143 3.357 7.5 7.5 7.5h402.344c4.143 0 7.5-3.357 7.5-7.5v-27.78c.001-4.143-3.357-7.5-7.499-7.5z"/><path d="m398.697 305.569h-25.815c-.298 0-.513 0-.64-.496-.128-.496.061-.6.321-.743 17.606-9.673 27.734-28.844 25.802-48.839l-13.367-138.356c-1.269-13.131-4.462-25.798-9.517-37.798 26.048-2.788 46.403-24.901 46.403-51.678v-20.159c0-4.143-3.357-7.5-7.5-7.5h-158.384c-66.69 0-122.575 50.641-128.997 117.135l-9.709 100.48c-.398 4.123 2.621 7.788 6.743 8.187 4.144.416 7.789-2.621 8.187-6.743l9.709-100.48c5.671-58.699 54.994-103.579 114.067-103.579h150.885v12.659c0 20.388-16.587 36.975-36.975 36.975h-1.749c-5.618-9.69-12.473-18.613-20.419-26.573-2.926-2.932-7.675-2.937-10.606-.009-2.932 2.926-2.936 7.675-.009 10.606 18.063 18.094 30.281 42.407 32.941 69.92l13.367 138.356c1.354 14.021-5.748 27.466-18.095 34.249-6.369 3.499-9.435 10.579-7.628 17.618 1.807 7.038 7.902 11.768 15.169 11.768h25.815c28.107 0 50.975 22.867 50.975 50.975v70.176c0 4.143 3.357 7.5 7.5 7.5s7.5-3.357 7.5-7.5v-70.176c.001-36.379-29.595-65.975-65.974-65.975z"/><path d="m303.967 80.063c3.429 2.325 8.092 1.431 10.418-1.996 2.325-3.428 1.432-8.092-1.996-10.417-16.673-11.312-36.159-17.294-56.354-17.301-52.239-.018-95.484 39.893-100.157 91.46l-10.524 116.131c-.899 9.935 3.896 19.503 12.216 24.378 12.852 7.529 49.295 28.878 66.3 38.843 19.965 11.694 44.261 11.715 64.26-.001 5.749-3.368 5.865-3.435 66.3-38.843 8.32-4.874 13.115-14.442 12.216-24.377l-10.524-116.13c-1.234-13.622-5.154-26.628-11.651-38.657-.144-.266-.302-.52-.472-.761-.642-1.636-3.85-6.574-5.114-8.413-2.346-3.411-7.015-4.276-10.43-1.93-3.413 2.347-4.276 7.017-1.93 10.43 1.292 1.879 2.521 3.828 3.655 5.803 7.518 21.069 3.657 36.91 3.626 43.9l-49.091-35.252c-13.265-9.526-21.184-24.962-21.184-41.292v-9.96c14.483 1.264 28.333 6.174 40.436 14.385zm-55.435-14.389v9.964c0 16.33-7.919 31.766-21.184 41.292l-49.09 35.252c-.102-7.883-3.734-22.587 2.775-42.465 13.847-25.191 39.202-41.575 67.499-44.043zm-43.99 213.134v13.644l-15.829-9.274v-18.458c4.759 5.184 10.113 9.89 15.829 14.088zm-44.248-19.514 5.965-65.831 2.02 27.426c.532 7.231 2.376 14.39 5.434 21.318v32.183l-8.56-5.014c-3.33-1.951-5.237-5.909-4.859-10.082zm120.254 48.924c-15.164 8.885-33.659 9.043-49.096.001l-11.91-6.978v-13.025c12.805 6.785 26.012 10.808 36.491 10.808 10.461 0 23.64-4.009 36.425-10.773v12.99zm42.739-43.426v18.385l-15.829 9.274v-13.595c5.705-4.18 11.079-8.9 15.829-14.064zm23.561 4.583-8.561 5.015v-32.033c3.097-6.975 4.963-14.185 5.499-21.468l1.991-27.028 5.929 65.433c.378 4.173-1.529 8.131-4.858 10.081zm-70.882-140.262 56.549 40.608-3.687 50.066c-2.668 36.219-49.281 64.236-72.794 64.236-22.662 0-70.07-27.242-72.795-64.236l-3.687-50.066 56.548-40.607c8.453-6.071 15.23-13.995 19.934-22.999 4.702 9.003 11.479 16.927 19.932 22.998z"/></svg>