<svg id="Capa_1" enable-background="new 0 0 512 512" height="512" viewBox="0 0 512 512" width="512" xmlns="http://www.w3.org/2000/svg"><path d="m241.603 147.974h-43.084c-4.143 0-7.5 3.357-7.5 7.5s3.357 7.5 7.5 7.5h43.084c4.143 0 7.5-3.357 7.5-7.5s-3.358-7.5-7.5-7.5z"/><path d="m256 220.135c12.074 0 21.897-9.822 21.897-21.896v-28.367c0-3.804 3.094-6.897 6.897-6.897h28.687c4.143 0 7.5-3.357 7.5-7.5s-3.357-7.5-7.5-7.5h-28.687c-12.074 0-21.897 9.823-21.897 21.897v28.367c0 3.803-3.094 6.896-6.897 6.896-4.143 0-7.5 3.357-7.5 7.5s3.357 7.5 7.5 7.5z"/><path d="m256.363 377.797c10.799 0 19.874-5.559 26.244-16.075 4.31-7.113 5.854-14.029 6.016-14.794.857-4.053-1.733-8.033-5.785-8.891-4.05-.857-8.032 1.731-8.891 5.785-.035.163-4.316 18.975-17.584 18.975s-17.549-18.812-17.584-18.975c-.858-4.054-4.841-6.643-8.891-5.785-4.052.857-6.643 4.838-5.785 8.891.162.765 1.706 7.681 6.016 14.794 6.37 10.516 15.445 16.075 26.244 16.075z"/><path d="m429.961 140.234v71.659c0 11.028 8.972 20 20 20s20-8.972 20-20v-71.659c0-11.028-8.972-20-20-20s-20 8.972-20 20zm25 0v71.659c0 2.757-2.243 5-5 5s-5-2.243-5-5v-71.659c0-2.757 2.243-5 5-5s5 2.244 5 5z"/><path d="m91.517 20v14.758c0 11.028 8.972 20 20 20s20-8.972 20-20v-14.758c0-11.028-8.972-20-20-20s-20 8.972-20 20zm25 0v14.758c0 2.757-2.243 5-5 5s-5-2.243-5-5v-14.758c0-2.757 2.243-5 5-5s5 2.243 5 5z"/><path d="m368.304 20v6.25c0 11.028 8.972 20 20 20s20-8.972 20-20v-6.25c0-11.028-8.972-20-20-20s-20 8.972-20 20zm25 0v6.25c0 2.757-2.243 5-5 5s-5-2.243-5-5v-6.25c0-2.757 2.243-5 5-5s5 2.243 5 5z"/><path d="m41.469 81.929v60.685c0 11.028 8.972 20 20 20s20-8.972 20-20v-60.685c0-11.028-8.972-20-20-20s-20 8.971-20 20zm25 0v60.685c0 2.757-2.243 5-5 5s-5-2.243-5-5v-60.685c0-2.757 2.243-5 5-5s5 2.243 5 5z"/><path d="m469.961 261.894c0-11.028-8.972-20-20-20s-20 8.972-20 20v30.574c-11.867-5.281-24.751-8.033-37.873-8.033h-27.18c-3.738 0-5.973-4.185-3.885-7.193 6.321-9.111 11.146-18.795 14.337-28.782.988-3.093 3.121-5.709 5.852-7.179 24.226-13.043 39.275-38.188 39.275-65.62v-2.175c0-12.813-4.308-25.241-12.184-35.31v-61.926c0-11.028-8.972-20-20-20-7.936 0-14.806 4.645-18.035 11.358-23.565-42.997-68.357-67.608-114.268-67.608-55.857 0-107.006 35.868-124.483 91.68v-1.922c0-11.028-8.972-20-20-20s-20 8.972-20 20v86.321c0 26.047 14.385 51.803 39.272 65.201 2.73 1.471 4.863 4.087 5.852 7.179 3.193 9.991 8.017 19.676 14.337 28.782 2.083 3.003-.143 7.193-3.886 7.193h-27.181c-13.34 0-26.419 2.842-38.442 8.292v-100.113c0-11.028-8.972-20-20-20s-20 8.972-20 20v134.628c-9.706 15.055-14.824 32.449-14.824 50.46v31.156c0 4.143 3.357 7.5 7.5 7.5s7.5-3.357 7.5-7.5v-31.156c0-15.776 4.677-30.984 13.524-43.98.847-1.244 1.3-2.715 1.3-4.221v-136.887c0-2.757 2.243-5 5-5s5 2.243 5 5v112.68c0 5.908 6.538 9.499 11.524 6.329 12.539-7.974 27.034-12.188 41.918-12.188h27.181c15.784 0 25.214-17.767 16.209-30.745-5.471-7.883-9.633-16.226-12.372-24.796-2.19-6.857-6.817-12.477-13.028-15.82-19.191-10.332-31.215-30.24-31.379-51.899 0-.828-.005 9.908-.005-86.416 0-2.757 2.243-5 5-5s5 2.243 5 5v40.502c0 5.745 6.225 9.421 11.331 6.447 7.563-4.349 12.525-11.817 13.611-20.493 7.341-58.554 57.042-101.214 114.541-101.214 52.584 0 100.167 35.966 112.493 89.763.853 3.721 4.372 6.213 8.153 5.777 3.792-.429 6.657-3.636 6.657-7.452v-26.838c0-2.757 2.243-5 5-5s5 2.243 5 5v64.612c0 1.804.65 3.548 1.832 4.911 6.675 7.704 10.352 17.546 10.352 27.712v2.175c0 21.906-12.026 41.99-31.387 52.413-6.209 3.343-10.835 8.96-13.028 15.818-2.738 8.568-6.901 16.912-12.372 24.798-8.995 12.958.407 30.745 16.208 30.745h27.18c14.672 0 28.987 4.099 41.398 11.854 4.985 3.116 11.475-.474 11.475-6.36v-43.034c0-2.757 2.243-5 5-5s5 2.243 5 5c0 67.49.082 63.354-.172 64.335-.559 2.144-.14 4.425 1.143 6.231 9.437 13.288 14.424 28.933 14.424 45.242v119.298h-15v-59.152c0-4.143-3.357-7.5-7.5-7.5s-7.5 3.357-7.5 7.5v59.152h-52.079v-79.73c0-4.143-3.357-7.5-7.5-7.5s-7.5 3.357-7.5 7.5v79.73h-109.777v-66.709c0-10.997 8.947-19.943 19.944-19.943h61.552c4.143 0 7.5-3.357 7.5-7.5s-3.357-7.5-7.5-7.5h-61.552c-11.118 0-21.04 5.219-27.444 13.336-6.404-8.117-16.326-13.336-27.443-13.336h-61.553c-4.143 0-7.5 3.357-7.5 7.5s3.357 7.5 7.5 7.5h61.553c10.997 0 19.943 8.946 19.943 19.943v66.709h-109.776v-79.73c0-4.143-3.357-7.5-7.5-7.5s-7.5 3.357-7.5 7.5v79.73h-52.079v-119.299c0-26.614 21.652-48.267 48.267-48.267h80.778c8.536 0 15.48-6.944 15.48-15.48v-18.803c13.953 7.528 28.414 12.007 39.83 12.007 11.383 0 25.913-4.572 39.83-12.062v18.857c0 8.536 6.944 15.48 15.48 15.48h80.778c26.614 0 48.267 21.652 48.267 48.267v25.146c0 4.143 3.357 7.5 7.5 7.5s7.5-3.357 7.5-7.5v-25.146c0-34.886-28.381-63.267-63.267-63.267h-80.778c-.265 0-.48-.216-.48-.48v-28.281c2.603-1.894 5.124-3.88 7.534-5.946 3.145-2.696 3.508-7.432.813-10.576s-7.43-3.508-10.576-.813c-5.073 4.349-9.375 7.178-9.71 7.425-15.842 10.792-32.685 16.395-42.89 16.395-14.803 0-35.063-10.266-47.622-19.803-10.917-8.29-29.494-25.788-31.266-49.837-7.931-107.68 3.251 44.147-6.319-85.806-3.631-49.296 35.225-91.711 85.206-91.711 49.431 0 88.877 41.867 85.207 91.713-9.834 133.518 4.781-64.9-6.319 85.806-.509 6.911-2.469 13.814-5.824 20.52-1.854 3.704-.354 8.21 3.351 10.063 3.705 1.855 8.211.354 10.063-3.351 4.236-8.465 6.716-17.257 7.369-26.131l.271-3.674c22.607-2.078 40.37-21.146 40.37-44.286v-2.175c0-15.101-12.285-27.386-27.386-27.386h-7.546l.61-8.285c4.284-58.159-41.851-107.814-100.166-107.814-58.317 0-104.45 49.657-100.166 107.814l.61 8.285h-7.547c-15.1 0-27.385 12.285-27.385 27.386v2.175c0 23.14 17.763 42.208 40.37 44.286l.271 3.674c1.875 25.46 18.473 47.053 39.017 62.069v28.265c0 .265-.216.48-.48.48h-80.778c-34.886 0-63.267 28.381-63.267 63.267v119.299h-15v-53.143c0-4.143-3.357-7.5-7.5-7.5s-7.5 3.357-7.5 7.5v60.643c0 4.143 3.357 7.5 7.5 7.5h443.711c4.143 0 7.5-3.357 7.5-7.5v-126.798c0-18.404-5.329-36.1-15.442-51.374.069-.986.047 3.198.047-64.434zm-106.859-100.794c6.829 0 12.386 5.557 12.386 12.386v2.175c0 14.468-10.479 26.535-24.245 29.01l3.209-43.57h8.65zm-226.589 14.56v-2.175c0-6.829 5.556-12.386 12.385-12.386h8.651l3.209 43.57c-13.767-2.474-24.245-14.541-24.245-29.009z"/></svg>