<svg height="512pt" viewBox="-106 0 512 512" width="512pt" xmlns="http://www.w3.org/2000/svg"><path d="m294.871094 497.382812-9.871094-3.289062v-47.09375h2.5c4.140625 0 7.5-3.359375 7.5-7.5 0-4.144531-3.359375-7.5-7.5-7.5h-2.5v-22.5c0-4.144531-3.359375-7.5-7.5-7.5h-22.5v-45.546875l3.328125 2.222656c2.304687 1.535157 5.265625 1.679688 7.699219.375 2.441406-1.304687 3.964844-3.847656 3.964844-6.613281v-40.9375c1.628906.328125 3.304687.5 5.007812.5 13.785156 0 25-11.214844 25-25v-84.5c0-20.675781-16.824219-37.5-37.5-37.5h-8.308594c9.746094-9.535156 15.808594-22.820312 15.808594-37.5v-30c0-17.855469-8.96875-33.648438-22.628906-43.136719 4.671875-4.125 7.628906-10.15625 7.628906-16.863281 0-20.679688-16.824219-37.5-37.5-37.5-20.679688 0-37.5 16.820312-37.5 37.5 0 6.707031 2.953125 12.738281 7.625 16.863281-13.660156 9.488281-22.625 25.28125-22.625 43.136719v30c0 14.679688 6.0625 27.960938 15.808594 37.5h-8.308594c-18.109375 0-33.261719 12.902344-36.746094 30h-68.253906c-4.136719 0-7.5-3.363281-7.5-7.5s3.363281-7.5 7.5-7.5h15c4.144531 0 7.5-3.359375 7.5-7.5 0-4.144531-3.355469-7.5-7.5-7.5h-15c-12.40625 0-22.5 10.09375-22.5 22.5s10.09375 22.5 22.5 22.5h67.5v77c0 13.785156 11.214844 25 25 25 1.699219 0 3.367188-.171875 4.992188-.5v40.9375c0 4.140625 3.355468 7.5 7.5 7.5 1.875 0 2.21875-.007812 7.507812-3.496094v45.558594h-22.5c-4.144531 0-7.5 3.355469-7.5 7.5v22.5h-2.5c-4.144531 0-7.5 3.355469-7.5 7.5 0 4.140625 3.355469 7.5 7.5 7.5h2.5v47.09375l-9.871094 3.289062c-3.929687 1.308594-6.054687 5.558594-4.746094 9.488282 1.050782 3.140625 3.976563 5.128906 7.117188 5.128906.785156 0 1.585938-.125 2.371094-.386719l14.855468-4.953125c.011719-.003906 30.144532-10.046875 30.144532-10.046875 3.0625-1.019531 5.128906-3.886719 5.128906-7.113281v-133.046875l3.328125 2.222656c2.523437 1.683594 5.804687 1.683594 8.328125 0l10.832031-7.226562 10.859375 7.230469c2.519532 1.679687 5.800782 1.675781 8.320313-.003907l3.332031-2.222656v133.046875c0 3.226562 2.0625 6.09375 5.125 7.113281l30.132812 10.042969c.015626.003906 14.867188 4.957031 14.867188 4.957031.789062.261719 1.585938.386719 2.375.386719 3.140625 0 6.066406-1.988281 7.113281-5.128906 1.308594-3.929688-.8125-8.179688-4.742187-9.488282zm-24.871094-80.382812v15h-15v-15zm15-214.5v84.5c0 5.511719-4.488281 10-10 10-2.703125 0-5.242188-1.070312-7.140625-3.011719-.816406-.832031-1.804687-1.445312-2.882813-1.824219-.085937-.03125-.171874-.066406-.261718-.09375-.113282-.035156-.230469-.058593-.347656-.089843-.125-.03125-.246094-.070313-.371094-.09375-.164063-.035157-.332032-.054688-.5-.078125-.082032-.011719-.160156-.027344-.242188-.035156-.25-.027344-.5-.039063-.757812-.039063-2.109375 0-4.007813.867187-5.371094 2.261719-1.898438 1.9375-4.429688 3-7.128906 3-5.511719 0-9.996094-4.484375-9.996094-10v-106.996094h22.496094c12.410156 0 22.503906 10.09375 22.503906 22.5zm-60 67.5h-15v-15h15zm-22.5-225c-4.136719 0-7.5-3.363281-7.5-7.5 0-12.40625 10.09375-22.5 22.5-22.5s22.5 10.09375 22.5 22.5c0 4.136719-3.363281 7.5-7.5 7.5zm15 15c20.675781 0 37.5 16.820312 37.5 37.5v2.5h-15.140625c-5.652344-6.324219-13.746094-10-22.359375-10s-16.707031 3.675781-22.363281 10h-15.136719v-2.5c0-20.679688 16.820312-37.5 37.5-37.5zm-37.5 67.5v-12.5h18.789062c2.503907 0 4.839844-1.25 6.234376-3.328125 2.796874-4.175781 7.460937-6.671875 12.476562-6.671875s9.679688 2.496094 12.476562 6.671875c1.390626 2.078125 3.730469 3.328125 6.230469 3.328125h18.792969v12.5c0 20.675781-16.824219 37.5-37.5 37.5-20.679688 0-37.5-16.824219-37.5-37.5zm45 52.5v60h-15v-60zm-75 107v-84.5c0-12.40625 10.09375-22.5 22.5-22.5h22.5v107c0 5.511719-4.488281 10-10 10-2.703125 0-5.242188-1.070312-7.140625-3.011719-.816406-.832031-1.804687-1.445312-2.882813-1.824219-.085937-.03125-.171874-.066406-.261718-.09375-.113282-.035156-.230469-.058593-.347656-.089843-.125-.03125-.246094-.070313-.371094-.09375-.164063-.035157-.332032-.054688-.5-.078125-.078125-.011719-.160156-.027344-.242188-.035156-.25-.027344-.5-.039063-.753906-.039063-2.113281 0-4.011719.867187-5.375 2.261719-1.898438 1.9375-4.429688 3-7.125 3-5.515625.003906-10-4.484375-10-9.996094zm15 130h15v15h-15zm0 72.09375v-42.09375h15v37.09375zm67.503906-145.671875-10.859375-7.230469c-2.519531-1.679687-5.800781-1.675781-8.320312.003906l-10.832031 7.226563-10.789063-7.203125c-.339844-.21875-.625-.378906-.925781-.523438-.054688-.027343-.113282-.054687-.171875-.082031-.300781-.136719-.613281-.261719-.9375-.359375-.023438-.003906-.046875-.011718-.070313-.015625-.289062-.085937-.585937-.148437-.886718-.199219-.078126-.011718-.15625-.023437-.230469-.035156-.320313-.042968-.648438-.070312-.980469-.070312s-.65625.027344-.980469.070312c-.074219.011719-.152343.023438-.226562.035156-.304688.050782-.601563.113282-.890625.199219-.023438.003907-.046875.007813-.070313.015625-.324219.101563-.636719.222656-.9375.359375-.058593.027344-.117187.054688-.175781.082031-.292969.144532-.582031.304688-.855469.484376-1.09375.726562-2.214843 1.476562-3.371093 2.246093v-26.929687c1.632812.332031 3.304687.503906 5.007812.503906 13.785156 0 25-11.214844 25-25v-2h15v2c0 13.785156 11.214844 25 25 25 1.699219 0 3.367188-.171875 4.992188-.5v26.917969l-3.289063-2.199219c-.339844-.21875-.628906-.378906-.925781-.523438-.054688-.027343-.113282-.054687-.171875-.082031-.300781-.136719-.613281-.261719-.9375-.359375-.023438-.003906-.046875-.011718-.070313-.015625-.289062-.085937-.585937-.148437-.886718-.199219-.078126-.011718-.15625-.023437-.230469-.035156-.324219-.042968-.648438-.070312-.980469-.070312s-.65625.027344-.980469.070312c-.074219.011719-.152343.023438-.226562.035156-.304688.050782-.601563.113282-.890625.199219-.023438.003907-.046875.007813-.070313.015625-.324219.101563-.636719.222656-.9375.359375-.058593.027344-.117187.054688-.175781.082031-.292969.144532-.582031.304688-.855469.484376-.066406.039062-10.859375 7.242187-10.859375 7.242187zm22.496094 103.578125h15v42.09375l-15-5zm0 0"/><path d="m142.5 150c4.140625 0 7.5-3.359375 7.5-7.5s-3.359375-7.5-7.5-7.5h-30c-28.949219 0-52.5-23.550781-52.5-52.5 0-4.140625-3.355469-7.5-7.5-7.5h-45c-4.144531 0-7.5 3.359375-7.5 7.5 0 37.21875 30.28125 67.5 67.5 67.5zm-126.964844-60h29.878906c2.011719 18.117188 11.226563 34.097656 24.703126 45h-2.617188c-26.402344 0-48.316406-19.589844-51.964844-45zm0 0"/></svg>