<svg id="Capa_1" enable-background="new 0 0 512.002 512.002" height="512" viewBox="0 0 512.002 512.002" width="512" xmlns="http://www.w3.org/2000/svg"><g><path d="m256.002 150c28.949 0 52.5-23.551 52.5-52.5v-52.5c0-13.57-8.918-25.178-21.659-28.824-6.963-10.056-18.488-16.176-30.841-16.176-12.354 0-23.878 6.12-30.841 16.176-12.74 3.646-21.659 15.254-21.659 28.824v52.5c0 28.949 23.552 52.5 52.5 52.5zm-37.5-105c0-7.388 5.282-13.612 12.559-14.799 2.249-.367 4.209-1.736 5.327-3.721 3.99-7.082 11.505-11.48 19.614-11.48 8.108 0 15.624 4.399 19.614 11.48 1.118 1.985 3.078 3.354 5.327 3.721 7.277 1.187 12.559 7.411 12.559 14.799v15.808c-9.536-9.745-22.82-15.808-37.5-15.808s-27.963 6.063-37.5 15.808zm37.5 15c20.678 0 37.5 16.822 37.5 37.5s-16.822 37.5-37.5 37.5-37.5-16.822-37.5-37.5 16.823-37.5 37.5-37.5z"/><path d="m316.001 420c4.142 0 7.5-3.358 7.5-7.5v-212.786c50.271-3.842 90-45.976 90-97.214 0-4.142-3.358-7.5-7.5-7.5s-7.5 3.358-7.5 7.5c0 43.344-33.605 78.961-76.125 82.229-3.362-11.39-13.91-19.729-26.375-19.729h-80c-12.465 0-23.013 8.339-26.375 19.729-42.52-3.268-76.125-38.886-76.125-82.229 0-4.142-3.358-7.5-7.5-7.5s-7.5 3.358-7.5 7.5c0 51.239 39.729 93.372 90 97.214v212.786c0 4.142 3.358 7.5 7.5 7.5h22.5v69.094l-24.872 8.291c-3.93 1.31-6.053 5.557-4.744 9.487 1.048 3.143 3.974 5.13 7.114 5.13.786 0 1.586-.125 2.373-.387l30-10c3.063-1.021 5.128-3.887 5.128-7.115v-74.5h45v74.5c0 3.228 2.066 6.094 5.128 7.115l30 10c.787.262 1.586.387 2.373.387 3.14 0 6.066-1.988 7.114-5.13 1.31-3.93-.814-8.177-4.744-9.487l-24.872-8.291v-69.094zm-7.5-227.5v212.5h-15v-225h2.5c6.893 0 12.5 5.607 12.5 12.5zm-75-12.5h45v7.5c0 12.407-10.093 22.5-22.5 22.5s-22.5-10.093-22.5-22.5zm22.5 90c4.142 0 7.5-3.358 7.5-7.5v-38.255c5.539-1.129 10.637-3.483 15-6.766v67.521h-45v-67.521c4.363 3.283 9.461 5.637 15 6.766v38.255c0 4.142 3.358 7.5 7.5 7.5zm-22.5 30h45v22.489c-6.47 4.862-14.344 7.511-22.5 7.511s-16.03-2.65-22.5-7.511zm-30 105v-212.5c0-6.893 5.607-12.5 12.5-12.5h2.5v225zm30 0v-65.076c6.973 3.312 14.642 5.076 22.5 5.076s15.527-1.764 22.5-5.076v65.076z"/></g></svg>