<svg height="512pt" viewBox="-68 0 512 512.001" width="512pt" xmlns="http://www.w3.org/2000/svg"><path d="m367.5 135c-4.144531 0-7.5 3.359375-7.5 7.5 0 26.695312-20.035156 48.785156-45.855469 52.0625-3.648437-16.875-18.691406-29.5625-36.644531-29.5625h-37.5v-14.992188c16.542969 0 30-13.460937 30-30 0-7.734374-2.941406-15.082031-8.28125-20.6875l-36.207031-38.015624c-4.476563-4.65625-9.773438-8.515626-15.675781-11.304688 4.761718-5.308594 7.664062-12.320312 7.664062-20 0-16.542969-13.457031-30-30-30s-30 13.457031-30 30c0 7.679688 2.902344 14.691406 7.664062 20-5.980468 2.824219-11.339843 6.746094-15.828124 11.503906-.441407.433594-.898438.90625-1.402344 1.433594l-34.648438 36.378906c-5.34375 5.605469-8.285156 12.953125-8.285156 20.6875 0 16.542969 13.457031 30 30 30v14.996094h-37.5c-18.109375 0-33.261719 12.90625-36.746094 30h-15.753906v-121.289062c8.730469-3.097657 15-11.433594 15-21.210938 0-18.011719-5.707031-35.132812-16.503906-49.503906-1.414063-1.886719-3.636719-2.996094-5.996094-2.996094s-4.578125 1.109375-5.996094 2.996094c-10.796875 14.371094-16.503906 31.492187-16.503906 49.503906 0 9.777344 6.269531 18.113281 15 21.210938v91.289062h-7.5c-12.40625 0-22.5 10.09375-22.5 22.5s10.09375 22.5 22.5 22.5h7.5v294.5c0 4.140625 3.359375 7.5 7.5 7.5s7.5-3.359375 7.5-7.5v-294.5h61.890625c3.914063 17.941406 13.878906 34.332031 28.109375 46.113281v88.886719c0 2.597656 1.347656 5.011719 3.558594 6.378906 2.210937 1.367188 4.96875 1.492188 7.296875.328125l4.144531-2.074219v139.460938l-24.871094 8.289062c-3.929687 1.3125-6.054687 5.558594-4.746094 9.488282 1.050782 3.144531 3.976563 5.128906 7.113282 5.128906.789062 0 1.589844-.125 2.375-.386719l30-10c3.0625-1.019531 5.128906-3.886719 5.128906-7.113281v-144.867188l19.144531 9.574219c1.054688.527344 2.207031.792969 3.355469.792969s2.296875-.265625 3.351562-.792969l19.148438-9.574219v144.867188c0 3.226562 2.0625 6.09375 5.125 7.113281l30 10c.789062.261719 1.589844.386719 2.375.386719 3.140625 0 6.066406-1.988281 7.113281-5.128906 1.308594-3.929688-.8125-8.175782-4.742187-9.488282l-24.871094-8.289062v-139.460938l4.144531 2.074219c2.324219 1.164063 5.085938 1.039063 7.296875-.328125 2.210938-1.367187 3.558594-3.78125 3.558594-6.378906v-88.886719c14.226562-11.78125 24.195312-28.171875 28.109375-46.113281h39.390625c37.21875 0 67.5-30.28125 67.5-67.5 0-4.140625-3.359375-7.5-7.5-7.5zm-330-113.46875c4.929688 9.503906 7.5 20.035156 7.5 30.96875 0 4.136719-3.363281 7.5-7.496094 7.5-4.140625 0-7.503906-3.363281-7.503906-7.5 0-10.933594 2.570312-21.464844 7.5-30.96875zm-15 173.46875c-4.136719 0-7.5-3.363281-7.5-7.5s3.363281-7.5 7.5-7.5h7.5v15zm127.5-80h18.792969c2.5 0 4.839843-1.246094 6.230469-3.328125 2.796874-4.175781 7.460937-6.671875 12.476562-6.671875s9.679688 2.496094 12.476562 6.671875c1.394532 2.082031 3.730469 3.328125 6.230469 3.328125h18.792969v85c0 4.136719-3.363281 7.5-7.5 7.5-1.914062 0-3.742188-.734375-5.148438-2.0625-1.683593-1.597656-4.003906-2.320312-6.304687-1.96875-2.292969.355469-4.292969 1.75-5.414063 3.78125-2.648437 4.78125-7.679687 7.75-13.132812 7.75s-10.484375-2.96875-13.132812-7.75c-1.125-2.03125-3.125-3.425781-5.417969-3.78125-.378907-.058594-.761719-.085938-1.144531-.085938-1.902344 0-3.753907.726563-5.15625 2.054688-1.40625 1.332031-3.234376 2.0625-5.148438 2.0625-4.136719 0-7.5-3.363281-7.5-7.5zm105 5.007812c0 8.269532-6.730469 15-15 15v-36.742187l10.855469 11.398437c2.671875 2.804688 4.144531 6.476563 4.144531 10.34375zm-67.5-105.007812c8.269531 0 15 6.730469 15 15 0 8.273438-6.730469 15-15 15s-15-6.726562-15-15c0-8.269531 6.730469-15 15-15zm0 45c20.675781 0 37.5 16.824219 37.5 37.5v2.5h-15.140625c-5.652344-6.324219-13.746094-10-22.359375-10s-16.707031 3.675781-22.359375 10h-15.140625v-2.5c0-20.675781 16.820312-37.5 37.5-37.5zm-67.5 60.007812c0-3.867187 1.472656-7.539062 4.144531-10.34375 0 0 4.777344-5.015624 10.855469-11.398437v36.742187c-8.269531 0-15-6.730468-15-15zm100.855469 210.785157c-.042969-.023438-.089844-.039063-.132813-.058594-.183594-.085937-.367187-.164063-.558594-.238281-.074218-.027344-.148437-.054688-.222656-.082032-.191406-.066406-.382812-.121093-.582031-.171874-.074219-.019532-.144531-.039063-.21875-.054688-.207031-.046875-.417969-.082031-.628906-.109375-.0625-.011719-.125-.023437-.1875-.03125-.269531-.027344-.546875-.046875-.824219-.046875-.28125 0-.554688.019531-.828125.046875-.058594.007813-.121094.023437-.183594.03125-.210937.027344-.421875.0625-.628906.109375-.074219.015625-.148437.035156-.21875.054688-.199219.050781-.390625.105468-.582031.171874-.074219.027344-.148438.054688-.222656.082032-.191407.074218-.378907.152344-.558594.238281-.042969.023437-.089844.035156-.132813.058594l-26.644531 13.320312-26.648438-13.320312c-.039062-.023438-.085937-.035157-.128906-.054688-.183594-.089843-.371094-.171875-.5625-.242187-.074218-.03125-.144531-.054688-.21875-.082032-.191406-.066406-.386718-.121093-.585937-.171874-.070313-.019532-.144531-.039063-.214844-.058594-.207031-.042969-.417969-.078125-.632813-.109375-.0625-.007813-.121093-.019531-.183593-.027344-.269531-.03125-.546875-.046875-.824219-.046875-.28125 0-.554688.015625-.828125.046875-.0625.007813-.121094.019531-.183594.027344-.210937.03125-.421875.066406-.632812.109375-.070313.015625-.140625.039062-.214844.058594-.199219.050781-.394531.105468-.582031.171874-.074219.023438-.148438.050782-.222656.082032-.191407.070312-.378907.152344-.5625.242187-.042969.019531-.085938.03125-.128907.054688l-4.148437 2.070312v-32.863281h75v32.863281zm40.960937-135.792969c-3.761718 0-6.9375 2.785156-7.4375 6.507812-2.363281 17.753907-11.984375 34.148438-26.386718 44.980469-1.886719 1.414063-2.992188 3.636719-2.992188 5.992188v32.519531h-75v-32.519531c0-2.359375-1.109375-4.578125-2.992188-5.996094-14.40625-10.832031-24.023437-27.222656-26.390624-44.976563-.5-3.726562-3.675782-6.507812-7.433594-6.507812h-36.894532c3.09375-8.730469 11.429688-15 21.210938-15h37.496094v20c0 12.40625 10.09375 22.5 22.5 22.5 2.929687 0 5.789062-.566406 8.441406-1.644531 5.582031 5.761719 13.328125 9.144531 21.558594 9.144531 8.234375 0 15.980468-3.378906 21.5625-9.144531 2.652344 1.078125 5.511718 1.644531 8.4375 1.644531 12.40625 0 22.5-10.09375 22.5-22.5v-20h37.5c9.777344 0 18.117187 6.269531 21.210937 15zm0 0"/></svg>