<svg height="512pt" viewBox="-75 0 511 512" width="512pt" xmlns="http://www.w3.org/2000/svg"><path d="m338 185h-68.546875c-2.929687-10.316406-11.734375-18.175781-22.554687-19.71875 4.53125-4.371094 8.289062-9.535156 11.027343-15.28125h12.574219c12.617188 0 22.5-9.667969 22.5-22.011719 0-7.070312-3.25-13.558593-8.707031-17.769531-.683594-3.457031-2.175781-6.695312-4.414063-9.535156l-28.144531-35.683594c-.152344-.191406-.3125-.375-.480469-.550781-4.953125-6.09375-11.242187-11.058594-18.417968-14.449219 4.761718-5.3125 7.664062-12.320312 7.664062-20 0-16.542969-13.457031-30-30-30s-30 13.457031-30 30c0 7.679688 2.902344 14.6875 7.664062 20-7.175781 3.390625-13.464843 8.355469-18.417968 14.449219-.164063.175781-.328125.359375-.480469.550781l-28.144531 35.683594c-2.238282 2.839844-3.730469 6.078125-4.414063 9.535156-5.457031 4.210938-8.707031 10.699219-8.707031 17.769531 0 12.34375 9.882812 22.011719 22.5 22.011719h12.574219c2.738281 5.746094 6.496093 10.914062 11.027343 15.28125-10.820312 1.542969-19.625 9.40625-22.554687 19.71875h-38.546875v-162.5c0-4.144531-3.359375-7.5-7.5-7.5h-52.5v-7.5c0-4.144531-3.359375-7.5-7.5-7.5-24.8125 0-45 20.1875-45 45s20.1875 45 45 45c4.140625 0 7.5-3.355469 7.5-7.5v-7.5h45v80h-15c-12.40625 0-22.5 10.09375-22.5 22.5s10.09375 22.5 22.5 22.5h67.5v174.5c0 4.140625 3.355469 7.5 7.5 7.5h15v50h-22.5c-4.140625 0-7.5 3.355469-7.5 7.5v54.59375l-9.871094 3.289062c-3.929687 1.308594-6.054687 5.558594-4.746094 9.488282 1.046876 3.140625 3.976563 5.128906 7.113282 5.128906.789062 0 1.585937-.125 2.375-.386719l14.851562-4.953125c.019532-.003906 30.148438-10.046875 30.148438-10.046875 3.0625-1.019531 5.128906-3.886719 5.128906-7.113281v-107.5h45v107.5c0 3.226562 2.0625 6.09375 5.125 7.113281l30.128906 10.042969c.019532.003906 14.871094 4.957031 14.871094 4.957031.789062.261719 1.585938.386719 2.375.386719 3.140625 0 6.066406-1.988281 7.113281-5.128906 1.308594-3.929688-.8125-8.179688-4.746093-9.488282l-9.871094-3.289062v-54.59375c0-4.144531-3.355469-7.5-7.5-7.5h-22.5v-50h15c4.144531 0 7.5-3.359375 7.5-7.5v-174.5h67.5c4.136718 0 7.5 3.363281 7.5 7.5s-3.363282 7.5-7.5 7.5h-15c-4.136719 0-7.492188 3.351562-7.5 7.488281l-.140625 92.011719c0 4.128906-3.355469 7.492188-7.484375 7.5-4.15625-.007812-7.515625-3.371094-7.515625-7.488281l.140625-92c.007812-4.144531-3.34375-7.507813-7.488282-7.511719-4.148437 0-7.503906 3.347656-7.511718 7.484375l-.140625 92.015625c0 5.757812 2.179687 11.015625 5.75 15-3.574219 3.984375-5.75 9.242188-5.75 15v15c0 12.40625 10.09375 22.5 22.5 22.5s22.5-10.09375 22.5-22.5v-15c0-5.757812-2.175781-11.015625-5.746094-15 3.570313-3.980469 5.746094-9.238281 5.746094-14.988281l.132812-84.511719h7.511719c12.40625 0 22.5-10.09375 22.5-22.5s-10.09375-22.5-22.5-22.5zm-180 304.09375v-42.09375h15v37.09375zm105-42.09375v42.09375l-15-5v-37.09375zm-7.5-254.5v46.210938c-8.726562-3.097657-15-11.433594-15-21.210938v-37.5h2.5c6.894531 0 12.5 5.605469 12.5 12.5zm-30 17.5h-30v-30h30zm-52.5-82.5v-12.5h18.792969c2.503906 0 4.839843-1.25 6.230469-3.328125 2.796874-4.179687 7.460937-6.671875 12.476562-6.671875s9.679688 2.492188 12.476562 6.671875c1.390626 2.078125 3.730469 3.328125 6.234376 3.328125h18.789062v12.5c0 20.675781-16.820312 37.5-37.5 37.5-20.675781 0-37.5-16.824219-37.5-37.5zm96.71875-12.902344c.003906 2.832032 1.601562 5.421875 4.132812 6.695313 2.558594 1.285156 4.148438 3.851562 4.148438 6.695312 0 3.996094-3.222656 7.011719-7.5 7.011719h-8.042969c.351563-2.453125.542969-4.953125.542969-7.5v-23.992188l5.101562 6.46875c.738282.929688 1.613282 2.488282 1.617188 4.621094zm-74.21875-84.597656c0-8.269531 6.730469-15 15-15 8.273438 0 15 6.730469 15 15s-6.726562 15-15 15c-8.269531 0-15-6.730469-15-15zm15 30c20.679688 0 37.5 16.820312 37.5 37.5v2.5h-15.136719c-5.652343-6.324219-13.746093-10-22.363281-10-8.613281 0-16.707031 3.675781-22.359375 10h-15.140625v-2.5c0-20.679688 16.824219-37.5 37.5-37.5zm-60 75c-4.273438 0-7.5-3.015625-7.5-7.011719 0-2.84375 1.589844-5.410156 4.152344-6.695312 2.53125-1.273438 4.128906-3.863281 4.132812-6.695313 0-2.132812.878906-3.6875 1.613282-4.625l5.101562-6.46875v23.996094c0 2.546875.191406 5.046875.542969 7.5zm27.5 45h2.5v37.5c0 9.777344-6.269531 18.113281-15 21.210938v-46.210938c0-6.894531 5.609375-12.5 12.5-12.5zm-132.5-120c-4.140625 0-7.5 3.355469-7.5 7.5v6.550781c-12.921875-3.339843-22.5-15.097656-22.5-29.050781s9.578125-25.710938 22.5-29.050781v6.550781c0 4.144531 3.359375 7.5 7.5 7.5h52.5v30zm30 117.5c0-4.136719 3.367188-7.5 7.5-7.5h15v15h-15c-4.132812 0-7.5-3.363281-7.5-7.5zm90 189.5v-112.757812c14.671875-2.988282 26.257812-14.570313 29.246094-29.242188h31.507812c2.992188 14.671875 14.574219 26.253906 29.246094 29.242188v112.757812zm149.859375-7.5c0 4.132812-3.363281 7.5-7.5 7.5-4.132813 0-7.5-3.367188-7.5-7.5v-15c0-4.132812 3.359375-7.492188 7.488281-7.5 4.15625.007812 7.511719 3.367188 7.511719 7.5zm0 0"/></svg>