<svg height="511pt" viewBox="-76 0 511 511.9995" width="511pt" xmlns="http://www.w3.org/2000/svg"><path d="m235.355469 497.371094-9.871094-3.292969v-54.589844c0-4.144531-3.355469-7.5-7.5-7.5h-22.496094v-41.285156c8.726563-3.097656 14.996094-11.433594 14.996094-21.210937v-39.496094h7.5c4.144531 0 7.5-3.359375 7.5-7.5v-30.410156c0-15.402344-5.304687-30.316407-14.996094-42.308594v-26.046875c2.347657.832031 4.871094 1.289062 7.496094 1.289062 12.40625 0 22.5-10.09375 22.5-22.5v-30c0-4.140625-3.355469-7.496093-7.5-7.496093h-38.339844c9.765625-9.539063 15.839844-22.835938 15.839844-37.53125v-64.996094c0-20.90625-8.851563-38.351563-25.605469-50.453125-12.359375-8.925781-24.742187-11.75-25.261718-11.863281-1.074219-.2382818-2.183594-.2382818-3.253907 0-.523437.113281-12.902343 2.9375-25.265625 11.863281-16.75 12.101562-25.605468 29.546875-25.605468 50.453125v64.996094c0 14.695312 6.078124 27.992187 15.84375 37.53125h-38.339844c-4.144532 0-7.5 3.355468-7.5 7.496093v12.5h-52.496094c-12.40625 0-22.5 10.09375-22.5 22.5s10.09375 22.5 22.5 22.5h7.496094v29.996094h-22.496094c-4.144531 0-7.5 3.355469-7.5 7.5 0 4.140625 3.355469 7.5 7.5 7.5h7.5v214.484375c0 1.988281.789062 3.898438 2.195312 5.304688l15 15c1.464844 1.460937 3.382813 2.195312 5.300782 2.195312 1.921875 0 3.839844-.734375 5.304687-2.195312l15-15c1.40625-1.40625 2.195313-3.3125 2.195313-5.304688v-214.484375h7.5c4.140625 0 7.5-3.359375 7.5-7.5 0-4.144531-3.359375-7.5-7.5-7.5h-22.5v-37.496094c0-4.144531-3.355469-7.5-7.5-7.5h-14.996094c-4.136719 0-7.5-3.363281-7.5-7.5s3.363281-7.5 7.5-7.5h52.496094v2.5c0 12.40625 10.09375 22.5 22.496094 22.5 2.628906 0 5.152343-.460937 7.5-1.292969v26.050782c-9.691407 11.992187-14.996094 26.90625-14.996094 42.308594l-.003906 30.410156c0 1.988281.792968 3.894531 2.199218 5.300781 1.40625 1.410156 3.3125 2.199219 5.300782 2.199219h7.5v39.496094c0 9.777343 6.269531 18.113281 15 21.210937v41.285156h-22.5c-4.140626 0-7.5 3.355469-7.5 7.5v54.589844l-9.871094 3.292969c-3.925782 1.308594-6.050782 5.554687-4.742188 9.484375 1.050782 3.144531 3.976563 5.128906 7.113282 5.128906.789062 0 1.585937-.125 2.375-.386719l14.851562-4.949218c.015625-.007813 30.144531-10.050782 30.144531-10.050782 3.0625-1.019531 5.128907-3.886718 5.128907-7.113281v-98.78125c8.726562-3.097656 14.996093-11.433594 14.996093-21.210937v-39.496094h15v39.496094c0 9.777343 6.269531 18.113281 15 21.210937v98.78125c0 3.230469 2.066407 6.09375 5.128907 7.113281l30.125 10.042969c.019531.007813 14.871093 4.957031 14.871093 4.957031.785157.261719 1.585938.386719 2.371094.386719 3.140625 0 6.066406-1.984375 7.113281-5.128906 1.3125-3.929688-.8125-8.175781-4.742187-9.484375zm-114.863281-399.875c0-20.679688 16.820312-37.5 37.496093-37.5 20.679688 0 37.5 16.820312 37.5 37.5v2.496094h-15.140625c-5.652344-6.320313-13.746094-9.996094-22.359375-9.996094s-16.707031 3.675781-22.359375 9.996094h-15.136718zm37.46875-82.234375c3.203124.957031 10.726562 3.589843 18.136718 8.941406 12.398438 8.957031 18.886719 21.25 19.34375 36.554687-9.53125-9.71875-22.796875-15.761718-37.453125-15.761718-14.652343 0-27.914062 6.042968-37.449219 15.757812 1.007813-32.792968 30.019532-43.339844 37.421876-45.492187zm-37.46875 112.230469v-12.5h18.789062c2.503906 0 4.839844-1.246094 6.230469-3.324219 2.796875-4.179688 7.464843-6.675781 12.476562-6.675781 5.015625 0 9.679688 2.496093 12.476563 6.675781 1.394531 2.078125 3.730468 3.324219 6.234375 3.324219h18.789062v12.5c0 20.675781-16.820312 37.496093-37.5 37.496093-20.675781 0-37.496093-16.820312-37.496093-37.496093zm-74.996094 358.902343-7.5 7.5-7.5-7.5v-211.378906h15zm59.996094-171.398437.003906-14.996094h104.988281v14.996094zm90-69.976563h-15.003907v-15h15.003907zm-45.003907 0v-15h15v15zm45.003907-42.574219c0 .023438-.003907.050782-.003907.074219 0 .054688 0 .101563.003907.15625v12.34375h-75v-34.996093h75zm-75 27.574219h15v15h-15zm-3.960938 29.996094h82.917969c5.671875 7.304687 9.304687 15.917969 10.550781 24.984375h-104.019531c1.25-9.066406 4.882812-17.679688 10.550781-24.984375zm108.953125-57.496094c0 4.136719-3.363281 7.5-7.5 7.5-4.109375 0-7.453125-3.324219-7.496094-7.421875v-22.574218h14.996094zm-127.492187 7.5c-4.132813 0-7.5-3.363281-7.5-7.5v-22.496093h15v22.496093c0 4.136719-3.363282 7.5-7.5 7.5zm7.5 279.058594v-42.089844h15v37.09375zm30-119.585937c0 4.136718-3.363282 7.5-7.5 7.5-4.136719 0-7.5-3.363282-7.5-7.5v-39.496094h15zm59.996093-39.496094v39.496094c0 4.136718-3.363281 7.5-7.5 7.5s-7.5-3.363282-7.5-7.5v-39.496094zm0 116.992187h14.996094v42.089844l-14.996094-4.996094zm0 0"/><path d="m307.980469 282.167969c12.40625 0 22.5-10.09375 22.5-22.5s-10.09375-22.5-22.5-22.5c-12.402344 0-22.496094 10.09375-22.496094 22.5s10.09375 22.5 22.496094 22.5zm0-30c4.136719 0 7.5 3.363281 7.5 7.5s-3.363281 7.5-7.5 7.5c-4.132813 0-7.5-3.363281-7.5-7.5s3.367187-7.5 7.5-7.5zm0 0"/><path d="m307.980469 147.171875c-12.402344 0-22.496094 10.09375-22.496094 22.5s10.09375 22.5 22.496094 22.5c12.40625 0 22.5-10.09375 22.5-22.5s-10.09375-22.5-22.5-22.5zm0 30c-4.132813 0-7.5-3.363281-7.5-7.5s3.367187-7.5 7.5-7.5c4.136719 0 7.5 3.363281 7.5 7.5s-3.363281 7.5-7.5 7.5zm0 0"/><path d="m307.980469 327.164062c-12.402344 0-22.496094 10.09375-22.496094 22.5 0 12.402344 10.09375 22.496094 22.496094 22.496094 12.40625 0 22.5-10.09375 22.5-22.496094 0-12.40625-10.09375-22.5-22.5-22.5zm0 30c-4.132813 0-7.5-3.367187-7.5-7.5 0-4.136718 3.367187-7.5 7.5-7.5 4.136719 0 7.5 3.363282 7.5 7.5 0 4.132813-3.363281 7.5-7.5 7.5zm0 0"/><path d="m307.980469 117.175781c-28.945313 0-52.496094 23.550781-52.496094 52.496094v179.988281c0 28.949219 23.550781 52.5 52.496094 52.5 28.949219 0 52.5-23.550781 52.5-52.5v-179.988281c0-28.945313-23.550781-52.496094-52.5-52.496094zm37.5 232.484375c0 20.679688-16.820313 37.5-37.5 37.5-20.675781 0-37.5-16.820312-37.5-37.5v-53.304687c9.539062 9.746093 22.824219 15.808593 37.5 15.808593 14.679687 0 27.964843-6.0625 37.5-15.804687zm-75-89.992187c0-20.679688 16.824219-37.5 37.5-37.5 20.679687 0 37.5 16.820312 37.5 37.5 0 20.675781-16.820313 37.5-37.5 37.5-20.675781 0-37.5-16.824219-37.5-37.5zm37.5-52.5c-14.675781 0-27.960938 6.066406-37.5 15.808593v-53.304687c0-20.675781 16.824219-37.496094 37.5-37.496094 20.679687 0 37.5 16.820313 37.5 37.496094v53.304687c-9.535157-9.746093-22.820313-15.808593-37.5-15.808593zm0 0"/></svg>