<svg id="Layer_1" enable-background="new 0 0 512.01 512.01" height="512" viewBox="0 0 512.01 512.01" width="512" xmlns="http://www.w3.org/2000/svg"><g><path d="m196.004 112.482h-120.998c-8.284 0-15 6.716-15 15v190.001c0 8.284 6.716 15 15 15h120.998c8.284 0 15-6.716 15-15v-190.001c0-8.284-6.716-15-15-15zm-15 190.001h-90.998v-160.001h90.998z"/><path d="m315.891 284.983h121c8.284 0 15-6.716 15-15v-95c0-8.284-6.716-15-15-15h-121c-8.284 0-15 6.716-15 15v95c0 8.285 6.715 15 15 15zm15-95h91v65h-91z"/><path d="m511.698 56.007c-.624-2.993-2.161-5.788-4.393-7.897-2.754-2.603-6.509-4.106-10.3-4.106h-482c-.421 0-.835.029-1.247.063-3.123.265-6.128 1.509-8.51 3.553-2.396 2.055-4.104 4.871-4.83 7.941-.035.149-.081.294-.112.445-.2.98-.306 1.984-.306 3l.005 370c0 8.284 6.716 15 15 15h201.723c7.657 14.419 22.854 24 39.777 24s32.12-9.581 39.777-24h200.723c8.284 0 15-6.716 15-15 0 0 .005-370 .005-370 0-1.01-.107-2.015-.312-2.999zm-481.693 17.998h196.5c6.859 0 12.784 4.647 14.5 11.194v268.884c-.812-.047-211-.077-211-.077zm241 11.194c1.716-6.547 7.641-11.194 14.5-11.194h196.5v280s-210.178.03-211 .084zm14.892 328.807c-7.123 0-13.264 5.009-14.694 11.987-1.427 6.96-7.608 12.013-14.698 12.013s-13.271-5.052-14.698-12.013c-1.431-6.978-7.571-11.987-14.694-11.987h-197.108v-30h208.5c.494 0 .876.023 1.162.052.655 1.447 1.462 4.309 1.931 5.971 1.833 6.508 7.767 10.934 14.429 10.933.408 0 .821-.017 1.234-.051 7.151-.586 12.887-6.156 13.682-13.288.255-2.281.923-3.282 1.07-3.413.094-.053.568-.205 1.492-.205h208.5v30h-196.108z"/></g></svg>