<svg id="Layer_1" enable-background="new 0 0 512.001 512.001" height="512" viewBox="0 0 512.001 512.001" width="512" xmlns="http://www.w3.org/2000/svg"><g><path d="m511.224 298.259c-.279-.837-.624-1.657-1.047-2.431l-31.348-59.793c-2.59-4.94-7.707-8.035-13.285-8.035h-115.543v-40.865c1.623.575 3.309.867 4.987.867 4.729 0 9.384-2.231 12.302-6.399 4.75-6.787 3.1-16.14-3.687-20.891l-43.603-30.522v-65.19c0-8.284-6.716-15-15-15h-60c-8.284 0-15 6.716-15 15v2.19l-36.398-25.479c-5.165-3.615-12.039-3.615-17.204 0l-170 119c-6.787 4.751-8.437 14.104-3.687 20.891 3.954 5.648 11.092 7.723 17.289 5.527v270.871c0 8.284 6.716 15 15 15h462c8.284 0 15-6.716 15-15 0 0 0-154.983 0-155 .001-.051-.264-3.277-.776-4.741zm-54.752-40.259 15.729 30h-122.2v-30zm-196.47-177.999h30v29.19l-30-21zm-210.001 86.81 135-94.5 135 94.5v276.19h-76.091v-113c0-8.284-6.716-15-15-15h-87.818c-8.284 0-15 6.716-15 15v113h-76.091zm106.092 276.19v-98h57.818v34h-8.909c-8.284 0-15 6.716-15 15s6.716 15 15 15h8.909v34zm325.908 0h-132v-125h132z"/><path d="m185.002 231.001c27.846 0 50.5-22.654 50.5-50.5s-22.654-50.5-50.5-50.5-50.5 22.654-50.5 50.5 22.654 50.5 50.5 50.5zm0-71c11.304 0 20.5 9.196 20.5 20.5s-9.196 20.5-20.5 20.5-20.5-9.196-20.5-20.5 9.196-20.5 20.5-20.5z"/></g></svg>