<svg id="Layer_1" enable-background="new 0 0 512 512" height="512" viewBox="0 0 512 512" width="512" xmlns="http://www.w3.org/2000/svg"><g><path d="m329 166.749h-106c-8.284 0-15 6.716-15 15v60c0 8.284 6.716 15 15 15h106c8.284 0 15-6.716 15-15v-60c0-8.284-6.716-15-15-15zm-15 60.001h-76v-30h76z"/><path d="m497 358.749h-44.725c6.772-10.362 10.725-22.724 10.725-36v-90.415c0-16.818-5.708-31.682-16.965-44.176l-77.955-86.53c-8.771-9.734-20.332-14.879-33.433-14.879h-289.647c-24.813 0-45 20.187-45 45v212c0 24.813 20.187 45 45 45h176.3c4.977 20.904 23.796 36.501 46.2 36.501s41.223-15.597 46.2-36.501h183.3c8.284 0 15-6.716 15-15s-6.716-15-15-15zm-407.003-170.999h51.003v70.5h-4c-8.284 0-15 6.716-15 15s6.716 15 15 15h4v70.5h-51zm177.503 207.5c-9.649 0-17.5-7.851-17.5-17.5s7.851-17.5 17.5-17.5 17.5 7.851 17.5 17.5c0 9.65-7.851 17.5-17.5 17.5zm43.521-36.501c-7.345-16.758-24.084-28.5-43.522-28.5s-36.177 11.741-43.522 28.5h-52.977v-171c0-16.542-13.458-30-30-30h-51c-16.542 0-30 13.458-30 30v171h-15c-8.271 0-15-6.729-15-15v-212c0-8.271 6.729-15 15-15h289.647c4.555 0 8.096 1.576 11.145 4.96l77.954 86.53c6.313 7.007 9.254 14.664 9.254 24.096v90.415c0 19.85-16.149 36-36 36h-85.979z"/></g></svg>