<svg id="Layer_1" enable-background="new 0 0 512 512" height="512" viewBox="0 0 512 512" width="512" xmlns="http://www.w3.org/2000/svg"><g clip-rule="evenodd" fill-rule="evenodd"><path d="m491.917 138.497c-.104-.261-.216-.518-.333-.772-.581-1.361-1.154-2.724-1.759-4.077-9.325-20.86-21.258-40.141-35.604-57.648h4.747c8.284 0 15-6.716 15-15s-6.716-15-15-15h-405.935c-8.284 0-15 6.716-15 15s6.716 15 15 15h4.747c-14.347 17.507-26.279 36.789-35.604 57.648-14.715 32.915-22.176 68.024-22.176 104.352 0 94.983 52.172 181.676 136.154 226.25 2.166 1.149 4.58 1.75 7.032 1.75h225.627c2.452 0 4.866-.601 7.032-1.75 83.983-44.574 136.155-131.267 136.155-226.25 0-34.551-6.763-67.996-20.083-99.503zm-38.032-9.496h-395.77c10.684-19.416 24.225-37.324 40.328-53h315.115c16.103 15.676 29.643 33.584 40.327 53zm-88.868 306.999h-218.034c-72.253-39.847-116.983-115.374-116.983-198 0-27.187 4.974-53.936 14.346-78.999h423.309c9.37 25.063 14.345 51.812 14.345 78.999 0 82.626-44.73 158.153-116.983 198z"/><path d="m352.3 224.242c-19.907-14.979-42.997-22.896-66.773-22.896s-46.866 7.917-66.773 22.896c-13.31 10.015-24.813 22.901-33.956 37.886l-44.515-47.983c-4.195-4.522-10.729-6.015-16.476-3.762-5.743 2.254-9.521 7.794-9.521 13.963v127.307c0 6.169 3.777 11.709 9.521 13.963 1.78.699 3.637 1.037 5.476 1.037 4.095 0 8.105-1.678 11-4.799l44.515-47.983c9.142 14.985 20.646 27.871 33.955 37.885 19.907 14.979 42.997 22.896 66.773 22.896s46.866-7.917 66.773-22.896c18.925-14.239 34.219-34.265 44.228-57.911 1.582-3.738 1.582-7.957 0-11.694-10.008-23.644-25.302-43.67-44.227-57.909zm-208.014 89.188v-50.86l23.592 25.43zm141.24 31.223c-33.298 0-63.752-21.542-80.727-56.653 16.975-35.111 47.429-56.653 80.727-56.653s63.752 21.542 80.727 56.653c-16.975 35.111-47.429 56.653-80.727 56.653z"/><path d="m322.286 273c-8.261 0-15 6.738-15 15s6.739 15 15 15c8.262 0 15-6.738 15-15s-6.738-15-15-15z"/></g></svg>