<svg id="Layer_1" enable-background="new 0 0 512 512" height="512" viewBox="0 0 512 512" width="512" xmlns="http://www.w3.org/2000/svg"><path d="m425.5 216.25c-1.258 0-2.508.033-3.753.086l-10.031-45.347c-1.045-4.726-.081-8.857 2.95-12.631 3.03-3.774 6.856-5.608 11.696-5.608h34.638c8.284 0 15-6.716 15-15s-6.716-15-15-15h-34.638c-13.915 0-26.376 5.976-35.088 16.825-8.712 10.85-11.855 24.308-8.85 37.895l1.168 5.28h-87.053l-12.632-30h26.059c8.284 0 15-6.716 15-15s-6.716-15-15-15h-53c-8.284 0-15 6.716-15 15 0 6.081 3.625 11.305 8.826 13.66l13.196 31.34h-69.415l-12.632-30h26.059c8.284 0 15-6.716 15-15s-6.716-15-15-15h-53c-8.284 0-15 6.716-15 15 0 6.081 3.625 11.305 8.827 13.66l16.576 39.366-33.76 38.217c-13.149-8.078-28.611-12.742-45.142-12.742-47.696 0-86.5 38.804-86.5 86.5s38.804 86.5 86.5 86.5c42.581 0 78.071-30.928 85.195-71.499h168.61c7.123 40.571 42.614 71.499 85.195 71.499 47.696 0 86.5-38.804 86.5-86.5-.001-47.697-38.805-86.501-86.501-86.501zm-18.681 71.501h-35.782c4.169-15.118 14.469-27.713 28.055-34.928zm-16.591-75.001 2.227 10.067c-26.669 11.066-46.645 35.101-52.015 64.195l-31.27-74.262zm-113.608 0 31.581 75.001h-69.415l-31.581-75.001zm-70.385 75.001h-34.54c-2.55-14.524-8.736-27.809-17.581-38.885l24.208-27.404zm-72.45-15.871c3.164 4.83 5.606 10.171 7.178 15.871h-21.199zm-47.285 87.37c-31.154 0-56.5-25.346-56.5-56.5s25.346-56.5 56.5-56.5c8.898 0 17.318 2.074 24.813 5.754 0 0-36.056 40.815-36.056 40.815-1.938 2.194-3.21 4.997-3.607 7.894-.415 3.02.117 6.153 1.505 8.866 2.392 4.676 7.362 7.881 12.622 8.151.24.012.481.019.722.019h54.463c-6.589 23.896-28.502 41.501-54.462 41.501zm339 0c-25.96 0-47.873-17.605-54.463-41.499h54.38c4.013 0 7.992-1.645 10.802-4.518 3.553-3.632 4.916-8.895 3.903-13.827-.237-1.155-.51-2.304-.764-3.455-.535-2.419-10.949-49.498-10.978-49.627 29.821 1.505 53.62 26.238 53.62 56.426 0 31.154-25.346 56.5-56.5 56.5z"/></svg>