<svg id="Layer_1" enable-background="new 0 0 512 512" height="512" viewBox="0 0 512 512" width="512" xmlns="http://www.w3.org/2000/svg"><path d="m381.178 159.572c11.496-8.28 18.945-21.794 18.945-36.572 0-18.529-11.703-35.081-28.421-41.805-7.969-21.968-22.292-41.583-40.946-55.878-21.612-16.561-47.462-25.316-74.752-25.317-.003 0-.006 0-.009 0-27.29.001-53.139 8.756-74.751 25.317-18.654 14.295-32.977 33.91-40.946 55.878-16.719 6.724-28.421 23.275-28.421 41.805 0 14.778 7.449 28.292 18.944 36.571-16.913 39.302-25.821 83.024-25.821 127.022 0 56.846 14.528 111.896 42.015 159.198 12.195 20.988 27.825 37.409 46.454 48.807 18.873 11.547 39.912 17.402 62.531 17.402s43.657-5.855 62.531-17.402c18.629-11.398 34.259-27.819 46.454-48.807 27.486-47.303 42.015-102.353 42.015-159.198 0-44-8.908-87.719-25.822-127.021zm-29.164 245.841-74.169-40.343 96.448-38.25c-3.712 27.422-11.212 53.911-22.279 78.593zm8.194-217.118c10.607 29.887 16.331 62.068 16.742 94.54l-87.236-41.5c14.729-4.178 28.591-11.111 41.042-20.653 11.682-8.952 21.664-19.991 29.452-32.387zm-205.707-80.104c5.751-.928 10.444-5.101 12.039-10.704 9.101-31.985 34.717-56.193 65.938-64.424-.882 9.306.713 19.008 4.999 27.663 7.821 15.792 22.724 24.674 40.741 24.673 2.538 0 5.141-.176 7.791-.535 8.21-1.109 13.965-8.664 12.856-16.874-1.11-8.21-8.674-13.965-16.874-12.856-8.707 1.178-14.474-1.35-17.632-7.724-2.582-5.214-2.701-11.989-.705-17.093 38.187 3.178 71.203 29.903 81.807 67.169 1.594 5.603 6.288 9.776 12.039 10.704 7.197 1.161 12.625 7.527 12.625 14.809s-5.427 13.648-12.625 14.809c-5.75.928-10.444 5.101-12.039 10.704-11.307 39.735-48.094 67.487-89.46 67.487s-78.153-27.751-89.46-67.487c-1.594-5.603-6.288-9.776-12.039-10.704-7.197-1.161-12.625-7.527-12.625-14.809s5.427-13.647 12.624-14.808zm-2.709 80.103c7.788 12.396 17.77 23.436 29.453 32.388 10.37 7.947 21.722 14.075 33.733 18.322l136.105 64.748-199.973 79.307c-10.607-30.463-16.11-63.103-16.11-96.466 0-33.743 5.776-67.259 16.792-98.299zm104.208 293.706c-34.338 0-63.831-18.212-83.047-51.281-3.762-6.475-7.251-13.115-10.471-19.897l79.052-31.351 96.702 52.6c-19.229 32.206-48.373 49.929-82.236 49.929z"/></svg>