<svg id="Layer_1" enable-background="new 0 0 512.012 512.012" height="512" viewBox="0 0 512.012 512.012" width="512" xmlns="http://www.w3.org/2000/svg"><g><path d="m504.215 133.85-241.003-132c-4.49-2.459-9.922-2.459-14.412 0l-241.003 132c-7.266 3.979-9.93 13.096-5.95 20.361 3.979 7.265 13.093 9.931 20.362 5.95l20.797-11.391v333.234h-21.003c-8.284 0-15 6.716-15 15s6.716 15 15 15h468.006c8.284 0 15-6.716 15-15s-6.716-15-15-15h-21.003v-333.233l20.797 11.391c2.287 1.253 4.757 1.847 7.192 1.847 5.303 0 10.442-2.818 13.17-7.797 3.98-7.266 1.316-16.382-5.95-20.362zm-153.209 348.156h-190v-72.384c0-52.147 42.617-94.573 95-94.573s95 42.425 95 94.573zm88 0h-58v-72.384c0-68.689-56.075-124.573-125-124.573s-125 55.883-125 124.573v72.384h-58v-349.666l183-100.231 183 100.231z"/><path d="m184.756 121.006c-24.813 0-45 20.187-45 45 0 8.925 2.646 17.502 7.42 24.75-4.774 7.248-7.42 15.825-7.42 24.75 0 24.813 20.187 45 45 45 17.399 0 32.748-9.879 40.214-24.75h62.072c7.466 14.871 22.814 24.75 40.214 24.75 24.813 0 45-20.187 45-45 0-8.925-2.646-17.502-7.42-24.75 4.774-7.248 7.42-15.825 7.42-24.75 0-24.813-20.187-45-45-45-17.399 0-32.748 9.879-40.214 24.75h-62.072c-7.466-14.87-22.815-24.75-40.214-24.75zm112.959 54.75c7.278 0 13.507-5.225 14.771-12.393 1.264-7.16 7.476-12.357 14.77-12.357 8.271 0 15 6.729 15 15 0 4.946-2.442 9.575-6.533 12.383-4.076 2.797-6.512 7.423-6.512 12.367s2.436 9.569 6.512 12.367c4.091 2.809 6.533 7.438 6.533 12.383 0 8.271-6.729 15-15 15-7.294 0-13.506-5.197-14.77-12.357-1.265-7.168-7.493-12.393-14.771-12.393h-83.418c-7.278 0-13.507 5.225-14.771 12.393-1.264 7.16-7.476 12.357-14.77 12.357-8.271 0-15-6.729-15-15 0-4.946 2.442-9.575 6.533-12.383 4.076-2.797 6.512-7.423 6.512-12.367s-2.436-9.569-6.512-12.367c-4.091-2.809-6.533-7.438-6.533-12.383 0-8.271 6.729-15 15-15 7.294 0 13.506 5.197 14.77 12.357 1.265 7.168 7.493 12.393 14.771 12.393z"/></g></svg>