<svg id="Layer_1" enable-background="new 0 0 512 512" height="512" viewBox="0 0 512 512" width="512" xmlns="http://www.w3.org/2000/svg"><g><path d="m497 328h-116.282c-.285-10.942-3.43-21.184-8.735-30h86.017c8.284 0 15-6.716 15-15v-268c0-8.284-6.716-15-15-15h-404c-8.284 0-15 6.716-15 15v268c0 8.284 6.716 15 15 15h86.017c-5.306 8.816-8.45 19.058-8.735 30h-116.282c-8.284 0-15 6.716-15 15v154c0 8.284 6.716 15 15 15h241 241c8.284 0 15-6.716 15-15v-154c0-8.284-6.716-15-15-15zm-428-298h374v238h-374zm124.007 268h125.984c16.972 0 30.878 13.315 31.726 30h-94.717-94.719c.849-16.685 14.755-30 31.726-30zm-163.007 60h211v124h-211zm452 124h-211v-124h211z"/><path d="m154.5 405h-38c-8.284 0-15 6.716-15 15s6.716 15 15 15h38c8.284 0 15-6.716 15-15s-6.716-15-15-15z"/><path d="m357.5 435h38c8.284 0 15-6.716 15-15s-6.716-15-15-15h-38c-8.284 0-15 6.716-15 15s6.716 15 15 15z"/></g></svg>