<svg id="Layer_1" enable-background="new 0 0 512.007 512.007" height="512" viewBox="0 0 512.007 512.007" width="512" xmlns="http://www.w3.org/2000/svg"><g><path d="m308.004 326.879c0-22.809-35.034-30.188-52-30.188s-52 7.379-52 30.188c0 5.821 2.198 15.211 21.201 29.483 3.658 2.748 9.017 6.452 14.768 9.392-2.196 5.638-7.674 9.563-13.969 9.563-8.284 0-15 6.716-15 15s6.716 15 15 15c11.443 0 21.995-4.323 30.004-11.492 7.967 7.14 18.481 11.492 29.996 11.492 8.284 0 15-6.716 15-15s-6.716-15-15-15c-6.353 0-11.782-3.976-13.965-9.565 5.749-2.94 11.107-6.643 14.764-9.391 19.003-14.271 21.201-23.66 21.201-29.482zm-52 13.361c-4.145-1.637-11.275-6.429-16.539-10.824 4.714-1.476 10.849-2.724 16.539-2.724 5.689 0 11.825 1.248 16.539 2.724-5.264 4.395-12.394 9.187-16.539 10.824z"/><path d="m500.907 422.71-80.017-21.568c14.44-12.573 27.089-25.645 37.799-38.948h38.314c8.284 0 15-6.716 15-15s-6.716-15-15-15h-17.673c13.487-23.577 20.674-47.242 20.674-69.556 0-16.632-2.865-32.898-8.388-48.491l19.861-128.994c2.446-15.886-3.742-31.164-16.551-40.87-12.811-9.707-29.193-11.532-43.826-4.88l-109.848 49.938c-26.92-7.557-55.693-11.513-85.248-11.513-29.53 0-58.279 3.95-85.179 11.494l-109.808-49.92c-14.632-6.65-31.015-4.828-43.825 4.88-12.809 9.706-18.997 24.984-16.552 40.87l19.421 126.132c.12.78.31 1.53.541 2.259-5.663 15.777-8.599 32.248-8.599 49.094 0 22.314 7.186 45.979 20.674 69.556h-17.673c-8.284 0-15 6.716-15 15s6.716 15 15 15h38.313c10.711 13.303 23.36 26.376 37.8 38.949l-80.017 21.568c-7.999 2.156-12.735 10.389-10.579 18.387 1.804 6.692 7.859 11.101 14.474 11.101 1.292 0 2.606-.169 3.913-.521l101.67-27.405c46.178 32.627 96.44 52.286 135.426 52.286 38.985 0 89.248-19.658 135.426-52.286l101.67 27.404c1.308.352 2.621.521 3.913.521 6.614 0 12.67-4.409 14.474-11.101 2.156-7.998-2.581-16.23-10.58-18.386zm-37.39-355.998c4.635-2.108 9.23-1.596 13.29 1.479 4.059 3.075 5.794 7.361 5.02 12.396l-13.871 90.092c-11.038-14.576-24.798-28.083-41.09-40.164-13.855-10.274-29.076-19.142-45.339-26.529zm-433.226 13.875c-.775-5.034.961-9.32 5.02-12.396s8.654-3.588 13.291-1.479l81.935 37.249c-16.284 7.392-31.524 16.268-45.395 26.554-16.246 12.046-29.976 25.511-40.998 40.04zm225.713 365.97c-26.796 0-62.053-12.643-96.198-32.859l3.889-1.048c7.999-2.156 12.735-10.389 10.579-18.388s-10.387-12.732-18.387-10.579l-29.016 7.821c-11.901-9.058-23.23-18.908-33.507-29.311h55.565c8.284 0 15-6.716 15-15s-6.716-15-15-15h-80.96c-16.007-22.59-25.965-46.463-25.965-69.556 0-85.362 96-154.81 214.001-154.81 118 0 214 69.447 214 154.81 0 23.093-9.958 46.965-25.965 69.556h-80.96c-8.284 0-15 6.716-15 15s6.716 15 15 15h55.565c-10.277 10.403-21.606 20.254-33.507 29.311l-29.016-7.821c-8.001-2.157-16.231 2.58-18.387 10.579s2.58 16.231 10.579 18.388l3.889 1.048c-34.147 20.217-69.403 32.859-96.199 32.859z"/><path d="m168.92 184.192c-24.813 0-45 20.187-45 45s20.187 45 45 45 45-20.187 45-45-20.187-45-45-45zm0 60c-8.271 0-15-6.729-15-15s6.729-15 15-15 15 6.729 15 15-6.729 15-15 15z"/><path d="m388.088 229.192c0-24.813-20.187-45-45-45s-45 20.187-45 45 20.187 45 45 45 45-20.187 45-45zm-60.001 0c0-8.271 6.729-15 15-15s15 6.729 15 15-6.729 15-15 15-15-6.729-15-15z"/></g></svg>