<svg id="Layer_1" enable-background="new 0 0 512 512" height="512" viewBox="0 0 512 512" width="512" xmlns="http://www.w3.org/2000/svg"><path d="m459.042 247.938v-44.938c0-111.935-91.104-203-203.084-203-111.935 0-203 91.065-203 203v44.938c0 28.377 10.557 55.601 29.724 76.653 8.877 9.75 19.241 17.792 30.607 23.884-6.907 5.024-13.411 10.702-19.417 17.008-25.067 26.32-38.872 60.713-38.872 96.844v34.673c0 8.284 6.716 15 15 15s15-6.716 15-15v-34.673c0-34.208 15.553-64.923 40.114-85.259 2.093 12.564 10.392 21.747 17.216 29.271 4.172 4.599 8.112 8.942 9.752 12.903 1.053 2.54.996 7.449.942 12.197-.114 10.069-.271 23.861 10.503 33.812 10.988 10.148 25.092 10.836 36.424 11.388 6.201.303 12.059.588 16.019 2.229 2.54 1.052 5.972 4.563 9.29 7.958 6.841 6.998 16.136 16.508 30.103 16.508.406 0 .818-.008 1.233-.024 14.945-.595 25.404-10.081 33.808-17.704 4.599-4.171 8.942-8.111 12.902-9.751 2.541-1.052 7.448-.995 12.198-.942 10.067.121 23.861.272 33.811-10.502 10.149-10.988 10.837-25.092 11.389-36.425.303-6.201.588-12.059 2.229-16.019 1.052-2.54 4.563-5.972 7.959-9.291 6.158-6.019 14.255-13.943 16.111-25.275 24.457 20.43 39.997 51.116 39.997 84.926v34.673c0 8.284 6.716 15 15 15s15-6.716 15-15v-34.673c0-46.362-22.986-88.103-58.396-113.843 36.145-19.416 60.438-57.702 60.438-100.546zm-204.042 83.164c-58.448 0-106-47.552-106-106v-45.672c18.917 3.795 38.686 5.701 58.259 5.701 23.975 0 47.654-2.856 69.098-8.591 34.346-9.184 62.84-25.25 84.644-47.415v95.976c-.001 58.449-47.553 106.001-106.001 106.001zm53.035 19.23c-4.718 24.424-26.343 43.007-52.033 43.007-25.495 0-46.839-18.096-51.873-42.117 15.723 6.365 32.893 9.88 50.871 9.88 18.805 0 36.73-3.839 53.035-10.77zm-225.077-102.394v-44.938c0-95.393 77.607-173 173-173 41.721 0 80.042 14.832 109.963 39.497-41.246 91.046-157.515 96.145-227.886 76.494-4.094-1.143-8.673-.412-12.229 1.901-.493.321-.949.685-1.418 1.037-3.354 2.803-5.387 7.133-5.387 11.509v64.664c0 39.702 17.104 75.483 44.327 100.369-5.047 1.193-10.012 2.662-14.875 4.402-37.967-8.475-65.495-42.067-65.495-81.935zm274.441 124.566c-.304 1.705-4.972 6.268-7.479 8.719-5.297 5.178-11.301 11.047-14.705 19.264-3.635 8.774-4.081 17.946-4.476 26.039-.365 7.481-.709 14.549-3.441 17.513-1.42.99-7.943.917-11.453.876-7.406-.087-15.803-.181-24.02 3.224-8.774 3.635-15.576 9.805-21.577 15.248-5.549 5.032-10.789 9.786-14.815 9.95-1.705-.304-6.268-4.972-8.719-7.479-5.178-5.297-11.047-11.301-19.264-14.705-8.774-3.635-17.946-4.081-26.038-4.476-7.482-.365-14.55-.709-17.514-3.441-.99-1.421-.916-7.946-.876-11.453.084-7.406.18-15.802-3.224-24.018-3.635-8.776-9.805-15.578-15.248-21.579-5.032-5.549-9.786-10.789-9.95-14.815.304-1.704 17.991-17.266 19.509-17.565 6.455 39.383 40.711 69.535 81.893 69.535 21.995 0 42.722-8.517 58.361-23.982 12.621-12.48 20.747-28.325 23.546-45.533 2.608.517 19.326 14.651 19.49 18.678zm6.077-42.628c-5.328-1.912-10.803-3.512-16.408-4.773 26.992-24.87 43.932-60.493 43.932-100.001v-130.183c23.787 29.633 38.042 67.221 38.042 108.081v44.938c0 39.312-27.756 73.409-65.566 81.938z"/></svg>