<svg id="Layer_1" enable-background="new 0 0 512.002 512.002" height="512" viewBox="0 0 512.002 512.002" width="512" xmlns="http://www.w3.org/2000/svg"><path d="m357.784 317.18c31.403-28.039 51.21-68.806 51.21-114.117v-50.069c0-84.361-68.633-152.994-152.993-152.994s-152.993 68.633-152.993 152.993v50.069c0 45.312 19.807 86.079 51.21 114.117-69.664 15.575-121.89 77.89-121.89 152.181v27.641c0 8.284 6.716 15 15 15s15-6.716 15-15v-27.641c0-51.594 31.191-96.032 75.703-115.471l-.03 48.1c-.003 5.335 2.827 10.27 7.433 12.961 2.337 1.365 4.951 2.049 7.567 2.049 2.541 0 5.084-.646 7.372-1.937l61.895-34.931-28.455 63.107c-2.585 5.733-1.32 12.47 3.169 16.874l48.515 47.595c2.917 2.861 6.711 4.292 10.505 4.292s7.588-1.431 10.505-4.292l48.515-47.595c4.489-4.404 5.754-11.141 3.169-16.874l-28.455-63.108 61.895 34.932c2.289 1.291 4.831 1.937 7.372 1.937 2.616 0 5.231-.684 7.567-2.049 4.605-2.691 7.436-7.626 7.433-12.96l-.029-48.101c44.511 19.439 75.702 63.877 75.702 115.471v27.641c0 8.284 6.716 15 15 15s15-6.716 15-15v-27.641c-.002-74.29-52.228-136.605-121.892-152.18zm-101.783 8.876c-14.028 0-27.512-2.367-40.082-6.712-1.316-1.724-2.988-3.159-4.918-4.18v-21.164c0-24.813 20.187-45 45-45s45 20.187 45 45v23.531c-13.944 5.501-29.125 8.525-45 8.525zm0-296.056c67.818 0 122.993 55.175 122.993 122.993v23.957c-17.375-4.082-30.353-19.699-30.353-38.3v-16.354c0-11.021-5.166-20.983-14.174-27.333-9.011-6.351-20.131-7.869-30.507-4.163-31.834 11.361-63.24 11.255-96.016-.32-10.372-3.663-21.471-2.121-30.449 4.23-8.979 6.352-14.13 16.303-14.13 27.302v16.594c0 18.604-12.981 34.223-30.358 38.302v-23.914c.001-67.819 55.176-122.994 122.994-122.994zm-122.911 177.343c33.964-4.461 60.276-33.575 60.276-68.738v-16.594c0-1.315.381-2.05 1.455-2.81 1.073-.759 1.894-.872 3.134-.436 38.981 13.769 78.041 13.864 116.091.288 1.225-.438 2.075-.319 3.137.428 1.077.76 1.459 1.495 1.459 2.813v16.354c0 35.16 26.307 64.272 60.268 68.737-1.315 37.846-19.808 71.397-47.909 93.085v-6.47c0-41.355-33.645-75-75-75s-75 33.645-75 75v6.471c-28.112-21.696-46.608-55.264-47.911-93.128zm34.947 137.715c6.588-1.068 13.343-1.632 20.228-1.632h6.9c6.143 2.673 12.49 4.964 19.018 6.821l-46.167 26.055zm87.964 130.929-30.538-29.959 30.538-67.726 30.538 67.726zm87.984-99.685-46.166-26.055c6.528-1.857 12.875-4.148 19.018-6.821h6.9c6.885 0 13.641.564 20.229 1.632z"/></svg>