<svg id="Layer_1" enable-background="new 0 0 512.001 512.001" height="512" viewBox="0 0 512.001 512.001" width="512" xmlns="http://www.w3.org/2000/svg"><path d="m511.153 143.328-46.821-133.298c-1.464-4.168-4.691-7.479-8.82-9.05-4.128-1.57-8.741-1.24-12.604.901-31.501 17.46-56.982 38.672-77.475 64.485-27.717-28.633-66.529-46.465-109.432-46.465s-81.715 17.832-109.432 46.465c-20.493-25.813-45.974-47.025-77.475-64.485-3.864-2.141-8.475-2.471-12.605-.901-4.129 1.57-7.356 4.882-8.82 9.05l-46.821 133.298c-1.977 5.629-.431 11.894 3.938 15.956 2.831 2.632 6.498 4.015 10.217 4.015 2.021 0 4.058-.408 5.984-1.247 28.335-12.334 57.645-18.833 85.479-19.037-1.849 9.47-2.829 19.247-2.829 29.25 0 53.886 28.121 101.327 70.456 128.423-67.356 10.392-119.092 68.754-119.092 138.976v57.337c0 8.284 6.716 15 15 15s15-6.716 15-15v-57.337c0-39.059 20.348-73.454 51-93.144v23.778c0 37.495 30.505 68 68 68 20.251 0 39.205-9.06 52.01-24.286 12.822 15.206 31.836 24.286 51.99 24.286 37.496 0 68-30.505 68-68v-23.778c30.652 19.689 51 54.085 51 93.144v57.337c0 8.284 6.716 15 15 15s15-6.716 15-15v-57.337c0-70.221-51.737-128.584-119.094-138.976 42.336-27.096 70.456-74.537 70.456-128.423 0-9.996-.978-19.766-2.825-29.23 27.865.2 57.079 6.657 85.476 19.018 1.926.838 3.962 1.246 5.984 1.246 3.719 0 7.386-1.383 10.217-4.015 4.369-4.063 5.915-10.327 3.938-15.956zm-255.152-93.426c59.85 0 109.795 43.194 120.316 100.044-6.816 1.443-13.798 2.183-20.833 2.183-35.9 0-69.236-19.417-86.998-50.675-2.666-4.69-7.646-7.589-13.042-7.589s-10.375 2.898-13.042 7.589c-17.762 31.258-51.098 50.675-86.999 50.675-6.664 0-13.287-.663-19.762-1.959 10.431-56.961 60.431-100.268 120.36-100.268zm-216.329 73.42 30.217-86.027c23.125 14.926 42.08 32.531 57.51 53.35-4.539 7.126-8.505 14.65-11.826 22.512-24.684-.912-50.424 2.559-75.901 10.165zm216.328 250.975c-16.471 0-29.872-13.4-29.872-29.871v-22.748c9.663 1.929 19.65 2.948 29.872 2.948s20.209-1.019 29.872-2.948v22.748c0 16.471-13.4 29.871-29.872 29.871zm-90-3.999v-37.224c9.432-2.625 19.366-4.034 29.624-4.034h.505v15.386c0 23.582 13.71 44.017 33.574 53.771-6.926 6.393-16.052 10.101-25.702 10.101-20.954 0-38.001-17.046-38.001-38zm180.001 0c0 20.953-17.047 38-38 38-9.604 0-18.744-3.721-25.684-10.11 19.854-9.758 33.555-30.187 33.555-53.762v-15.386h.505c10.258 0 20.191 1.409 29.624 4.034zm-90-75.671c-64.754 0-117.912-50.563-122.089-114.28 7.079 1.178 14.269 1.783 21.491 1.783 38.949 0 75.571-17.574 100.04-47.002 24.469 29.428 61.09 47.002 100.04 47.002 7.609 0 15.177-.672 22.619-1.979-4.08 63.809-57.281 114.476-122.101 114.476zm140.427-181.471c-3.321-7.861-7.287-15.386-11.826-22.512 15.43-20.819 34.385-38.424 57.51-53.35l30.214 86.021c-25.471-7.609-51.162-11.062-75.898-10.159z"/></svg>