<svg id="Layer_1" enable-background="new 0 0 512.018 512.018" height="512" viewBox="0 0 512.018 512.018" width="512" xmlns="http://www.w3.org/2000/svg"><g><path d="m482.009 274.001h-6.001v-6.001c0-8.284-6.716-15-15-15s-15 6.716-15 15v6.001h-20v-6.001c0-8.284-6.716-15-15-15s-15 6.716-15 15v6.001h-20v-34.001c0-19.554-12.541-36.227-30-42.419v-12.58c0-8.284-6.716-15-15-15s-15 6.716-15 15v12.58c-17.459 6.192-30 22.865-30 42.419v34.001h-57.725c-4.196-29.202-26.474-52.643-55.094-58.554v-5.446c0-8.284-6.716-15-15-15s-15 6.716-15 15v5.635c-28.223 6.188-50.118 29.444-54.274 58.365h-21.906v-6.001c0-8.284-6.716-15-15-15s-15 6.716-15 15v6.001h-7c-16.542 0-30 13.458-30 29.999v132.992c0 8.402 4.986 15.977 12.703 19.295 7.718 3.317 16.644 1.728 22.74-4.051 2.36-2.235 6.518-6.175 8.862-7.058 1.297 1.053 3.329 3.301 4.753 4.878 2.808 3.107 6.376 7.036 10.942 10.089v36.852c0 8.284 6.716 15 15 15s15-6.716 15-15v-36.524c4.807-3.095 8.532-7.197 11.442-10.417 1.151-1.273 2.697-2.985 3.933-4.151 1.236 1.166 2.782 2.878 3.933 4.151 2.757 3.051 6.244 6.896 10.692 9.925v37.036c0 8.284 6.716 15 15 15s15-6.716 15-15v-36.38c4.93-3.112 8.731-7.305 11.692-10.581 1.151-1.273 2.697-2.985 3.933-4.151 1.236 1.166 2.782 2.878 3.933 4.151 5.377 5.95 13.502 14.943 26.192 14.943s20.815-8.993 26.192-14.943c1.151-1.273 2.697-2.985 3.933-4.151 1.236 1.166 2.782 2.878 3.933 4.151 5.377 5.95 13.502 14.943 26.192 14.943 12.689 0 20.815-8.993 26.192-14.943 1.15-1.273 2.697-2.985 3.933-4.151 1.236 1.166 2.782 2.878 3.933 4.151 5.377 5.95 13.503 14.943 26.192 14.943s20.814-8.993 26.192-14.943c1.15-1.273 2.697-2.985 3.933-4.151 1.236 1.166 2.782 2.878 3.933 4.151 2.961 3.276 6.761 7.469 11.691 10.581v36.361c0 8.284 6.716 15 15 15s15-6.716 15-15v-37.016c4.448-3.029 7.935-6.874 10.692-9.925 1.151-1.273 2.697-2.985 3.933-4.151 1.236 1.166 2.782 2.878 3.933 4.151 2.91 3.22 6.634 7.322 11.441 10.417v36.544c0 8.284 6.716 15 15 15s15-6.716 15-15v-37.321c4.62-3.41 8.263-7.887 11.313-11.638.388-.477.827-1.017 1.282-1.567l14.789 9.818c6.46 4.289 14.716 4.681 21.546 1.019 6.829-3.662 11.07-10.756 11.07-18.513v-134.816c.002-16.541-13.456-29.999-29.998-29.999zm-123.407 30-102.593 58.716-102.593-58.716zm-42.593-64.001c0-8.271 6.729-14.999 15-14.999s15 6.729 15 14.999v34.001h-30zm-157.82 4.001h.82c18.604 0 34.283 12.768 38.735 30h-78.29c4.452-17.232 20.131-30 38.735-30zm323.82 178.036-6.828-4.534c-7.66-5.084-16.924-4.725-24.78.965-4.093 2.964-7.276 6.879-10.355 10.665-1.04 1.279-2.505 3.081-3.786 4.479-1.134-1.123-2.434-2.561-3.434-3.668-5.377-5.95-13.502-14.943-26.192-14.943-12.689 0-20.815 8.993-26.192 14.943-1.151 1.273-2.697 2.985-3.933 4.151-1.236-1.166-2.782-2.878-3.933-4.151-5.377-5.95-13.502-14.943-26.192-14.943-12.689 0-20.815 8.993-26.192 14.943-1.15 1.273-2.697 2.985-3.933 4.151-1.236-1.166-2.782-2.878-3.933-4.151-5.377-5.95-13.502-14.943-26.192-14.943-12.689 0-20.815 8.993-26.192 14.943-1.151 1.273-2.698 2.985-3.934 4.151-1.236-1.166-2.782-2.878-3.933-4.151-5.377-5.95-13.502-14.943-26.192-14.943s-20.815 8.993-26.192 14.943c-1.151 1.273-2.697 2.985-3.933 4.151-1.236-1.166-2.782-2.878-3.933-4.151-5.377-5.95-13.502-14.943-26.192-14.943s-20.815 8.993-26.192 14.943c-1.151 1.273-2.697 2.985-3.933 4.151-1.236-1.166-2.782-2.878-3.933-4.151-5.377-5.95-13.502-14.943-26.192-14.943s-20.815 8.993-26.192 14.943c-1.151 1.273-2.697 2.985-3.933 4.151-1.236-1.166-2.782-2.878-3.933-4.151-5.376-5.951-13.502-14.944-26.191-14.944-5.72 0-10.743 1.554-15.126 3.812l-.006-114.811h63.019l155.539 89.018c2.308 1.321 4.879 1.981 7.451 1.981s5.143-.66 7.451-1.981l155.537-89.019h63.01z"/><path d="m177.008 128.06h64v3.94c0 8.284 6.716 15 15 15s15-6.716 15-15v-3.94h64c4.199 0 8.207-1.761 11.047-4.854s4.255-7.234 3.898-11.419c-1.992-23.399-12.666-45.137-30.054-61.207-13.763-12.719-30.741-20.92-48.892-23.853v-11.727c0-8.284-6.716-15-15-15s-15 6.716-15 15v11.727c-18.151 2.933-35.129 11.134-48.892 23.853-17.389 16.07-28.063 37.808-30.054 61.207-.356 4.185 1.058 8.326 3.898 11.419s6.85 4.854 11.049 4.854zm79.001-72.56c27.423 0 51.434 17.727 60.469 42.56h-60.449c-.007 0-.013-.001-.019-.001s-.013.001-.019.001h-60.451c9.035-24.833 33.045-42.56 60.469-42.56z"/></g></svg>