<svg id="Layer_1" enable-background="new 0 0 512.049 512.049" height="512" viewBox="0 0 512.049 512.049" width="512" xmlns="http://www.w3.org/2000/svg"><g clip-rule="evenodd" fill-rule="evenodd"><path d="m512.049 330.002v-84.998c0-35.562-26.661-64.993-61.041-69.41v-5.279c0-1.128-.127-2.253-.379-3.353-4.651-20.283-23.154-35.006-43.996-35.006-4.733 0-9.294.741-13.584 2.095v-62.005c0-8.284-6.716-15-15-15s-15 6.716-15 15v63.098c-5.16-2.052-10.782-3.187-16.667-3.187-4.641 0-9.116.713-13.333 2.017v-61.928c0-8.284-6.716-15-15-15s-15 6.716-15 15v63.202c-5.228-2.116-10.936-3.291-16.916-3.291-4.917 0-9.65.795-14.084 2.252v-62.163c0-8.284-6.716-15-15-15s-15 6.716-15 15v62.902c-5.022-1.929-10.472-2.991-16.167-2.991-4.825 0-9.471.769-13.833 2.173v-62.084c0-8.284-6.716-15-15-15s-15 6.716-15 15v62.993c-5.09-1.989-10.628-3.082-16.417-3.082-5.476 0-10.722.988-15.583 2.778v-62.689c0-8.284-6.716-15-15-15s-15 6.716-15 15v62.356c-4.601-1.582-9.534-2.445-14.667-2.445-20.845 0-39.348 14.725-43.996 35.012-.252 1.099-.379 2.223-.379 3.35v5.286c-34.34 4.453-60.958 33.866-60.958 69.399v84.998c0 15.09 7.495 28.459 18.959 36.627v55.373h-4.008c-8.284 0-15 6.716-15 15s6.716 15 15 15h4.416c3.513 33.666 32.055 60 66.636 60h339.912c34.58 0 63.122-26.334 66.635-60h4.406c8.284 0 15-6.716 15-15s-6.716-15-15-15h-3.997v-55.314c11.51-8.162 19.041-21.559 19.041-36.686zm-463.041 91.999v-47.168c10.058-.848 19.19-4.993 26.291-11.354 7.994 7.161 18.559 11.523 30.125 11.523s22.131-4.363 30.125-11.524c7.994 7.161 18.559 11.524 30.125 11.524s22.131-4.362 30.125-11.523c7.994 7.161 18.559 11.523 30.125 11.523s22.131-4.362 30.125-11.523c7.994 7.161 18.559 11.523 30.125 11.523s22.131-4.362 30.125-11.523c7.994 7.161 18.559 11.523 30.125 11.523s22.131-4.362 30.125-11.523c7.994 7.161 18.559 11.523 30.125 11.523s22.131-4.362 30.125-11.523c7.082 6.344 16.183 10.484 26.209 11.348v47.174zm357.625-260.043c6.52 0 12.354 4.28 14.375 10.356v2.688h-29.356c.971-7.349 7.311-13.044 14.981-13.044zm-60.25 0c7.67 0 14.01 5.696 14.981 13.044h-29.962c.971-7.349 7.311-13.044 14.981-13.044zm-60.25 0c7.67 0 14.01 5.696 14.981 13.044h-29.964c.972-7.349 7.313-13.044 14.983-13.044zm-60.251 0c7.67 0 14.01 5.696 14.981 13.044h-29.963c.973-7.349 7.312-13.044 14.982-13.044zm-60.249 0c7.67 0 14.009 5.696 14.981 13.044h-29.962c.971-7.349 7.311-13.044 14.981-13.044zm-60.251 0c7.67 0 14.012 5.696 14.984 13.044h-29.359v-2.686c2.021-6.078 7.855-10.358 14.375-10.358zm-75.333 83.046c0-22.058 17.945-40.003 40.003-40.003h371.994c22.058 0 40.003 17.945 40.003 40.003v84.998c0 8.271-6.785 15-15.125 15s-15.125-6.729-15.125-15c0-8.284-6.716-15-15-15s-15 6.716-15 15c0 8.271-6.785 15-15.125 15s-15.125-6.729-15.125-15c0-8.284-6.716-15-15-15s-15 6.716-15 15c0 8.271-6.785 15-15.125 15s-15.125-6.729-15.125-15c0-8.284-6.716-15-15-15s-15 6.716-15 15c0 8.271-6.785 15-15.125 15s-15.125-6.729-15.125-15c0-8.284-6.716-15-15-15s-15 6.716-15 15c0 8.271-6.785 15-15.125 15s-15.125-6.729-15.125-15c0-8.284-6.716-15-15-15s-15 6.716-15 15c0 8.271-6.785 15-15.125 15-8.307 0-15.072-6.677-15.125-14.903 0-.032 0-.064 0-.097 0-8.284-6.716-15-15-15s-15 6.716-15 15c0 8.271-6.785 15-15.125 15s-15.125-6.729-15.125-15c0-8.284-6.716-15-15-15s-15 6.716-15 15c0 8.271-6.785 15-15.125 15s-15.125-6.729-15.125-15v-84.998zm395.915 236.998h-339.912c-18.01 0-33.056-12.934-36.338-30h412.588c-3.283 17.066-18.329 30-36.338 30z"/><ellipse cx="135.049" cy="15.046" rx="15" ry="15" transform="matrix(.998 -.071 .071 .998 -.727 9.611)"/><circle cx="197.049" cy="15.046" r="15"/><ellipse cx="257.049" cy="15.046" rx="15" ry="15" transform="matrix(.383 -.924 .924 .383 144.78 246.77)"/><ellipse cx="318.049" cy="15.046" rx="15" ry="15" transform="matrix(.383 -.924 .924 .383 182.436 303.127)"/><circle cx="378.049" cy="15.046" r="15"/></g></svg>