<svg id="Layer_1" enable-background="new 0 0 511.84 511.84" height="512" viewBox="0 0 511.84 511.84" width="512" xmlns="http://www.w3.org/2000/svg"><path d="m337.827 357.864c42.335-27.096 70.455-74.537 70.455-128.423 0-1.168-.029-2.338-.056-3.509 3.713-.325 7.192-2.012 9.736-4.78 2.841-3.089 4.257-7.227 3.905-11.408-3.34-39.735-22.211-76.648-53.138-103.939-10.301-9.091-21.625-16.811-33.688-23.077 11.988-8.152 19.878-21.9 19.878-37.458.001-24.962-20.307-45.27-45.269-45.27-12.005 0-27.269 7.237-38.786 13.903-.563-7.77-7.03-13.903-14.944-13.903s-14.381 6.133-14.945 13.903c-11.517-6.666-26.781-13.903-38.786-13.903-24.961 0-45.269 20.308-45.269 45.27 0 15.55 7.883 29.292 19.861 37.445-12.072 6.268-23.403 13.993-33.711 23.09-30.926 27.291-49.797 64.204-53.137 103.939-.352 4.182 1.064 8.319 3.905 11.408 2.551 2.775 6.044 4.464 9.768 4.781-.027 1.17-.05 2.34-.05 3.507 0 53.887 28.12 101.327 70.455 128.423-67.355 10.394-119.091 68.756-119.091 138.977 0 8.284 6.716 15 15 15s15-6.716 15-15c0-60.998 49.625-110.623 110.623-110.623h.505v15.386c0 33.013 26.858 59.871 59.872 59.871s59.872-26.858 59.872-59.871v-15.386h.505c60.998 0 110.623 49.625 110.623 110.623 0 8.284 6.716 15 15 15s15-6.716 15-15c0-70.221-51.736-128.583-119.093-138.976zm51.658-161.864h-68.045c-2.138-29.662-7.947-57.057-16.719-78.298-3.009-7.285-6.178-13.435-9.432-18.636 46.978 13.556 83.851 50.637 94.196 96.934zm-154.677-66.847c7.604-18.412 16.072-26.653 21.093-26.653 4.857 0 13.529 8.341 21.093 26.653 7.382 17.877 12.368 41.204 14.378 66.847h-70.942c2.009-25.643 6.995-48.971 14.378-66.847zm52.472-90.077c12.742-7.18 20.205-9.076 22.37-9.076 8.42 0 15.27 6.85 15.27 15.27s-6.85 15.27-15.27 15.27c-2.165 0-9.628-1.896-22.37-9.076-3.8-2.141-7.194-4.266-10.061-6.193 2.867-1.929 6.261-4.054 10.061-6.195zm-85.091-9.076c2.165 0 9.628 1.896 22.37 9.076 3.8 2.141 7.194 4.266 10.061 6.193-2.866 1.928-6.261 4.053-10.061 6.193-12.742 7.18-20.205 9.076-22.37 9.076-8.419 0-15.269-6.85-15.269-15.27s6.851-15.268 15.269-15.268zm14.322 69.067c-3.254 5.201-6.424 11.35-9.432 18.635-8.771 21.241-14.581 48.636-16.719 78.298h-68.045c10.346-46.297 47.218-83.378 94.196-96.933zm-82.953 130.373c0-1.145.016-2.293.049-3.44h244.621c.032 1.148.055 2.295.055 3.44 0 67.472-54.892 122.363-122.362 122.363s-122.363-54.891-122.363-122.363zm122.362 202.034c-16.472 0-29.872-13.4-29.872-29.871v-22.747c9.663 1.929 19.65 2.948 29.872 2.948s20.209-1.02 29.872-2.948v22.747c0 16.47-13.4 29.871-29.872 29.871z"/></svg>