<svg id="Layer_1" enable-background="new 0 0 512 512" height="512" viewBox="0 0 512 512" width="512" xmlns="http://www.w3.org/2000/svg"><path d="m414.599 205h-.716c7.946-26.638 12.604-50.894 13.58-70.97 1.503-30.936-5.961-50.262-22.187-57.44-16.848-7.454-37.009.875-59.922 24.758-9.51 9.912-19.427 22.508-29.237 37.025-1.96-30.277-6.422-58.224-13.038-80.948-11.093-38.105-26.933-57.425-47.079-57.425s-35.986 19.32-47.08 57.425c-6.914 23.75-11.476 53.208-13.288 85.067-10.574-16.069-21.328-29.973-31.622-40.764-23.064-24.176-43.348-32.634-60.286-25.14-16.227 7.18-23.691 26.506-22.188 57.441.977 20.101 5.645 44.392 13.609 71.07-14.123 1.152-25.266 13.005-25.266 27.421v43.406c0 15.175 12.346 27.521 27.521 27.521h1.109c11.356 51.613 22.722 103.222 34.106 154.829 6.979 31.632 34.476 53.724 66.868 53.724h112.971c32.412 0 59.912-22.108 66.875-53.763 7.146-32.488 29.797-134.518 34.281-154.79h.989c15.175 0 27.521-12.346 27.521-27.521v-43.406c0-15.174-12.346-27.52-27.521-27.52zm-314.719 68.447v-38.447h312.24v38.447zm265.494-149.607c16.824-18.057 26.222-20.226 27.721-19.838 1.268.831 5.709 8.505 4.275 30.853-1.228 19.14-6.483 43.772-14.898 70.146h-66.099c.175-3.089.318-6.199.441-9.322 15.611-29.471 32.83-54.958 48.56-71.839zm-128.831-53.812c8.017-29.767 16.966-38.786 19.457-39.954 2.491 1.168 11.44 10.187 19.457 39.954 7.605 28.241 11.793 65.116 11.793 103.83 0 10.499-.326 20.935-.939 31.142h-60.635c-.612-10.205-.926-20.635-.926-31.142 0-38.713 4.188-75.588 11.793-103.83zm-120.726 34.012c1.612-.407 11.111 1.781 28.12 20.135 16.065 17.334 47.063 68.825 51.495 76.725.067 1.368.13 2.738.207 4.1h-69.112c-8.415-26.373-13.67-51.006-14.898-70.146-1.433-22.347 3.009-30.021 4.188-30.814zm234.213 347.752c-3.913 17.786-19.364 30.208-37.576 30.208h-112.971c-18.201 0-33.65-12.413-37.571-30.187-10.909-49.452-21.8-98.908-32.683-148.366h253.656c-3.987 18.013-25.702 115.828-32.855 148.345z"/></svg>