<svg id="Layer_1" enable-background="new 0 0 512.004 512.004" height="512" viewBox="0 0 512.004 512.004" width="512" xmlns="http://www.w3.org/2000/svg"><path d="m512.002 178c0-23.776-12.391-45.317-32.282-57.324-1.281-16.22-8.41-31.464-20.314-42.928-11.55-11.123-26.486-17.621-42.213-18.613-5.487-11.471-13.75-21.632-23.958-29.303-13.784-10.357-30.204-15.832-47.485-15.832-13.558 0-26.759 3.468-38.427 9.955-12.563-14.922-31.311-23.955-51.323-23.955s-38.76 9.033-51.323 23.955c-11.668-6.487-24.869-9.955-38.427-9.955-17.281 0-33.701 5.475-47.485 15.832-10.208 7.671-18.47 17.831-23.958 29.302-15.721.992-30.658 7.488-42.207 18.608-11.907 11.464-19.037 26.713-20.319 42.936-19.891 12.008-32.279 33.548-32.279 57.322 0 15.009 4.961 28.881 13.328 40.063-13.377 20.251-17.037 45.665-9.358 69.257 6.856 21.064 21.618 37.965 41.566 47.587 15.869 7.653 33.303 9.874 50.226 6.56 12.912 19.813 35.669 31.54 60.059 31.54 7.917 0 16.011-1.237 23.99-3.834 7.571-2.464 14.635-6.066 20.969-10.584-1.722 66.566-28.925 111.026-77.056 123.923-8.002 2.145-12.75 10.369-10.606 18.372 1.796 6.701 7.856 11.121 14.479 11.121 1.285 0 2.591-.167 3.892-.515 34.649-9.285 61.938-31.354 78.915-63.822 15.356-29.37 22.116-66.209 20.164-109.667h50.861c-1.952 43.458 4.807 80.297 20.164 109.667 16.977 32.468 44.266 54.537 78.915 63.822 1.301.348 2.606.515 3.892.515 6.623 0 12.684-4.42 14.479-11.121 2.144-8.003-2.604-16.228-10.606-18.372-48.136-12.898-75.341-57.367-77.056-123.947 6.343 4.529 13.418 8.14 21.002 10.608 7.98 2.598 16.07 3.834 23.989 3.834 24.387 0 47.148-11.728 60.059-31.54 16.921 3.312 34.358 1.094 50.225-6.56 19.949-9.622 34.711-26.522 41.567-47.587 7.574-23.269 4.043-48.901-9.378-69.268 8.361-11.18 13.319-25.048 13.319-40.052zm-459.074-34.229c5.996-2.47 9.727-8.513 9.247-14.979-.819-11.046 3.274-21.775 11.232-29.438 7.961-7.666 18.84-11.354 29.851-10.116 7.175.805 13.906-3.614 16.019-10.518 6.355-20.767 25.232-34.72 46.973-34.72 12.028 0 23.602 4.396 32.591 12.376 3.547 3.148 8.375 4.437 13.018 3.468 4.644-.967 8.556-4.073 10.551-8.377 6.044-13.04 19.229-21.467 33.59-21.467s27.547 8.427 33.591 21.467c1.994 4.304 5.907 7.41 10.55 8.377s9.47-.318 13.018-3.468c8.989-7.98 20.563-12.376 32.591-12.376 21.742 0 40.618 13.953 46.972 34.72 2.112 6.903 8.843 11.326 16.016 10.518 11.018-1.239 21.896 2.453 29.858 10.119 7.956 7.662 12.048 18.39 11.229 29.433-.48 6.468 3.251 12.512 9.249 14.98 13.928 5.734 22.928 19.17 22.928 34.23 0 20.402-16.598 37-37 37-7.54 0-14.792-2.254-20.973-6.517-4.153-2.865-9.467-3.451-14.145-1.558-4.677 1.893-8.089 6.01-9.08 10.957-3.815 19.037-17.277 34.204-34.802 40.687v-59.136c1.912.823 3.918 1.226 5.902 1.226 5.302 0 10.442-2.818 13.169-7.797 3.979-7.267 1.315-16.383-5.95-20.362l-115.917-63.489c-4.489-2.457-9.922-2.457-14.411 0l-115.918 63.489c-7.266 3.979-9.93 13.096-5.95 20.361 3.747 6.842 12.048 9.597 19.072 6.575v59.15c-17.526-6.485-30.986-21.665-34.802-40.702-.992-4.946-4.403-9.063-9.08-10.956-4.678-1.894-9.991-1.308-14.144 1.556-6.18 4.263-13.432 6.516-20.971 6.516-20.402 0-37-16.598-37-37 0-15.059 8.999-28.494 22.926-34.229zm218.072 164.229h-30v-75h30zm30 0v-90c0-8.284-6.716-15-15-15h-60c-8.284 0-15 6.716-15 15v90h-35.001v-124.912l80.001-43.817 80.002 43.818v124.911zm-183.554 10.339c-2.964-7.662-11.54-11.514-19.235-8.64-13.042 4.868-27.119 4.225-39.639-1.814-12.512-6.035-21.772-16.636-26.073-29.851-4.439-13.638-2.835-28.249 4.012-40.405 9.154 4.7 19.513 7.371 30.491 7.371 7.045 0 13.956-1.089 20.535-3.205 10.825 24.172 32.482 42.062 58.462 48.035v33.17c0 8.284 6.716 15 15 15h16.003c-2.073 1.03-4.236 1.916-6.473 2.645-22.141 7.209-45.455-2.594-53.083-22.306zm362.086-40.305c-4.301 13.215-13.561 23.815-26.073 29.851-12.52 6.038-26.596 6.684-39.638 1.814-7.696-2.875-16.271.979-19.235 8.639-7.629 19.714-30.944 29.514-53.083 22.307-2.231-.726-4.383-1.618-6.451-2.645h15.949c8.284 0 15-6.716 15-15v-33.17c25.979-5.974 47.637-23.866 58.462-48.037 6.58 2.118 13.491 3.207 20.538 3.207 10.981 0 21.344-2.673 30.5-7.375 6.867 12.234 8.412 26.953 4.031 40.409z"/></svg>