<svg id="Layer_1" enable-background="new 0 0 512 512" height="512" viewBox="0 0 512 512" width="512" xmlns="http://www.w3.org/2000/svg"><g><path d="m430.121 153.68c17.593-16.193 28.635-39.399 28.635-65.137 0-48.823-39.721-88.543-88.544-88.543-48.822 0-88.543 39.72-88.543 88.543 0 25.785 11.082 49.029 28.73 65.226-23.201 4.161-40.899 25.026-40.899 50.08v118.303c0 23.999 16.241 44.154 38 49.467v125.381c0 8.284 6.716 15 15 15h96c8.284 0 15-6.716 15-15v-125.382c21.759-5.313 38-25.468 38-49.467v-118.302c0-25.227-17.942-46.212-41.379-50.169zm-118.182-70.681h116.547c.172 1.826.27 3.674.27 5.544 0 32.281-26.263 58.544-58.544 58.544-32.28 0-58.543-26.263-58.543-58.544 0-1.87.097-3.718.27-5.544zm58.273-52.999c18.921 0 35.765 9.03 46.475 22.999h-92.948c10.708-13.969 27.552-22.999 46.473-22.999zm-32.712 452v-109h66v109zm104-159.849c0 11.496-8.702 20.849-19.399 20.849h-103.202c-10.697 0-19.399-9.353-19.399-20.849v-118.302c0-11.496 8.702-20.849 19.399-20.849h36.601v28.675c0 8.284 6.716 15 15 15s15-6.716 15-15v-28.675h36.601c10.697 0 19.399 9.353 19.399 20.849z"/><path d="m222.34 253.5-6.997-.012c-4.756-.008-8.741-3.34-9.758-7.781.012-.51.039-1.016.039-1.528 0-36.846-29.976-66.821-66.82-66.821-36.846 0-66.821 29.976-66.821 66.821 0 .51.027 1.015.039 1.522-1.283 4.043-5.078 6.987-9.549 6.994l-6.995.011c-8.284.013-14.989 6.739-14.977 15.023.013 8.276 6.726 14.977 14.999 14.977h.024l6.996-.011c6.751-.011 13.106-1.72 18.688-4.696 4.077 6.916 9.357 13.038 15.56 18.072-13.658 10.423-23.263 25.93-25.995 44.144-2.194 14.627-10.961 77.975-13.151 92.556-.648 4.319.617 8.706 3.467 12.016s7 5.213 11.367 5.213h16.859v47c0 8.284 6.716 15 15 15h68.978c8.284 0 15-6.716 15-15v-47h16.859c4.367 0 8.518-1.903 11.367-5.213s4.115-7.697 3.466-12.016c-2.186-14.553-10.961-77.904-13.161-92.563-2.733-18.206-12.337-33.708-25.994-44.129 6.052-4.91 11.233-10.85 15.269-17.557 5.701 3.147 12.24 4.956 19.196 4.966l6.995.012h.026c8.272 0 14.985-6.699 14.999-14.975.013-8.284-6.691-15.011-14.975-15.025zm-83.536-46.143c20.303 0 36.82 16.518 36.82 36.821s-16.518 36.822-36.82 36.822c-20.304 0-36.821-16.518-36.821-36.821s16.517-36.822 36.821-36.822zm19.488 274.643h-38.978v-32h38.978zm29.509-62h-97.996c1.384-9.694 8.467-60.875 10.636-75.333 2.884-19.234 18.652-32.667 38.341-32.667 19.706 0 35.486 13.431 38.373 32.661 2.176 14.491 9.266 65.677 10.646 75.339z"/></g></svg>